<svg xmlns="http://www.w3.org/2000/svg" xmlns:xlink="http://www.w3.org/1999/xlink" width="600" height="300" viewBox="0 0 2400 1200">
<defs>
  <clipPath id="clip590">
    <rect x="0" y="0" width="2400" height="1200"></rect>
  </clipPath>
</defs>
<path clip-path="url(#clip590)" d="M0 1200 L2400 1200 L2400 0 L0 0  Z" fill="#ffffff" fill-rule="evenodd" fill-opacity="1"></path>
<defs>
  <clipPath id="clip591">
    <rect x="480" y="0" width="1681" height="1200"></rect>
  </clipPath>
</defs>
<path clip-path="url(#clip590)" d="M275.486 1047.7 L2352.76 1047.7 L2352.76 47.2441 L275.486 47.2441  Z" fill="#ffffff" fill-rule="evenodd" fill-opacity="1"></path>
<defs>
  <clipPath id="clip592">
    <rect x="275" y="47" width="2078" height="1001"></rect>
  </clipPath>
</defs>
<polyline clip-path="url(#clip592)" style="stroke:#000000; stroke-linecap:round; stroke-linejoin:round; stroke-width:2; stroke-opacity:0.1; fill:none" points="334.277,1047.7 334.277,47.2441 "></polyline>
<polyline clip-path="url(#clip592)" style="stroke:#000000; stroke-linecap:round; stroke-linejoin:round; stroke-width:2; stroke-opacity:0.1; fill:none" points="824.199,1047.7 824.199,47.2441 "></polyline>
<polyline clip-path="url(#clip592)" style="stroke:#000000; stroke-linecap:round; stroke-linejoin:round; stroke-width:2; stroke-opacity:0.1; fill:none" points="1314.12,1047.7 1314.12,47.2441 "></polyline>
<polyline clip-path="url(#clip592)" style="stroke:#000000; stroke-linecap:round; stroke-linejoin:round; stroke-width:2; stroke-opacity:0.1; fill:none" points="1804.04,1047.7 1804.04,47.2441 "></polyline>
<polyline clip-path="url(#clip592)" style="stroke:#000000; stroke-linecap:round; stroke-linejoin:round; stroke-width:2; stroke-opacity:0.1; fill:none" points="2293.97,1047.7 2293.97,47.2441 "></polyline>
<polyline clip-path="url(#clip592)" style="stroke:#000000; stroke-linecap:round; stroke-linejoin:round; stroke-width:2; stroke-opacity:0.1; fill:none" points="275.486,942.406 2352.76,942.406 "></polyline>
<polyline clip-path="url(#clip592)" style="stroke:#000000; stroke-linecap:round; stroke-linejoin:round; stroke-width:2; stroke-opacity:0.1; fill:none" points="275.486,725.694 2352.76,725.694 "></polyline>
<polyline clip-path="url(#clip592)" style="stroke:#000000; stroke-linecap:round; stroke-linejoin:round; stroke-width:2; stroke-opacity:0.1; fill:none" points="275.486,508.982 2352.76,508.982 "></polyline>
<polyline clip-path="url(#clip592)" style="stroke:#000000; stroke-linecap:round; stroke-linejoin:round; stroke-width:2; stroke-opacity:0.1; fill:none" points="275.486,292.271 2352.76,292.271 "></polyline>
<polyline clip-path="url(#clip592)" style="stroke:#000000; stroke-linecap:round; stroke-linejoin:round; stroke-width:2; stroke-opacity:0.1; fill:none" points="275.486,75.5589 2352.76,75.5589 "></polyline>
<polyline clip-path="url(#clip590)" style="stroke:#000000; stroke-linecap:round; stroke-linejoin:round; stroke-width:4; stroke-opacity:1; fill:none" points="275.486,1047.7 2352.76,1047.7 "></polyline>
<polyline clip-path="url(#clip590)" style="stroke:#000000; stroke-linecap:round; stroke-linejoin:round; stroke-width:4; stroke-opacity:1; fill:none" points="334.277,1047.7 334.277,1028.8 "></polyline>
<polyline clip-path="url(#clip590)" style="stroke:#000000; stroke-linecap:round; stroke-linejoin:round; stroke-width:4; stroke-opacity:1; fill:none" points="824.199,1047.7 824.199,1028.8 "></polyline>
<polyline clip-path="url(#clip590)" style="stroke:#000000; stroke-linecap:round; stroke-linejoin:round; stroke-width:4; stroke-opacity:1; fill:none" points="1314.12,1047.7 1314.12,1028.8 "></polyline>
<polyline clip-path="url(#clip590)" style="stroke:#000000; stroke-linecap:round; stroke-linejoin:round; stroke-width:4; stroke-opacity:1; fill:none" points="1804.04,1047.7 1804.04,1028.8 "></polyline>
<polyline clip-path="url(#clip590)" style="stroke:#000000; stroke-linecap:round; stroke-linejoin:round; stroke-width:4; stroke-opacity:1; fill:none" points="2293.97,1047.7 2293.97,1028.8 "></polyline>
<path clip-path="url(#clip590)" d="M296.58 1078.62 Q292.969 1078.62 291.14 1082.18 Q289.335 1085.72 289.335 1092.85 Q289.335 1099.96 291.14 1103.53 Q292.969 1107.07 296.58 1107.07 Q300.214 1107.07 302.02 1103.53 Q303.848 1099.96 303.848 1092.85 Q303.848 1085.72 302.02 1082.18 Q300.214 1078.62 296.58 1078.62 M296.58 1074.91 Q302.39 1074.91 305.446 1079.52 Q308.524 1084.1 308.524 1092.85 Q308.524 1101.58 305.446 1106.19 Q302.39 1110.77 296.58 1110.77 Q290.77 1110.77 287.691 1106.19 Q284.636 1101.58 284.636 1092.85 Q284.636 1084.1 287.691 1079.52 Q290.77 1074.91 296.58 1074.91 Z" fill="#000000" fill-rule="nonzero" fill-opacity="1"></path><path clip-path="url(#clip590)" d="M316.742 1104.22 L321.626 1104.22 L321.626 1110.1 L316.742 1110.1 L316.742 1104.22 Z" fill="#000000" fill-rule="nonzero" fill-opacity="1"></path><path clip-path="url(#clip590)" d="M341.811 1078.62 Q338.2 1078.62 336.371 1082.18 Q334.566 1085.72 334.566 1092.85 Q334.566 1099.96 336.371 1103.53 Q338.2 1107.07 341.811 1107.07 Q345.445 1107.07 347.251 1103.53 Q349.08 1099.96 349.08 1092.85 Q349.08 1085.72 347.251 1082.18 Q345.445 1078.62 341.811 1078.62 M341.811 1074.91 Q347.621 1074.91 350.677 1079.52 Q353.756 1084.1 353.756 1092.85 Q353.756 1101.58 350.677 1106.19 Q347.621 1110.77 341.811 1110.77 Q336.001 1110.77 332.922 1106.19 Q329.867 1101.58 329.867 1092.85 Q329.867 1084.1 332.922 1079.52 Q336.001 1074.91 341.811 1074.91 Z" fill="#000000" fill-rule="nonzero" fill-opacity="1"></path><path clip-path="url(#clip590)" d="M371.973 1078.62 Q368.362 1078.62 366.533 1082.18 Q364.728 1085.72 364.728 1092.85 Q364.728 1099.96 366.533 1103.53 Q368.362 1107.07 371.973 1107.07 Q375.607 1107.07 377.413 1103.53 Q379.242 1099.96 379.242 1092.85 Q379.242 1085.72 377.413 1082.18 Q375.607 1078.62 371.973 1078.62 M371.973 1074.91 Q377.783 1074.91 380.839 1079.52 Q383.918 1084.1 383.918 1092.85 Q383.918 1101.58 380.839 1106.19 Q377.783 1110.77 371.973 1110.77 Q366.163 1110.77 363.084 1106.19 Q360.029 1101.58 360.029 1092.85 Q360.029 1084.1 363.084 1079.52 Q366.163 1074.91 371.973 1074.91 Z" fill="#000000" fill-rule="nonzero" fill-opacity="1"></path><path clip-path="url(#clip590)" d="M787 1078.62 Q783.389 1078.62 781.56 1082.18 Q779.755 1085.72 779.755 1092.85 Q779.755 1099.96 781.56 1103.53 Q783.389 1107.07 787 1107.07 Q790.634 1107.07 792.44 1103.53 Q794.268 1099.96 794.268 1092.85 Q794.268 1085.72 792.44 1082.18 Q790.634 1078.62 787 1078.62 M787 1074.91 Q792.81 1074.91 795.866 1079.52 Q798.944 1084.1 798.944 1092.85 Q798.944 1101.58 795.866 1106.19 Q792.81 1110.77 787 1110.77 Q781.19 1110.77 778.111 1106.19 Q775.055 1101.58 775.055 1092.85 Q775.055 1084.1 778.111 1079.52 Q781.19 1074.91 787 1074.91 Z" fill="#000000" fill-rule="nonzero" fill-opacity="1"></path><path clip-path="url(#clip590)" d="M807.162 1104.22 L812.046 1104.22 L812.046 1110.1 L807.162 1110.1 L807.162 1104.22 Z" fill="#000000" fill-rule="nonzero" fill-opacity="1"></path><path clip-path="url(#clip590)" d="M826.259 1106.16 L842.578 1106.16 L842.578 1110.1 L820.634 1110.1 L820.634 1106.16 Q823.296 1103.41 827.879 1098.78 Q832.486 1094.13 833.666 1092.79 Q835.912 1090.26 836.791 1088.53 Q837.694 1086.77 837.694 1085.08 Q837.694 1082.32 835.75 1080.59 Q833.828 1078.85 830.726 1078.85 Q828.527 1078.85 826.074 1079.61 Q823.643 1080.38 820.865 1081.93 L820.865 1077.21 Q823.689 1076.07 826.143 1075.49 Q828.597 1074.91 830.634 1074.91 Q836.004 1074.91 839.199 1077.6 Q842.393 1080.29 842.393 1084.78 Q842.393 1086.91 841.583 1088.83 Q840.796 1090.72 838.689 1093.32 Q838.111 1093.99 835.009 1097.21 Q831.907 1100.4 826.259 1106.16 Z" fill="#000000" fill-rule="nonzero" fill-opacity="1"></path><path clip-path="url(#clip590)" d="M852.439 1075.54 L870.796 1075.54 L870.796 1079.48 L856.722 1079.48 L856.722 1087.95 Q857.74 1087.6 858.759 1087.44 Q859.777 1087.25 860.796 1087.25 Q866.583 1087.25 869.962 1090.42 Q873.342 1093.6 873.342 1099.01 Q873.342 1104.59 869.87 1107.69 Q866.398 1110.77 860.078 1110.77 Q857.902 1110.77 855.634 1110.4 Q853.388 1110.03 850.981 1109.29 L850.981 1104.59 Q853.064 1105.72 855.287 1106.28 Q857.509 1106.84 859.986 1106.84 Q863.99 1106.84 866.328 1104.73 Q868.666 1102.62 868.666 1099.01 Q868.666 1095.4 866.328 1093.29 Q863.99 1091.19 859.986 1091.19 Q858.111 1091.19 856.236 1091.6 Q854.384 1092.02 852.439 1092.9 L852.439 1075.54 Z" fill="#000000" fill-rule="nonzero" fill-opacity="1"></path><path clip-path="url(#clip590)" d="M1276.42 1078.62 Q1272.81 1078.62 1270.98 1082.18 Q1269.18 1085.72 1269.18 1092.85 Q1269.18 1099.96 1270.98 1103.53 Q1272.81 1107.07 1276.42 1107.07 Q1280.06 1107.07 1281.86 1103.53 Q1283.69 1099.96 1283.69 1092.85 Q1283.69 1085.72 1281.86 1082.18 Q1280.06 1078.62 1276.42 1078.62 M1276.42 1074.91 Q1282.23 1074.91 1285.29 1079.52 Q1288.37 1084.1 1288.37 1092.85 Q1288.37 1101.58 1285.29 1106.19 Q1282.23 1110.77 1276.42 1110.77 Q1270.61 1110.77 1267.54 1106.19 Q1264.48 1101.58 1264.48 1092.85 Q1264.48 1084.1 1267.54 1079.52 Q1270.61 1074.91 1276.42 1074.91 Z" fill="#000000" fill-rule="nonzero" fill-opacity="1"></path><path clip-path="url(#clip590)" d="M1296.59 1104.22 L1301.47 1104.22 L1301.47 1110.1 L1296.59 1110.1 L1296.59 1104.22 Z" fill="#000000" fill-rule="nonzero" fill-opacity="1"></path><path clip-path="url(#clip590)" d="M1311.7 1075.54 L1330.06 1075.54 L1330.06 1079.48 L1315.98 1079.48 L1315.98 1087.95 Q1317 1087.6 1318.02 1087.44 Q1319.04 1087.25 1320.06 1087.25 Q1325.85 1087.25 1329.22 1090.42 Q1332.6 1093.6 1332.6 1099.01 Q1332.6 1104.59 1329.13 1107.69 Q1325.66 1110.77 1319.34 1110.77 Q1317.16 1110.77 1314.9 1110.4 Q1312.65 1110.03 1310.24 1109.29 L1310.24 1104.59 Q1312.33 1105.72 1314.55 1106.28 Q1316.77 1106.84 1319.25 1106.84 Q1323.25 1106.84 1325.59 1104.73 Q1327.93 1102.62 1327.93 1099.01 Q1327.93 1095.4 1325.59 1093.29 Q1323.25 1091.19 1319.25 1091.19 Q1317.37 1091.19 1315.5 1091.6 Q1313.65 1092.02 1311.7 1092.9 L1311.7 1075.54 Z" fill="#000000" fill-rule="nonzero" fill-opacity="1"></path><path clip-path="url(#clip590)" d="M1351.82 1078.62 Q1348.21 1078.62 1346.38 1082.18 Q1344.57 1085.72 1344.57 1092.85 Q1344.57 1099.96 1346.38 1103.53 Q1348.21 1107.07 1351.82 1107.07 Q1355.45 1107.07 1357.26 1103.53 Q1359.09 1099.96 1359.09 1092.85 Q1359.09 1085.72 1357.26 1082.18 Q1355.45 1078.62 1351.82 1078.62 M1351.82 1074.91 Q1357.63 1074.91 1360.68 1079.52 Q1363.76 1084.1 1363.76 1092.85 Q1363.76 1101.58 1360.68 1106.19 Q1357.63 1110.77 1351.82 1110.77 Q1346.01 1110.77 1342.93 1106.19 Q1339.87 1101.58 1339.87 1092.85 Q1339.87 1084.1 1342.93 1079.52 Q1346.01 1074.91 1351.82 1074.91 Z" fill="#000000" fill-rule="nonzero" fill-opacity="1"></path><path clip-path="url(#clip590)" d="M1766.84 1078.62 Q1763.23 1078.62 1761.4 1082.18 Q1759.6 1085.72 1759.6 1092.85 Q1759.6 1099.96 1761.4 1103.53 Q1763.23 1107.07 1766.84 1107.07 Q1770.48 1107.07 1772.28 1103.53 Q1774.11 1099.96 1774.11 1092.85 Q1774.11 1085.72 1772.28 1082.18 Q1770.48 1078.62 1766.84 1078.62 M1766.84 1074.91 Q1772.65 1074.91 1775.71 1079.52 Q1778.79 1084.1 1778.79 1092.85 Q1778.79 1101.58 1775.71 1106.19 Q1772.65 1110.77 1766.84 1110.77 Q1761.03 1110.77 1757.96 1106.19 Q1754.9 1101.58 1754.9 1092.85 Q1754.9 1084.1 1757.96 1079.52 Q1761.03 1074.91 1766.84 1074.91 Z" fill="#000000" fill-rule="nonzero" fill-opacity="1"></path><path clip-path="url(#clip590)" d="M1787.01 1104.22 L1791.89 1104.22 L1791.89 1110.1 L1787.01 1110.1 L1787.01 1104.22 Z" fill="#000000" fill-rule="nonzero" fill-opacity="1"></path><path clip-path="url(#clip590)" d="M1800.89 1075.54 L1823.12 1075.54 L1823.12 1077.53 L1810.57 1110.1 L1805.69 1110.1 L1817.49 1079.48 L1800.89 1079.48 L1800.89 1075.54 Z" fill="#000000" fill-rule="nonzero" fill-opacity="1"></path><path clip-path="url(#clip590)" d="M1832.28 1075.54 L1850.64 1075.54 L1850.64 1079.48 L1836.57 1079.48 L1836.57 1087.95 Q1837.58 1087.6 1838.6 1087.44 Q1839.62 1087.25 1840.64 1087.25 Q1846.43 1087.25 1849.81 1090.42 Q1853.19 1093.6 1853.19 1099.01 Q1853.19 1104.59 1849.71 1107.69 Q1846.24 1110.77 1839.92 1110.77 Q1837.75 1110.77 1835.48 1110.4 Q1833.23 1110.03 1830.83 1109.29 L1830.83 1104.59 Q1832.91 1105.72 1835.13 1106.28 Q1837.35 1106.84 1839.83 1106.84 Q1843.83 1106.84 1846.17 1104.73 Q1848.51 1102.62 1848.51 1099.01 Q1848.51 1095.4 1846.17 1093.29 Q1843.83 1091.19 1839.83 1091.19 Q1837.95 1091.19 1836.08 1091.6 Q1834.23 1092.02 1832.28 1092.9 L1832.28 1075.54 Z" fill="#000000" fill-rule="nonzero" fill-opacity="1"></path><path clip-path="url(#clip590)" d="M2246.04 1106.16 L2253.68 1106.16 L2253.68 1079.8 L2245.37 1081.47 L2245.37 1077.21 L2253.63 1075.54 L2258.31 1075.54 L2258.31 1106.16 L2265.94 1106.16 L2265.94 1110.1 L2246.04 1110.1 L2246.04 1106.16 Z" fill="#000000" fill-rule="nonzero" fill-opacity="1"></path><path clip-path="url(#clip590)" d="M2275.39 1104.22 L2280.27 1104.22 L2280.27 1110.1 L2275.39 1110.1 L2275.39 1104.22 Z" fill="#000000" fill-rule="nonzero" fill-opacity="1"></path><path clip-path="url(#clip590)" d="M2300.46 1078.62 Q2296.85 1078.62 2295.02 1082.18 Q2293.21 1085.72 2293.21 1092.85 Q2293.21 1099.96 2295.02 1103.53 Q2296.85 1107.07 2300.46 1107.07 Q2304.09 1107.07 2305.9 1103.53 Q2307.73 1099.96 2307.73 1092.85 Q2307.73 1085.72 2305.9 1082.18 Q2304.09 1078.62 2300.46 1078.62 M2300.46 1074.91 Q2306.27 1074.91 2309.32 1079.52 Q2312.4 1084.1 2312.4 1092.85 Q2312.4 1101.58 2309.32 1106.19 Q2306.27 1110.77 2300.46 1110.77 Q2294.65 1110.77 2291.57 1106.19 Q2288.51 1101.58 2288.51 1092.85 Q2288.51 1084.1 2291.57 1079.52 Q2294.65 1074.91 2300.46 1074.91 Z" fill="#000000" fill-rule="nonzero" fill-opacity="1"></path><path clip-path="url(#clip590)" d="M2330.62 1078.62 Q2327.01 1078.62 2325.18 1082.18 Q2323.37 1085.72 2323.37 1092.85 Q2323.37 1099.96 2325.18 1103.53 Q2327.01 1107.07 2330.62 1107.07 Q2334.25 1107.07 2336.06 1103.53 Q2337.89 1099.96 2337.89 1092.85 Q2337.89 1085.72 2336.06 1082.18 Q2334.25 1078.62 2330.62 1078.62 M2330.62 1074.91 Q2336.43 1074.91 2339.49 1079.52 Q2342.56 1084.1 2342.56 1092.85 Q2342.56 1101.58 2339.49 1106.19 Q2336.43 1110.77 2330.62 1110.77 Q2324.81 1110.77 2321.73 1106.19 Q2318.68 1101.58 2318.68 1092.85 Q2318.68 1084.1 2321.73 1079.52 Q2324.81 1074.91 2330.62 1074.91 Z" fill="#000000" fill-rule="nonzero" fill-opacity="1"></path><path clip-path="url(#clip590)" d="M1330.74 1156.92 L1317.84 1174.26 L1331.4 1192.56 L1324.5 1192.56 L1314.12 1178.56 L1303.74 1192.56 L1296.84 1192.56 L1310.68 1173.91 L1298.02 1156.92 L1304.92 1156.92 L1314.38 1169.62 L1323.83 1156.92 L1330.74 1156.92 Z" fill="#000000" fill-rule="nonzero" fill-opacity="1"></path><polyline clip-path="url(#clip590)" style="stroke:#000000; stroke-linecap:round; stroke-linejoin:round; stroke-width:4; stroke-opacity:1; fill:none" points="275.486,1047.7 275.486,47.2441 "></polyline>
<polyline clip-path="url(#clip590)" style="stroke:#000000; stroke-linecap:round; stroke-linejoin:round; stroke-width:4; stroke-opacity:1; fill:none" points="275.486,942.406 294.384,942.406 "></polyline>
<polyline clip-path="url(#clip590)" style="stroke:#000000; stroke-linecap:round; stroke-linejoin:round; stroke-width:4; stroke-opacity:1; fill:none" points="275.486,725.694 294.384,725.694 "></polyline>
<polyline clip-path="url(#clip590)" style="stroke:#000000; stroke-linecap:round; stroke-linejoin:round; stroke-width:4; stroke-opacity:1; fill:none" points="275.486,508.982 294.384,508.982 "></polyline>
<polyline clip-path="url(#clip590)" style="stroke:#000000; stroke-linecap:round; stroke-linejoin:round; stroke-width:4; stroke-opacity:1; fill:none" points="275.486,292.271 294.384,292.271 "></polyline>
<polyline clip-path="url(#clip590)" style="stroke:#000000; stroke-linecap:round; stroke-linejoin:round; stroke-width:4; stroke-opacity:1; fill:none" points="275.486,75.5589 294.384,75.5589 "></polyline>
<path clip-path="url(#clip590)" d="M102.38 942.857 L132.056 942.857 L132.056 946.792 L102.38 946.792 L102.38 942.857 Z" fill="#000000" fill-rule="nonzero" fill-opacity="1"></path><path clip-path="url(#clip590)" d="M142.959 955.751 L150.597 955.751 L150.597 929.385 L142.287 931.052 L142.287 926.792 L150.551 925.126 L155.227 925.126 L155.227 955.751 L162.866 955.751 L162.866 959.686 L142.959 959.686 L142.959 955.751 Z" fill="#000000" fill-rule="nonzero" fill-opacity="1"></path><path clip-path="url(#clip590)" d="M172.31 953.806 L177.195 953.806 L177.195 959.686 L172.31 959.686 L172.31 953.806 Z" fill="#000000" fill-rule="nonzero" fill-opacity="1"></path><path clip-path="url(#clip590)" d="M197.38 928.205 Q193.769 928.205 191.94 931.769 Q190.134 935.311 190.134 942.441 Q190.134 949.547 191.94 953.112 Q193.769 956.653 197.38 956.653 Q201.014 956.653 202.819 953.112 Q204.648 949.547 204.648 942.441 Q204.648 935.311 202.819 931.769 Q201.014 928.205 197.38 928.205 M197.38 924.501 Q203.19 924.501 206.245 929.107 Q209.324 933.691 209.324 942.441 Q209.324 951.167 206.245 955.774 Q203.19 960.357 197.38 960.357 Q191.569 960.357 188.491 955.774 Q185.435 951.167 185.435 942.441 Q185.435 933.691 188.491 929.107 Q191.569 924.501 197.38 924.501 Z" fill="#000000" fill-rule="nonzero" fill-opacity="1"></path><path clip-path="url(#clip590)" d="M227.542 928.205 Q223.93 928.205 222.102 931.769 Q220.296 935.311 220.296 942.441 Q220.296 949.547 222.102 953.112 Q223.93 956.653 227.542 956.653 Q231.176 956.653 232.981 953.112 Q234.81 949.547 234.81 942.441 Q234.81 935.311 232.981 931.769 Q231.176 928.205 227.542 928.205 M227.542 924.501 Q233.352 924.501 236.407 929.107 Q239.486 933.691 239.486 942.441 Q239.486 951.167 236.407 955.774 Q233.352 960.357 227.542 960.357 Q221.731 960.357 218.653 955.774 Q215.597 951.167 215.597 942.441 Q215.597 933.691 218.653 929.107 Q221.731 924.501 227.542 924.501 Z" fill="#000000" fill-rule="nonzero" fill-opacity="1"></path><path clip-path="url(#clip590)" d="M103.376 726.145 L133.051 726.145 L133.051 730.081 L103.376 730.081 L103.376 726.145 Z" fill="#000000" fill-rule="nonzero" fill-opacity="1"></path><path clip-path="url(#clip590)" d="M153.144 711.493 Q149.533 711.493 147.704 715.058 Q145.898 718.599 145.898 725.729 Q145.898 732.835 147.704 736.4 Q149.533 739.942 153.144 739.942 Q156.778 739.942 158.584 736.4 Q160.412 732.835 160.412 725.729 Q160.412 718.599 158.584 715.058 Q156.778 711.493 153.144 711.493 M153.144 707.789 Q158.954 707.789 162.009 712.396 Q165.088 716.979 165.088 725.729 Q165.088 734.456 162.009 739.062 Q158.954 743.645 153.144 743.645 Q147.334 743.645 144.255 739.062 Q141.199 734.456 141.199 725.729 Q141.199 716.979 144.255 712.396 Q147.334 707.789 153.144 707.789 Z" fill="#000000" fill-rule="nonzero" fill-opacity="1"></path><path clip-path="url(#clip590)" d="M173.306 737.094 L178.19 737.094 L178.19 742.974 L173.306 742.974 L173.306 737.094 Z" fill="#000000" fill-rule="nonzero" fill-opacity="1"></path><path clip-path="url(#clip590)" d="M187.195 708.414 L209.417 708.414 L209.417 710.405 L196.87 742.974 L191.986 742.974 L203.792 712.349 L187.195 712.349 L187.195 708.414 Z" fill="#000000" fill-rule="nonzero" fill-opacity="1"></path><path clip-path="url(#clip590)" d="M218.583 708.414 L236.94 708.414 L236.94 712.349 L222.866 712.349 L222.866 720.821 Q223.884 720.474 224.903 720.312 Q225.921 720.127 226.94 720.127 Q232.727 720.127 236.106 723.298 Q239.486 726.47 239.486 731.886 Q239.486 737.465 236.014 740.567 Q232.541 743.645 226.222 743.645 Q224.046 743.645 221.778 743.275 Q219.532 742.905 217.125 742.164 L217.125 737.465 Q219.208 738.599 221.43 739.155 Q223.653 739.71 226.129 739.71 Q230.134 739.71 232.472 737.604 Q234.81 735.497 234.81 731.886 Q234.81 728.275 232.472 726.169 Q230.134 724.062 226.129 724.062 Q224.255 724.062 222.38 724.479 Q220.528 724.895 218.583 725.775 L218.583 708.414 Z" fill="#000000" fill-rule="nonzero" fill-opacity="1"></path><path clip-path="url(#clip590)" d="M102.38 509.434 L132.056 509.434 L132.056 513.369 L102.38 513.369 L102.38 509.434 Z" fill="#000000" fill-rule="nonzero" fill-opacity="1"></path><path clip-path="url(#clip590)" d="M152.148 494.781 Q148.537 494.781 146.709 498.346 Q144.903 501.888 144.903 509.017 Q144.903 516.124 146.709 519.688 Q148.537 523.23 152.148 523.23 Q155.783 523.23 157.588 519.688 Q159.417 516.124 159.417 509.017 Q159.417 501.888 157.588 498.346 Q155.783 494.781 152.148 494.781 M152.148 491.077 Q157.959 491.077 161.014 495.684 Q164.093 500.267 164.093 509.017 Q164.093 517.744 161.014 522.35 Q157.959 526.934 152.148 526.934 Q146.338 526.934 143.26 522.35 Q140.204 517.744 140.204 509.017 Q140.204 500.267 143.26 495.684 Q146.338 491.077 152.148 491.077 Z" fill="#000000" fill-rule="nonzero" fill-opacity="1"></path><path clip-path="url(#clip590)" d="M172.31 520.383 L177.195 520.383 L177.195 526.262 L172.31 526.262 L172.31 520.383 Z" fill="#000000" fill-rule="nonzero" fill-opacity="1"></path><path clip-path="url(#clip590)" d="M187.426 491.702 L205.782 491.702 L205.782 495.638 L191.708 495.638 L191.708 504.11 Q192.727 503.762 193.745 503.6 Q194.764 503.415 195.782 503.415 Q201.569 503.415 204.949 506.587 Q208.329 509.758 208.329 515.174 Q208.329 520.753 204.856 523.855 Q201.384 526.934 195.065 526.934 Q192.889 526.934 190.62 526.563 Q188.375 526.193 185.968 525.452 L185.968 520.753 Q188.051 521.887 190.273 522.443 Q192.495 522.998 194.972 522.998 Q198.977 522.998 201.315 520.892 Q203.653 518.786 203.653 515.174 Q203.653 511.563 201.315 509.457 Q198.977 507.35 194.972 507.35 Q193.097 507.35 191.222 507.767 Q189.37 508.184 187.426 509.063 L187.426 491.702 Z" fill="#000000" fill-rule="nonzero" fill-opacity="1"></path><path clip-path="url(#clip590)" d="M227.542 494.781 Q223.93 494.781 222.102 498.346 Q220.296 501.888 220.296 509.017 Q220.296 516.124 222.102 519.688 Q223.93 523.23 227.542 523.23 Q231.176 523.23 232.981 519.688 Q234.81 516.124 234.81 509.017 Q234.81 501.888 232.981 498.346 Q231.176 494.781 227.542 494.781 M227.542 491.077 Q233.352 491.077 236.407 495.684 Q239.486 500.267 239.486 509.017 Q239.486 517.744 236.407 522.35 Q233.352 526.934 227.542 526.934 Q221.731 526.934 218.653 522.35 Q215.597 517.744 215.597 509.017 Q215.597 500.267 218.653 495.684 Q221.731 491.077 227.542 491.077 Z" fill="#000000" fill-rule="nonzero" fill-opacity="1"></path><path clip-path="url(#clip590)" d="M103.376 292.722 L133.051 292.722 L133.051 296.657 L103.376 296.657 L103.376 292.722 Z" fill="#000000" fill-rule="nonzero" fill-opacity="1"></path><path clip-path="url(#clip590)" d="M153.144 278.069 Q149.533 278.069 147.704 281.634 Q145.898 285.176 145.898 292.305 Q145.898 299.412 147.704 302.977 Q149.533 306.518 153.144 306.518 Q156.778 306.518 158.584 302.977 Q160.412 299.412 160.412 292.305 Q160.412 285.176 158.584 281.634 Q156.778 278.069 153.144 278.069 M153.144 274.366 Q158.954 274.366 162.009 278.972 Q165.088 283.555 165.088 292.305 Q165.088 301.032 162.009 305.639 Q158.954 310.222 153.144 310.222 Q147.334 310.222 144.255 305.639 Q141.199 301.032 141.199 292.305 Q141.199 283.555 144.255 278.972 Q147.334 274.366 153.144 274.366 Z" fill="#000000" fill-rule="nonzero" fill-opacity="1"></path><path clip-path="url(#clip590)" d="M173.306 303.671 L178.19 303.671 L178.19 309.551 L173.306 309.551 L173.306 303.671 Z" fill="#000000" fill-rule="nonzero" fill-opacity="1"></path><path clip-path="url(#clip590)" d="M192.403 305.615 L208.722 305.615 L208.722 309.551 L186.778 309.551 L186.778 305.615 Q189.44 302.861 194.023 298.231 Q198.63 293.579 199.81 292.236 Q202.056 289.713 202.935 287.977 Q203.838 286.217 203.838 284.528 Q203.838 281.773 201.894 280.037 Q199.972 278.301 196.87 278.301 Q194.671 278.301 192.218 279.065 Q189.787 279.829 187.009 281.38 L187.009 276.657 Q189.833 275.523 192.287 274.944 Q194.741 274.366 196.778 274.366 Q202.148 274.366 205.343 277.051 Q208.537 279.736 208.537 284.227 Q208.537 286.356 207.727 288.278 Q206.94 290.176 204.833 292.768 Q204.255 293.44 201.153 296.657 Q198.051 299.852 192.403 305.615 Z" fill="#000000" fill-rule="nonzero" fill-opacity="1"></path><path clip-path="url(#clip590)" d="M218.583 274.991 L236.94 274.991 L236.94 278.926 L222.866 278.926 L222.866 287.398 Q223.884 287.051 224.903 286.889 Q225.921 286.704 226.94 286.704 Q232.727 286.704 236.106 289.875 Q239.486 293.046 239.486 298.463 Q239.486 304.041 236.014 307.143 Q232.541 310.222 226.222 310.222 Q224.046 310.222 221.778 309.852 Q219.532 309.481 217.125 308.74 L217.125 304.041 Q219.208 305.176 221.43 305.731 Q223.653 306.287 226.129 306.287 Q230.134 306.287 232.472 304.18 Q234.81 302.074 234.81 298.463 Q234.81 294.852 232.472 292.745 Q230.134 290.639 226.129 290.639 Q224.255 290.639 222.38 291.055 Q220.528 291.472 218.583 292.352 L218.583 274.991 Z" fill="#000000" fill-rule="nonzero" fill-opacity="1"></path><path clip-path="url(#clip590)" d="M152.148 61.3576 Q148.537 61.3576 146.709 64.9224 Q144.903 68.4641 144.903 75.5936 Q144.903 82.7001 146.709 86.2649 Q148.537 89.8065 152.148 89.8065 Q155.783 89.8065 157.588 86.2649 Q159.417 82.7001 159.417 75.5936 Q159.417 68.4641 157.588 64.9224 Q155.783 61.3576 152.148 61.3576 M152.148 57.6539 Q157.959 57.6539 161.014 62.2604 Q164.093 66.8437 164.093 75.5936 Q164.093 84.3205 161.014 88.9269 Q157.959 93.5102 152.148 93.5102 Q146.338 93.5102 143.26 88.9269 Q140.204 84.3205 140.204 75.5936 Q140.204 66.8437 143.26 62.2604 Q146.338 57.6539 152.148 57.6539 Z" fill="#000000" fill-rule="nonzero" fill-opacity="1"></path><path clip-path="url(#clip590)" d="M172.31 86.9593 L177.195 86.9593 L177.195 92.8389 L172.31 92.8389 L172.31 86.9593 Z" fill="#000000" fill-rule="nonzero" fill-opacity="1"></path><path clip-path="url(#clip590)" d="M197.38 61.3576 Q193.769 61.3576 191.94 64.9224 Q190.134 68.4641 190.134 75.5936 Q190.134 82.7001 191.94 86.2649 Q193.769 89.8065 197.38 89.8065 Q201.014 89.8065 202.819 86.2649 Q204.648 82.7001 204.648 75.5936 Q204.648 68.4641 202.819 64.9224 Q201.014 61.3576 197.38 61.3576 M197.38 57.6539 Q203.19 57.6539 206.245 62.2604 Q209.324 66.8437 209.324 75.5936 Q209.324 84.3205 206.245 88.9269 Q203.19 93.5102 197.38 93.5102 Q191.569 93.5102 188.491 88.9269 Q185.435 84.3205 185.435 75.5936 Q185.435 66.8437 188.491 62.2604 Q191.569 57.6539 197.38 57.6539 Z" fill="#000000" fill-rule="nonzero" fill-opacity="1"></path><path clip-path="url(#clip590)" d="M227.542 61.3576 Q223.93 61.3576 222.102 64.9224 Q220.296 68.4641 220.296 75.5936 Q220.296 82.7001 222.102 86.2649 Q223.93 89.8065 227.542 89.8065 Q231.176 89.8065 232.981 86.2649 Q234.81 82.7001 234.81 75.5936 Q234.81 68.4641 232.981 64.9224 Q231.176 61.3576 227.542 61.3576 M227.542 57.6539 Q233.352 57.6539 236.407 62.2604 Q239.486 66.8437 239.486 75.5936 Q239.486 84.3205 236.407 88.9269 Q233.352 93.5102 227.542 93.5102 Q221.731 93.5102 218.653 88.9269 Q215.597 84.3205 215.597 75.5936 Q215.597 66.8437 218.653 62.2604 Q221.731 57.6539 227.542 57.6539 Z" fill="#000000" fill-rule="nonzero" fill-opacity="1"></path><path clip-path="url(#clip590)" d="M38.0559 607.278 L16.4762 607.278 L16.4762 601.421 L37.8331 601.421 Q42.8939 601.421 45.4402 599.448 Q47.9546 597.475 47.9546 593.528 Q47.9546 588.785 44.9309 586.048 Q41.9072 583.279 36.6873 583.279 L16.4762 583.279 L16.4762 577.423 L52.1242 577.423 L52.1242 583.279 L46.6496 583.279 Q49.8962 585.412 51.4876 588.244 Q53.0472 591.045 53.0472 594.769 Q53.0472 600.912 49.2278 604.095 Q45.4083 607.278 38.0559 607.278 M15.6168 592.541 L15.6168 592.541 Z" fill="#000000" fill-rule="nonzero" fill-opacity="1"></path><path clip-path="url(#clip590)" d="M2.66262 551.291 Q9.98318 555.556 17.1446 557.625 Q24.306 559.694 31.6584 559.694 Q39.0108 559.694 46.2359 557.625 Q53.4291 555.525 60.7179 551.291 L60.7179 556.384 Q53.2382 561.158 46.0131 563.545 Q38.788 565.901 31.6584 565.901 Q24.5606 565.901 17.3674 563.545 Q10.1742 561.19 2.66262 556.384 L2.66262 551.291 Z" fill="#000000" fill-rule="nonzero" fill-opacity="1"></path><path clip-path="url(#clip590)" d="M16.4762 510.296 L33.8228 523.187 L52.1242 509.628 L52.1242 516.535 L38.1196 526.911 L52.1242 537.287 L52.1242 544.194 L33.4726 530.348 L16.4762 543.016 L16.4762 536.109 L29.1758 526.656 L16.4762 517.203 L16.4762 510.296 Z" fill="#000000" fill-rule="nonzero" fill-opacity="1"></path><path clip-path="url(#clip590)" d="M2.66262 502.275 L2.66262 497.183 Q10.1742 492.409 17.3674 490.053 Q24.5606 487.666 31.6584 487.666 Q38.788 487.666 46.0131 490.053 Q53.2382 492.409 60.7179 497.183 L60.7179 502.275 Q53.4291 498.042 46.2359 495.973 Q39.0108 493.873 31.6584 493.873 Q24.306 493.873 17.1446 495.973 Q9.98318 498.042 2.66262 502.275 Z" fill="#000000" fill-rule="nonzero" fill-opacity="1"></path><polyline clip-path="url(#clip592)" style="stroke:#808080; stroke-linecap:round; stroke-linejoin:round; stroke-width:12; stroke-opacity:1; fill:none" points="334.277,75.5589 336.238,81.0105 338.2,86.4593 340.162,91.9027 342.123,97.338 344.085,102.762 346.046,108.173 348.008,113.568 349.97,118.943 351.931,124.298 353.893,129.627 355.855,134.931 357.816,140.204 359.778,145.446 361.74,150.654 363.701,155.824 365.663,160.956 367.625,166.045 369.586,171.09 371.548,176.089 373.51,181.039 375.471,185.938 377.433,190.784 379.395,195.575 381.356,200.308 383.318,204.982 385.279,209.595 387.241,214.144 389.203,218.629 391.164,223.046 393.126,227.395 395.088,231.674 397.049,235.881 399.011,240.015 400.973,244.074 402.934,248.056 404.896,251.962 406.858,255.789 408.819,259.536 410.781,263.203 412.743,266.787 414.704,270.29 416.666,273.708 418.628,277.043 420.589,280.292 422.551,283.457 424.512,286.535 426.474,289.527 428.436,292.433 430.397,295.251 432.359,297.983 434.321,300.627 436.282,303.185 438.244,305.656 440.206,308.039 442.167,310.337 444.129,312.548 446.091,314.674 448.052,316.714 450.014,318.67 451.976,320.542 453.937,322.331 455.899,324.038 457.861,325.663 459.822,327.208 461.784,328.674 463.745,330.062 465.707,331.373 467.669,332.609 469.63,333.77 471.592,334.859 473.554,335.877 475.515,336.825 477.477,337.705 479.439,338.52 481.4,339.27 483.362,339.957 485.324,340.584 487.285,341.152 489.247,341.664 491.209,342.122 493.17,342.527 495.132,342.881 497.094,343.188 499.055,343.449 501.017,343.667 502.978,343.844 504.94,343.983 506.902,344.085 508.863,344.153 510.825,344.191 512.787,344.199 514.748,344.182 516.71,344.141 518.672,344.079 520.633,343.999 522.595,343.903 524.557,343.794 526.518,343.675 528.48,343.548 530.442,343.416 532.403,343.282 534.365,343.147 536.327,343.016 538.288,342.891 540.25,342.773 542.211,342.667 544.173,342.574 546.135,342.497 548.096,342.44 550.058,342.403 552.02,342.39 553.981,342.404 555.943,342.446 557.905,342.52 559.866,342.628 561.828,342.771 563.79,342.954 565.751,343.177 567.713,343.443 569.675,343.754 571.636,344.113 573.598,344.522 575.56,344.982 577.521,345.496 579.483,346.066 581.445,346.693 583.406,347.38 585.368,348.127 587.329,348.938 589.291,349.813 591.253,350.755 593.214,351.764 595.176,352.842 597.138,353.991 599.099,355.211 601.061,356.505 603.023,357.872 604.984,359.315 606.946,360.834 608.908,362.43 610.869,364.105 612.831,365.858 614.793,367.69 616.754,369.602 618.716,371.595 620.678,373.669 622.639,375.824 624.601,378.061 626.562,380.379 628.524,382.78 630.486,385.262 632.447,387.826 634.409,390.471 636.371,393.198 638.332,396.005 640.294,398.894 642.256,401.862 644.217,404.91 646.179,408.037 648.141,411.242 650.102,414.524 652.064,417.882 654.026,421.316 655.987,424.824 657.949,428.405 659.911,432.058 661.872,435.782 663.834,439.575 665.795,443.436 667.757,447.363 669.719,451.355 671.68,455.409 673.642,459.526 675.604,463.701 677.565,467.935 679.527,472.224 681.489,476.567 683.45,480.962 685.412,485.407 687.374,489.899 689.335,494.436 691.297,499.017 693.259,503.639 695.22,508.299 697.182,512.995 699.144,517.725 701.105,522.487 703.067,527.277 705.028,532.093 706.99,536.933 708.952,541.795 710.913,546.675 712.875,551.571 714.837,556.48 716.798,561.4 718.76,566.328 720.722,571.261 722.683,576.197 724.645,581.132 726.607,586.065 728.568,590.992 730.53,595.911 732.492,600.819 734.453,605.713 736.415,610.59 738.377,615.449 740.338,620.286 742.3,625.098 744.261,629.883 746.223,634.639 748.185,639.362 750.146,644.05 752.108,648.701 754.07,653.312 756.031,657.881 757.993,662.405 759.955,666.882 761.916,671.309 763.878,675.685 765.84,680.006 767.801,684.271 769.763,688.477 771.725,692.623 773.686,696.706 775.648,700.725 777.61,704.677 779.571,708.56 781.533,712.373 783.494,716.114 785.456,719.781 787.418,723.373 789.379,726.888 791.341,730.325 793.303,733.681 795.264,736.957 797.226,740.15 799.188,743.259 801.149,746.284 803.111,749.223 805.073,752.075 807.034,754.84 808.996,757.516 810.958,760.103 812.919,762.6 814.881,765.008 816.843,767.324 818.804,769.549 820.766,771.683 822.727,773.725 824.689,775.676 826.651,777.535 828.612,779.302 830.574,780.977 832.536,782.561 834.497,784.054 836.459,785.456 838.421,786.768 840.382,787.99 842.344,789.124 844.306,790.168 846.267,791.126 848.229,791.996 850.191,792.781 852.152,793.481 854.114,794.098 856.076,794.632 858.037,795.085 859.999,795.458 861.961,795.753 863.922,795.971 865.884,796.114 867.845,796.183 869.807,796.179 871.769,796.106 873.73,795.964 875.692,795.755 877.654,795.482 879.615,795.146 881.577,794.75 883.539,794.295 885.5,793.783 887.462,793.218 889.424,792.6 891.385,791.933 893.347,791.218 895.309,790.459 897.27,789.657 899.232,788.815 901.194,787.935 903.155,787.021 905.117,786.074 907.078,785.096 909.04,784.092 911.002,783.063 912.963,782.011 914.925,780.94 916.887,779.853 918.848,778.751 920.81,777.638 922.772,776.515 924.733,775.387 926.695,774.255 928.657,773.123 930.618,771.992 932.58,770.866 934.542,769.747 936.503,768.638 938.465,767.542 940.427,766.46 942.388,765.396 944.35,764.353 946.311,763.332 948.273,762.336 950.235,761.368 952.196,760.43 954.158,759.524 956.12,758.654 958.081,757.82 960.043,757.026 962.005,756.274 963.966,755.565 965.928,754.903 967.89,754.288 969.851,753.724 971.813,753.211 973.775,752.753 975.736,752.35 977.698,752.005 979.66,751.719 981.621,751.494 983.583,751.331 985.544,751.232 987.506,751.199 989.468,751.233 991.429,751.335 993.391,751.506 995.353,751.747 997.314,752.06 999.276,752.446 1001.24,752.905 1003.2,753.438 1005.16,754.047 1007.12,754.731 1009.08,755.491 1011.05,756.329 1013.01,757.243 1014.97,758.235 1016.93,759.305 1018.89,760.453 1020.85,761.678 1022.82,762.982 1024.78,764.364 1026.74,765.824 1028.7,767.361 1030.66,768.976 1032.62,770.667 1034.59,772.435 1036.55,774.278 1038.51,776.197 1040.47,778.189 1042.43,780.255 1044.39,782.394 1046.36,784.604 1048.32,786.885 1050.28,789.235 1052.24,791.653 1054.2,794.138 1056.16,796.689 1058.13,799.303 1060.09,801.98 1062.05,804.718 1064.01,807.515 1065.97,810.369 1067.93,813.279 1069.9,816.243 1071.86,819.259 1073.82,822.326 1075.78,825.44 1077.74,828.6 1079.7,831.803 1081.67,835.048 1083.63,838.333 1085.59,841.655 1087.55,845.011 1089.51,848.4 1091.47,851.819 1093.44,855.265 1095.4,858.736 1097.36,862.23 1099.32,865.744 1101.28,869.275 1103.24,872.821 1105.21,876.38 1107.17,879.948 1109.13,883.522 1111.09,887.101 1113.05,890.682 1115.01,894.261 1116.98,897.837 1118.94,901.406 1120.9,904.966 1122.86,908.514 1124.82,912.047 1126.78,915.563 1128.74,919.059 1130.71,922.532 1132.67,925.98 1134.63,929.4 1136.59,932.789 1138.55,936.145 1140.51,939.466 1142.48,942.748 1144.44,945.989 1146.4,949.187 1148.36,952.339 1150.32,955.443 1152.28,958.496 1154.25,961.497 1156.21,964.442 1158.17,967.33 1160.13,970.158 1162.09,972.925 1164.05,975.628 1166.02,978.264 1167.98,980.834 1169.94,983.333 1171.9,985.76 1173.86,988.115 1175.82,990.394 1177.79,992.596 1179.75,994.72 1181.71,996.764 1183.67,998.727 1185.63,1000.61 1187.59,1002.4 1189.56,1004.11 1191.52,1005.74 1193.48,1007.27 1195.44,1008.72 1197.4,1010.08 1199.36,1011.35 1201.33,1012.53 1203.29,1013.61 1205.25,1014.6 1207.21,1015.5 1209.17,1016.31 1211.13,1017.02 1213.1,1017.64 1215.06,1018.17 1217.02,1018.6 1218.98,1018.94 1220.94,1019.18 1222.9,1019.33 1224.87,1019.38 1226.83,1019.35 1228.79,1019.22 1230.75,1018.99 1232.71,1018.68 1234.67,1018.27 1236.64,1017.77 1238.6,1017.19 1240.56,1016.51 1242.52,1015.75 1244.48,1014.9 1246.44,1013.96 1248.41,1012.94 1250.37,1011.84 1252.33,1010.66 1254.29,1009.39 1256.25,1008.05 1258.21,1006.63 1260.18,1005.13 1262.14,1003.56 1264.1,1001.92 1266.06,1000.21 1268.02,998.427 1269.98,996.581 1271.95,994.67 1273.91,992.697 1275.87,990.664 1277.83,988.573 1279.79,986.427 1281.75,984.227 1283.72,981.976 1285.68,979.676 1287.64,977.33 1289.6,974.94 1291.56,972.509 1293.52,970.039 1295.49,967.533 1297.45,964.992 1299.41,962.421 1301.37,959.821 1303.33,957.195 1305.29,954.545 1307.26,951.875 1309.22,949.187 1311.18,946.484 1313.14,943.768 1315.1,941.042 1317.06,938.309 1319.03,935.571 1320.99,932.832 1322.95,930.093 1324.91,927.358 1326.87,924.629 1328.83,921.909 1330.79,919.2 1332.76,916.505 1334.72,913.828 1336.68,911.169 1338.64,908.532 1340.6,905.919 1342.56,903.333 1344.53,900.777 1346.49,898.251 1348.45,895.76 1350.41,893.305 1352.37,890.889 1354.33,888.513 1356.3,886.181 1358.26,883.893 1360.22,881.653 1362.18,879.461 1364.14,877.321 1366.1,875.234 1368.07,873.202 1370.03,871.227 1371.99,869.31 1373.95,867.453 1375.91,865.657 1377.87,863.925 1379.84,862.258 1381.8,860.656 1383.76,859.122 1385.72,857.656 1387.68,856.26 1389.64,854.935 1391.61,853.681 1393.57,852.5 1395.53,851.392 1397.49,850.359 1399.45,849.4 1401.41,848.517 1403.38,847.71 1405.34,846.979 1407.3,846.325 1409.26,845.748 1411.22,845.249 1413.18,844.826 1415.15,844.481 1417.11,844.212 1419.07,844.021 1421.03,843.907 1422.99,843.869 1424.95,843.907 1426.92,844.02 1428.88,844.208 1430.84,844.471 1432.8,844.807 1434.76,845.215 1436.72,845.695 1438.69,846.246 1440.65,846.867 1442.61,847.556 1444.57,848.313 1446.53,849.135 1448.49,850.022 1450.46,850.972 1452.42,851.984 1454.38,853.056 1456.34,854.186 1458.3,855.373 1460.26,856.615 1462.23,857.91 1464.19,859.257 1466.15,860.652 1468.11,862.095 1470.07,863.582 1472.03,865.113 1474,866.685 1475.96,868.295 1477.92,869.941 1479.88,871.622 1481.84,873.334 1483.8,875.075 1485.77,876.843 1487.73,878.636 1489.69,880.45 1491.65,882.283 1493.61,884.134 1495.57,885.998 1497.54,887.874 1499.5,889.759 1501.46,891.651 1503.42,893.545 1505.38,895.441 1507.34,897.335 1509.31,899.225 1511.27,901.108 1513.23,902.981 1515.19,904.841 1517.15,906.687 1519.11,908.514 1521.08,910.321 1523.04,912.105 1525,913.863 1526.96,915.593 1528.92,917.292 1530.88,918.957 1532.84,920.586 1534.81,922.177 1536.77,923.726 1538.73,925.232 1540.69,926.692 1542.65,928.103 1544.61,929.464 1546.58,930.772 1548.54,932.024 1550.5,933.219 1552.46,934.354 1554.42,935.427 1556.38,936.436 1558.35,937.38 1560.31,938.256 1562.27,939.062 1564.23,939.796 1566.19,940.457 1568.15,941.044 1570.12,941.553 1572.08,941.984 1574.04,942.336 1576,942.607 1577.96,942.795 1579.92,942.899 1581.89,942.919 1583.85,942.852 1585.81,942.698 1587.77,942.456 1589.73,942.125 1591.69,941.705 1593.66,941.194 1595.62,940.591 1597.58,939.897 1599.54,939.111 1601.5,938.232 1603.46,937.26 1605.43,936.196 1607.39,935.037 1609.35,933.786 1611.31,932.441 1613.27,931.003 1615.23,929.471 1617.2,927.848 1619.16,926.131 1621.12,924.323 1623.08,922.423 1625.04,920.433 1627,918.352 1628.97,916.183 1630.93,913.924 1632.89,911.578 1634.85,909.146 1636.81,906.628 1638.77,904.026 1640.74,901.341 1642.7,898.575 1644.66,895.728 1646.62,892.802 1648.58,889.799 1650.54,886.721 1652.51,883.568 1654.47,880.344 1656.43,877.049 1658.39,873.685 1660.35,870.255 1662.31,866.76 1664.28,863.202 1666.24,859.584 1668.2,855.908 1670.16,852.175 1672.12,848.389 1674.08,844.551 1676.05,840.664 1678.01,836.73 1679.97,832.752 1681.93,828.732 1683.89,824.672 1685.85,820.575 1687.82,816.444 1689.78,812.281 1691.74,808.089 1693.7,803.871 1695.66,799.628 1697.62,795.365 1699.59,791.082 1701.55,786.784 1703.51,782.473 1705.47,778.151 1707.43,773.821 1709.39,769.487 1711.36,765.15 1713.32,760.813 1715.28,756.48 1717.24,752.152 1719.2,747.833 1721.16,743.525 1723.12,739.231 1725.09,734.952 1727.05,730.693 1729.01,726.456 1730.97,722.242 1732.93,718.056 1734.89,713.898 1736.86,709.772 1738.82,705.679 1740.78,701.623 1742.74,697.606 1744.7,693.63 1746.66,689.696 1748.63,685.809 1750.59,681.968 1752.55,678.177 1754.51,674.438 1756.47,670.752 1758.43,667.122 1760.4,663.549 1762.36,660.036 1764.32,656.583 1766.28,653.192 1768.24,649.866 1770.2,646.605 1772.17,643.411 1774.13,640.286 1776.09,637.23 1778.05,634.245 1780.01,631.333 1781.97,628.493 1783.94,625.728 1785.9,623.037 1787.86,620.423 1789.82,617.885 1791.78,615.425 1793.74,613.042 1795.71,610.738 1797.67,608.512 1799.63,606.366 1801.59,604.299 1803.55,602.312 1805.51,600.404 1807.48,598.576 1809.44,596.828 1811.4,595.159 1813.36,593.569 1815.32,592.058 1817.28,590.625 1819.25,589.27 1821.21,587.992 1823.17,586.791 1825.13,585.666 1827.09,584.616 1829.05,583.64 1831.02,582.737 1832.98,581.906 1834.94,581.146 1836.9,580.456 1838.86,579.834 1840.82,579.279 1842.79,578.789 1844.75,578.364 1846.71,578.001 1848.67,577.699 1850.63,577.455 1852.59,577.27 1854.56,577.139 1856.52,577.063 1858.48,577.038 1860.44,577.062 1862.4,577.134 1864.36,577.251 1866.33,577.412 1868.29,577.613 1870.25,577.854 1872.21,578.131 1874.17,578.441 1876.13,578.784 1878.1,579.156 1880.06,579.554 1882.02,579.977 1883.98,580.421 1885.94,580.885 1887.9,581.366 1889.87,581.86 1891.83,582.366 1893.79,582.881 1895.75,583.402 1897.71,583.926 1899.67,584.451 1901.64,584.975 1903.6,585.493 1905.56,586.005 1907.52,586.507 1909.48,586.996 1911.44,587.47 1913.41,587.927 1915.37,588.363 1917.33,588.775 1919.29,589.163 1921.25,589.521 1923.21,589.849 1925.17,590.144 1927.14,590.403 1929.1,590.623 1931.06,590.803 1933.02,590.94 1934.98,591.031 1936.94,591.074 1938.91,591.067 1940.87,591.007 1942.83,590.893 1944.79,590.722 1946.75,590.493 1948.71,590.202 1950.68,589.849 1952.64,589.431 1954.6,588.946 1956.56,588.393 1958.52,587.77 1960.48,587.075 1962.45,586.306 1964.41,585.463 1966.37,584.543 1968.33,583.545 1970.29,582.468 1972.25,581.31 1974.22,580.071 1976.18,578.75 1978.14,577.344 1980.1,575.854 1982.06,574.278 1984.02,572.616 1985.99,570.867 1987.95,569.031 1989.91,567.106 1991.87,565.093 1993.83,562.99 1995.79,560.799 1997.76,558.518 1999.72,556.147 2001.68,553.687 2003.64,551.137 2005.6,548.498 2007.56,545.769 2009.53,542.952 2011.49,540.046 2013.45,537.052 2015.41,533.971 2017.37,530.803 2019.33,527.549 2021.3,524.209 2023.26,520.785 2025.22,517.278 2027.18,513.688 2029.14,510.017 2031.1,506.266 2033.07,502.436 2035.03,498.529 2036.99,494.546 2038.95,490.488 2040.91,486.357 2042.87,482.155 2044.84,477.883 2046.8,473.543 2048.76,469.137 2050.72,464.668 2052.68,460.136 2054.64,455.543 2056.61,450.893 2058.57,446.187 2060.53,441.427 2062.49,436.615 2064.45,431.754 2066.41,426.846 2068.38,421.894 2070.34,416.899 2072.3,411.864 2074.26,406.793 2076.22,401.686 2078.18,396.547 2080.15,391.378 2082.11,386.183 2084.07,380.963 2086.03,375.721 2087.99,370.46 2089.95,365.182 2091.92,359.891 2093.88,354.588 2095.84,349.278 2097.8,343.961 2099.76,338.642 2101.72,333.322 2103.69,328.005 2105.65,322.694 2107.61,317.39 2109.57,312.097 2111.53,306.817 2113.49,301.553 2115.46,296.307 2117.42,291.083 2119.38,285.883 2121.34,280.71 2123.3,275.565 2125.26,270.452 2127.22,265.373 2129.19,260.33 2131.15,255.326 2133.11,250.363 2135.07,245.444 2137.03,240.571 2138.99,235.746 2140.96,230.971 2142.92,226.248 2144.88,221.58 2146.84,216.969 2148.8,212.415 2150.76,207.923 2152.73,203.492 2154.69,199.126 2156.65,194.825 2158.61,190.591 2160.57,186.427 2162.53,182.333 2164.5,178.311 2166.46,174.362 2168.42,170.488 2170.38,166.689 2172.34,162.967 2174.3,159.324 2176.27,155.759 2178.23,152.274 2180.19,148.87 2182.15,145.547 2184.11,142.307 2186.07,139.149 2188.04,136.074 2190,133.083 2191.96,130.176 2193.92,127.353 2195.88,124.614 2197.84,121.959 2199.81,119.389 2201.77,116.903 2203.73,114.502 2205.69,112.184 2207.65,109.949 2209.61,107.798 2211.58,105.729 2213.54,103.742 2215.5,101.836 2217.46,100.011 2219.42,98.2653 2221.38,96.5984 2223.35,95.0093 2225.31,93.4967 2227.27,92.0596 2229.23,90.6968 2231.19,89.4069 2233.15,88.1886 2235.12,87.0404 2237.08,85.9608 2239.04,84.9482 2241,84.0009 2242.96,83.1172 2244.92,82.2954 2246.89,81.5335 2248.85,80.8298 2250.81,80.1821 2252.77,79.5886 2254.73,79.047 2256.69,78.5554 2258.66,78.1114 2260.62,77.713 2262.58,77.3577 2264.54,77.0434 2266.5,76.7676 2268.46,76.528 2270.43,76.3221 2272.39,76.1474 2274.35,76.0015 2276.31,75.8819 2278.27,75.7859 2280.23,75.7111 2282.2,75.6548 2284.16,75.6145 2286.12,75.5874 2288.08,75.5709 2290.04,75.5625 2292,75.5594 2293.97,75.5589 "></polyline>
<polyline clip-path="url(#clip592)" style="stroke:#e26f46; stroke-linecap:round; stroke-linejoin:round; stroke-width:12; stroke-opacity:1; fill:none" stroke-dasharray="48, 30" points="334.277,75.5589 336.238,81.0105 338.2,86.4593 340.162,91.9027 342.123,97.3379 344.085,102.762 346.046,108.173 348.008,113.568 349.97,118.943 351.931,124.298 353.893,129.627 355.855,134.931 357.816,140.204 359.778,145.446 361.74,150.654 363.701,155.824 365.663,160.955 367.625,166.045 369.586,171.09 371.548,176.089 373.51,181.039 375.471,185.938 377.433,190.784 379.395,195.575 381.356,200.308 383.318,204.982 385.279,209.595 387.241,214.144 389.203,218.629 391.164,223.046 393.126,227.395 395.088,231.674 397.049,235.881 399.011,240.015 400.973,244.074 402.934,248.057 404.896,251.962 406.858,255.789 408.819,259.536 410.781,263.203 412.743,266.788 414.704,270.29 416.666,273.708 418.628,277.043 420.589,280.293 422.551,283.457 424.512,286.535 426.474,289.527 428.436,292.433 430.397,295.251 432.359,297.983 434.321,300.627 436.282,303.185 438.244,305.656 440.206,308.039 442.167,310.337 444.129,312.548 446.091,314.674 448.052,316.714 450.014,318.67 451.976,320.542 453.937,322.331 455.899,324.037 457.861,325.663 459.822,327.208 461.784,328.674 463.745,330.062 465.707,331.373 467.669,332.608 469.63,333.77 471.592,334.859 473.554,335.877 475.515,336.825 477.477,337.705 479.439,338.52 481.4,339.27 483.362,339.957 485.324,340.584 487.285,341.152 489.247,341.664 491.209,342.121 493.17,342.526 495.132,342.881 497.094,343.188 499.055,343.449 501.017,343.667 502.978,343.844 504.94,343.982 506.902,344.085 508.863,344.153 510.825,344.191 512.787,344.199 514.748,344.182 516.71,344.141 518.672,344.079 520.633,343.999 522.595,343.903 524.557,343.794 526.518,343.675 528.48,343.548 530.442,343.416 532.403,343.282 534.365,343.148 536.327,343.016 538.288,342.891 540.25,342.774 542.211,342.667 544.173,342.574 546.135,342.498 548.096,342.44 550.058,342.403 552.02,342.39 553.981,342.404 555.943,342.446 557.905,342.52 559.866,342.628 561.828,342.772 563.79,342.954 565.751,343.177 567.713,343.443 569.675,343.755 571.636,344.114 573.598,344.522 575.56,344.983 577.521,345.497 579.483,346.066 581.445,346.693 583.406,347.38 585.368,348.128 587.329,348.938 589.291,349.814 591.253,350.755 593.214,351.764 595.176,352.842 597.138,353.991 599.099,355.211 601.061,356.505 603.023,357.872 604.984,359.315 606.946,360.834 608.908,362.431 610.869,364.105 612.831,365.858 614.793,367.69 616.754,369.602 618.716,371.595 620.678,373.669 622.639,375.824 624.601,378.061 626.562,380.379 628.524,382.78 630.486,385.262 632.447,387.825 634.409,390.471 636.371,393.197 638.332,396.005 640.294,398.893 642.256,401.862 644.217,404.91 646.179,408.036 648.141,411.241 650.102,414.523 652.064,417.882 654.026,421.315 655.987,424.823 657.949,428.404 659.911,432.058 661.872,435.781 663.834,439.574 665.795,443.435 667.757,447.362 669.719,451.354 671.68,455.409 673.642,459.525 675.604,463.701 677.565,467.934 679.527,472.224 681.489,476.567 683.45,480.962 685.412,485.406 687.374,489.898 689.335,494.436 691.297,499.017 693.259,503.638 695.22,508.299 697.182,512.995 699.144,517.725 701.105,522.486 703.067,527.277 705.028,532.093 706.99,536.933 708.952,541.795 710.913,546.675 712.875,551.571 714.837,556.48 716.798,561.4 718.76,566.328 720.722,571.261 722.683,576.197 724.645,581.133 726.607,586.065 728.568,590.992 730.53,595.911 732.492,600.819 734.453,605.713 736.415,610.591 738.377,615.449 740.338,620.286 742.3,625.098 744.261,629.884 746.223,634.639 748.185,639.363 750.146,644.051 752.108,648.702 754.07,653.313 756.031,657.882 757.993,662.406 759.955,666.883 761.916,671.31 763.878,675.685 765.84,680.007 767.801,684.271 769.763,688.478 771.725,692.624 773.686,696.707 775.648,700.725 777.61,704.677 779.571,708.56 781.533,712.374 783.494,716.114 785.456,719.782 787.418,723.374 789.379,726.888 791.341,730.325 793.303,733.681 795.264,736.957 797.226,740.15 799.188,743.259 801.149,746.284 803.111,749.223 805.073,752.075 807.034,754.84 808.996,757.516 810.958,760.103 812.919,762.6 814.881,765.007 816.843,767.324 818.804,769.549 820.766,771.683 822.727,773.725 824.689,775.675 826.651,777.534 828.612,779.301 830.574,780.976 832.536,782.56 834.497,784.053 836.459,785.455 838.421,786.767 840.382,787.99 842.344,789.123 844.306,790.168 846.267,791.125 848.229,791.995 850.191,792.78 852.152,793.48 854.114,794.097 856.076,794.631 858.037,795.084 859.999,795.457 861.961,795.752 863.922,795.97 865.884,796.113 867.845,796.182 869.807,796.179 871.769,796.105 873.73,795.963 875.692,795.755 877.654,795.482 879.615,795.146 881.577,794.749 883.539,794.294 885.5,793.783 887.462,793.217 889.424,792.6 891.385,791.933 893.347,791.218 895.309,790.459 897.27,789.657 899.232,788.815 901.194,787.935 903.155,787.021 905.117,786.074 907.078,785.097 909.04,784.092 911.002,783.063 912.963,782.012 914.925,780.941 916.887,779.853 918.848,778.751 920.81,777.638 922.772,776.516 924.733,775.388 926.695,774.256 928.657,773.124 930.618,771.993 932.58,770.867 934.542,769.748 936.503,768.639 938.465,767.543 940.427,766.461 942.388,765.397 944.35,764.354 946.311,763.333 948.273,762.337 950.235,761.369 952.196,760.431 954.158,759.525 956.12,758.655 958.081,757.821 960.043,757.027 962.005,756.275 963.966,755.566 965.928,754.904 967.89,754.289 969.851,753.725 971.813,753.212 973.775,752.754 975.736,752.351 977.698,752.006 979.66,751.719 981.621,751.494 983.583,751.332 985.544,751.233 987.506,751.2 989.468,751.233 991.429,751.335 993.391,751.506 995.353,751.747 997.314,752.06 999.276,752.446 1001.24,752.905 1003.2,753.438 1005.16,754.047 1007.12,754.731 1009.08,755.491 1011.05,756.328 1013.01,757.243 1014.97,758.235 1016.93,759.304 1018.89,760.452 1020.85,761.678 1022.82,762.982 1024.78,764.364 1026.74,765.823 1028.7,767.361 1030.66,768.975 1032.62,770.666 1034.59,772.434 1036.55,774.277 1038.51,776.196 1040.47,778.188 1042.43,780.254 1044.39,782.393 1046.36,784.603 1048.32,786.884 1050.28,789.234 1052.24,791.652 1054.2,794.137 1056.16,796.688 1058.13,799.302 1060.09,801.979 1062.05,804.717 1064.01,807.514 1065.97,810.368 1067.93,813.278 1069.9,816.242 1071.86,819.258 1073.82,822.325 1075.78,825.439 1077.74,828.599 1079.7,831.802 1081.67,835.048 1083.63,838.332 1085.59,841.654 1087.55,845.011 1089.51,848.399 1091.47,851.818 1093.44,855.265 1095.4,858.736 1097.36,862.23 1099.32,865.744 1101.28,869.275 1103.24,872.821 1105.21,876.38 1107.17,879.948 1109.13,883.522 1111.09,887.101 1113.05,890.682 1115.01,894.262 1116.98,897.837 1118.94,901.406 1120.9,904.966 1122.86,908.514 1124.82,912.048 1126.78,915.564 1128.74,919.06 1130.71,922.533 1132.67,925.981 1134.63,929.401 1136.59,932.79 1138.55,936.146 1140.51,939.467 1142.48,942.749 1144.44,945.99 1146.4,949.188 1148.36,952.34 1150.32,955.444 1152.28,958.497 1154.25,961.498 1156.21,964.443 1158.17,967.331 1160.13,970.16 1162.09,972.926 1164.05,975.629 1166.02,978.266 1167.98,980.835 1169.94,983.334 1171.9,985.762 1173.86,988.116 1175.82,990.395 1177.79,992.597 1179.75,994.721 1181.71,996.765 1183.67,998.728 1185.63,1000.61 1187.59,1002.4 1189.56,1004.11 1191.52,1005.74 1193.48,1007.27 1195.44,1008.72 1197.4,1010.08 1199.36,1011.35 1201.33,1012.53 1203.29,1013.61 1205.25,1014.6 1207.21,1015.5 1209.17,1016.31 1211.13,1017.02 1213.1,1017.64 1215.06,1018.17 1217.02,1018.6 1218.98,1018.94 1220.94,1019.18 1222.9,1019.33 1224.87,1019.38 1226.83,1019.35 1228.79,1019.21 1230.75,1018.99 1232.71,1018.68 1234.67,1018.27 1236.64,1017.77 1238.6,1017.18 1240.56,1016.51 1242.52,1015.75 1244.48,1014.9 1246.44,1013.96 1248.41,1012.94 1250.37,1011.84 1252.33,1010.65 1254.29,1009.39 1256.25,1008.05 1258.21,1006.63 1260.18,1005.13 1262.14,1003.56 1264.1,1001.92 1266.06,1000.21 1268.02,998.426 1269.98,996.579 1271.95,994.669 1273.91,992.696 1275.87,990.663 1277.83,988.572 1279.79,986.426 1281.75,984.226 1283.72,981.975 1285.68,979.675 1287.64,977.329 1289.6,974.94 1291.56,972.508 1293.52,970.038 1295.49,967.532 1297.45,964.992 1299.41,962.42 1301.37,959.82 1303.33,957.194 1305.29,954.545 1307.26,951.875 1309.22,949.187 1311.18,946.484 1313.14,943.768 1315.1,941.042 1317.06,938.309 1319.03,935.571 1320.99,932.832 1322.95,930.093 1324.91,927.358 1326.87,924.629 1328.83,921.909 1330.79,919.201 1332.76,916.506 1334.72,913.828 1336.68,911.17 1338.64,908.533 1340.6,905.92 1342.56,903.334 1344.53,900.778 1346.49,898.252 1348.45,895.761 1350.41,893.306 1352.37,890.89 1354.33,888.514 1356.3,886.182 1358.26,883.894 1360.22,881.654 1362.18,879.463 1364.14,877.322 1366.1,875.235 1368.07,873.203 1370.03,871.228 1371.99,869.311 1373.95,867.454 1375.91,865.659 1377.87,863.926 1379.84,862.259 1381.8,860.657 1383.76,859.123 1385.72,857.657 1387.68,856.261 1389.64,854.935 1391.61,853.682 1393.57,852.501 1395.53,851.393 1397.49,850.359 1399.45,849.401 1401.41,848.518 1403.38,847.71 1405.34,846.98 1407.3,846.326 1409.26,845.749 1411.22,845.249 1413.18,844.826 1415.15,844.481 1417.11,844.212 1419.07,844.021 1421.03,843.907 1422.99,843.868 1424.95,843.906 1426.92,844.02 1428.88,844.208 1430.84,844.47 1432.8,844.806 1434.76,845.215 1436.72,845.695 1438.69,846.246 1440.65,846.866 1442.61,847.555 1444.57,848.312 1446.53,849.134 1448.49,850.021 1450.46,850.971 1452.42,851.983 1454.38,853.055 1456.34,854.185 1458.3,855.372 1460.26,856.614 1462.23,857.909 1464.19,859.255 1466.15,860.651 1468.11,862.094 1470.07,863.581 1472.03,865.112 1474,866.684 1475.96,868.294 1477.92,869.94 1479.88,871.621 1481.84,873.333 1483.8,875.074 1485.77,876.842 1487.73,878.635 1489.69,880.449 1491.65,882.283 1493.61,884.133 1495.57,885.997 1497.54,887.874 1499.5,889.759 1501.46,891.65 1503.42,893.545 1505.38,895.441 1507.34,897.335 1509.31,899.225 1511.27,901.108 1513.23,902.981 1515.19,904.841 1517.15,906.687 1519.11,908.514 1521.08,910.321 1523.04,912.105 1525,913.864 1526.96,915.593 1528.92,917.292 1530.88,918.958 1532.84,920.587 1534.81,922.177 1536.77,923.727 1538.73,925.233 1540.69,926.693 1542.65,928.104 1544.61,929.465 1546.58,930.772 1548.54,932.025 1550.5,933.22 1552.46,934.355 1554.42,935.428 1556.38,936.437 1558.35,937.381 1560.31,938.257 1562.27,939.063 1564.23,939.797 1566.19,940.458 1568.15,941.045 1570.12,941.554 1572.08,941.986 1574.04,942.337 1576,942.608 1577.96,942.796 1579.92,942.9 1581.89,942.92 1583.85,942.853 1585.81,942.699 1587.77,942.457 1589.73,942.126 1591.69,941.706 1593.66,941.195 1595.62,940.592 1597.58,939.898 1599.54,939.112 1601.5,938.233 1603.46,937.261 1605.43,936.196 1607.39,935.038 1609.35,933.786 1611.31,932.441 1613.27,931.003 1615.23,929.472 1617.2,927.848 1619.16,926.131 1621.12,924.323 1623.08,922.423 1625.04,920.433 1627,918.352 1628.97,916.182 1630.93,913.924 1632.89,911.578 1634.85,909.146 1636.81,906.628 1638.77,904.026 1640.74,901.341 1642.7,898.574 1644.66,895.727 1646.62,892.802 1648.58,889.799 1650.54,886.72 1652.51,883.568 1654.47,880.343 1656.43,877.048 1658.39,873.684 1660.35,870.254 1662.31,866.759 1664.28,863.201 1666.24,859.583 1668.2,855.907 1670.16,852.174 1672.12,848.388 1674.08,844.55 1676.05,840.663 1678.01,836.729 1679.97,832.751 1681.93,828.731 1683.89,824.671 1685.85,820.574 1687.82,816.443 1689.78,812.28 1691.74,808.088 1693.7,803.87 1695.66,799.627 1697.62,795.364 1699.59,791.081 1701.55,786.783 1703.51,782.472 1705.47,778.15 1707.43,773.821 1709.39,769.486 1711.36,765.15 1713.32,760.813 1715.28,756.48 1717.24,752.152 1719.2,747.833 1721.16,743.525 1723.12,739.231 1725.09,734.953 1727.05,730.694 1729.01,726.456 1730.97,722.243 1732.93,718.056 1734.89,713.898 1736.86,709.772 1738.82,705.68 1740.78,701.624 1742.74,697.607 1744.7,693.63 1746.66,689.697 1748.63,685.809 1750.59,681.969 1752.55,678.178 1754.51,674.439 1756.47,670.753 1758.43,667.123 1760.4,663.55 1762.36,660.037 1764.32,656.584 1766.28,653.193 1768.24,649.867 1770.2,646.606 1772.17,643.412 1774.13,640.287 1776.09,637.231 1778.05,634.246 1780.01,631.334 1781.97,628.494 1783.94,625.729 1785.9,623.038 1787.86,620.424 1789.82,617.886 1791.78,615.426 1793.74,613.043 1795.71,610.739 1797.67,608.513 1799.63,606.367 1801.59,604.3 1803.55,602.313 1805.51,600.405 1807.48,598.577 1809.44,596.828 1811.4,595.159 1813.36,593.569 1815.32,592.058 1817.28,590.625 1819.25,589.27 1821.21,587.992 1823.17,586.791 1825.13,585.666 1827.09,584.616 1829.05,583.64 1831.02,582.737 1832.98,581.906 1834.94,581.146 1836.9,580.455 1838.86,579.833 1840.82,579.278 1842.79,578.789 1844.75,578.363 1846.71,578 1848.67,577.698 1850.63,577.455 1852.59,577.269 1854.56,577.139 1856.52,577.062 1858.48,577.037 1860.44,577.061 1862.4,577.133 1864.36,577.25 1866.33,577.411 1868.29,577.613 1870.25,577.853 1872.21,578.13 1874.17,578.44 1876.13,578.783 1878.1,579.155 1880.06,579.553 1882.02,579.976 1883.98,580.421 1885.94,580.884 1887.9,581.365 1889.87,581.859 1891.83,582.365 1893.79,582.88 1895.75,583.401 1897.71,583.925 1899.67,584.451 1901.64,584.974 1903.6,585.493 1905.56,586.005 1907.52,586.507 1909.48,586.996 1911.44,587.47 1913.41,587.927 1915.37,588.363 1917.33,588.775 1919.29,589.163 1921.25,589.521 1923.21,589.85 1925.17,590.144 1927.14,590.403 1929.1,590.624 1931.06,590.803 1933.02,590.94 1934.98,591.031 1936.94,591.074 1938.91,591.067 1940.87,591.008 1942.83,590.894 1944.79,590.723 1946.75,590.493 1948.71,590.203 1950.68,589.85 1952.64,589.432 1954.6,588.947 1956.56,588.394 1958.52,587.771 1960.48,587.075 1962.45,586.307 1964.41,585.463 1966.37,584.543 1968.33,583.545 1970.29,582.468 1972.25,581.311 1974.22,580.072 1976.18,578.75 1978.14,577.345 1980.1,575.855 1982.06,574.279 1984.02,572.617 1985.99,570.868 1987.95,569.031 1989.91,567.107 1991.87,565.093 1993.83,562.991 1995.79,560.799 1997.76,558.518 1999.72,556.147 2001.68,553.687 2003.64,551.137 2005.6,548.498 2007.56,545.77 2009.53,542.952 2011.49,540.046 2013.45,537.052 2015.41,533.971 2017.37,530.803 2019.33,527.549 2021.3,524.209 2023.26,520.785 2025.22,517.278 2027.18,513.688 2029.14,510.017 2031.1,506.266 2033.07,502.436 2035.03,498.528 2036.99,494.545 2038.95,490.487 2040.91,486.356 2042.87,482.154 2044.84,477.882 2046.8,473.543 2048.76,469.137 2050.72,464.667 2052.68,460.135 2054.64,455.543 2056.61,450.893 2058.57,446.186 2060.53,441.426 2062.49,436.615 2064.45,431.754 2066.41,426.846 2068.38,421.893 2070.34,416.899 2072.3,411.864 2074.26,406.792 2076.22,401.686 2078.18,396.547 2080.15,391.378 2082.11,386.182 2084.07,380.962 2086.03,375.72 2087.99,370.459 2089.95,365.182 2091.92,359.891 2093.88,354.588 2095.84,349.278 2097.8,343.961 2099.76,338.642 2101.72,333.322 2103.69,328.005 2105.65,322.694 2107.61,317.39 2109.57,312.097 2111.53,306.817 2113.49,301.553 2115.46,296.308 2117.42,291.084 2119.38,285.884 2121.34,280.71 2123.3,275.565 2125.26,270.452 2127.22,265.373 2129.19,260.33 2131.15,255.326 2133.11,250.364 2135.07,245.444 2137.03,240.571 2138.99,235.746 2140.96,230.971 2142.92,226.249 2144.88,221.58 2146.84,216.969 2148.8,212.416 2150.76,207.923 2152.73,203.492 2154.69,199.126 2156.65,194.825 2158.61,190.592 2160.57,186.427 2162.53,182.333 2164.5,178.311 2166.46,174.362 2168.42,170.488 2170.38,166.689 2172.34,162.968 2174.3,159.324 2176.27,155.759 2178.23,152.274 2180.19,148.87 2182.15,145.547 2184.11,142.307 2186.07,139.149 2188.04,136.074 2190,133.083 2191.96,130.176 2193.92,127.352 2195.88,124.614 2197.84,121.959 2199.81,119.389 2201.77,116.903 2203.73,114.501 2205.69,112.183 2207.65,109.949 2209.61,107.798 2211.58,105.729 2213.54,103.742 2215.5,101.836 2217.46,100.011 2219.42,98.2651 2221.38,96.5983 2223.35,95.0091 2225.31,93.4966 2227.27,92.0595 2229.23,90.6967 2231.19,89.4069 2233.15,88.1886 2235.12,87.0404 2237.08,85.9608 2239.04,84.9481 2241,84.0009 2242.96,83.1172 2244.92,82.2954 2246.89,81.5336 2248.85,80.8298 2250.81,80.1822 2252.77,79.5886 2254.73,79.0471 2256.69,78.5555 2258.66,78.1115 2260.62,77.7131 2262.58,77.3578 2264.54,77.0435 2266.5,76.7677 2268.46,76.528 2270.43,76.3221 2272.39,76.1475 2274.35,76.0016 2276.31,75.8819 2278.27,75.786 2280.23,75.7112 2282.2,75.6549 2284.16,75.6145 2286.12,75.5874 2288.08,75.5709 2290.04,75.5625 2292,75.5594 2293.97,75.5589 "></polyline>
<polyline clip-path="url(#clip592)" style="stroke:#0000ff; stroke-linecap:round; stroke-linejoin:round; stroke-width:4; stroke-opacity:1; fill:none" stroke-dasharray="16, 10" points="334.277,75.5589 336.238,81.0105 338.2,86.4593 340.162,91.9027 342.123,97.3379 344.085,102.762 346.046,108.173 348.008,113.568 349.97,118.943 351.931,124.297 353.893,129.627 355.855,134.931 357.816,140.204 359.778,145.446 361.74,150.654 363.701,155.824 365.663,160.955 367.625,166.045 369.586,171.09 371.548,176.089 373.51,181.039 375.471,185.938 377.433,190.784 379.395,195.575 381.356,200.308 383.318,204.982 385.279,209.595 387.241,214.145 389.203,218.629 391.164,223.046 393.126,227.395 395.088,231.674 397.049,235.881 399.011,240.015 400.973,244.074 402.934,248.056 404.896,251.962 406.858,255.789 408.819,259.536 410.781,263.203 412.743,266.787 414.704,270.29 416.666,273.708 418.628,277.043 420.589,280.292 422.551,283.457 424.512,286.535 426.474,289.527 428.436,292.433 430.397,295.251 432.359,297.983 434.321,300.627 436.282,303.185 438.244,305.655 440.206,308.039 442.167,310.337 444.129,312.548 446.091,314.673 448.052,316.714 450.014,318.67 451.976,320.542 453.937,322.331 455.899,324.038 457.861,325.663 459.822,327.208 461.784,328.674 463.745,330.062 465.707,331.373 467.669,332.609 469.63,333.77 471.592,334.859 473.554,335.877 475.515,336.825 477.477,337.706 479.439,338.52 481.4,339.27 483.362,339.957 485.324,340.584 487.285,341.153 489.247,341.664 491.209,342.122 493.17,342.527 495.132,342.881 497.094,343.188 499.055,343.449 501.017,343.667 502.978,343.844 504.94,343.983 506.902,344.085 508.863,344.153 510.825,344.191 512.787,344.199 514.748,344.182 516.71,344.141 518.672,344.079 520.633,343.999 522.595,343.903 524.557,343.794 526.518,343.675 528.48,343.548 530.442,343.416 532.403,343.281 534.365,343.147 536.327,343.016 538.288,342.891 540.25,342.773 542.211,342.667 544.173,342.574 546.135,342.497 548.096,342.439 550.058,342.403 552.02,342.39 553.981,342.404 555.943,342.446 557.905,342.52 559.866,342.628 561.828,342.771 563.79,342.954 565.751,343.177 567.713,343.443 569.675,343.754 571.636,344.113 573.598,344.522 575.56,344.982 577.521,345.496 579.483,346.066 581.445,346.693 583.406,347.38 585.368,348.128 587.329,348.938 589.291,349.814 591.253,350.755 593.214,351.764 595.176,352.842 597.138,353.991 599.099,355.211 601.061,356.505 603.023,357.873 604.984,359.315 606.946,360.834 608.908,362.431 610.869,364.105 612.831,365.858 614.793,367.69 616.754,369.603 618.716,371.595 620.678,373.669 622.639,375.824 624.601,378.061 626.562,380.379 628.524,382.78 630.486,385.262 632.447,387.826 634.409,390.471 636.371,393.198 638.332,396.005 640.294,398.894 642.256,401.862 644.217,404.91 646.179,408.037 648.141,411.241 650.102,414.523 652.064,417.882 654.026,421.315 655.987,424.824 657.949,428.405 659.911,432.058 661.872,435.782 663.834,439.575 665.795,443.435 667.757,447.362 669.719,451.354 671.68,455.409 673.642,459.525 675.604,463.701 677.565,467.935 679.527,472.224 681.489,476.567 683.45,480.962 685.412,485.406 687.374,489.899 689.335,494.436 691.297,499.017 693.259,503.639 695.22,508.299 697.182,512.995 699.144,517.725 701.105,522.487 703.067,527.277 705.028,532.093 706.99,536.934 708.952,541.795 710.913,546.675 712.875,551.571 714.837,556.48 716.798,561.4 718.76,566.328 720.722,571.261 722.683,576.197 724.645,581.132 726.607,586.065 728.568,590.992 730.53,595.911 732.492,600.819 734.453,605.713 736.415,610.59 738.377,615.449 740.338,620.286 742.3,625.098 744.261,629.883 746.223,634.639 748.185,639.362 750.146,644.05 752.108,648.701 754.07,653.312 756.031,657.881 757.993,662.405 759.955,666.882 761.916,671.309 763.878,675.684 765.84,680.006 767.801,684.271 769.763,688.477 771.725,692.623 773.686,696.706 775.648,700.724 777.61,704.676 779.571,708.56 781.533,712.373 783.494,716.114 785.456,719.781 787.418,723.373 789.379,726.888 791.341,730.324 793.303,733.681 795.264,736.956 797.226,740.15 799.188,743.259 801.149,746.284 803.111,749.223 805.073,752.075 807.034,754.84 808.996,757.516 810.958,760.103 812.919,762.6 814.881,765.008 816.843,767.324 818.804,769.549 820.766,771.683 822.727,773.725 824.689,775.676 826.651,777.535 828.612,779.302 830.574,780.977 832.536,782.561 834.497,784.054 836.459,785.456 838.421,786.768 840.382,787.991 842.344,789.124 844.306,790.169 846.267,791.126 848.229,791.996 850.191,792.781 852.152,793.481 854.114,794.098 856.076,794.632 858.037,795.085 859.999,795.458 861.961,795.753 863.922,795.971 865.884,796.114 867.845,796.183 869.807,796.18 871.769,796.106 873.73,795.964 875.692,795.756 877.654,795.482 879.615,795.146 881.577,794.75 883.539,794.295 885.5,793.783 887.462,793.218 889.424,792.6 891.385,791.933 893.347,791.218 895.309,790.459 897.27,789.657 899.232,788.815 901.194,787.935 903.155,787.02 905.117,786.073 907.078,785.096 909.04,784.092 911.002,783.062 912.963,782.011 914.925,780.94 916.887,779.853 918.848,778.751 920.81,777.637 922.772,776.515 924.733,775.387 926.695,774.255 928.657,773.123 930.618,771.992 932.58,770.866 934.542,769.747 936.503,768.638 938.465,767.542 940.427,766.46 942.388,765.396 944.35,764.353 946.311,763.332 948.273,762.336 950.235,761.368 952.196,760.43 954.158,759.524 956.12,758.654 958.081,757.82 960.043,757.026 962.005,756.274 963.966,755.565 965.928,754.903 967.89,754.288 969.851,753.724 971.813,753.211 973.775,752.753 975.736,752.35 977.698,752.005 979.66,751.719 981.621,751.494 983.583,751.331 985.544,751.232 987.506,751.199 989.468,751.233 991.429,751.335 993.391,751.506 995.353,751.747 997.314,752.06 999.276,752.446 1001.24,752.905 1003.2,753.438 1005.16,754.047 1007.12,754.731 1009.08,755.491 1011.05,756.328 1013.01,757.243 1014.97,758.235 1016.93,759.305 1018.89,760.452 1020.85,761.678 1022.82,762.982 1024.78,764.364 1026.74,765.824 1028.7,767.361 1030.66,768.976 1032.62,770.667 1034.59,772.435 1036.55,774.278 1038.51,776.196 1040.47,778.189 1042.43,780.255 1044.39,782.394 1046.36,784.604 1048.32,786.885 1050.28,789.235 1052.24,791.653 1054.2,794.138 1056.16,796.689 1058.13,799.303 1060.09,801.98 1062.05,804.718 1064.01,807.515 1065.97,810.369 1067.93,813.279 1069.9,816.244 1071.86,819.26 1073.82,822.326 1075.78,825.44 1077.74,828.6 1079.7,831.803 1081.67,835.049 1083.63,838.333 1085.59,841.655 1087.55,845.011 1089.51,848.4 1091.47,851.819 1093.44,855.265 1095.4,858.736 1097.36,862.23 1099.32,865.744 1101.28,869.275 1103.24,872.821 1105.21,876.38 1107.17,879.948 1109.13,883.522 1111.09,887.101 1113.05,890.682 1115.01,894.261 1116.98,897.837 1118.94,901.406 1120.9,904.966 1122.86,908.514 1124.82,912.047 1126.78,915.563 1128.74,919.059 1130.71,922.532 1132.67,925.98 1134.63,929.4 1136.59,932.789 1138.55,936.145 1140.51,939.465 1142.48,942.747 1144.44,945.989 1146.4,949.186 1148.36,952.339 1150.32,955.443 1152.28,958.496 1154.25,961.496 1156.21,964.442 1158.17,967.33 1160.13,970.158 1162.09,972.925 1164.05,975.627 1166.02,978.264 1167.98,980.833 1169.94,983.333 1171.9,985.76 1173.86,988.115 1175.82,990.394 1177.79,992.596 1179.75,994.72 1181.71,996.764 1183.67,998.727 1185.63,1000.61 1187.59,1002.4 1189.56,1004.11 1191.52,1005.74 1193.48,1007.27 1195.44,1008.72 1197.4,1010.08 1199.36,1011.35 1201.33,1012.53 1203.29,1013.61 1205.25,1014.6 1207.21,1015.5 1209.17,1016.31 1211.13,1017.03 1213.1,1017.64 1215.06,1018.17 1217.02,1018.6 1218.98,1018.94 1220.94,1019.18 1222.9,1019.33 1224.87,1019.39 1226.83,1019.35 1228.79,1019.22 1230.75,1018.99 1232.71,1018.68 1234.67,1018.27 1236.64,1017.77 1238.6,1017.19 1240.56,1016.51 1242.52,1015.75 1244.48,1014.9 1246.44,1013.96 1248.41,1012.94 1250.37,1011.84 1252.33,1010.66 1254.29,1009.39 1256.25,1008.05 1258.21,1006.63 1260.18,1005.13 1262.14,1003.56 1264.1,1001.92 1266.06,1000.21 1268.02,998.427 1269.98,996.58 1271.95,994.669 1273.91,992.697 1275.87,990.664 1277.83,988.573 1279.79,986.426 1281.75,984.226 1283.72,981.975 1285.68,979.676 1287.64,977.33 1289.6,974.94 1291.56,972.508 1293.52,970.038 1295.49,967.532 1297.45,964.991 1299.41,962.42 1301.37,959.82 1303.33,957.194 1305.29,954.544 1307.26,951.874 1309.22,949.186 1311.18,946.483 1313.14,943.767 1315.1,941.041 1317.06,938.308 1319.03,935.57 1320.99,932.831 1322.95,930.092 1324.91,927.357 1326.87,924.628 1328.83,921.908 1330.79,919.2 1332.76,916.505 1334.72,913.827 1336.68,911.169 1338.64,908.532 1340.6,905.919 1342.56,903.333 1344.53,900.777 1346.49,898.252 1348.45,895.76 1350.41,893.306 1352.37,890.889 1354.33,888.514 1356.3,886.181 1358.26,883.894 1360.22,881.653 1362.18,879.462 1364.14,877.322 1366.1,875.235 1368.07,873.203 1370.03,871.228 1371.99,869.311 1373.95,867.454 1375.91,865.658 1377.87,863.926 1379.84,862.259 1381.8,860.657 1383.76,859.123 1385.72,857.657 1387.68,856.261 1389.64,854.936 1391.61,853.682 1393.57,852.501 1395.53,851.393 1397.49,850.36 1399.45,849.401 1401.41,848.518 1403.38,847.711 1405.34,846.98 1407.3,846.326 1409.26,845.749 1411.22,845.249 1413.18,844.827 1415.15,844.481 1417.11,844.213 1419.07,844.022 1421.03,843.907 1422.99,843.869 1424.95,843.907 1426.92,844.02 1428.88,844.208 1430.84,844.471 1432.8,844.806 1434.76,845.215 1436.72,845.695 1438.69,846.246 1440.65,846.867 1442.61,847.556 1444.57,848.312 1446.53,849.134 1448.49,850.021 1450.46,850.971 1452.42,851.983 1454.38,853.055 1456.34,854.185 1458.3,855.372 1460.26,856.614 1462.23,857.909 1464.19,859.255 1466.15,860.651 1468.11,862.093 1470.07,863.581 1472.03,865.112 1474,866.683 1475.96,868.293 1477.92,869.94 1479.88,871.62 1481.84,873.332 1483.8,875.074 1485.77,876.842 1487.73,878.634 1489.69,880.448 1491.65,882.282 1493.61,884.132 1495.57,885.997 1497.54,887.873 1499.5,889.758 1501.46,891.65 1503.42,893.544 1505.38,895.44 1507.34,897.335 1509.31,899.225 1511.27,901.107 1513.23,902.98 1515.19,904.841 1517.15,906.686 1519.11,908.514 1521.08,910.321 1523.04,912.105 1525,913.863 1526.96,915.593 1528.92,917.292 1530.88,918.958 1532.84,920.587 1534.81,922.178 1536.77,923.727 1538.73,925.233 1540.69,926.693 1542.65,928.104 1544.61,929.465 1546.58,930.773 1548.54,932.025 1550.5,933.22 1552.46,934.355 1554.42,935.428 1556.38,936.438 1558.35,937.382 1560.31,938.257 1562.27,939.063 1564.23,939.798 1566.19,940.459 1568.15,941.045 1570.12,941.555 1572.08,941.986 1574.04,942.338 1576,942.608 1577.96,942.797 1579.92,942.901 1581.89,942.92 1583.85,942.854 1585.81,942.7 1587.77,942.458 1589.73,942.127 1591.69,941.706 1593.66,941.195 1595.62,940.593 1597.58,939.898 1599.54,939.112 1601.5,938.233 1603.46,937.261 1605.43,936.196 1607.39,935.038 1609.35,933.786 1611.31,932.441 1613.27,931.003 1615.23,929.472 1617.2,927.848 1619.16,926.131 1621.12,924.323 1623.08,922.423 1625.04,920.433 1627,918.352 1628.97,916.182 1630.93,913.924 1632.89,911.578 1634.85,909.145 1636.81,906.627 1638.77,904.025 1640.74,901.34 1642.7,898.574 1644.66,895.727 1646.62,892.801 1648.58,889.798 1650.54,886.719 1652.51,883.567 1654.47,880.342 1656.43,877.047 1658.39,873.683 1660.35,870.253 1662.31,866.758 1664.28,863.2 1666.24,859.582 1668.2,855.906 1670.16,852.173 1672.12,848.387 1674.08,844.549 1676.05,840.662 1678.01,836.728 1679.97,832.75 1681.93,828.73 1683.89,824.67 1685.85,820.573 1687.82,816.443 1689.78,812.28 1691.74,808.088 1693.7,803.869 1695.66,799.627 1697.62,795.363 1699.59,791.081 1701.55,786.783 1703.51,782.472 1705.47,778.15 1707.43,773.821 1709.39,769.486 1711.36,765.149 1713.32,760.813 1715.28,756.48 1717.24,752.152 1719.2,747.833 1721.16,743.525 1723.12,739.231 1725.09,734.953 1727.05,730.694 1729.01,726.456 1730.97,722.243 1732.93,718.056 1734.89,713.899 1736.86,709.773 1738.82,705.68 1740.78,701.625 1742.74,697.607 1744.7,693.631 1746.66,689.698 1748.63,685.81 1750.59,681.97 1752.55,678.179 1754.51,674.44 1756.47,670.754 1758.43,667.124 1760.4,663.551 1762.36,660.037 1764.32,656.585 1766.28,653.194 1768.24,649.868 1770.2,646.607 1772.17,643.413 1774.13,640.288 1776.09,637.232 1778.05,634.247 1780.01,631.335 1781.97,628.495 1783.94,625.73 1785.9,623.039 1787.86,620.425 1789.82,617.887 1791.78,615.426 1793.74,613.043 1795.71,610.739 1797.67,608.514 1799.63,606.367 1801.59,604.3 1803.55,602.313 1805.51,600.405 1807.48,598.577 1809.44,596.828 1811.4,595.159 1813.36,593.569 1815.32,592.058 1817.28,590.625 1819.25,589.27 1821.21,587.992 1823.17,586.791 1825.13,585.666 1827.09,584.616 1829.05,583.639 1831.02,582.736 1832.98,581.905 1834.94,581.145 1836.9,580.455 1838.86,579.832 1840.82,579.277 1842.79,578.788 1844.75,578.362 1846.71,577.999 1848.67,577.697 1850.63,577.454 1852.59,577.268 1854.56,577.138 1856.52,577.061 1858.48,577.036 1860.44,577.06 1862.4,577.132 1864.36,577.249 1866.33,577.41 1868.29,577.612 1870.25,577.852 1872.21,578.129 1874.17,578.439 1876.13,578.782 1878.1,579.154 1880.06,579.552 1882.02,579.975 1883.98,580.42 1885.94,580.884 1887.9,581.364 1889.87,581.859 1891.83,582.365 1893.79,582.879 1895.75,583.4 1897.71,583.925 1899.67,584.45 1901.64,584.974 1903.6,585.493 1905.56,586.004 1907.52,586.506 1909.48,586.996 1911.44,587.47 1913.41,587.926 1915.37,588.362 1917.33,588.775 1919.29,589.163 1921.25,589.522 1923.21,589.85 1925.17,590.144 1927.14,590.403 1929.1,590.624 1931.06,590.804 1933.02,590.94 1934.98,591.031 1936.94,591.075 1938.91,591.068 1940.87,591.008 1942.83,590.894 1944.79,590.724 1946.75,590.494 1948.71,590.204 1950.68,589.85 1952.64,589.432 1954.6,588.948 1956.56,588.395 1958.52,587.771 1960.48,587.076 1962.45,586.308 1964.41,585.464 1966.37,584.544 1968.33,583.546 1970.29,582.469 1972.25,581.312 1974.22,580.073 1976.18,578.751 1978.14,577.345 1980.1,575.855 1982.06,574.28 1984.02,572.618 1985.99,570.869 1987.95,569.032 1989.91,567.107 1991.87,565.094 1993.83,562.991 1995.79,560.8 1997.76,558.518 1999.72,556.148 2001.68,553.687 2003.64,551.138 2005.6,548.498 2007.56,545.77 2009.53,542.952 2011.49,540.046 2013.45,537.052 2015.41,533.971 2017.37,530.803 2019.33,527.548 2021.3,524.209 2023.26,520.785 2025.22,517.277 2027.18,513.688 2029.14,510.016 2031.1,506.265 2033.07,502.435 2035.03,498.528 2036.99,494.545 2038.95,490.487 2040.91,486.356 2042.87,482.153 2044.84,477.882 2046.8,473.542 2048.76,469.136 2050.72,464.666 2052.68,460.134 2054.64,455.542 2056.61,450.892 2058.57,446.186 2060.53,441.426 2062.49,436.614 2064.45,431.753 2066.41,426.845 2068.38,421.893 2070.34,416.898 2072.3,411.863 2074.26,406.792 2076.22,401.685 2078.18,396.546 2080.15,391.378 2082.11,386.182 2084.07,380.962 2086.03,375.72 2087.99,370.459 2089.95,365.182 2091.92,359.89 2093.88,354.588 2095.84,349.277 2097.8,343.961 2099.76,338.642 2101.72,333.322 2103.69,328.005 2105.65,322.694 2107.61,317.39 2109.57,312.097 2111.53,306.817 2113.49,301.553 2115.46,296.308 2117.42,291.084 2119.38,285.884 2121.34,280.71 2123.3,275.566 2125.26,270.452 2127.22,265.373 2129.19,260.33 2131.15,255.327 2133.11,250.364 2135.07,245.445 2137.03,240.572 2138.99,235.746 2140.96,230.971 2142.92,226.249 2144.88,221.581 2146.84,216.969 2148.8,212.416 2150.76,207.923 2152.73,203.493 2154.69,199.126 2156.65,194.825 2158.61,190.592 2160.57,186.427 2162.53,182.333 2164.5,178.311 2166.46,174.362 2168.42,170.488 2170.38,166.689 2172.34,162.967 2174.3,159.324 2176.27,155.759 2178.23,152.274 2180.19,148.87 2182.15,145.547 2184.11,142.307 2186.07,139.149 2188.04,136.074 2190,133.083 2191.96,130.175 2193.92,127.352 2195.88,124.613 2197.84,121.959 2199.81,119.389 2201.77,116.903 2203.73,114.501 2205.69,112.183 2207.65,109.949 2209.61,107.797 2211.58,105.728 2213.54,103.741 2215.5,101.836 2217.46,100.011 2219.42,98.265 2221.38,96.5981 2223.35,95.009 2225.31,93.4965 2227.27,92.0595 2229.23,90.6967 2231.19,89.4068 2233.15,88.1885 2235.12,87.0404 2237.08,85.9608 2239.04,84.9482 2241,84.0009 2242.96,83.1173 2244.92,82.2955 2246.89,81.5336 2248.85,80.8299 2250.81,80.1822 2252.77,79.5887 2254.73,79.0471 2256.69,78.5555 2258.66,78.1115 2260.62,77.7131 2262.58,77.3578 2264.54,77.0434 2266.5,76.7676 2268.46,76.528 2270.43,76.3221 2272.39,76.1474 2274.35,76.0015 2276.31,75.8818 2278.27,75.7859 2280.23,75.7111 2282.2,75.6548 2284.16,75.6144 2286.12,75.5873 2288.08,75.5709 2290.04,75.5624 2292,75.5593 2293.97,75.5589 "></polyline>
<path clip-path="url(#clip590)" d="M1801.23 1014.35 L2283.51 1014.35 L2283.51 806.991 L1801.23 806.991  Z" fill="#ffffff" fill-rule="evenodd" fill-opacity="1"></path>
<polyline clip-path="url(#clip590)" style="stroke:#000000; stroke-linecap:round; stroke-linejoin:round; stroke-width:4; stroke-opacity:1; fill:none" points="1801.23,1014.35 2283.51,1014.35 2283.51,806.991 1801.23,806.991 1801.23,1014.35 "></polyline>
<polyline clip-path="url(#clip590)" style="stroke:#808080; stroke-linecap:round; stroke-linejoin:round; stroke-width:12; stroke-opacity:1; fill:none" points="1824.31,858.831 1962.79,858.831 "></polyline>
<path clip-path="url(#clip590)" d="M2001.71 846.158 L1995.36 863.357 L2008.07 863.357 L2001.71 846.158 M1999.07 841.551 L2004.37 841.551 L2017.54 876.111 L2012.68 876.111 L2009.53 867.246 L1993.95 867.246 L1990.8 876.111 L1985.87 876.111 L1999.07 841.551 Z" fill="#000000" fill-rule="nonzero" fill-opacity="1"></path><path clip-path="url(#clip590)" d="M2043.95 860.463 L2043.95 876.111 L2039.69 876.111 L2039.69 860.602 Q2039.69 856.922 2038.26 855.093 Q2036.82 853.264 2033.95 853.264 Q2030.5 853.264 2028.51 855.463 Q2026.52 857.662 2026.52 861.459 L2026.52 876.111 L2022.24 876.111 L2022.24 850.186 L2026.52 850.186 L2026.52 854.213 Q2028.05 851.875 2030.11 850.718 Q2032.19 849.561 2034.9 849.561 Q2039.37 849.561 2041.66 852.338 Q2043.95 855.093 2043.95 860.463 Z" fill="#000000" fill-rule="nonzero" fill-opacity="1"></path><path clip-path="url(#clip590)" d="M2064.23 863.079 Q2059.07 863.079 2057.08 864.26 Q2055.09 865.44 2055.09 868.287 Q2055.09 870.556 2056.57 871.898 Q2058.07 873.218 2060.64 873.218 Q2064.18 873.218 2066.31 870.718 Q2068.47 868.195 2068.47 864.028 L2068.47 863.079 L2064.23 863.079 M2072.73 861.32 L2072.73 876.111 L2068.47 876.111 L2068.47 872.176 Q2067.01 874.537 2064.83 875.672 Q2062.66 876.783 2059.51 876.783 Q2055.53 876.783 2053.17 874.56 Q2050.83 872.315 2050.83 868.565 Q2050.83 864.19 2053.74 861.968 Q2056.68 859.746 2062.49 859.746 L2068.47 859.746 L2068.47 859.329 Q2068.47 856.389 2066.52 854.792 Q2064.6 853.172 2061.11 853.172 Q2058.88 853.172 2056.78 853.704 Q2054.67 854.236 2052.73 855.301 L2052.73 851.366 Q2055.06 850.463 2057.26 850.023 Q2059.46 849.561 2061.54 849.561 Q2067.17 849.561 2069.95 852.477 Q2072.73 855.394 2072.73 861.32 Z" fill="#000000" fill-rule="nonzero" fill-opacity="1"></path><path clip-path="url(#clip590)" d="M2081.5 840.093 L2085.76 840.093 L2085.76 876.111 L2081.5 876.111 L2081.5 840.093 Z" fill="#000000" fill-rule="nonzero" fill-opacity="1"></path><path clip-path="url(#clip590)" d="M2105.46 878.519 Q2103.65 883.148 2101.94 884.56 Q2100.23 885.972 2097.35 885.972 L2093.95 885.972 L2093.95 882.408 L2096.45 882.408 Q2098.21 882.408 2099.18 881.574 Q2100.16 880.741 2101.34 877.639 L2102.1 875.695 L2091.61 850.186 L2096.13 850.186 L2104.23 870.463 L2112.33 850.186 L2116.85 850.186 L2105.46 878.519 Z" fill="#000000" fill-rule="nonzero" fill-opacity="1"></path><path clip-path="url(#clip590)" d="M2126.94 842.824 L2126.94 850.186 L2135.71 850.186 L2135.71 853.496 L2126.94 853.496 L2126.94 867.57 Q2126.94 870.741 2127.79 871.644 Q2128.67 872.547 2131.34 872.547 L2135.71 872.547 L2135.71 876.111 L2131.34 876.111 Q2126.41 876.111 2124.53 874.283 Q2122.66 872.431 2122.66 867.57 L2122.66 853.496 L2119.53 853.496 L2119.53 850.186 L2122.66 850.186 L2122.66 842.824 L2126.94 842.824 Z" fill="#000000" fill-rule="nonzero" fill-opacity="1"></path><path clip-path="url(#clip590)" d="M2141.31 850.186 L2145.57 850.186 L2145.57 876.111 L2141.31 876.111 L2141.31 850.186 M2141.31 840.093 L2145.57 840.093 L2145.57 845.486 L2141.31 845.486 L2141.31 840.093 Z" fill="#000000" fill-rule="nonzero" fill-opacity="1"></path><path clip-path="url(#clip590)" d="M2173.14 851.181 L2173.14 855.162 Q2171.34 854.167 2169.51 853.681 Q2167.7 853.172 2165.85 853.172 Q2161.71 853.172 2159.41 855.811 Q2157.12 858.426 2157.12 863.172 Q2157.12 867.917 2159.41 870.556 Q2161.71 873.172 2165.85 873.172 Q2167.7 873.172 2169.51 872.685 Q2171.34 872.176 2173.14 871.181 L2173.14 875.116 Q2171.36 875.949 2169.44 876.366 Q2167.54 876.783 2165.39 876.783 Q2159.53 876.783 2156.08 873.102 Q2152.63 869.422 2152.63 863.172 Q2152.63 856.829 2156.1 853.195 Q2159.6 849.561 2165.66 849.561 Q2167.63 849.561 2169.51 849.977 Q2171.38 850.371 2173.14 851.181 Z" fill="#000000" fill-rule="nonzero" fill-opacity="1"></path><path clip-path="url(#clip590)" d="M2192.33 863.079 Q2187.17 863.079 2185.18 864.26 Q2183.19 865.44 2183.19 868.287 Q2183.19 870.556 2184.67 871.898 Q2186.17 873.218 2188.74 873.218 Q2192.29 873.218 2194.41 870.718 Q2196.57 868.195 2196.57 864.028 L2196.57 863.079 L2192.33 863.079 M2200.83 861.32 L2200.83 876.111 L2196.57 876.111 L2196.57 872.176 Q2195.11 874.537 2192.93 875.672 Q2190.76 876.783 2187.61 876.783 Q2183.63 876.783 2181.27 874.56 Q2178.93 872.315 2178.93 868.565 Q2178.93 864.19 2181.85 861.968 Q2184.79 859.746 2190.6 859.746 L2196.57 859.746 L2196.57 859.329 Q2196.57 856.389 2194.62 854.792 Q2192.7 853.172 2189.21 853.172 Q2186.98 853.172 2184.88 853.704 Q2182.77 854.236 2180.83 855.301 L2180.83 851.366 Q2183.16 850.463 2185.36 850.023 Q2187.56 849.561 2189.65 849.561 Q2195.27 849.561 2198.05 852.477 Q2200.83 855.394 2200.83 861.32 Z" fill="#000000" fill-rule="nonzero" fill-opacity="1"></path><path clip-path="url(#clip590)" d="M2209.6 840.093 L2213.86 840.093 L2213.86 876.111 L2209.6 876.111 L2209.6 840.093 Z" fill="#000000" fill-rule="nonzero" fill-opacity="1"></path><polyline clip-path="url(#clip590)" style="stroke:#e26f46; stroke-linecap:round; stroke-linejoin:round; stroke-width:12; stroke-opacity:1; fill:none" stroke-dasharray="48, 30" points="1824.31,910.671 1962.79,910.671 "></polyline>
<path clip-path="url(#clip590)" d="M1985.87 893.391 L2007.73 893.391 L2007.73 897.326 L1990.55 897.326 L1990.55 907.558 L2007.01 907.558 L2007.01 911.493 L1990.55 911.493 L1990.55 924.016 L2008.14 924.016 L2008.14 927.951 L1985.87 927.951 L1985.87 893.391 Z" fill="#000000" fill-rule="nonzero" fill-opacity="1"></path><path clip-path="url(#clip590)" d="M2015.83 893.391 L2020.5 893.391 L2020.5 924.016 L2037.33 924.016 L2037.33 927.951 L2015.83 927.951 L2015.83 893.391 Z" fill="#000000" fill-rule="nonzero" fill-opacity="1"></path><path clip-path="url(#clip590)" d="M2042.24 893.391 L2049.21 893.391 L2058.03 916.91 L2066.89 893.391 L2073.86 893.391 L2073.86 927.951 L2069.3 927.951 L2069.3 897.604 L2060.39 921.308 L2055.69 921.308 L2046.78 897.604 L2046.78 927.951 L2042.24 927.951 L2042.24 893.391 Z" fill="#000000" fill-rule="nonzero" fill-opacity="1"></path><path clip-path="url(#clip590)" d="M2095.87 913.067 L2108.35 913.067 L2108.35 916.863 L2095.87 916.863 L2095.87 913.067 Z" fill="#000000" fill-rule="nonzero" fill-opacity="1"></path><path clip-path="url(#clip590)" d="M2140.25 905.012 Q2136.82 905.012 2134.83 907.697 Q2132.84 910.359 2132.84 915.012 Q2132.84 919.664 2134.81 922.349 Q2136.8 925.012 2140.25 925.012 Q2143.65 925.012 2145.64 922.326 Q2147.63 919.641 2147.63 915.012 Q2147.63 910.405 2145.64 907.72 Q2143.65 905.012 2140.25 905.012 M2140.25 901.401 Q2145.8 901.401 2148.98 905.012 Q2152.15 908.623 2152.15 915.012 Q2152.15 921.377 2148.98 925.012 Q2145.8 928.623 2140.25 928.623 Q2134.67 928.623 2131.5 925.012 Q2128.35 921.377 2128.35 915.012 Q2128.35 908.623 2131.5 905.012 Q2134.67 901.401 2140.25 901.401 Z" fill="#000000" fill-rule="nonzero" fill-opacity="1"></path><path clip-path="url(#clip590)" d="M2180.76 912.303 L2180.76 927.951 L2176.5 927.951 L2176.5 912.442 Q2176.5 908.762 2175.06 906.933 Q2173.63 905.104 2170.76 905.104 Q2167.31 905.104 2165.32 907.303 Q2163.33 909.502 2163.33 913.299 L2163.33 927.951 L2159.04 927.951 L2159.04 902.026 L2163.33 902.026 L2163.33 906.053 Q2164.85 903.715 2166.91 902.558 Q2169 901.401 2171.71 901.401 Q2176.17 901.401 2178.47 904.178 Q2180.76 906.933 2180.76 912.303 Z" fill="#000000" fill-rule="nonzero" fill-opacity="1"></path><path clip-path="url(#clip590)" d="M2211.43 913.924 L2211.43 916.007 L2191.85 916.007 Q2192.12 920.405 2194.48 922.72 Q2196.87 925.012 2201.1 925.012 Q2203.56 925.012 2205.85 924.41 Q2208.16 923.808 2210.43 922.604 L2210.43 926.632 Q2208.14 927.604 2205.73 928.113 Q2203.33 928.623 2200.85 928.623 Q2194.65 928.623 2191.01 925.012 Q2187.4 921.4 2187.4 915.243 Q2187.4 908.877 2190.83 905.151 Q2194.28 901.401 2200.11 901.401 Q2205.34 901.401 2208.37 904.78 Q2211.43 908.137 2211.43 913.924 M2207.17 912.674 Q2207.12 909.178 2205.2 907.095 Q2203.3 905.012 2200.16 905.012 Q2196.59 905.012 2194.44 907.026 Q2192.31 909.039 2191.98 912.697 L2207.17 912.674 Z" fill="#000000" fill-rule="nonzero" fill-opacity="1"></path><path clip-path="url(#clip590)" d="M2234.95 902.789 L2234.95 906.817 Q2233.14 905.891 2231.2 905.428 Q2229.25 904.965 2227.17 904.965 Q2224 904.965 2222.4 905.938 Q2220.83 906.91 2220.83 908.854 Q2220.83 910.336 2221.96 911.192 Q2223.1 912.025 2226.52 912.789 L2227.98 913.113 Q2232.52 914.086 2234.41 915.868 Q2236.34 917.627 2236.34 920.799 Q2236.34 924.41 2233.47 926.516 Q2230.62 928.623 2225.62 928.623 Q2223.53 928.623 2221.27 928.206 Q2219.02 927.812 2216.52 927.002 L2216.52 922.604 Q2218.88 923.831 2221.17 924.456 Q2223.47 925.058 2225.71 925.058 Q2228.72 925.058 2230.34 924.039 Q2231.96 922.998 2231.96 921.123 Q2231.96 919.387 2230.78 918.461 Q2229.62 917.535 2225.66 916.678 L2224.18 916.331 Q2220.22 915.498 2218.47 913.785 Q2216.71 912.049 2216.71 909.039 Q2216.71 905.382 2219.3 903.391 Q2221.89 901.401 2226.66 901.401 Q2229.02 901.401 2231.1 901.748 Q2233.19 902.095 2234.95 902.789 Z" fill="#000000" fill-rule="nonzero" fill-opacity="1"></path><polyline clip-path="url(#clip590)" style="stroke:#0000ff; stroke-linecap:round; stroke-linejoin:round; stroke-width:4; stroke-opacity:1; fill:none" stroke-dasharray="16, 10" points="1824.31,962.511 1962.79,962.511 "></polyline>
<path clip-path="url(#clip590)" d="M1985.87 945.231 L2007.73 945.231 L2007.73 949.166 L1990.55 949.166 L1990.55 959.398 L2007.01 959.398 L2007.01 963.333 L1990.55 963.333 L1990.55 975.856 L2008.14 975.856 L2008.14 979.791 L1985.87 979.791 L1985.87 945.231 Z" fill="#000000" fill-rule="nonzero" fill-opacity="1"></path><path clip-path="url(#clip590)" d="M2015.83 945.231 L2020.5 945.231 L2020.5 975.856 L2037.33 975.856 L2037.33 979.791 L2015.83 979.791 L2015.83 945.231 Z" fill="#000000" fill-rule="nonzero" fill-opacity="1"></path><path clip-path="url(#clip590)" d="M2042.24 945.231 L2049.21 945.231 L2058.03 968.75 L2066.89 945.231 L2073.86 945.231 L2073.86 979.791 L2069.3 979.791 L2069.3 949.444 L2060.39 973.148 L2055.69 973.148 L2046.78 949.444 L2046.78 979.791 L2042.24 979.791 L2042.24 945.231 Z" fill="#000000" fill-rule="nonzero" fill-opacity="1"></path><path clip-path="url(#clip590)" d="M2095.87 964.907 L2108.35 964.907 L2108.35 968.703 L2095.87 968.703 L2095.87 964.907 Z" fill="#000000" fill-rule="nonzero" fill-opacity="1"></path><path clip-path="url(#clip590)" d="M2145.23 957.847 Q2144.51 957.43 2143.65 957.245 Q2142.82 957.037 2141.8 957.037 Q2138.19 957.037 2136.24 959.398 Q2134.32 961.736 2134.32 966.134 L2134.32 979.791 L2130.04 979.791 L2130.04 953.866 L2134.32 953.866 L2134.32 957.893 Q2135.66 955.532 2137.82 954.398 Q2139.97 953.241 2143.05 953.241 Q2143.49 953.241 2144.02 953.31 Q2144.55 953.356 2145.2 953.472 L2145.23 957.847 Z" fill="#000000" fill-rule="nonzero" fill-opacity="1"></path><path clip-path="url(#clip590)" d="M2161.47 966.759 Q2156.31 966.759 2154.32 967.94 Q2152.33 969.12 2152.33 971.967 Q2152.33 974.236 2153.81 975.578 Q2155.32 976.898 2157.89 976.898 Q2161.43 976.898 2163.56 974.398 Q2165.71 971.875 2165.71 967.708 L2165.71 966.759 L2161.47 966.759 M2169.97 965 L2169.97 979.791 L2165.71 979.791 L2165.71 975.856 Q2164.25 978.217 2162.08 979.352 Q2159.9 980.463 2156.75 980.463 Q2152.77 980.463 2150.41 978.24 Q2148.07 975.995 2148.07 972.245 Q2148.07 967.87 2150.99 965.648 Q2153.93 963.426 2159.74 963.426 L2165.71 963.426 L2165.71 963.009 Q2165.71 960.069 2163.77 958.472 Q2161.85 956.852 2158.35 956.852 Q2156.13 956.852 2154.02 957.384 Q2151.91 957.916 2149.97 958.981 L2149.97 955.046 Q2152.31 954.143 2154.51 953.703 Q2156.71 953.241 2158.79 953.241 Q2164.41 953.241 2167.19 956.157 Q2169.97 959.074 2169.97 965 Z" fill="#000000" fill-rule="nonzero" fill-opacity="1"></path><path clip-path="url(#clip590)" d="M2200.29 964.143 L2200.29 979.791 L2196.03 979.791 L2196.03 964.282 Q2196.03 960.602 2194.6 958.773 Q2193.16 956.944 2190.29 956.944 Q2186.85 956.944 2184.85 959.143 Q2182.86 961.342 2182.86 965.139 L2182.86 979.791 L2178.58 979.791 L2178.58 953.866 L2182.86 953.866 L2182.86 957.893 Q2184.39 955.555 2186.45 954.398 Q2188.54 953.241 2191.24 953.241 Q2195.71 953.241 2198 956.018 Q2200.29 958.773 2200.29 964.143 Z" fill="#000000" fill-rule="nonzero" fill-opacity="1"></path><path clip-path="url(#clip590)" d="M2225.85 957.801 L2225.85 943.773 L2230.11 943.773 L2230.11 979.791 L2225.85 979.791 L2225.85 975.902 Q2224.51 978.217 2222.45 979.352 Q2220.41 980.463 2217.54 980.463 Q2212.84 980.463 2209.88 976.713 Q2206.94 972.963 2206.94 966.852 Q2206.94 960.74 2209.88 956.991 Q2212.84 953.241 2217.54 953.241 Q2220.41 953.241 2222.45 954.375 Q2224.51 955.486 2225.85 957.801 M2211.34 966.852 Q2211.34 971.551 2213.26 974.236 Q2215.2 976.898 2218.58 976.898 Q2221.96 976.898 2223.91 974.236 Q2225.85 971.551 2225.85 966.852 Q2225.85 962.153 2223.91 959.491 Q2221.96 956.805 2218.58 956.805 Q2215.2 956.805 2213.26 959.491 Q2211.34 962.153 2211.34 966.852 Z" fill="#000000" fill-rule="nonzero" fill-opacity="1"></path><path clip-path="url(#clip590)" d="M2260.43 964.143 L2260.43 979.791 L2256.17 979.791 L2256.17 964.282 Q2256.17 960.602 2254.74 958.773 Q2253.3 956.944 2250.43 956.944 Q2246.98 956.944 2244.99 959.143 Q2243 961.342 2243 965.139 L2243 979.791 L2238.72 979.791 L2238.72 953.866 L2243 953.866 L2243 957.893 Q2244.53 955.555 2246.59 954.398 Q2248.67 953.241 2251.38 953.241 Q2255.85 953.241 2258.14 956.018 Q2260.43 958.773 2260.43 964.143 Z" fill="#000000" fill-rule="nonzero" fill-opacity="1"></path></svg>