<svg xmlns="http://www.w3.org/2000/svg" xmlns:xlink="http://www.w3.org/1999/xlink" width="600" height="300" viewBox="0 0 2400 1600">
<defs>
  <clipPath id="clip010">
    <rect x="0" y="0" width="2400" height="1600"></rect>
  </clipPath>
</defs>
<path clip-path="url(#clip010)" d="M0 1600 L2400 1600 L2400 0 L0 0  Z" fill="#ffffff" fill-rule="evenodd" fill-opacity="1"></path>
<defs>
  <clipPath id="clip011">
    <rect x="480" y="0" width="1681" height="1600"></rect>
  </clipPath>
</defs>
<path clip-path="url(#clip010)" d="M346.694 1423.18 L2352.76 1423.18 L2352.76 47.2441 L346.694 47.2441  Z" fill="#ffffff" fill-rule="evenodd" fill-opacity="1"></path>
<defs>
  <clipPath id="clip012">
    <rect x="346" y="47" width="2007" height="1377"></rect>
  </clipPath>
</defs>
<polyline clip-path="url(#clip012)" style="stroke:#000000; stroke-linecap:round; stroke-linejoin:round; stroke-width:2; stroke-opacity:0.1; fill:none" points="403.47,1423.18 403.47,47.2441 "></polyline>
<polyline clip-path="url(#clip012)" style="stroke:#000000; stroke-linecap:round; stroke-linejoin:round; stroke-width:2; stroke-opacity:0.1; fill:none" points="876.597,1423.18 876.597,47.2441 "></polyline>
<polyline clip-path="url(#clip012)" style="stroke:#000000; stroke-linecap:round; stroke-linejoin:round; stroke-width:2; stroke-opacity:0.1; fill:none" points="1349.73,1423.18 1349.73,47.2441 "></polyline>
<polyline clip-path="url(#clip012)" style="stroke:#000000; stroke-linecap:round; stroke-linejoin:round; stroke-width:2; stroke-opacity:0.1; fill:none" points="1822.85,1423.18 1822.85,47.2441 "></polyline>
<polyline clip-path="url(#clip012)" style="stroke:#000000; stroke-linecap:round; stroke-linejoin:round; stroke-width:2; stroke-opacity:0.1; fill:none" points="2295.98,1423.18 2295.98,47.2441 "></polyline>
<polyline clip-path="url(#clip012)" style="stroke:#000000; stroke-linecap:round; stroke-linejoin:round; stroke-width:2; stroke-opacity:0.1; fill:none" points="346.694,1176.51 2352.76,1176.51 "></polyline>
<polyline clip-path="url(#clip012)" style="stroke:#000000; stroke-linecap:round; stroke-linejoin:round; stroke-width:2; stroke-opacity:0.1; fill:none" points="346.694,879.692 2352.76,879.692 "></polyline>
<polyline clip-path="url(#clip012)" style="stroke:#000000; stroke-linecap:round; stroke-linejoin:round; stroke-width:2; stroke-opacity:0.1; fill:none" points="346.694,582.87 2352.76,582.87 "></polyline>
<polyline clip-path="url(#clip012)" style="stroke:#000000; stroke-linecap:round; stroke-linejoin:round; stroke-width:2; stroke-opacity:0.1; fill:none" points="346.694,286.048 2352.76,286.048 "></polyline>
<polyline clip-path="url(#clip010)" style="stroke:#000000; stroke-linecap:round; stroke-linejoin:round; stroke-width:4; stroke-opacity:1; fill:none" points="346.694,1423.18 2352.76,1423.18 "></polyline>
<polyline clip-path="url(#clip010)" style="stroke:#000000; stroke-linecap:round; stroke-linejoin:round; stroke-width:4; stroke-opacity:1; fill:none" points="403.47,1423.18 403.47,1404.28 "></polyline>
<polyline clip-path="url(#clip010)" style="stroke:#000000; stroke-linecap:round; stroke-linejoin:round; stroke-width:4; stroke-opacity:1; fill:none" points="876.597,1423.18 876.597,1404.28 "></polyline>
<polyline clip-path="url(#clip010)" style="stroke:#000000; stroke-linecap:round; stroke-linejoin:round; stroke-width:4; stroke-opacity:1; fill:none" points="1349.73,1423.18 1349.73,1404.28 "></polyline>
<polyline clip-path="url(#clip010)" style="stroke:#000000; stroke-linecap:round; stroke-linejoin:round; stroke-width:4; stroke-opacity:1; fill:none" points="1822.85,1423.18 1822.85,1404.28 "></polyline>
<polyline clip-path="url(#clip010)" style="stroke:#000000; stroke-linecap:round; stroke-linejoin:round; stroke-width:4; stroke-opacity:1; fill:none" points="2295.98,1423.18 2295.98,1404.28 "></polyline>
<path clip-path="url(#clip010)" d="M365.773 1454.1 Q362.162 1454.1 360.333 1457.66 Q358.528 1461.2 358.528 1468.33 Q358.528 1475.44 360.333 1479.01 Q362.162 1482.55 365.773 1482.55 Q369.407 1482.55 371.213 1479.01 Q373.042 1475.44 373.042 1468.33 Q373.042 1461.2 371.213 1457.66 Q369.407 1454.1 365.773 1454.1 M365.773 1450.39 Q371.583 1450.39 374.639 1455 Q377.717 1459.58 377.717 1468.33 Q377.717 1477.06 374.639 1481.67 Q371.583 1486.25 365.773 1486.25 Q359.963 1486.25 356.884 1481.67 Q353.829 1477.06 353.829 1468.33 Q353.829 1459.58 356.884 1455 Q359.963 1450.39 365.773 1450.39 Z" fill="#000000" fill-rule="nonzero" fill-opacity="1"></path><path clip-path="url(#clip010)" d="M385.935 1479.7 L390.819 1479.7 L390.819 1485.58 L385.935 1485.58 L385.935 1479.7 Z" fill="#000000" fill-rule="nonzero" fill-opacity="1"></path><path clip-path="url(#clip010)" d="M411.004 1454.1 Q407.393 1454.1 405.565 1457.66 Q403.759 1461.2 403.759 1468.33 Q403.759 1475.44 405.565 1479.01 Q407.393 1482.55 411.004 1482.55 Q414.639 1482.55 416.444 1479.01 Q418.273 1475.44 418.273 1468.33 Q418.273 1461.2 416.444 1457.66 Q414.639 1454.1 411.004 1454.1 M411.004 1450.39 Q416.814 1450.39 419.87 1455 Q422.949 1459.58 422.949 1468.33 Q422.949 1477.06 419.87 1481.67 Q416.814 1486.25 411.004 1486.25 Q405.194 1486.25 402.115 1481.67 Q399.06 1477.06 399.06 1468.33 Q399.06 1459.58 402.115 1455 Q405.194 1450.39 411.004 1450.39 Z" fill="#000000" fill-rule="nonzero" fill-opacity="1"></path><path clip-path="url(#clip010)" d="M441.166 1454.1 Q437.555 1454.1 435.726 1457.66 Q433.921 1461.2 433.921 1468.33 Q433.921 1475.44 435.726 1479.01 Q437.555 1482.55 441.166 1482.55 Q444.8 1482.55 446.606 1479.01 Q448.435 1475.44 448.435 1468.33 Q448.435 1461.2 446.606 1457.66 Q444.8 1454.1 441.166 1454.1 M441.166 1450.39 Q446.976 1450.39 450.032 1455 Q453.111 1459.58 453.111 1468.33 Q453.111 1477.06 450.032 1481.67 Q446.976 1486.25 441.166 1486.25 Q435.356 1486.25 432.277 1481.67 Q429.222 1477.06 429.222 1468.33 Q429.222 1459.58 432.277 1455 Q435.356 1450.39 441.166 1450.39 Z" fill="#000000" fill-rule="nonzero" fill-opacity="1"></path><path clip-path="url(#clip010)" d="M839.398 1454.1 Q835.787 1454.1 833.959 1457.66 Q832.153 1461.2 832.153 1468.33 Q832.153 1475.44 833.959 1479.01 Q835.787 1482.55 839.398 1482.55 Q843.033 1482.55 844.838 1479.01 Q846.667 1475.44 846.667 1468.33 Q846.667 1461.2 844.838 1457.66 Q843.033 1454.1 839.398 1454.1 M839.398 1450.39 Q845.209 1450.39 848.264 1455 Q851.343 1459.58 851.343 1468.33 Q851.343 1477.06 848.264 1481.67 Q845.209 1486.25 839.398 1486.25 Q833.588 1486.25 830.51 1481.67 Q827.454 1477.06 827.454 1468.33 Q827.454 1459.58 830.51 1455 Q833.588 1450.39 839.398 1450.39 Z" fill="#000000" fill-rule="nonzero" fill-opacity="1"></path><path clip-path="url(#clip010)" d="M859.56 1479.7 L864.445 1479.7 L864.445 1485.58 L859.56 1485.58 L859.56 1479.7 Z" fill="#000000" fill-rule="nonzero" fill-opacity="1"></path><path clip-path="url(#clip010)" d="M878.658 1481.64 L894.977 1481.64 L894.977 1485.58 L873.033 1485.58 L873.033 1481.64 Q875.695 1478.89 880.278 1474.26 Q884.884 1469.61 886.065 1468.27 Q888.31 1465.74 889.19 1464.01 Q890.093 1462.25 890.093 1460.56 Q890.093 1457.8 888.148 1456.07 Q886.227 1454.33 883.125 1454.33 Q880.926 1454.33 878.472 1455.09 Q876.042 1455.86 873.264 1457.41 L873.264 1452.69 Q876.088 1451.55 878.542 1450.97 Q880.995 1450.39 883.033 1450.39 Q888.403 1450.39 891.597 1453.08 Q894.792 1455.77 894.792 1460.26 Q894.792 1462.39 893.982 1464.31 Q893.194 1466.2 891.088 1468.8 Q890.509 1469.47 887.407 1472.69 Q884.306 1475.88 878.658 1481.64 Z" fill="#000000" fill-rule="nonzero" fill-opacity="1"></path><path clip-path="url(#clip010)" d="M904.838 1451.02 L923.194 1451.02 L923.194 1454.96 L909.12 1454.96 L909.12 1463.43 Q910.139 1463.08 911.157 1462.92 Q912.176 1462.73 913.194 1462.73 Q918.981 1462.73 922.361 1465.9 Q925.741 1469.08 925.741 1474.49 Q925.741 1480.07 922.268 1483.17 Q918.796 1486.25 912.477 1486.25 Q910.301 1486.25 908.032 1485.88 Q905.787 1485.51 903.38 1484.77 L903.38 1480.07 Q905.463 1481.2 907.685 1481.76 Q909.907 1482.32 912.384 1482.32 Q916.389 1482.32 918.727 1480.21 Q921.065 1478.1 921.065 1474.49 Q921.065 1470.88 918.727 1468.77 Q916.389 1466.67 912.384 1466.67 Q910.509 1466.67 908.634 1467.08 Q906.782 1467.5 904.838 1468.38 L904.838 1451.02 Z" fill="#000000" fill-rule="nonzero" fill-opacity="1"></path><path clip-path="url(#clip010)" d="M1312.03 1454.1 Q1308.42 1454.1 1306.59 1457.66 Q1304.78 1461.2 1304.78 1468.33 Q1304.78 1475.44 1306.59 1479.01 Q1308.42 1482.55 1312.03 1482.55 Q1315.66 1482.55 1317.47 1479.01 Q1319.3 1475.44 1319.3 1468.33 Q1319.3 1461.2 1317.47 1457.66 Q1315.66 1454.1 1312.03 1454.1 M1312.03 1450.39 Q1317.84 1450.39 1320.89 1455 Q1323.97 1459.58 1323.97 1468.33 Q1323.97 1477.06 1320.89 1481.67 Q1317.84 1486.25 1312.03 1486.25 Q1306.22 1486.25 1303.14 1481.67 Q1300.08 1477.06 1300.08 1468.33 Q1300.08 1459.58 1303.14 1455 Q1306.22 1450.39 1312.03 1450.39 Z" fill="#000000" fill-rule="nonzero" fill-opacity="1"></path><path clip-path="url(#clip010)" d="M1332.19 1479.7 L1337.07 1479.7 L1337.07 1485.58 L1332.19 1485.58 L1332.19 1479.7 Z" fill="#000000" fill-rule="nonzero" fill-opacity="1"></path><path clip-path="url(#clip010)" d="M1347.31 1451.02 L1365.66 1451.02 L1365.66 1454.96 L1351.59 1454.96 L1351.59 1463.43 Q1352.61 1463.08 1353.63 1462.92 Q1354.64 1462.73 1355.66 1462.73 Q1361.45 1462.73 1364.83 1465.9 Q1368.21 1469.08 1368.21 1474.49 Q1368.21 1480.07 1364.74 1483.17 Q1361.26 1486.25 1354.94 1486.25 Q1352.77 1486.25 1350.5 1485.88 Q1348.26 1485.51 1345.85 1484.77 L1345.85 1480.07 Q1347.93 1481.2 1350.15 1481.76 Q1352.38 1482.32 1354.85 1482.32 Q1358.86 1482.32 1361.19 1480.21 Q1363.53 1478.1 1363.53 1474.49 Q1363.53 1470.88 1361.19 1468.77 Q1358.86 1466.67 1354.85 1466.67 Q1352.98 1466.67 1351.1 1467.08 Q1349.25 1467.5 1347.31 1468.38 L1347.31 1451.02 Z" fill="#000000" fill-rule="nonzero" fill-opacity="1"></path><path clip-path="url(#clip010)" d="M1387.42 1454.1 Q1383.81 1454.1 1381.98 1457.66 Q1380.18 1461.2 1380.18 1468.33 Q1380.18 1475.44 1381.98 1479.01 Q1383.81 1482.55 1387.42 1482.55 Q1391.06 1482.55 1392.86 1479.01 Q1394.69 1475.44 1394.69 1468.33 Q1394.69 1461.2 1392.86 1457.66 Q1391.06 1454.1 1387.42 1454.1 M1387.42 1450.39 Q1393.23 1450.39 1396.29 1455 Q1399.37 1459.58 1399.37 1468.33 Q1399.37 1477.06 1396.29 1481.67 Q1393.23 1486.25 1387.42 1486.25 Q1381.61 1486.25 1378.53 1481.67 Q1375.48 1477.06 1375.48 1468.33 Q1375.48 1459.58 1378.53 1455 Q1381.61 1450.39 1387.42 1450.39 Z" fill="#000000" fill-rule="nonzero" fill-opacity="1"></path><path clip-path="url(#clip010)" d="M1785.65 1454.1 Q1782.04 1454.1 1780.21 1457.66 Q1778.41 1461.2 1778.41 1468.33 Q1778.41 1475.44 1780.21 1479.01 Q1782.04 1482.55 1785.65 1482.55 Q1789.29 1482.55 1791.09 1479.01 Q1792.92 1475.44 1792.92 1468.33 Q1792.92 1461.2 1791.09 1457.66 Q1789.29 1454.1 1785.65 1454.1 M1785.65 1450.39 Q1791.46 1450.39 1794.52 1455 Q1797.6 1459.58 1797.6 1468.33 Q1797.6 1477.06 1794.52 1481.67 Q1791.46 1486.25 1785.65 1486.25 Q1779.84 1486.25 1776.77 1481.67 Q1773.71 1477.06 1773.71 1468.33 Q1773.71 1459.58 1776.77 1455 Q1779.84 1450.39 1785.65 1450.39 Z" fill="#000000" fill-rule="nonzero" fill-opacity="1"></path><path clip-path="url(#clip010)" d="M1805.82 1479.7 L1810.7 1479.7 L1810.7 1485.58 L1805.82 1485.58 L1805.82 1479.7 Z" fill="#000000" fill-rule="nonzero" fill-opacity="1"></path><path clip-path="url(#clip010)" d="M1819.7 1451.02 L1841.93 1451.02 L1841.93 1453.01 L1829.38 1485.58 L1824.5 1485.58 L1836.3 1454.96 L1819.7 1454.96 L1819.7 1451.02 Z" fill="#000000" fill-rule="nonzero" fill-opacity="1"></path><path clip-path="url(#clip010)" d="M1851.09 1451.02 L1869.45 1451.02 L1869.45 1454.96 L1855.38 1454.96 L1855.38 1463.43 Q1856.39 1463.08 1857.41 1462.92 Q1858.43 1462.73 1859.45 1462.73 Q1865.24 1462.73 1868.62 1465.9 Q1872 1469.08 1872 1474.49 Q1872 1480.07 1868.52 1483.17 Q1865.05 1486.25 1858.73 1486.25 Q1856.56 1486.25 1854.29 1485.88 Q1852.04 1485.51 1849.64 1484.77 L1849.64 1480.07 Q1851.72 1481.2 1853.94 1481.76 Q1856.16 1482.32 1858.64 1482.32 Q1862.64 1482.32 1864.98 1480.21 Q1867.32 1478.1 1867.32 1474.49 Q1867.32 1470.88 1864.98 1468.77 Q1862.64 1466.67 1858.64 1466.67 Q1856.76 1466.67 1854.89 1467.08 Q1853.04 1467.5 1851.09 1468.38 L1851.09 1451.02 Z" fill="#000000" fill-rule="nonzero" fill-opacity="1"></path><path clip-path="url(#clip010)" d="M2248.05 1481.64 L2255.69 1481.64 L2255.69 1455.28 L2247.38 1456.95 L2247.38 1452.69 L2255.65 1451.02 L2260.32 1451.02 L2260.32 1481.64 L2267.96 1481.64 L2267.96 1485.58 L2248.05 1485.58 L2248.05 1481.64 Z" fill="#000000" fill-rule="nonzero" fill-opacity="1"></path><path clip-path="url(#clip010)" d="M2277.4 1479.7 L2282.29 1479.7 L2282.29 1485.58 L2277.4 1485.58 L2277.4 1479.7 Z" fill="#000000" fill-rule="nonzero" fill-opacity="1"></path><path clip-path="url(#clip010)" d="M2302.47 1454.1 Q2298.86 1454.1 2297.03 1457.66 Q2295.23 1461.2 2295.23 1468.33 Q2295.23 1475.44 2297.03 1479.01 Q2298.86 1482.55 2302.47 1482.55 Q2306.11 1482.55 2307.91 1479.01 Q2309.74 1475.44 2309.74 1468.33 Q2309.74 1461.2 2307.91 1457.66 Q2306.11 1454.1 2302.47 1454.1 M2302.47 1450.39 Q2308.28 1450.39 2311.34 1455 Q2314.42 1459.58 2314.42 1468.33 Q2314.42 1477.06 2311.34 1481.67 Q2308.28 1486.25 2302.47 1486.25 Q2296.66 1486.25 2293.58 1481.67 Q2290.53 1477.06 2290.53 1468.33 Q2290.53 1459.58 2293.58 1455 Q2296.66 1450.39 2302.47 1450.39 Z" fill="#000000" fill-rule="nonzero" fill-opacity="1"></path><path clip-path="url(#clip010)" d="M2332.64 1454.1 Q2329.02 1454.1 2327.2 1457.66 Q2325.39 1461.2 2325.39 1468.33 Q2325.39 1475.44 2327.2 1479.01 Q2329.02 1482.55 2332.64 1482.55 Q2336.27 1482.55 2338.08 1479.01 Q2339.9 1475.44 2339.9 1468.33 Q2339.9 1461.2 2338.08 1457.66 Q2336.27 1454.1 2332.64 1454.1 M2332.64 1450.39 Q2338.45 1450.39 2341.5 1455 Q2344.58 1459.58 2344.58 1468.33 Q2344.58 1477.06 2341.5 1481.67 Q2338.45 1486.25 2332.64 1486.25 Q2326.83 1486.25 2323.75 1481.67 Q2320.69 1477.06 2320.69 1468.33 Q2320.69 1459.58 2323.75 1455 Q2326.83 1450.39 2332.64 1450.39 Z" fill="#000000" fill-rule="nonzero" fill-opacity="1"></path><path clip-path="url(#clip010)" d="M1366.34 1532.4 L1353.45 1549.74 L1367.01 1568.04 L1360.1 1568.04 L1349.73 1554.04 L1339.35 1568.04 L1332.44 1568.04 L1346.29 1549.39 L1333.62 1532.4 L1340.53 1532.4 L1349.98 1545.1 L1359.43 1532.4 L1366.34 1532.4 Z" fill="#000000" fill-rule="nonzero" fill-opacity="1"></path><polyline clip-path="url(#clip010)" style="stroke:#000000; stroke-linecap:round; stroke-linejoin:round; stroke-width:4; stroke-opacity:1; fill:none" points="346.694,1423.18 346.694,47.2441 "></polyline>
<polyline clip-path="url(#clip010)" style="stroke:#000000; stroke-linecap:round; stroke-linejoin:round; stroke-width:4; stroke-opacity:1; fill:none" points="346.694,1176.51 365.592,1176.51 "></polyline>
<polyline clip-path="url(#clip010)" style="stroke:#000000; stroke-linecap:round; stroke-linejoin:round; stroke-width:4; stroke-opacity:1; fill:none" points="346.694,879.692 365.592,879.692 "></polyline>
<polyline clip-path="url(#clip010)" style="stroke:#000000; stroke-linecap:round; stroke-linejoin:round; stroke-width:4; stroke-opacity:1; fill:none" points="346.694,582.87 365.592,582.87 "></polyline>
<polyline clip-path="url(#clip010)" style="stroke:#000000; stroke-linecap:round; stroke-linejoin:round; stroke-width:4; stroke-opacity:1; fill:none" points="346.694,286.048 365.592,286.048 "></polyline>
<path clip-path="url(#clip010)" d="M114.26 1176.97 L143.936 1176.97 L143.936 1180.9 L114.26 1180.9 L114.26 1176.97 Z" fill="#000000" fill-rule="nonzero" fill-opacity="1"></path><path clip-path="url(#clip010)" d="M164.028 1162.31 Q160.417 1162.31 158.589 1165.88 Q156.783 1169.42 156.783 1176.55 Q156.783 1183.65 158.589 1187.22 Q160.417 1190.76 164.028 1190.76 Q167.663 1190.76 169.468 1187.22 Q171.297 1183.65 171.297 1176.55 Q171.297 1169.42 169.468 1165.88 Q167.663 1162.31 164.028 1162.31 M164.028 1158.61 Q169.839 1158.61 172.894 1163.22 Q175.973 1167.8 175.973 1176.55 Q175.973 1185.28 172.894 1189.88 Q169.839 1194.46 164.028 1194.46 Q158.218 1194.46 155.14 1189.88 Q152.084 1185.28 152.084 1176.55 Q152.084 1167.8 155.14 1163.22 Q158.218 1158.61 164.028 1158.61 Z" fill="#000000" fill-rule="nonzero" fill-opacity="1"></path><path clip-path="url(#clip010)" d="M184.19 1187.91 L189.075 1187.91 L189.075 1193.79 L184.19 1193.79 L184.19 1187.91 Z" fill="#000000" fill-rule="nonzero" fill-opacity="1"></path><path clip-path="url(#clip010)" d="M209.26 1162.31 Q205.649 1162.31 203.82 1165.88 Q202.014 1169.42 202.014 1176.55 Q202.014 1183.65 203.82 1187.22 Q205.649 1190.76 209.26 1190.76 Q212.894 1190.76 214.699 1187.22 Q216.528 1183.65 216.528 1176.55 Q216.528 1169.42 214.699 1165.88 Q212.894 1162.31 209.26 1162.31 M209.26 1158.61 Q215.07 1158.61 218.125 1163.22 Q221.204 1167.8 221.204 1176.55 Q221.204 1185.28 218.125 1189.88 Q215.07 1194.46 209.26 1194.46 Q203.449 1194.46 200.371 1189.88 Q197.315 1185.28 197.315 1176.55 Q197.315 1167.8 200.371 1163.22 Q203.449 1158.61 209.26 1158.61 Z" fill="#000000" fill-rule="nonzero" fill-opacity="1"></path><path clip-path="url(#clip010)" d="M239.422 1162.31 Q235.81 1162.31 233.982 1165.88 Q232.176 1169.42 232.176 1176.55 Q232.176 1183.65 233.982 1187.22 Q235.81 1190.76 239.422 1190.76 Q243.056 1190.76 244.861 1187.22 Q246.69 1183.65 246.69 1176.55 Q246.69 1169.42 244.861 1165.88 Q243.056 1162.31 239.422 1162.31 M239.422 1158.61 Q245.232 1158.61 248.287 1163.22 Q251.366 1167.8 251.366 1176.55 Q251.366 1185.28 248.287 1189.88 Q245.232 1194.46 239.422 1194.46 Q233.611 1194.46 230.533 1189.88 Q227.477 1185.28 227.477 1176.55 Q227.477 1167.8 230.533 1163.22 Q233.611 1158.61 239.422 1158.61 Z" fill="#000000" fill-rule="nonzero" fill-opacity="1"></path><path clip-path="url(#clip010)" d="M263.611 1189.86 L279.931 1189.86 L279.931 1193.79 L257.986 1193.79 L257.986 1189.86 Q260.648 1187.1 265.232 1182.47 Q269.838 1177.82 271.019 1176.48 Q273.264 1173.96 274.144 1172.22 Q275.046 1170.46 275.046 1168.77 Q275.046 1166.02 273.102 1164.28 Q271.181 1162.54 268.079 1162.54 Q265.88 1162.54 263.426 1163.31 Q260.995 1164.07 258.218 1165.62 L258.218 1160.9 Q261.042 1159.77 263.495 1159.19 Q265.949 1158.61 267.986 1158.61 Q273.357 1158.61 276.551 1161.29 Q279.745 1163.98 279.745 1168.47 Q279.745 1170.6 278.935 1172.52 Q278.148 1174.42 276.042 1177.01 Q275.463 1177.68 272.361 1180.9 Q269.259 1184.09 263.611 1189.86 Z" fill="#000000" fill-rule="nonzero" fill-opacity="1"></path><path clip-path="url(#clip010)" d="M289.792 1159.23 L308.148 1159.23 L308.148 1163.17 L294.074 1163.17 L294.074 1171.64 Q295.093 1171.29 296.111 1171.13 Q297.13 1170.95 298.148 1170.95 Q303.935 1170.95 307.315 1174.12 Q310.694 1177.29 310.694 1182.71 Q310.694 1188.28 307.222 1191.39 Q303.75 1194.46 297.43 1194.46 Q295.255 1194.46 292.986 1194.09 Q290.741 1193.72 288.333 1192.98 L288.333 1188.28 Q290.417 1189.42 292.639 1189.97 Q294.861 1190.53 297.338 1190.53 Q301.342 1190.53 303.68 1188.42 Q306.018 1186.32 306.018 1182.71 Q306.018 1179.09 303.68 1176.99 Q301.342 1174.88 297.338 1174.88 Q295.463 1174.88 293.588 1175.3 Q291.736 1175.72 289.792 1176.59 L289.792 1159.23 Z" fill="#000000" fill-rule="nonzero" fill-opacity="1"></path><path clip-path="url(#clip010)" d="M163.033 865.49 Q159.422 865.49 157.593 869.055 Q155.788 872.597 155.788 879.726 Q155.788 886.833 157.593 890.398 Q159.422 893.939 163.033 893.939 Q166.667 893.939 168.473 890.398 Q170.302 886.833 170.302 879.726 Q170.302 872.597 168.473 869.055 Q166.667 865.49 163.033 865.49 M163.033 861.787 Q168.843 861.787 171.899 866.393 Q174.977 870.976 174.977 879.726 Q174.977 888.453 171.899 893.06 Q168.843 897.643 163.033 897.643 Q157.223 897.643 154.144 893.06 Q151.089 888.453 151.089 879.726 Q151.089 870.976 154.144 866.393 Q157.223 861.787 163.033 861.787 Z" fill="#000000" fill-rule="nonzero" fill-opacity="1"></path><path clip-path="url(#clip010)" d="M183.195 891.092 L188.079 891.092 L188.079 896.972 L183.195 896.972 L183.195 891.092 Z" fill="#000000" fill-rule="nonzero" fill-opacity="1"></path><path clip-path="url(#clip010)" d="M208.264 865.49 Q204.653 865.49 202.824 869.055 Q201.019 872.597 201.019 879.726 Q201.019 886.833 202.824 890.398 Q204.653 893.939 208.264 893.939 Q211.899 893.939 213.704 890.398 Q215.533 886.833 215.533 879.726 Q215.533 872.597 213.704 869.055 Q211.899 865.49 208.264 865.49 M208.264 861.787 Q214.074 861.787 217.13 866.393 Q220.209 870.976 220.209 879.726 Q220.209 888.453 217.13 893.06 Q214.074 897.643 208.264 897.643 Q202.454 897.643 199.375 893.06 Q196.32 888.453 196.32 879.726 Q196.32 870.976 199.375 866.393 Q202.454 861.787 208.264 861.787 Z" fill="#000000" fill-rule="nonzero" fill-opacity="1"></path><path clip-path="url(#clip010)" d="M238.426 865.49 Q234.815 865.49 232.986 869.055 Q231.181 872.597 231.181 879.726 Q231.181 886.833 232.986 890.398 Q234.815 893.939 238.426 893.939 Q242.06 893.939 243.866 890.398 Q245.695 886.833 245.695 879.726 Q245.695 872.597 243.866 869.055 Q242.06 865.49 238.426 865.49 M238.426 861.787 Q244.236 861.787 247.292 866.393 Q250.371 870.976 250.371 879.726 Q250.371 888.453 247.292 893.06 Q244.236 897.643 238.426 897.643 Q232.616 897.643 229.537 893.06 Q226.482 888.453 226.482 879.726 Q226.482 870.976 229.537 866.393 Q232.616 861.787 238.426 861.787 Z" fill="#000000" fill-rule="nonzero" fill-opacity="1"></path><path clip-path="url(#clip010)" d="M268.588 865.49 Q264.977 865.49 263.148 869.055 Q261.343 872.597 261.343 879.726 Q261.343 886.833 263.148 890.398 Q264.977 893.939 268.588 893.939 Q272.222 893.939 274.028 890.398 Q275.857 886.833 275.857 879.726 Q275.857 872.597 274.028 869.055 Q272.222 865.49 268.588 865.49 M268.588 861.787 Q274.398 861.787 277.454 866.393 Q280.532 870.976 280.532 879.726 Q280.532 888.453 277.454 893.06 Q274.398 897.643 268.588 897.643 Q262.778 897.643 259.699 893.06 Q256.644 888.453 256.644 879.726 Q256.644 870.976 259.699 866.393 Q262.778 861.787 268.588 861.787 Z" fill="#000000" fill-rule="nonzero" fill-opacity="1"></path><path clip-path="url(#clip010)" d="M298.75 865.49 Q295.139 865.49 293.31 869.055 Q291.505 872.597 291.505 879.726 Q291.505 886.833 293.31 890.398 Q295.139 893.939 298.75 893.939 Q302.384 893.939 304.19 890.398 Q306.018 886.833 306.018 879.726 Q306.018 872.597 304.19 869.055 Q302.384 865.49 298.75 865.49 M298.75 861.787 Q304.56 861.787 307.616 866.393 Q310.694 870.976 310.694 879.726 Q310.694 888.453 307.616 893.06 Q304.56 897.643 298.75 897.643 Q292.94 897.643 289.861 893.06 Q286.806 888.453 286.806 879.726 Q286.806 870.976 289.861 866.393 Q292.94 861.787 298.75 861.787 Z" fill="#000000" fill-rule="nonzero" fill-opacity="1"></path><path clip-path="url(#clip010)" d="M164.028 568.668 Q160.417 568.668 158.589 572.233 Q156.783 575.775 156.783 582.904 Q156.783 590.011 158.589 593.576 Q160.417 597.117 164.028 597.117 Q167.663 597.117 169.468 593.576 Q171.297 590.011 171.297 582.904 Q171.297 575.775 169.468 572.233 Q167.663 568.668 164.028 568.668 M164.028 564.965 Q169.839 564.965 172.894 569.571 Q175.973 574.154 175.973 582.904 Q175.973 591.631 172.894 596.238 Q169.839 600.821 164.028 600.821 Q158.218 600.821 155.14 596.238 Q152.084 591.631 152.084 582.904 Q152.084 574.154 155.14 569.571 Q158.218 564.965 164.028 564.965 Z" fill="#000000" fill-rule="nonzero" fill-opacity="1"></path><path clip-path="url(#clip010)" d="M184.19 594.27 L189.075 594.27 L189.075 600.15 L184.19 600.15 L184.19 594.27 Z" fill="#000000" fill-rule="nonzero" fill-opacity="1"></path><path clip-path="url(#clip010)" d="M209.26 568.668 Q205.649 568.668 203.82 572.233 Q202.014 575.775 202.014 582.904 Q202.014 590.011 203.82 593.576 Q205.649 597.117 209.26 597.117 Q212.894 597.117 214.699 593.576 Q216.528 590.011 216.528 582.904 Q216.528 575.775 214.699 572.233 Q212.894 568.668 209.26 568.668 M209.26 564.965 Q215.07 564.965 218.125 569.571 Q221.204 574.154 221.204 582.904 Q221.204 591.631 218.125 596.238 Q215.07 600.821 209.26 600.821 Q203.449 600.821 200.371 596.238 Q197.315 591.631 197.315 582.904 Q197.315 574.154 200.371 569.571 Q203.449 564.965 209.26 564.965 Z" fill="#000000" fill-rule="nonzero" fill-opacity="1"></path><path clip-path="url(#clip010)" d="M239.422 568.668 Q235.81 568.668 233.982 572.233 Q232.176 575.775 232.176 582.904 Q232.176 590.011 233.982 593.576 Q235.81 597.117 239.422 597.117 Q243.056 597.117 244.861 593.576 Q246.69 590.011 246.69 582.904 Q246.69 575.775 244.861 572.233 Q243.056 568.668 239.422 568.668 M239.422 564.965 Q245.232 564.965 248.287 569.571 Q251.366 574.154 251.366 582.904 Q251.366 591.631 248.287 596.238 Q245.232 600.821 239.422 600.821 Q233.611 600.821 230.533 596.238 Q227.477 591.631 227.477 582.904 Q227.477 574.154 230.533 569.571 Q233.611 564.965 239.422 564.965 Z" fill="#000000" fill-rule="nonzero" fill-opacity="1"></path><path clip-path="url(#clip010)" d="M263.611 596.215 L279.931 596.215 L279.931 600.15 L257.986 600.15 L257.986 596.215 Q260.648 593.46 265.232 588.83 Q269.838 584.178 271.019 582.835 Q273.264 580.312 274.144 578.576 Q275.046 576.816 275.046 575.127 Q275.046 572.372 273.102 570.636 Q271.181 568.9 268.079 568.9 Q265.88 568.9 263.426 569.664 Q260.995 570.428 258.218 571.979 L258.218 567.256 Q261.042 566.122 263.495 565.543 Q265.949 564.965 267.986 564.965 Q273.357 564.965 276.551 567.65 Q279.745 570.335 279.745 574.826 Q279.745 576.955 278.935 578.877 Q278.148 580.775 276.042 583.367 Q275.463 584.039 272.361 587.256 Q269.259 590.451 263.611 596.215 Z" fill="#000000" fill-rule="nonzero" fill-opacity="1"></path><path clip-path="url(#clip010)" d="M289.792 565.59 L308.148 565.59 L308.148 569.525 L294.074 569.525 L294.074 577.997 Q295.093 577.65 296.111 577.488 Q297.13 577.303 298.148 577.303 Q303.935 577.303 307.315 580.474 Q310.694 583.645 310.694 589.062 Q310.694 594.64 307.222 597.742 Q303.75 600.821 297.43 600.821 Q295.255 600.821 292.986 600.451 Q290.741 600.08 288.333 599.34 L288.333 594.64 Q290.417 595.775 292.639 596.33 Q294.861 596.886 297.338 596.886 Q301.342 596.886 303.68 594.779 Q306.018 592.673 306.018 589.062 Q306.018 585.451 303.68 583.344 Q301.342 581.238 297.338 581.238 Q295.463 581.238 293.588 581.654 Q291.736 582.071 289.792 582.951 L289.792 565.59 Z" fill="#000000" fill-rule="nonzero" fill-opacity="1"></path><path clip-path="url(#clip010)" d="M163.033 271.846 Q159.422 271.846 157.593 275.411 Q155.788 278.953 155.788 286.082 Q155.788 293.189 157.593 296.754 Q159.422 300.295 163.033 300.295 Q166.667 300.295 168.473 296.754 Q170.302 293.189 170.302 286.082 Q170.302 278.953 168.473 275.411 Q166.667 271.846 163.033 271.846 M163.033 268.143 Q168.843 268.143 171.899 272.749 Q174.977 277.332 174.977 286.082 Q174.977 294.809 171.899 299.416 Q168.843 303.999 163.033 303.999 Q157.223 303.999 154.144 299.416 Q151.089 294.809 151.089 286.082 Q151.089 277.332 154.144 272.749 Q157.223 268.143 163.033 268.143 Z" fill="#000000" fill-rule="nonzero" fill-opacity="1"></path><path clip-path="url(#clip010)" d="M183.195 297.448 L188.079 297.448 L188.079 303.328 L183.195 303.328 L183.195 297.448 Z" fill="#000000" fill-rule="nonzero" fill-opacity="1"></path><path clip-path="url(#clip010)" d="M208.264 271.846 Q204.653 271.846 202.824 275.411 Q201.019 278.953 201.019 286.082 Q201.019 293.189 202.824 296.754 Q204.653 300.295 208.264 300.295 Q211.899 300.295 213.704 296.754 Q215.533 293.189 215.533 286.082 Q215.533 278.953 213.704 275.411 Q211.899 271.846 208.264 271.846 M208.264 268.143 Q214.074 268.143 217.13 272.749 Q220.209 277.332 220.209 286.082 Q220.209 294.809 217.13 299.416 Q214.074 303.999 208.264 303.999 Q202.454 303.999 199.375 299.416 Q196.32 294.809 196.32 286.082 Q196.32 277.332 199.375 272.749 Q202.454 268.143 208.264 268.143 Z" fill="#000000" fill-rule="nonzero" fill-opacity="1"></path><path clip-path="url(#clip010)" d="M238.426 271.846 Q234.815 271.846 232.986 275.411 Q231.181 278.953 231.181 286.082 Q231.181 293.189 232.986 296.754 Q234.815 300.295 238.426 300.295 Q242.06 300.295 243.866 296.754 Q245.695 293.189 245.695 286.082 Q245.695 278.953 243.866 275.411 Q242.06 271.846 238.426 271.846 M238.426 268.143 Q244.236 268.143 247.292 272.749 Q250.371 277.332 250.371 286.082 Q250.371 294.809 247.292 299.416 Q244.236 303.999 238.426 303.999 Q232.616 303.999 229.537 299.416 Q226.482 294.809 226.482 286.082 Q226.482 277.332 229.537 272.749 Q232.616 268.143 238.426 268.143 Z" fill="#000000" fill-rule="nonzero" fill-opacity="1"></path><path clip-path="url(#clip010)" d="M258.634 268.768 L276.991 268.768 L276.991 272.703 L262.917 272.703 L262.917 281.175 Q263.935 280.828 264.954 280.666 Q265.972 280.481 266.991 280.481 Q272.778 280.481 276.157 283.652 Q279.537 286.823 279.537 292.24 Q279.537 297.818 276.065 300.92 Q272.593 303.999 266.273 303.999 Q264.097 303.999 261.829 303.629 Q259.583 303.258 257.176 302.518 L257.176 297.818 Q259.259 298.953 261.482 299.508 Q263.704 300.064 266.181 300.064 Q270.185 300.064 272.523 297.957 Q274.861 295.851 274.861 292.24 Q274.861 288.629 272.523 286.522 Q270.185 284.416 266.181 284.416 Q264.306 284.416 262.431 284.832 Q260.579 285.249 258.634 286.129 L258.634 268.768 Z" fill="#000000" fill-rule="nonzero" fill-opacity="1"></path><path clip-path="url(#clip010)" d="M298.75 271.846 Q295.139 271.846 293.31 275.411 Q291.505 278.953 291.505 286.082 Q291.505 293.189 293.31 296.754 Q295.139 300.295 298.75 300.295 Q302.384 300.295 304.19 296.754 Q306.018 293.189 306.018 286.082 Q306.018 278.953 304.19 275.411 Q302.384 271.846 298.75 271.846 M298.75 268.143 Q304.56 268.143 307.616 272.749 Q310.694 277.332 310.694 286.082 Q310.694 294.809 307.616 299.416 Q304.56 303.999 298.75 303.999 Q292.94 303.999 289.861 299.416 Q286.806 294.809 286.806 286.082 Q286.806 277.332 289.861 272.749 Q292.94 268.143 298.75 268.143 Z" fill="#000000" fill-rule="nonzero" fill-opacity="1"></path><path clip-path="url(#clip010)" d="M49.9359 795.018 L28.3562 795.018 L28.3562 789.161 L49.7131 789.161 Q54.7739 789.161 57.3202 787.188 Q59.8346 785.215 59.8346 781.268 Q59.8346 776.525 56.8109 773.788 Q53.7872 771.019 48.5673 771.019 L28.3562 771.019 L28.3562 765.163 L64.0042 765.163 L64.0042 771.019 L58.5296 771.019 Q61.7762 773.152 63.3676 775.984 Q64.9272 778.785 64.9272 782.509 Q64.9272 788.652 61.1078 791.835 Q57.2883 795.018 49.9359 795.018 M27.4968 780.281 L27.4968 780.281 Z" fill="#000000" fill-rule="nonzero" fill-opacity="1"></path><path clip-path="url(#clip010)" d="M14.5426 739.031 Q21.8632 743.296 29.0246 745.365 Q36.186 747.434 43.5384 747.434 Q50.8908 747.434 58.1159 745.365 Q65.3091 743.265 72.5979 739.031 L72.5979 744.124 Q65.1182 748.898 57.8931 751.285 Q50.668 753.641 43.5384 753.641 Q36.4406 753.641 29.2474 751.285 Q22.0542 748.93 14.5426 744.124 L14.5426 739.031 Z" fill="#000000" fill-rule="nonzero" fill-opacity="1"></path><path clip-path="url(#clip010)" d="M28.3562 698.036 L45.7028 710.927 L64.0042 697.368 L64.0042 704.275 L49.9996 714.651 L64.0042 725.027 L64.0042 731.934 L45.3526 718.088 L28.3562 730.756 L28.3562 723.849 L41.0558 714.396 L28.3562 704.943 L28.3562 698.036 Z" fill="#000000" fill-rule="nonzero" fill-opacity="1"></path><path clip-path="url(#clip010)" d="M14.5426 690.015 L14.5426 684.923 Q22.0542 680.149 29.2474 677.793 Q36.4406 675.406 43.5384 675.406 Q50.668 675.406 57.8931 677.793 Q65.1182 680.149 72.5979 684.923 L72.5979 690.015 Q65.3091 685.782 58.1159 683.713 Q50.8908 681.613 43.5384 681.613 Q36.186 681.613 29.0246 683.713 Q21.8632 685.782 14.5426 690.015 Z" fill="#000000" fill-rule="nonzero" fill-opacity="1"></path><polyline clip-path="url(#clip012)" style="stroke:#009af9; stroke-linecap:round; stroke-linejoin:round; stroke-width:4; stroke-opacity:1; fill:none" points="403.47,879.692 405.364,887.256 407.258,894.819 409.153,902.383 411.047,909.947 412.942,917.511 414.836,925.075 416.73,932.639 418.625,940.203 420.519,947.766 422.414,955.33 424.308,962.729 426.202,970.112 428.097,977.495 429.991,984.877 431.886,992.26 433.78,999.643 435.675,1007.03 437.569,1014.41 439.463,1021.79 441.358,1029.17 443.252,1036.26 445.147,1043.29 447.041,1050.31 448.935,1057.34 450.83,1064.36 452.724,1071.39 454.619,1078.41 456.513,1085.43 458.407,1092.46 460.302,1099.48 462.196,1106.12 464.091,1112.62 465.985,1119.12 467.879,1125.62 469.774,1132.11 471.668,1138.61 473.563,1145.11 475.457,1151.61 477.351,1158.1 479.246,1164.6 481.14,1170.66 483.035,1176.48 484.929,1182.29 486.823,1188.1 488.718,1193.92 490.612,1199.73 492.507,1205.54 494.401,1211.36 496.295,1217.17 498.19,1222.98 500.084,1228.35 501.979,1233.34 503.873,1238.32 505.768,1243.31 507.662,1248.3 509.556,1253.29 511.451,1258.28 513.345,1263.27 515.24,1268.26 517.134,1273.24 519.028,1277.8 520.923,1281.84 522.817,1285.89 524.712,1289.93 526.606,1293.97 528.5,1298.01 530.395,1302.05 532.289,1306.09 534.184,1310.13 536.078,1314.18 537.972,1317.84 539.867,1320.83 541.761,1323.82 543.656,1326.82 545.55,1329.81 547.444,1332.81 549.339,1335.8 551.233,1338.79 553.128,1341.79 555.022,1344.78 556.916,1347.47 558.811,1349.34 560.705,1351.21 562.6,1353.08 564.494,1354.95 566.388,1356.82 568.283,1358.69 570.177,1360.56 572.072,1362.43 573.966,1364.3 575.861,1365.95 577.755,1366.65 579.649,1367.34 581.544,1368.04 583.438,1368.73 585.333,1369.43 587.227,1370.12 589.121,1370.82 591.016,1371.51 592.91,1372.21 594.805,1372.79 596.699,1372.29 598.593,1371.79 600.488,1371.28 602.382,1370.78 604.277,1370.28 606.171,1369.77 608.065,1369.27 609.96,1368.76 611.854,1368.26 613.749,1367.76 615.643,1366.06 617.537,1364.36 619.432,1362.66 621.326,1360.96 623.221,1359.26 625.115,1357.57 627.009,1355.87 628.904,1354.17 630.798,1352.47 632.693,1350.77 634.587,1348.01 636.481,1345.15 638.376,1342.29 640.27,1339.43 642.165,1336.56 644.059,1333.7 645.954,1330.84 647.848,1327.98 649.742,1325.11 651.637,1322.25 653.531,1318.48 655.426,1314.52 657.32,1310.55 659.214,1306.58 661.109,1302.61 663.003,1298.64 664.898,1294.67 666.792,1290.7 668.686,1286.73 670.581,1282.77 672.475,1278.05 674.37,1273.06 676.264,1268.07 678.158,1263.08 680.053,1258.08 681.947,1253.09 683.842,1248.1 685.736,1243.11 687.63,1238.12 689.525,1233.12 691.419,1227.55 693.314,1221.64 695.208,1215.73 697.102,1209.82 698.997,1203.91 700.891,1198.01 702.786,1192.1 704.68,1186.19 706.574,1180.28 708.469,1174.37 710.363,1168.03 712.258,1161.33 714.152,1154.64 716.047,1147.94 717.941,1141.24 719.835,1134.54 721.73,1127.85 723.624,1121.15 725.519,1114.45 727.413,1107.75 729.307,1100.76 731.202,1093.42 733.096,1086.08 734.991,1078.74 736.885,1071.4 738.779,1064.05 740.674,1056.71 742.568,1049.37 744.463,1042.03 746.357,1034.69 748.251,1027.17 750.146,1019.35 752.04,1011.52 753.935,1003.7 755.829,995.873 757.723,988.048 759.618,980.223 761.512,972.399 763.407,964.574 765.301,956.749 767.195,948.84 769.09,940.703 770.984,932.566 772.879,924.43 774.773,916.293 776.667,908.157 778.562,900.02 780.456,891.884 782.351,883.747 784.245,875.61 786.14,867.45 788.034,859.18 789.928,850.91 791.823,842.64 793.717,834.37 795.612,826.1 797.506,817.83 799.4,809.56 801.295,801.29 803.189,793.02 805.084,784.755 806.978,776.533 808.872,768.312 810.767,760.09 812.661,751.868 814.556,743.647 816.45,735.425 818.344,727.204 820.239,718.982 822.133,710.76 824.028,702.539 825.922,694.546 827.816,686.553 829.711,678.56 831.605,670.567 833.5,662.574 835.394,654.582 837.288,646.589 839.183,638.596 841.077,630.603 842.972,622.61 844.866,614.985 846.76,607.396 848.655,599.807 850.549,592.218 852.444,584.629 854.338,577.041 856.233,569.452 858.127,561.863 860.021,554.274 861.916,546.685 863.81,539.563 865.705,532.544 867.599,525.525 869.493,518.506 871.388,511.488 873.282,504.469 875.177,497.45 877.071,490.431 878.965,483.412 880.86,476.394 882.754,469.901 884.649,463.605 886.543,457.309 888.437,451.013 890.332,444.717 892.226,438.421 894.121,432.126 896.015,425.83 897.909,419.534 899.804,413.238 901.698,407.489 903.593,402.053 905.487,396.616 907.381,391.18 909.276,385.743 911.17,380.307 913.065,374.87 914.959,369.434 916.853,363.997 918.748,358.561 920.642,353.656 922.537,349.196 924.431,344.735 926.325,340.275 928.22,335.814 930.114,331.354 932.009,326.893 933.903,322.433 935.798,317.972 937.692,313.512 939.586,309.538 941.481,306.148 943.375,302.758 945.27,299.367 947.164,295.977 949.058,292.587 950.953,289.197 952.847,285.807 954.742,282.417 956.636,279.026 958.53,276.051 960.425,273.801 962.319,271.551 964.214,269.301 966.108,267.051 968.002,264.801 969.897,262.551 971.791,260.301 973.686,258.051 975.58,255.801 977.474,253.873 979.369,252.807 981.263,251.741 983.158,250.675 985.052,249.608 986.946,248.542 988.841,247.476 990.735,246.41 992.63,245.343 994.524,244.277 996.418,243.429 998.313,243.563 1000.21,243.697 1002.1,243.831 1004,243.965 1005.89,244.1 1007.78,244.234 1009.68,244.368 1011.57,244.502 1013.47,244.636 1015.36,244.878 1017.26,246.202 1019.15,247.525 1021.05,248.849 1022.94,250.172 1024.83,251.496 1026.73,252.819 1028.62,254.142 1030.52,255.466 1032.41,256.789 1034.31,258.113 1036.2,260.588 1038.1,263.062 1039.99,265.537 1041.88,268.011 1043.78,270.486 1045.67,272.961 1047.57,275.435 1049.46,277.91 1051.36,280.385 1053.25,282.859 1055.15,286.322 1057.04,289.883 1058.93,293.444 1060.83,297.005 1062.72,300.567 1064.62,304.128 1066.51,307.689 1068.41,311.25 1070.3,314.812 1072.19,318.373 1074.09,322.75 1075.98,327.308 1077.88,331.866 1079.77,336.425 1081.67,340.983 1083.56,345.541 1085.46,350.1 1087.35,354.658 1089.24,359.216 1091.14,363.775 1093.03,368.977 1094.93,374.42 1096.82,379.863 1098.72,385.306 1100.61,390.749 1102.51,396.192 1104.4,401.635 1106.29,407.078 1108.19,412.521 1110.08,417.964 1111.98,423.886 1113.87,430.081 1115.77,436.277 1117.66,442.472 1119.55,448.667 1121.45,454.862 1123.34,461.058 1125.24,467.253 1127.13,473.448 1129.03,479.643 1130.92,486.167 1132.82,492.965 1134.71,499.762 1136.6,506.56 1138.5,513.358 1140.39,520.155 1142.29,526.953 1144.18,533.75 1146.08,540.548 1147.97,547.346 1149.87,554.343 1151.76,561.579 1153.65,568.815 1155.55,576.051 1157.44,583.288 1159.34,590.524 1161.23,597.76 1163.13,604.997 1165.02,612.233 1166.91,619.469 1168.81,626.802 1170.7,634.303 1172.6,641.804 1174.49,649.306 1176.39,656.807 1178.28,664.308 1180.18,671.81 1182.07,679.311 1183.96,686.812 1185.86,694.313 1187.75,701.838 1189.65,709.424 1191.54,717.011 1193.44,724.598 1195.33,732.184 1197.23,739.771 1199.12,747.357 1201.01,754.944 1202.91,762.53 1204.8,770.117 1206.7,777.686 1208.59,785.176 1210.49,792.666 1212.38,800.156 1214.28,807.646 1216.17,815.136 1218.06,822.626 1219.96,830.116 1221.85,837.606 1223.75,845.096 1225.64,852.561 1227.54,859.775 1229.43,866.989 1231.32,874.203 1233.22,881.417 1235.11,888.631 1237.01,895.845 1238.9,903.06 1240.8,910.274 1242.69,917.488 1244.59,924.702 1246.48,931.467 1248.37,938.232 1250.27,944.996 1252.16,951.761 1254.06,958.526 1255.95,965.291 1257.85,972.056 1259.74,978.821 1261.64,985.586 1263.53,992.351 1265.42,998.559 1267.32,1004.71 1269.21,1010.86 1271.11,1017.02 1273,1023.17 1274.9,1029.32 1276.79,1035.48 1278.68,1041.63 1280.58,1047.78 1282.47,1053.93 1284.37,1059.47 1286.26,1064.86 1288.16,1070.25 1290.05,1075.64 1291.95,1081.03 1293.84,1086.42 1295.73,1091.82 1297.63,1097.21 1299.52,1102.6 1301.42,1107.99 1303.31,1112.74 1305.21,1117.24 1307.1,1121.73 1309,1126.23 1310.89,1130.73 1312.78,1135.23 1314.68,1139.73 1316.57,1144.23 1318.47,1148.73 1320.36,1153.23 1322.26,1157.09 1324.15,1160.59 1326.05,1164.09 1327.94,1167.58 1329.83,1171.08 1331.73,1174.57 1333.62,1178.07 1335.52,1181.57 1337.41,1185.06 1339.31,1188.56 1341.2,1191.46 1343.09,1193.87 1344.99,1196.27 1346.88,1198.68 1348.78,1201.08 1350.67,1203.49 1352.57,1205.89 1354.46,1208.29 1356.36,1210.7 1358.25,1213.1 1360.14,1214.99 1362.04,1216.24 1363.93,1217.49 1365.83,1218.74 1367.72,1219.99 1369.62,1221.24 1371.51,1222.49 1373.41,1223.74 1375.3,1224.99 1377.19,1226.24 1379.09,1227.06 1380.98,1227.12 1382.88,1227.18 1384.77,1227.24 1386.67,1227.3 1388.56,1227.36 1390.45,1227.42 1392.35,1227.48 1394.24,1227.54 1396.14,1227.6 1398.03,1227.33 1399.93,1226.19 1401.82,1225.05 1403.72,1223.91 1405.61,1222.77 1407.5,1221.63 1409.4,1220.49 1411.29,1219.35 1413.19,1218.21 1415.08,1217.07 1416.98,1215.71 1418.87,1213.39 1420.77,1211.07 1422.66,1208.74 1424.55,1206.42 1426.45,1204.1 1428.34,1201.78 1430.24,1199.45 1432.13,1197.13 1434.03,1194.81 1435.92,1192.38 1437.81,1188.93 1439.71,1185.47 1441.6,1182.01 1443.5,1178.55 1445.39,1175.09 1447.29,1171.63 1449.18,1168.17 1451.08,1164.71 1452.97,1161.26 1454.86,1157.8 1456.76,1153.27 1458.65,1148.75 1460.55,1144.23 1462.44,1139.7 1464.34,1135.18 1466.23,1130.65 1468.13,1126.13 1470.02,1121.61 1471.91,1117.08 1473.81,1112.56 1475.7,1107.15 1477.6,1101.66 1479.49,1096.17 1481.39,1090.67 1483.28,1085.18 1485.18,1079.69 1487.07,1074.19 1488.96,1068.7 1490.86,1063.21 1492.75,1057.71 1494.65,1051.52 1496.54,1045.18 1498.44,1038.83 1500.33,1032.49 1502.22,1026.14 1504.12,1019.8 1506.01,1013.45 1507.91,1007.11 1509.8,1000.76 1511.7,994.419 1513.59,987.555 1515.49,980.496 1517.38,973.438 1519.27,966.379 1521.17,959.32 1523.06,952.262 1524.96,945.203 1526.85,938.144 1528.75,931.085 1530.64,924.027 1532.54,916.612 1534.43,908.993 1536.32,901.374 1538.22,893.755 1540.11,886.136 1542.01,878.518 1543.9,870.899 1545.8,863.28 1547.69,855.661 1549.58,848.043 1551.48,840.209 1553.37,832.197 1555.27,824.185 1557.16,816.173 1559.06,808.16 1560.95,800.148 1562.85,792.136 1564.74,784.124 1566.63,776.112 1568.53,768.099 1570.42,759.988 1572.32,751.758 1574.21,743.528 1576.11,735.299 1578,727.069 1579.9,718.839 1581.79,710.609 1583.68,702.379 1585.58,694.149 1587.47,685.919 1589.37,677.676 1591.26,669.409 1593.16,661.142 1595.05,652.875 1596.94,644.608 1598.84,636.341 1600.73,628.074 1602.63,619.808 1604.52,611.541 1606.42,603.274 1608.31,595.046 1610.21,586.924 1612.1,578.801 1613.99,570.679 1615.89,562.557 1617.78,554.434 1619.68,546.312 1621.57,538.19 1623.47,530.067 1625.36,521.945 1627.26,513.881 1629.15,506.081 1631.04,498.282 1632.94,490.482 1634.83,482.682 1636.73,474.883 1638.62,467.083 1640.52,459.283 1642.41,451.484 1644.31,443.684 1646.2,435.929 1648.09,428.623 1649.99,421.317 1651.88,414.011 1653.78,406.705 1655.67,399.399 1657.57,392.093 1659.46,384.787 1661.35,377.481 1663.25,370.175 1665.14,362.869 1667.04,356.216 1668.93,349.563 1670.83,342.91 1672.72,336.257 1674.62,329.604 1676.51,322.951 1678.4,316.298 1680.3,309.645 1682.19,302.992 1684.09,296.339 1685.98,290.411 1687.88,284.555 1689.77,278.7 1691.67,272.845 1693.56,266.989 1695.45,261.134 1697.35,255.279 1699.24,249.423 1701.14,243.568 1703.03,237.713 1704.93,232.613 1706.82,227.682 1708.71,222.75 1710.61,217.819 1712.5,212.888 1714.4,207.956 1716.29,203.025 1718.19,198.093 1720.08,193.162 1721.98,188.23 1723.87,184.047 1725.76,180.145 1727.66,176.243 1729.55,172.34 1731.45,168.438 1733.34,164.535 1735.24,160.633 1737.13,156.731 1739.03,152.828 1740.92,148.926 1742.81,145.73 1744.71,142.938 1746.6,140.146 1748.5,137.354 1750.39,134.563 1752.29,131.771 1754.18,128.979 1756.08,126.187 1757.97,123.395 1759.86,120.603 1761.76,118.448 1763.65,116.823 1765.55,115.198 1767.44,113.572 1769.34,111.947 1771.23,110.322 1773.12,108.697 1775.02,107.071 1776.91,105.446 1778.81,103.821 1780.7,102.74 1782.6,102.31 1784.49,101.881 1786.39,101.452 1788.28,101.023 1790.17,100.593 1792.07,100.164 1793.96,99.735 1795.86,99.3058 1797.75,98.8766 1799.65,98.883 1801.54,99.6518 1803.44,100.421 1805.33,101.189 1807.22,101.958 1809.12,102.727 1811.01,103.495 1812.91,104.264 1814.8,105.033 1816.7,105.802 1818.59,106.89 1820.48,108.831 1822.38,110.772 1824.27,112.714 1826.17,114.655 1828.06,116.596 1829.96,118.537 1831.85,120.478 1833.75,122.42 1835.64,124.361 1837.53,126.506 1839.43,129.567 1841.32,132.628 1843.22,135.689 1845.11,138.751 1847.01,141.812 1848.9,144.873 1850.8,147.934 1852.69,150.996 1854.58,154.057 1856.48,157.213 1858.37,161.316 1860.27,165.42 1862.16,169.523 1864.06,173.626 1865.95,177.729 1867.84,181.833 1869.74,185.936 1871.63,190.039 1873.53,194.143 1875.42,198.246 1877.32,203.289 1879.21,208.333 1881.11,213.376 1883,218.42 1884.89,223.463 1886.79,228.507 1888.68,233.55 1890.58,238.594 1892.47,243.637 1894.37,248.681 1896.26,254.467 1898.16,260.327 1900.05,266.187 1901.94,272.047 1903.84,277.907 1905.73,283.767 1907.63,289.627 1909.52,295.488 1911.42,301.348 1913.31,307.208 1915.21,313.62 1917.1,320.155 1918.99,326.689 1920.89,333.224 1922.78,339.759 1924.68,346.294 1926.57,352.828 1928.47,359.363 1930.36,365.898 1932.25,372.432 1934.15,379.343 1936.04,386.395 1937.94,393.446 1939.83,400.498 1941.73,407.55 1943.62,414.601 1945.52,421.653 1947.41,428.704 1949.3,435.756 1951.2,442.808 1953.09,450.08 1954.99,457.48 1956.88,464.879 1958.78,472.278 1960.67,479.677 1962.57,487.076 1964.46,494.475 1966.35,501.874 1968.25,509.273 1970.14,516.672 1972.04,524.164 1973.93,531.733 1975.83,539.303 1977.72,546.872 1979.61,554.441 1981.51,562.01 1983.4,569.579 1985.3,577.148 1987.19,584.717 1989.09,592.287 1990.98,599.851 1992.88,607.409 1994.77,614.966 1996.66,622.524 1998.56,630.082 2000.45,637.64 2002.35,645.198 2004.24,652.756 2006.14,660.314 2008.03,667.872 2009.93,675.36 2011.82,682.725 2013.71,690.091 2015.61,697.456 2017.5,704.822 2019.4,712.187 2021.29,719.553 2023.19,726.918 2025.08,734.284 2026.98,741.649 2028.87,748.914 2030.76,755.911 2032.66,762.908 2034.55,769.904 2036.45,776.901 2038.34,783.897 2040.24,790.894 2042.13,797.89 2044.02,804.887 2045.92,811.884 2047.81,818.782 2049.71,825.242 2051.6,831.701 2053.5,838.161 2055.39,844.62 2057.29,851.079 2059.18,857.539 2061.07,863.998 2062.97,870.458 2064.86,876.917 2066.76,883.313 2068.65,889.08 2070.55,894.846 2072.44,900.612 2074.34,906.379 2076.23,912.145 2078.12,917.911 2080.02,923.678 2081.91,929.444 2083.81,935.21 2085.7,940.977 2087.6,945.91 2089.49,950.843 2091.38,955.777 2093.28,960.71 2095.17,965.643 2097.07,970.576 2098.96,975.51 2100.86,980.443 2102.75,985.376 2104.65,990.309 2106.54,994.375 2108.43,998.355 2110.33,1002.33 2112.22,1006.31 2114.12,1010.29 2116.01,1014.27 2117.91,1018.25 2119.8,1022.23 2121.7,1026.21 2123.59,1030.19 2125.48,1033.31 2127.38,1036.23 2129.27,1039.16 2131.17,1042.08 2133.06,1045.01 2134.96,1047.94 2136.85,1050.86 2138.74,1053.79 2140.64,1056.72 2142.53,1059.64 2144.43,1061.75 2146.32,1063.55 2148.22,1065.34 2150.11,1067.14 2152.01,1068.94 2153.9,1070.74 2155.79,1072.54 2157.69,1074.34 2159.58,1076.13 2161.48,1077.93 2163.37,1078.98 2165.27,1079.6 2167.16,1080.22 2169.06,1080.84 2170.95,1081.47 2172.84,1082.09 2174.74,1082.71 2176.63,1083.33 2178.53,1083.95 2180.42,1084.57 2182.32,1084.54 2184.21,1083.96 2186.11,1083.38 2188,1082.8 2189.89,1082.23 2191.79,1081.65 2193.68,1081.07 2195.58,1080.49 2197.47,1079.91 2199.37,1079.34 2201.26,1078.21 2203.15,1076.44 2205.05,1074.67 2206.94,1072.9 2208.84,1071.13 2210.73,1069.36 2212.63,1067.58 2214.52,1065.81 2216.42,1064.04 2218.31,1062.27 2220.2,1060.07 2222.1,1057.14 2223.99,1054.21 2225.89,1051.27 2227.78,1048.34 2229.68,1045.41 2231.57,1042.48 2233.47,1039.54 2235.36,1036.61 2237.25,1033.68 2239.15,1030.44 2241.04,1026.41 2242.94,1022.37 2244.83,1018.34 2246.73,1014.3 2248.62,1010.27 2250.51,1006.23 2252.41,1002.2 2254.3,998.164 2256.2,994.129 2258.09,989.909 2259.99,984.857 2261.88,979.805 2263.78,974.753 2265.67,969.701 2267.56,964.649 2269.46,959.597 2271.35,954.545 2273.25,949.493 2275.14,944.441 2277.04,939.306 2278.93,933.345 2280.83,927.383 2282.72,921.422 2284.61,915.46 2286.51,909.499 2288.4,903.537 2290.3,897.576 2292.19,891.615 2294.09,885.653 2295.98,879.692 "></polyline>
<polyline clip-path="url(#clip012)" style="stroke:#e26f46; stroke-linecap:round; stroke-linejoin:round; stroke-width:4; stroke-opacity:1; fill:none" stroke-dasharray="16, 10" points="403.47,879.692 405.364,887.271 407.258,894.849 409.153,902.423 411.047,909.991 412.942,917.553 414.836,925.105 416.73,932.647 418.625,940.177 420.519,947.692 422.414,955.191 424.308,962.672 426.202,970.134 428.097,977.575 429.991,984.992 431.886,992.385 433.78,999.751 435.675,1007.09 437.569,1014.4 439.463,1021.67 441.358,1028.91 443.252,1036.12 445.147,1043.29 447.041,1050.42 448.935,1057.52 450.83,1064.56 452.724,1071.57 454.619,1078.53 456.513,1085.44 458.407,1092.31 460.302,1099.13 462.196,1105.89 464.091,1112.6 465.985,1119.25 467.879,1125.85 469.774,1132.39 471.668,1138.87 473.563,1145.29 475.457,1151.65 477.351,1157.94 479.246,1164.17 481.14,1170.33 483.035,1176.42 484.929,1182.44 486.823,1188.39 488.718,1194.26 490.612,1200.06 492.507,1205.79 494.401,1211.44 496.295,1217.01 498.19,1222.5 500.084,1227.91 501.979,1233.23 503.873,1238.47 505.768,1243.63 507.662,1248.7 509.556,1253.69 511.451,1258.58 513.345,1263.39 515.24,1268.1 517.134,1272.73 519.028,1277.26 520.923,1281.69 522.817,1286.03 524.712,1290.27 526.606,1294.42 528.5,1298.47 530.395,1302.41 532.289,1306.26 534.184,1310 536.078,1313.65 537.972,1317.19 539.867,1320.62 541.761,1323.95 543.656,1327.18 545.55,1330.3 547.444,1333.31 549.339,1336.21 551.233,1339.01 553.128,1341.69 555.022,1344.26 556.916,1346.73 558.811,1349.08 560.705,1351.32 562.6,1353.44 564.494,1355.46 566.388,1357.36 568.283,1359.14 570.177,1360.81 572.072,1362.37 573.966,1363.81 575.861,1365.13 577.755,1366.34 579.649,1367.43 581.544,1368.4 583.438,1369.25 585.333,1369.99 587.227,1370.61 589.121,1371.11 591.016,1371.5 592.91,1371.76 594.805,1371.91 596.699,1371.93 598.593,1371.84 600.488,1371.63 602.382,1371.3 604.277,1370.85 606.171,1370.28 608.065,1369.6 609.96,1368.79 611.854,1367.87 613.749,1366.82 615.643,1365.66 617.537,1364.38 619.432,1362.99 621.326,1361.47 623.221,1359.84 625.115,1358.09 627.009,1356.22 628.904,1354.24 630.798,1352.14 632.693,1349.92 634.587,1347.59 636.481,1345.15 638.376,1342.59 640.27,1339.91 642.165,1337.13 644.059,1334.23 645.954,1331.21 647.848,1328.09 649.742,1324.85 651.637,1321.51 653.531,1318.05 655.426,1314.49 657.32,1310.81 659.214,1307.03 661.109,1303.14 663.003,1299.15 664.898,1295.05 666.792,1290.85 668.686,1286.54 670.581,1282.13 672.475,1277.62 674.37,1273.01 676.264,1268.3 678.158,1263.49 680.053,1258.58 681.947,1253.58 683.842,1248.48 685.736,1243.29 687.63,1238 689.525,1232.62 691.419,1227.14 693.314,1221.58 695.208,1215.93 697.102,1210.19 698.997,1204.37 700.891,1198.46 702.786,1192.46 704.68,1186.39 706.574,1180.23 708.469,1173.99 710.363,1167.67 712.258,1161.28 714.152,1154.81 716.047,1148.26 717.941,1141.64 719.835,1134.95 721.73,1128.19 723.624,1121.36 725.519,1114.46 727.413,1107.5 729.307,1100.47 731.202,1093.38 733.096,1086.22 734.991,1079.01 736.885,1071.74 738.779,1064.41 740.674,1057.02 742.568,1049.58 744.463,1042.09 746.357,1034.55 748.251,1026.96 750.146,1019.33 752.04,1011.64 753.935,1003.92 755.829,996.149 757.723,988.339 759.618,980.491 761.512,972.605 763.407,964.684 765.301,956.728 767.195,948.741 769.09,940.723 770.984,932.676 772.879,924.603 774.773,916.504 776.667,908.381 778.562,900.237 780.456,892.073 782.351,883.891 784.245,875.693 786.14,867.479 788.034,859.253 789.928,851.016 791.823,842.769 793.717,834.515 795.612,826.255 797.506,817.991 799.4,809.725 801.295,801.459 803.189,793.194 805.084,784.932 806.978,776.674 808.872,768.424 810.767,760.182 812.661,751.951 814.556,743.731 816.45,735.526 818.344,727.336 820.239,719.163 822.133,711.01 824.028,702.877 825.922,694.768 827.816,686.682 829.711,678.623 831.605,670.592 833.5,662.59 835.394,654.62 837.288,646.682 839.183,638.78 841.077,630.914 842.972,623.086 844.866,615.298 846.76,607.552 848.655,599.849 850.549,592.191 852.444,584.579 854.338,577.016 856.233,569.502 858.127,562.04 860.021,554.63 861.916,547.276 863.81,539.978 865.705,532.737 867.599,525.556 869.493,518.435 871.388,511.377 873.282,504.383 875.177,497.454 877.071,490.593 878.965,483.799 880.86,477.075 882.754,470.423 884.649,463.843 886.543,457.338 888.437,450.908 890.332,444.554 892.226,438.279 894.121,432.084 896.015,425.969 897.909,419.936 899.804,413.987 901.698,408.123 903.593,402.344 905.487,396.653 907.381,391.05 909.276,385.537 911.17,380.114 913.065,374.783 914.959,369.545 916.853,364.402 918.748,359.353 920.642,354.401 922.537,349.546 924.431,344.79 926.325,340.132 928.22,335.575 930.114,331.119 932.009,326.766 933.903,322.515 935.798,318.368 937.692,314.326 939.586,310.39 941.481,306.56 943.375,302.837 945.27,299.223 947.164,295.717 949.058,292.32 950.953,289.034 952.847,285.858 954.742,282.794 956.636,279.842 958.53,277.002 960.425,274.276 962.319,271.663 964.214,269.164 966.108,266.781 968.002,264.512 969.897,262.359 971.791,260.322 973.686,258.402 975.58,256.598 977.474,254.912 979.369,253.342 981.263,251.891 983.158,250.557 985.052,249.342 986.946,248.244 988.841,247.266 990.735,246.406 992.63,245.664 994.524,245.042 996.418,244.538 998.313,244.154 1000.21,243.888 1002.1,243.742 1004,243.714 1005.89,243.805 1007.78,244.015 1009.68,244.343 1011.57,244.79 1013.47,245.355 1015.36,246.039 1017.26,246.84 1019.15,247.758 1021.05,248.794 1022.94,249.947 1024.83,251.217 1026.73,252.603 1028.62,254.105 1030.52,255.722 1032.41,257.454 1034.31,259.301 1036.2,261.262 1038.1,263.337 1039.99,265.524 1041.88,267.824 1043.78,270.236 1045.67,272.759 1047.57,275.393 1049.46,278.136 1051.36,280.989 1053.25,283.95 1055.15,287.019 1057.04,290.195 1058.93,293.477 1060.83,296.865 1062.72,300.357 1064.62,303.953 1066.51,307.651 1068.41,311.451 1070.3,315.353 1072.19,319.354 1074.09,323.454 1075.98,327.652 1077.88,331.948 1079.77,336.339 1081.67,340.825 1083.56,345.404 1085.46,350.077 1087.35,354.841 1089.24,359.695 1091.14,364.638 1093.03,369.67 1094.93,374.788 1096.82,379.992 1098.72,385.28 1100.61,390.651 1102.51,396.104 1104.4,401.637 1106.29,407.25 1108.19,412.94 1110.08,418.707 1111.98,424.549 1113.87,430.464 1115.77,436.452 1117.66,442.51 1119.55,448.638 1121.45,454.834 1123.34,461.096 1125.24,467.423 1127.13,473.813 1129.03,480.266 1130.92,486.779 1132.82,493.35 1134.71,499.979 1136.6,506.664 1138.5,513.403 1140.39,520.194 1142.29,527.037 1144.18,533.928 1146.08,540.867 1147.97,547.853 1149.87,554.882 1151.76,561.955 1153.65,569.068 1155.55,576.221 1157.44,583.411 1159.34,590.638 1161.23,597.899 1163.13,605.192 1165.02,612.516 1166.91,619.869 1168.81,627.25 1170.7,634.656 1172.6,642.086 1174.49,649.538 1176.39,657.011 1178.28,664.502 1180.18,672.01 1182.07,679.533 1183.96,687.069 1185.86,694.617 1187.75,702.175 1189.65,709.74 1191.54,717.312 1193.44,724.888 1195.33,732.467 1197.23,740.047 1199.12,747.625 1201.01,755.201 1202.91,762.773 1204.8,770.338 1206.7,777.895 1208.59,785.442 1210.49,792.977 1212.38,800.499 1214.28,808.006 1216.17,815.496 1218.06,822.967 1219.96,830.417 1221.85,837.845 1223.75,845.25 1225.64,852.628 1227.54,859.979 1229.43,867.301 1231.32,874.591 1233.22,881.849 1235.11,889.073 1237.01,896.261 1238.9,903.41 1240.8,910.52 1242.69,917.589 1244.59,924.616 1246.48,931.597 1248.37,938.533 1250.27,945.421 1252.16,952.259 1254.06,959.046 1255.95,965.781 1257.85,972.461 1259.74,979.085 1261.64,985.652 1263.53,992.161 1265.42,998.608 1267.32,1004.99 1269.21,1011.32 1271.11,1017.57 1273,1023.76 1274.9,1029.89 1276.79,1035.94 1278.68,1041.92 1280.58,1047.83 1282.47,1053.67 1284.37,1059.43 1286.26,1065.11 1288.16,1070.72 1290.05,1076.24 1291.95,1081.69 1293.84,1087.05 1295.73,1092.34 1297.63,1097.53 1299.52,1102.64 1301.42,1107.67 1303.31,1112.61 1305.21,1117.45 1307.1,1122.21 1309,1126.87 1310.89,1131.45 1312.78,1135.92 1314.68,1140.31 1316.57,1144.6 1318.47,1148.79 1320.36,1152.88 1322.26,1156.87 1324.15,1160.77 1326.05,1164.56 1327.94,1168.25 1329.83,1171.84 1331.73,1175.32 1333.62,1178.7 1335.52,1181.97 1337.41,1185.14 1339.31,1188.2 1341.2,1191.15 1343.09,1194 1344.99,1196.73 1346.88,1199.36 1348.78,1201.87 1350.67,1204.27 1352.57,1206.56 1354.46,1208.74 1356.36,1210.81 1358.25,1212.76 1360.14,1214.6 1362.04,1216.32 1363.93,1217.93 1365.83,1219.42 1367.72,1220.8 1369.62,1222.06 1371.51,1223.2 1373.41,1224.23 1375.3,1225.14 1377.19,1225.93 1379.09,1226.6 1380.98,1227.16 1382.88,1227.6 1384.77,1227.92 1386.67,1228.12 1388.56,1228.2 1390.45,1228.16 1392.35,1228 1394.24,1227.73 1396.14,1227.34 1398.03,1226.82 1399.93,1226.19 1401.82,1225.44 1403.72,1224.57 1405.61,1223.58 1407.5,1222.48 1409.4,1221.25 1411.29,1219.91 1413.19,1218.45 1415.08,1216.87 1416.98,1215.17 1418.87,1213.36 1420.77,1211.43 1422.66,1209.38 1424.55,1207.22 1426.45,1204.94 1428.34,1202.55 1430.24,1200.04 1432.13,1197.42 1434.03,1194.69 1435.92,1191.84 1437.81,1188.88 1439.71,1185.8 1441.6,1182.62 1443.5,1179.32 1445.39,1175.92 1447.29,1172.4 1449.18,1168.78 1451.08,1165.05 1452.97,1161.21 1454.86,1157.27 1456.76,1153.22 1458.65,1149.06 1460.55,1144.8 1462.44,1140.44 1464.34,1135.98 1466.23,1131.41 1468.13,1126.74 1470.02,1121.98 1471.91,1117.12 1473.81,1112.16 1475.7,1107.1 1477.6,1101.95 1479.49,1096.71 1481.39,1091.37 1483.28,1085.94 1485.18,1080.42 1487.07,1074.81 1488.96,1069.11 1490.86,1063.32 1492.75,1057.45 1494.65,1051.5 1496.54,1045.46 1498.44,1039.34 1500.33,1033.13 1502.22,1026.85 1504.12,1020.49 1506.01,1014.06 1507.91,1007.54 1509.8,1000.96 1511.7,994.301 1513.59,987.572 1515.49,980.773 1517.38,973.906 1519.27,966.972 1521.17,959.972 1523.06,952.909 1524.96,945.784 1526.85,938.598 1528.75,931.353 1530.64,924.05 1532.54,916.691 1534.43,909.277 1536.32,901.811 1538.22,894.293 1540.11,886.726 1542.01,879.11 1543.9,871.449 1545.8,863.742 1547.69,855.992 1549.58,848.201 1551.48,840.37 1553.37,832.501 1555.27,824.596 1557.16,816.656 1559.06,808.683 1560.95,800.679 1562.85,792.646 1564.74,784.584 1566.63,776.497 1568.53,768.385 1570.42,760.251 1572.32,752.096 1574.21,743.922 1576.11,735.73 1578,727.524 1579.9,719.303 1581.79,711.071 1583.68,702.828 1585.58,694.577 1587.47,686.32 1589.37,678.058 1591.26,669.792 1593.16,661.526 1595.05,653.26 1596.94,644.996 1598.84,636.736 1600.73,628.483 1602.63,620.237 1604.52,612 1606.42,603.775 1608.31,595.563 1610.21,587.366 1612.1,579.185 1613.99,571.022 1615.89,562.88 1617.78,554.76 1619.68,546.663 1621.57,538.591 1623.47,530.547 1625.36,522.531 1627.26,514.546 1629.15,506.594 1631.04,498.675 1632.94,490.792 1634.83,482.946 1636.73,475.14 1638.62,467.374 1640.52,459.651 1642.41,451.972 1644.31,444.339 1646.2,436.753 1648.09,429.216 1649.99,421.73 1651.88,414.296 1653.78,406.916 1655.67,399.592 1657.57,392.325 1659.46,385.116 1661.35,377.967 1663.25,370.88 1665.14,363.857 1667.04,356.898 1668.93,350.005 1670.83,343.18 1672.72,336.424 1674.62,329.738 1676.51,323.125 1678.4,316.585 1680.3,310.12 1682.19,303.731 1684.09,297.42 1685.98,291.188 1687.88,285.036 1689.77,278.965 1691.67,272.977 1693.56,267.074 1695.45,261.256 1697.35,255.524 1699.24,249.88 1701.14,244.326 1703.03,238.861 1704.93,233.488 1706.82,228.207 1708.71,223.02 1710.61,217.928 1712.5,212.931 1714.4,208.031 1716.29,203.229 1718.19,198.526 1720.08,193.923 1721.98,189.42 1723.87,185.019 1725.76,180.721 1727.66,176.526 1729.55,172.436 1731.45,168.451 1733.34,164.572 1735.24,160.8 1737.13,157.136 1739.03,153.58 1740.92,150.133 1742.81,146.795 1744.71,143.569 1746.6,140.453 1748.5,137.449 1750.39,134.558 1752.29,131.779 1754.18,129.114 1756.08,126.563 1757.97,124.127 1759.86,121.805 1761.76,119.599 1763.65,117.509 1765.55,115.534 1767.44,113.677 1769.34,111.936 1771.23,110.313 1773.12,108.807 1775.02,107.419 1776.91,106.149 1778.81,104.998 1780.7,103.965 1782.6,103.05 1784.49,102.254 1786.39,101.577 1788.28,101.019 1790.17,100.579 1792.07,100.259 1793.96,100.058 1795.86,99.9752 1797.75,100.012 1799.65,100.167 1801.54,100.441 1803.44,100.833 1805.33,101.344 1807.22,101.973 1809.12,102.72 1811.01,103.584 1812.91,104.566 1814.8,105.666 1816.7,106.882 1818.59,108.214 1820.48,109.662 1822.38,111.227 1824.27,112.906 1826.17,114.7 1828.06,116.609 1829.96,118.631 1831.85,120.767 1833.75,123.015 1835.64,125.376 1837.53,127.848 1839.43,130.43 1841.32,133.123 1843.22,135.926 1845.11,138.837 1847.01,141.857 1848.9,144.984 1850.8,148.217 1852.69,151.556 1854.58,155 1856.48,158.548 1858.37,162.2 1860.27,165.953 1862.16,169.808 1864.06,173.764 1865.95,177.818 1867.84,181.972 1869.74,186.222 1871.63,190.57 1873.53,195.012 1875.42,199.549 1877.32,204.179 1879.21,208.9 1881.11,213.713 1883,218.616 1884.89,223.607 1886.79,228.685 1888.68,233.85 1890.58,239.099 1892.47,244.433 1894.37,249.848 1896.26,255.345 1898.16,260.921 1900.05,266.576 1901.94,272.307 1903.84,278.115 1905.73,283.996 1907.63,289.951 1909.52,295.977 1911.42,302.073 1913.31,308.238 1915.21,314.469 1917.1,320.767 1918.99,327.128 1920.89,333.553 1922.78,340.038 1924.68,346.583 1926.57,353.185 1928.47,359.845 1930.36,366.559 1932.25,373.326 1934.15,380.145 1936.04,387.014 1937.94,393.932 1939.83,400.896 1941.73,407.906 1943.62,414.958 1945.52,422.053 1947.41,429.188 1949.3,436.361 1951.2,443.572 1953.09,450.817 1954.99,458.095 1956.88,465.405 1958.78,472.745 1960.67,480.114 1962.57,487.508 1964.46,494.927 1966.35,502.37 1968.25,509.833 1970.14,517.316 1972.04,524.816 1973.93,532.333 1975.83,539.863 1977.72,547.406 1979.61,554.959 1981.51,562.522 1983.4,570.091 1985.3,577.665 1987.19,585.243 1989.09,592.822 1990.98,600.402 1992.88,607.979 1994.77,615.553 1996.66,623.121 1998.56,630.682 2000.45,638.234 2002.35,645.775 2004.24,653.303 2006.14,660.817 2008.03,668.315 2009.93,675.795 2011.82,683.255 2013.71,690.693 2015.61,698.109 2017.5,705.499 2019.4,712.863 2021.29,720.199 2023.19,727.504 2025.08,734.777 2026.98,742.017 2028.87,749.221 2030.76,756.388 2032.66,763.517 2034.55,770.605 2036.45,777.651 2038.34,784.654 2040.24,791.611 2042.13,798.521 2044.02,805.382 2045.92,812.193 2047.81,818.952 2049.71,825.657 2051.6,832.308 2053.5,838.901 2055.39,845.437 2057.29,851.912 2059.18,858.327 2061.07,864.678 2062.97,870.965 2064.86,877.186 2066.76,883.34 2068.65,889.425 2070.55,895.44 2072.44,901.383 2074.34,907.253 2076.23,913.048 2078.12,918.768 2080.02,924.41 2081.91,929.973 2083.81,935.457 2085.7,940.86 2087.6,946.179 2089.49,951.416 2091.38,956.566 2093.28,961.631 2095.17,966.608 2097.07,971.497 2098.96,976.295 2100.86,981.002 2102.75,985.617 2104.65,990.139 2106.54,994.566 2108.43,998.898 2110.33,1003.13 2112.22,1007.27 2114.12,1011.31 2116.01,1015.25 2117.91,1019.09 2119.8,1022.83 2121.7,1026.46 2123.59,1029.99 2125.48,1033.42 2127.38,1036.74 2129.27,1039.96 2131.17,1043.07 2133.06,1046.07 2134.96,1048.96 2136.85,1051.75 2138.74,1054.43 2140.64,1056.99 2142.53,1059.44 2144.43,1061.79 2146.32,1064.02 2148.22,1066.14 2150.11,1068.14 2152.01,1070.03 2153.9,1071.81 2155.79,1073.47 2157.69,1075.01 2159.58,1076.44 2161.48,1077.76 2163.37,1078.95 2165.27,1080.03 2167.16,1081 2169.06,1081.84 2170.95,1082.57 2172.84,1083.18 2174.74,1083.67 2176.63,1084.05 2178.53,1084.3 2180.42,1084.44 2182.32,1084.46 2184.21,1084.35 2186.11,1084.13 2188,1083.8 2189.89,1083.34 2191.79,1082.76 2193.68,1082.06 2195.58,1081.25 2197.47,1080.32 2199.37,1079.26 2201.26,1078.09 2203.15,1076.8 2205.05,1075.4 2206.94,1073.87 2208.84,1072.23 2210.73,1070.47 2212.63,1068.6 2214.52,1066.6 2216.42,1064.49 2218.31,1062.27 2220.2,1059.93 2222.1,1057.47 2223.99,1054.9 2225.89,1052.22 2227.78,1049.43 2229.68,1046.52 2231.57,1043.49 2233.47,1040.36 2235.36,1037.12 2237.25,1033.76 2239.15,1030.3 2241.04,1026.72 2242.94,1023.04 2244.83,1019.25 2246.73,1015.36 2248.62,1011.36 2250.51,1007.25 2252.41,1003.04 2254.3,998.722 2256.2,994.305 2258.09,989.786 2259.99,985.167 2261.88,980.448 2263.78,975.63 2265.67,970.715 2267.56,965.703 2269.46,960.596 2271.35,955.393 2273.25,950.098 2275.14,944.71 2277.04,939.231 2278.93,933.662 2280.83,928.004 2282.72,922.259 2284.61,916.427 2286.51,910.51 2288.4,904.509 2290.3,898.425 2292.19,892.26 2294.09,886.015 2295.98,879.692 "></polyline>
<polyline clip-path="url(#clip012)" style="stroke:#3da44d; stroke-linecap:round; stroke-linejoin:round; stroke-width:8; stroke-opacity:1; fill:none" stroke-dasharray="32, 16, 4, 16" points="403.47,879.352 405.364,887.278 407.258,894.525 409.153,902.564 411.047,908.678 412.942,917.057 414.836,923.738 416.73,931.097 418.625,938.684 420.519,945.364 422.414,952.951 424.308,960.537 426.202,966.764 428.097,974.464 429.991,980.805 431.886,987.938 433.78,995.185 435.675,1002.09 437.569,1009 439.463,1016.02 441.358,1022.36 443.252,1030.06 445.147,1035.95 447.041,1043.42 448.935,1049.99 450.83,1057.23 452.724,1062.67 454.619,1069.8 456.513,1076.71 458.407,1082.94 460.302,1089.62 462.196,1096.3 464.091,1102.87 465.985,1108.64 467.879,1115.77 469.774,1122 471.668,1127.66 473.563,1134.57 475.457,1140.8 477.351,1146.91 479.246,1153.03 481.14,1159.14 483.035,1165.37 484.929,1171.03 486.823,1177.48 488.718,1182.8 490.612,1188.81 492.507,1194.69 494.401,1199.68 496.295,1206.24 498.19,1212.36 500.084,1216.89 501.979,1223.11 503.873,1228.55 505.768,1233.3 507.662,1238.74 509.556,1243.38 511.451,1249.04 513.345,1254.48 515.24,1259.23 517.134,1263.99 519.028,1268.63 520.923,1273.61 522.817,1278.14 524.712,1283.46 526.606,1287.88 528.5,1292.07 530.395,1296.26 532.289,1300.56 534.184,1305.2 536.078,1308.15 537.972,1312.79 539.867,1316.53 541.761,1320.15 543.656,1324.11 545.55,1328.42 547.444,1331.7 549.339,1335.32 551.233,1338.04 553.128,1341.55 555.022,1343.93 556.916,1346.87 558.811,1349.93 560.705,1353.1 562.6,1355.82 564.494,1358.42 566.388,1360.35 568.283,1362.95 570.177,1365.1 572.072,1367.37 573.966,1368.5 575.861,1370.88 577.755,1373.03 579.649,1374.27 581.544,1375.75 583.438,1377.67 585.333,1378.58 587.227,1379.48 589.121,1381.07 591.016,1380.5 592.91,1381.75 594.805,1382.77 596.699,1383.33 598.593,1383.45 600.488,1384.13 602.382,1383.79 604.277,1384.24 606.171,1383.9 608.065,1383.33 609.96,1383.45 611.854,1383.33 613.749,1381.86 615.643,1381.86 617.537,1380.16 619.432,1379.14 621.326,1378.8 623.221,1376.99 625.115,1375.52 627.009,1374.27 628.904,1372.46 630.798,1370.54 632.693,1369.18 634.587,1367.14 636.481,1364.76 638.376,1362.05 640.27,1359.44 642.165,1357.4 644.059,1354.69 645.954,1351.74 647.848,1348.68 649.742,1346.08 651.637,1342.91 653.531,1339.06 655.426,1336.23 657.32,1332.49 659.214,1328.64 661.109,1324.45 663.003,1320.38 664.898,1316.87 666.792,1312.56 668.686,1308.71 670.581,1304.3 672.475,1299.43 674.37,1294.79 676.264,1290.26 678.158,1285.39 680.053,1280.29 681.947,1275.2 683.842,1269.76 685.736,1264.9 687.63,1259.23 689.525,1253.69 691.419,1248.14 693.314,1242.36 695.208,1236.59 697.102,1230.7 698.997,1224.93 700.891,1218.47 702.786,1212.02 704.68,1206.24 706.574,1199.79 708.469,1193.22 710.363,1186.09 712.258,1179.63 714.152,1173.18 716.047,1165.93 717.941,1159.48 719.835,1152.46 721.73,1145.55 723.624,1137.85 725.519,1130.95 727.413,1123.93 729.307,1116 731.202,1108.3 733.096,1101.17 734.991,1093.69 736.885,1085.88 738.779,1078.63 740.674,1070.26 742.568,1062.22 744.463,1054.97 746.357,1046.59 748.251,1038.21 750.146,1031.08 752.04,1022.13 753.935,1013.98 755.829,1005.6 757.723,997.449 759.618,988.731 761.512,981.258 763.407,972.313 765.301,963.707 767.195,955.102 769.09,946.949 770.984,938.457 772.879,929.965 774.773,921.133 776.667,912.641 778.562,904.262 780.456,894.978 782.351,886.485 784.245,877.654 786.14,869.275 788.034,860.33 789.928,851.724 791.823,843.119 793.717,833.268 795.612,825.002 797.506,816.057 799.4,807.452 801.295,798.96 803.189,789.448 805.084,780.843 806.978,771.785 808.872,764.198 810.767,755.14 812.661,746.422 814.556,737.25 816.45,728.418 818.344,719.926 820.239,710.981 822.133,702.602 824.028,694.11 825.922,684.938 827.816,676.56 829.711,668.181 831.605,659.688 833.5,651.649 835.394,642.591 837.288,634.552 839.183,626.173 841.077,617.794 842.972,609.189 844.866,601.036 846.76,593.11 848.655,584.958 850.549,577.258 852.444,568.539 854.338,561.406 856.233,553.254 858.127,544.761 860.021,537.175 861.916,529.702 863.81,521.889 865.705,514.643 867.599,507.509 869.493,499.923 871.388,492.563 873.282,484.977 875.177,477.843 877.071,470.37 878.965,463.69 880.86,456.556 882.754,449.536 884.649,442.629 886.543,436.062 888.437,429.042 890.332,422.475 892.226,416.813 894.121,409.567 896.015,403.452 897.909,397.791 899.804,391.676 901.698,384.996 903.593,379.221 905.487,373.22 907.381,367.559 909.276,362.69 911.17,356.576 913.065,351.027 914.959,346.272 916.853,340.497 918.748,335.175 920.642,330.42 922.537,324.872 924.431,320.795 926.325,315.7 928.22,311.284 930.114,307.208 932.009,302.566 933.903,298.036 935.798,294.073 937.692,289.884 939.586,286.147 941.481,282.298 943.375,279.014 945.27,275.277 947.164,271.654 949.058,268.937 950.953,264.86 952.847,261.69 954.742,259.878 956.636,256.029 958.53,253.877 960.425,250.707 962.319,248.329 964.214,245.838 966.108,243.46 968.002,241.988 969.897,239.95 971.791,237.912 973.686,236.1 975.58,234.289 977.474,233.27 979.369,231.571 981.263,230.099 983.158,229.193 985.052,228.174 986.946,227.835 988.841,226.476 990.735,226.136 992.63,226.136 994.524,225.23 996.418,225.004 998.313,225.23 1000.21,225.004 1002.1,225.004 1004,225.57 1005.89,225.457 1007.78,226.363 1009.68,226.816 1011.57,227.608 1013.47,228.627 1015.36,229.646 1017.26,230.892 1019.15,231.684 1021.05,232.93 1022.94,234.515 1024.83,236.1 1026.73,238.138 1028.62,240.177 1030.52,241.649 1032.41,244.026 1034.31,246.064 1036.2,248.782 1038.1,251.273 1039.99,253.311 1041.88,256.029 1043.78,258.746 1045.67,260.897 1047.57,264.294 1049.46,267.804 1051.36,270.748 1053.25,274.598 1055.15,278.108 1057.04,281.845 1058.93,284.789 1060.83,289.205 1062.72,292.262 1064.62,296.678 1066.51,300.754 1068.41,304.83 1070.3,309.02 1072.19,314.228 1074.09,318.191 1075.98,322.833 1077.88,327.249 1079.77,331.778 1081.67,336.987 1083.56,342.535 1085.46,347.291 1087.35,352.273 1089.24,356.915 1091.14,362.69 1093.03,368.351 1094.93,373.333 1096.82,379.335 1098.72,384.769 1100.61,390.204 1102.51,396.658 1104.4,402.093 1106.29,408.547 1108.19,414.435 1110.08,419.87 1111.98,426.664 1113.87,432.892 1115.77,439.006 1117.66,445.8 1119.55,451.688 1121.45,458.255 1123.34,465.049 1125.24,471.503 1127.13,478.183 1129.03,485.769 1130.92,491.657 1132.82,498.564 1134.71,505.698 1136.6,512.944 1138.5,519.964 1140.39,526.871 1142.29,534.005 1144.18,541.365 1146.08,548.385 1147.97,555.631 1149.87,563.218 1151.76,570.238 1153.65,577.824 1155.55,584.844 1157.44,592.544 1159.34,600.583 1161.23,607.49 1163.13,615.529 1165.02,622.889 1166.91,630.476 1168.81,637.496 1170.7,645.535 1172.6,653.121 1174.49,660.708 1176.39,669.2 1178.28,676.22 1180.18,683.919 1182.07,691.506 1183.96,699.885 1185.86,706.678 1187.75,714.604 1189.65,722.417 1191.54,730.909 1193.44,738.269 1195.33,745.629 1197.23,753.555 1199.12,761.255 1201.01,768.728 1202.91,776.201 1204.8,784.24 1206.7,791.826 1208.59,799.073 1210.49,806.772 1212.38,814.812 1214.28,822.624 1216.17,829.871 1218.06,838.476 1219.96,845.383 1221.85,852.97 1223.75,860.443 1225.64,867.576 1227.54,874.71 1229.43,882.409 1231.32,889.656 1233.22,897.582 1235.11,904.715 1237.01,911.282 1238.9,918.529 1240.8,926.115 1242.69,932.683 1244.59,940.722 1246.48,946.949 1248.37,954.196 1250.27,961.443 1252.16,968.01 1254.06,974.577 1255.95,981.597 1257.85,988.391 1259.74,994.732 1261.64,1001.41 1263.53,1007.98 1265.42,1013.98 1267.32,1020.55 1269.21,1027 1271.11,1033.12 1273,1039.46 1274.9,1045.12 1276.79,1051.57 1278.68,1057.91 1280.58,1063.12 1282.47,1068.9 1284.37,1074.67 1286.26,1080.56 1288.16,1085.88 1290.05,1091.2 1291.95,1096.52 1293.84,1101.62 1295.73,1107.51 1297.63,1112.15 1299.52,1117.58 1301.42,1122.57 1303.31,1127.32 1305.21,1132.19 1307.1,1136.95 1309,1141.48 1310.89,1145.33 1312.78,1150.08 1314.68,1154.5 1316.57,1158.91 1318.47,1162.76 1320.36,1166.73 1322.26,1170.69 1324.15,1174.43 1326.05,1178.5 1327.94,1181.67 1329.83,1185.07 1331.73,1188.81 1333.62,1191.75 1335.52,1195.03 1337.41,1198.09 1339.31,1200.69 1341.2,1204.54 1343.09,1206.58 1344.99,1209.53 1346.88,1211.45 1348.78,1213.72 1350.67,1216.77 1352.57,1218.7 1354.46,1220.62 1356.36,1222.77 1358.25,1224.7 1360.14,1226.06 1362.04,1227.3 1363.93,1229.34 1365.83,1230.36 1367.72,1231.61 1369.62,1233.19 1371.51,1234.21 1373.41,1235.12 1375.3,1235.12 1377.19,1236.36 1379.09,1236.93 1380.98,1237.27 1382.88,1237.61 1384.77,1237.04 1386.67,1237.49 1388.56,1237.72 1390.45,1237.72 1392.35,1237.38 1394.24,1237.04 1396.14,1236.14 1398.03,1235.8 1399.93,1235.23 1401.82,1234.44 1403.72,1233.42 1405.61,1232.17 1407.5,1230.93 1409.4,1229.45 1411.29,1228.1 1413.19,1225.94 1415.08,1224.59 1416.98,1222.77 1418.87,1220.74 1420.77,1219.04 1422.66,1216.66 1424.55,1214.4 1426.45,1211.9 1428.34,1209.41 1430.24,1207.38 1432.13,1204.2 1434.03,1201.83 1435.92,1198.32 1437.81,1194.92 1439.71,1192.2 1441.6,1188.35 1443.5,1184.84 1445.39,1181.56 1447.29,1177.71 1449.18,1174.77 1451.08,1170.24 1452.97,1166.61 1454.86,1163.1 1456.76,1158.91 1458.65,1154.38 1460.55,1149.52 1462.44,1145.55 1464.34,1141.02 1466.23,1136.04 1468.13,1131.51 1470.02,1126.42 1471.91,1121.43 1473.81,1115.89 1475.7,1110.68 1477.6,1105.7 1479.49,1100.15 1481.39,1094.83 1483.28,1088.71 1485.18,1083.62 1487.07,1077.84 1488.96,1072.18 1490.86,1065.61 1492.75,1060.74 1494.65,1054.4 1496.54,1047.95 1498.44,1042.29 1500.33,1035.27 1502.22,1028.81 1504.12,1022.25 1506.01,1016.36 1507.91,1009.45 1509.8,1002.54 1511.7,995.864 1513.59,988.844 1515.49,982.503 1517.38,974.917 1519.27,967.783 1521.17,960.763 1523.06,953.403 1524.96,946.61 1526.85,939.023 1528.75,931.664 1530.64,924.304 1532.54,916.944 1534.43,909.697 1536.32,902.224 1538.22,893.958 1540.11,886.712 1542.01,878.899 1543.9,870.973 1545.8,862.821 1547.69,855.121 1549.58,847.195 1551.48,838.929 1553.37,831.909 1555.27,823.757 1557.16,815.378 1559.06,806.772 1560.95,798.846 1562.85,790.354 1564.74,782.428 1566.63,774.276 1568.53,766.237 1570.42,758.084 1572.32,749.818 1574.21,741.326 1576.11,733.061 1578,724.682 1579.9,716.303 1581.79,707.584 1583.68,699.998 1585.58,690.94 1587.47,683.014 1589.37,673.616 1591.26,666.143 1593.16,657.537 1595.05,648.819 1596.94,640.1 1598.84,632.174 1600.73,623.569 1602.63,615.643 1604.52,606.471 1606.42,598.658 1608.31,590.166 1610.21,581.9 1612.1,573.408 1613.99,564.69 1615.89,556.99 1617.78,548.385 1619.68,540.685 1621.57,531.967 1623.47,523.701 1625.36,516.341 1627.26,507.509 1629.15,499.47 1631.04,491.544 1632.94,483.392 1634.83,474.56 1636.73,467.087 1638.62,459.387 1640.52,451.801 1642.41,443.535 1644.31,436.062 1646.2,428.023 1648.09,420.436 1649.99,412.85 1651.88,405.717 1653.78,397.791 1655.67,390.318 1657.57,382.958 1659.46,375.258 1661.35,368.691 1663.25,361.218 1665.14,353.971 1667.04,346.385 1668.93,339.478 1670.83,332.684 1672.72,325.777 1674.62,319.437 1676.51,312.077 1678.4,305.623 1680.3,299.508 1682.19,292.148 1684.09,285.921 1685.98,279.58 1687.88,273.353 1689.77,267.012 1691.67,261.124 1693.56,254.67 1695.45,248.782 1697.35,242.894 1699.24,237.572 1701.14,232.024 1703.03,226.589 1704.93,220.362 1706.82,214.927 1708.71,209.492 1710.61,204.736 1712.5,199.98 1714.4,194.885 1716.29,189.903 1718.19,184.921 1720.08,179.826 1721.98,176.089 1723.87,172.126 1725.76,166.465 1727.66,162.389 1729.55,158.539 1731.45,154.01 1733.34,150.5 1735.24,146.763 1737.13,142.687 1739.03,139.516 1740.92,135.78 1742.81,132.383 1744.71,129.439 1746.6,125.589 1748.5,122.419 1750.39,119.701 1752.29,116.871 1754.18,113.813 1756.08,112.002 1757.97,109.171 1759.86,106.68 1761.76,104.529 1763.65,102.717 1765.55,101.019 1767.44,99.3202 1769.34,97.1688 1771.23,95.1307 1773.12,93.9984 1775.02,92.7529 1776.91,91.7339 1778.81,90.3751 1780.7,89.5825 1782.6,88.4502 1784.49,87.9973 1786.39,86.865 1788.28,86.2989 1790.17,86.2989 1792.07,86.1857 1793.96,86.1857 1795.86,86.1857 1797.75,86.6386 1799.65,86.2989 1801.54,86.6386 1803.44,86.5254 1805.33,88.2238 1807.22,89.0164 1809.12,89.809 1811.01,90.0354 1812.91,91.3942 1814.8,92.8662 1816.7,94.1117 1818.59,95.6969 1820.48,96.8292 1822.38,98.754 1824.27,100.566 1826.17,102.717 1828.06,104.642 1829.96,107.133 1831.85,109.058 1833.75,111.775 1835.64,114.606 1837.53,117.21 1839.43,119.928 1841.32,122.759 1843.22,125.929 1845.11,128.986 1847.01,132.496 1848.9,135.553 1850.8,138.95 1852.69,142.121 1854.58,146.876 1856.48,150.386 1858.37,154.236 1860.27,158.199 1862.16,161.822 1864.06,166.804 1865.95,170.315 1867.84,174.957 1869.74,179.26 1871.63,184.128 1873.53,189.45 1875.42,194.093 1877.32,198.961 1879.21,204.396 1881.11,209.152 1883,214.587 1884.89,219.682 1886.79,225.23 1888.68,230.099 1890.58,235.421 1892.47,241.309 1894.37,247.197 1896.26,253.877 1898.16,258.973 1900.05,265.087 1901.94,271.201 1903.84,277.429 1905.73,283.203 1907.63,289.884 1909.52,296.338 1911.42,302.792 1913.31,308.793 1915.21,315.7 1917.1,322.381 1918.99,328.948 1920.89,335.741 1922.78,342.875 1924.68,349.669 1926.57,356.462 1928.47,363.709 1930.36,370.389 1932.25,377.863 1934.15,384.883 1936.04,391.79 1937.94,399.489 1939.83,406.962 1941.73,413.982 1943.62,421.003 1945.52,428.702 1947.41,436.175 1949.3,444.328 1951.2,451.348 1953.09,458.595 1954.99,466.521 1956.88,473.994 1958.78,482.373 1960.67,489.279 1962.57,497.432 1964.46,505.018 1966.35,512.718 1968.25,520.191 1970.14,528.004 1972.04,536.043 1973.93,543.629 1975.83,551.442 1977.72,559.255 1979.61,566.841 1981.51,574.88 1983.4,582.58 1985.3,590.166 1987.19,597.979 1989.09,606.131 1990.98,613.718 1992.88,621.53 1994.77,629.57 1996.66,636.93 1998.56,644.403 2000.45,652.895 2002.35,660.028 2004.24,667.954 2006.14,675.54 2008.03,683.127 2009.93,690.826 2011.82,698.299 2013.71,705.773 2015.61,714.038 2017.5,720.945 2019.4,728.758 2021.29,735.665 2023.19,743.251 2025.08,750.158 2026.98,757.744 2028.87,765.104 2030.76,772.804 2032.66,779.824 2034.55,786.165 2036.45,793.298 2038.34,800.885 2040.24,807.565 2042.13,814.585 2044.02,821.039 2045.92,827.607 2047.81,834.627 2049.71,841.194 2051.6,847.195 2053.5,853.989 2055.39,860.896 2057.29,866.784 2059.18,873.238 2061.07,879.352 2062.97,885.693 2064.86,891.354 2066.76,897.355 2068.65,903.809 2070.55,908.905 2072.44,915.472 2074.34,920.454 2076.23,926.342 2078.12,932.003 2080.02,937.099 2081.91,942.534 2083.81,947.855 2085.7,953.064 2087.6,957.819 2089.49,963.028 2091.38,967.557 2093.28,972.199 2095.17,977.068 2097.07,981.484 2098.96,985.9 2100.86,990.882 2102.75,994.619 2104.65,999.261 2106.54,1003 2108.43,1007.19 2110.33,1010.7 2112.22,1014.09 2114.12,1018.28 2116.01,1021.23 2117.91,1025.64 2119.8,1028.13 2121.7,1032.21 2123.59,1035.04 2125.48,1037.31 2127.38,1041.16 2129.27,1043.65 2131.17,1046.02 2133.06,1048.97 2134.96,1051.57 2136.85,1053.95 2138.74,1056.44 2140.64,1058.59 2142.53,1060.29 2144.43,1062.56 2146.32,1064.48 2148.22,1066.29 2150.11,1067.65 2152.01,1069.24 2153.9,1070.6 2155.79,1071.61 2157.69,1072.75 2159.58,1073.65 2161.48,1074.9 2163.37,1075.46 2165.27,1076.37 2167.16,1077.16 2169.06,1077.16 2170.95,1078.18 2172.84,1078.41 2174.74,1078.75 2176.63,1078.63 2178.53,1078.86 2180.42,1078.52 2182.32,1077.84 2184.21,1078.07 2186.11,1076.94 2188,1076.48 2189.89,1076.37 2191.79,1074.67 2193.68,1074.33 2195.58,1073.77 2197.47,1072.07 2199.37,1071.27 2201.26,1069.35 2203.15,1068.33 2205.05,1067.2 2206.94,1065.16 2208.84,1063.12 2210.73,1061.65 2212.63,1060.06 2214.52,1057.8 2216.42,1055.54 2218.31,1053.38 2220.2,1051.12 2222.1,1048.63 2223.99,1046.48 2225.89,1043.31 2227.78,1041.04 2229.68,1038.1 2231.57,1034.81 2233.47,1032.44 2235.36,1029.27 2237.25,1025.42 2239.15,1023.04 2241.04,1019.42 2242.94,1015.45 2244.83,1011.94 2246.73,1008.32 2248.62,1004.92 2250.51,1001.41 2252.41,997.223 2254.3,992.92 2256.2,988.391 2258.09,983.975 2259.99,980.805 2261.88,976.615 2263.78,971.407 2265.67,966.878 2267.56,962.235 2269.46,957.48 2271.35,952.951 2273.25,947.289 2275.14,942.647 2277.04,937.551 2278.93,932.003 2280.83,926.455 2282.72,921.473 2284.61,915.019 2286.51,909.697 2288.4,904.149 2290.3,898.488 2292.19,892.147 2294.09,885.693 2295.98,879.805 "></polyline>
<path clip-path="url(#clip010)" d="M413.563 300.469 L842.154 300.469 L842.154 93.1086 L413.563 93.1086  Z" fill="#ffffff" fill-rule="evenodd" fill-opacity="1"></path>
<polyline clip-path="url(#clip010)" style="stroke:#000000; stroke-linecap:round; stroke-linejoin:round; stroke-width:4; stroke-opacity:1; fill:none" points="413.563,300.469 842.154,300.469 842.154,93.1086 413.563,93.1086 413.563,300.469 "></polyline>
<polyline clip-path="url(#clip010)" style="stroke:#009af9; stroke-linecap:round; stroke-linejoin:round; stroke-width:4; stroke-opacity:1; fill:none" points="435.853,144.949 569.59,144.949 "></polyline>
<path clip-path="url(#clip010)" d="M591.88 127.669 L611.741 127.669 L611.741 131.604 L596.555 131.604 L596.555 141.789 L610.259 141.789 L610.259 145.724 L596.555 145.724 L596.555 162.229 L591.88 162.229 L591.88 127.669 Z" fill="#000000" fill-rule="nonzero" fill-opacity="1"></path><path clip-path="url(#clip010)" d="M619.148 127.669 L641 127.669 L641 131.604 L623.824 131.604 L623.824 141.835 L640.282 141.835 L640.282 145.77 L623.824 145.77 L623.824 158.293 L641.416 158.293 L641.416 162.229 L619.148 162.229 L619.148 127.669 Z" fill="#000000" fill-rule="nonzero" fill-opacity="1"></path><path clip-path="url(#clip010)" d="M649.102 127.669 L656.069 127.669 L664.888 151.187 L673.754 127.669 L680.722 127.669 L680.722 162.229 L676.162 162.229 L676.162 131.882 L667.25 155.585 L662.551 155.585 L653.639 131.882 L653.639 162.229 L649.102 162.229 L649.102 127.669 Z" fill="#000000" fill-rule="nonzero" fill-opacity="1"></path><polyline clip-path="url(#clip010)" style="stroke:#e26f46; stroke-linecap:round; stroke-linejoin:round; stroke-width:4; stroke-opacity:1; fill:none" stroke-dasharray="16, 10" points="435.853,196.789 569.59,196.789 "></polyline>
<path clip-path="url(#clip010)" d="M607.713 184.115 L601.37 201.314 L614.079 201.314 L607.713 184.115 M605.074 179.509 L610.375 179.509 L623.546 214.069 L618.685 214.069 L615.537 205.203 L599.958 205.203 L596.81 214.069 L591.88 214.069 L605.074 179.509 Z" fill="#000000" fill-rule="nonzero" fill-opacity="1"></path><path clip-path="url(#clip010)" d="M649.958 198.421 L649.958 214.069 L645.699 214.069 L645.699 198.559 Q645.699 194.879 644.264 193.05 Q642.828 191.222 639.958 191.222 Q636.509 191.222 634.518 193.421 Q632.528 195.62 632.528 199.416 L632.528 214.069 L628.245 214.069 L628.245 188.143 L632.528 188.143 L632.528 192.171 Q634.055 189.833 636.115 188.675 Q638.199 187.518 640.907 187.518 Q645.375 187.518 647.666 190.296 Q649.958 193.05 649.958 198.421 Z" fill="#000000" fill-rule="nonzero" fill-opacity="1"></path><path clip-path="url(#clip010)" d="M670.236 201.036 Q665.074 201.036 663.083 202.217 Q661.092 203.397 661.092 206.245 Q661.092 208.513 662.574 209.856 Q664.078 211.175 666.648 211.175 Q670.189 211.175 672.319 208.675 Q674.472 206.152 674.472 201.985 L674.472 201.036 L670.236 201.036 M678.731 199.277 L678.731 214.069 L674.472 214.069 L674.472 210.133 Q673.013 212.495 670.838 213.629 Q668.662 214.74 665.513 214.74 Q661.532 214.74 659.171 212.518 Q656.833 210.272 656.833 206.522 Q656.833 202.147 659.75 199.925 Q662.689 197.703 668.5 197.703 L674.472 197.703 L674.472 197.286 Q674.472 194.347 672.527 192.749 Q670.606 191.129 667.111 191.129 Q664.888 191.129 662.782 191.661 Q660.676 192.194 658.731 193.259 L658.731 189.323 Q661.069 188.421 663.268 187.981 Q665.467 187.518 667.55 187.518 Q673.175 187.518 675.953 190.434 Q678.731 193.351 678.731 199.277 Z" fill="#000000" fill-rule="nonzero" fill-opacity="1"></path><path clip-path="url(#clip010)" d="M687.504 178.05 L691.763 178.05 L691.763 214.069 L687.504 214.069 L687.504 178.05 Z" fill="#000000" fill-rule="nonzero" fill-opacity="1"></path><path clip-path="url(#clip010)" d="M711.462 216.476 Q709.657 221.106 707.944 222.518 Q706.231 223.93 703.36 223.93 L699.958 223.93 L699.958 220.365 L702.458 220.365 Q704.217 220.365 705.189 219.532 Q706.161 218.698 707.342 215.596 L708.106 213.652 L697.62 188.143 L702.134 188.143 L710.235 208.421 L718.337 188.143 L722.851 188.143 L711.462 216.476 Z" fill="#000000" fill-rule="nonzero" fill-opacity="1"></path><path clip-path="url(#clip010)" d="M732.944 180.782 L732.944 188.143 L741.717 188.143 L741.717 191.453 L732.944 191.453 L732.944 205.527 Q732.944 208.698 733.8 209.601 Q734.68 210.504 737.342 210.504 L741.717 210.504 L741.717 214.069 L737.342 214.069 Q732.411 214.069 730.536 212.24 Q728.661 210.388 728.661 205.527 L728.661 191.453 L725.536 191.453 L725.536 188.143 L728.661 188.143 L728.661 180.782 L732.944 180.782 Z" fill="#000000" fill-rule="nonzero" fill-opacity="1"></path><path clip-path="url(#clip010)" d="M747.319 188.143 L751.578 188.143 L751.578 214.069 L747.319 214.069 L747.319 188.143 M747.319 178.05 L751.578 178.05 L751.578 183.444 L747.319 183.444 L747.319 178.05 Z" fill="#000000" fill-rule="nonzero" fill-opacity="1"></path><path clip-path="url(#clip010)" d="M779.147 189.138 L779.147 193.12 Q777.342 192.124 775.513 191.638 Q773.707 191.129 771.855 191.129 Q767.712 191.129 765.42 193.768 Q763.129 196.384 763.129 201.129 Q763.129 205.874 765.42 208.513 Q767.712 211.129 771.855 211.129 Q773.707 211.129 775.513 210.643 Q777.342 210.133 779.147 209.138 L779.147 213.073 Q777.365 213.907 775.443 214.323 Q773.545 214.74 771.393 214.74 Q765.536 214.74 762.087 211.059 Q758.638 207.379 758.638 201.129 Q758.638 194.786 762.11 191.152 Q765.606 187.518 771.67 187.518 Q773.638 187.518 775.513 187.935 Q777.388 188.328 779.147 189.138 Z" fill="#000000" fill-rule="nonzero" fill-opacity="1"></path><path clip-path="url(#clip010)" d="M798.337 201.036 Q793.175 201.036 791.184 202.217 Q789.193 203.397 789.193 206.245 Q789.193 208.513 790.675 209.856 Q792.179 211.175 794.749 211.175 Q798.291 211.175 800.42 208.675 Q802.573 206.152 802.573 201.985 L802.573 201.036 L798.337 201.036 M806.832 199.277 L806.832 214.069 L802.573 214.069 L802.573 210.133 Q801.115 212.495 798.939 213.629 Q796.763 214.74 793.615 214.74 Q789.633 214.74 787.272 212.518 Q784.934 210.272 784.934 206.522 Q784.934 202.147 787.851 199.925 Q790.791 197.703 796.601 197.703 L802.573 197.703 L802.573 197.286 Q802.573 194.347 800.628 192.749 Q798.707 191.129 795.212 191.129 Q792.99 191.129 790.883 191.661 Q788.777 192.194 786.832 193.259 L786.832 189.323 Q789.17 188.421 791.369 187.981 Q793.568 187.518 795.652 187.518 Q801.277 187.518 804.054 190.434 Q806.832 193.351 806.832 199.277 Z" fill="#000000" fill-rule="nonzero" fill-opacity="1"></path><path clip-path="url(#clip010)" d="M815.605 178.05 L819.864 178.05 L819.864 214.069 L815.605 214.069 L815.605 178.05 Z" fill="#000000" fill-rule="nonzero" fill-opacity="1"></path><polyline clip-path="url(#clip010)" style="stroke:#3da44d; stroke-linecap:round; stroke-linejoin:round; stroke-width:8; stroke-opacity:1; fill:none" stroke-dasharray="32, 16, 4, 16" points="435.853,248.629 569.59,248.629 "></polyline>
<path clip-path="url(#clip010)" d="M591.88 231.349 L613.731 231.349 L613.731 235.284 L596.555 235.284 L596.555 245.515 L613.014 245.515 L613.014 249.45 L596.555 249.45 L596.555 261.973 L614.148 261.973 L614.148 265.909 L591.88 265.909 L591.88 231.349 Z" fill="#000000" fill-rule="nonzero" fill-opacity="1"></path><path clip-path="url(#clip010)" d="M621.833 231.349 L626.509 231.349 L626.509 261.973 L643.338 261.973 L643.338 265.909 L621.833 265.909 L621.833 231.349 Z" fill="#000000" fill-rule="nonzero" fill-opacity="1"></path><path clip-path="url(#clip010)" d="M648.245 231.349 L655.213 231.349 L664.032 254.867 L672.898 231.349 L679.865 231.349 L679.865 265.909 L675.305 265.909 L675.305 235.562 L666.393 259.265 L661.694 259.265 L652.782 235.562 L652.782 265.909 L648.245 265.909 L648.245 231.349 Z" fill="#000000" fill-rule="nonzero" fill-opacity="1"></path></svg>