<svg xmlns="http://www.w3.org/2000/svg" xmlns:xlink="http://www.w3.org/1999/xlink" width="600" height="300" viewBox="0 0 2400 1600">
<defs>
  <clipPath id="clip130">
    <rect x="0" y="0" width="2400" height="1600"></rect>
  </clipPath>
</defs>
<path clip-path="url(#clip130)" d="M0 1600 L2400 1600 L2400 0 L0 0  Z" fill="#ffffff" fill-rule="evenodd" fill-opacity="1"></path>
<defs>
  <clipPath id="clip131">
    <rect x="480" y="0" width="1681" height="1600"></rect>
  </clipPath>
</defs>
<path clip-path="url(#clip130)" d="M317.528 1423.18 L2352.76 1423.18 L2352.76 47.2441 L317.528 47.2441  Z" fill="#ffffff" fill-rule="evenodd" fill-opacity="1"></path>
<defs>
  <clipPath id="clip132">
    <rect x="317" y="47" width="2036" height="1377"></rect>
  </clipPath>
</defs>
<polyline clip-path="url(#clip132)" style="stroke:#000000; stroke-linecap:round; stroke-linejoin:round; stroke-width:2; stroke-opacity:0.1; fill:none" points="375.129,1423.18 375.129,47.2441 "></polyline>
<polyline clip-path="url(#clip132)" style="stroke:#000000; stroke-linecap:round; stroke-linejoin:round; stroke-width:2; stroke-opacity:0.1; fill:none" points="855.135,1423.18 855.135,47.2441 "></polyline>
<polyline clip-path="url(#clip132)" style="stroke:#000000; stroke-linecap:round; stroke-linejoin:round; stroke-width:2; stroke-opacity:0.1; fill:none" points="1335.14,1423.18 1335.14,47.2441 "></polyline>
<polyline clip-path="url(#clip132)" style="stroke:#000000; stroke-linecap:round; stroke-linejoin:round; stroke-width:2; stroke-opacity:0.1; fill:none" points="1815.15,1423.18 1815.15,47.2441 "></polyline>
<polyline clip-path="url(#clip132)" style="stroke:#000000; stroke-linecap:round; stroke-linejoin:round; stroke-width:2; stroke-opacity:0.1; fill:none" points="2295.16,1423.18 2295.16,47.2441 "></polyline>
<polyline clip-path="url(#clip132)" style="stroke:#000000; stroke-linecap:round; stroke-linejoin:round; stroke-width:2; stroke-opacity:0.1; fill:none" points="317.528,1128.02 2352.76,1128.02 "></polyline>
<polyline clip-path="url(#clip132)" style="stroke:#000000; stroke-linecap:round; stroke-linejoin:round; stroke-width:2; stroke-opacity:0.1; fill:none" points="317.528,829.722 2352.76,829.722 "></polyline>
<polyline clip-path="url(#clip132)" style="stroke:#000000; stroke-linecap:round; stroke-linejoin:round; stroke-width:2; stroke-opacity:0.1; fill:none" points="317.528,531.421 2352.76,531.421 "></polyline>
<polyline clip-path="url(#clip132)" style="stroke:#000000; stroke-linecap:round; stroke-linejoin:round; stroke-width:2; stroke-opacity:0.1; fill:none" points="317.528,233.12 2352.76,233.12 "></polyline>
<polyline clip-path="url(#clip130)" style="stroke:#000000; stroke-linecap:round; stroke-linejoin:round; stroke-width:4; stroke-opacity:1; fill:none" points="317.528,1423.18 2352.76,1423.18 "></polyline>
<polyline clip-path="url(#clip130)" style="stroke:#000000; stroke-linecap:round; stroke-linejoin:round; stroke-width:4; stroke-opacity:1; fill:none" points="375.129,1423.18 375.129,1404.28 "></polyline>
<polyline clip-path="url(#clip130)" style="stroke:#000000; stroke-linecap:round; stroke-linejoin:round; stroke-width:4; stroke-opacity:1; fill:none" points="855.135,1423.18 855.135,1404.28 "></polyline>
<polyline clip-path="url(#clip130)" style="stroke:#000000; stroke-linecap:round; stroke-linejoin:round; stroke-width:4; stroke-opacity:1; fill:none" points="1335.14,1423.18 1335.14,1404.28 "></polyline>
<polyline clip-path="url(#clip130)" style="stroke:#000000; stroke-linecap:round; stroke-linejoin:round; stroke-width:4; stroke-opacity:1; fill:none" points="1815.15,1423.18 1815.15,1404.28 "></polyline>
<polyline clip-path="url(#clip130)" style="stroke:#000000; stroke-linecap:round; stroke-linejoin:round; stroke-width:4; stroke-opacity:1; fill:none" points="2295.16,1423.18 2295.16,1404.28 "></polyline>
<path clip-path="url(#clip130)" d="M337.432 1454.1 Q333.821 1454.1 331.992 1457.66 Q330.187 1461.2 330.187 1468.33 Q330.187 1475.44 331.992 1479.01 Q333.821 1482.55 337.432 1482.55 Q341.066 1482.55 342.872 1479.01 Q344.7 1475.44 344.7 1468.33 Q344.7 1461.2 342.872 1457.66 Q341.066 1454.1 337.432 1454.1 M337.432 1450.39 Q343.242 1450.39 346.298 1455 Q349.376 1459.58 349.376 1468.33 Q349.376 1477.06 346.298 1481.67 Q343.242 1486.25 337.432 1486.25 Q331.622 1486.25 328.543 1481.67 Q325.488 1477.06 325.488 1468.33 Q325.488 1459.58 328.543 1455 Q331.622 1450.39 337.432 1450.39 Z" fill="#000000" fill-rule="nonzero" fill-opacity="1"></path><path clip-path="url(#clip130)" d="M357.594 1479.7 L362.478 1479.7 L362.478 1485.58 L357.594 1485.58 L357.594 1479.7 Z" fill="#000000" fill-rule="nonzero" fill-opacity="1"></path><path clip-path="url(#clip130)" d="M382.663 1454.1 Q379.052 1454.1 377.223 1457.66 Q375.418 1461.2 375.418 1468.33 Q375.418 1475.44 377.223 1479.01 Q379.052 1482.55 382.663 1482.55 Q386.297 1482.55 388.103 1479.01 Q389.932 1475.44 389.932 1468.33 Q389.932 1461.2 388.103 1457.66 Q386.297 1454.1 382.663 1454.1 M382.663 1450.39 Q388.473 1450.39 391.529 1455 Q394.608 1459.58 394.608 1468.33 Q394.608 1477.06 391.529 1481.67 Q388.473 1486.25 382.663 1486.25 Q376.853 1486.25 373.774 1481.67 Q370.719 1477.06 370.719 1468.33 Q370.719 1459.58 373.774 1455 Q376.853 1450.39 382.663 1450.39 Z" fill="#000000" fill-rule="nonzero" fill-opacity="1"></path><path clip-path="url(#clip130)" d="M412.825 1454.1 Q409.214 1454.1 407.385 1457.66 Q405.58 1461.2 405.58 1468.33 Q405.58 1475.44 407.385 1479.01 Q409.214 1482.55 412.825 1482.55 Q416.459 1482.55 418.265 1479.01 Q420.094 1475.44 420.094 1468.33 Q420.094 1461.2 418.265 1457.66 Q416.459 1454.1 412.825 1454.1 M412.825 1450.39 Q418.635 1450.39 421.691 1455 Q424.77 1459.58 424.77 1468.33 Q424.77 1477.06 421.691 1481.67 Q418.635 1486.25 412.825 1486.25 Q407.015 1486.25 403.936 1481.67 Q400.881 1477.06 400.881 1468.33 Q400.881 1459.58 403.936 1455 Q407.015 1450.39 412.825 1450.39 Z" fill="#000000" fill-rule="nonzero" fill-opacity="1"></path><path clip-path="url(#clip130)" d="M817.936 1454.1 Q814.325 1454.1 812.497 1457.66 Q810.691 1461.2 810.691 1468.33 Q810.691 1475.44 812.497 1479.01 Q814.325 1482.55 817.936 1482.55 Q821.571 1482.55 823.376 1479.01 Q825.205 1475.44 825.205 1468.33 Q825.205 1461.2 823.376 1457.66 Q821.571 1454.1 817.936 1454.1 M817.936 1450.39 Q823.746 1450.39 826.802 1455 Q829.881 1459.58 829.881 1468.33 Q829.881 1477.06 826.802 1481.67 Q823.746 1486.25 817.936 1486.25 Q812.126 1486.25 809.047 1481.67 Q805.992 1477.06 805.992 1468.33 Q805.992 1459.58 809.047 1455 Q812.126 1450.39 817.936 1450.39 Z" fill="#000000" fill-rule="nonzero" fill-opacity="1"></path><path clip-path="url(#clip130)" d="M838.098 1479.7 L842.982 1479.7 L842.982 1485.58 L838.098 1485.58 L838.098 1479.7 Z" fill="#000000" fill-rule="nonzero" fill-opacity="1"></path><path clip-path="url(#clip130)" d="M857.195 1481.64 L873.515 1481.64 L873.515 1485.58 L851.57 1485.58 L851.57 1481.64 Q854.232 1478.89 858.816 1474.26 Q863.422 1469.61 864.603 1468.27 Q866.848 1465.74 867.728 1464.01 Q868.631 1462.25 868.631 1460.56 Q868.631 1457.8 866.686 1456.07 Q864.765 1454.33 861.663 1454.33 Q859.464 1454.33 857.01 1455.09 Q854.58 1455.86 851.802 1457.41 L851.802 1452.69 Q854.626 1451.55 857.08 1450.97 Q859.533 1450.39 861.57 1450.39 Q866.941 1450.39 870.135 1453.08 Q873.33 1455.77 873.33 1460.26 Q873.33 1462.39 872.519 1464.31 Q871.732 1466.2 869.626 1468.8 Q869.047 1469.47 865.945 1472.69 Q862.844 1475.88 857.195 1481.64 Z" fill="#000000" fill-rule="nonzero" fill-opacity="1"></path><path clip-path="url(#clip130)" d="M883.376 1451.02 L901.732 1451.02 L901.732 1454.96 L887.658 1454.96 L887.658 1463.43 Q888.677 1463.08 889.695 1462.92 Q890.714 1462.73 891.732 1462.73 Q897.519 1462.73 900.899 1465.9 Q904.278 1469.08 904.278 1474.49 Q904.278 1480.07 900.806 1483.17 Q897.334 1486.25 891.015 1486.25 Q888.839 1486.25 886.57 1485.88 Q884.325 1485.51 881.917 1484.77 L881.917 1480.07 Q884.001 1481.2 886.223 1481.76 Q888.445 1482.32 890.922 1482.32 Q894.927 1482.32 897.265 1480.21 Q899.603 1478.1 899.603 1474.49 Q899.603 1470.88 897.265 1468.77 Q894.927 1466.67 890.922 1466.67 Q889.047 1466.67 887.172 1467.08 Q885.32 1467.5 883.376 1468.38 L883.376 1451.02 Z" fill="#000000" fill-rule="nonzero" fill-opacity="1"></path><path clip-path="url(#clip130)" d="M1297.45 1454.1 Q1293.83 1454.1 1292.01 1457.66 Q1290.2 1461.2 1290.2 1468.33 Q1290.2 1475.44 1292.01 1479.01 Q1293.83 1482.55 1297.45 1482.55 Q1301.08 1482.55 1302.89 1479.01 Q1304.71 1475.44 1304.71 1468.33 Q1304.71 1461.2 1302.89 1457.66 Q1301.08 1454.1 1297.45 1454.1 M1297.45 1450.39 Q1303.26 1450.39 1306.31 1455 Q1309.39 1459.58 1309.39 1468.33 Q1309.39 1477.06 1306.31 1481.67 Q1303.26 1486.25 1297.45 1486.25 Q1291.64 1486.25 1288.56 1481.67 Q1285.5 1477.06 1285.5 1468.33 Q1285.5 1459.58 1288.56 1455 Q1291.64 1450.39 1297.45 1450.39 Z" fill="#000000" fill-rule="nonzero" fill-opacity="1"></path><path clip-path="url(#clip130)" d="M1317.61 1479.7 L1322.49 1479.7 L1322.49 1485.58 L1317.61 1485.58 L1317.61 1479.7 Z" fill="#000000" fill-rule="nonzero" fill-opacity="1"></path><path clip-path="url(#clip130)" d="M1332.72 1451.02 L1351.08 1451.02 L1351.08 1454.96 L1337.01 1454.96 L1337.01 1463.43 Q1338.02 1463.08 1339.04 1462.92 Q1340.06 1462.73 1341.08 1462.73 Q1346.87 1462.73 1350.25 1465.9 Q1353.63 1469.08 1353.63 1474.49 Q1353.63 1480.07 1350.15 1483.17 Q1346.68 1486.25 1340.36 1486.25 Q1338.19 1486.25 1335.92 1485.88 Q1333.67 1485.51 1331.26 1484.77 L1331.26 1480.07 Q1333.35 1481.2 1335.57 1481.76 Q1337.79 1482.32 1340.27 1482.32 Q1344.27 1482.32 1346.61 1480.21 Q1348.95 1478.1 1348.95 1474.49 Q1348.95 1470.88 1346.61 1468.77 Q1344.27 1466.67 1340.27 1466.67 Q1338.39 1466.67 1336.52 1467.08 Q1334.67 1467.5 1332.72 1468.38 L1332.72 1451.02 Z" fill="#000000" fill-rule="nonzero" fill-opacity="1"></path><path clip-path="url(#clip130)" d="M1372.84 1454.1 Q1369.23 1454.1 1367.4 1457.66 Q1365.59 1461.2 1365.59 1468.33 Q1365.59 1475.44 1367.4 1479.01 Q1369.23 1482.55 1372.84 1482.55 Q1376.47 1482.55 1378.28 1479.01 Q1380.11 1475.44 1380.11 1468.33 Q1380.11 1461.2 1378.28 1457.66 Q1376.47 1454.1 1372.84 1454.1 M1372.84 1450.39 Q1378.65 1450.39 1381.7 1455 Q1384.78 1459.58 1384.78 1468.33 Q1384.78 1477.06 1381.7 1481.67 Q1378.65 1486.25 1372.84 1486.25 Q1367.03 1486.25 1363.95 1481.67 Q1360.89 1477.06 1360.89 1468.33 Q1360.89 1459.58 1363.95 1455 Q1367.03 1450.39 1372.84 1450.39 Z" fill="#000000" fill-rule="nonzero" fill-opacity="1"></path><path clip-path="url(#clip130)" d="M1777.95 1454.1 Q1774.34 1454.1 1772.51 1457.66 Q1770.7 1461.2 1770.7 1468.33 Q1770.7 1475.44 1772.51 1479.01 Q1774.34 1482.55 1777.95 1482.55 Q1781.58 1482.55 1783.39 1479.01 Q1785.22 1475.44 1785.22 1468.33 Q1785.22 1461.2 1783.39 1457.66 Q1781.58 1454.1 1777.95 1454.1 M1777.95 1450.39 Q1783.76 1450.39 1786.82 1455 Q1789.89 1459.58 1789.89 1468.33 Q1789.89 1477.06 1786.82 1481.67 Q1783.76 1486.25 1777.95 1486.25 Q1772.14 1486.25 1769.06 1481.67 Q1766.01 1477.06 1766.01 1468.33 Q1766.01 1459.58 1769.06 1455 Q1772.14 1450.39 1777.95 1450.39 Z" fill="#000000" fill-rule="nonzero" fill-opacity="1"></path><path clip-path="url(#clip130)" d="M1798.11 1479.7 L1803 1479.7 L1803 1485.58 L1798.11 1485.58 L1798.11 1479.7 Z" fill="#000000" fill-rule="nonzero" fill-opacity="1"></path><path clip-path="url(#clip130)" d="M1812 1451.02 L1834.22 1451.02 L1834.22 1453.01 L1821.68 1485.58 L1816.79 1485.58 L1828.6 1454.96 L1812 1454.96 L1812 1451.02 Z" fill="#000000" fill-rule="nonzero" fill-opacity="1"></path><path clip-path="url(#clip130)" d="M1843.39 1451.02 L1861.75 1451.02 L1861.75 1454.96 L1847.67 1454.96 L1847.67 1463.43 Q1848.69 1463.08 1849.71 1462.92 Q1850.73 1462.73 1851.75 1462.73 Q1857.53 1462.73 1860.91 1465.9 Q1864.29 1469.08 1864.29 1474.49 Q1864.29 1480.07 1860.82 1483.17 Q1857.35 1486.25 1851.03 1486.25 Q1848.85 1486.25 1846.58 1485.88 Q1844.34 1485.51 1841.93 1484.77 L1841.93 1480.07 Q1844.01 1481.2 1846.24 1481.76 Q1848.46 1482.32 1850.94 1482.32 Q1854.94 1482.32 1857.28 1480.21 Q1859.62 1478.1 1859.62 1474.49 Q1859.62 1470.88 1857.28 1468.77 Q1854.94 1466.67 1850.94 1466.67 Q1849.06 1466.67 1847.19 1467.08 Q1845.33 1467.5 1843.39 1468.38 L1843.39 1451.02 Z" fill="#000000" fill-rule="nonzero" fill-opacity="1"></path><path clip-path="url(#clip130)" d="M2247.23 1481.64 L2254.87 1481.64 L2254.87 1455.28 L2246.56 1456.95 L2246.56 1452.69 L2254.82 1451.02 L2259.5 1451.02 L2259.5 1481.64 L2267.13 1481.64 L2267.13 1485.58 L2247.23 1485.58 L2247.23 1481.64 Z" fill="#000000" fill-rule="nonzero" fill-opacity="1"></path><path clip-path="url(#clip130)" d="M2276.58 1479.7 L2281.46 1479.7 L2281.46 1485.58 L2276.58 1485.58 L2276.58 1479.7 Z" fill="#000000" fill-rule="nonzero" fill-opacity="1"></path><path clip-path="url(#clip130)" d="M2301.65 1454.1 Q2298.04 1454.1 2296.21 1457.66 Q2294.4 1461.2 2294.4 1468.33 Q2294.4 1475.44 2296.21 1479.01 Q2298.04 1482.55 2301.65 1482.55 Q2305.28 1482.55 2307.09 1479.01 Q2308.92 1475.44 2308.92 1468.33 Q2308.92 1461.2 2307.09 1457.66 Q2305.28 1454.1 2301.65 1454.1 M2301.65 1450.39 Q2307.46 1450.39 2310.51 1455 Q2313.59 1459.58 2313.59 1468.33 Q2313.59 1477.06 2310.51 1481.67 Q2307.46 1486.25 2301.65 1486.25 Q2295.84 1486.25 2292.76 1481.67 Q2289.7 1477.06 2289.7 1468.33 Q2289.7 1459.58 2292.76 1455 Q2295.84 1450.39 2301.65 1450.39 Z" fill="#000000" fill-rule="nonzero" fill-opacity="1"></path><path clip-path="url(#clip130)" d="M2331.81 1454.1 Q2328.2 1454.1 2326.37 1457.66 Q2324.56 1461.2 2324.56 1468.33 Q2324.56 1475.44 2326.37 1479.01 Q2328.2 1482.55 2331.81 1482.55 Q2335.44 1482.55 2337.25 1479.01 Q2339.08 1475.44 2339.08 1468.33 Q2339.08 1461.2 2337.25 1457.66 Q2335.44 1454.1 2331.81 1454.1 M2331.81 1450.39 Q2337.62 1450.39 2340.68 1455 Q2343.75 1459.58 2343.75 1468.33 Q2343.75 1477.06 2340.68 1481.67 Q2337.62 1486.25 2331.81 1486.25 Q2326 1486.25 2322.92 1481.67 Q2319.87 1477.06 2319.87 1468.33 Q2319.87 1459.58 2322.92 1455 Q2326 1450.39 2331.81 1450.39 Z" fill="#000000" fill-rule="nonzero" fill-opacity="1"></path><path clip-path="url(#clip130)" d="M1351.76 1532.4 L1338.87 1549.74 L1352.42 1568.04 L1345.52 1568.04 L1335.14 1554.04 L1324.77 1568.04 L1317.86 1568.04 L1331.7 1549.39 L1319.04 1532.4 L1325.94 1532.4 L1335.4 1545.1 L1344.85 1532.4 L1351.76 1532.4 Z" fill="#000000" fill-rule="nonzero" fill-opacity="1"></path><polyline clip-path="url(#clip130)" style="stroke:#000000; stroke-linecap:round; stroke-linejoin:round; stroke-width:4; stroke-opacity:1; fill:none" points="317.528,1423.18 317.528,47.2441 "></polyline>
<polyline clip-path="url(#clip130)" style="stroke:#000000; stroke-linecap:round; stroke-linejoin:round; stroke-width:4; stroke-opacity:1; fill:none" points="317.528,1128.02 336.425,1128.02 "></polyline>
<polyline clip-path="url(#clip130)" style="stroke:#000000; stroke-linecap:round; stroke-linejoin:round; stroke-width:4; stroke-opacity:1; fill:none" points="317.528,829.722 336.425,829.722 "></polyline>
<polyline clip-path="url(#clip130)" style="stroke:#000000; stroke-linecap:round; stroke-linejoin:round; stroke-width:4; stroke-opacity:1; fill:none" points="317.528,531.421 336.425,531.421 "></polyline>
<polyline clip-path="url(#clip130)" style="stroke:#000000; stroke-linecap:round; stroke-linejoin:round; stroke-width:4; stroke-opacity:1; fill:none" points="317.528,233.12 336.425,233.12 "></polyline>
<path clip-path="url(#clip130)" d="M114.26 1128.47 L143.936 1128.47 L143.936 1132.41 L114.26 1132.41 L114.26 1128.47 Z" fill="#000000" fill-rule="nonzero" fill-opacity="1"></path><path clip-path="url(#clip130)" d="M164.028 1113.82 Q160.417 1113.82 158.589 1117.39 Q156.783 1120.93 156.783 1128.06 Q156.783 1135.16 158.589 1138.73 Q160.417 1142.27 164.028 1142.27 Q167.663 1142.27 169.468 1138.73 Q171.297 1135.16 171.297 1128.06 Q171.297 1120.93 169.468 1117.39 Q167.663 1113.82 164.028 1113.82 M164.028 1110.12 Q169.839 1110.12 172.894 1114.72 Q175.973 1119.31 175.973 1128.06 Q175.973 1136.78 172.894 1141.39 Q169.839 1145.97 164.028 1145.97 Q158.218 1145.97 155.14 1141.39 Q152.084 1136.78 152.084 1128.06 Q152.084 1119.31 155.14 1114.72 Q158.218 1110.12 164.028 1110.12 Z" fill="#000000" fill-rule="nonzero" fill-opacity="1"></path><path clip-path="url(#clip130)" d="M184.19 1139.42 L189.075 1139.42 L189.075 1145.3 L184.19 1145.3 L184.19 1139.42 Z" fill="#000000" fill-rule="nonzero" fill-opacity="1"></path><path clip-path="url(#clip130)" d="M209.26 1113.82 Q205.649 1113.82 203.82 1117.39 Q202.014 1120.93 202.014 1128.06 Q202.014 1135.16 203.82 1138.73 Q205.649 1142.27 209.26 1142.27 Q212.894 1142.27 214.699 1138.73 Q216.528 1135.16 216.528 1128.06 Q216.528 1120.93 214.699 1117.39 Q212.894 1113.82 209.26 1113.82 M209.26 1110.12 Q215.07 1110.12 218.125 1114.72 Q221.204 1119.31 221.204 1128.06 Q221.204 1136.78 218.125 1141.39 Q215.07 1145.97 209.26 1145.97 Q203.449 1145.97 200.371 1141.39 Q197.315 1136.78 197.315 1128.06 Q197.315 1119.31 200.371 1114.72 Q203.449 1110.12 209.26 1110.12 Z" fill="#000000" fill-rule="nonzero" fill-opacity="1"></path><path clip-path="url(#clip130)" d="M230.232 1141.37 L237.871 1141.37 L237.871 1115 L229.56 1116.67 L229.56 1112.41 L237.824 1110.74 L242.5 1110.74 L242.5 1141.37 L250.139 1141.37 L250.139 1145.3 L230.232 1145.3 L230.232 1141.37 Z" fill="#000000" fill-rule="nonzero" fill-opacity="1"></path><path clip-path="url(#clip130)" d="M269.583 1113.82 Q265.972 1113.82 264.144 1117.39 Q262.338 1120.93 262.338 1128.06 Q262.338 1135.16 264.144 1138.73 Q265.972 1142.27 269.583 1142.27 Q273.218 1142.27 275.023 1138.73 Q276.852 1135.16 276.852 1128.06 Q276.852 1120.93 275.023 1117.39 Q273.218 1113.82 269.583 1113.82 M269.583 1110.12 Q275.394 1110.12 278.449 1114.72 Q281.528 1119.31 281.528 1128.06 Q281.528 1136.78 278.449 1141.39 Q275.394 1145.97 269.583 1145.97 Q263.773 1145.97 260.695 1141.39 Q257.639 1136.78 257.639 1128.06 Q257.639 1119.31 260.695 1114.72 Q263.773 1110.12 269.583 1110.12 Z" fill="#000000" fill-rule="nonzero" fill-opacity="1"></path><path clip-path="url(#clip130)" d="M115.256 830.174 L144.931 830.174 L144.931 834.109 L115.256 834.109 L115.256 830.174 Z" fill="#000000" fill-rule="nonzero" fill-opacity="1"></path><path clip-path="url(#clip130)" d="M165.024 815.521 Q161.413 815.521 159.584 819.086 Q157.778 822.627 157.778 829.757 Q157.778 836.863 159.584 840.428 Q161.413 843.97 165.024 843.97 Q168.658 843.97 170.464 840.428 Q172.292 836.863 172.292 829.757 Q172.292 822.627 170.464 819.086 Q168.658 815.521 165.024 815.521 M165.024 811.817 Q170.834 811.817 173.889 816.424 Q176.968 821.007 176.968 829.757 Q176.968 838.484 173.889 843.09 Q170.834 847.674 165.024 847.674 Q159.214 847.674 156.135 843.09 Q153.079 838.484 153.079 829.757 Q153.079 821.007 156.135 816.424 Q159.214 811.817 165.024 811.817 Z" fill="#000000" fill-rule="nonzero" fill-opacity="1"></path><path clip-path="url(#clip130)" d="M185.186 841.123 L190.07 841.123 L190.07 847.002 L185.186 847.002 L185.186 841.123 Z" fill="#000000" fill-rule="nonzero" fill-opacity="1"></path><path clip-path="url(#clip130)" d="M210.255 815.521 Q206.644 815.521 204.815 819.086 Q203.01 822.627 203.01 829.757 Q203.01 836.863 204.815 840.428 Q206.644 843.97 210.255 843.97 Q213.889 843.97 215.695 840.428 Q217.523 836.863 217.523 829.757 Q217.523 822.627 215.695 819.086 Q213.889 815.521 210.255 815.521 M210.255 811.817 Q216.065 811.817 219.121 816.424 Q222.199 821.007 222.199 829.757 Q222.199 838.484 219.121 843.09 Q216.065 847.674 210.255 847.674 Q204.445 847.674 201.366 843.09 Q198.311 838.484 198.311 829.757 Q198.311 821.007 201.366 816.424 Q204.445 811.817 210.255 811.817 Z" fill="#000000" fill-rule="nonzero" fill-opacity="1"></path><path clip-path="url(#clip130)" d="M240.417 815.521 Q236.806 815.521 234.977 819.086 Q233.172 822.627 233.172 829.757 Q233.172 836.863 234.977 840.428 Q236.806 843.97 240.417 843.97 Q244.051 843.97 245.857 840.428 Q247.685 836.863 247.685 829.757 Q247.685 822.627 245.857 819.086 Q244.051 815.521 240.417 815.521 M240.417 811.817 Q246.227 811.817 249.283 816.424 Q252.361 821.007 252.361 829.757 Q252.361 838.484 249.283 843.09 Q246.227 847.674 240.417 847.674 Q234.607 847.674 231.528 843.09 Q228.473 838.484 228.473 829.757 Q228.473 821.007 231.528 816.424 Q234.607 811.817 240.417 811.817 Z" fill="#000000" fill-rule="nonzero" fill-opacity="1"></path><path clip-path="url(#clip130)" d="M260.625 812.442 L278.981 812.442 L278.981 816.377 L264.907 816.377 L264.907 824.85 Q265.926 824.502 266.945 824.34 Q267.963 824.155 268.982 824.155 Q274.769 824.155 278.148 827.326 Q281.528 830.498 281.528 835.914 Q281.528 841.493 278.056 844.595 Q274.583 847.674 268.264 847.674 Q266.088 847.674 263.82 847.303 Q261.574 846.933 259.167 846.192 L259.167 841.493 Q261.25 842.627 263.472 843.183 Q265.695 843.738 268.171 843.738 Q272.176 843.738 274.514 841.632 Q276.852 839.525 276.852 835.914 Q276.852 832.303 274.514 830.197 Q272.176 828.09 268.171 828.09 Q266.296 828.09 264.421 828.507 Q262.57 828.924 260.625 829.803 L260.625 812.442 Z" fill="#000000" fill-rule="nonzero" fill-opacity="1"></path><path clip-path="url(#clip130)" d="M164.028 517.22 Q160.417 517.22 158.589 520.785 Q156.783 524.326 156.783 531.456 Q156.783 538.562 158.589 542.127 Q160.417 545.669 164.028 545.669 Q167.663 545.669 169.468 542.127 Q171.297 538.562 171.297 531.456 Q171.297 524.326 169.468 520.785 Q167.663 517.22 164.028 517.22 M164.028 513.516 Q169.839 513.516 172.894 518.123 Q175.973 522.706 175.973 531.456 Q175.973 540.183 172.894 544.789 Q169.839 549.373 164.028 549.373 Q158.218 549.373 155.14 544.789 Q152.084 540.183 152.084 531.456 Q152.084 522.706 155.14 518.123 Q158.218 513.516 164.028 513.516 Z" fill="#000000" fill-rule="nonzero" fill-opacity="1"></path><path clip-path="url(#clip130)" d="M184.19 542.822 L189.075 542.822 L189.075 548.701 L184.19 548.701 L184.19 542.822 Z" fill="#000000" fill-rule="nonzero" fill-opacity="1"></path><path clip-path="url(#clip130)" d="M209.26 517.22 Q205.649 517.22 203.82 520.785 Q202.014 524.326 202.014 531.456 Q202.014 538.562 203.82 542.127 Q205.649 545.669 209.26 545.669 Q212.894 545.669 214.699 542.127 Q216.528 538.562 216.528 531.456 Q216.528 524.326 214.699 520.785 Q212.894 517.22 209.26 517.22 M209.26 513.516 Q215.07 513.516 218.125 518.123 Q221.204 522.706 221.204 531.456 Q221.204 540.183 218.125 544.789 Q215.07 549.373 209.26 549.373 Q203.449 549.373 200.371 544.789 Q197.315 540.183 197.315 531.456 Q197.315 522.706 200.371 518.123 Q203.449 513.516 209.26 513.516 Z" fill="#000000" fill-rule="nonzero" fill-opacity="1"></path><path clip-path="url(#clip130)" d="M239.422 517.22 Q235.81 517.22 233.982 520.785 Q232.176 524.326 232.176 531.456 Q232.176 538.562 233.982 542.127 Q235.81 545.669 239.422 545.669 Q243.056 545.669 244.861 542.127 Q246.69 538.562 246.69 531.456 Q246.69 524.326 244.861 520.785 Q243.056 517.22 239.422 517.22 M239.422 513.516 Q245.232 513.516 248.287 518.123 Q251.366 522.706 251.366 531.456 Q251.366 540.183 248.287 544.789 Q245.232 549.373 239.422 549.373 Q233.611 549.373 230.533 544.789 Q227.477 540.183 227.477 531.456 Q227.477 522.706 230.533 518.123 Q233.611 513.516 239.422 513.516 Z" fill="#000000" fill-rule="nonzero" fill-opacity="1"></path><path clip-path="url(#clip130)" d="M269.583 517.22 Q265.972 517.22 264.144 520.785 Q262.338 524.326 262.338 531.456 Q262.338 538.562 264.144 542.127 Q265.972 545.669 269.583 545.669 Q273.218 545.669 275.023 542.127 Q276.852 538.562 276.852 531.456 Q276.852 524.326 275.023 520.785 Q273.218 517.22 269.583 517.22 M269.583 513.516 Q275.394 513.516 278.449 518.123 Q281.528 522.706 281.528 531.456 Q281.528 540.183 278.449 544.789 Q275.394 549.373 269.583 549.373 Q263.773 549.373 260.695 544.789 Q257.639 540.183 257.639 531.456 Q257.639 522.706 260.695 518.123 Q263.773 513.516 269.583 513.516 Z" fill="#000000" fill-rule="nonzero" fill-opacity="1"></path><path clip-path="url(#clip130)" d="M165.024 218.919 Q161.413 218.919 159.584 222.484 Q157.778 226.025 157.778 233.155 Q157.778 240.261 159.584 243.826 Q161.413 247.368 165.024 247.368 Q168.658 247.368 170.464 243.826 Q172.292 240.261 172.292 233.155 Q172.292 226.025 170.464 222.484 Q168.658 218.919 165.024 218.919 M165.024 215.215 Q170.834 215.215 173.889 219.822 Q176.968 224.405 176.968 233.155 Q176.968 241.882 173.889 246.488 Q170.834 251.072 165.024 251.072 Q159.214 251.072 156.135 246.488 Q153.079 241.882 153.079 233.155 Q153.079 224.405 156.135 219.822 Q159.214 215.215 165.024 215.215 Z" fill="#000000" fill-rule="nonzero" fill-opacity="1"></path><path clip-path="url(#clip130)" d="M185.186 244.521 L190.07 244.521 L190.07 250.4 L185.186 250.4 L185.186 244.521 Z" fill="#000000" fill-rule="nonzero" fill-opacity="1"></path><path clip-path="url(#clip130)" d="M210.255 218.919 Q206.644 218.919 204.815 222.484 Q203.01 226.025 203.01 233.155 Q203.01 240.261 204.815 243.826 Q206.644 247.368 210.255 247.368 Q213.889 247.368 215.695 243.826 Q217.523 240.261 217.523 233.155 Q217.523 226.025 215.695 222.484 Q213.889 218.919 210.255 218.919 M210.255 215.215 Q216.065 215.215 219.121 219.822 Q222.199 224.405 222.199 233.155 Q222.199 241.882 219.121 246.488 Q216.065 251.072 210.255 251.072 Q204.445 251.072 201.366 246.488 Q198.311 241.882 198.311 233.155 Q198.311 224.405 201.366 219.822 Q204.445 215.215 210.255 215.215 Z" fill="#000000" fill-rule="nonzero" fill-opacity="1"></path><path clip-path="url(#clip130)" d="M240.417 218.919 Q236.806 218.919 234.977 222.484 Q233.172 226.025 233.172 233.155 Q233.172 240.261 234.977 243.826 Q236.806 247.368 240.417 247.368 Q244.051 247.368 245.857 243.826 Q247.685 240.261 247.685 233.155 Q247.685 226.025 245.857 222.484 Q244.051 218.919 240.417 218.919 M240.417 215.215 Q246.227 215.215 249.283 219.822 Q252.361 224.405 252.361 233.155 Q252.361 241.882 249.283 246.488 Q246.227 251.072 240.417 251.072 Q234.607 251.072 231.528 246.488 Q228.473 241.882 228.473 233.155 Q228.473 224.405 231.528 219.822 Q234.607 215.215 240.417 215.215 Z" fill="#000000" fill-rule="nonzero" fill-opacity="1"></path><path clip-path="url(#clip130)" d="M260.625 215.84 L278.981 215.84 L278.981 219.775 L264.907 219.775 L264.907 228.248 Q265.926 227.9 266.945 227.738 Q267.963 227.553 268.982 227.553 Q274.769 227.553 278.148 230.725 Q281.528 233.896 281.528 239.312 Q281.528 244.891 278.056 247.993 Q274.583 251.072 268.264 251.072 Q266.088 251.072 263.82 250.701 Q261.574 250.331 259.167 249.59 L259.167 244.891 Q261.25 246.025 263.472 246.581 Q265.695 247.136 268.171 247.136 Q272.176 247.136 274.514 245.03 Q276.852 242.924 276.852 239.312 Q276.852 235.701 274.514 233.595 Q272.176 231.488 268.171 231.488 Q266.296 231.488 264.421 231.905 Q262.57 232.322 260.625 233.201 L260.625 215.84 Z" fill="#000000" fill-rule="nonzero" fill-opacity="1"></path><path clip-path="url(#clip130)" d="M49.9359 795.018 L28.3562 795.018 L28.3562 789.161 L49.7131 789.161 Q54.7739 789.161 57.3202 787.188 Q59.8346 785.215 59.8346 781.268 Q59.8346 776.525 56.8109 773.788 Q53.7872 771.019 48.5673 771.019 L28.3562 771.019 L28.3562 765.163 L64.0042 765.163 L64.0042 771.019 L58.5296 771.019 Q61.7762 773.152 63.3676 775.984 Q64.9272 778.785 64.9272 782.509 Q64.9272 788.652 61.1078 791.835 Q57.2883 795.018 49.9359 795.018 M27.4968 780.281 L27.4968 780.281 Z" fill="#000000" fill-rule="nonzero" fill-opacity="1"></path><path clip-path="url(#clip130)" d="M14.5426 739.031 Q21.8632 743.296 29.0246 745.365 Q36.186 747.434 43.5384 747.434 Q50.8908 747.434 58.1159 745.365 Q65.3091 743.265 72.5979 739.031 L72.5979 744.124 Q65.1182 748.898 57.8931 751.285 Q50.668 753.641 43.5384 753.641 Q36.4406 753.641 29.2474 751.285 Q22.0542 748.93 14.5426 744.124 L14.5426 739.031 Z" fill="#000000" fill-rule="nonzero" fill-opacity="1"></path><path clip-path="url(#clip130)" d="M28.3562 698.036 L45.7028 710.927 L64.0042 697.368 L64.0042 704.275 L49.9996 714.651 L64.0042 725.027 L64.0042 731.934 L45.3526 718.088 L28.3562 730.756 L28.3562 723.849 L41.0558 714.396 L28.3562 704.943 L28.3562 698.036 Z" fill="#000000" fill-rule="nonzero" fill-opacity="1"></path><path clip-path="url(#clip130)" d="M14.5426 690.015 L14.5426 684.923 Q22.0542 680.149 29.2474 677.793 Q36.4406 675.406 43.5384 675.406 Q50.668 675.406 57.8931 677.793 Q65.1182 680.149 72.5979 684.923 L72.5979 690.015 Q65.3091 685.782 58.1159 683.713 Q50.8908 681.613 43.5384 681.613 Q36.186 681.613 29.0246 683.713 Q21.8632 685.782 14.5426 690.015 Z" fill="#000000" fill-rule="nonzero" fill-opacity="1"></path><polyline clip-path="url(#clip132)" style="stroke:#009af9; stroke-linecap:round; stroke-linejoin:round; stroke-width:4; stroke-opacity:1; fill:none" points="375.129,531.421 377.051,537.713 378.972,544.005 380.894,550.298 382.816,556.59 384.738,562.882 386.66,569.174 388.582,575.466 390.504,581.758 392.426,588.05 394.348,594.342 396.27,600.579 398.192,606.81 400.114,613.041 402.036,619.273 403.958,625.504 405.88,631.735 407.802,637.966 409.724,644.198 411.646,650.429 413.568,656.66 415.489,662.792 417.411,668.903 419.333,675.013 421.255,681.123 423.177,687.233 425.099,693.343 427.021,699.454 428.943,705.564 430.865,711.674 432.787,717.784 434.709,723.764 436.631,729.694 438.553,735.624 440.475,741.554 442.397,747.484 444.319,753.415 446.241,759.345 448.163,765.275 450.085,771.205 452.007,777.135 453.928,782.915 455.85,788.608 457.772,794.301 459.694,799.994 461.616,805.687 463.538,811.38 465.46,817.073 467.382,822.766 469.304,828.459 471.226,834.152 473.148,839.686 475.07,845.087 476.992,850.488 478.914,855.889 480.836,861.291 482.758,866.692 484.68,872.093 486.602,877.494 488.524,882.895 490.445,888.296 492.367,893.541 494.289,898.599 496.211,903.657 498.133,908.714 500.055,913.772 501.977,918.829 503.899,923.887 505.821,928.944 507.743,934.002 509.665,939.059 511.587,943.974 513.509,948.64 515.431,953.306 517.353,957.971 519.275,962.637 521.197,967.303 523.119,971.969 525.041,976.634 526.963,981.3 528.884,985.966 530.806,990.512 532.728,994.742 534.65,998.972 536.572,1003.2 538.494,1007.43 540.416,1011.66 542.338,1015.89 544.26,1020.12 546.182,1024.35 548.104,1028.58 550.026,1032.72 551.948,1036.48 553.87,1040.23 555.792,1043.98 557.714,1047.74 559.636,1051.49 561.558,1055.24 563.48,1059 565.401,1062.75 567.323,1066.5 569.245,1070.21 571.167,1073.45 573.089,1076.7 575.011,1079.94 576.933,1083.18 578.855,1086.43 580.777,1089.67 582.699,1092.91 584.621,1096.15 586.543,1099.4 588.465,1102.64 590.387,1105.34 592.309,1108.04 594.231,1110.75 596.153,1113.45 598.075,1116.15 599.997,1118.85 601.918,1121.55 603.84,1124.26 605.762,1126.96 607.684,1129.66 609.606,1131.85 611.528,1133.99 613.45,1136.12 615.372,1138.26 617.294,1140.4 619.216,1142.54 621.138,1144.67 623.06,1146.81 624.982,1148.95 626.904,1151.09 628.826,1152.75 630.748,1154.3 632.67,1155.85 634.592,1157.41 636.514,1158.96 638.436,1160.52 640.357,1162.07 642.279,1163.62 644.201,1165.18 646.123,1166.73 648.045,1167.85 649.967,1168.81 651.889,1169.77 653.811,1170.73 655.733,1171.69 657.655,1172.64 659.577,1173.6 661.499,1174.56 663.421,1175.52 665.343,1176.48 667.265,1177.05 669.187,1177.41 671.109,1177.76 673.031,1178.12 674.953,1178.47 676.874,1178.83 678.796,1179.19 680.718,1179.54 682.64,1179.9 684.562,1180.25 686.484,1180.28 688.406,1180.03 690.328,1179.79 692.25,1179.54 694.172,1179.29 696.094,1179.05 698.016,1178.8 699.938,1178.55 701.86,1178.31 703.782,1178.06 705.704,1177.54 707.626,1176.7 709.548,1175.86 711.47,1175.01 713.392,1174.17 715.313,1173.33 717.235,1172.48 719.157,1171.64 721.079,1170.79 723.001,1169.95 724.923,1168.89 726.845,1167.47 728.767,1166.04 730.689,1164.61 732.611,1163.18 734.533,1161.75 736.455,1160.32 738.377,1158.9 740.299,1157.47 742.221,1156.04 744.143,1154.46 746.065,1152.46 747.987,1150.47 749.909,1148.47 751.83,1146.47 753.752,1144.48 755.674,1142.48 757.596,1140.49 759.518,1138.49 761.44,1136.5 763.362,1134.4 765.284,1131.87 767.206,1129.33 769.128,1126.79 771.05,1124.25 772.972,1121.71 774.894,1119.17 776.816,1116.63 778.738,1114.09 780.66,1111.56 782.582,1108.97 784.504,1105.92 786.426,1102.86 788.347,1099.81 790.269,1096.76 792.191,1093.71 794.113,1090.65 796.035,1087.6 797.957,1084.55 799.879,1081.49 801.801,1078.44 803.723,1074.91 805.645,1071.38 807.567,1067.84 809.489,1064.31 811.411,1060.78 813.333,1057.25 815.255,1053.71 817.177,1050.18 819.099,1046.65 821.021,1043.12 822.943,1039.18 824.865,1035.21 826.786,1031.24 828.708,1027.26 830.63,1023.29 832.552,1019.32 834.474,1015.35 836.396,1011.37 838.318,1007.4 840.24,1003.43 842.162,999.129 844.084,994.76 846.006,990.39 847.928,986.021 849.85,981.651 851.772,977.282 853.694,972.912 855.616,968.543 857.538,964.174 859.46,959.804 861.382,955.181 863.303,950.463 865.225,945.745 867.147,941.026 869.069,936.308 870.991,931.59 872.913,926.872 874.835,922.154 876.757,917.435 878.679,912.717 880.601,907.81 882.523,902.794 884.445,897.779 886.367,892.764 888.289,887.748 890.211,882.733 892.133,877.717 894.055,872.702 895.977,867.686 897.899,862.671 899.821,857.523 901.742,852.264 903.664,847.006 905.586,841.748 907.508,836.49 909.43,831.231 911.352,825.973 913.274,820.715 915.196,815.456 917.118,810.198 919.04,804.855 920.962,799.411 922.884,793.967 924.806,788.522 926.728,783.078 928.65,777.634 930.572,772.19 932.494,766.746 934.416,761.301 936.338,755.857 938.259,750.367 940.181,744.795 942.103,739.224 944.025,733.653 945.947,728.081 947.869,722.51 949.791,716.939 951.713,711.367 953.635,705.796 955.557,700.225 957.479,694.635 959.401,688.997 961.323,683.358 963.245,677.72 965.167,672.082 967.089,666.443 969.011,660.805 970.933,655.167 972.855,649.528 974.777,643.89 976.698,638.251 978.62,632.606 980.542,626.961 982.464,621.317 984.386,615.672 986.308,610.028 988.23,604.383 990.152,598.739 992.074,593.094 993.996,587.45 995.918,581.81 997.84,576.22 999.762,570.63 1001.68,565.041 1003.61,559.451 1005.53,553.861 1007.45,548.271 1009.37,542.681 1011.29,537.091 1013.22,531.501 1015.14,525.911 1017.06,520.437 1018.98,514.962 1020.9,509.487 1022.83,504.012 1024.75,498.537 1026.67,493.062 1028.59,487.587 1030.51,482.112 1032.43,476.637 1034.36,471.162 1036.28,465.846 1038.2,460.545 1040.12,455.244 1042.04,449.943 1043.97,444.642 1045.89,439.341 1047.81,434.041 1049.73,428.74 1051.65,423.439 1053.58,418.138 1055.5,413.027 1057.42,407.957 1059.34,402.888 1061.26,397.818 1063.19,392.749 1065.11,387.68 1067.03,382.61 1068.95,377.541 1070.87,372.471 1072.8,367.402 1074.72,362.541 1076.64,357.758 1078.56,352.975 1080.48,348.192 1082.41,343.409 1084.33,338.626 1086.25,333.843 1088.17,329.06 1090.09,324.277 1092.02,319.494 1093.94,314.927 1095.86,310.482 1097.78,306.038 1099.7,301.593 1101.63,297.149 1103.55,292.704 1105.47,288.26 1107.39,283.815 1109.31,279.371 1111.23,274.927 1113.16,270.693 1115.08,266.636 1117,262.579 1118.92,258.521 1120.84,254.464 1122.77,250.407 1124.69,246.349 1126.61,242.292 1128.53,238.235 1130.45,234.177 1132.38,230.316 1134.3,226.691 1136.22,223.065 1138.14,219.44 1140.06,215.814 1141.99,212.189 1143.91,208.563 1145.83,204.938 1147.75,201.312 1149.67,197.687 1151.6,194.233 1153.52,191.079 1155.44,187.926 1157.36,184.772 1159.28,181.619 1161.21,178.466 1163.13,175.312 1165.05,172.159 1166.97,169.005 1168.89,165.852 1170.82,162.837 1172.74,160.191 1174.66,157.545 1176.58,154.899 1178.5,152.253 1180.42,149.607 1182.35,146.961 1184.27,144.315 1186.19,141.67 1188.11,139.024 1190.03,136.476 1191.96,134.368 1193.88,132.259 1195.8,130.151 1197.72,128.043 1199.64,125.935 1201.57,123.827 1203.49,121.719 1205.41,119.611 1207.33,117.503 1209.25,115.446 1211.18,113.901 1213.1,112.355 1215.02,110.81 1216.94,109.264 1218.86,107.719 1220.79,106.174 1222.71,104.628 1224.63,103.083 1226.55,101.537 1228.47,99.9918 1230.4,99.0281 1232.32,98.0644 1234.24,97.1007 1236.16,96.1369 1238.08,95.1732 1240.01,94.2095 1241.93,93.2458 1243.85,92.2821 1245.77,91.3183 1247.69,90.3546 1249.62,89.9317 1251.54,89.5628 1253.46,89.1939 1255.38,88.825 1257.3,88.4562 1259.22,88.0873 1261.15,87.7184 1263.07,87.3495 1264.99,86.9807 1266.91,86.6118 1268.83,86.7354 1270.76,86.9684 1272.68,87.2015 1274.6,87.4345 1276.52,87.6676 1278.44,87.9006 1280.37,88.1337 1282.29,88.3667 1284.21,88.5998 1286.13,88.8328 1288.05,89.5043 1289.98,90.3402 1291.9,91.1761 1293.82,92.012 1295.74,92.8479 1297.66,93.6838 1299.59,94.5197 1301.51,95.3556 1303.43,96.1915 1305.35,97.0275 1307.27,98.2437 1309.2,99.6772 1311.12,101.111 1313.04,102.544 1314.96,103.978 1316.88,105.411 1318.81,106.845 1320.73,108.279 1322.65,109.712 1324.57,111.146 1326.49,112.899 1328.42,114.919 1330.34,116.939 1332.26,118.959 1334.18,120.979 1336.1,122.999 1338.02,125.019 1339.95,127.039 1341.87,129.058 1343.79,131.078 1345.71,133.357 1347.63,135.946 1349.56,138.535 1351.48,141.124 1353.4,143.713 1355.32,146.302 1357.24,148.891 1359.17,151.48 1361.09,154.069 1363.01,156.658 1364.93,159.445 1366.85,162.58 1368.78,165.715 1370.7,168.85 1372.62,171.985 1374.54,175.12 1376.46,178.255 1378.39,181.39 1380.31,184.525 1382.23,187.66 1384.15,190.936 1386.07,194.589 1388,198.241 1389.92,201.893 1391.84,205.546 1393.76,209.198 1395.68,212.85 1397.61,216.503 1399.53,220.155 1401.45,223.807 1403.37,227.548 1405.29,231.684 1407.21,235.819 1409.14,239.955 1411.06,244.091 1412.98,248.227 1414.9,252.362 1416.82,256.498 1418.75,260.634 1420.67,264.77 1422.59,268.946 1424.51,273.526 1426.43,278.107 1428.36,282.687 1430.28,287.267 1432.2,291.848 1434.12,296.428 1436.04,301.009 1437.97,305.589 1439.89,310.169 1441.81,314.75 1443.73,319.731 1445.65,324.713 1447.58,329.694 1449.5,334.676 1451.42,339.658 1453.34,344.639 1455.26,349.621 1457.19,354.602 1459.11,359.584 1461.03,364.565 1462.95,369.869 1464.87,375.204 1466.8,380.539 1468.72,385.875 1470.64,391.21 1472.56,396.545 1474.48,401.881 1476.41,407.216 1478.33,412.551 1480.25,417.887 1482.17,423.469 1484.09,429.107 1486.01,434.745 1487.94,440.383 1489.86,446.021 1491.78,451.659 1493.7,457.297 1495.62,462.935 1497.55,468.573 1499.47,474.211 1501.39,480.03 1503.31,485.917 1505.23,491.803 1507.16,497.69 1509.08,503.576 1511,509.463 1512.92,515.349 1514.84,521.236 1516.77,527.122 1518.69,533.008 1520.61,539.017 1522.53,545.095 1524.45,551.174 1526.38,557.252 1528.3,563.33 1530.22,569.409 1532.14,575.487 1534.06,581.565 1535.99,587.643 1537.91,593.722 1539.83,599.873 1541.75,606.084 1543.67,612.296 1545.6,618.507 1547.52,624.719 1549.44,630.93 1551.36,637.141 1553.28,643.353 1555.2,649.564 1557.13,655.776 1559.05,662.021 1560.97,668.305 1562.89,674.59 1564.81,680.874 1566.74,687.159 1568.66,693.444 1570.58,699.728 1572.5,706.013 1574.42,712.298 1576.35,718.582 1578.27,724.871 1580.19,731.168 1582.11,737.465 1584.03,743.762 1585.96,750.059 1587.88,756.356 1589.8,762.653 1591.72,768.95 1593.64,775.247 1595.57,781.544 1597.49,787.828 1599.41,794.077 1601.33,800.325 1603.25,806.574 1605.18,812.822 1607.1,819.071 1609.02,825.319 1610.94,831.568 1612.86,837.817 1614.79,844.065 1616.71,850.294 1618.63,856.434 1620.55,862.573 1622.47,868.713 1624.4,874.853 1626.32,880.992 1628.24,887.132 1630.16,893.272 1632.08,899.411 1634,905.551 1635.93,911.675 1637.85,917.647 1639.77,923.618 1641.69,929.59 1643.61,935.561 1645.54,941.533 1647.46,947.505 1649.38,953.476 1651.3,959.448 1653.22,965.419 1655.15,971.391 1657.07,977.137 1658.99,982.882 1660.91,988.628 1662.83,994.374 1664.76,1000.12 1666.68,1005.87 1668.6,1011.61 1670.52,1017.36 1672.44,1023.1 1674.37,1028.85 1676.29,1034.34 1678.21,1039.8 1680.13,1045.27 1682.05,1050.73 1683.98,1056.2 1685.9,1061.66 1687.82,1067.13 1689.74,1072.59 1691.66,1078.06 1693.59,1083.52 1695.51,1088.72 1697.43,1093.85 1699.35,1098.98 1701.27,1104.11 1703.19,1109.24 1705.12,1114.37 1707.04,1119.5 1708.96,1124.64 1710.88,1129.77 1712.8,1134.9 1714.73,1139.75 1716.65,1144.5 1718.57,1149.25 1720.49,1154 1722.41,1158.75 1724.34,1163.5 1726.26,1168.25 1728.18,1173 1730.1,1177.75 1732.02,1182.5 1733.95,1186.97 1735.87,1191.29 1737.79,1195.62 1739.71,1199.94 1741.63,1204.26 1743.56,1208.58 1745.48,1212.9 1747.4,1217.22 1749.32,1221.55 1751.24,1225.87 1753.17,1229.93 1755.09,1233.79 1757.01,1237.64 1758.93,1241.49 1760.85,1245.35 1762.78,1249.2 1764.7,1253.06 1766.62,1256.91 1768.54,1260.76 1770.46,1264.62 1772.39,1268.24 1774.31,1271.59 1776.23,1274.94 1778.15,1278.29 1780.07,1281.64 1781.99,1284.99 1783.92,1288.34 1785.84,1291.69 1787.76,1295.03 1789.68,1298.38 1791.6,1301.54 1793.53,1304.35 1795.45,1307.17 1797.37,1309.98 1799.29,1312.8 1801.21,1315.61 1803.14,1318.43 1805.06,1321.24 1806.98,1324.05 1808.9,1326.87 1810.82,1329.53 1812.75,1331.78 1814.67,1334.04 1816.59,1336.29 1818.51,1338.55 1820.43,1340.8 1822.36,1343.05 1824.28,1345.31 1826.2,1347.56 1828.12,1349.82 1830.04,1351.96 1831.97,1353.64 1833.89,1355.31 1835.81,1356.99 1837.73,1358.66 1839.65,1360.33 1841.58,1362.01 1843.5,1363.68 1845.42,1365.36 1847.34,1367.03 1849.26,1368.65 1851.19,1369.73 1853.11,1370.81 1855.03,1371.89 1856.95,1372.97 1858.87,1374.05 1860.79,1375.13 1862.72,1376.21 1864.64,1377.29 1866.56,1378.37 1868.48,1379.45 1870.4,1379.93 1872.33,1380.41 1874.25,1380.89 1876.17,1381.37 1878.09,1381.84 1880.01,1382.32 1881.94,1382.8 1883.86,1383.28 1885.78,1383.76 1887.7,1384.24 1889.62,1384.17 1891.55,1384.04 1893.47,1383.92 1895.39,1383.8 1897.31,1383.67 1899.23,1383.55 1901.16,1383.42 1903.08,1383.3 1905,1383.17 1906.92,1383.05 1908.84,1382.44 1910.77,1381.71 1912.69,1380.99 1914.61,1380.27 1916.53,1379.54 1918.45,1378.82 1920.38,1378.1 1922.3,1377.38 1924.22,1376.65 1926.14,1375.93 1928.06,1374.78 1929.98,1373.47 1931.91,1372.16 1933.83,1370.85 1935.75,1369.54 1937.67,1368.23 1939.59,1366.92 1941.52,1365.61 1943.44,1364.29 1945.36,1362.98 1947.28,1361.31 1949.2,1359.43 1951.13,1357.55 1953.05,1355.67 1954.97,1353.78 1956.89,1351.9 1958.81,1350.02 1960.74,1348.14 1962.66,1346.26 1964.58,1344.37 1966.5,1342.19 1968.42,1339.76 1970.35,1337.33 1972.27,1334.9 1974.19,1332.47 1976.11,1330.04 1978.03,1327.61 1979.96,1325.18 1981.88,1322.75 1983.8,1320.32 1985.72,1317.65 1987.64,1314.7 1989.57,1311.75 1991.49,1308.8 1993.41,1305.85 1995.33,1302.9 1997.25,1299.95 1999.18,1297 2001.1,1294.05 2003.02,1291.1 2004.94,1287.97 2006.86,1284.53 2008.78,1281.09 2010.71,1277.66 2012.63,1274.22 2014.55,1270.78 2016.47,1267.34 2018.39,1263.9 2020.32,1260.47 2022.24,1257.03 2024.16,1253.47 2026.08,1249.58 2028,1245.69 2029.93,1241.81 2031.85,1237.92 2033.77,1234.03 2035.69,1230.15 2037.61,1226.26 2039.54,1222.37 2041.46,1218.49 2043.38,1214.53 2045.3,1210.23 2047.22,1205.94 2049.15,1201.65 2051.07,1197.36 2052.99,1193.06 2054.91,1188.77 2056.83,1184.48 2058.76,1180.19 2060.68,1175.89 2062.6,1171.57 2064.52,1166.92 2066.44,1162.27 2068.37,1157.61 2070.29,1152.96 2072.21,1148.31 2074.13,1143.66 2076.05,1139.01 2077.97,1134.36 2079.9,1129.71 2081.82,1125.06 2083.74,1120.1 2085.66,1115.14 2087.58,1110.18 2089.51,1105.22 2091.43,1100.26 2093.35,1095.3 2095.27,1090.34 2097.19,1085.38 2099.12,1080.42 2101.04,1075.46 2102.96,1070.27 2104.88,1065.06 2106.8,1059.85 2108.73,1054.63 2110.65,1049.42 2112.57,1044.21 2114.49,1038.99 2116.41,1033.78 2118.34,1028.57 2120.26,1023.35 2122.18,1017.98 2124.1,1012.57 2126.02,1007.15 2127.95,1001.74 2129.87,996.332 2131.79,990.921 2133.71,985.51 2135.63,980.099 2137.56,974.688 2139.48,969.277 2141.4,963.764 2143.32,958.214 2145.24,952.664 2147.17,947.113 2149.09,941.563 2151.01,936.013 2152.93,930.462 2154.85,924.912 2156.77,919.362 2158.7,913.811 2160.62,908.211 2162.54,902.581 2164.46,896.951 2166.38,891.322 2168.31,885.692 2170.23,880.063 2172.15,874.433 2174.07,868.803 2175.99,863.174 2177.92,857.544 2179.84,851.904 2181.76,846.256 2183.68,840.608 2185.6,834.96 2187.53,829.312 2189.45,823.663 2191.37,818.015 2193.29,812.367 2195.21,806.719 2197.14,801.071 2199.06,795.442 2200.98,789.836 2202.9,784.23 2204.82,778.624 2206.75,773.018 2208.67,767.412 2210.59,761.806 2212.51,756.2 2214.43,750.594 2216.36,744.988 2218.28,739.42 2220.2,733.917 2222.12,728.413 2224.04,722.91 2225.96,717.407 2227.89,711.904 2229.81,706.401 2231.73,700.898 2233.65,695.395 2235.57,689.891 2237.5,684.432 2239.42,679.091 2241.34,673.75 2243.26,668.409 2245.18,663.069 2247.11,657.728 2249.03,652.387 2250.95,647.046 2252.87,641.705 2254.79,636.364 2256.72,631.063 2258.64,625.942 2260.56,620.821 2262.48,615.699 2264.4,610.578 2266.33,605.457 2268.25,600.336 2270.17,595.215 2272.09,590.094 2274.01,584.973 2275.94,579.877 2277.86,575.032 2279.78,570.186 2281.7,565.34 2283.62,560.495 2285.55,555.649 2287.47,550.804 2289.39,545.958 2291.31,541.112 2293.23,536.267 2295.16,531.421 "></polyline>
<polyline clip-path="url(#clip132)" style="stroke:#e26f46; stroke-linecap:round; stroke-linejoin:round; stroke-width:4; stroke-opacity:1; fill:none" stroke-dasharray="16, 10" points="375.129,531.421 377.051,537.718 378.972,544.014 380.894,550.309 382.816,556.602 384.738,562.893 386.66,569.181 388.582,575.465 390.504,581.745 392.426,588.021 394.348,594.29 396.27,600.554 398.192,606.812 400.114,613.062 402.036,619.304 403.958,625.538 405.88,631.763 407.802,637.979 409.724,644.184 411.646,650.379 413.568,656.563 415.489,662.734 417.411,668.893 419.333,675.039 421.255,681.172 423.177,687.29 425.099,693.393 427.021,699.481 428.943,705.553 430.865,711.609 432.787,717.647 434.709,723.668 436.631,729.67 438.553,735.654 440.475,741.618 442.397,747.562 444.319,753.486 446.241,759.389 448.163,765.27 450.085,771.129 452.007,776.965 453.928,782.777 455.85,788.566 457.772,794.331 459.694,800.07 461.616,805.785 463.538,811.473 465.46,817.134 467.382,822.769 469.304,828.375 471.226,833.954 473.148,839.504 475.07,845.025 476.992,850.516 478.914,855.976 480.836,861.406 482.758,866.805 484.68,872.172 486.602,877.507 488.524,882.809 490.445,888.077 492.367,893.312 494.289,898.512 496.211,903.678 498.133,908.809 500.055,913.903 501.977,918.962 503.899,923.984 505.821,928.969 507.743,933.916 509.665,938.825 511.587,943.695 513.509,948.527 515.431,953.319 517.353,958.071 519.275,962.783 521.197,967.454 523.119,972.083 525.041,976.672 526.963,981.218 528.884,985.721 530.806,990.182 532.728,994.599 534.65,998.973 536.572,1003.3 538.494,1007.59 540.416,1011.83 542.338,1016.02 544.26,1020.17 546.182,1024.27 548.104,1028.33 550.026,1032.34 551.948,1036.3 553.87,1040.22 555.792,1044.08 557.714,1047.9 559.636,1051.67 561.558,1055.39 563.48,1059.06 565.401,1062.68 567.323,1066.26 569.245,1069.78 571.167,1073.25 573.089,1076.67 575.011,1080.04 576.933,1083.35 578.855,1086.62 580.777,1089.83 582.699,1092.99 584.621,1096.1 586.543,1099.15 588.465,1102.15 590.387,1105.1 592.309,1108 594.231,1110.84 596.153,1113.62 598.075,1116.35 599.997,1119.03 601.918,1121.65 603.84,1124.21 605.762,1126.72 607.684,1129.18 609.606,1131.58 611.528,1133.92 613.45,1136.2 615.372,1138.43 617.294,1140.61 619.216,1142.72 621.138,1144.78 623.06,1146.78 624.982,1148.72 626.904,1150.61 628.826,1152.44 630.748,1154.21 632.67,1155.92 634.592,1157.58 636.514,1159.17 638.436,1160.71 640.357,1162.19 642.279,1163.61 644.201,1164.97 646.123,1166.27 648.045,1167.51 649.967,1168.7 651.889,1169.82 653.811,1170.89 655.733,1171.89 657.655,1172.84 659.577,1173.73 661.499,1174.56 663.421,1175.32 665.343,1176.03 667.265,1176.68 669.187,1177.27 671.109,1177.8 673.031,1178.27 674.953,1178.68 676.874,1179.03 678.796,1179.32 680.718,1179.55 682.64,1179.72 684.562,1179.83 686.484,1179.88 688.406,1179.88 690.328,1179.81 692.25,1179.68 694.172,1179.49 696.094,1179.25 698.016,1178.94 699.938,1178.57 701.86,1178.15 703.782,1177.67 705.704,1177.12 707.626,1176.52 709.548,1175.86 711.47,1175.14 713.392,1174.36 715.313,1173.52 717.235,1172.62 719.157,1171.67 721.079,1170.66 723.001,1169.58 724.923,1168.45 726.845,1167.27 728.767,1166.02 730.689,1164.72 732.611,1163.36 734.533,1161.94 736.455,1160.47 738.377,1158.94 740.299,1157.35 742.221,1155.7 744.143,1154 746.065,1152.24 747.987,1150.43 749.909,1148.56 751.83,1146.64 753.752,1144.66 755.674,1142.62 757.596,1140.53 759.518,1138.39 761.44,1136.19 763.362,1133.94 765.284,1131.63 767.206,1129.27 769.128,1126.86 771.05,1124.39 772.972,1121.88 774.894,1119.3 776.816,1116.68 778.738,1114.01 780.66,1111.28 782.582,1108.5 784.504,1105.67 786.426,1102.79 788.347,1099.86 790.269,1096.88 792.191,1093.86 794.113,1090.78 796.035,1087.65 797.957,1084.47 799.879,1081.25 801.801,1077.98 803.723,1074.66 805.645,1071.29 807.567,1067.88 809.489,1064.42 811.411,1060.91 813.333,1057.36 815.255,1053.76 817.177,1050.12 819.099,1046.43 821.021,1042.7 822.943,1038.93 824.865,1035.11 826.786,1031.25 828.708,1027.35 830.63,1023.4 832.552,1019.42 834.474,1015.39 836.396,1011.32 838.318,1007.21 840.24,1003.06 842.162,998.875 844.084,994.648 846.006,990.383 847.928,986.08 849.85,981.739 851.772,977.361 853.694,972.947 855.616,968.496 857.538,964.01 859.46,959.488 861.382,954.932 863.303,950.342 865.225,945.718 867.147,941.061 869.069,936.371 870.991,931.649 872.913,926.895 874.835,922.11 876.757,917.294 878.679,912.448 880.601,907.573 882.523,902.668 884.445,897.735 886.367,892.774 888.289,887.785 890.211,882.769 892.133,877.727 894.055,872.658 895.977,867.565 897.899,862.446 899.821,857.303 901.742,852.137 903.664,846.947 905.586,841.734 907.508,836.499 909.43,831.243 911.352,825.966 913.274,820.668 915.196,815.351 917.118,810.014 919.04,804.659 920.962,799.285 922.884,793.894 924.806,788.485 926.728,783.061 928.65,777.62 930.572,772.164 932.494,766.694 934.416,761.209 936.338,755.71 938.259,750.199 940.181,744.676 942.103,739.14 944.025,733.593 945.947,728.036 947.869,722.469 949.791,716.892 951.713,711.306 953.635,705.713 955.557,700.111 957.479,694.502 959.401,688.887 961.323,683.266 963.245,677.64 965.167,672.009 967.089,666.374 969.011,660.736 970.933,655.094 972.855,649.45 974.777,643.805 976.698,638.158 978.62,632.511 980.542,626.864 982.464,621.218 984.386,615.573 986.308,609.93 988.23,604.29 990.152,598.652 992.074,593.018 993.996,587.389 995.918,581.764 997.84,576.145 999.762,570.532 1001.68,564.925 1003.61,559.326 1005.53,553.735 1007.45,548.152 1009.37,542.578 1011.29,537.013 1013.22,531.459 1015.14,525.916 1017.06,520.384 1018.98,514.864 1020.9,509.357 1022.83,503.863 1024.75,498.382 1026.67,492.916 1028.59,487.465 1030.51,482.029 1032.43,476.61 1034.36,471.207 1036.28,465.821 1038.2,460.453 1040.12,455.103 1042.04,449.772 1043.97,444.46 1045.89,439.169 1047.81,433.898 1049.73,428.649 1051.65,423.421 1053.58,418.215 1055.5,413.033 1057.42,407.873 1059.34,402.738 1061.26,397.627 1063.19,392.541 1065.11,387.481 1067.03,382.447 1068.95,377.439 1070.87,372.459 1072.8,367.506 1074.72,362.581 1076.64,357.686 1078.56,352.819 1080.48,347.983 1082.41,343.177 1084.33,338.401 1086.25,333.657 1088.17,328.945 1090.09,324.265 1092.02,319.618 1093.94,315.005 1095.86,310.425 1097.78,305.879 1099.7,301.369 1101.63,296.894 1103.55,292.454 1105.47,288.051 1107.39,283.685 1109.31,279.356 1111.23,275.064 1113.16,270.811 1115.08,266.596 1117,262.421 1118.92,258.284 1120.84,254.188 1122.77,250.133 1124.69,246.118 1126.61,242.144 1128.53,238.212 1130.45,234.323 1132.38,230.475 1134.3,226.671 1136.22,222.91 1138.14,219.193 1140.06,215.521 1141.99,211.892 1143.91,208.309 1145.83,204.771 1147.75,201.279 1149.67,197.834 1151.6,194.434 1153.52,191.082 1155.44,187.777 1157.36,184.52 1159.28,181.31 1161.21,178.149 1163.13,175.037 1165.05,171.973 1166.97,168.96 1168.89,165.995 1170.82,163.081 1172.74,160.218 1174.66,157.405 1176.58,154.643 1178.5,151.932 1180.42,149.273 1182.35,146.666 1184.27,144.111 1186.19,141.609 1188.11,139.159 1190.03,136.762 1191.96,134.419 1193.88,132.13 1195.8,129.894 1197.72,127.713 1199.64,125.586 1201.57,123.513 1203.49,121.495 1205.41,119.533 1207.33,117.626 1209.25,115.774 1211.18,113.978 1213.1,112.238 1215.02,110.555 1216.94,108.927 1218.86,107.357 1220.79,105.843 1222.71,104.386 1224.63,102.986 1226.55,101.644 1228.47,100.359 1230.4,99.1312 1232.32,97.9616 1234.24,96.85 1236.16,95.7965 1238.08,94.8013 1240.01,93.8644 1241.93,92.986 1243.85,92.1662 1245.77,91.4051 1247.69,90.7029 1249.62,90.0596 1251.54,89.4753 1253.46,88.9502 1255.38,88.4843 1257.3,88.0777 1259.22,87.7304 1261.15,87.4426 1263.07,87.2143 1264.99,87.0455 1266.91,86.9363 1268.83,86.8868 1270.76,86.8969 1272.68,86.9667 1274.6,87.0963 1276.52,87.2857 1278.44,87.5348 1280.37,87.8437 1282.29,88.2123 1284.21,88.6408 1286.13,89.129 1288.05,89.6769 1289.98,90.2846 1291.9,90.952 1293.82,91.679 1295.74,92.4657 1297.66,93.3119 1299.59,94.2177 1301.51,95.1829 1303.43,96.2076 1305.35,97.2915 1307.27,98.4347 1309.2,99.6371 1311.12,100.899 1313.04,102.219 1314.96,103.598 1316.88,105.037 1318.81,106.533 1320.73,108.089 1322.65,109.703 1324.57,111.375 1326.49,113.105 1328.42,114.893 1330.34,116.74 1332.26,118.643 1334.18,120.605 1336.1,122.624 1338.02,124.7 1339.95,126.833 1341.87,129.023 1343.79,131.27 1345.71,133.573 1347.63,135.933 1349.56,138.349 1351.48,140.82 1353.4,143.348 1355.32,145.93 1357.24,148.568 1359.17,151.261 1361.09,154.009 1363.01,156.811 1364.93,159.668 1366.85,162.578 1368.78,165.542 1370.7,168.56 1372.62,171.631 1374.54,174.755 1376.46,177.931 1378.39,181.16 1380.31,184.441 1382.23,187.774 1384.15,191.159 1386.07,194.594 1388,198.081 1389.92,201.617 1391.84,205.205 1393.76,208.842 1395.68,212.528 1397.61,216.264 1399.53,220.049 1401.45,223.882 1403.37,227.764 1405.29,231.693 1407.21,235.67 1409.14,239.694 1411.06,243.765 1412.98,247.882 1414.9,252.045 1416.82,256.254 1418.75,260.508 1420.67,264.807 1422.59,269.15 1424.51,273.537 1426.43,277.968 1428.36,282.442 1430.28,286.958 1432.2,291.518 1434.12,296.119 1436.04,300.761 1437.97,305.445 1439.89,310.169 1441.81,314.934 1443.73,319.738 1445.65,324.582 1447.58,329.464 1449.5,334.385 1451.42,339.344 1453.34,344.34 1455.26,349.373 1457.19,354.443 1459.11,359.549 1461.03,364.691 1462.95,369.867 1464.87,375.078 1466.8,380.324 1468.72,385.603 1470.64,390.915 1472.56,396.259 1474.48,401.636 1476.41,407.045 1478.33,412.484 1480.25,417.954 1482.17,423.455 1484.09,428.985 1486.01,434.543 1487.94,440.131 1489.86,445.746 1491.78,451.389 1493.7,457.059 1495.62,462.755 1497.55,468.477 1499.47,474.225 1501.39,479.997 1503.31,485.793 1505.23,491.613 1507.16,497.456 1509.08,503.322 1511,509.21 1512.92,515.119 1514.84,521.049 1516.77,527 1518.69,532.97 1520.61,538.96 1522.53,544.968 1524.45,550.994 1526.38,557.038 1528.3,563.098 1530.22,569.175 1532.14,575.268 1534.06,581.376 1535.99,587.499 1537.91,593.635 1539.83,599.786 1541.75,605.949 1543.67,612.124 1545.6,618.311 1547.52,624.509 1549.44,630.718 1551.36,636.936 1553.28,643.164 1555.2,649.401 1557.13,655.646 1559.05,661.898 1560.97,668.158 1562.89,674.424 1564.81,680.695 1566.74,686.972 1568.66,693.253 1570.58,699.539 1572.5,705.828 1574.42,712.119 1576.35,718.413 1578.27,724.708 1580.19,731.005 1582.11,737.302 1584.03,743.598 1585.96,749.894 1587.88,756.189 1589.8,762.481 1591.72,768.771 1593.64,775.058 1595.57,781.341 1597.49,787.619 1599.41,793.893 1601.33,800.161 1603.25,806.423 1605.18,812.678 1607.1,818.926 1609.02,825.166 1610.94,831.397 1612.86,837.62 1614.79,843.832 1616.71,850.034 1618.63,856.226 1620.55,862.405 1622.47,868.573 1624.4,874.728 1626.32,880.87 1628.24,886.998 1630.16,893.112 1632.08,899.211 1634,905.294 1635.93,911.361 1637.85,917.411 1639.77,923.444 1641.69,929.459 1643.61,935.455 1645.54,941.433 1647.46,947.391 1649.38,953.329 1651.3,959.246 1653.22,965.143 1655.15,971.017 1657.07,976.869 1658.99,982.697 1660.91,988.503 1662.83,994.284 1664.76,1000.04 1666.68,1005.77 1668.6,1011.48 1670.52,1017.16 1672.44,1022.81 1674.37,1028.44 1676.29,1034.04 1678.21,1039.61 1680.13,1045.15 1682.05,1050.66 1683.98,1056.14 1685.9,1061.59 1687.82,1067.01 1689.74,1072.4 1691.66,1077.76 1693.59,1083.08 1695.51,1088.37 1697.43,1093.63 1699.35,1098.86 1701.27,1104.05 1703.19,1109.2 1705.12,1114.32 1707.04,1119.4 1708.96,1124.45 1710.88,1129.46 1712.8,1134.43 1714.73,1139.37 1716.65,1144.27 1718.57,1149.13 1720.49,1153.95 1722.41,1158.72 1724.34,1163.46 1726.26,1168.16 1728.18,1172.82 1730.1,1177.44 1732.02,1182.01 1733.95,1186.55 1735.87,1191.04 1737.79,1195.48 1739.71,1199.89 1741.63,1204.25 1743.56,1208.56 1745.48,1212.84 1747.4,1217.06 1749.32,1221.24 1751.24,1225.38 1753.17,1229.46 1755.09,1233.51 1757.01,1237.5 1758.93,1241.45 1760.85,1245.35 1762.78,1249.2 1764.7,1253 1766.62,1256.76 1768.54,1260.46 1770.46,1264.12 1772.39,1267.73 1774.31,1271.28 1776.23,1274.79 1778.15,1278.24 1780.07,1281.65 1781.99,1285 1783.92,1288.3 1785.84,1291.55 1787.76,1294.74 1789.68,1297.89 1791.6,1300.98 1793.53,1304.02 1795.45,1307 1797.37,1309.93 1799.29,1312.81 1801.21,1315.63 1803.14,1318.4 1805.06,1321.12 1806.98,1323.77 1808.9,1326.38 1810.82,1328.93 1812.75,1331.42 1814.67,1333.86 1816.59,1336.24 1818.51,1338.56 1820.43,1340.83 1822.36,1343.04 1824.28,1345.2 1826.2,1347.29 1828.12,1349.34 1830.04,1351.32 1831.97,1353.24 1833.89,1355.11 1835.81,1356.92 1837.73,1358.68 1839.65,1360.37 1841.58,1362.01 1843.5,1363.58 1845.42,1365.1 1847.34,1366.56 1849.26,1367.96 1851.19,1369.31 1853.11,1370.59 1855.03,1371.82 1856.95,1372.98 1858.87,1374.09 1860.79,1375.14 1862.72,1376.12 1864.64,1377.05 1866.56,1377.92 1868.48,1378.73 1870.4,1379.48 1872.33,1380.17 1874.25,1380.8 1876.17,1381.37 1878.09,1381.88 1880.01,1382.33 1881.94,1382.73 1883.86,1383.06 1885.78,1383.33 1887.7,1383.54 1889.62,1383.69 1891.55,1383.79 1893.47,1383.82 1895.39,1383.79 1897.31,1383.7 1899.23,1383.56 1901.16,1383.35 1903.08,1383.09 1905,1382.76 1906.92,1382.38 1908.84,1381.94 1910.77,1381.43 1912.69,1380.87 1914.61,1380.25 1916.53,1379.57 1918.45,1378.83 1920.38,1378.03 1922.3,1377.18 1924.22,1376.26 1926.14,1375.29 1928.06,1374.26 1929.98,1373.17 1931.91,1372.02 1933.83,1370.82 1935.75,1369.55 1937.67,1368.23 1939.59,1366.86 1941.52,1365.42 1943.44,1363.93 1945.36,1362.38 1947.28,1360.77 1949.2,1359.11 1951.13,1357.39 1953.05,1355.62 1954.97,1353.79 1956.89,1351.9 1958.81,1349.96 1960.74,1347.96 1962.66,1345.91 1964.58,1343.8 1966.5,1341.64 1968.42,1339.43 1970.35,1337.16 1972.27,1334.84 1974.19,1332.46 1976.11,1330.03 1978.03,1327.55 1979.96,1325.01 1981.88,1322.43 1983.8,1319.79 1985.72,1317.1 1987.64,1314.35 1989.57,1311.56 1991.49,1308.72 1993.41,1305.82 1995.33,1302.88 1997.25,1299.88 1999.18,1296.84 2001.1,1293.74 2003.02,1290.6 2004.94,1287.41 2006.86,1284.17 2008.78,1280.88 2010.71,1277.55 2012.63,1274.17 2014.55,1270.74 2016.47,1267.26 2018.39,1263.74 2020.32,1260.18 2022.24,1256.57 2024.16,1252.91 2026.08,1249.21 2028,1245.47 2029.93,1241.68 2031.85,1237.85 2033.77,1233.97 2035.69,1230.06 2037.61,1226.1 2039.54,1222.1 2041.46,1218.06 2043.38,1213.98 2045.3,1209.86 2047.22,1205.7 2049.15,1201.5 2051.07,1197.26 2052.99,1192.98 2054.91,1188.67 2056.83,1184.32 2058.76,1179.93 2060.68,1175.5 2062.6,1171.04 2064.52,1166.54 2066.44,1162.01 2068.37,1157.44 2070.29,1152.84 2072.21,1148.21 2074.13,1143.54 2076.05,1138.84 2077.97,1134.11 2079.9,1129.35 2081.82,1124.55 2083.74,1119.73 2085.66,1114.87 2087.58,1109.99 2089.51,1105.07 2091.43,1100.13 2093.35,1095.16 2095.27,1090.16 2097.19,1085.14 2099.12,1080.09 2101.04,1075.01 2102.96,1069.91 2104.88,1064.79 2106.8,1059.63 2108.73,1054.46 2110.65,1049.26 2112.57,1044.04 2114.49,1038.8 2116.41,1033.54 2118.34,1028.26 2120.26,1022.95 2122.18,1017.63 2124.1,1012.29 2126.02,1006.93 2127.95,1001.55 2129.87,996.15 2131.79,990.736 2133.71,985.307 2135.63,979.861 2137.56,974.401 2139.48,968.926 2141.4,963.437 2143.32,957.934 2145.24,952.419 2147.17,946.892 2149.09,941.353 2151.01,935.803 2152.93,930.242 2154.85,924.672 2156.77,919.092 2158.7,913.504 2160.62,907.908 2162.54,902.304 2164.46,896.693 2166.38,891.076 2168.31,885.454 2170.23,879.826 2172.15,874.194 2174.07,868.557 2175.99,862.918 2177.92,857.276 2179.84,851.631 2181.76,845.985 2183.68,840.339 2185.6,834.692 2187.53,829.045 2189.45,823.399 2191.37,817.754 2193.29,812.112 2195.21,806.472 2197.14,800.836 2199.06,795.203 2200.98,789.575 2202.9,783.952 2204.82,778.335 2206.75,772.724 2208.67,767.119 2210.59,761.523 2212.51,755.934 2214.43,750.354 2216.36,744.783 2218.28,739.221 2220.2,733.671 2222.12,728.131 2224.04,722.603 2225.96,717.087 2227.89,711.583 2229.81,706.093 2231.73,700.617 2233.65,695.156 2235.57,689.709 2237.5,684.278 2239.42,678.864 2241.34,673.466 2243.26,668.085 2245.18,662.723 2247.11,657.379 2249.03,652.054 2250.95,646.749 2252.87,641.464 2254.79,636.199 2256.72,630.957 2258.64,625.736 2260.56,620.537 2262.48,615.361 2264.4,610.209 2266.33,605.082 2268.25,599.978 2270.17,594.9 2272.09,589.848 2274.01,584.822 2275.94,579.823 2277.86,574.851 2279.78,569.907 2281.7,564.991 2283.62,560.105 2285.55,555.247 2287.47,550.42 2289.39,545.624 2291.31,540.858 2293.23,536.124 2295.16,531.421 "></polyline>
<polyline clip-path="url(#clip132)" style="stroke:#3da44d; stroke-linecap:round; stroke-linejoin:round; stroke-width:8; stroke-opacity:1; fill:none" stroke-dasharray="32, 16, 4, 16" points="375.129,531.407 377.051,537.715 378.972,544.003 380.894,550.339 382.816,556.605 384.738,562.899 386.66,569.229 388.582,575.473 390.504,581.76 392.426,588.062 394.348,594.335 396.27,600.6 398.192,606.866 400.114,613.096 402.036,619.376 403.958,625.592 405.88,631.822 407.802,638.052 409.724,644.254 411.646,650.47 413.568,656.679 415.489,662.824 417.411,668.997 419.333,675.142 421.255,681.294 423.177,687.417 425.099,693.54 427.021,699.6 428.943,705.731 430.865,711.783 432.787,717.842 434.709,723.88 436.631,729.848 438.553,735.864 440.475,741.838 442.397,747.777 444.319,753.687 446.241,759.619 448.163,765.507 450.085,771.346 452.007,777.2 453.928,783.003 455.85,788.842 457.772,794.61 459.694,800.371 461.616,806.067 463.538,811.785 465.46,817.447 467.382,823.065 469.304,828.669 471.226,834.231 473.148,839.828 475.07,845.347 476.992,850.845 478.914,856.293 480.836,861.705 482.758,867.139 484.68,872.494 486.602,877.842 488.524,883.119 490.445,888.389 492.367,893.659 494.289,898.816 496.211,904.007 498.133,909.142 500.055,914.22 501.977,919.284 503.899,924.284 505.821,929.298 507.743,934.226 509.665,939.148 511.587,944.055 513.509,948.849 515.431,953.642 517.353,958.372 519.275,963.037 521.197,967.788 523.119,972.34 525.041,976.949 526.963,981.486 528.884,985.995 530.806,990.461 532.728,994.871 534.65,999.223 536.572,1003.53 538.494,1007.81 540.416,1012.06 542.338,1016.24 544.26,1020.39 546.182,1024.46 548.104,1028.53 550.026,1032.54 551.948,1036.48 553.87,1040.37 555.792,1044.23 557.714,1048.02 559.636,1051.82 561.558,1055.52 563.48,1059.18 565.401,1062.78 567.323,1066.33 569.245,1069.87 571.167,1073.32 573.089,1076.7 575.011,1080.06 576.933,1083.39 578.855,1086.62 580.777,1089.85 582.699,1092.97 584.621,1096.09 586.543,1099.12 588.465,1102.11 590.387,1105.03 592.309,1107.91 594.231,1110.73 596.153,1113.51 598.075,1116.23 599.997,1118.9 601.918,1121.52 603.84,1124.03 605.762,1126.54 607.684,1128.98 609.606,1131.35 611.528,1133.7 613.45,1135.95 615.372,1138.22 617.294,1140.34 619.216,1142.42 621.138,1144.49 623.06,1146.5 624.982,1148.41 626.904,1150.24 628.826,1152.11 630.748,1153.83 632.67,1155.54 634.592,1157.14 636.514,1158.74 638.436,1160.31 640.357,1161.73 642.279,1163.13 644.201,1164.49 646.123,1165.82 648.045,1167.05 649.967,1168.2 651.889,1169.31 653.811,1170.35 655.733,1171.32 657.655,1172.26 659.577,1173.15 661.499,1173.97 663.421,1174.73 665.343,1175.39 667.265,1176.06 669.187,1176.65 671.109,1177.16 673.031,1177.59 674.953,1178 676.874,1178.37 678.796,1178.65 680.718,1178.84 682.64,1178.99 684.562,1179.14 686.484,1179.17 688.406,1179.15 690.328,1179.07 692.25,1178.93 694.172,1178.72 696.094,1178.48 698.016,1178.16 699.938,1177.78 701.86,1177.32 703.782,1176.87 705.704,1176.33 707.626,1175.71 709.548,1175.03 711.47,1174.28 713.392,1173.5 715.313,1172.66 717.235,1171.78 719.157,1170.82 721.079,1169.83 723.001,1168.74 724.923,1167.59 726.845,1166.39 728.767,1165.15 730.689,1163.86 732.611,1162.47 734.533,1161.09 736.455,1159.63 738.377,1158.05 740.299,1156.46 742.221,1154.84 744.143,1153.12 746.065,1151.36 747.987,1149.57 749.909,1147.72 751.83,1145.76 753.752,1143.77 755.674,1141.76 757.596,1139.7 759.518,1137.51 761.44,1135.36 763.362,1133.1 765.284,1130.78 767.206,1128.44 769.128,1126.03 771.05,1123.59 772.972,1121.05 774.894,1118.46 776.816,1115.87 778.738,1113.2 780.66,1110.5 782.582,1107.74 784.504,1104.89 786.426,1102 788.347,1099.07 790.269,1096.15 792.191,1093.13 794.113,1090.05 796.035,1086.9 797.957,1083.77 799.879,1080.54 801.801,1077.26 803.723,1073.99 805.645,1070.63 807.567,1067.22 809.489,1063.79 811.411,1060.27 813.333,1056.76 815.255,1053.19 817.177,1049.51 819.099,1045.87 821.021,1042.14 822.943,1038.4 824.865,1034.6 826.786,1030.72 828.708,1026.85 830.63,1022.92 832.552,1018.9 834.474,1014.95 836.396,1010.89 838.318,1006.81 840.24,1002.64 842.162,998.498 844.084,994.274 846.006,990.042 847.928,985.739 849.85,981.436 851.772,977.069 853.694,972.681 855.616,968.258 857.538,963.763 859.46,959.268 861.382,954.716 863.303,950.172 865.225,945.584 867.147,940.926 869.069,936.289 870.991,931.545 872.913,926.816 874.835,922.044 876.757,917.25 878.679,912.456 880.601,907.599 882.523,902.699 884.445,897.827 886.367,892.849 888.289,887.92 890.211,882.899 892.133,877.863 894.055,872.842 895.977,867.743 897.899,862.665 899.821,857.551 901.742,852.402 903.664,847.218 905.586,842.033 907.508,836.827 909.43,831.6 911.352,826.33 913.274,821.052 915.196,815.74 917.118,810.455 919.04,805.107 920.962,799.759 922.884,794.396 924.806,789.041 926.728,783.607 928.65,778.167 930.572,772.783 932.494,767.285 934.416,761.823 936.338,756.368 938.259,750.856 940.181,745.366 942.103,739.89 944.025,734.307 945.947,728.802 947.869,723.24 949.791,717.657 951.713,712.103 953.635,706.584 955.557,700.973 957.479,695.361 959.401,689.807 961.323,684.188 963.245,678.605 965.167,672.98 967.089,667.354 969.011,661.707 970.933,656.096 972.855,650.477 974.777,644.844 976.698,639.233 978.62,633.593 980.542,627.96 982.464,622.335 984.386,616.688 986.308,611.069 988.23,605.472 990.152,599.853 992.074,594.221 993.996,588.645 995.918,582.984 997.84,577.401 999.762,571.782 1001.68,566.206 1003.61,560.609 1005.53,555.005 1007.45,549.436 1009.37,543.91 1011.29,538.356 1013.22,532.801 1015.14,527.289 1017.06,521.777 1018.98,516.244 1020.9,510.768 1022.83,505.27 1024.75,499.801 1026.67,494.339 1028.59,488.884 1030.51,483.422 1032.43,478.024 1034.36,472.69 1036.28,467.271 1038.2,461.908 1040.12,456.567 1042.04,451.269 1043.97,445.934 1045.89,440.657 1047.81,435.394 1049.73,430.174 1051.65,424.947 1053.58,419.705 1055.5,414.513 1057.42,409.343 1059.34,404.244 1061.26,399.151 1063.19,394.052 1065.11,388.967 1067.03,383.96 1068.95,378.925 1070.87,373.961 1072.8,368.989 1074.72,364.075 1076.64,359.167 1078.56,354.317 1080.48,349.467 1082.41,344.659 1084.33,339.887 1086.25,335.164 1088.17,330.421 1090.09,325.72 1092.02,321.104 1093.94,316.445 1095.86,311.865 1097.78,307.342 1099.7,302.783 1101.63,298.281 1103.55,293.922 1105.47,289.469 1107.39,285.088 1109.31,280.736 1111.23,276.447 1113.16,272.137 1115.08,267.934 1117,263.752 1118.92,259.606 1120.84,255.467 1122.77,251.406 1124.69,247.409 1126.61,243.419 1128.53,239.443 1130.45,235.539 1132.38,231.691 1134.3,227.907 1136.22,224.088 1138.14,220.362 1140.06,216.656 1141.99,213.015 1143.91,209.459 1145.83,205.853 1147.75,202.354 1149.67,198.876 1151.6,195.505 1153.52,192.105 1155.44,188.77 1157.36,185.484 1159.28,182.262 1161.21,179.055 1163.13,175.961 1165.05,172.832 1166.97,169.788 1168.89,166.858 1170.82,163.892 1172.74,161.004 1174.66,158.153 1176.58,155.393 1178.5,152.662 1180.42,149.967 1182.35,147.328 1184.27,144.753 1186.19,142.214 1188.11,139.718 1190.03,137.35 1191.96,134.96 1193.88,132.606 1195.8,130.401 1197.72,128.168 1199.64,126.013 1201.57,123.872 1203.49,121.867 1205.41,119.875 1207.33,117.905 1209.25,116.049 1211.18,114.214 1213.1,112.422 1215.02,110.715 1216.94,109.079 1218.86,107.472 1220.79,105.929 1222.71,104.471 1224.63,103.027 1226.55,101.654 1228.47,100.332 1230.4,99.0656 1232.32,97.8708 1234.24,96.7328 1236.16,95.6234 1238.08,94.5992 1240.01,93.6604 1241.93,92.7359 1243.85,91.8895 1245.77,91.093 1247.69,90.3533 1249.62,89.699 1251.54,89.0661 1253.46,88.5398 1255.38,88.0135 1257.3,87.5725 1259.22,87.2169 1261.15,86.8755 1263.07,86.648 1264.99,86.4417 1266.91,86.3208 1268.83,86.1857 1270.76,86.207 1272.68,86.2283 1274.6,86.3279 1276.52,86.5199 1278.44,86.7546 1280.37,87.0036 1282.29,87.3236 1284.21,87.7219 1286.13,88.1842 1288.05,88.6962 1289.98,89.2794 1291.9,89.9266 1293.82,90.6449 1295.74,91.3775 1297.66,92.2096 1299.59,93.0844 1301.51,93.9947 1303.43,95.0188 1305.35,96.0785 1307.27,97.1951 1309.2,98.3828 1311.12,99.6132 1313.04,100.893 1314.96,102.259 1316.88,103.667 1318.81,105.125 1320.73,106.69 1322.65,108.233 1324.57,109.911 1326.49,111.604 1328.42,113.403 1330.34,115.196 1332.26,117.102 1334.18,119.072 1336.1,121.006 1338.02,123.076 1339.95,125.202 1341.87,127.386 1343.79,129.583 1345.71,131.873 1347.63,134.213 1349.56,136.617 1351.48,139.128 1353.4,141.603 1355.32,144.135 1357.24,146.795 1359.17,149.44 1361.09,152.214 1363.01,154.952 1364.93,157.825 1366.85,160.748 1368.78,163.679 1370.7,166.673 1372.62,169.745 1374.54,172.86 1376.46,176.004 1378.39,179.204 1380.31,182.476 1382.23,185.825 1384.15,189.239 1386.07,192.625 1388,196.11 1389.92,199.637 1391.84,203.2 1393.76,206.87 1395.68,210.504 1397.61,214.231 1399.53,218.036 1401.45,221.855 1403.37,225.753 1405.29,229.671 1407.21,233.654 1409.14,237.694 1411.06,241.719 1412.98,245.858 1414.9,250.005 1416.82,254.222 1418.75,258.475 1420.67,262.785 1422.59,267.166 1424.51,271.554 1426.43,275.949 1428.36,280.451 1430.28,285.01 1432.2,289.548 1434.12,294.135 1436.04,298.793 1437.97,303.494 1439.89,308.231 1441.81,313.017 1443.73,317.782 1445.65,322.64 1447.58,327.562 1449.5,332.469 1451.42,337.461 1453.34,342.468 1455.26,347.561 1457.19,352.596 1459.11,357.724 1461.03,362.901 1462.95,368.114 1464.87,373.306 1466.8,378.598 1468.72,383.846 1470.64,389.209 1472.56,394.585 1474.48,399.912 1476.41,405.382 1478.33,410.858 1480.25,416.32 1482.17,421.839 1484.09,427.415 1486.01,432.919 1487.94,438.609 1489.86,444.228 1491.78,449.924 1493.7,455.607 1495.62,461.339 1497.55,467.057 1499.47,472.846 1501.39,478.614 1503.31,484.418 1505.23,490.307 1507.16,496.167 1509.08,502.077 1511,507.98 1512.92,513.94 1514.84,519.878 1516.77,525.874 1518.69,531.834 1520.61,537.843 1522.53,543.91 1524.45,550.012 1526.38,556.065 1528.3,562.167 1530.22,568.283 1532.14,574.378 1534.06,580.558 1535.99,586.646 1537.91,592.855 1539.83,599.028 1541.75,605.23 1543.67,611.418 1545.6,617.676 1547.52,623.942 1549.44,630.158 1551.36,636.409 1553.28,642.689 1555.2,648.962 1557.13,655.249 1559.05,661.55 1560.97,667.809 1562.89,674.146 1564.81,680.419 1566.74,686.756 1568.66,693.05 1570.58,699.394 1572.5,705.695 1574.42,712.018 1576.35,718.362 1578.27,724.698 1580.19,731.035 1582.11,737.401 1584.03,743.68 1585.96,750.046 1587.88,756.404 1589.8,762.705 1591.72,769.028 1593.64,775.379 1595.57,781.666 1597.49,787.996 1599.41,794.34 1601.33,800.612 1603.25,806.935 1605.18,813.229 1607.1,819.481 1609.02,825.746 1610.94,832.055 1612.86,838.278 1614.79,844.536 1616.71,850.745 1618.63,856.997 1620.55,863.255 1622.47,869.436 1624.4,875.645 1626.32,881.811 1628.24,887.934 1630.16,894.1 1632.08,900.274 1634,906.34 1635.93,912.471 1637.85,918.53 1639.77,924.59 1641.69,930.678 1643.61,936.645 1645.54,942.661 1647.46,948.664 1649.38,954.645 1651.3,960.591 1653.22,966.501 1655.15,972.404 1657.07,978.314 1658.99,984.182 1660.91,990.013 1662.83,995.795 1664.76,1001.58 1666.68,1007.33 1668.6,1013.07 1670.52,1018.74 1672.44,1024.46 1674.37,1030.08 1676.29,1035.7 1678.21,1041.33 1680.13,1046.89 1682.05,1052.45 1683.98,1057.95 1685.9,1063.37 1687.82,1068.83 1689.74,1074.26 1691.66,1079.61 1693.59,1084.97 1695.51,1090.26 1697.43,1095.54 1699.35,1100.8 1701.27,1105.98 1703.19,1111.15 1705.12,1116.29 1707.04,1121.41 1708.96,1126.47 1710.88,1131.46 1712.8,1136.44 1714.73,1141.37 1716.65,1146.3 1718.57,1151.19 1720.49,1155.98 1722.41,1160.8 1724.34,1165.54 1726.26,1170.25 1728.18,1174.91 1730.1,1179.53 1732.02,1184.07 1733.95,1188.66 1735.87,1193.15 1737.79,1197.6 1739.71,1201.98 1741.63,1206.33 1743.56,1210.65 1745.48,1214.92 1747.4,1219.16 1749.32,1223.35 1751.24,1227.46 1753.17,1231.56 1755.09,1235.59 1757.01,1239.57 1758.93,1243.51 1760.85,1247.38 1762.78,1251.26 1764.7,1255.03 1766.62,1258.8 1768.54,1262.49 1770.46,1266.1 1772.39,1269.7 1774.31,1273.24 1776.23,1276.76 1778.15,1280.19 1780.07,1283.58 1781.99,1286.92 1783.92,1290.18 1785.84,1293.36 1787.76,1296.61 1789.68,1299.7 1791.6,1302.79 1793.53,1305.82 1795.45,1308.78 1797.37,1311.7 1799.29,1314.53 1801.21,1317.31 1803.14,1320.07 1805.06,1322.78 1806.98,1325.38 1808.9,1327.94 1810.82,1330.49 1812.75,1332.94 1814.67,1335.36 1816.59,1337.76 1818.51,1340.02 1820.43,1342.25 1822.36,1344.44 1824.28,1346.58 1826.2,1348.65 1828.12,1350.65 1830.04,1352.57 1831.97,1354.43 1833.89,1356.32 1835.81,1358.11 1837.73,1359.8 1839.65,1361.47 1841.58,1363.05 1843.5,1364.61 1845.42,1366.08 1847.34,1367.51 1849.26,1368.86 1851.19,1370.17 1853.11,1371.44 1855.03,1372.61 1856.95,1373.77 1858.87,1374.83 1860.79,1375.83 1862.72,1376.79 1864.64,1377.66 1866.56,1378.51 1868.48,1379.26 1870.4,1379.97 1872.33,1380.59 1874.25,1381.23 1876.17,1381.77 1878.09,1382.21 1880.01,1382.61 1881.94,1382.98 1883.86,1383.27 1885.78,1383.49 1887.7,1383.67 1889.62,1383.76 1891.55,1383.84 1893.47,1383.82 1895.39,1383.73 1897.31,1383.6 1899.23,1383.4 1901.16,1383.2 1903.08,1382.87 1905,1382.5 1906.92,1382.08 1908.84,1381.59 1910.77,1381.08 1912.69,1380.44 1914.61,1379.8 1916.53,1379.07 1918.45,1378.3 1920.38,1377.47 1922.3,1376.57 1924.22,1375.68 1926.14,1374.63 1928.06,1373.52 1929.98,1372.44 1931.91,1371.23 1933.83,1370.02 1935.75,1368.72 1937.67,1367.36 1939.59,1365.95 1941.52,1364.46 1943.44,1362.96 1945.36,1361.38 1947.28,1359.75 1949.2,1358.01 1951.13,1356.31 1953.05,1354.48 1954.97,1352.65 1956.89,1350.68 1958.81,1348.73 1960.74,1346.72 1962.66,1344.64 1964.58,1342.5 1966.5,1340.3 1968.42,1338.08 1970.35,1335.81 1972.27,1333.44 1974.19,1331.07 1976.11,1328.61 1978.03,1326.08 1979.96,1323.55 1981.88,1320.96 1983.8,1318.31 1985.72,1315.57 1987.64,1312.84 1989.57,1310.01 1991.49,1307.16 1993.41,1304.25 1995.33,1301.28 1997.25,1298.29 1999.18,1295.23 2001.1,1292.14 2003.02,1289 2004.94,1285.8 2006.86,1282.55 2008.78,1279.25 2010.71,1275.92 2012.63,1272.55 2014.55,1269.06 2016.47,1265.63 2018.39,1262.08 2020.32,1258.56 2022.24,1254.94 2024.16,1251.27 2026.08,1247.54 2028,1243.84 2029.93,1240.08 2031.85,1236.23 2033.77,1232.36 2035.69,1228.46 2037.61,1224.54 2039.54,1220.51 2041.46,1216.48 2043.38,1212.46 2045.3,1208.34 2047.22,1204.2 2049.15,1200 2051.07,1195.76 2052.99,1191.54 2054.91,1187.27 2056.83,1182.89 2058.76,1178.53 2060.68,1174.14 2062.6,1169.69 2064.52,1165.2 2066.44,1160.69 2068.37,1156.16 2070.29,1151.58 2072.21,1146.99 2074.13,1142.33 2076.05,1137.7 2077.97,1132.97 2079.9,1128.22 2081.82,1123.48 2083.74,1118.7 2085.66,1113.86 2087.58,1109.03 2089.51,1104.12 2091.43,1099.2 2093.35,1094.3 2095.27,1089.32 2097.19,1084.33 2099.12,1079.29 2101.04,1074.28 2102.96,1069.22 2104.88,1064.11 2106.8,1059 2108.73,1053.83 2110.65,1048.71 2112.57,1043.52 2114.49,1038.33 2116.41,1033.08 2118.34,1027.85 2120.26,1022.59 2122.18,1017.28 2124.1,1011.98 2126.02,1006.68 2127.95,1001.26 2129.87,995.98 2131.79,990.604 2133.71,985.206 2135.63,979.786 2137.56,974.388 2139.48,968.94 2141.4,963.493 2143.32,958.016 2145.24,952.54 2147.17,946.993 2149.09,941.538 2151.01,935.99 2152.93,930.507 2154.85,924.952 2156.77,919.405 2158.7,913.865 2160.62,908.267 2162.54,902.72 2164.46,897.123 2166.38,891.512 2168.31,885.936 2170.23,880.331 2172.15,874.713 2174.07,869.123 2175.99,863.497 2177.92,857.893 2179.84,852.239 2181.76,846.599 2183.68,841.009 2185.6,835.369 2187.53,829.743 2189.45,824.096 2191.37,818.464 2193.29,812.824 2195.21,807.241 2197.14,801.587 2199.06,795.968 2200.98,790.371 2202.9,784.71 2204.82,779.134 2206.75,773.508 2208.67,767.897 2210.59,762.293 2212.51,756.724 2214.43,751.105 2216.36,745.551 2218.28,740.004 2220.2,734.421 2222.12,728.923 2224.04,723.376 2225.96,717.8 2227.89,712.309 2229.81,706.804 2231.73,701.314 2233.65,695.831 2235.57,690.383 2237.5,684.921 2239.42,679.516 2241.34,674.046 2243.26,668.691 2245.18,663.314 2247.11,657.916 2249.03,652.582 2250.95,647.241 2252.87,641.914 2254.79,636.651 2256.72,631.36 2258.64,626.118 2260.56,620.898 2262.48,615.692 2264.4,610.529 2266.33,605.337 2268.25,600.238 2270.17,595.131 2272.09,590.067 2274.01,585.011 2275.94,579.99 2277.86,574.968 2279.78,570.04 2281.7,565.068 2283.62,560.161 2285.55,555.289 2287.47,550.439 2289.39,545.645 2291.31,540.887 2293.23,536.115 2295.16,531.421 "></polyline>
<path clip-path="url(#clip130)" d="M1853.41 300.469 L2284.91 300.469 L2284.91 93.1086 L1853.41 93.1086  Z" fill="#ffffff" fill-rule="evenodd" fill-opacity="1"></path>
<polyline clip-path="url(#clip130)" style="stroke:#000000; stroke-linecap:round; stroke-linejoin:round; stroke-width:4; stroke-opacity:1; fill:none" points="1853.41,300.469 2284.91,300.469 2284.91,93.1086 1853.41,93.1086 1853.41,300.469 "></polyline>
<polyline clip-path="url(#clip130)" style="stroke:#009af9; stroke-linecap:round; stroke-linejoin:round; stroke-width:4; stroke-opacity:1; fill:none" points="1876.02,144.949 2011.7,144.949 "></polyline>
<path clip-path="url(#clip130)" d="M2034.32 127.669 L2054.18 127.669 L2054.18 131.604 L2038.99 131.604 L2038.99 141.789 L2052.7 141.789 L2052.7 145.724 L2038.99 145.724 L2038.99 162.229 L2034.32 162.229 L2034.32 127.669 Z" fill="#000000" fill-rule="nonzero" fill-opacity="1"></path><path clip-path="url(#clip130)" d="M2061.58 127.669 L2083.44 127.669 L2083.44 131.604 L2066.26 131.604 L2066.26 141.835 L2082.72 141.835 L2082.72 145.77 L2066.26 145.77 L2066.26 158.293 L2083.85 158.293 L2083.85 162.229 L2061.58 162.229 L2061.58 127.669 Z" fill="#000000" fill-rule="nonzero" fill-opacity="1"></path><path clip-path="url(#clip130)" d="M2091.54 127.669 L2098.51 127.669 L2107.33 151.187 L2116.19 127.669 L2123.16 127.669 L2123.16 162.229 L2118.6 162.229 L2118.6 131.882 L2109.69 155.585 L2104.99 155.585 L2096.08 131.882 L2096.08 162.229 L2091.54 162.229 L2091.54 127.669 Z" fill="#000000" fill-rule="nonzero" fill-opacity="1"></path><polyline clip-path="url(#clip130)" style="stroke:#e26f46; stroke-linecap:round; stroke-linejoin:round; stroke-width:4; stroke-opacity:1; fill:none" stroke-dasharray="16, 10" points="1876.02,196.789 2011.7,196.789 "></polyline>
<path clip-path="url(#clip130)" d="M2050.15 184.115 L2043.81 201.314 L2056.52 201.314 L2050.15 184.115 M2047.51 179.509 L2052.81 179.509 L2065.98 214.069 L2061.12 214.069 L2057.97 205.203 L2042.4 205.203 L2039.25 214.069 L2034.32 214.069 L2047.51 179.509 Z" fill="#000000" fill-rule="nonzero" fill-opacity="1"></path><path clip-path="url(#clip130)" d="M2092.39 198.421 L2092.39 214.069 L2088.14 214.069 L2088.14 198.559 Q2088.14 194.879 2086.7 193.05 Q2085.27 191.222 2082.39 191.222 Q2078.95 191.222 2076.96 193.421 Q2074.96 195.62 2074.96 199.416 L2074.96 214.069 L2070.68 214.069 L2070.68 188.143 L2074.96 188.143 L2074.96 192.171 Q2076.49 189.833 2078.55 188.675 Q2080.64 187.518 2083.34 187.518 Q2087.81 187.518 2090.1 190.296 Q2092.39 193.05 2092.39 198.421 Z" fill="#000000" fill-rule="nonzero" fill-opacity="1"></path><path clip-path="url(#clip130)" d="M2112.67 201.036 Q2107.51 201.036 2105.52 202.217 Q2103.53 203.397 2103.53 206.245 Q2103.53 208.513 2105.01 209.856 Q2106.52 211.175 2109.08 211.175 Q2112.63 211.175 2114.76 208.675 Q2116.91 206.152 2116.91 201.985 L2116.91 201.036 L2112.67 201.036 M2121.17 199.277 L2121.17 214.069 L2116.91 214.069 L2116.91 210.133 Q2115.45 212.495 2113.27 213.629 Q2111.1 214.74 2107.95 214.74 Q2103.97 214.74 2101.61 212.518 Q2099.27 210.272 2099.27 206.522 Q2099.27 202.147 2102.19 199.925 Q2105.13 197.703 2110.94 197.703 L2116.91 197.703 L2116.91 197.286 Q2116.91 194.347 2114.96 192.749 Q2113.04 191.129 2109.55 191.129 Q2107.33 191.129 2105.22 191.661 Q2103.11 192.194 2101.17 193.259 L2101.17 189.323 Q2103.51 188.421 2105.7 187.981 Q2107.9 187.518 2109.99 187.518 Q2115.61 187.518 2118.39 190.434 Q2121.17 193.351 2121.17 199.277 Z" fill="#000000" fill-rule="nonzero" fill-opacity="1"></path><path clip-path="url(#clip130)" d="M2129.94 178.05 L2134.2 178.05 L2134.2 214.069 L2129.94 214.069 L2129.94 178.05 Z" fill="#000000" fill-rule="nonzero" fill-opacity="1"></path><path clip-path="url(#clip130)" d="M2153.9 216.476 Q2152.09 221.106 2150.38 222.518 Q2148.67 223.93 2145.8 223.93 L2142.39 223.93 L2142.39 220.365 L2144.89 220.365 Q2146.65 220.365 2147.63 219.532 Q2148.6 218.698 2149.78 215.596 L2150.54 213.652 L2140.06 188.143 L2144.57 188.143 L2152.67 208.421 L2160.77 188.143 L2165.29 188.143 L2153.9 216.476 Z" fill="#000000" fill-rule="nonzero" fill-opacity="1"></path><path clip-path="url(#clip130)" d="M2175.38 180.782 L2175.38 188.143 L2184.15 188.143 L2184.15 191.453 L2175.38 191.453 L2175.38 205.527 Q2175.38 208.698 2176.24 209.601 Q2177.12 210.504 2179.78 210.504 L2184.15 210.504 L2184.15 214.069 L2179.78 214.069 Q2174.85 214.069 2172.97 212.24 Q2171.1 210.388 2171.1 205.527 L2171.1 191.453 L2167.97 191.453 L2167.97 188.143 L2171.1 188.143 L2171.1 180.782 L2175.38 180.782 Z" fill="#000000" fill-rule="nonzero" fill-opacity="1"></path><path clip-path="url(#clip130)" d="M2189.76 188.143 L2194.01 188.143 L2194.01 214.069 L2189.76 214.069 L2189.76 188.143 M2189.76 178.05 L2194.01 178.05 L2194.01 183.444 L2189.76 183.444 L2189.76 178.05 Z" fill="#000000" fill-rule="nonzero" fill-opacity="1"></path><path clip-path="url(#clip130)" d="M2221.58 189.138 L2221.58 193.12 Q2219.78 192.124 2217.95 191.638 Q2216.14 191.129 2214.29 191.129 Q2210.15 191.129 2207.86 193.768 Q2205.57 196.384 2205.57 201.129 Q2205.57 205.874 2207.86 208.513 Q2210.15 211.129 2214.29 211.129 Q2216.14 211.129 2217.95 210.643 Q2219.78 210.133 2221.58 209.138 L2221.58 213.073 Q2219.8 213.907 2217.88 214.323 Q2215.98 214.74 2213.83 214.74 Q2207.97 214.74 2204.52 211.059 Q2201.07 207.379 2201.07 201.129 Q2201.07 194.786 2204.55 191.152 Q2208.04 187.518 2214.11 187.518 Q2216.07 187.518 2217.95 187.935 Q2219.82 188.328 2221.58 189.138 Z" fill="#000000" fill-rule="nonzero" fill-opacity="1"></path><path clip-path="url(#clip130)" d="M2240.77 201.036 Q2235.61 201.036 2233.62 202.217 Q2231.63 203.397 2231.63 206.245 Q2231.63 208.513 2233.11 209.856 Q2234.62 211.175 2237.19 211.175 Q2240.73 211.175 2242.86 208.675 Q2245.01 206.152 2245.01 201.985 L2245.01 201.036 L2240.77 201.036 M2249.27 199.277 L2249.27 214.069 L2245.01 214.069 L2245.01 210.133 Q2243.55 212.495 2241.38 213.629 Q2239.2 214.74 2236.05 214.74 Q2232.07 214.74 2229.71 212.518 Q2227.37 210.272 2227.37 206.522 Q2227.37 202.147 2230.29 199.925 Q2233.23 197.703 2239.04 197.703 L2245.01 197.703 L2245.01 197.286 Q2245.01 194.347 2243.07 192.749 Q2241.14 191.129 2237.65 191.129 Q2235.43 191.129 2233.32 191.661 Q2231.21 192.194 2229.27 193.259 L2229.27 189.323 Q2231.61 188.421 2233.81 187.981 Q2236.01 187.518 2238.09 187.518 Q2243.71 187.518 2246.49 190.434 Q2249.27 193.351 2249.27 199.277 Z" fill="#000000" fill-rule="nonzero" fill-opacity="1"></path><path clip-path="url(#clip130)" d="M2258.04 178.05 L2262.3 178.05 L2262.3 214.069 L2258.04 214.069 L2258.04 178.05 Z" fill="#000000" fill-rule="nonzero" fill-opacity="1"></path><polyline clip-path="url(#clip130)" style="stroke:#3da44d; stroke-linecap:round; stroke-linejoin:round; stroke-width:8; stroke-opacity:1; fill:none" stroke-dasharray="32, 16, 4, 16" points="1876.02,248.629 2011.7,248.629 "></polyline>
<path clip-path="url(#clip130)" d="M2034.32 231.349 L2056.17 231.349 L2056.17 235.284 L2038.99 235.284 L2038.99 245.515 L2055.45 245.515 L2055.45 249.45 L2038.99 249.45 L2038.99 261.973 L2056.58 261.973 L2056.58 265.909 L2034.32 265.909 L2034.32 231.349 Z" fill="#000000" fill-rule="nonzero" fill-opacity="1"></path><path clip-path="url(#clip130)" d="M2064.27 231.349 L2068.95 231.349 L2068.95 261.973 L2085.77 261.973 L2085.77 265.909 L2064.27 265.909 L2064.27 231.349 Z" fill="#000000" fill-rule="nonzero" fill-opacity="1"></path><path clip-path="url(#clip130)" d="M2090.68 231.349 L2097.65 231.349 L2106.47 254.867 L2115.33 231.349 L2122.3 231.349 L2122.3 265.909 L2117.74 265.909 L2117.74 235.562 L2108.83 259.265 L2104.13 259.265 L2095.22 235.562 L2095.22 265.909 L2090.68 265.909 L2090.68 231.349 Z" fill="#000000" fill-rule="nonzero" fill-opacity="1"></path></svg>