<svg xmlns="http://www.w3.org/2000/svg" xmlns:xlink="http://www.w3.org/1999/xlink" width="600" height="300" viewBox="0 0 2400 1200">
<defs>
  <clipPath id="clip150">
    <rect x="0" y="0" width="2400" height="1200"></rect>
  </clipPath>
</defs>
<path clip-path="url(#clip150)" d="M0 1200 L2400 1200 L2400 0 L0 0  Z" fill="#ffffff" fill-rule="evenodd" fill-opacity="1"></path>
<defs>
  <clipPath id="clip151">
    <rect x="480" y="0" width="1681" height="1200"></rect>
  </clipPath>
</defs>
<path clip-path="url(#clip150)" d="M305.648 1047.7 L2352.76 1047.7 L2352.76 47.2441 L305.648 47.2441  Z" fill="#ffffff" fill-rule="evenodd" fill-opacity="1"></path>
<defs>
  <clipPath id="clip152">
    <rect x="305" y="47" width="2048" height="1001"></rect>
  </clipPath>
</defs>
<polyline clip-path="url(#clip152)" style="stroke:#000000; stroke-linecap:round; stroke-linejoin:round; stroke-width:2; stroke-opacity:0.1; fill:none" points="363.585,1047.7 363.585,47.2441 "></polyline>
<polyline clip-path="url(#clip152)" style="stroke:#000000; stroke-linecap:round; stroke-linejoin:round; stroke-width:2; stroke-opacity:0.1; fill:none" points="846.393,1047.7 846.393,47.2441 "></polyline>
<polyline clip-path="url(#clip152)" style="stroke:#000000; stroke-linecap:round; stroke-linejoin:round; stroke-width:2; stroke-opacity:0.1; fill:none" points="1329.2,1047.7 1329.2,47.2441 "></polyline>
<polyline clip-path="url(#clip152)" style="stroke:#000000; stroke-linecap:round; stroke-linejoin:round; stroke-width:2; stroke-opacity:0.1; fill:none" points="1812.01,1047.7 1812.01,47.2441 "></polyline>
<polyline clip-path="url(#clip152)" style="stroke:#000000; stroke-linecap:round; stroke-linejoin:round; stroke-width:2; stroke-opacity:0.1; fill:none" points="2294.82,1047.7 2294.82,47.2441 "></polyline>
<polyline clip-path="url(#clip152)" style="stroke:#000000; stroke-linecap:round; stroke-linejoin:round; stroke-width:2; stroke-opacity:0.1; fill:none" points="305.648,833.233 2352.76,833.233 "></polyline>
<polyline clip-path="url(#clip152)" style="stroke:#000000; stroke-linecap:round; stroke-linejoin:round; stroke-width:2; stroke-opacity:0.1; fill:none" points="305.648,616.148 2352.76,616.148 "></polyline>
<polyline clip-path="url(#clip152)" style="stroke:#000000; stroke-linecap:round; stroke-linejoin:round; stroke-width:2; stroke-opacity:0.1; fill:none" points="305.648,399.064 2352.76,399.064 "></polyline>
<polyline clip-path="url(#clip152)" style="stroke:#000000; stroke-linecap:round; stroke-linejoin:round; stroke-width:2; stroke-opacity:0.1; fill:none" points="305.648,181.979 2352.76,181.979 "></polyline>
<polyline clip-path="url(#clip150)" style="stroke:#000000; stroke-linecap:round; stroke-linejoin:round; stroke-width:4; stroke-opacity:1; fill:none" points="305.648,1047.7 2352.76,1047.7 "></polyline>
<polyline clip-path="url(#clip150)" style="stroke:#000000; stroke-linecap:round; stroke-linejoin:round; stroke-width:4; stroke-opacity:1; fill:none" points="363.585,1047.7 363.585,1028.8 "></polyline>
<polyline clip-path="url(#clip150)" style="stroke:#000000; stroke-linecap:round; stroke-linejoin:round; stroke-width:4; stroke-opacity:1; fill:none" points="846.393,1047.7 846.393,1028.8 "></polyline>
<polyline clip-path="url(#clip150)" style="stroke:#000000; stroke-linecap:round; stroke-linejoin:round; stroke-width:4; stroke-opacity:1; fill:none" points="1329.2,1047.7 1329.2,1028.8 "></polyline>
<polyline clip-path="url(#clip150)" style="stroke:#000000; stroke-linecap:round; stroke-linejoin:round; stroke-width:4; stroke-opacity:1; fill:none" points="1812.01,1047.7 1812.01,1028.8 "></polyline>
<polyline clip-path="url(#clip150)" style="stroke:#000000; stroke-linecap:round; stroke-linejoin:round; stroke-width:4; stroke-opacity:1; fill:none" points="2294.82,1047.7 2294.82,1028.8 "></polyline>
<path clip-path="url(#clip150)" d="M325.888 1078.62 Q322.277 1078.62 320.448 1082.18 Q318.643 1085.72 318.643 1092.85 Q318.643 1099.96 320.448 1103.53 Q322.277 1107.07 325.888 1107.07 Q329.522 1107.07 331.328 1103.53 Q333.157 1099.96 333.157 1092.85 Q333.157 1085.72 331.328 1082.18 Q329.522 1078.62 325.888 1078.62 M325.888 1074.91 Q331.698 1074.91 334.754 1079.52 Q337.833 1084.1 337.833 1092.85 Q337.833 1101.58 334.754 1106.19 Q331.698 1110.77 325.888 1110.77 Q320.078 1110.77 316.999 1106.19 Q313.944 1101.58 313.944 1092.85 Q313.944 1084.1 316.999 1079.52 Q320.078 1074.91 325.888 1074.91 Z" fill="#000000" fill-rule="nonzero" fill-opacity="1"></path><path clip-path="url(#clip150)" d="M346.05 1104.22 L350.934 1104.22 L350.934 1110.1 L346.05 1110.1 L346.05 1104.22 Z" fill="#000000" fill-rule="nonzero" fill-opacity="1"></path><path clip-path="url(#clip150)" d="M371.119 1078.62 Q367.508 1078.62 365.68 1082.18 Q363.874 1085.72 363.874 1092.85 Q363.874 1099.96 365.68 1103.53 Q367.508 1107.07 371.119 1107.07 Q374.754 1107.07 376.559 1103.53 Q378.388 1099.96 378.388 1092.85 Q378.388 1085.72 376.559 1082.18 Q374.754 1078.62 371.119 1078.62 M371.119 1074.91 Q376.93 1074.91 379.985 1079.52 Q383.064 1084.1 383.064 1092.85 Q383.064 1101.58 379.985 1106.19 Q376.93 1110.77 371.119 1110.77 Q365.309 1110.77 362.231 1106.19 Q359.175 1101.58 359.175 1092.85 Q359.175 1084.1 362.231 1079.52 Q365.309 1074.91 371.119 1074.91 Z" fill="#000000" fill-rule="nonzero" fill-opacity="1"></path><path clip-path="url(#clip150)" d="M401.281 1078.62 Q397.67 1078.62 395.842 1082.18 Q394.036 1085.72 394.036 1092.85 Q394.036 1099.96 395.842 1103.53 Q397.67 1107.07 401.281 1107.07 Q404.916 1107.07 406.721 1103.53 Q408.55 1099.96 408.55 1092.85 Q408.55 1085.72 406.721 1082.18 Q404.916 1078.62 401.281 1078.62 M401.281 1074.91 Q407.092 1074.91 410.147 1079.52 Q413.226 1084.1 413.226 1092.85 Q413.226 1101.58 410.147 1106.19 Q407.092 1110.77 401.281 1110.77 Q395.471 1110.77 392.393 1106.19 Q389.337 1101.58 389.337 1092.85 Q389.337 1084.1 392.393 1079.52 Q395.471 1074.91 401.281 1074.91 Z" fill="#000000" fill-rule="nonzero" fill-opacity="1"></path><path clip-path="url(#clip150)" d="M809.194 1078.62 Q805.583 1078.62 803.755 1082.18 Q801.949 1085.72 801.949 1092.85 Q801.949 1099.96 803.755 1103.53 Q805.583 1107.07 809.194 1107.07 Q812.829 1107.07 814.634 1103.53 Q816.463 1099.96 816.463 1092.85 Q816.463 1085.72 814.634 1082.18 Q812.829 1078.62 809.194 1078.62 M809.194 1074.91 Q815.005 1074.91 818.06 1079.52 Q821.139 1084.1 821.139 1092.85 Q821.139 1101.58 818.06 1106.19 Q815.005 1110.77 809.194 1110.77 Q803.384 1110.77 800.306 1106.19 Q797.25 1101.58 797.25 1092.85 Q797.25 1084.1 800.306 1079.52 Q803.384 1074.91 809.194 1074.91 Z" fill="#000000" fill-rule="nonzero" fill-opacity="1"></path><path clip-path="url(#clip150)" d="M829.356 1104.22 L834.241 1104.22 L834.241 1110.1 L829.356 1110.1 L829.356 1104.22 Z" fill="#000000" fill-rule="nonzero" fill-opacity="1"></path><path clip-path="url(#clip150)" d="M848.453 1106.16 L864.773 1106.16 L864.773 1110.1 L842.829 1110.1 L842.829 1106.16 Q845.491 1103.41 850.074 1098.78 Q854.68 1094.13 855.861 1092.79 Q858.106 1090.26 858.986 1088.53 Q859.889 1086.77 859.889 1085.08 Q859.889 1082.32 857.944 1080.59 Q856.023 1078.85 852.921 1078.85 Q850.722 1078.85 848.268 1079.61 Q845.838 1080.38 843.06 1081.93 L843.06 1077.21 Q845.884 1076.07 848.338 1075.49 Q850.791 1074.91 852.828 1074.91 Q858.199 1074.91 861.393 1077.6 Q864.588 1080.29 864.588 1084.78 Q864.588 1086.91 863.777 1088.83 Q862.99 1090.72 860.884 1093.32 Q860.305 1093.99 857.203 1097.21 Q854.102 1100.4 848.453 1106.16 Z" fill="#000000" fill-rule="nonzero" fill-opacity="1"></path><path clip-path="url(#clip150)" d="M874.634 1075.54 L892.99 1075.54 L892.99 1079.48 L878.916 1079.48 L878.916 1087.95 Q879.935 1087.6 880.953 1087.44 Q881.972 1087.25 882.99 1087.25 Q888.777 1087.25 892.157 1090.42 Q895.537 1093.6 895.537 1099.01 Q895.537 1104.59 892.064 1107.69 Q888.592 1110.77 882.273 1110.77 Q880.097 1110.77 877.828 1110.4 Q875.583 1110.03 873.176 1109.29 L873.176 1104.59 Q875.259 1105.72 877.481 1106.28 Q879.703 1106.84 882.18 1106.84 Q886.185 1106.84 888.523 1104.73 Q890.861 1102.62 890.861 1099.01 Q890.861 1095.4 888.523 1093.29 Q886.185 1091.19 882.18 1091.19 Q880.305 1091.19 878.43 1091.6 Q876.578 1092.02 874.634 1092.9 L874.634 1075.54 Z" fill="#000000" fill-rule="nonzero" fill-opacity="1"></path><path clip-path="url(#clip150)" d="M1291.51 1078.62 Q1287.89 1078.62 1286.07 1082.18 Q1284.26 1085.72 1284.26 1092.85 Q1284.26 1099.96 1286.07 1103.53 Q1287.89 1107.07 1291.51 1107.07 Q1295.14 1107.07 1296.95 1103.53 Q1298.77 1099.96 1298.77 1092.85 Q1298.77 1085.72 1296.95 1082.18 Q1295.14 1078.62 1291.51 1078.62 M1291.51 1074.91 Q1297.32 1074.91 1300.37 1079.52 Q1303.45 1084.1 1303.45 1092.85 Q1303.45 1101.58 1300.37 1106.19 Q1297.32 1110.77 1291.51 1110.77 Q1285.7 1110.77 1282.62 1106.19 Q1279.56 1101.58 1279.56 1092.85 Q1279.56 1084.1 1282.62 1079.52 Q1285.7 1074.91 1291.51 1074.91 Z" fill="#000000" fill-rule="nonzero" fill-opacity="1"></path><path clip-path="url(#clip150)" d="M1311.67 1104.22 L1316.55 1104.22 L1316.55 1110.1 L1311.67 1110.1 L1311.67 1104.22 Z" fill="#000000" fill-rule="nonzero" fill-opacity="1"></path><path clip-path="url(#clip150)" d="M1326.78 1075.54 L1345.14 1075.54 L1345.14 1079.48 L1331.07 1079.48 L1331.07 1087.95 Q1332.08 1087.6 1333.1 1087.44 Q1334.12 1087.25 1335.14 1087.25 Q1340.93 1087.25 1344.31 1090.42 Q1347.69 1093.6 1347.69 1099.01 Q1347.69 1104.59 1344.21 1107.69 Q1340.74 1110.77 1334.42 1110.77 Q1332.25 1110.77 1329.98 1110.4 Q1327.73 1110.03 1325.32 1109.29 L1325.32 1104.59 Q1327.41 1105.72 1329.63 1106.28 Q1331.85 1106.84 1334.33 1106.84 Q1338.33 1106.84 1340.67 1104.73 Q1343.01 1102.62 1343.01 1099.01 Q1343.01 1095.4 1340.67 1093.29 Q1338.33 1091.19 1334.33 1091.19 Q1332.45 1091.19 1330.58 1091.6 Q1328.73 1092.02 1326.78 1092.9 L1326.78 1075.54 Z" fill="#000000" fill-rule="nonzero" fill-opacity="1"></path><path clip-path="url(#clip150)" d="M1366.9 1078.62 Q1363.29 1078.62 1361.46 1082.18 Q1359.65 1085.72 1359.65 1092.85 Q1359.65 1099.96 1361.46 1103.53 Q1363.29 1107.07 1366.9 1107.07 Q1370.53 1107.07 1372.34 1103.53 Q1374.17 1099.96 1374.17 1092.85 Q1374.17 1085.72 1372.34 1082.18 Q1370.53 1078.62 1366.9 1078.62 M1366.9 1074.91 Q1372.71 1074.91 1375.76 1079.52 Q1378.84 1084.1 1378.84 1092.85 Q1378.84 1101.58 1375.76 1106.19 Q1372.71 1110.77 1366.9 1110.77 Q1361.09 1110.77 1358.01 1106.19 Q1354.95 1101.58 1354.95 1092.85 Q1354.95 1084.1 1358.01 1079.52 Q1361.09 1074.91 1366.9 1074.91 Z" fill="#000000" fill-rule="nonzero" fill-opacity="1"></path><path clip-path="url(#clip150)" d="M1774.81 1078.62 Q1771.2 1078.62 1769.37 1082.18 Q1767.57 1085.72 1767.57 1092.85 Q1767.57 1099.96 1769.37 1103.53 Q1771.2 1107.07 1774.81 1107.07 Q1778.45 1107.07 1780.25 1103.53 Q1782.08 1099.96 1782.08 1092.85 Q1782.08 1085.72 1780.25 1082.18 Q1778.45 1078.62 1774.81 1078.62 M1774.81 1074.91 Q1780.62 1074.91 1783.68 1079.52 Q1786.76 1084.1 1786.76 1092.85 Q1786.76 1101.58 1783.68 1106.19 Q1780.62 1110.77 1774.81 1110.77 Q1769 1110.77 1765.92 1106.19 Q1762.87 1101.58 1762.87 1092.85 Q1762.87 1084.1 1765.92 1079.52 Q1769 1074.91 1774.81 1074.91 Z" fill="#000000" fill-rule="nonzero" fill-opacity="1"></path><path clip-path="url(#clip150)" d="M1794.97 1104.22 L1799.86 1104.22 L1799.86 1110.1 L1794.97 1110.1 L1794.97 1104.22 Z" fill="#000000" fill-rule="nonzero" fill-opacity="1"></path><path clip-path="url(#clip150)" d="M1808.86 1075.54 L1831.08 1075.54 L1831.08 1077.53 L1818.54 1110.1 L1813.65 1110.1 L1825.46 1079.48 L1808.86 1079.48 L1808.86 1075.54 Z" fill="#000000" fill-rule="nonzero" fill-opacity="1"></path><path clip-path="url(#clip150)" d="M1840.25 1075.54 L1858.61 1075.54 L1858.61 1079.48 L1844.53 1079.48 L1844.53 1087.95 Q1845.55 1087.6 1846.57 1087.44 Q1847.59 1087.25 1848.61 1087.25 Q1854.39 1087.25 1857.77 1090.42 Q1861.15 1093.6 1861.15 1099.01 Q1861.15 1104.59 1857.68 1107.69 Q1854.21 1110.77 1847.89 1110.77 Q1845.71 1110.77 1843.45 1110.4 Q1841.2 1110.03 1838.79 1109.29 L1838.79 1104.59 Q1840.88 1105.72 1843.1 1106.28 Q1845.32 1106.84 1847.8 1106.84 Q1851.8 1106.84 1854.14 1104.73 Q1856.48 1102.62 1856.48 1099.01 Q1856.48 1095.4 1854.14 1093.29 Q1851.8 1091.19 1847.8 1091.19 Q1845.92 1091.19 1844.05 1091.6 Q1842.2 1092.02 1840.25 1092.9 L1840.25 1075.54 Z" fill="#000000" fill-rule="nonzero" fill-opacity="1"></path><path clip-path="url(#clip150)" d="M2246.89 1106.16 L2254.53 1106.16 L2254.53 1079.8 L2246.22 1081.47 L2246.22 1077.21 L2254.48 1075.54 L2259.16 1075.54 L2259.16 1106.16 L2266.8 1106.16 L2266.8 1110.1 L2246.89 1110.1 L2246.89 1106.16 Z" fill="#000000" fill-rule="nonzero" fill-opacity="1"></path><path clip-path="url(#clip150)" d="M2276.24 1104.22 L2281.13 1104.22 L2281.13 1110.1 L2276.24 1110.1 L2276.24 1104.22 Z" fill="#000000" fill-rule="nonzero" fill-opacity="1"></path><path clip-path="url(#clip150)" d="M2301.31 1078.62 Q2297.7 1078.62 2295.87 1082.18 Q2294.07 1085.72 2294.07 1092.85 Q2294.07 1099.96 2295.87 1103.53 Q2297.7 1107.07 2301.31 1107.07 Q2304.95 1107.07 2306.75 1103.53 Q2308.58 1099.96 2308.58 1092.85 Q2308.58 1085.72 2306.75 1082.18 Q2304.95 1078.62 2301.31 1078.62 M2301.31 1074.91 Q2307.12 1074.91 2310.18 1079.52 Q2313.26 1084.1 2313.26 1092.85 Q2313.26 1101.58 2310.18 1106.19 Q2307.12 1110.77 2301.31 1110.77 Q2295.5 1110.77 2292.42 1106.19 Q2289.37 1101.58 2289.37 1092.85 Q2289.37 1084.1 2292.42 1079.52 Q2295.5 1074.91 2301.31 1074.91 Z" fill="#000000" fill-rule="nonzero" fill-opacity="1"></path><path clip-path="url(#clip150)" d="M2331.47 1078.62 Q2327.86 1078.62 2326.03 1082.18 Q2324.23 1085.72 2324.23 1092.85 Q2324.23 1099.96 2326.03 1103.53 Q2327.86 1107.07 2331.47 1107.07 Q2335.11 1107.07 2336.91 1103.53 Q2338.74 1099.96 2338.74 1092.85 Q2338.74 1085.72 2336.91 1082.18 Q2335.11 1078.62 2331.47 1078.62 M2331.47 1074.91 Q2337.28 1074.91 2340.34 1079.52 Q2343.42 1084.1 2343.42 1092.85 Q2343.42 1101.58 2340.34 1106.19 Q2337.28 1110.77 2331.47 1110.77 Q2325.66 1110.77 2322.58 1106.19 Q2319.53 1101.58 2319.53 1092.85 Q2319.53 1084.1 2322.58 1079.52 Q2325.66 1074.91 2331.47 1074.91 Z" fill="#000000" fill-rule="nonzero" fill-opacity="1"></path><path clip-path="url(#clip150)" d="M1345.82 1156.92 L1332.93 1174.26 L1346.48 1192.56 L1339.58 1192.56 L1329.2 1178.56 L1318.83 1192.56 L1311.92 1192.56 L1325.76 1173.91 L1313.1 1156.92 L1320 1156.92 L1329.46 1169.62 L1338.91 1156.92 L1345.82 1156.92 Z" fill="#000000" fill-rule="nonzero" fill-opacity="1"></path><polyline clip-path="url(#clip150)" style="stroke:#000000; stroke-linecap:round; stroke-linejoin:round; stroke-width:4; stroke-opacity:1; fill:none" points="305.648,1047.7 305.648,47.2441 "></polyline>
<polyline clip-path="url(#clip150)" style="stroke:#000000; stroke-linecap:round; stroke-linejoin:round; stroke-width:4; stroke-opacity:1; fill:none" points="305.648,833.233 324.545,833.233 "></polyline>
<polyline clip-path="url(#clip150)" style="stroke:#000000; stroke-linecap:round; stroke-linejoin:round; stroke-width:4; stroke-opacity:1; fill:none" points="305.648,616.148 324.545,616.148 "></polyline>
<polyline clip-path="url(#clip150)" style="stroke:#000000; stroke-linecap:round; stroke-linejoin:round; stroke-width:4; stroke-opacity:1; fill:none" points="305.648,399.064 324.545,399.064 "></polyline>
<polyline clip-path="url(#clip150)" style="stroke:#000000; stroke-linecap:round; stroke-linejoin:round; stroke-width:4; stroke-opacity:1; fill:none" points="305.648,181.979 324.545,181.979 "></polyline>
<path clip-path="url(#clip150)" d="M102.38 833.685 L132.056 833.685 L132.056 837.62 L102.38 837.62 L102.38 833.685 Z" fill="#000000" fill-rule="nonzero" fill-opacity="1"></path><path clip-path="url(#clip150)" d="M152.148 819.032 Q148.537 819.032 146.709 822.597 Q144.903 826.138 144.903 833.268 Q144.903 840.375 146.709 843.939 Q148.537 847.481 152.148 847.481 Q155.783 847.481 157.588 843.939 Q159.417 840.375 159.417 833.268 Q159.417 826.138 157.588 822.597 Q155.783 819.032 152.148 819.032 M152.148 815.328 Q157.959 815.328 161.014 819.935 Q164.093 824.518 164.093 833.268 Q164.093 841.995 161.014 846.601 Q157.959 851.185 152.148 851.185 Q146.338 851.185 143.26 846.601 Q140.204 841.995 140.204 833.268 Q140.204 824.518 143.26 819.935 Q146.338 815.328 152.148 815.328 Z" fill="#000000" fill-rule="nonzero" fill-opacity="1"></path><path clip-path="url(#clip150)" d="M172.31 844.634 L177.195 844.634 L177.195 850.513 L172.31 850.513 L172.31 844.634 Z" fill="#000000" fill-rule="nonzero" fill-opacity="1"></path><path clip-path="url(#clip150)" d="M197.38 819.032 Q193.769 819.032 191.94 822.597 Q190.134 826.138 190.134 833.268 Q190.134 840.375 191.94 843.939 Q193.769 847.481 197.38 847.481 Q201.014 847.481 202.819 843.939 Q204.648 840.375 204.648 833.268 Q204.648 826.138 202.819 822.597 Q201.014 819.032 197.38 819.032 M197.38 815.328 Q203.19 815.328 206.245 819.935 Q209.324 824.518 209.324 833.268 Q209.324 841.995 206.245 846.601 Q203.19 851.185 197.38 851.185 Q191.569 851.185 188.491 846.601 Q185.435 841.995 185.435 833.268 Q185.435 824.518 188.491 819.935 Q191.569 815.328 197.38 815.328 Z" fill="#000000" fill-rule="nonzero" fill-opacity="1"></path><path clip-path="url(#clip150)" d="M218.352 846.578 L225.991 846.578 L225.991 820.213 L217.68 821.879 L217.68 817.62 L225.944 815.953 L230.62 815.953 L230.62 846.578 L238.259 846.578 L238.259 850.513 L218.352 850.513 L218.352 846.578 Z" fill="#000000" fill-rule="nonzero" fill-opacity="1"></path><path clip-path="url(#clip150)" d="M257.703 819.032 Q254.092 819.032 252.264 822.597 Q250.458 826.138 250.458 833.268 Q250.458 840.375 252.264 843.939 Q254.092 847.481 257.703 847.481 Q261.338 847.481 263.143 843.939 Q264.972 840.375 264.972 833.268 Q264.972 826.138 263.143 822.597 Q261.338 819.032 257.703 819.032 M257.703 815.328 Q263.514 815.328 266.569 819.935 Q269.648 824.518 269.648 833.268 Q269.648 841.995 266.569 846.601 Q263.514 851.185 257.703 851.185 Q251.893 851.185 248.815 846.601 Q245.759 841.995 245.759 833.268 Q245.759 824.518 248.815 819.935 Q251.893 815.328 257.703 815.328 Z" fill="#000000" fill-rule="nonzero" fill-opacity="1"></path><path clip-path="url(#clip150)" d="M103.376 616.6 L133.051 616.6 L133.051 620.535 L103.376 620.535 L103.376 616.6 Z" fill="#000000" fill-rule="nonzero" fill-opacity="1"></path><path clip-path="url(#clip150)" d="M153.144 601.947 Q149.533 601.947 147.704 605.512 Q145.898 609.054 145.898 616.183 Q145.898 623.29 147.704 626.854 Q149.533 630.396 153.144 630.396 Q156.778 630.396 158.584 626.854 Q160.412 623.29 160.412 616.183 Q160.412 609.054 158.584 605.512 Q156.778 601.947 153.144 601.947 M153.144 598.243 Q158.954 598.243 162.009 602.85 Q165.088 607.433 165.088 616.183 Q165.088 624.91 162.009 629.516 Q158.954 634.1 153.144 634.1 Q147.334 634.1 144.255 629.516 Q141.199 624.91 141.199 616.183 Q141.199 607.433 144.255 602.85 Q147.334 598.243 153.144 598.243 Z" fill="#000000" fill-rule="nonzero" fill-opacity="1"></path><path clip-path="url(#clip150)" d="M173.306 627.549 L178.19 627.549 L178.19 633.428 L173.306 633.428 L173.306 627.549 Z" fill="#000000" fill-rule="nonzero" fill-opacity="1"></path><path clip-path="url(#clip150)" d="M198.375 601.947 Q194.764 601.947 192.935 605.512 Q191.13 609.054 191.13 616.183 Q191.13 623.29 192.935 626.854 Q194.764 630.396 198.375 630.396 Q202.009 630.396 203.815 626.854 Q205.643 623.29 205.643 616.183 Q205.643 609.054 203.815 605.512 Q202.009 601.947 198.375 601.947 M198.375 598.243 Q204.185 598.243 207.241 602.85 Q210.319 607.433 210.319 616.183 Q210.319 624.91 207.241 629.516 Q204.185 634.1 198.375 634.1 Q192.565 634.1 189.486 629.516 Q186.431 624.91 186.431 616.183 Q186.431 607.433 189.486 602.85 Q192.565 598.243 198.375 598.243 Z" fill="#000000" fill-rule="nonzero" fill-opacity="1"></path><path clip-path="url(#clip150)" d="M228.537 601.947 Q224.926 601.947 223.097 605.512 Q221.292 609.054 221.292 616.183 Q221.292 623.29 223.097 626.854 Q224.926 630.396 228.537 630.396 Q232.171 630.396 233.977 626.854 Q235.805 623.29 235.805 616.183 Q235.805 609.054 233.977 605.512 Q232.171 601.947 228.537 601.947 M228.537 598.243 Q234.347 598.243 237.403 602.85 Q240.481 607.433 240.481 616.183 Q240.481 624.91 237.403 629.516 Q234.347 634.1 228.537 634.1 Q222.727 634.1 219.648 629.516 Q216.593 624.91 216.593 616.183 Q216.593 607.433 219.648 602.85 Q222.727 598.243 228.537 598.243 Z" fill="#000000" fill-rule="nonzero" fill-opacity="1"></path><path clip-path="url(#clip150)" d="M248.745 598.868 L267.101 598.868 L267.101 602.804 L253.027 602.804 L253.027 611.276 Q254.046 610.929 255.065 610.767 Q256.083 610.581 257.102 610.581 Q262.889 610.581 266.268 613.753 Q269.648 616.924 269.648 622.341 Q269.648 627.919 266.176 631.021 Q262.703 634.1 256.384 634.1 Q254.208 634.1 251.94 633.729 Q249.694 633.359 247.287 632.618 L247.287 627.919 Q249.37 629.053 251.592 629.609 Q253.815 630.165 256.291 630.165 Q260.296 630.165 262.634 628.058 Q264.972 625.952 264.972 622.341 Q264.972 618.729 262.634 616.623 Q260.296 614.516 256.291 614.516 Q254.416 614.516 252.541 614.933 Q250.69 615.35 248.745 616.229 L248.745 598.868 Z" fill="#000000" fill-rule="nonzero" fill-opacity="1"></path><path clip-path="url(#clip150)" d="M152.148 384.862 Q148.537 384.862 146.709 388.427 Q144.903 391.969 144.903 399.098 Q144.903 406.205 146.709 409.769 Q148.537 413.311 152.148 413.311 Q155.783 413.311 157.588 409.769 Q159.417 406.205 159.417 399.098 Q159.417 391.969 157.588 388.427 Q155.783 384.862 152.148 384.862 M152.148 381.159 Q157.959 381.159 161.014 385.765 Q164.093 390.348 164.093 399.098 Q164.093 407.825 161.014 412.431 Q157.959 417.015 152.148 417.015 Q146.338 417.015 143.26 412.431 Q140.204 407.825 140.204 399.098 Q140.204 390.348 143.26 385.765 Q146.338 381.159 152.148 381.159 Z" fill="#000000" fill-rule="nonzero" fill-opacity="1"></path><path clip-path="url(#clip150)" d="M172.31 410.464 L177.195 410.464 L177.195 416.344 L172.31 416.344 L172.31 410.464 Z" fill="#000000" fill-rule="nonzero" fill-opacity="1"></path><path clip-path="url(#clip150)" d="M197.38 384.862 Q193.769 384.862 191.94 388.427 Q190.134 391.969 190.134 399.098 Q190.134 406.205 191.94 409.769 Q193.769 413.311 197.38 413.311 Q201.014 413.311 202.819 409.769 Q204.648 406.205 204.648 399.098 Q204.648 391.969 202.819 388.427 Q201.014 384.862 197.38 384.862 M197.38 381.159 Q203.19 381.159 206.245 385.765 Q209.324 390.348 209.324 399.098 Q209.324 407.825 206.245 412.431 Q203.19 417.015 197.38 417.015 Q191.569 417.015 188.491 412.431 Q185.435 407.825 185.435 399.098 Q185.435 390.348 188.491 385.765 Q191.569 381.159 197.38 381.159 Z" fill="#000000" fill-rule="nonzero" fill-opacity="1"></path><path clip-path="url(#clip150)" d="M227.542 384.862 Q223.93 384.862 222.102 388.427 Q220.296 391.969 220.296 399.098 Q220.296 406.205 222.102 409.769 Q223.93 413.311 227.542 413.311 Q231.176 413.311 232.981 409.769 Q234.81 406.205 234.81 399.098 Q234.81 391.969 232.981 388.427 Q231.176 384.862 227.542 384.862 M227.542 381.159 Q233.352 381.159 236.407 385.765 Q239.486 390.348 239.486 399.098 Q239.486 407.825 236.407 412.431 Q233.352 417.015 227.542 417.015 Q221.731 417.015 218.653 412.431 Q215.597 407.825 215.597 399.098 Q215.597 390.348 218.653 385.765 Q221.731 381.159 227.542 381.159 Z" fill="#000000" fill-rule="nonzero" fill-opacity="1"></path><path clip-path="url(#clip150)" d="M257.703 384.862 Q254.092 384.862 252.264 388.427 Q250.458 391.969 250.458 399.098 Q250.458 406.205 252.264 409.769 Q254.092 413.311 257.703 413.311 Q261.338 413.311 263.143 409.769 Q264.972 406.205 264.972 399.098 Q264.972 391.969 263.143 388.427 Q261.338 384.862 257.703 384.862 M257.703 381.159 Q263.514 381.159 266.569 385.765 Q269.648 390.348 269.648 399.098 Q269.648 407.825 266.569 412.431 Q263.514 417.015 257.703 417.015 Q251.893 417.015 248.815 412.431 Q245.759 407.825 245.759 399.098 Q245.759 390.348 248.815 385.765 Q251.893 381.159 257.703 381.159 Z" fill="#000000" fill-rule="nonzero" fill-opacity="1"></path><path clip-path="url(#clip150)" d="M153.144 167.777 Q149.533 167.777 147.704 171.342 Q145.898 174.884 145.898 182.013 Q145.898 189.12 147.704 192.685 Q149.533 196.226 153.144 196.226 Q156.778 196.226 158.584 192.685 Q160.412 189.12 160.412 182.013 Q160.412 174.884 158.584 171.342 Q156.778 167.777 153.144 167.777 M153.144 164.074 Q158.954 164.074 162.009 168.68 Q165.088 173.263 165.088 182.013 Q165.088 190.74 162.009 195.347 Q158.954 199.93 153.144 199.93 Q147.334 199.93 144.255 195.347 Q141.199 190.74 141.199 182.013 Q141.199 173.263 144.255 168.68 Q147.334 164.074 153.144 164.074 Z" fill="#000000" fill-rule="nonzero" fill-opacity="1"></path><path clip-path="url(#clip150)" d="M173.306 193.379 L178.19 193.379 L178.19 199.259 L173.306 199.259 L173.306 193.379 Z" fill="#000000" fill-rule="nonzero" fill-opacity="1"></path><path clip-path="url(#clip150)" d="M198.375 167.777 Q194.764 167.777 192.935 171.342 Q191.13 174.884 191.13 182.013 Q191.13 189.12 192.935 192.685 Q194.764 196.226 198.375 196.226 Q202.009 196.226 203.815 192.685 Q205.643 189.12 205.643 182.013 Q205.643 174.884 203.815 171.342 Q202.009 167.777 198.375 167.777 M198.375 164.074 Q204.185 164.074 207.241 168.68 Q210.319 173.263 210.319 182.013 Q210.319 190.74 207.241 195.347 Q204.185 199.93 198.375 199.93 Q192.565 199.93 189.486 195.347 Q186.431 190.74 186.431 182.013 Q186.431 173.263 189.486 168.68 Q192.565 164.074 198.375 164.074 Z" fill="#000000" fill-rule="nonzero" fill-opacity="1"></path><path clip-path="url(#clip150)" d="M228.537 167.777 Q224.926 167.777 223.097 171.342 Q221.292 174.884 221.292 182.013 Q221.292 189.12 223.097 192.685 Q224.926 196.226 228.537 196.226 Q232.171 196.226 233.977 192.685 Q235.805 189.12 235.805 182.013 Q235.805 174.884 233.977 171.342 Q232.171 167.777 228.537 167.777 M228.537 164.074 Q234.347 164.074 237.403 168.68 Q240.481 173.263 240.481 182.013 Q240.481 190.74 237.403 195.347 Q234.347 199.93 228.537 199.93 Q222.727 199.93 219.648 195.347 Q216.593 190.74 216.593 182.013 Q216.593 173.263 219.648 168.68 Q222.727 164.074 228.537 164.074 Z" fill="#000000" fill-rule="nonzero" fill-opacity="1"></path><path clip-path="url(#clip150)" d="M248.745 164.699 L267.101 164.699 L267.101 168.634 L253.027 168.634 L253.027 177.106 Q254.046 176.759 255.065 176.597 Q256.083 176.411 257.102 176.411 Q262.889 176.411 266.268 179.583 Q269.648 182.754 269.648 188.171 Q269.648 193.749 266.176 196.851 Q262.703 199.93 256.384 199.93 Q254.208 199.93 251.94 199.56 Q249.694 199.189 247.287 198.448 L247.287 193.749 Q249.37 194.884 251.592 195.439 Q253.815 195.995 256.291 195.995 Q260.296 195.995 262.634 193.888 Q264.972 191.782 264.972 188.171 Q264.972 184.56 262.634 182.453 Q260.296 180.347 256.291 180.347 Q254.416 180.347 252.541 180.763 Q250.69 181.18 248.745 182.06 L248.745 164.699 Z" fill="#000000" fill-rule="nonzero" fill-opacity="1"></path><path clip-path="url(#clip150)" d="M38.0559 607.278 L16.4762 607.278 L16.4762 601.421 L37.8331 601.421 Q42.8939 601.421 45.4402 599.448 Q47.9546 597.475 47.9546 593.528 Q47.9546 588.785 44.9309 586.048 Q41.9072 583.279 36.6873 583.279 L16.4762 583.279 L16.4762 577.423 L52.1242 577.423 L52.1242 583.279 L46.6496 583.279 Q49.8962 585.412 51.4876 588.244 Q53.0472 591.045 53.0472 594.769 Q53.0472 600.912 49.2278 604.095 Q45.4083 607.278 38.0559 607.278 M15.6168 592.541 L15.6168 592.541 Z" fill="#000000" fill-rule="nonzero" fill-opacity="1"></path><path clip-path="url(#clip150)" d="M2.66262 551.291 Q9.98318 555.556 17.1446 557.625 Q24.306 559.694 31.6584 559.694 Q39.0108 559.694 46.2359 557.625 Q53.4291 555.525 60.7179 551.291 L60.7179 556.384 Q53.2382 561.158 46.0131 563.545 Q38.788 565.901 31.6584 565.901 Q24.5606 565.901 17.3674 563.545 Q10.1742 561.19 2.66262 556.384 L2.66262 551.291 Z" fill="#000000" fill-rule="nonzero" fill-opacity="1"></path><path clip-path="url(#clip150)" d="M16.4762 510.296 L33.8228 523.187 L52.1242 509.628 L52.1242 516.535 L38.1196 526.911 L52.1242 537.287 L52.1242 544.194 L33.4726 530.348 L16.4762 543.016 L16.4762 536.109 L29.1758 526.656 L16.4762 517.203 L16.4762 510.296 Z" fill="#000000" fill-rule="nonzero" fill-opacity="1"></path><path clip-path="url(#clip150)" d="M2.66262 502.275 L2.66262 497.183 Q10.1742 492.409 17.3674 490.053 Q24.5606 487.666 31.6584 487.666 Q38.788 487.666 46.0131 490.053 Q53.2382 492.409 60.7179 497.183 L60.7179 502.275 Q53.4291 498.042 46.2359 495.973 Q39.0108 493.873 31.6584 493.873 Q24.306 493.873 17.1446 495.973 Q9.98318 498.042 2.66262 502.275 Z" fill="#000000" fill-rule="nonzero" fill-opacity="1"></path><polyline clip-path="url(#clip152)" style="stroke:#009af9; stroke-linecap:round; stroke-linejoin:round; stroke-width:8; stroke-opacity:1; fill:none" points="363.585,399.064 365.518,403.646 367.451,408.228 369.384,412.809 371.317,417.389 373.251,421.967 375.184,426.543 377.117,431.116 379.05,435.686 380.983,440.253 382.916,444.816 384.85,449.374 386.783,453.928 388.716,458.476 390.649,463.019 392.582,467.556 394.515,472.086 396.449,476.61 398.382,481.126 400.315,485.634 402.248,490.134 404.181,494.625 406.114,499.107 408.048,503.58 409.981,508.043 411.914,512.495 413.847,516.937 415.78,521.367 417.713,525.786 419.647,530.193 421.58,534.587 423.513,538.969 425.446,543.337 427.379,547.691 429.312,552.032 431.246,556.357 433.179,560.668 435.112,564.964 437.045,569.244 438.978,573.508 440.911,577.755 442.845,581.985 444.778,586.198 446.711,590.393 448.644,594.57 450.577,598.728 452.51,602.867 454.444,606.988 456.377,611.088 458.31,615.168 460.243,619.228 462.176,623.267 464.109,627.285 466.043,631.281 467.976,635.255 469.909,639.206 471.842,643.135 473.775,647.041 475.709,650.923 477.642,654.781 479.575,658.615 481.508,662.425 483.441,666.21 485.374,669.969 487.308,673.703 489.241,677.41 491.174,681.092 493.107,684.746 495.04,688.374 496.973,691.974 498.907,695.546 500.84,699.091 502.773,702.607 504.706,706.094 506.639,709.553 508.572,712.981 510.506,716.381 512.439,719.75 514.372,723.089 516.305,726.397 518.238,729.675 520.171,732.921 522.105,736.136 524.038,739.318 525.971,742.469 527.904,745.587 529.837,748.673 531.77,751.726 533.704,754.745 535.637,757.731 537.57,760.682 539.503,763.6 541.436,766.484 543.369,769.333 545.303,772.146 547.236,774.925 549.169,777.669 551.102,780.376 553.035,783.048 554.968,785.684 556.902,788.283 558.835,790.845 560.768,793.371 562.701,795.86 564.634,798.311 566.567,800.725 568.501,803.101 570.434,805.439 572.367,807.739 574.3,810 576.233,812.223 578.166,814.407 580.1,816.552 582.033,818.658 583.966,820.725 585.899,822.752 587.832,824.739 589.765,826.687 591.699,828.594 593.632,830.461 595.565,832.288 597.498,834.074 599.431,835.819 601.364,837.523 603.298,839.187 605.231,840.809 607.164,842.39 609.097,843.93 611.03,845.428 612.963,846.884 614.897,848.299 616.83,849.671 618.763,851.002 620.696,852.29 622.629,853.536 624.562,854.74 626.496,855.901 628.429,857.02 630.362,858.096 632.295,859.129 634.228,860.12 636.161,861.067 638.095,861.972 640.028,862.834 641.961,863.652 643.894,864.428 645.827,865.16 647.76,865.849 649.694,866.495 651.627,867.097 653.56,867.656 655.493,868.172 657.426,868.644 659.359,869.073 661.293,869.458 663.226,869.8 665.159,870.099 667.092,870.353 669.025,870.565 670.958,870.732 672.892,870.857 674.825,870.938 676.758,870.975 678.691,870.969 680.624,870.919 682.557,870.827 684.491,870.69 686.424,870.511 688.357,870.288 690.29,870.022 692.223,869.712 694.156,869.36 696.09,868.965 698.023,868.526 699.956,868.045 701.889,867.52 703.822,866.953 705.755,866.343 707.689,865.691 709.622,864.996 711.555,864.258 713.488,863.479 715.421,862.657 717.354,861.793 719.288,860.886 721.221,859.938 723.154,858.948 725.087,857.917 727.02,856.844 728.953,855.729 730.887,854.573 732.82,853.376 734.753,852.138 736.686,850.859 738.619,849.54 740.552,848.18 742.486,846.78 744.419,845.339 746.352,843.858 748.285,842.338 750.218,840.777 752.151,839.178 754.085,837.538 756.018,835.86 757.951,834.143 759.884,832.387 761.817,830.592 763.75,828.759 765.684,826.888 767.617,824.979 769.55,823.033 771.483,821.048 773.416,819.027 775.349,816.968 777.283,814.873 779.216,812.741 781.149,810.572 783.082,808.368 785.015,806.128 786.948,803.852 788.882,801.54 790.815,799.194 792.748,796.812 794.681,794.396 796.614,791.946 798.547,789.462 800.481,786.944 802.414,784.392 804.347,781.807 806.28,779.19 808.213,776.539 810.146,773.856 812.08,771.141 814.013,768.395 815.946,765.617 817.879,762.807 819.812,759.967 821.745,757.096 823.679,754.195 825.612,751.264 827.545,748.303 829.478,745.313 831.411,742.295 833.344,739.247 835.278,736.171 837.211,733.067 839.144,729.935 841.077,726.777 843.01,723.591 844.943,720.378 846.877,717.139 848.81,713.875 850.743,710.584 852.676,707.268 854.609,703.928 856.542,700.563 858.476,697.174 860.409,693.761 862.342,690.324 864.275,686.865 866.208,683.382 868.141,679.878 870.075,676.351 872.008,672.803 873.941,669.234 875.874,665.644 877.807,662.033 879.74,658.403 881.674,654.753 883.607,651.083 885.54,647.395 887.473,643.688 889.406,639.963 891.339,636.22 893.273,632.46 895.206,628.683 897.139,624.89 899.072,621.08 901.005,617.255 902.938,613.415 904.872,609.56 906.805,605.69 908.738,601.806 910.671,597.909 912.604,593.998 914.537,590.075 916.471,586.139 918.404,582.191 920.337,578.232 922.27,574.261 924.203,570.28 926.136,566.289 928.07,562.287 930.003,558.276 931.936,554.257 933.869,550.228 935.802,546.192 937.735,542.148 939.669,538.096 941.602,534.038 943.535,529.973 945.468,525.902 947.401,521.825 949.334,517.744 951.268,513.657 953.201,509.567 955.134,505.472 957.067,501.375 959,497.274 960.933,493.17 962.867,489.065 964.8,484.958 966.733,480.849 968.666,476.74 970.599,472.631 972.532,468.521 974.466,464.412 976.399,460.304 978.332,456.197 980.265,452.092 982.198,447.99 984.131,443.89 986.065,439.793 987.998,435.7 989.931,431.61 991.864,427.526 993.797,423.446 995.73,419.371 997.664,415.302 999.597,411.239 1001.53,407.182 1003.46,403.133 1005.4,399.091 1007.33,395.057 1009.26,391.031 1011.2,387.014 1013.13,383.007 1015.06,379.008 1017,375.02 1018.93,371.042 1020.86,367.075 1022.79,363.119 1024.73,359.175 1026.66,355.243 1028.59,351.323 1030.53,347.417 1032.46,343.524 1034.39,339.644 1036.33,335.779 1038.26,331.928 1040.19,328.092 1042.13,324.272 1044.06,320.468 1045.99,316.679 1047.93,312.908 1049.86,309.153 1051.79,305.416 1053.73,301.696 1055.66,297.995 1057.59,294.313 1059.53,290.649 1061.46,287.005 1063.39,283.38 1065.32,279.776 1067.26,276.192 1069.19,272.63 1071.12,269.088 1073.06,265.568 1074.99,262.071 1076.92,258.595 1078.86,255.143 1080.79,251.714 1082.72,248.308 1084.66,244.926 1086.59,241.569 1088.52,238.236 1090.46,234.928 1092.39,231.646 1094.32,228.389 1096.26,225.158 1098.19,221.954 1100.12,218.776 1102.05,215.626 1103.99,212.503 1105.92,209.407 1107.85,206.34 1109.79,203.301 1111.72,200.291 1113.65,197.311 1115.59,194.359 1117.52,191.437 1119.45,188.546 1121.39,185.684 1123.32,182.853 1125.25,180.054 1127.19,177.285 1129.12,174.548 1131.05,171.843 1132.99,169.171 1134.92,166.53 1136.85,163.923 1138.78,161.348 1140.72,158.807 1142.65,156.299 1144.58,153.825 1146.52,151.386 1148.45,148.98 1150.38,146.61 1152.32,144.274 1154.25,141.974 1156.18,139.709 1158.12,137.48 1160.05,135.286 1161.98,133.129 1163.92,131.009 1165.85,128.924 1167.78,126.877 1169.72,124.867 1171.65,122.895 1173.58,120.96 1175.52,119.062 1177.45,117.203 1179.38,115.382 1181.31,113.599 1183.25,111.855 1185.18,110.15 1187.11,108.484 1189.05,106.857 1190.98,105.269 1192.91,103.721 1194.85,102.213 1196.78,100.745 1198.71,99.3167 1200.65,97.9287 1202.58,96.5812 1204.51,95.2743 1206.45,94.0081 1208.38,92.7829 1210.31,91.5986 1212.25,90.4556 1214.18,89.3539 1216.11,88.2936 1218.04,87.2749 1219.98,86.2979 1221.91,85.3628 1223.84,84.4696 1225.78,83.6185 1227.71,82.8095 1229.64,82.0429 1231.58,81.3186 1233.51,80.6368 1235.44,79.9975 1237.38,79.4009 1239.31,78.8471 1241.24,78.336 1243.18,77.8679 1245.11,77.4427 1247.04,77.0605 1248.98,76.7215 1250.91,76.4256 1252.84,76.1728 1254.77,75.9634 1256.71,75.7972 1258.64,75.6744 1260.57,75.5949 1262.51,75.5589 1264.44,75.5663 1266.37,75.6171 1268.31,75.7114 1270.24,75.8492 1272.17,76.0305 1274.11,76.2553 1276.04,76.5236 1277.97,76.8353 1279.91,77.1906 1281.84,77.5894 1283.77,78.0316 1285.71,78.5173 1287.64,79.0464 1289.57,79.6189 1291.51,80.2347 1293.44,80.8939 1295.37,81.5963 1297.3,82.342 1299.24,83.1308 1301.17,83.9628 1303.1,84.8378 1305.04,85.7558 1306.97,86.7168 1308.9,87.7206 1310.84,88.7672 1312.77,89.8565 1314.7,90.9884 1316.64,92.1628 1318.57,93.3797 1320.5,94.6389 1322.44,95.9403 1324.37,97.2839 1326.3,98.6694 1328.24,100.097 1330.17,101.566 1332.1,103.077 1334.03,104.629 1335.97,106.223 1337.9,107.858 1339.83,109.535 1341.77,111.252 1343.7,113.01 1345.63,114.808 1347.57,116.648 1349.5,118.527 1351.43,120.447 1353.37,122.407 1355.3,124.406 1357.23,126.445 1359.17,128.524 1361.1,130.642 1363.03,132.799 1364.97,134.996 1366.9,137.23 1368.83,139.504 1370.76,141.816 1372.7,144.165 1374.63,146.553 1376.56,148.979 1378.5,151.441 1380.43,153.942 1382.36,156.479 1384.3,159.053 1386.23,161.663 1388.16,164.31 1390.1,166.993 1392.03,169.712 1393.96,172.466 1395.9,175.256 1397.83,178.081 1399.76,180.94 1401.7,183.834 1403.63,186.763 1405.56,189.725 1407.5,192.721 1409.43,195.751 1411.36,198.814 1413.29,201.909 1415.23,205.038 1417.16,208.198 1419.09,211.391 1421.03,214.616 1422.96,217.872 1424.89,221.159 1426.83,224.476 1428.76,227.825 1430.69,231.203 1432.63,234.612 1434.56,238.05 1436.49,241.517 1438.43,245.014 1440.36,248.539 1442.29,252.092 1444.23,255.673 1446.16,259.281 1448.09,262.917 1450.02,266.58 1451.96,270.27 1453.89,273.986 1455.82,277.727 1457.76,281.494 1459.69,285.287 1461.62,289.104 1463.56,292.946 1465.49,296.812 1467.42,300.701 1469.36,304.614 1471.29,308.55 1473.22,312.508 1475.16,316.489 1477.09,320.492 1479.02,324.516 1480.96,328.562 1482.89,332.628 1484.82,336.714 1486.75,340.821 1488.69,344.947 1490.62,349.092 1492.55,353.257 1494.49,357.439 1496.42,361.64 1498.35,365.858 1500.29,370.094 1502.22,374.346 1504.15,378.615 1506.09,382.899 1508.02,387.2 1509.95,391.515 1511.89,395.846 1513.82,400.191 1515.75,404.549 1517.69,408.922 1519.62,413.307 1521.55,417.705 1523.49,422.116 1525.42,426.539 1527.35,430.973 1529.28,435.418 1531.22,439.873 1533.15,444.339 1535.08,448.815 1537.02,453.3 1538.95,457.794 1540.88,462.296 1542.82,466.807 1544.75,471.325 1546.68,475.851 1548.62,480.383 1550.55,484.922 1552.48,489.466 1554.42,494.017 1556.35,498.572 1558.28,503.132 1560.22,507.696 1562.15,512.264 1564.08,516.835 1566.01,521.409 1567.95,525.986 1569.88,530.564 1571.81,535.144 1573.75,539.726 1575.68,544.308 1577.61,548.89 1579.55,553.473 1581.48,558.054 1583.41,562.635 1585.35,567.215 1587.28,571.792 1589.21,576.367 1591.15,580.939 1593.08,585.509 1595.01,590.074 1596.95,594.636 1598.88,599.193 1600.81,603.745 1602.75,608.292 1604.68,612.833 1606.61,617.367 1608.54,621.896 1610.48,626.417 1612.41,630.93 1614.34,635.436 1616.28,639.933 1618.21,644.422 1620.14,648.901 1622.08,653.371 1624.01,657.83 1625.94,662.279 1627.88,666.718 1629.81,671.145 1631.74,675.56 1633.68,679.963 1635.61,684.353 1637.54,688.73 1639.48,693.094 1641.41,697.445 1643.34,701.781 1645.27,706.102 1647.21,710.408 1649.14,714.699 1651.07,718.974 1653.01,723.232 1654.94,727.474 1656.87,731.699 1658.81,735.906 1660.74,740.096 1662.67,744.267 1664.61,748.42 1666.54,752.553 1668.47,756.667 1670.41,760.761 1672.34,764.835 1674.27,768.889 1676.21,772.921 1678.14,776.932 1680.07,780.921 1682,784.888 1683.94,788.833 1685.87,792.755 1687.8,796.653 1689.74,800.528 1691.67,804.379 1693.6,808.206 1695.54,812.007 1697.47,815.784 1699.4,819.536 1701.34,823.261 1703.27,826.961 1705.2,830.634 1707.14,834.28 1709.07,837.899 1711,841.491 1712.94,845.055 1714.87,848.59 1716.8,852.098 1718.74,855.576 1720.67,859.025 1722.6,862.445 1724.53,865.835 1726.47,869.195 1728.4,872.524 1730.33,875.823 1732.27,879.091 1734.2,882.327 1736.13,885.532 1738.07,888.705 1740,891.846 1741.93,894.954 1743.87,898.029 1745.8,901.072 1747.73,904.081 1749.67,907.056 1751.6,909.997 1753.53,912.905 1755.47,915.777 1757.4,918.615 1759.33,921.418 1761.26,924.186 1763.2,926.918 1765.13,929.615 1767.06,932.276 1769,934.9 1770.93,937.488 1772.86,940.039 1774.8,942.553 1776.73,945.031 1778.66,947.47 1780.6,949.872 1782.53,952.237 1784.46,954.563 1786.4,956.851 1788.33,959.1 1790.26,961.311 1792.2,963.483 1794.13,965.616 1796.06,967.71 1797.99,969.764 1799.93,971.779 1801.86,973.754 1803.79,975.689 1805.73,977.584 1807.66,979.438 1809.59,981.252 1811.53,983.026 1813.46,984.759 1815.39,986.45 1817.33,988.101 1819.26,989.711 1821.19,991.279 1823.13,992.806 1825.06,994.291 1826.99,995.734 1828.93,997.136 1830.86,998.495 1832.79,999.813 1834.73,1001.09 1836.66,1002.32 1838.59,1003.51 1840.52,1004.66 1842.46,1005.77 1844.39,1006.83 1846.32,1007.85 1848.26,1008.83 1850.19,1009.76 1852.12,1010.65 1854.06,1011.5 1855.99,1012.3 1857.92,1013.07 1859.86,1013.79 1861.79,1014.46 1863.72,1015.09 1865.66,1015.68 1867.59,1016.23 1869.52,1016.73 1871.46,1017.19 1873.39,1017.6 1875.32,1017.98 1877.25,1018.3 1879.19,1018.59 1881.12,1018.83 1883.05,1019.03 1884.99,1019.18 1886.92,1019.29 1888.85,1019.36 1890.79,1019.39 1892.72,1019.37 1894.65,1019.3 1896.59,1019.2 1898.52,1019.05 1900.45,1018.85 1902.39,1018.62 1904.32,1018.34 1906.25,1018.02 1908.19,1017.65 1910.12,1017.24 1912.05,1016.79 1913.98,1016.29 1915.92,1015.76 1917.85,1015.18 1919.78,1014.55 1921.72,1013.89 1923.65,1013.18 1925.58,1012.43 1927.52,1011.64 1929.45,1010.8 1931.38,1009.92 1933.32,1009 1935.25,1008.04 1937.18,1007.04 1939.12,1006 1941.05,1004.91 1942.98,1003.78 1944.92,1002.61 1946.85,1001.4 1948.78,1000.15 1950.72,998.862 1952.65,997.53 1954.58,996.158 1956.51,994.745 1958.45,993.292 1960.38,991.799 1962.31,990.266 1964.25,988.693 1966.18,987.081 1968.11,985.43 1970.05,983.74 1971.98,982.01 1973.91,980.242 1975.85,978.436 1977.78,976.591 1979.71,974.708 1981.65,972.788 1983.58,970.829 1985.51,968.833 1987.45,966.8 1989.38,964.73 1991.31,962.623 1993.24,960.48 1995.18,958.301 1997.11,956.085 1999.04,953.834 2000.98,951.547 2002.91,949.224 2004.84,946.867 2006.78,944.475 2008.71,942.048 2010.64,939.588 2012.58,937.093 2014.51,934.564 2016.44,932.002 2018.38,929.407 2020.31,926.779 2022.24,924.119 2024.18,921.426 2026.11,918.701 2028.04,915.945 2029.97,913.157 2031.91,910.338 2033.84,907.488 2035.77,904.608 2037.71,901.698 2039.64,898.757 2041.57,895.788 2043.51,892.789 2045.44,889.761 2047.37,886.704 2049.31,883.62 2051.24,880.507 2053.17,877.367 2055.11,874.2 2057.04,871.006 2058.97,867.785 2060.91,864.538 2062.84,861.265 2064.77,857.967 2066.71,854.644 2068.64,851.295 2070.57,847.923 2072.5,844.526 2074.44,841.106 2076.37,837.662 2078.3,834.196 2080.24,830.706 2082.17,827.195 2084.1,823.662 2086.04,820.107 2087.97,816.531 2089.9,812.935 2091.84,809.318 2093.77,805.681 2095.7,802.025 2097.64,798.35 2099.57,794.656 2101.5,790.943 2103.44,787.212 2105.37,783.464 2107.3,779.699 2109.23,775.917 2111.17,772.119 2113.1,768.304 2115.03,764.475 2116.97,760.629 2118.9,756.77 2120.83,752.896 2122.77,749.007 2124.7,745.106 2126.63,741.191 2128.57,737.264 2130.5,733.324 2132.43,729.373 2134.37,725.41 2136.3,721.436 2138.23,717.452 2140.17,713.457 2142.1,709.453 2144.03,705.439 2145.97,701.417 2147.9,697.386 2149.83,693.347 2151.76,689.3 2153.7,685.247 2155.63,681.186 2157.56,677.12 2159.5,673.047 2161.43,668.969 2163.36,664.886 2165.3,660.798 2167.23,656.706 2169.16,652.611 2171.1,648.512 2173.03,644.41 2174.96,640.306 2176.9,636.2 2178.83,632.092 2180.76,627.984 2182.7,623.874 2184.63,619.765 2186.56,615.655 2188.49,611.547 2190.43,607.439 2192.36,603.333 2194.29,599.229 2196.23,595.127 2198.16,591.028 2200.09,586.932 2202.03,582.84 2203.96,578.752 2205.89,574.668 2207.83,570.59 2209.76,566.517 2211.69,562.45 2213.63,558.389 2215.56,554.335 2217.49,550.287 2219.43,546.248 2221.36,542.216 2223.29,538.193 2225.22,534.179 2227.16,530.174 2229.09,526.179 2231.02,522.194 2232.96,518.219 2234.89,514.255 2236.82,510.303 2238.76,506.363 2240.69,502.435 2242.62,498.519 2244.56,494.617 2246.49,490.728 2248.42,486.852 2250.36,482.992 2252.29,479.146 2254.22,475.315 2256.16,471.499 2258.09,467.7 2260.02,463.916 2261.96,460.15 2263.89,456.401 2265.82,452.669 2267.75,448.955 2269.69,445.26 2271.62,441.583 2273.55,437.925 2275.49,434.287 2277.42,430.669 2279.35,427.071 2281.29,423.494 2283.22,419.937 2285.15,416.403 2287.09,412.89 2289.02,409.399 2290.95,405.931 2292.89,402.485 2294.82,399.064 "></polyline>
<polyline clip-path="url(#clip152)" style="stroke:#e26f46; stroke-linecap:round; stroke-linejoin:round; stroke-width:4; stroke-opacity:1; fill:none" stroke-dasharray="16, 8, 2, 8" points="363.585,399.064 365.518,403.646 367.451,408.228 369.384,412.809 371.317,417.389 373.251,421.967 375.184,426.543 377.117,431.116 379.05,435.686 380.983,440.253 382.916,444.816 384.85,449.374 386.783,453.928 388.716,458.476 390.649,463.019 392.582,467.556 394.515,472.086 396.449,476.61 398.382,481.126 400.315,485.634 402.248,490.134 404.181,494.625 406.114,499.107 408.048,503.58 409.981,508.043 411.914,512.495 413.847,516.937 415.78,521.367 417.713,525.786 419.647,530.193 421.58,534.587 423.513,538.969 425.446,543.337 427.379,547.691 429.312,552.032 431.246,556.357 433.179,560.668 435.112,564.964 437.045,569.244 438.978,573.508 440.911,577.755 442.845,581.985 444.778,586.198 446.711,590.393 448.644,594.57 450.577,598.728 452.51,602.867 454.444,606.988 456.377,611.088 458.31,615.168 460.243,619.228 462.176,623.267 464.109,627.285 466.043,631.281 467.976,635.255 469.909,639.206 471.842,643.135 473.775,647.041 475.709,650.923 477.642,654.781 479.575,658.615 481.508,662.425 483.441,666.21 485.374,669.969 487.308,673.703 489.241,677.41 491.174,681.092 493.107,684.746 495.04,688.374 496.973,691.974 498.907,695.546 500.84,699.091 502.773,702.607 504.706,706.094 506.639,709.553 508.572,712.981 510.506,716.381 512.439,719.75 514.372,723.089 516.305,726.397 518.238,729.675 520.171,732.921 522.105,736.136 524.038,739.318 525.971,742.469 527.904,745.587 529.837,748.673 531.77,751.726 533.704,754.745 535.637,757.731 537.57,760.682 539.503,763.6 541.436,766.484 543.369,769.333 545.303,772.146 547.236,774.925 549.169,777.669 551.102,780.376 553.035,783.048 554.968,785.684 556.902,788.283 558.835,790.845 560.768,793.371 562.701,795.86 564.634,798.311 566.567,800.725 568.501,803.101 570.434,805.439 572.367,807.739 574.3,810 576.233,812.223 578.166,814.407 580.1,816.552 582.033,818.658 583.966,820.725 585.899,822.752 587.832,824.739 589.765,826.687 591.699,828.594 593.632,830.461 595.565,832.288 597.498,834.074 599.431,835.819 601.364,837.523 603.298,839.187 605.231,840.809 607.164,842.39 609.097,843.93 611.03,845.428 612.963,846.884 614.897,848.299 616.83,849.671 618.763,851.002 620.696,852.29 622.629,853.536 624.562,854.74 626.496,855.901 628.429,857.02 630.362,858.096 632.295,859.129 634.228,860.12 636.161,861.067 638.095,861.972 640.028,862.834 641.961,863.652 643.894,864.428 645.827,865.16 647.76,865.849 649.694,866.495 651.627,867.097 653.56,867.656 655.493,868.172 657.426,868.644 659.359,869.073 661.293,869.458 663.226,869.8 665.159,870.099 667.092,870.353 669.025,870.565 670.958,870.732 672.892,870.857 674.825,870.938 676.758,870.975 678.691,870.969 680.624,870.919 682.557,870.827 684.491,870.69 686.424,870.511 688.357,870.288 690.29,870.022 692.223,869.712 694.156,869.36 696.09,868.965 698.023,868.526 699.956,868.045 701.889,867.52 703.822,866.953 705.755,866.343 707.689,865.691 709.622,864.996 711.555,864.258 713.488,863.479 715.421,862.657 717.354,861.793 719.288,860.886 721.221,859.938 723.154,858.948 725.087,857.917 727.02,856.844 728.953,855.729 730.887,854.573 732.82,853.376 734.753,852.138 736.686,850.859 738.619,849.54 740.552,848.18 742.486,846.78 744.419,845.339 746.352,843.858 748.285,842.338 750.218,840.777 752.151,839.178 754.085,837.538 756.018,835.86 757.951,834.143 759.884,832.387 761.817,830.592 763.75,828.759 765.684,826.888 767.617,824.979 769.55,823.033 771.483,821.048 773.416,819.027 775.349,816.968 777.283,814.873 779.216,812.741 781.149,810.572 783.082,808.368 785.015,806.128 786.948,803.852 788.882,801.54 790.815,799.194 792.748,796.812 794.681,794.396 796.614,791.946 798.547,789.462 800.481,786.944 802.414,784.392 804.347,781.807 806.28,779.19 808.213,776.539 810.146,773.856 812.08,771.141 814.013,768.395 815.946,765.617 817.879,762.807 819.812,759.967 821.745,757.096 823.679,754.195 825.612,751.264 827.545,748.303 829.478,745.313 831.411,742.295 833.344,739.247 835.278,736.171 837.211,733.067 839.144,729.935 841.077,726.777 843.01,723.591 844.943,720.378 846.877,717.139 848.81,713.875 850.743,710.584 852.676,707.268 854.609,703.928 856.542,700.563 858.476,697.174 860.409,693.761 862.342,690.324 864.275,686.865 866.208,683.382 868.141,679.878 870.075,676.351 872.008,672.803 873.941,669.234 875.874,665.644 877.807,662.033 879.74,658.403 881.674,654.753 883.607,651.083 885.54,647.395 887.473,643.688 889.406,639.963 891.339,636.22 893.273,632.46 895.206,628.683 897.139,624.89 899.072,621.08 901.005,617.255 902.938,613.415 904.872,609.56 906.805,605.69 908.738,601.806 910.671,597.909 912.604,593.998 914.537,590.075 916.471,586.139 918.404,582.191 920.337,578.232 922.27,574.261 924.203,570.28 926.136,566.289 928.07,562.287 930.003,558.276 931.936,554.257 933.869,550.228 935.802,546.192 937.735,542.148 939.669,538.096 941.602,534.038 943.535,529.973 945.468,525.902 947.401,521.825 949.334,517.744 951.268,513.657 953.201,509.567 955.134,505.472 957.067,501.375 959,497.274 960.933,493.17 962.867,489.065 964.8,484.958 966.733,480.849 968.666,476.74 970.599,472.631 972.532,468.521 974.466,464.412 976.399,460.304 978.332,456.197 980.265,452.092 982.198,447.99 984.131,443.89 986.065,439.793 987.998,435.7 989.931,431.61 991.864,427.526 993.797,423.446 995.73,419.371 997.664,415.302 999.597,411.239 1001.53,407.182 1003.46,403.133 1005.4,399.091 1007.33,395.057 1009.26,391.031 1011.2,387.014 1013.13,383.007 1015.06,379.008 1017,375.02 1018.93,371.042 1020.86,367.075 1022.79,363.119 1024.73,359.175 1026.66,355.243 1028.59,351.323 1030.53,347.417 1032.46,343.524 1034.39,339.644 1036.33,335.779 1038.26,331.928 1040.19,328.092 1042.13,324.272 1044.06,320.468 1045.99,316.679 1047.93,312.908 1049.86,309.153 1051.79,305.416 1053.73,301.696 1055.66,297.995 1057.59,294.313 1059.53,290.649 1061.46,287.005 1063.39,283.38 1065.32,279.776 1067.26,276.192 1069.19,272.63 1071.12,269.088 1073.06,265.568 1074.99,262.071 1076.92,258.595 1078.86,255.143 1080.79,251.714 1082.72,248.308 1084.66,244.926 1086.59,241.569 1088.52,238.236 1090.46,234.928 1092.39,231.646 1094.32,228.389 1096.26,225.158 1098.19,221.954 1100.12,218.776 1102.05,215.626 1103.99,212.503 1105.92,209.407 1107.85,206.34 1109.79,203.301 1111.72,200.291 1113.65,197.311 1115.59,194.359 1117.52,191.437 1119.45,188.546 1121.39,185.684 1123.32,182.853 1125.25,180.054 1127.19,177.285 1129.12,174.548 1131.05,171.843 1132.99,169.171 1134.92,166.53 1136.85,163.923 1138.78,161.348 1140.72,158.807 1142.65,156.299 1144.58,153.825 1146.52,151.386 1148.45,148.98 1150.38,146.61 1152.32,144.274 1154.25,141.974 1156.18,139.709 1158.12,137.48 1160.05,135.286 1161.98,133.129 1163.92,131.009 1165.85,128.924 1167.78,126.877 1169.72,124.867 1171.65,122.895 1173.58,120.96 1175.52,119.062 1177.45,117.203 1179.38,115.382 1181.31,113.599 1183.25,111.855 1185.18,110.15 1187.11,108.484 1189.05,106.857 1190.98,105.269 1192.91,103.721 1194.85,102.213 1196.78,100.745 1198.71,99.3167 1200.65,97.9287 1202.58,96.5812 1204.51,95.2743 1206.45,94.0081 1208.38,92.7829 1210.31,91.5986 1212.25,90.4556 1214.18,89.3539 1216.11,88.2936 1218.04,87.2749 1219.98,86.2979 1221.91,85.3628 1223.84,84.4696 1225.78,83.6185 1227.71,82.8095 1229.64,82.0429 1231.58,81.3186 1233.51,80.6368 1235.44,79.9975 1237.38,79.4009 1239.31,78.8471 1241.24,78.336 1243.18,77.8679 1245.11,77.4427 1247.04,77.0605 1248.98,76.7215 1250.91,76.4256 1252.84,76.1728 1254.77,75.9634 1256.71,75.7972 1258.64,75.6744 1260.57,75.5949 1262.51,75.5589 1264.44,75.5663 1266.37,75.6171 1268.31,75.7114 1270.24,75.8492 1272.17,76.0305 1274.11,76.2553 1276.04,76.5236 1277.97,76.8353 1279.91,77.1906 1281.84,77.5894 1283.77,78.0316 1285.71,78.5173 1287.64,79.0464 1289.57,79.6189 1291.51,80.2347 1293.44,80.8939 1295.37,81.5963 1297.3,82.342 1299.24,83.1308 1301.17,83.9628 1303.1,84.8378 1305.04,85.7558 1306.97,86.7168 1308.9,87.7206 1310.84,88.7672 1312.77,89.8565 1314.7,90.9884 1316.64,92.1628 1318.57,93.3797 1320.5,94.6389 1322.44,95.9403 1324.37,97.2839 1326.3,98.6694 1328.24,100.097 1330.17,101.566 1332.1,103.077 1334.03,104.629 1335.97,106.223 1337.9,107.858 1339.83,109.535 1341.77,111.252 1343.7,113.01 1345.63,114.808 1347.57,116.648 1349.5,118.527 1351.43,120.447 1353.37,122.407 1355.3,124.406 1357.23,126.445 1359.17,128.524 1361.1,130.642 1363.03,132.799 1364.97,134.996 1366.9,137.23 1368.83,139.504 1370.76,141.816 1372.7,144.165 1374.63,146.553 1376.56,148.979 1378.5,151.441 1380.43,153.942 1382.36,156.479 1384.3,159.053 1386.23,161.663 1388.16,164.31 1390.1,166.993 1392.03,169.712 1393.96,172.466 1395.9,175.256 1397.83,178.081 1399.76,180.94 1401.7,183.834 1403.63,186.763 1405.56,189.725 1407.5,192.721 1409.43,195.751 1411.36,198.814 1413.29,201.909 1415.23,205.038 1417.16,208.198 1419.09,211.391 1421.03,214.616 1422.96,217.872 1424.89,221.159 1426.83,224.476 1428.76,227.825 1430.69,231.203 1432.63,234.612 1434.56,238.05 1436.49,241.517 1438.43,245.014 1440.36,248.539 1442.29,252.092 1444.23,255.673 1446.16,259.281 1448.09,262.917 1450.02,266.58 1451.96,270.27 1453.89,273.986 1455.82,277.727 1457.76,281.494 1459.69,285.287 1461.62,289.104 1463.56,292.946 1465.49,296.812 1467.42,300.701 1469.36,304.614 1471.29,308.55 1473.22,312.508 1475.16,316.489 1477.09,320.492 1479.02,324.516 1480.96,328.562 1482.89,332.628 1484.82,336.714 1486.75,340.821 1488.69,344.947 1490.62,349.092 1492.55,353.257 1494.49,357.439 1496.42,361.64 1498.35,365.858 1500.29,370.094 1502.22,374.346 1504.15,378.615 1506.09,382.899 1508.02,387.2 1509.95,391.515 1511.89,395.846 1513.82,400.191 1515.75,404.549 1517.69,408.922 1519.62,413.307 1521.55,417.705 1523.49,422.116 1525.42,426.539 1527.35,430.973 1529.28,435.418 1531.22,439.873 1533.15,444.339 1535.08,448.815 1537.02,453.3 1538.95,457.794 1540.88,462.296 1542.82,466.807 1544.75,471.325 1546.68,475.851 1548.62,480.383 1550.55,484.922 1552.48,489.466 1554.42,494.017 1556.35,498.572 1558.28,503.132 1560.22,507.696 1562.15,512.264 1564.08,516.835 1566.01,521.409 1567.95,525.986 1569.88,530.564 1571.81,535.144 1573.75,539.726 1575.68,544.308 1577.61,548.89 1579.55,553.473 1581.48,558.054 1583.41,562.635 1585.35,567.215 1587.28,571.792 1589.21,576.367 1591.15,580.939 1593.08,585.509 1595.01,590.074 1596.95,594.636 1598.88,599.193 1600.81,603.745 1602.75,608.292 1604.68,612.833 1606.61,617.367 1608.54,621.896 1610.48,626.417 1612.41,630.93 1614.34,635.436 1616.28,639.933 1618.21,644.422 1620.14,648.901 1622.08,653.371 1624.01,657.83 1625.94,662.279 1627.88,666.718 1629.81,671.145 1631.74,675.56 1633.68,679.963 1635.61,684.353 1637.54,688.73 1639.48,693.094 1641.41,697.445 1643.34,701.781 1645.27,706.102 1647.21,710.408 1649.14,714.699 1651.07,718.974 1653.01,723.232 1654.94,727.474 1656.87,731.699 1658.81,735.906 1660.74,740.096 1662.67,744.267 1664.61,748.42 1666.54,752.553 1668.47,756.667 1670.41,760.761 1672.34,764.835 1674.27,768.889 1676.21,772.921 1678.14,776.932 1680.07,780.921 1682,784.888 1683.94,788.833 1685.87,792.755 1687.8,796.653 1689.74,800.528 1691.67,804.379 1693.6,808.206 1695.54,812.007 1697.47,815.784 1699.4,819.536 1701.34,823.261 1703.27,826.961 1705.2,830.634 1707.14,834.28 1709.07,837.899 1711,841.491 1712.94,845.055 1714.87,848.59 1716.8,852.098 1718.74,855.576 1720.67,859.025 1722.6,862.445 1724.53,865.835 1726.47,869.195 1728.4,872.524 1730.33,875.823 1732.27,879.091 1734.2,882.327 1736.13,885.532 1738.07,888.705 1740,891.846 1741.93,894.954 1743.87,898.029 1745.8,901.072 1747.73,904.081 1749.67,907.056 1751.6,909.997 1753.53,912.905 1755.47,915.777 1757.4,918.615 1759.33,921.418 1761.26,924.186 1763.2,926.918 1765.13,929.615 1767.06,932.276 1769,934.9 1770.93,937.488 1772.86,940.039 1774.8,942.553 1776.73,945.031 1778.66,947.47 1780.6,949.872 1782.53,952.237 1784.46,954.563 1786.4,956.851 1788.33,959.1 1790.26,961.311 1792.2,963.483 1794.13,965.616 1796.06,967.71 1797.99,969.764 1799.93,971.779 1801.86,973.754 1803.79,975.689 1805.73,977.584 1807.66,979.438 1809.59,981.252 1811.53,983.026 1813.46,984.759 1815.39,986.45 1817.33,988.101 1819.26,989.711 1821.19,991.279 1823.13,992.806 1825.06,994.291 1826.99,995.734 1828.93,997.136 1830.86,998.495 1832.79,999.813 1834.73,1001.09 1836.66,1002.32 1838.59,1003.51 1840.52,1004.66 1842.46,1005.77 1844.39,1006.83 1846.32,1007.85 1848.26,1008.83 1850.19,1009.76 1852.12,1010.65 1854.06,1011.5 1855.99,1012.3 1857.92,1013.07 1859.86,1013.79 1861.79,1014.46 1863.72,1015.09 1865.66,1015.68 1867.59,1016.23 1869.52,1016.73 1871.46,1017.19 1873.39,1017.6 1875.32,1017.98 1877.25,1018.3 1879.19,1018.59 1881.12,1018.83 1883.05,1019.03 1884.99,1019.18 1886.92,1019.29 1888.85,1019.36 1890.79,1019.39 1892.72,1019.37 1894.65,1019.3 1896.59,1019.2 1898.52,1019.05 1900.45,1018.85 1902.39,1018.62 1904.32,1018.34 1906.25,1018.02 1908.19,1017.65 1910.12,1017.24 1912.05,1016.79 1913.98,1016.29 1915.92,1015.76 1917.85,1015.18 1919.78,1014.55 1921.72,1013.89 1923.65,1013.18 1925.58,1012.43 1927.52,1011.64 1929.45,1010.8 1931.38,1009.92 1933.32,1009 1935.25,1008.04 1937.18,1007.04 1939.12,1006 1941.05,1004.91 1942.98,1003.78 1944.92,1002.61 1946.85,1001.4 1948.78,1000.15 1950.72,998.862 1952.65,997.53 1954.58,996.158 1956.51,994.745 1958.45,993.292 1960.38,991.799 1962.31,990.266 1964.25,988.693 1966.18,987.081 1968.11,985.43 1970.05,983.74 1971.98,982.01 1973.91,980.242 1975.85,978.436 1977.78,976.591 1979.71,974.708 1981.65,972.788 1983.58,970.829 1985.51,968.833 1987.45,966.8 1989.38,964.73 1991.31,962.623 1993.24,960.48 1995.18,958.301 1997.11,956.085 1999.04,953.834 2000.98,951.547 2002.91,949.224 2004.84,946.867 2006.78,944.475 2008.71,942.048 2010.64,939.588 2012.58,937.093 2014.51,934.564 2016.44,932.002 2018.38,929.407 2020.31,926.779 2022.24,924.119 2024.18,921.426 2026.11,918.701 2028.04,915.945 2029.97,913.157 2031.91,910.338 2033.84,907.488 2035.77,904.608 2037.71,901.698 2039.64,898.757 2041.57,895.788 2043.51,892.789 2045.44,889.761 2047.37,886.704 2049.31,883.62 2051.24,880.507 2053.17,877.367 2055.11,874.2 2057.04,871.006 2058.97,867.785 2060.91,864.538 2062.84,861.265 2064.77,857.967 2066.71,854.644 2068.64,851.295 2070.57,847.923 2072.5,844.526 2074.44,841.106 2076.37,837.662 2078.3,834.196 2080.24,830.706 2082.17,827.195 2084.1,823.662 2086.04,820.107 2087.97,816.531 2089.9,812.935 2091.84,809.318 2093.77,805.681 2095.7,802.025 2097.64,798.35 2099.57,794.656 2101.5,790.943 2103.44,787.212 2105.37,783.464 2107.3,779.699 2109.23,775.917 2111.17,772.119 2113.1,768.304 2115.03,764.475 2116.97,760.629 2118.9,756.77 2120.83,752.896 2122.77,749.007 2124.7,745.106 2126.63,741.191 2128.57,737.264 2130.5,733.324 2132.43,729.373 2134.37,725.41 2136.3,721.436 2138.23,717.452 2140.17,713.457 2142.1,709.453 2144.03,705.439 2145.97,701.417 2147.9,697.386 2149.83,693.347 2151.76,689.3 2153.7,685.247 2155.63,681.186 2157.56,677.12 2159.5,673.047 2161.43,668.969 2163.36,664.886 2165.3,660.798 2167.23,656.706 2169.16,652.611 2171.1,648.512 2173.03,644.41 2174.96,640.306 2176.9,636.2 2178.83,632.092 2180.76,627.984 2182.7,623.874 2184.63,619.765 2186.56,615.655 2188.49,611.547 2190.43,607.439 2192.36,603.333 2194.29,599.229 2196.23,595.127 2198.16,591.028 2200.09,586.932 2202.03,582.84 2203.96,578.752 2205.89,574.668 2207.83,570.59 2209.76,566.517 2211.69,562.45 2213.63,558.389 2215.56,554.335 2217.49,550.287 2219.43,546.248 2221.36,542.216 2223.29,538.193 2225.22,534.179 2227.16,530.174 2229.09,526.179 2231.02,522.194 2232.96,518.219 2234.89,514.255 2236.82,510.303 2238.76,506.363 2240.69,502.435 2242.62,498.519 2244.56,494.617 2246.49,490.728 2248.42,486.852 2250.36,482.992 2252.29,479.146 2254.22,475.315 2256.16,471.499 2258.09,467.7 2260.02,463.916 2261.96,460.15 2263.89,456.401 2265.82,452.669 2267.75,448.955 2269.69,445.26 2271.62,441.583 2273.55,437.925 2275.49,434.287 2277.42,430.669 2279.35,427.071 2281.29,423.494 2283.22,419.937 2285.15,416.403 2287.09,412.89 2289.02,409.399 2290.95,405.931 2292.89,402.485 2294.82,399.064 "></polyline>
<path clip-path="url(#clip150)" d="M1851.82 236.113 L2284.52 236.113 L2284.52 80.5926 L1851.82 80.5926  Z" fill="#ffffff" fill-rule="evenodd" fill-opacity="1"></path>
<polyline clip-path="url(#clip150)" style="stroke:#000000; stroke-linecap:round; stroke-linejoin:round; stroke-width:4; stroke-opacity:1; fill:none" points="1851.82,236.113 2284.52,236.113 2284.52,80.5926 1851.82,80.5926 1851.82,236.113 "></polyline>
<polyline clip-path="url(#clip150)" style="stroke:#009af9; stroke-linecap:round; stroke-linejoin:round; stroke-width:8; stroke-opacity:1; fill:none" points="1874.57,132.433 2011.04,132.433 "></polyline>
<path clip-path="url(#clip150)" d="M2049.62 119.759 L2043.28 136.958 L2055.99 136.958 L2049.62 119.759 M2046.98 115.153 L2052.28 115.153 L2065.45 149.713 L2060.59 149.713 L2057.45 140.847 L2041.87 140.847 L2038.72 149.713 L2033.79 149.713 L2046.98 115.153 Z" fill="#000000" fill-rule="nonzero" fill-opacity="1"></path><path clip-path="url(#clip150)" d="M2091.87 134.065 L2091.87 149.713 L2087.61 149.713 L2087.61 134.203 Q2087.61 130.523 2086.17 128.694 Q2084.74 126.866 2081.87 126.866 Q2078.42 126.866 2076.43 129.065 Q2074.44 131.264 2074.44 135.06 L2074.44 149.713 L2070.15 149.713 L2070.15 123.787 L2074.44 123.787 L2074.44 127.815 Q2075.96 125.477 2078.02 124.319 Q2080.11 123.162 2082.82 123.162 Q2087.28 123.162 2089.58 125.94 Q2091.87 128.694 2091.87 134.065 Z" fill="#000000" fill-rule="nonzero" fill-opacity="1"></path><path clip-path="url(#clip150)" d="M2112.14 136.68 Q2106.98 136.68 2104.99 137.861 Q2103 139.041 2103 141.889 Q2103 144.157 2104.48 145.5 Q2105.99 146.819 2108.56 146.819 Q2112.1 146.819 2114.23 144.319 Q2116.38 141.796 2116.38 137.629 L2116.38 136.68 L2112.14 136.68 M2120.64 134.921 L2120.64 149.713 L2116.38 149.713 L2116.38 145.777 Q2114.92 148.139 2112.75 149.273 Q2110.57 150.384 2107.42 150.384 Q2103.44 150.384 2101.08 148.162 Q2098.74 145.916 2098.74 142.166 Q2098.74 137.791 2101.66 135.569 Q2104.6 133.347 2110.41 133.347 L2116.38 133.347 L2116.38 132.93 Q2116.38 129.991 2114.44 128.393 Q2112.51 126.773 2109.02 126.773 Q2106.8 126.773 2104.69 127.305 Q2102.58 127.838 2100.64 128.903 L2100.64 124.967 Q2102.98 124.065 2105.18 123.625 Q2107.38 123.162 2109.46 123.162 Q2115.08 123.162 2117.86 126.078 Q2120.64 128.995 2120.64 134.921 Z" fill="#000000" fill-rule="nonzero" fill-opacity="1"></path><path clip-path="url(#clip150)" d="M2129.41 113.694 L2133.67 113.694 L2133.67 149.713 L2129.41 149.713 L2129.41 113.694 Z" fill="#000000" fill-rule="nonzero" fill-opacity="1"></path><path clip-path="url(#clip150)" d="M2153.37 152.12 Q2151.57 156.75 2149.85 158.162 Q2148.14 159.574 2145.27 159.574 L2141.87 159.574 L2141.87 156.009 L2144.37 156.009 Q2146.13 156.009 2147.1 155.176 Q2148.07 154.342 2149.25 151.24 L2150.01 149.296 L2139.53 123.787 L2144.04 123.787 L2152.14 144.065 L2160.25 123.787 L2164.76 123.787 L2153.37 152.12 Z" fill="#000000" fill-rule="nonzero" fill-opacity="1"></path><path clip-path="url(#clip150)" d="M2174.85 116.426 L2174.85 123.787 L2183.63 123.787 L2183.63 127.097 L2174.85 127.097 L2174.85 141.171 Q2174.85 144.342 2175.71 145.245 Q2176.59 146.148 2179.25 146.148 L2183.63 146.148 L2183.63 149.713 L2179.25 149.713 Q2174.32 149.713 2172.45 147.884 Q2170.57 146.032 2170.57 141.171 L2170.57 127.097 L2167.45 127.097 L2167.45 123.787 L2170.57 123.787 L2170.57 116.426 L2174.85 116.426 Z" fill="#000000" fill-rule="nonzero" fill-opacity="1"></path><path clip-path="url(#clip150)" d="M2189.23 123.787 L2193.49 123.787 L2193.49 149.713 L2189.23 149.713 L2189.23 123.787 M2189.23 113.694 L2193.49 113.694 L2193.49 119.088 L2189.23 119.088 L2189.23 113.694 Z" fill="#000000" fill-rule="nonzero" fill-opacity="1"></path><path clip-path="url(#clip150)" d="M2221.06 124.782 L2221.06 128.764 Q2219.25 127.768 2217.42 127.282 Q2215.62 126.773 2213.76 126.773 Q2209.62 126.773 2207.33 129.412 Q2205.04 132.028 2205.04 136.773 Q2205.04 141.518 2207.33 144.157 Q2209.62 146.773 2213.76 146.773 Q2215.62 146.773 2217.42 146.287 Q2219.25 145.777 2221.06 144.782 L2221.06 148.717 Q2219.27 149.551 2217.35 149.967 Q2215.45 150.384 2213.3 150.384 Q2207.44 150.384 2204 146.703 Q2200.55 143.023 2200.55 136.773 Q2200.55 130.43 2204.02 126.796 Q2207.51 123.162 2213.58 123.162 Q2215.55 123.162 2217.42 123.579 Q2219.3 123.972 2221.06 124.782 Z" fill="#000000" fill-rule="nonzero" fill-opacity="1"></path><path clip-path="url(#clip150)" d="M2240.25 136.68 Q2235.08 136.68 2233.09 137.861 Q2231.1 139.041 2231.1 141.889 Q2231.1 144.157 2232.58 145.5 Q2234.09 146.819 2236.66 146.819 Q2240.2 146.819 2242.33 144.319 Q2244.48 141.796 2244.48 137.629 L2244.48 136.68 L2240.25 136.68 M2248.74 134.921 L2248.74 149.713 L2244.48 149.713 L2244.48 145.777 Q2243.02 148.139 2240.85 149.273 Q2238.67 150.384 2235.52 150.384 Q2231.54 150.384 2229.18 148.162 Q2226.84 145.916 2226.84 142.166 Q2226.84 137.791 2229.76 135.569 Q2232.7 133.347 2238.51 133.347 L2244.48 133.347 L2244.48 132.93 Q2244.48 129.991 2242.54 128.393 Q2240.62 126.773 2237.12 126.773 Q2234.9 126.773 2232.79 127.305 Q2230.69 127.838 2228.74 128.903 L2228.74 124.967 Q2231.08 124.065 2233.28 123.625 Q2235.48 123.162 2237.56 123.162 Q2243.19 123.162 2245.96 126.078 Q2248.74 128.995 2248.74 134.921 Z" fill="#000000" fill-rule="nonzero" fill-opacity="1"></path><path clip-path="url(#clip150)" d="M2257.51 113.694 L2261.77 113.694 L2261.77 149.713 L2257.51 149.713 L2257.51 113.694 Z" fill="#000000" fill-rule="nonzero" fill-opacity="1"></path><polyline clip-path="url(#clip150)" style="stroke:#e26f46; stroke-linecap:round; stroke-linejoin:round; stroke-width:4; stroke-opacity:1; fill:none" stroke-dasharray="16, 8, 2, 8" points="1874.57,184.273 2011.04,184.273 "></polyline>
<path clip-path="url(#clip150)" d="M2033.79 166.993 L2055.64 166.993 L2055.64 170.928 L2038.46 170.928 L2038.46 181.159 L2054.92 181.159 L2054.92 185.094 L2038.46 185.094 L2038.46 197.617 L2056.06 197.617 L2056.06 201.553 L2033.79 201.553 L2033.79 166.993 Z" fill="#000000" fill-rule="nonzero" fill-opacity="1"></path><path clip-path="url(#clip150)" d="M2063.74 166.993 L2068.42 166.993 L2068.42 197.617 L2085.25 197.617 L2085.25 201.553 L2063.74 201.553 L2063.74 166.993 Z" fill="#000000" fill-rule="nonzero" fill-opacity="1"></path><path clip-path="url(#clip150)" d="M2090.15 166.993 L2097.12 166.993 L2105.94 190.511 L2114.81 166.993 L2121.77 166.993 L2121.77 201.553 L2117.21 201.553 L2117.21 171.206 L2108.3 194.909 L2103.6 194.909 L2094.69 171.206 L2094.69 201.553 L2090.15 201.553 L2090.15 166.993 Z" fill="#000000" fill-rule="nonzero" fill-opacity="1"></path></svg>