<svg xmlns="http://www.w3.org/2000/svg" xmlns:xlink="http://www.w3.org/1999/xlink" width="600" height="300" viewBox="0 0 2400 1200">
<defs>
  <clipPath id="clip190">
    <rect x="0" y="0" width="2400" height="1200"></rect>
  </clipPath>
</defs>
<path clip-path="url(#clip190)" d="M0 1200 L2400 1200 L2400 0 L0 0  Z" fill="#ffffff" fill-rule="evenodd" fill-opacity="1"></path>
<defs>
  <clipPath id="clip191">
    <rect x="480" y="0" width="1681" height="1200"></rect>
  </clipPath>
</defs>
<path clip-path="url(#clip190)" d="M334.814 1047.7 L2352.76 1047.7 L2352.76 47.2441 L334.814 47.2441  Z" fill="#ffffff" fill-rule="evenodd" fill-opacity="1"></path>
<defs>
  <clipPath id="clip192">
    <rect x="334" y="47" width="2019" height="1001"></rect>
  </clipPath>
</defs>
<polyline clip-path="url(#clip192)" style="stroke:#000000; stroke-linecap:round; stroke-linejoin:round; stroke-width:2; stroke-opacity:0.1; fill:none" points="391.926,1047.7 391.926,47.2441 "></polyline>
<polyline clip-path="url(#clip192)" style="stroke:#000000; stroke-linecap:round; stroke-linejoin:round; stroke-width:2; stroke-opacity:0.1; fill:none" points="867.855,1047.7 867.855,47.2441 "></polyline>
<polyline clip-path="url(#clip192)" style="stroke:#000000; stroke-linecap:round; stroke-linejoin:round; stroke-width:2; stroke-opacity:0.1; fill:none" points="1343.79,1047.7 1343.79,47.2441 "></polyline>
<polyline clip-path="url(#clip192)" style="stroke:#000000; stroke-linecap:round; stroke-linejoin:round; stroke-width:2; stroke-opacity:0.1; fill:none" points="1819.71,1047.7 1819.71,47.2441 "></polyline>
<polyline clip-path="url(#clip192)" style="stroke:#000000; stroke-linecap:round; stroke-linejoin:round; stroke-width:2; stroke-opacity:0.1; fill:none" points="2295.64,1047.7 2295.64,47.2441 "></polyline>
<polyline clip-path="url(#clip192)" style="stroke:#000000; stroke-linecap:round; stroke-linejoin:round; stroke-width:2; stroke-opacity:0.1; fill:none" points="334.814,874.379 2352.76,874.379 "></polyline>
<polyline clip-path="url(#clip192)" style="stroke:#000000; stroke-linecap:round; stroke-linejoin:round; stroke-width:2; stroke-opacity:0.1; fill:none" points="334.814,654.129 2352.76,654.129 "></polyline>
<polyline clip-path="url(#clip192)" style="stroke:#000000; stroke-linecap:round; stroke-linejoin:round; stroke-width:2; stroke-opacity:0.1; fill:none" points="334.814,433.879 2352.76,433.879 "></polyline>
<polyline clip-path="url(#clip192)" style="stroke:#000000; stroke-linecap:round; stroke-linejoin:round; stroke-width:2; stroke-opacity:0.1; fill:none" points="334.814,213.63 2352.76,213.63 "></polyline>
<polyline clip-path="url(#clip190)" style="stroke:#000000; stroke-linecap:round; stroke-linejoin:round; stroke-width:4; stroke-opacity:1; fill:none" points="334.814,1047.7 2352.76,1047.7 "></polyline>
<polyline clip-path="url(#clip190)" style="stroke:#000000; stroke-linecap:round; stroke-linejoin:round; stroke-width:4; stroke-opacity:1; fill:none" points="391.926,1047.7 391.926,1028.8 "></polyline>
<polyline clip-path="url(#clip190)" style="stroke:#000000; stroke-linecap:round; stroke-linejoin:round; stroke-width:4; stroke-opacity:1; fill:none" points="867.855,1047.7 867.855,1028.8 "></polyline>
<polyline clip-path="url(#clip190)" style="stroke:#000000; stroke-linecap:round; stroke-linejoin:round; stroke-width:4; stroke-opacity:1; fill:none" points="1343.79,1047.7 1343.79,1028.8 "></polyline>
<polyline clip-path="url(#clip190)" style="stroke:#000000; stroke-linecap:round; stroke-linejoin:round; stroke-width:4; stroke-opacity:1; fill:none" points="1819.71,1047.7 1819.71,1028.8 "></polyline>
<polyline clip-path="url(#clip190)" style="stroke:#000000; stroke-linecap:round; stroke-linejoin:round; stroke-width:4; stroke-opacity:1; fill:none" points="2295.64,1047.7 2295.64,1028.8 "></polyline>
<path clip-path="url(#clip190)" d="M354.229 1078.62 Q350.618 1078.62 348.79 1082.18 Q346.984 1085.72 346.984 1092.85 Q346.984 1099.96 348.79 1103.53 Q350.618 1107.07 354.229 1107.07 Q357.864 1107.07 359.669 1103.53 Q361.498 1099.96 361.498 1092.85 Q361.498 1085.72 359.669 1082.18 Q357.864 1078.62 354.229 1078.62 M354.229 1074.91 Q360.039 1074.91 363.095 1079.52 Q366.174 1084.1 366.174 1092.85 Q366.174 1101.58 363.095 1106.19 Q360.039 1110.77 354.229 1110.77 Q348.419 1110.77 345.34 1106.19 Q342.285 1101.58 342.285 1092.85 Q342.285 1084.1 345.34 1079.52 Q348.419 1074.91 354.229 1074.91 Z" fill="#000000" fill-rule="nonzero" fill-opacity="1"></path><path clip-path="url(#clip190)" d="M374.391 1104.22 L379.275 1104.22 L379.275 1110.1 L374.391 1110.1 L374.391 1104.22 Z" fill="#000000" fill-rule="nonzero" fill-opacity="1"></path><path clip-path="url(#clip190)" d="M399.461 1078.62 Q395.849 1078.62 394.021 1082.18 Q392.215 1085.72 392.215 1092.85 Q392.215 1099.96 394.021 1103.53 Q395.849 1107.07 399.461 1107.07 Q403.095 1107.07 404.9 1103.53 Q406.729 1099.96 406.729 1092.85 Q406.729 1085.72 404.9 1082.18 Q403.095 1078.62 399.461 1078.62 M399.461 1074.91 Q405.271 1074.91 408.326 1079.52 Q411.405 1084.1 411.405 1092.85 Q411.405 1101.58 408.326 1106.19 Q405.271 1110.77 399.461 1110.77 Q393.65 1110.77 390.572 1106.19 Q387.516 1101.58 387.516 1092.85 Q387.516 1084.1 390.572 1079.52 Q393.65 1074.91 399.461 1074.91 Z" fill="#000000" fill-rule="nonzero" fill-opacity="1"></path><path clip-path="url(#clip190)" d="M429.622 1078.62 Q426.011 1078.62 424.183 1082.18 Q422.377 1085.72 422.377 1092.85 Q422.377 1099.96 424.183 1103.53 Q426.011 1107.07 429.622 1107.07 Q433.257 1107.07 435.062 1103.53 Q436.891 1099.96 436.891 1092.85 Q436.891 1085.72 435.062 1082.18 Q433.257 1078.62 429.622 1078.62 M429.622 1074.91 Q435.433 1074.91 438.488 1079.52 Q441.567 1084.1 441.567 1092.85 Q441.567 1101.58 438.488 1106.19 Q435.433 1110.77 429.622 1110.77 Q423.812 1110.77 420.734 1106.19 Q417.678 1101.58 417.678 1092.85 Q417.678 1084.1 420.734 1079.52 Q423.812 1074.91 429.622 1074.91 Z" fill="#000000" fill-rule="nonzero" fill-opacity="1"></path><path clip-path="url(#clip190)" d="M830.657 1078.62 Q827.046 1078.62 825.217 1082.18 Q823.411 1085.72 823.411 1092.85 Q823.411 1099.96 825.217 1103.53 Q827.046 1107.07 830.657 1107.07 Q834.291 1107.07 836.096 1103.53 Q837.925 1099.96 837.925 1092.85 Q837.925 1085.72 836.096 1082.18 Q834.291 1078.62 830.657 1078.62 M830.657 1074.91 Q836.467 1074.91 839.522 1079.52 Q842.601 1084.1 842.601 1092.85 Q842.601 1101.58 839.522 1106.19 Q836.467 1110.77 830.657 1110.77 Q824.846 1110.77 821.768 1106.19 Q818.712 1101.58 818.712 1092.85 Q818.712 1084.1 821.768 1079.52 Q824.846 1074.91 830.657 1074.91 Z" fill="#000000" fill-rule="nonzero" fill-opacity="1"></path><path clip-path="url(#clip190)" d="M850.819 1104.22 L855.703 1104.22 L855.703 1110.1 L850.819 1110.1 L850.819 1104.22 Z" fill="#000000" fill-rule="nonzero" fill-opacity="1"></path><path clip-path="url(#clip190)" d="M869.916 1106.16 L886.235 1106.16 L886.235 1110.1 L864.291 1110.1 L864.291 1106.16 Q866.953 1103.41 871.536 1098.78 Q876.142 1094.13 877.323 1092.79 Q879.568 1090.26 880.448 1088.53 Q881.351 1086.77 881.351 1085.08 Q881.351 1082.32 879.406 1080.59 Q877.485 1078.85 874.383 1078.85 Q872.184 1078.85 869.73 1079.61 Q867.3 1080.38 864.522 1081.93 L864.522 1077.21 Q867.346 1076.07 869.8 1075.49 Q872.254 1074.91 874.291 1074.91 Q879.661 1074.91 882.855 1077.6 Q886.05 1080.29 886.05 1084.78 Q886.05 1086.91 885.24 1088.83 Q884.453 1090.72 882.346 1093.32 Q881.767 1093.99 878.666 1097.21 Q875.564 1100.4 869.916 1106.16 Z" fill="#000000" fill-rule="nonzero" fill-opacity="1"></path><path clip-path="url(#clip190)" d="M896.096 1075.54 L914.452 1075.54 L914.452 1079.48 L900.378 1079.48 L900.378 1087.95 Q901.397 1087.6 902.415 1087.44 Q903.434 1087.25 904.452 1087.25 Q910.24 1087.25 913.619 1090.42 Q916.999 1093.6 916.999 1099.01 Q916.999 1104.59 913.527 1107.69 Q910.054 1110.77 903.735 1110.77 Q901.559 1110.77 899.29 1110.4 Q897.045 1110.03 894.638 1109.29 L894.638 1104.59 Q896.721 1105.72 898.943 1106.28 Q901.165 1106.84 903.642 1106.84 Q907.647 1106.84 909.985 1104.73 Q912.323 1102.62 912.323 1099.01 Q912.323 1095.4 909.985 1093.29 Q907.647 1091.19 903.642 1091.19 Q901.767 1091.19 899.892 1091.6 Q898.04 1092.02 896.096 1092.9 L896.096 1075.54 Z" fill="#000000" fill-rule="nonzero" fill-opacity="1"></path><path clip-path="url(#clip190)" d="M1306.09 1078.62 Q1302.48 1078.62 1300.65 1082.18 Q1298.84 1085.72 1298.84 1092.85 Q1298.84 1099.96 1300.65 1103.53 Q1302.48 1107.07 1306.09 1107.07 Q1309.72 1107.07 1311.53 1103.53 Q1313.36 1099.96 1313.36 1092.85 Q1313.36 1085.72 1311.53 1082.18 Q1309.72 1078.62 1306.09 1078.62 M1306.09 1074.91 Q1311.9 1074.91 1314.95 1079.52 Q1318.03 1084.1 1318.03 1092.85 Q1318.03 1101.58 1314.95 1106.19 Q1311.9 1110.77 1306.09 1110.77 Q1300.28 1110.77 1297.2 1106.19 Q1294.14 1101.58 1294.14 1092.85 Q1294.14 1084.1 1297.2 1079.52 Q1300.28 1074.91 1306.09 1074.91 Z" fill="#000000" fill-rule="nonzero" fill-opacity="1"></path><path clip-path="url(#clip190)" d="M1326.25 1104.22 L1331.13 1104.22 L1331.13 1110.1 L1326.25 1110.1 L1326.25 1104.22 Z" fill="#000000" fill-rule="nonzero" fill-opacity="1"></path><path clip-path="url(#clip190)" d="M1341.37 1075.54 L1359.72 1075.54 L1359.72 1079.48 L1345.65 1079.48 L1345.65 1087.95 Q1346.67 1087.6 1347.69 1087.44 Q1348.7 1087.25 1349.72 1087.25 Q1355.51 1087.25 1358.89 1090.42 Q1362.27 1093.6 1362.27 1099.01 Q1362.27 1104.59 1358.8 1107.69 Q1355.32 1110.77 1349 1110.77 Q1346.83 1110.77 1344.56 1110.4 Q1342.32 1110.03 1339.91 1109.29 L1339.91 1104.59 Q1341.99 1105.72 1344.21 1106.28 Q1346.44 1106.84 1348.91 1106.84 Q1352.92 1106.84 1355.25 1104.73 Q1357.59 1102.62 1357.59 1099.01 Q1357.59 1095.4 1355.25 1093.29 Q1352.92 1091.19 1348.91 1091.19 Q1347.04 1091.19 1345.16 1091.6 Q1343.31 1092.02 1341.37 1092.9 L1341.37 1075.54 Z" fill="#000000" fill-rule="nonzero" fill-opacity="1"></path><path clip-path="url(#clip190)" d="M1381.48 1078.62 Q1377.87 1078.62 1376.04 1082.18 Q1374.24 1085.72 1374.24 1092.85 Q1374.24 1099.96 1376.04 1103.53 Q1377.87 1107.07 1381.48 1107.07 Q1385.12 1107.07 1386.92 1103.53 Q1388.75 1099.96 1388.75 1092.85 Q1388.75 1085.72 1386.92 1082.18 Q1385.12 1078.62 1381.48 1078.62 M1381.48 1074.91 Q1387.29 1074.91 1390.35 1079.52 Q1393.43 1084.1 1393.43 1092.85 Q1393.43 1101.58 1390.35 1106.19 Q1387.29 1110.77 1381.48 1110.77 Q1375.67 1110.77 1372.59 1106.19 Q1369.54 1101.58 1369.54 1092.85 Q1369.54 1084.1 1372.59 1079.52 Q1375.67 1074.91 1381.48 1074.91 Z" fill="#000000" fill-rule="nonzero" fill-opacity="1"></path><path clip-path="url(#clip190)" d="M1782.52 1078.62 Q1778.9 1078.62 1777.08 1082.18 Q1775.27 1085.72 1775.27 1092.85 Q1775.27 1099.96 1777.08 1103.53 Q1778.9 1107.07 1782.52 1107.07 Q1786.15 1107.07 1787.96 1103.53 Q1789.78 1099.96 1789.78 1092.85 Q1789.78 1085.72 1787.96 1082.18 Q1786.15 1078.62 1782.52 1078.62 M1782.52 1074.91 Q1788.33 1074.91 1791.38 1079.52 Q1794.46 1084.1 1794.46 1092.85 Q1794.46 1101.58 1791.38 1106.19 Q1788.33 1110.77 1782.52 1110.77 Q1776.71 1110.77 1773.63 1106.19 Q1770.57 1101.58 1770.57 1092.85 Q1770.57 1084.1 1773.63 1079.52 Q1776.71 1074.91 1782.52 1074.91 Z" fill="#000000" fill-rule="nonzero" fill-opacity="1"></path><path clip-path="url(#clip190)" d="M1802.68 1104.22 L1807.56 1104.22 L1807.56 1110.1 L1802.68 1110.1 L1802.68 1104.22 Z" fill="#000000" fill-rule="nonzero" fill-opacity="1"></path><path clip-path="url(#clip190)" d="M1816.57 1075.54 L1838.79 1075.54 L1838.79 1077.53 L1826.24 1110.1 L1821.36 1110.1 L1833.16 1079.48 L1816.57 1079.48 L1816.57 1075.54 Z" fill="#000000" fill-rule="nonzero" fill-opacity="1"></path><path clip-path="url(#clip190)" d="M1847.96 1075.54 L1866.31 1075.54 L1866.31 1079.48 L1852.24 1079.48 L1852.24 1087.95 Q1853.26 1087.6 1854.27 1087.44 Q1855.29 1087.25 1856.31 1087.25 Q1862.1 1087.25 1865.48 1090.42 Q1868.86 1093.6 1868.86 1099.01 Q1868.86 1104.59 1865.39 1107.69 Q1861.91 1110.77 1855.59 1110.77 Q1853.42 1110.77 1851.15 1110.4 Q1848.9 1110.03 1846.5 1109.29 L1846.5 1104.59 Q1848.58 1105.72 1850.8 1106.28 Q1853.02 1106.84 1855.5 1106.84 Q1859.51 1106.84 1861.84 1104.73 Q1864.18 1102.62 1864.18 1099.01 Q1864.18 1095.4 1861.84 1093.29 Q1859.51 1091.19 1855.5 1091.19 Q1853.63 1091.19 1851.75 1091.6 Q1849.9 1092.02 1847.96 1092.9 L1847.96 1075.54 Z" fill="#000000" fill-rule="nonzero" fill-opacity="1"></path><path clip-path="url(#clip190)" d="M2247.72 1106.16 L2255.36 1106.16 L2255.36 1079.8 L2247.05 1081.47 L2247.05 1077.21 L2255.31 1075.54 L2259.98 1075.54 L2259.98 1106.16 L2267.62 1106.16 L2267.62 1110.1 L2247.72 1110.1 L2247.72 1106.16 Z" fill="#000000" fill-rule="nonzero" fill-opacity="1"></path><path clip-path="url(#clip190)" d="M2277.07 1104.22 L2281.95 1104.22 L2281.95 1110.1 L2277.07 1110.1 L2277.07 1104.22 Z" fill="#000000" fill-rule="nonzero" fill-opacity="1"></path><path clip-path="url(#clip190)" d="M2302.14 1078.62 Q2298.53 1078.62 2296.7 1082.18 Q2294.89 1085.72 2294.89 1092.85 Q2294.89 1099.96 2296.7 1103.53 Q2298.53 1107.07 2302.14 1107.07 Q2305.77 1107.07 2307.58 1103.53 Q2309.41 1099.96 2309.41 1092.85 Q2309.41 1085.72 2307.58 1082.18 Q2305.77 1078.62 2302.14 1078.62 M2302.14 1074.91 Q2307.95 1074.91 2311 1079.52 Q2314.08 1084.1 2314.08 1092.85 Q2314.08 1101.58 2311 1106.19 Q2307.95 1110.77 2302.14 1110.77 Q2296.33 1110.77 2293.25 1106.19 Q2290.19 1101.58 2290.19 1092.85 Q2290.19 1084.1 2293.25 1079.52 Q2296.33 1074.91 2302.14 1074.91 Z" fill="#000000" fill-rule="nonzero" fill-opacity="1"></path><path clip-path="url(#clip190)" d="M2332.3 1078.62 Q2328.69 1078.62 2326.86 1082.18 Q2325.05 1085.72 2325.05 1092.85 Q2325.05 1099.96 2326.86 1103.53 Q2328.69 1107.07 2332.3 1107.07 Q2335.93 1107.07 2337.74 1103.53 Q2339.57 1099.96 2339.57 1092.85 Q2339.57 1085.72 2337.74 1082.18 Q2335.93 1078.62 2332.3 1078.62 M2332.3 1074.91 Q2338.11 1074.91 2341.16 1079.52 Q2344.24 1084.1 2344.24 1092.85 Q2344.24 1101.58 2341.16 1106.19 Q2338.11 1110.77 2332.3 1110.77 Q2326.49 1110.77 2323.41 1106.19 Q2320.35 1101.58 2320.35 1092.85 Q2320.35 1084.1 2323.41 1079.52 Q2326.49 1074.91 2332.3 1074.91 Z" fill="#000000" fill-rule="nonzero" fill-opacity="1"></path><path clip-path="url(#clip190)" d="M1360.4 1156.92 L1347.51 1174.26 L1361.07 1192.56 L1354.16 1192.56 L1343.79 1178.56 L1333.41 1192.56 L1326.5 1192.56 L1340.35 1173.91 L1327.68 1156.92 L1334.59 1156.92 L1344.04 1169.62 L1353.49 1156.92 L1360.4 1156.92 Z" fill="#000000" fill-rule="nonzero" fill-opacity="1"></path><polyline clip-path="url(#clip190)" style="stroke:#000000; stroke-linecap:round; stroke-linejoin:round; stroke-width:4; stroke-opacity:1; fill:none" points="334.814,1047.7 334.814,47.2441 "></polyline>
<polyline clip-path="url(#clip190)" style="stroke:#000000; stroke-linecap:round; stroke-linejoin:round; stroke-width:4; stroke-opacity:1; fill:none" points="334.814,874.379 353.712,874.379 "></polyline>
<polyline clip-path="url(#clip190)" style="stroke:#000000; stroke-linecap:round; stroke-linejoin:round; stroke-width:4; stroke-opacity:1; fill:none" points="334.814,654.129 353.712,654.129 "></polyline>
<polyline clip-path="url(#clip190)" style="stroke:#000000; stroke-linecap:round; stroke-linejoin:round; stroke-width:4; stroke-opacity:1; fill:none" points="334.814,433.879 353.712,433.879 "></polyline>
<polyline clip-path="url(#clip190)" style="stroke:#000000; stroke-linecap:round; stroke-linejoin:round; stroke-width:4; stroke-opacity:1; fill:none" points="334.814,213.63 353.712,213.63 "></polyline>
<path clip-path="url(#clip190)" d="M102.38 874.83 L132.056 874.83 L132.056 878.766 L102.38 878.766 L102.38 874.83 Z" fill="#000000" fill-rule="nonzero" fill-opacity="1"></path><path clip-path="url(#clip190)" d="M152.148 860.178 Q148.537 860.178 146.709 863.743 Q144.903 867.284 144.903 874.414 Q144.903 881.52 146.709 885.085 Q148.537 888.627 152.148 888.627 Q155.783 888.627 157.588 885.085 Q159.417 881.52 159.417 874.414 Q159.417 867.284 157.588 863.743 Q155.783 860.178 152.148 860.178 M152.148 856.474 Q157.959 856.474 161.014 861.081 Q164.093 865.664 164.093 874.414 Q164.093 883.141 161.014 887.747 Q157.959 892.33 152.148 892.33 Q146.338 892.33 143.26 887.747 Q140.204 883.141 140.204 874.414 Q140.204 865.664 143.26 861.081 Q146.338 856.474 152.148 856.474 Z" fill="#000000" fill-rule="nonzero" fill-opacity="1"></path><path clip-path="url(#clip190)" d="M172.31 885.779 L177.195 885.779 L177.195 891.659 L172.31 891.659 L172.31 885.779 Z" fill="#000000" fill-rule="nonzero" fill-opacity="1"></path><path clip-path="url(#clip190)" d="M197.38 860.178 Q193.769 860.178 191.94 863.743 Q190.134 867.284 190.134 874.414 Q190.134 881.52 191.94 885.085 Q193.769 888.627 197.38 888.627 Q201.014 888.627 202.819 885.085 Q204.648 881.52 204.648 874.414 Q204.648 867.284 202.819 863.743 Q201.014 860.178 197.38 860.178 M197.38 856.474 Q203.19 856.474 206.245 861.081 Q209.324 865.664 209.324 874.414 Q209.324 883.141 206.245 887.747 Q203.19 892.33 197.38 892.33 Q191.569 892.33 188.491 887.747 Q185.435 883.141 185.435 874.414 Q185.435 865.664 188.491 861.081 Q191.569 856.474 197.38 856.474 Z" fill="#000000" fill-rule="nonzero" fill-opacity="1"></path><path clip-path="url(#clip190)" d="M227.542 860.178 Q223.93 860.178 222.102 863.743 Q220.296 867.284 220.296 874.414 Q220.296 881.52 222.102 885.085 Q223.93 888.627 227.542 888.627 Q231.176 888.627 232.981 885.085 Q234.81 881.52 234.81 874.414 Q234.81 867.284 232.981 863.743 Q231.176 860.178 227.542 860.178 M227.542 856.474 Q233.352 856.474 236.407 861.081 Q239.486 865.664 239.486 874.414 Q239.486 883.141 236.407 887.747 Q233.352 892.33 227.542 892.33 Q221.731 892.33 218.653 887.747 Q215.597 883.141 215.597 874.414 Q215.597 865.664 218.653 861.081 Q221.731 856.474 227.542 856.474 Z" fill="#000000" fill-rule="nonzero" fill-opacity="1"></path><path clip-path="url(#clip190)" d="M251.731 887.724 L268.051 887.724 L268.051 891.659 L246.106 891.659 L246.106 887.724 Q248.768 884.969 253.352 880.34 Q257.958 875.687 259.139 874.344 Q261.384 871.821 262.264 870.085 Q263.166 868.326 263.166 866.636 Q263.166 863.881 261.222 862.145 Q259.301 860.409 256.199 860.409 Q254 860.409 251.546 861.173 Q249.115 861.937 246.338 863.488 L246.338 858.766 Q249.162 857.631 251.615 857.053 Q254.069 856.474 256.106 856.474 Q261.477 856.474 264.671 859.159 Q267.865 861.844 267.865 866.335 Q267.865 868.465 267.055 870.386 Q266.268 872.284 264.162 874.877 Q263.583 875.548 260.481 878.766 Q257.379 881.96 251.731 887.724 Z" fill="#000000" fill-rule="nonzero" fill-opacity="1"></path><path clip-path="url(#clip190)" d="M277.912 857.099 L296.268 857.099 L296.268 861.034 L282.194 861.034 L282.194 869.506 Q283.213 869.159 284.231 868.997 Q285.25 868.812 286.268 868.812 Q292.055 868.812 295.435 871.983 Q298.814 875.155 298.814 880.571 Q298.814 886.15 295.342 889.252 Q291.87 892.33 285.55 892.33 Q283.375 892.33 281.106 891.96 Q278.861 891.59 276.453 890.849 L276.453 886.15 Q278.537 887.284 280.759 887.84 Q282.981 888.395 285.458 888.395 Q289.462 888.395 291.8 886.289 Q294.138 884.182 294.138 880.571 Q294.138 876.96 291.8 874.854 Q289.462 872.747 285.458 872.747 Q283.583 872.747 281.708 873.164 Q279.856 873.58 277.912 874.46 L277.912 857.099 Z" fill="#000000" fill-rule="nonzero" fill-opacity="1"></path><path clip-path="url(#clip190)" d="M151.153 639.928 Q147.542 639.928 145.713 643.493 Q143.908 647.034 143.908 654.164 Q143.908 661.27 145.713 664.835 Q147.542 668.377 151.153 668.377 Q154.787 668.377 156.593 664.835 Q158.422 661.27 158.422 654.164 Q158.422 647.034 156.593 643.493 Q154.787 639.928 151.153 639.928 M151.153 636.224 Q156.963 636.224 160.019 640.831 Q163.097 645.414 163.097 654.164 Q163.097 662.891 160.019 667.497 Q156.963 672.081 151.153 672.081 Q145.343 672.081 142.264 667.497 Q139.209 662.891 139.209 654.164 Q139.209 645.414 142.264 640.831 Q145.343 636.224 151.153 636.224 Z" fill="#000000" fill-rule="nonzero" fill-opacity="1"></path><path clip-path="url(#clip190)" d="M171.315 665.53 L176.199 665.53 L176.199 671.409 L171.315 671.409 L171.315 665.53 Z" fill="#000000" fill-rule="nonzero" fill-opacity="1"></path><path clip-path="url(#clip190)" d="M196.384 639.928 Q192.773 639.928 190.944 643.493 Q189.139 647.034 189.139 654.164 Q189.139 661.27 190.944 664.835 Q192.773 668.377 196.384 668.377 Q200.019 668.377 201.824 664.835 Q203.653 661.27 203.653 654.164 Q203.653 647.034 201.824 643.493 Q200.019 639.928 196.384 639.928 M196.384 636.224 Q202.194 636.224 205.25 640.831 Q208.329 645.414 208.329 654.164 Q208.329 662.891 205.25 667.497 Q202.194 672.081 196.384 672.081 Q190.574 672.081 187.495 667.497 Q184.44 662.891 184.44 654.164 Q184.44 645.414 187.495 640.831 Q190.574 636.224 196.384 636.224 Z" fill="#000000" fill-rule="nonzero" fill-opacity="1"></path><path clip-path="url(#clip190)" d="M226.546 639.928 Q222.935 639.928 221.106 643.493 Q219.301 647.034 219.301 654.164 Q219.301 661.27 221.106 664.835 Q222.935 668.377 226.546 668.377 Q230.18 668.377 231.986 664.835 Q233.815 661.27 233.815 654.164 Q233.815 647.034 231.986 643.493 Q230.18 639.928 226.546 639.928 M226.546 636.224 Q232.356 636.224 235.412 640.831 Q238.491 645.414 238.491 654.164 Q238.491 662.891 235.412 667.497 Q232.356 672.081 226.546 672.081 Q220.736 672.081 217.657 667.497 Q214.602 662.891 214.602 654.164 Q214.602 645.414 217.657 640.831 Q220.736 636.224 226.546 636.224 Z" fill="#000000" fill-rule="nonzero" fill-opacity="1"></path><path clip-path="url(#clip190)" d="M256.708 639.928 Q253.097 639.928 251.268 643.493 Q249.463 647.034 249.463 654.164 Q249.463 661.27 251.268 664.835 Q253.097 668.377 256.708 668.377 Q260.342 668.377 262.148 664.835 Q263.977 661.27 263.977 654.164 Q263.977 647.034 262.148 643.493 Q260.342 639.928 256.708 639.928 M256.708 636.224 Q262.518 636.224 265.574 640.831 Q268.652 645.414 268.652 654.164 Q268.652 662.891 265.574 667.497 Q262.518 672.081 256.708 672.081 Q250.898 672.081 247.819 667.497 Q244.764 662.891 244.764 654.164 Q244.764 645.414 247.819 640.831 Q250.898 636.224 256.708 636.224 Z" fill="#000000" fill-rule="nonzero" fill-opacity="1"></path><path clip-path="url(#clip190)" d="M286.87 639.928 Q283.259 639.928 281.43 643.493 Q279.625 647.034 279.625 654.164 Q279.625 661.27 281.43 664.835 Q283.259 668.377 286.87 668.377 Q290.504 668.377 292.31 664.835 Q294.138 661.27 294.138 654.164 Q294.138 647.034 292.31 643.493 Q290.504 639.928 286.87 639.928 M286.87 636.224 Q292.68 636.224 295.736 640.831 Q298.814 645.414 298.814 654.164 Q298.814 662.891 295.736 667.497 Q292.68 672.081 286.87 672.081 Q281.06 672.081 277.981 667.497 Q274.926 662.891 274.926 654.164 Q274.926 645.414 277.981 640.831 Q281.06 636.224 286.87 636.224 Z" fill="#000000" fill-rule="nonzero" fill-opacity="1"></path><path clip-path="url(#clip190)" d="M152.148 419.678 Q148.537 419.678 146.709 423.243 Q144.903 426.785 144.903 433.914 Q144.903 441.021 146.709 444.585 Q148.537 448.127 152.148 448.127 Q155.783 448.127 157.588 444.585 Q159.417 441.021 159.417 433.914 Q159.417 426.785 157.588 423.243 Q155.783 419.678 152.148 419.678 M152.148 415.974 Q157.959 415.974 161.014 420.581 Q164.093 425.164 164.093 433.914 Q164.093 442.641 161.014 447.247 Q157.959 451.831 152.148 451.831 Q146.338 451.831 143.26 447.247 Q140.204 442.641 140.204 433.914 Q140.204 425.164 143.26 420.581 Q146.338 415.974 152.148 415.974 Z" fill="#000000" fill-rule="nonzero" fill-opacity="1"></path><path clip-path="url(#clip190)" d="M172.31 445.28 L177.195 445.28 L177.195 451.159 L172.31 451.159 L172.31 445.28 Z" fill="#000000" fill-rule="nonzero" fill-opacity="1"></path><path clip-path="url(#clip190)" d="M197.38 419.678 Q193.769 419.678 191.94 423.243 Q190.134 426.785 190.134 433.914 Q190.134 441.021 191.94 444.585 Q193.769 448.127 197.38 448.127 Q201.014 448.127 202.819 444.585 Q204.648 441.021 204.648 433.914 Q204.648 426.785 202.819 423.243 Q201.014 419.678 197.38 419.678 M197.38 415.974 Q203.19 415.974 206.245 420.581 Q209.324 425.164 209.324 433.914 Q209.324 442.641 206.245 447.247 Q203.19 451.831 197.38 451.831 Q191.569 451.831 188.491 447.247 Q185.435 442.641 185.435 433.914 Q185.435 425.164 188.491 420.581 Q191.569 415.974 197.38 415.974 Z" fill="#000000" fill-rule="nonzero" fill-opacity="1"></path><path clip-path="url(#clip190)" d="M227.542 419.678 Q223.93 419.678 222.102 423.243 Q220.296 426.785 220.296 433.914 Q220.296 441.021 222.102 444.585 Q223.93 448.127 227.542 448.127 Q231.176 448.127 232.981 444.585 Q234.81 441.021 234.81 433.914 Q234.81 426.785 232.981 423.243 Q231.176 419.678 227.542 419.678 M227.542 415.974 Q233.352 415.974 236.407 420.581 Q239.486 425.164 239.486 433.914 Q239.486 442.641 236.407 447.247 Q233.352 451.831 227.542 451.831 Q221.731 451.831 218.653 447.247 Q215.597 442.641 215.597 433.914 Q215.597 425.164 218.653 420.581 Q221.731 415.974 227.542 415.974 Z" fill="#000000" fill-rule="nonzero" fill-opacity="1"></path><path clip-path="url(#clip190)" d="M251.731 447.224 L268.051 447.224 L268.051 451.159 L246.106 451.159 L246.106 447.224 Q248.768 444.47 253.352 439.84 Q257.958 435.187 259.139 433.845 Q261.384 431.322 262.264 429.586 Q263.166 427.826 263.166 426.136 Q263.166 423.382 261.222 421.646 Q259.301 419.91 256.199 419.91 Q254 419.91 251.546 420.674 Q249.115 421.437 246.338 422.988 L246.338 418.266 Q249.162 417.132 251.615 416.553 Q254.069 415.974 256.106 415.974 Q261.477 415.974 264.671 418.66 Q267.865 421.345 267.865 425.836 Q267.865 427.965 267.055 429.886 Q266.268 431.785 264.162 434.377 Q263.583 435.048 260.481 438.266 Q257.379 441.46 251.731 447.224 Z" fill="#000000" fill-rule="nonzero" fill-opacity="1"></path><path clip-path="url(#clip190)" d="M277.912 416.599 L296.268 416.599 L296.268 420.535 L282.194 420.535 L282.194 429.007 Q283.213 428.66 284.231 428.498 Q285.25 428.312 286.268 428.312 Q292.055 428.312 295.435 431.484 Q298.814 434.655 298.814 440.072 Q298.814 445.65 295.342 448.752 Q291.87 451.831 285.55 451.831 Q283.375 451.831 281.106 451.46 Q278.861 451.09 276.453 450.349 L276.453 445.65 Q278.537 446.784 280.759 447.34 Q282.981 447.896 285.458 447.896 Q289.462 447.896 291.8 445.789 Q294.138 443.683 294.138 440.072 Q294.138 436.46 291.8 434.354 Q289.462 432.248 285.458 432.248 Q283.583 432.248 281.708 432.664 Q279.856 433.081 277.912 433.96 L277.912 416.599 Z" fill="#000000" fill-rule="nonzero" fill-opacity="1"></path><path clip-path="url(#clip190)" d="M151.153 199.428 Q147.542 199.428 145.713 202.993 Q143.908 206.535 143.908 213.664 Q143.908 220.771 145.713 224.336 Q147.542 227.877 151.153 227.877 Q154.787 227.877 156.593 224.336 Q158.422 220.771 158.422 213.664 Q158.422 206.535 156.593 202.993 Q154.787 199.428 151.153 199.428 M151.153 195.725 Q156.963 195.725 160.019 200.331 Q163.097 204.914 163.097 213.664 Q163.097 222.391 160.019 226.998 Q156.963 231.581 151.153 231.581 Q145.343 231.581 142.264 226.998 Q139.209 222.391 139.209 213.664 Q139.209 204.914 142.264 200.331 Q145.343 195.725 151.153 195.725 Z" fill="#000000" fill-rule="nonzero" fill-opacity="1"></path><path clip-path="url(#clip190)" d="M171.315 225.03 L176.199 225.03 L176.199 230.91 L171.315 230.91 L171.315 225.03 Z" fill="#000000" fill-rule="nonzero" fill-opacity="1"></path><path clip-path="url(#clip190)" d="M196.384 199.428 Q192.773 199.428 190.944 202.993 Q189.139 206.535 189.139 213.664 Q189.139 220.771 190.944 224.336 Q192.773 227.877 196.384 227.877 Q200.019 227.877 201.824 224.336 Q203.653 220.771 203.653 213.664 Q203.653 206.535 201.824 202.993 Q200.019 199.428 196.384 199.428 M196.384 195.725 Q202.194 195.725 205.25 200.331 Q208.329 204.914 208.329 213.664 Q208.329 222.391 205.25 226.998 Q202.194 231.581 196.384 231.581 Q190.574 231.581 187.495 226.998 Q184.44 222.391 184.44 213.664 Q184.44 204.914 187.495 200.331 Q190.574 195.725 196.384 195.725 Z" fill="#000000" fill-rule="nonzero" fill-opacity="1"></path><path clip-path="url(#clip190)" d="M226.546 199.428 Q222.935 199.428 221.106 202.993 Q219.301 206.535 219.301 213.664 Q219.301 220.771 221.106 224.336 Q222.935 227.877 226.546 227.877 Q230.18 227.877 231.986 224.336 Q233.815 220.771 233.815 213.664 Q233.815 206.535 231.986 202.993 Q230.18 199.428 226.546 199.428 M226.546 195.725 Q232.356 195.725 235.412 200.331 Q238.491 204.914 238.491 213.664 Q238.491 222.391 235.412 226.998 Q232.356 231.581 226.546 231.581 Q220.736 231.581 217.657 226.998 Q214.602 222.391 214.602 213.664 Q214.602 204.914 217.657 200.331 Q220.736 195.725 226.546 195.725 Z" fill="#000000" fill-rule="nonzero" fill-opacity="1"></path><path clip-path="url(#clip190)" d="M246.754 196.35 L265.111 196.35 L265.111 200.285 L251.037 200.285 L251.037 208.757 Q252.055 208.41 253.074 208.248 Q254.092 208.063 255.111 208.063 Q260.898 208.063 264.277 211.234 Q267.657 214.405 267.657 219.822 Q267.657 225.4 264.185 228.502 Q260.713 231.581 254.393 231.581 Q252.217 231.581 249.949 231.211 Q247.703 230.84 245.296 230.099 L245.296 225.4 Q247.379 226.535 249.602 227.09 Q251.824 227.646 254.301 227.646 Q258.305 227.646 260.643 225.539 Q262.981 223.433 262.981 219.822 Q262.981 216.211 260.643 214.104 Q258.305 211.998 254.301 211.998 Q252.426 211.998 250.551 212.414 Q248.699 212.831 246.754 213.711 L246.754 196.35 Z" fill="#000000" fill-rule="nonzero" fill-opacity="1"></path><path clip-path="url(#clip190)" d="M286.87 199.428 Q283.259 199.428 281.43 202.993 Q279.625 206.535 279.625 213.664 Q279.625 220.771 281.43 224.336 Q283.259 227.877 286.87 227.877 Q290.504 227.877 292.31 224.336 Q294.138 220.771 294.138 213.664 Q294.138 206.535 292.31 202.993 Q290.504 199.428 286.87 199.428 M286.87 195.725 Q292.68 195.725 295.736 200.331 Q298.814 204.914 298.814 213.664 Q298.814 222.391 295.736 226.998 Q292.68 231.581 286.87 231.581 Q281.06 231.581 277.981 226.998 Q274.926 222.391 274.926 213.664 Q274.926 204.914 277.981 200.331 Q281.06 195.725 286.87 195.725 Z" fill="#000000" fill-rule="nonzero" fill-opacity="1"></path><path clip-path="url(#clip190)" d="M38.0559 607.278 L16.4762 607.278 L16.4762 601.421 L37.8331 601.421 Q42.8939 601.421 45.4402 599.448 Q47.9546 597.475 47.9546 593.528 Q47.9546 588.785 44.9309 586.048 Q41.9072 583.279 36.6873 583.279 L16.4762 583.279 L16.4762 577.423 L52.1242 577.423 L52.1242 583.279 L46.6496 583.279 Q49.8962 585.412 51.4876 588.244 Q53.0472 591.045 53.0472 594.769 Q53.0472 600.912 49.2278 604.095 Q45.4083 607.278 38.0559 607.278 M15.6168 592.541 L15.6168 592.541 Z" fill="#000000" fill-rule="nonzero" fill-opacity="1"></path><path clip-path="url(#clip190)" d="M2.66262 551.291 Q9.98318 555.556 17.1446 557.625 Q24.306 559.694 31.6584 559.694 Q39.0108 559.694 46.2359 557.625 Q53.4291 555.525 60.7179 551.291 L60.7179 556.384 Q53.2382 561.158 46.0131 563.545 Q38.788 565.901 31.6584 565.901 Q24.5606 565.901 17.3674 563.545 Q10.1742 561.19 2.66262 556.384 L2.66262 551.291 Z" fill="#000000" fill-rule="nonzero" fill-opacity="1"></path><path clip-path="url(#clip190)" d="M16.4762 510.296 L33.8228 523.187 L52.1242 509.628 L52.1242 516.535 L38.1196 526.911 L52.1242 537.287 L52.1242 544.194 L33.4726 530.348 L16.4762 543.016 L16.4762 536.109 L29.1758 526.656 L16.4762 517.203 L16.4762 510.296 Z" fill="#000000" fill-rule="nonzero" fill-opacity="1"></path><path clip-path="url(#clip190)" d="M2.66262 502.275 L2.66262 497.183 Q10.1742 492.409 17.3674 490.053 Q24.5606 487.666 31.6584 487.666 Q38.788 487.666 46.0131 490.053 Q53.2382 492.409 60.7179 497.183 L60.7179 502.275 Q53.4291 498.042 46.2359 495.973 Q39.0108 493.873 31.6584 493.873 Q24.306 493.873 17.1446 495.973 Q9.98318 498.042 2.66262 502.275 Z" fill="#000000" fill-rule="nonzero" fill-opacity="1"></path><polyline clip-path="url(#clip192)" style="stroke:#009af9; stroke-linecap:round; stroke-linejoin:round; stroke-width:8; stroke-opacity:1; fill:none" points="391.926,654.129 393.831,659.753 395.737,665.376 397.643,670.996 399.548,676.612 401.454,682.223 403.36,687.828 405.265,693.424 407.171,699.011 409.076,704.587 410.982,710.152 412.888,715.703 414.793,721.24 416.699,726.761 418.605,732.265 420.51,737.751 422.416,743.216 424.321,748.661 426.227,754.084 428.133,759.482 430.038,764.856 431.944,770.204 433.85,775.525 435.755,780.817 437.661,786.079 439.566,791.31 441.472,796.509 443.378,801.674 445.283,806.804 447.189,811.898 449.095,816.955 451,821.973 452.906,826.952 454.811,831.89 456.717,836.786 458.623,841.639 460.528,846.448 462.434,851.211 464.34,855.928 466.245,860.597 468.151,865.217 470.056,869.787 471.962,874.307 473.868,878.774 475.773,883.188 477.679,887.548 479.585,891.853 481.49,896.101 483.396,900.293 485.301,904.426 487.207,908.5 489.113,912.513 491.018,916.466 492.924,920.356 494.83,924.183 496.735,927.946 498.641,931.645 500.546,935.277 502.452,938.843 504.358,942.341 506.263,945.771 508.169,949.132 510.075,952.423 511.98,955.643 513.886,958.791 515.791,961.867 517.697,964.87 519.603,967.799 521.508,970.654 523.414,973.433 525.32,976.136 527.225,978.763 529.131,981.312 531.036,983.784 532.942,986.177 534.848,988.491 536.753,990.725 538.659,992.879 540.565,994.952 542.47,996.944 544.376,998.854 546.281,1000.68 548.187,1002.43 550.093,1004.09 551.998,1005.67 553.904,1007.16 555.81,1008.57 557.715,1009.89 559.621,1011.13 561.526,1012.29 563.432,1013.36 565.338,1014.34 567.243,1015.23 569.149,1016.04 571.055,1016.76 572.96,1017.4 574.866,1017.94 576.771,1018.4 578.677,1018.78 580.583,1019.06 582.488,1019.26 584.394,1019.37 586.3,1019.39 588.205,1019.32 590.111,1019.16 592.016,1018.92 593.922,1018.58 595.828,1018.16 597.733,1017.65 599.639,1017.05 601.544,1016.37 603.45,1015.59 605.356,1014.73 607.261,1013.78 609.167,1012.75 611.073,1011.62 612.978,1010.41 614.884,1009.11 616.789,1007.73 618.695,1006.26 620.601,1004.7 622.506,1003.05 624.412,1001.32 626.318,999.51 628.223,997.61 630.129,995.626 632.034,993.557 633.94,991.405 635.846,989.17 637.751,986.851 639.657,984.45 641.563,981.968 643.468,979.403 645.374,976.758 647.279,974.033 649.185,971.227 651.091,968.343 652.996,965.38 654.902,962.338 656.808,959.22 658.713,956.024 660.619,952.753 662.524,949.406 664.43,945.984 666.336,942.488 668.241,938.919 670.147,935.277 672.053,931.564 673.958,927.78 675.864,923.925 677.769,920.001 679.675,916.009 681.581,911.949 683.486,907.822 685.392,903.629 687.298,899.37 689.203,895.048 691.109,890.663 693.014,886.215 694.92,881.705 696.826,877.135 698.731,872.506 700.637,867.818 702.543,863.073 704.448,858.271 706.354,853.414 708.259,848.503 710.165,843.538 712.071,838.521 713.976,833.452 715.882,828.334 717.788,823.166 719.693,817.95 721.599,812.688 723.504,807.38 725.41,802.027 727.316,796.631 729.221,791.193 731.127,785.714 733.033,780.195 734.938,774.637 736.844,769.041 738.749,763.409 740.655,757.743 742.561,752.042 744.466,746.309 746.372,740.544 748.278,734.749 750.183,728.925 752.089,723.073 753.994,717.196 755.9,711.292 757.806,705.366 759.711,699.416 761.617,693.445 763.523,687.454 765.428,681.445 767.334,675.418 769.239,669.375 771.145,663.317 773.051,657.246 774.956,651.162 776.862,645.067 778.768,638.963 780.673,632.851 782.579,626.732 784.484,620.607 786.39,614.478 788.296,608.346 790.201,602.212 792.107,596.078 794.013,589.945 795.918,583.815 797.824,577.688 799.729,571.566 801.635,565.45 803.541,559.342 805.446,553.243 807.352,547.154 809.258,541.077 811.163,535.013 813.069,528.963 814.974,522.928 816.88,516.911 818.786,510.911 820.691,504.931 822.597,498.971 824.503,493.034 826.408,487.12 828.314,481.23 830.219,475.366 832.125,469.53 834.031,463.721 835.936,457.942 837.842,452.194 839.748,446.478 841.653,440.796 843.559,435.148 845.464,429.536 847.37,423.96 849.276,418.423 851.181,412.925 853.087,407.468 854.993,402.052 856.898,396.68 858.804,391.351 860.709,386.067 862.615,380.83 864.521,375.64 866.426,370.499 868.332,365.407 870.238,360.366 872.143,355.377 874.049,350.441 875.954,345.559 877.86,340.731 879.766,335.96 881.671,331.246 883.577,326.589 885.482,321.992 887.388,317.455 889.294,312.979 891.199,308.564 893.105,304.213 895.011,299.925 896.916,295.702 898.822,291.544 900.727,287.453 902.633,283.429 904.539,279.474 906.444,275.587 908.35,271.77 910.256,268.024 912.161,264.35 914.067,260.747 915.972,257.218 917.878,253.762 919.784,250.38 921.689,247.074 923.595,243.843 925.501,240.689 927.406,237.612 929.312,234.613 931.217,231.692 933.123,228.85 935.029,226.088 936.934,223.406 938.84,220.804 940.746,218.284 942.651,215.845 944.557,213.489 946.462,211.215 948.368,209.025 950.274,206.917 952.179,204.894 954.085,202.956 955.991,201.102 957.896,199.333 959.802,197.65 961.707,196.052 963.613,194.541 965.519,193.116 967.424,191.777 969.33,190.526 971.236,189.361 973.141,188.284 975.047,187.295 976.952,186.393 978.858,185.579 980.764,184.852 982.669,184.214 984.575,183.664 986.481,183.202 988.386,182.829 990.292,182.543 992.197,182.346 994.103,182.237 996.009,182.217 997.914,182.284 999.82,182.44 1001.73,182.684 1003.63,183.015 1005.54,183.435 1007.44,183.942 1009.35,184.536 1011.25,185.218 1013.16,185.987 1015.06,186.842 1016.97,187.784 1018.88,188.813 1020.78,189.927 1022.69,191.127 1024.59,192.413 1026.5,193.783 1028.4,195.238 1030.31,196.777 1032.22,198.401 1034.12,200.107 1036.03,201.897 1037.93,203.769 1039.84,205.723 1041.74,207.759 1043.65,209.876 1045.55,212.073 1047.46,214.351 1049.37,216.707 1051.27,219.143 1053.18,221.656 1055.08,224.247 1056.99,226.916 1058.89,229.66 1060.8,232.48 1062.71,235.375 1064.61,238.344 1066.52,241.386 1068.42,244.501 1070.33,247.689 1072.23,250.947 1074.14,254.276 1076.04,257.674 1077.95,261.141 1079.86,264.676 1081.76,268.278 1083.67,271.946 1085.57,275.679 1087.48,279.477 1089.38,283.339 1091.29,287.263 1093.2,291.248 1095.1,295.294 1097.01,299.4 1098.91,303.565 1100.82,307.787 1102.72,312.066 1104.63,316.401 1106.53,320.79 1108.44,325.233 1110.35,329.729 1112.25,334.276 1114.16,338.873 1116.06,343.52 1117.97,348.215 1119.87,352.957 1121.78,357.745 1123.69,362.577 1125.59,367.454 1127.5,372.373 1129.4,377.333 1131.31,382.333 1133.21,387.373 1135.12,392.45 1137.02,397.564 1138.93,402.713 1140.84,407.896 1142.74,413.112 1144.65,418.36 1146.55,423.638 1148.46,428.946 1150.36,434.281 1152.27,439.644 1154.18,445.031 1156.08,450.443 1157.99,455.878 1159.89,461.334 1161.8,466.811 1163.7,472.306 1165.61,477.819 1167.51,483.349 1169.42,488.894 1171.33,494.453 1173.23,500.024 1175.14,505.606 1177.04,511.198 1178.95,516.799 1180.85,522.407 1182.76,528.021 1184.67,533.639 1186.57,539.261 1188.48,544.885 1190.38,550.509 1192.29,556.133 1194.19,561.754 1196.1,567.372 1198,572.986 1199.91,578.593 1201.82,584.193 1203.72,589.785 1205.63,595.366 1207.53,600.936 1209.44,606.494 1211.34,612.038 1213.25,617.566 1215.16,623.078 1217.06,628.572 1218.97,634.047 1220.87,639.502 1222.78,644.935 1224.68,650.345 1226.59,655.73 1228.49,661.09 1230.4,666.424 1232.31,671.729 1234.21,677.005 1236.12,682.25 1238.02,687.464 1239.93,692.645 1241.83,697.791 1243.74,702.902 1245.65,707.976 1247.55,713.012 1249.46,718.01 1251.36,722.967 1253.27,727.882 1255.17,732.755 1257.08,737.584 1258.98,742.368 1260.89,747.107 1262.8,751.798 1264.7,756.441 1266.61,761.034 1268.51,765.577 1270.42,770.068 1272.32,774.507 1274.23,778.892 1276.14,783.222 1278.04,787.497 1279.95,791.715 1281.85,795.875 1283.76,799.976 1285.66,804.017 1287.57,807.998 1289.47,811.917 1291.38,815.773 1293.29,819.566 1295.19,823.294 1297.1,826.957 1299,830.554 1300.91,834.084 1302.81,837.545 1304.72,840.938 1306.63,844.261 1308.53,847.514 1310.44,850.695 1312.34,853.805 1314.25,856.841 1316.15,859.804 1318.06,862.693 1319.96,865.507 1321.87,868.246 1323.78,870.908 1325.68,873.493 1327.59,876 1329.49,878.429 1331.4,880.78 1333.3,883.05 1335.21,885.241 1337.12,887.352 1339.02,889.381 1340.93,891.329 1342.83,893.194 1344.74,894.977 1346.64,896.677 1348.55,898.294 1350.45,899.827 1352.36,901.275 1354.27,902.639 1356.17,903.917 1358.08,905.111 1359.98,906.218 1361.89,907.24 1363.79,908.175 1365.7,909.023 1367.61,909.785 1369.51,910.46 1371.42,911.047 1373.32,911.547 1375.23,911.96 1377.13,912.284 1379.04,912.521 1380.94,912.67 1382.85,912.73 1384.76,912.703 1386.66,912.587 1388.57,912.383 1390.47,912.09 1392.38,911.71 1394.28,911.241 1396.19,910.684 1398.1,910.039 1400,909.305 1401.91,908.484 1403.81,907.575 1405.72,906.579 1407.62,905.495 1409.53,904.323 1411.43,903.065 1413.34,901.719 1415.25,900.287 1417.15,898.769 1419.06,897.165 1420.96,895.475 1422.87,893.699 1424.77,891.838 1426.68,889.893 1428.59,887.863 1430.49,885.749 1432.4,883.552 1434.3,881.272 1436.21,878.909 1438.11,876.464 1440.02,873.937 1441.92,871.329 1443.83,868.64 1445.74,865.872 1447.64,863.023 1449.55,860.096 1451.45,857.091 1453.36,854.008 1455.26,850.847 1457.17,847.611 1459.08,844.298 1460.98,840.911 1462.89,837.449 1464.79,833.914 1466.7,830.306 1468.6,826.625 1470.51,822.873 1472.41,819.051 1474.32,815.159 1476.23,811.198 1478.13,807.169 1480.04,803.072 1481.94,798.91 1483.85,794.681 1485.75,790.388 1487.66,786.032 1489.57,781.612 1491.47,777.131 1493.38,772.589 1495.28,767.987 1497.19,763.326 1499.09,758.607 1501,753.831 1502.9,749 1504.81,744.113 1506.72,739.172 1508.62,734.179 1510.53,729.134 1512.43,724.039 1514.34,718.893 1516.24,713.7 1518.15,708.459 1520.06,703.172 1521.96,697.839 1523.87,692.463 1525.77,687.044 1527.68,681.584 1529.58,676.083 1531.49,670.542 1533.39,664.964 1535.3,659.349 1537.21,653.698 1539.11,648.013 1541.02,642.294 1542.92,636.544 1544.83,630.763 1546.73,624.952 1548.64,619.113 1550.55,613.247 1552.45,607.355 1554.36,601.439 1556.26,595.5 1558.17,589.539 1560.07,583.557 1561.98,577.556 1563.88,571.537 1565.79,565.501 1567.7,559.45 1569.6,553.384 1571.51,547.306 1573.41,541.217 1575.32,535.117 1577.22,529.008 1579.13,522.892 1581.04,516.77 1582.94,510.642 1584.85,504.511 1586.75,498.378 1588.66,492.244 1590.56,486.111 1592.47,479.979 1594.37,473.85 1596.28,467.726 1598.19,461.607 1600.09,455.495 1602,449.392 1603.9,443.298 1605.81,437.216 1607.71,431.145 1609.62,425.088 1611.53,419.047 1613.43,413.021 1615.34,407.013 1617.24,401.024 1619.15,395.054 1621.05,389.107 1622.96,383.182 1624.86,377.281 1626.77,371.405 1628.68,365.555 1630.58,359.734 1632.49,353.941 1634.39,348.179 1636.3,342.448 1638.2,336.75 1640.11,331.086 1642.02,325.457 1643.92,319.865 1645.83,314.31 1647.73,308.794 1649.64,303.317 1651.54,297.883 1653.45,292.49 1655.35,287.141 1657.26,281.836 1659.17,276.578 1661.07,271.366 1662.98,266.202 1664.88,261.088 1666.79,256.023 1668.69,251.01 1670.6,246.049 1672.51,241.142 1674.41,236.289 1676.32,231.492 1678.22,226.751 1680.13,222.068 1682.03,217.444 1683.94,212.879 1685.84,208.374 1687.75,203.931 1689.66,199.551 1691.56,195.233 1693.47,190.98 1695.37,186.793 1697.28,182.671 1699.18,178.616 1701.09,174.629 1703,170.71 1704.9,166.862 1706.81,163.083 1708.71,159.375 1710.62,155.739 1712.52,152.176 1714.43,148.686 1716.33,145.27 1718.24,141.929 1720.15,138.664 1722.05,135.475 1723.96,132.362 1725.86,129.327 1727.77,126.37 1729.67,123.492 1731.58,120.693 1733.49,117.973 1735.39,115.335 1737.3,112.777 1739.2,110.301 1741.11,107.906 1743.01,105.595 1744.92,103.366 1746.82,101.22 1748.73,99.1584 1750.64,97.1808 1752.54,95.2879 1754.45,93.4799 1756.35,91.7572 1758.26,90.1202 1760.16,88.5691 1762.07,87.1043 1763.98,85.726 1765.88,84.4344 1767.79,83.2299 1769.69,82.1126 1771.6,81.0827 1773.5,80.1403 1775.41,79.2858 1777.31,78.5191 1779.22,77.8404 1781.13,77.2498 1783.03,76.7473 1784.94,76.3331 1786.84,76.0072 1788.75,75.7695 1790.65,75.6201 1792.56,75.5589 1794.47,75.5859 1796.37,75.7011 1798.28,75.9043 1800.18,76.1955 1802.09,76.5745 1803.99,77.0412 1805.9,77.5954 1807.8,78.237 1809.71,78.9657 1811.62,79.7813 1813.52,80.6836 1815.43,81.6723 1817.33,82.7471 1819.24,83.9078 1821.14,85.154 1823.05,86.4853 1824.96,87.9015 1826.86,89.4022 1828.77,90.9868 1830.67,92.6552 1832.58,94.4067 1834.48,96.2409 1836.39,98.1575 1838.29,100.156 1840.2,102.235 1842.11,104.396 1844.01,106.636 1845.92,108.956 1847.82,111.356 1849.73,113.833 1851.63,116.389 1853.54,119.022 1855.45,121.731 1857.35,124.516 1859.26,127.377 1861.16,130.312 1863.07,133.321 1864.97,136.403 1866.88,139.557 1868.78,142.782 1870.69,146.079 1872.6,149.445 1874.5,152.881 1876.41,156.384 1878.31,159.956 1880.22,163.593 1882.12,167.297 1884.03,171.065 1885.94,174.898 1887.84,178.793 1889.75,182.75 1891.65,186.769 1893.56,190.847 1895.46,194.985 1897.37,199.181 1899.27,203.434 1901.18,207.743 1903.09,212.107 1904.99,216.526 1906.9,220.997 1908.8,225.521 1910.71,230.095 1912.61,234.719 1914.52,239.392 1916.43,244.113 1918.33,248.879 1920.24,253.692 1922.14,258.548 1924.05,263.448 1925.95,268.389 1927.86,273.371 1929.76,278.393 1931.67,283.452 1933.58,288.55 1935.48,293.683 1937.39,298.85 1939.29,304.051 1941.2,309.285 1943.1,314.549 1945.01,319.844 1946.92,325.166 1948.82,330.517 1950.73,335.893 1952.63,341.293 1954.54,346.718 1956.44,352.164 1958.35,357.632 1960.25,363.119 1962.16,368.624 1964.07,374.146 1965.97,379.684 1967.88,385.237 1969.78,390.802 1971.69,396.38 1973.59,401.968 1975.5,407.565 1977.41,413.169 1979.31,418.781 1981.22,424.397 1983.12,430.018 1985.03,435.641 1986.93,441.265 1988.84,446.889 1990.74,452.511 1992.65,458.131 1994.56,463.747 1996.46,469.357 1998.37,474.961 2000.27,480.557 2002.18,486.143 2004.08,491.718 2005.99,497.282 2007.9,502.832 2009.8,508.368 2011.71,513.888 2013.61,519.39 2015.52,524.874 2017.42,530.338 2019.33,535.781 2021.23,541.202 2023.14,546.599 2025.05,551.971 2026.95,557.317 2028.86,562.635 2030.76,567.925 2032.67,573.184 2034.57,578.413 2036.48,583.609 2038.39,588.771 2040.29,593.898 2042.2,598.989 2044.1,604.043 2046.01,609.059 2047.91,614.034 2049.82,618.969 2051.72,623.862 2053.63,628.711 2055.54,633.516 2057.44,638.276 2059.35,642.989 2061.25,647.654 2063.16,652.27 2065.06,656.836 2066.97,661.352 2068.88,665.815 2070.78,670.225 2072.69,674.58 2074.59,678.881 2076.5,683.125 2078.4,687.311 2080.31,691.44 2082.21,695.509 2084.12,699.518 2086.03,703.465 2087.93,707.35 2089.84,711.172 2091.74,714.931 2093.65,718.624 2095.55,722.251 2097.46,725.811 2099.37,729.304 2101.27,732.729 2103.18,736.084 2105.08,739.369 2106.99,742.584 2108.89,745.726 2110.8,748.797 2112.7,751.794 2114.61,754.717 2116.52,757.565 2118.42,760.338 2120.33,763.036 2122.23,765.656 2124.14,768.199 2126.04,770.665 2127.95,773.051 2129.86,775.359 2131.76,777.587 2133.67,779.734 2135.57,781.801 2137.48,783.786 2139.38,785.69 2141.29,787.511 2143.19,789.249 2145.1,790.904 2147.01,792.475 2148.91,793.963 2150.82,795.365 2152.72,796.683 2154.63,797.916 2156.53,799.063 2158.44,800.124 2160.35,801.099 2162.25,801.987 2164.16,802.789 2166.06,803.504 2167.97,804.131 2169.87,804.672 2171.78,805.124 2173.68,805.489 2175.59,805.767 2177.5,805.956 2179.4,806.057 2181.31,806.07 2183.21,805.995 2185.12,805.831 2187.02,805.579 2188.93,805.239 2190.84,804.811 2192.74,804.295 2194.65,803.69 2196.55,802.997 2198.46,802.216 2200.36,801.348 2202.27,800.392 2204.17,799.348 2206.08,798.217 2207.99,796.998 2209.89,795.693 2211.8,794.301 2213.7,792.822 2215.61,791.257 2217.51,789.606 2219.42,787.87 2221.33,786.049 2223.23,784.142 2225.14,782.151 2227.04,780.076 2228.95,777.917 2230.85,775.675 2232.76,773.35 2234.66,770.943 2236.57,768.453 2238.48,765.883 2240.38,763.231 2242.29,760.499 2244.19,757.687 2246.1,754.797 2248,751.827 2249.91,748.78 2251.81,745.655 2253.72,742.453 2255.63,739.176 2257.53,735.823 2259.44,732.395 2261.34,728.893 2263.25,725.318 2265.15,721.671 2267.06,717.952 2268.97,714.162 2270.87,710.302 2272.78,706.373 2274.68,702.375 2276.59,698.309 2278.49,694.177 2280.4,689.979 2282.3,685.715 2284.21,681.388 2286.12,676.997 2288.02,672.544 2289.93,668.03 2291.83,663.456 2293.74,658.822 2295.64,654.129 "></polyline>
<polyline clip-path="url(#clip192)" style="stroke:#e26f46; stroke-linecap:round; stroke-linejoin:round; stroke-width:4; stroke-opacity:1; fill:none" stroke-dasharray="16, 8, 2, 8" points="391.926,654.129 393.831,659.753 395.737,665.376 397.643,670.996 399.548,676.612 401.454,682.223 403.36,687.828 405.265,693.424 407.171,699.011 409.076,704.587 410.982,710.152 412.888,715.703 414.793,721.24 416.699,726.761 418.605,732.265 420.51,737.751 422.416,743.216 424.321,748.661 426.227,754.084 428.133,759.482 430.038,764.856 431.944,770.204 433.85,775.525 435.755,780.817 437.661,786.079 439.566,791.31 441.472,796.509 443.378,801.674 445.283,806.804 447.189,811.898 449.095,816.955 451,821.973 452.906,826.952 454.811,831.89 456.717,836.786 458.623,841.639 460.528,846.448 462.434,851.211 464.34,855.928 466.245,860.597 468.151,865.217 470.056,869.787 471.962,874.307 473.868,878.774 475.773,883.188 477.679,887.548 479.585,891.853 481.49,896.101 483.396,900.293 485.301,904.426 487.207,908.5 489.113,912.513 491.018,916.466 492.924,920.356 494.83,924.183 496.735,927.946 498.641,931.645 500.546,935.277 502.452,938.843 504.358,942.341 506.263,945.771 508.169,949.132 510.075,952.423 511.98,955.643 513.886,958.791 515.791,961.867 517.697,964.87 519.603,967.799 521.508,970.654 523.414,973.433 525.32,976.136 527.225,978.763 529.131,981.312 531.036,983.784 532.942,986.177 534.848,988.491 536.753,990.725 538.659,992.879 540.565,994.952 542.47,996.944 544.376,998.854 546.281,1000.68 548.187,1002.43 550.093,1004.09 551.998,1005.67 553.904,1007.16 555.81,1008.57 557.715,1009.89 559.621,1011.13 561.526,1012.29 563.432,1013.36 565.338,1014.34 567.243,1015.23 569.149,1016.04 571.055,1016.76 572.96,1017.4 574.866,1017.94 576.771,1018.4 578.677,1018.78 580.583,1019.06 582.488,1019.26 584.394,1019.37 586.3,1019.39 588.205,1019.32 590.111,1019.16 592.016,1018.92 593.922,1018.58 595.828,1018.16 597.733,1017.65 599.639,1017.05 601.544,1016.37 603.45,1015.59 605.356,1014.73 607.261,1013.78 609.167,1012.75 611.073,1011.62 612.978,1010.41 614.884,1009.11 616.789,1007.73 618.695,1006.26 620.601,1004.7 622.506,1003.05 624.412,1001.32 626.318,999.51 628.223,997.61 630.129,995.626 632.034,993.557 633.94,991.405 635.846,989.17 637.751,986.851 639.657,984.45 641.563,981.968 643.468,979.403 645.374,976.758 647.279,974.033 649.185,971.227 651.091,968.343 652.996,965.38 654.902,962.338 656.808,959.22 658.713,956.024 660.619,952.753 662.524,949.406 664.43,945.984 666.336,942.488 668.241,938.919 670.147,935.277 672.053,931.564 673.958,927.78 675.864,923.925 677.769,920.001 679.675,916.009 681.581,911.949 683.486,907.822 685.392,903.629 687.298,899.37 689.203,895.048 691.109,890.663 693.014,886.215 694.92,881.705 696.826,877.135 698.731,872.506 700.637,867.818 702.543,863.073 704.448,858.271 706.354,853.414 708.259,848.503 710.165,843.538 712.071,838.521 713.976,833.452 715.882,828.334 717.788,823.166 719.693,817.95 721.599,812.688 723.504,807.38 725.41,802.027 727.316,796.631 729.221,791.193 731.127,785.714 733.033,780.195 734.938,774.637 736.844,769.041 738.749,763.409 740.655,757.743 742.561,752.042 744.466,746.309 746.372,740.544 748.278,734.749 750.183,728.925 752.089,723.073 753.994,717.196 755.9,711.292 757.806,705.366 759.711,699.416 761.617,693.445 763.523,687.454 765.428,681.445 767.334,675.418 769.239,669.375 771.145,663.317 773.051,657.246 774.956,651.162 776.862,645.067 778.768,638.963 780.673,632.851 782.579,626.732 784.484,620.607 786.39,614.478 788.296,608.346 790.201,602.212 792.107,596.078 794.013,589.945 795.918,583.815 797.824,577.688 799.729,571.566 801.635,565.45 803.541,559.342 805.446,553.243 807.352,547.154 809.258,541.077 811.163,535.013 813.069,528.963 814.974,522.928 816.88,516.911 818.786,510.911 820.691,504.931 822.597,498.971 824.503,493.034 826.408,487.12 828.314,481.23 830.219,475.366 832.125,469.53 834.031,463.721 835.936,457.942 837.842,452.194 839.748,446.478 841.653,440.796 843.559,435.148 845.464,429.536 847.37,423.96 849.276,418.423 851.181,412.925 853.087,407.468 854.993,402.052 856.898,396.68 858.804,391.351 860.709,386.067 862.615,380.83 864.521,375.64 866.426,370.499 868.332,365.407 870.238,360.366 872.143,355.377 874.049,350.441 875.954,345.559 877.86,340.731 879.766,335.96 881.671,331.246 883.577,326.589 885.482,321.992 887.388,317.455 889.294,312.979 891.199,308.564 893.105,304.213 895.011,299.925 896.916,295.702 898.822,291.544 900.727,287.453 902.633,283.429 904.539,279.474 906.444,275.587 908.35,271.77 910.256,268.024 912.161,264.35 914.067,260.747 915.972,257.218 917.878,253.762 919.784,250.38 921.689,247.074 923.595,243.843 925.501,240.689 927.406,237.612 929.312,234.613 931.217,231.692 933.123,228.85 935.029,226.088 936.934,223.406 938.84,220.804 940.746,218.284 942.651,215.845 944.557,213.489 946.462,211.215 948.368,209.025 950.274,206.917 952.179,204.894 954.085,202.956 955.991,201.102 957.896,199.333 959.802,197.65 961.707,196.052 963.613,194.541 965.519,193.116 967.424,191.777 969.33,190.526 971.236,189.361 973.141,188.284 975.047,187.295 976.952,186.393 978.858,185.579 980.764,184.852 982.669,184.214 984.575,183.664 986.481,183.202 988.386,182.829 990.292,182.543 992.197,182.346 994.103,182.237 996.009,182.217 997.914,182.284 999.82,182.44 1001.73,182.684 1003.63,183.015 1005.54,183.435 1007.44,183.942 1009.35,184.536 1011.25,185.218 1013.16,185.987 1015.06,186.842 1016.97,187.784 1018.88,188.813 1020.78,189.927 1022.69,191.127 1024.59,192.413 1026.5,193.783 1028.4,195.238 1030.31,196.777 1032.22,198.401 1034.12,200.107 1036.03,201.897 1037.93,203.769 1039.84,205.723 1041.74,207.759 1043.65,209.876 1045.55,212.073 1047.46,214.351 1049.37,216.707 1051.27,219.143 1053.18,221.656 1055.08,224.247 1056.99,226.916 1058.89,229.66 1060.8,232.48 1062.71,235.375 1064.61,238.344 1066.52,241.386 1068.42,244.501 1070.33,247.689 1072.23,250.947 1074.14,254.276 1076.04,257.674 1077.95,261.141 1079.86,264.676 1081.76,268.278 1083.67,271.946 1085.57,275.679 1087.48,279.477 1089.38,283.339 1091.29,287.263 1093.2,291.248 1095.1,295.294 1097.01,299.4 1098.91,303.565 1100.82,307.787 1102.72,312.066 1104.63,316.401 1106.53,320.79 1108.44,325.233 1110.35,329.729 1112.25,334.276 1114.16,338.873 1116.06,343.52 1117.97,348.215 1119.87,352.957 1121.78,357.745 1123.69,362.577 1125.59,367.454 1127.5,372.373 1129.4,377.333 1131.31,382.333 1133.21,387.373 1135.12,392.45 1137.02,397.564 1138.93,402.713 1140.84,407.896 1142.74,413.112 1144.65,418.36 1146.55,423.638 1148.46,428.946 1150.36,434.281 1152.27,439.644 1154.18,445.031 1156.08,450.443 1157.99,455.878 1159.89,461.334 1161.8,466.811 1163.7,472.306 1165.61,477.819 1167.51,483.349 1169.42,488.894 1171.33,494.453 1173.23,500.024 1175.14,505.606 1177.04,511.198 1178.95,516.799 1180.85,522.407 1182.76,528.021 1184.67,533.639 1186.57,539.261 1188.48,544.885 1190.38,550.509 1192.29,556.133 1194.19,561.754 1196.1,567.372 1198,572.986 1199.91,578.593 1201.82,584.193 1203.72,589.785 1205.63,595.366 1207.53,600.936 1209.44,606.494 1211.34,612.038 1213.25,617.566 1215.16,623.078 1217.06,628.572 1218.97,634.047 1220.87,639.502 1222.78,644.935 1224.68,650.345 1226.59,655.73 1228.49,661.09 1230.4,666.424 1232.31,671.729 1234.21,677.005 1236.12,682.25 1238.02,687.464 1239.93,692.645 1241.83,697.791 1243.74,702.902 1245.65,707.976 1247.55,713.012 1249.46,718.01 1251.36,722.967 1253.27,727.882 1255.17,732.755 1257.08,737.584 1258.98,742.368 1260.89,747.107 1262.8,751.798 1264.7,756.441 1266.61,761.034 1268.51,765.577 1270.42,770.068 1272.32,774.507 1274.23,778.892 1276.14,783.222 1278.04,787.497 1279.95,791.715 1281.85,795.875 1283.76,799.976 1285.66,804.017 1287.57,807.998 1289.47,811.917 1291.38,815.773 1293.29,819.566 1295.19,823.294 1297.1,826.957 1299,830.554 1300.91,834.084 1302.81,837.545 1304.72,840.938 1306.63,844.261 1308.53,847.514 1310.44,850.695 1312.34,853.805 1314.25,856.841 1316.15,859.804 1318.06,862.693 1319.96,865.507 1321.87,868.246 1323.78,870.908 1325.68,873.493 1327.59,876 1329.49,878.429 1331.4,880.78 1333.3,883.05 1335.21,885.241 1337.12,887.352 1339.02,889.381 1340.93,891.329 1342.83,893.194 1344.74,894.977 1346.64,896.677 1348.55,898.294 1350.45,899.827 1352.36,901.275 1354.27,902.639 1356.17,903.917 1358.08,905.111 1359.98,906.218 1361.89,907.24 1363.79,908.175 1365.7,909.023 1367.61,909.785 1369.51,910.46 1371.42,911.047 1373.32,911.547 1375.23,911.96 1377.13,912.284 1379.04,912.521 1380.94,912.67 1382.85,912.73 1384.76,912.703 1386.66,912.587 1388.57,912.383 1390.47,912.09 1392.38,911.71 1394.28,911.241 1396.19,910.684 1398.1,910.039 1400,909.305 1401.91,908.484 1403.81,907.575 1405.72,906.579 1407.62,905.495 1409.53,904.323 1411.43,903.065 1413.34,901.719 1415.25,900.287 1417.15,898.769 1419.06,897.165 1420.96,895.475 1422.87,893.699 1424.77,891.838 1426.68,889.893 1428.59,887.863 1430.49,885.749 1432.4,883.552 1434.3,881.272 1436.21,878.909 1438.11,876.464 1440.02,873.937 1441.92,871.329 1443.83,868.64 1445.74,865.872 1447.64,863.023 1449.55,860.096 1451.45,857.091 1453.36,854.008 1455.26,850.847 1457.17,847.611 1459.08,844.298 1460.98,840.911 1462.89,837.449 1464.79,833.914 1466.7,830.306 1468.6,826.625 1470.51,822.873 1472.41,819.051 1474.32,815.159 1476.23,811.198 1478.13,807.169 1480.04,803.072 1481.94,798.91 1483.85,794.681 1485.75,790.388 1487.66,786.032 1489.57,781.612 1491.47,777.131 1493.38,772.589 1495.28,767.987 1497.19,763.326 1499.09,758.607 1501,753.831 1502.9,749 1504.81,744.113 1506.72,739.172 1508.62,734.179 1510.53,729.134 1512.43,724.039 1514.34,718.893 1516.24,713.7 1518.15,708.459 1520.06,703.172 1521.96,697.839 1523.87,692.463 1525.77,687.044 1527.68,681.584 1529.58,676.083 1531.49,670.542 1533.39,664.964 1535.3,659.349 1537.21,653.698 1539.11,648.013 1541.02,642.294 1542.92,636.544 1544.83,630.763 1546.73,624.952 1548.64,619.113 1550.55,613.247 1552.45,607.355 1554.36,601.439 1556.26,595.5 1558.17,589.539 1560.07,583.557 1561.98,577.556 1563.88,571.537 1565.79,565.501 1567.7,559.45 1569.6,553.384 1571.51,547.306 1573.41,541.217 1575.32,535.117 1577.22,529.008 1579.13,522.892 1581.04,516.77 1582.94,510.642 1584.85,504.511 1586.75,498.378 1588.66,492.244 1590.56,486.111 1592.47,479.979 1594.37,473.85 1596.28,467.726 1598.19,461.607 1600.09,455.495 1602,449.392 1603.9,443.298 1605.81,437.216 1607.71,431.145 1609.62,425.088 1611.53,419.047 1613.43,413.021 1615.34,407.013 1617.24,401.024 1619.15,395.054 1621.05,389.107 1622.96,383.182 1624.86,377.281 1626.77,371.405 1628.68,365.555 1630.58,359.734 1632.49,353.941 1634.39,348.179 1636.3,342.448 1638.2,336.75 1640.11,331.086 1642.02,325.457 1643.92,319.865 1645.83,314.31 1647.73,308.794 1649.64,303.317 1651.54,297.883 1653.45,292.49 1655.35,287.141 1657.26,281.836 1659.17,276.578 1661.07,271.366 1662.98,266.202 1664.88,261.088 1666.79,256.023 1668.69,251.01 1670.6,246.049 1672.51,241.142 1674.41,236.289 1676.32,231.492 1678.22,226.751 1680.13,222.068 1682.03,217.444 1683.94,212.879 1685.84,208.374 1687.75,203.931 1689.66,199.551 1691.56,195.233 1693.47,190.98 1695.37,186.793 1697.28,182.671 1699.18,178.616 1701.09,174.629 1703,170.71 1704.9,166.862 1706.81,163.083 1708.71,159.375 1710.62,155.739 1712.52,152.176 1714.43,148.686 1716.33,145.27 1718.24,141.929 1720.15,138.664 1722.05,135.475 1723.96,132.362 1725.86,129.327 1727.77,126.37 1729.67,123.492 1731.58,120.693 1733.49,117.973 1735.39,115.335 1737.3,112.777 1739.2,110.301 1741.11,107.906 1743.01,105.595 1744.92,103.366 1746.82,101.22 1748.73,99.1584 1750.64,97.1808 1752.54,95.2879 1754.45,93.4799 1756.35,91.7572 1758.26,90.1202 1760.16,88.5691 1762.07,87.1043 1763.98,85.726 1765.88,84.4344 1767.79,83.2299 1769.69,82.1126 1771.6,81.0827 1773.5,80.1403 1775.41,79.2858 1777.31,78.5191 1779.22,77.8404 1781.13,77.2498 1783.03,76.7473 1784.94,76.3331 1786.84,76.0072 1788.75,75.7695 1790.65,75.6201 1792.56,75.5589 1794.47,75.5859 1796.37,75.7011 1798.28,75.9043 1800.18,76.1955 1802.09,76.5745 1803.99,77.0412 1805.9,77.5954 1807.8,78.237 1809.71,78.9657 1811.62,79.7813 1813.52,80.6836 1815.43,81.6723 1817.33,82.7471 1819.24,83.9078 1821.14,85.154 1823.05,86.4853 1824.96,87.9015 1826.86,89.4022 1828.77,90.9868 1830.67,92.6552 1832.58,94.4067 1834.48,96.2409 1836.39,98.1575 1838.29,100.156 1840.2,102.235 1842.11,104.396 1844.01,106.636 1845.92,108.956 1847.82,111.356 1849.73,113.833 1851.63,116.389 1853.54,119.022 1855.45,121.731 1857.35,124.516 1859.26,127.377 1861.16,130.312 1863.07,133.321 1864.97,136.403 1866.88,139.557 1868.78,142.782 1870.69,146.079 1872.6,149.445 1874.5,152.881 1876.41,156.384 1878.31,159.956 1880.22,163.593 1882.12,167.297 1884.03,171.065 1885.94,174.898 1887.84,178.793 1889.75,182.75 1891.65,186.769 1893.56,190.847 1895.46,194.985 1897.37,199.181 1899.27,203.434 1901.18,207.743 1903.09,212.107 1904.99,216.526 1906.9,220.997 1908.8,225.521 1910.71,230.095 1912.61,234.719 1914.52,239.392 1916.43,244.113 1918.33,248.879 1920.24,253.692 1922.14,258.548 1924.05,263.448 1925.95,268.389 1927.86,273.371 1929.76,278.393 1931.67,283.452 1933.58,288.55 1935.48,293.683 1937.39,298.85 1939.29,304.051 1941.2,309.285 1943.1,314.549 1945.01,319.844 1946.92,325.166 1948.82,330.517 1950.73,335.893 1952.63,341.293 1954.54,346.718 1956.44,352.164 1958.35,357.632 1960.25,363.119 1962.16,368.624 1964.07,374.146 1965.97,379.684 1967.88,385.237 1969.78,390.802 1971.69,396.38 1973.59,401.968 1975.5,407.565 1977.41,413.169 1979.31,418.781 1981.22,424.397 1983.12,430.018 1985.03,435.641 1986.93,441.265 1988.84,446.889 1990.74,452.511 1992.65,458.131 1994.56,463.747 1996.46,469.357 1998.37,474.961 2000.27,480.557 2002.18,486.143 2004.08,491.718 2005.99,497.282 2007.9,502.832 2009.8,508.368 2011.71,513.888 2013.61,519.39 2015.52,524.874 2017.42,530.338 2019.33,535.781 2021.23,541.202 2023.14,546.599 2025.05,551.971 2026.95,557.317 2028.86,562.635 2030.76,567.925 2032.67,573.184 2034.57,578.413 2036.48,583.609 2038.39,588.771 2040.29,593.898 2042.2,598.989 2044.1,604.043 2046.01,609.059 2047.91,614.034 2049.82,618.969 2051.72,623.862 2053.63,628.711 2055.54,633.516 2057.44,638.276 2059.35,642.989 2061.25,647.654 2063.16,652.27 2065.06,656.836 2066.97,661.352 2068.88,665.815 2070.78,670.225 2072.69,674.58 2074.59,678.881 2076.5,683.125 2078.4,687.311 2080.31,691.44 2082.21,695.509 2084.12,699.518 2086.03,703.465 2087.93,707.35 2089.84,711.172 2091.74,714.931 2093.65,718.624 2095.55,722.251 2097.46,725.811 2099.37,729.304 2101.27,732.729 2103.18,736.084 2105.08,739.369 2106.99,742.584 2108.89,745.726 2110.8,748.797 2112.7,751.794 2114.61,754.717 2116.52,757.565 2118.42,760.338 2120.33,763.036 2122.23,765.656 2124.14,768.199 2126.04,770.665 2127.95,773.051 2129.86,775.359 2131.76,777.587 2133.67,779.734 2135.57,781.801 2137.48,783.786 2139.38,785.69 2141.29,787.511 2143.19,789.249 2145.1,790.904 2147.01,792.475 2148.91,793.963 2150.82,795.365 2152.72,796.683 2154.63,797.916 2156.53,799.063 2158.44,800.124 2160.35,801.099 2162.25,801.987 2164.16,802.789 2166.06,803.504 2167.97,804.131 2169.87,804.672 2171.78,805.124 2173.68,805.489 2175.59,805.767 2177.5,805.956 2179.4,806.057 2181.31,806.07 2183.21,805.995 2185.12,805.831 2187.02,805.579 2188.93,805.239 2190.84,804.811 2192.74,804.295 2194.65,803.69 2196.55,802.997 2198.46,802.216 2200.36,801.348 2202.27,800.392 2204.17,799.348 2206.08,798.217 2207.99,796.998 2209.89,795.693 2211.8,794.301 2213.7,792.822 2215.61,791.257 2217.51,789.606 2219.42,787.87 2221.33,786.049 2223.23,784.142 2225.14,782.151 2227.04,780.076 2228.95,777.917 2230.85,775.675 2232.76,773.35 2234.66,770.943 2236.57,768.453 2238.48,765.883 2240.38,763.231 2242.29,760.499 2244.19,757.687 2246.1,754.797 2248,751.827 2249.91,748.78 2251.81,745.655 2253.72,742.453 2255.63,739.176 2257.53,735.823 2259.44,732.395 2261.34,728.893 2263.25,725.318 2265.15,721.671 2267.06,717.952 2268.97,714.162 2270.87,710.302 2272.78,706.373 2274.68,702.375 2276.59,698.309 2278.49,694.177 2280.4,689.979 2282.3,685.715 2284.21,681.388 2286.12,676.997 2288.02,672.544 2289.93,668.03 2291.83,663.456 2293.74,658.822 2295.64,654.129 "></polyline>
<path clip-path="url(#clip190)" d="M402.079 236.113 L831.858 236.113 L831.858 80.5926 L402.079 80.5926  Z" fill="#ffffff" fill-rule="evenodd" fill-opacity="1"></path>
<polyline clip-path="url(#clip190)" style="stroke:#000000; stroke-linecap:round; stroke-linejoin:round; stroke-width:4; stroke-opacity:1; fill:none" points="402.079,236.113 831.858,236.113 831.858,80.5926 402.079,80.5926 402.079,236.113 "></polyline>
<polyline clip-path="url(#clip190)" style="stroke:#009af9; stroke-linecap:round; stroke-linejoin:round; stroke-width:8; stroke-opacity:1; fill:none" points="424.501,132.433 559.03,132.433 "></polyline>
<path clip-path="url(#clip190)" d="M597.285 119.759 L590.942 136.958 L603.651 136.958 L597.285 119.759 M594.646 115.153 L599.947 115.153 L613.118 149.713 L608.257 149.713 L605.109 140.847 L589.53 140.847 L586.382 149.713 L581.452 149.713 L594.646 115.153 Z" fill="#000000" fill-rule="nonzero" fill-opacity="1"></path><path clip-path="url(#clip190)" d="M639.53 134.065 L639.53 149.713 L635.271 149.713 L635.271 134.203 Q635.271 130.523 633.836 128.694 Q632.4 126.866 629.53 126.866 Q626.081 126.866 624.09 129.065 Q622.1 131.264 622.1 135.06 L622.1 149.713 L617.817 149.713 L617.817 123.787 L622.1 123.787 L622.1 127.815 Q623.627 125.477 625.687 124.319 Q627.771 123.162 630.479 123.162 Q634.947 123.162 637.238 125.94 Q639.53 128.694 639.53 134.065 Z" fill="#000000" fill-rule="nonzero" fill-opacity="1"></path><path clip-path="url(#clip190)" d="M659.808 136.68 Q654.646 136.68 652.655 137.861 Q650.664 139.041 650.664 141.889 Q650.664 144.157 652.146 145.5 Q653.65 146.819 656.22 146.819 Q659.761 146.819 661.891 144.319 Q664.044 141.796 664.044 137.629 L664.044 136.68 L659.808 136.68 M668.303 134.921 L668.303 149.713 L664.044 149.713 L664.044 145.777 Q662.585 148.139 660.41 149.273 Q658.234 150.384 655.085 150.384 Q651.104 150.384 648.743 148.162 Q646.405 145.916 646.405 142.166 Q646.405 137.791 649.322 135.569 Q652.261 133.347 658.072 133.347 L664.044 133.347 L664.044 132.93 Q664.044 129.991 662.099 128.393 Q660.178 126.773 656.683 126.773 Q654.46 126.773 652.354 127.305 Q650.248 127.838 648.303 128.903 L648.303 124.967 Q650.641 124.065 652.84 123.625 Q655.039 123.162 657.122 123.162 Q662.747 123.162 665.525 126.078 Q668.303 128.995 668.303 134.921 Z" fill="#000000" fill-rule="nonzero" fill-opacity="1"></path><path clip-path="url(#clip190)" d="M677.076 113.694 L681.335 113.694 L681.335 149.713 L677.076 149.713 L677.076 113.694 Z" fill="#000000" fill-rule="nonzero" fill-opacity="1"></path><path clip-path="url(#clip190)" d="M701.034 152.12 Q699.229 156.75 697.516 158.162 Q695.803 159.574 692.932 159.574 L689.53 159.574 L689.53 156.009 L692.03 156.009 Q693.789 156.009 694.761 155.176 Q695.733 154.342 696.914 151.24 L697.678 149.296 L687.192 123.787 L691.706 123.787 L699.807 144.065 L707.909 123.787 L712.423 123.787 L701.034 152.12 Z" fill="#000000" fill-rule="nonzero" fill-opacity="1"></path><path clip-path="url(#clip190)" d="M722.516 116.426 L722.516 123.787 L731.289 123.787 L731.289 127.097 L722.516 127.097 L722.516 141.171 Q722.516 144.342 723.372 145.245 Q724.252 146.148 726.914 146.148 L731.289 146.148 L731.289 149.713 L726.914 149.713 Q721.983 149.713 720.108 147.884 Q718.233 146.032 718.233 141.171 L718.233 127.097 L715.108 127.097 L715.108 123.787 L718.233 123.787 L718.233 116.426 L722.516 116.426 Z" fill="#000000" fill-rule="nonzero" fill-opacity="1"></path><path clip-path="url(#clip190)" d="M736.891 123.787 L741.15 123.787 L741.15 149.713 L736.891 149.713 L736.891 123.787 M736.891 113.694 L741.15 113.694 L741.15 119.088 L736.891 119.088 L736.891 113.694 Z" fill="#000000" fill-rule="nonzero" fill-opacity="1"></path><path clip-path="url(#clip190)" d="M768.719 124.782 L768.719 128.764 Q766.914 127.768 765.085 127.282 Q763.279 126.773 761.427 126.773 Q757.284 126.773 754.992 129.412 Q752.701 132.028 752.701 136.773 Q752.701 141.518 754.992 144.157 Q757.284 146.773 761.427 146.773 Q763.279 146.773 765.085 146.287 Q766.914 145.777 768.719 144.782 L768.719 148.717 Q766.937 149.551 765.015 149.967 Q763.117 150.384 760.965 150.384 Q755.108 150.384 751.659 146.703 Q748.21 143.023 748.21 136.773 Q748.21 130.43 751.682 126.796 Q755.178 123.162 761.242 123.162 Q763.21 123.162 765.085 123.579 Q766.96 123.972 768.719 124.782 Z" fill="#000000" fill-rule="nonzero" fill-opacity="1"></path><path clip-path="url(#clip190)" d="M787.909 136.68 Q782.747 136.68 780.756 137.861 Q778.765 139.041 778.765 141.889 Q778.765 144.157 780.247 145.5 Q781.751 146.819 784.321 146.819 Q787.863 146.819 789.992 144.319 Q792.145 141.796 792.145 137.629 L792.145 136.68 L787.909 136.68 M796.404 134.921 L796.404 149.713 L792.145 149.713 L792.145 145.777 Q790.687 148.139 788.511 149.273 Q786.335 150.384 783.187 150.384 Q779.205 150.384 776.844 148.162 Q774.506 145.916 774.506 142.166 Q774.506 137.791 777.423 135.569 Q780.363 133.347 786.173 133.347 L792.145 133.347 L792.145 132.93 Q792.145 129.991 790.2 128.393 Q788.279 126.773 784.784 126.773 Q782.562 126.773 780.455 127.305 Q778.349 127.838 776.404 128.903 L776.404 124.967 Q778.742 124.065 780.941 123.625 Q783.14 123.162 785.224 123.162 Q790.849 123.162 793.626 126.078 Q796.404 128.995 796.404 134.921 Z" fill="#000000" fill-rule="nonzero" fill-opacity="1"></path><path clip-path="url(#clip190)" d="M805.177 113.694 L809.436 113.694 L809.436 149.713 L805.177 149.713 L805.177 113.694 Z" fill="#000000" fill-rule="nonzero" fill-opacity="1"></path><polyline clip-path="url(#clip190)" style="stroke:#e26f46; stroke-linecap:round; stroke-linejoin:round; stroke-width:4; stroke-opacity:1; fill:none" stroke-dasharray="16, 8, 2, 8" points="424.501,184.273 559.03,184.273 "></polyline>
<path clip-path="url(#clip190)" d="M581.452 166.993 L603.303 166.993 L603.303 170.928 L586.127 170.928 L586.127 181.159 L602.586 181.159 L602.586 185.094 L586.127 185.094 L586.127 197.617 L603.72 197.617 L603.72 201.553 L581.452 201.553 L581.452 166.993 Z" fill="#000000" fill-rule="nonzero" fill-opacity="1"></path><path clip-path="url(#clip190)" d="M611.405 166.993 L616.081 166.993 L616.081 197.617 L632.91 197.617 L632.91 201.553 L611.405 201.553 L611.405 166.993 Z" fill="#000000" fill-rule="nonzero" fill-opacity="1"></path><path clip-path="url(#clip190)" d="M637.817 166.993 L644.785 166.993 L653.604 190.511 L662.47 166.993 L669.437 166.993 L669.437 201.553 L664.877 201.553 L664.877 171.206 L655.965 194.909 L651.266 194.909 L642.354 171.206 L642.354 201.553 L637.817 201.553 L637.817 166.993 Z" fill="#000000" fill-rule="nonzero" fill-opacity="1"></path></svg>