<svg xmlns="http://www.w3.org/2000/svg" xmlns:xlink="http://www.w3.org/1999/xlink" width="600" height="300" viewBox="0 0 2400 1200">
<defs>
  <clipPath id="clip230">
    <rect x="0" y="0" width="2400" height="1200"></rect>
  </clipPath>
</defs>
<path clip-path="url(#clip230)" d="M0 1200 L2400 1200 L2400 0 L0 0  Z" fill="#ffffff" fill-rule="evenodd" fill-opacity="1"></path>
<defs>
  <clipPath id="clip231">
    <rect x="480" y="0" width="1681" height="1200"></rect>
  </clipPath>
</defs>
<path clip-path="url(#clip230)" d="M304.421 1047.7 L2352.76 1047.7 L2352.76 47.2441 L304.421 47.2441  Z" fill="#ffffff" fill-rule="evenodd" fill-opacity="1"></path>
<defs>
  <clipPath id="clip232">
    <rect x="304" y="47" width="2049" height="1001"></rect>
  </clipPath>
</defs>
<polyline clip-path="url(#clip232)" style="stroke:#000000; stroke-linecap:round; stroke-linejoin:round; stroke-width:2; stroke-opacity:0.1; fill:none" points="362.393,1047.7 362.393,47.2441 "></polyline>
<polyline clip-path="url(#clip232)" style="stroke:#000000; stroke-linecap:round; stroke-linejoin:round; stroke-width:2; stroke-opacity:0.1; fill:none" points="845.491,1047.7 845.491,47.2441 "></polyline>
<polyline clip-path="url(#clip232)" style="stroke:#000000; stroke-linecap:round; stroke-linejoin:round; stroke-width:2; stroke-opacity:0.1; fill:none" points="1328.59,1047.7 1328.59,47.2441 "></polyline>
<polyline clip-path="url(#clip232)" style="stroke:#000000; stroke-linecap:round; stroke-linejoin:round; stroke-width:2; stroke-opacity:0.1; fill:none" points="1811.69,1047.7 1811.69,47.2441 "></polyline>
<polyline clip-path="url(#clip232)" style="stroke:#000000; stroke-linecap:round; stroke-linejoin:round; stroke-width:2; stroke-opacity:0.1; fill:none" points="2294.78,1047.7 2294.78,47.2441 "></polyline>
<polyline clip-path="url(#clip232)" style="stroke:#000000; stroke-linecap:round; stroke-linejoin:round; stroke-width:2; stroke-opacity:0.1; fill:none" points="304.421,974.492 2352.76,974.492 "></polyline>
<polyline clip-path="url(#clip232)" style="stroke:#000000; stroke-linecap:round; stroke-linejoin:round; stroke-width:2; stroke-opacity:0.1; fill:none" points="304.421,835.647 2352.76,835.647 "></polyline>
<polyline clip-path="url(#clip232)" style="stroke:#000000; stroke-linecap:round; stroke-linejoin:round; stroke-width:2; stroke-opacity:0.1; fill:none" points="304.421,696.802 2352.76,696.802 "></polyline>
<polyline clip-path="url(#clip232)" style="stroke:#000000; stroke-linecap:round; stroke-linejoin:round; stroke-width:2; stroke-opacity:0.1; fill:none" points="304.421,557.957 2352.76,557.957 "></polyline>
<polyline clip-path="url(#clip232)" style="stroke:#000000; stroke-linecap:round; stroke-linejoin:round; stroke-width:2; stroke-opacity:0.1; fill:none" points="304.421,419.112 2352.76,419.112 "></polyline>
<polyline clip-path="url(#clip232)" style="stroke:#000000; stroke-linecap:round; stroke-linejoin:round; stroke-width:2; stroke-opacity:0.1; fill:none" points="304.421,280.267 2352.76,280.267 "></polyline>
<polyline clip-path="url(#clip232)" style="stroke:#000000; stroke-linecap:round; stroke-linejoin:round; stroke-width:2; stroke-opacity:0.1; fill:none" points="304.421,141.422 2352.76,141.422 "></polyline>
<polyline clip-path="url(#clip230)" style="stroke:#000000; stroke-linecap:round; stroke-linejoin:round; stroke-width:4; stroke-opacity:1; fill:none" points="304.421,1047.7 2352.76,1047.7 "></polyline>
<polyline clip-path="url(#clip230)" style="stroke:#000000; stroke-linecap:round; stroke-linejoin:round; stroke-width:4; stroke-opacity:1; fill:none" points="362.393,1047.7 362.393,1028.8 "></polyline>
<polyline clip-path="url(#clip230)" style="stroke:#000000; stroke-linecap:round; stroke-linejoin:round; stroke-width:4; stroke-opacity:1; fill:none" points="845.491,1047.7 845.491,1028.8 "></polyline>
<polyline clip-path="url(#clip230)" style="stroke:#000000; stroke-linecap:round; stroke-linejoin:round; stroke-width:4; stroke-opacity:1; fill:none" points="1328.59,1047.7 1328.59,1028.8 "></polyline>
<polyline clip-path="url(#clip230)" style="stroke:#000000; stroke-linecap:round; stroke-linejoin:round; stroke-width:4; stroke-opacity:1; fill:none" points="1811.69,1047.7 1811.69,1028.8 "></polyline>
<polyline clip-path="url(#clip230)" style="stroke:#000000; stroke-linecap:round; stroke-linejoin:round; stroke-width:4; stroke-opacity:1; fill:none" points="2294.78,1047.7 2294.78,1028.8 "></polyline>
<path clip-path="url(#clip230)" d="M324.696 1078.62 Q321.085 1078.62 319.256 1082.18 Q317.451 1085.72 317.451 1092.85 Q317.451 1099.96 319.256 1103.53 Q321.085 1107.07 324.696 1107.07 Q328.33 1107.07 330.136 1103.53 Q331.965 1099.96 331.965 1092.85 Q331.965 1085.72 330.136 1082.18 Q328.33 1078.62 324.696 1078.62 M324.696 1074.91 Q330.506 1074.91 333.562 1079.52 Q336.641 1084.1 336.641 1092.85 Q336.641 1101.58 333.562 1106.19 Q330.506 1110.77 324.696 1110.77 Q318.886 1110.77 315.807 1106.19 Q312.752 1101.58 312.752 1092.85 Q312.752 1084.1 315.807 1079.52 Q318.886 1074.91 324.696 1074.91 Z" fill="#000000" fill-rule="nonzero" fill-opacity="1"></path><path clip-path="url(#clip230)" d="M344.858 1104.22 L349.742 1104.22 L349.742 1110.1 L344.858 1110.1 L344.858 1104.22 Z" fill="#000000" fill-rule="nonzero" fill-opacity="1"></path><path clip-path="url(#clip230)" d="M369.927 1078.62 Q366.316 1078.62 364.488 1082.18 Q362.682 1085.72 362.682 1092.85 Q362.682 1099.96 364.488 1103.53 Q366.316 1107.07 369.927 1107.07 Q373.562 1107.07 375.367 1103.53 Q377.196 1099.96 377.196 1092.85 Q377.196 1085.72 375.367 1082.18 Q373.562 1078.62 369.927 1078.62 M369.927 1074.91 Q375.738 1074.91 378.793 1079.52 Q381.872 1084.1 381.872 1092.85 Q381.872 1101.58 378.793 1106.19 Q375.738 1110.77 369.927 1110.77 Q364.117 1110.77 361.039 1106.19 Q357.983 1101.58 357.983 1092.85 Q357.983 1084.1 361.039 1079.52 Q364.117 1074.91 369.927 1074.91 Z" fill="#000000" fill-rule="nonzero" fill-opacity="1"></path><path clip-path="url(#clip230)" d="M400.089 1078.62 Q396.478 1078.62 394.649 1082.18 Q392.844 1085.72 392.844 1092.85 Q392.844 1099.96 394.649 1103.53 Q396.478 1107.07 400.089 1107.07 Q403.723 1107.07 405.529 1103.53 Q407.358 1099.96 407.358 1092.85 Q407.358 1085.72 405.529 1082.18 Q403.723 1078.62 400.089 1078.62 M400.089 1074.91 Q405.899 1074.91 408.955 1079.52 Q412.034 1084.1 412.034 1092.85 Q412.034 1101.58 408.955 1106.19 Q405.899 1110.77 400.089 1110.77 Q394.279 1110.77 391.2 1106.19 Q388.145 1101.58 388.145 1092.85 Q388.145 1084.1 391.2 1079.52 Q394.279 1074.91 400.089 1074.91 Z" fill="#000000" fill-rule="nonzero" fill-opacity="1"></path><path clip-path="url(#clip230)" d="M808.292 1078.62 Q804.681 1078.62 802.852 1082.18 Q801.046 1085.72 801.046 1092.85 Q801.046 1099.96 802.852 1103.53 Q804.681 1107.07 808.292 1107.07 Q811.926 1107.07 813.731 1103.53 Q815.56 1099.96 815.56 1092.85 Q815.56 1085.72 813.731 1082.18 Q811.926 1078.62 808.292 1078.62 M808.292 1074.91 Q814.102 1074.91 817.157 1079.52 Q820.236 1084.1 820.236 1092.85 Q820.236 1101.58 817.157 1106.19 Q814.102 1110.77 808.292 1110.77 Q802.482 1110.77 799.403 1106.19 Q796.347 1101.58 796.347 1092.85 Q796.347 1084.1 799.403 1079.52 Q802.482 1074.91 808.292 1074.91 Z" fill="#000000" fill-rule="nonzero" fill-opacity="1"></path><path clip-path="url(#clip230)" d="M828.454 1104.22 L833.338 1104.22 L833.338 1110.1 L828.454 1110.1 L828.454 1104.22 Z" fill="#000000" fill-rule="nonzero" fill-opacity="1"></path><path clip-path="url(#clip230)" d="M847.551 1106.16 L863.87 1106.16 L863.87 1110.1 L841.926 1110.1 L841.926 1106.16 Q844.588 1103.41 849.171 1098.78 Q853.778 1094.13 854.958 1092.79 Q857.203 1090.26 858.083 1088.53 Q858.986 1086.77 858.986 1085.08 Q858.986 1082.32 857.041 1080.59 Q855.12 1078.85 852.018 1078.85 Q849.819 1078.85 847.366 1079.61 Q844.935 1080.38 842.157 1081.93 L842.157 1077.21 Q844.981 1076.07 847.435 1075.49 Q849.889 1074.91 851.926 1074.91 Q857.296 1074.91 860.49 1077.6 Q863.685 1080.29 863.685 1084.78 Q863.685 1086.91 862.875 1088.83 Q862.088 1090.72 859.981 1093.32 Q859.403 1093.99 856.301 1097.21 Q853.199 1100.4 847.551 1106.16 Z" fill="#000000" fill-rule="nonzero" fill-opacity="1"></path><path clip-path="url(#clip230)" d="M873.731 1075.54 L892.088 1075.54 L892.088 1079.48 L878.014 1079.48 L878.014 1087.95 Q879.032 1087.6 880.051 1087.44 Q881.069 1087.25 882.088 1087.25 Q887.875 1087.25 891.254 1090.42 Q894.634 1093.6 894.634 1099.01 Q894.634 1104.59 891.162 1107.69 Q887.689 1110.77 881.37 1110.77 Q879.194 1110.77 876.926 1110.4 Q874.68 1110.03 872.273 1109.29 L872.273 1104.59 Q874.356 1105.72 876.578 1106.28 Q878.801 1106.84 881.277 1106.84 Q885.282 1106.84 887.62 1104.73 Q889.958 1102.62 889.958 1099.01 Q889.958 1095.4 887.62 1093.29 Q885.282 1091.19 881.277 1091.19 Q879.402 1091.19 877.527 1091.6 Q875.676 1092.02 873.731 1092.9 L873.731 1075.54 Z" fill="#000000" fill-rule="nonzero" fill-opacity="1"></path><path clip-path="url(#clip230)" d="M1290.89 1078.62 Q1287.28 1078.62 1285.45 1082.18 Q1283.65 1085.72 1283.65 1092.85 Q1283.65 1099.96 1285.45 1103.53 Q1287.28 1107.07 1290.89 1107.07 Q1294.53 1107.07 1296.33 1103.53 Q1298.16 1099.96 1298.16 1092.85 Q1298.16 1085.72 1296.33 1082.18 Q1294.53 1078.62 1290.89 1078.62 M1290.89 1074.91 Q1296.7 1074.91 1299.76 1079.52 Q1302.84 1084.1 1302.84 1092.85 Q1302.84 1101.58 1299.76 1106.19 Q1296.7 1110.77 1290.89 1110.77 Q1285.08 1110.77 1282 1106.19 Q1278.95 1101.58 1278.95 1092.85 Q1278.95 1084.1 1282 1079.52 Q1285.08 1074.91 1290.89 1074.91 Z" fill="#000000" fill-rule="nonzero" fill-opacity="1"></path><path clip-path="url(#clip230)" d="M1311.05 1104.22 L1315.94 1104.22 L1315.94 1110.1 L1311.05 1110.1 L1311.05 1104.22 Z" fill="#000000" fill-rule="nonzero" fill-opacity="1"></path><path clip-path="url(#clip230)" d="M1326.17 1075.54 L1344.53 1075.54 L1344.53 1079.48 L1330.45 1079.48 L1330.45 1087.95 Q1331.47 1087.6 1332.49 1087.44 Q1333.51 1087.25 1334.53 1087.25 Q1340.31 1087.25 1343.69 1090.42 Q1347.07 1093.6 1347.07 1099.01 Q1347.07 1104.59 1343.6 1107.69 Q1340.13 1110.77 1333.81 1110.77 Q1331.63 1110.77 1329.36 1110.4 Q1327.12 1110.03 1324.71 1109.29 L1324.71 1104.59 Q1326.79 1105.72 1329.02 1106.28 Q1331.24 1106.84 1333.72 1106.84 Q1337.72 1106.84 1340.06 1104.73 Q1342.4 1102.62 1342.4 1099.01 Q1342.4 1095.4 1340.06 1093.29 Q1337.72 1091.19 1333.72 1091.19 Q1331.84 1091.19 1329.97 1091.6 Q1328.11 1092.02 1326.17 1092.9 L1326.17 1075.54 Z" fill="#000000" fill-rule="nonzero" fill-opacity="1"></path><path clip-path="url(#clip230)" d="M1366.28 1078.62 Q1362.67 1078.62 1360.85 1082.18 Q1359.04 1085.72 1359.04 1092.85 Q1359.04 1099.96 1360.85 1103.53 Q1362.67 1107.07 1366.28 1107.07 Q1369.92 1107.07 1371.72 1103.53 Q1373.55 1099.96 1373.55 1092.85 Q1373.55 1085.72 1371.72 1082.18 Q1369.92 1078.62 1366.28 1078.62 M1366.28 1074.91 Q1372.1 1074.91 1375.15 1079.52 Q1378.23 1084.1 1378.23 1092.85 Q1378.23 1101.58 1375.15 1106.19 Q1372.1 1110.77 1366.28 1110.77 Q1360.47 1110.77 1357.4 1106.19 Q1354.34 1101.58 1354.34 1092.85 Q1354.34 1084.1 1357.4 1079.52 Q1360.47 1074.91 1366.28 1074.91 Z" fill="#000000" fill-rule="nonzero" fill-opacity="1"></path><path clip-path="url(#clip230)" d="M1774.49 1078.62 Q1770.88 1078.62 1769.05 1082.18 Q1767.24 1085.72 1767.24 1092.85 Q1767.24 1099.96 1769.05 1103.53 Q1770.88 1107.07 1774.49 1107.07 Q1778.12 1107.07 1779.93 1103.53 Q1781.76 1099.96 1781.76 1092.85 Q1781.76 1085.72 1779.93 1082.18 Q1778.12 1078.62 1774.49 1078.62 M1774.49 1074.91 Q1780.3 1074.91 1783.35 1079.52 Q1786.43 1084.1 1786.43 1092.85 Q1786.43 1101.58 1783.35 1106.19 Q1780.3 1110.77 1774.49 1110.77 Q1768.68 1110.77 1765.6 1106.19 Q1762.54 1101.58 1762.54 1092.85 Q1762.54 1084.1 1765.6 1079.52 Q1768.68 1074.91 1774.49 1074.91 Z" fill="#000000" fill-rule="nonzero" fill-opacity="1"></path><path clip-path="url(#clip230)" d="M1794.65 1104.22 L1799.53 1104.22 L1799.53 1110.1 L1794.65 1110.1 L1794.65 1104.22 Z" fill="#000000" fill-rule="nonzero" fill-opacity="1"></path><path clip-path="url(#clip230)" d="M1808.54 1075.54 L1830.76 1075.54 L1830.76 1077.53 L1818.21 1110.1 L1813.33 1110.1 L1825.14 1079.48 L1808.54 1079.48 L1808.54 1075.54 Z" fill="#000000" fill-rule="nonzero" fill-opacity="1"></path><path clip-path="url(#clip230)" d="M1839.93 1075.54 L1858.28 1075.54 L1858.28 1079.48 L1844.21 1079.48 L1844.21 1087.95 Q1845.23 1087.6 1846.25 1087.44 Q1847.26 1087.25 1848.28 1087.25 Q1854.07 1087.25 1857.45 1090.42 Q1860.83 1093.6 1860.83 1099.01 Q1860.83 1104.59 1857.36 1107.69 Q1853.89 1110.77 1847.57 1110.77 Q1845.39 1110.77 1843.12 1110.4 Q1840.88 1110.03 1838.47 1109.29 L1838.47 1104.59 Q1840.55 1105.72 1842.77 1106.28 Q1845 1106.84 1847.47 1106.84 Q1851.48 1106.84 1853.82 1104.73 Q1856.15 1102.62 1856.15 1099.01 Q1856.15 1095.4 1853.82 1093.29 Q1851.48 1091.19 1847.47 1091.19 Q1845.6 1091.19 1843.72 1091.6 Q1841.87 1092.02 1839.93 1092.9 L1839.93 1075.54 Z" fill="#000000" fill-rule="nonzero" fill-opacity="1"></path><path clip-path="url(#clip230)" d="M2246.86 1106.16 L2254.5 1106.16 L2254.5 1079.8 L2246.18 1081.47 L2246.18 1077.21 L2254.45 1075.54 L2259.12 1075.54 L2259.12 1106.16 L2266.76 1106.16 L2266.76 1110.1 L2246.86 1110.1 L2246.86 1106.16 Z" fill="#000000" fill-rule="nonzero" fill-opacity="1"></path><path clip-path="url(#clip230)" d="M2276.21 1104.22 L2281.09 1104.22 L2281.09 1110.1 L2276.21 1110.1 L2276.21 1104.22 Z" fill="#000000" fill-rule="nonzero" fill-opacity="1"></path><path clip-path="url(#clip230)" d="M2301.28 1078.62 Q2297.67 1078.62 2295.84 1082.18 Q2294.03 1085.72 2294.03 1092.85 Q2294.03 1099.96 2295.84 1103.53 Q2297.67 1107.07 2301.28 1107.07 Q2304.91 1107.07 2306.72 1103.53 Q2308.55 1099.96 2308.55 1092.85 Q2308.55 1085.72 2306.72 1082.18 Q2304.91 1078.62 2301.28 1078.62 M2301.28 1074.91 Q2307.09 1074.91 2310.14 1079.52 Q2313.22 1084.1 2313.22 1092.85 Q2313.22 1101.58 2310.14 1106.19 Q2307.09 1110.77 2301.28 1110.77 Q2295.47 1110.77 2292.39 1106.19 Q2289.33 1101.58 2289.33 1092.85 Q2289.33 1084.1 2292.39 1079.52 Q2295.47 1074.91 2301.28 1074.91 Z" fill="#000000" fill-rule="nonzero" fill-opacity="1"></path><path clip-path="url(#clip230)" d="M2331.44 1078.62 Q2327.83 1078.62 2326 1082.18 Q2324.19 1085.72 2324.19 1092.85 Q2324.19 1099.96 2326 1103.53 Q2327.83 1107.07 2331.44 1107.07 Q2335.07 1107.07 2336.88 1103.53 Q2338.71 1099.96 2338.71 1092.85 Q2338.71 1085.72 2336.88 1082.18 Q2335.07 1078.62 2331.44 1078.62 M2331.44 1074.91 Q2337.25 1074.91 2340.3 1079.52 Q2343.38 1084.1 2343.38 1092.85 Q2343.38 1101.58 2340.3 1106.19 Q2337.25 1110.77 2331.44 1110.77 Q2325.63 1110.77 2322.55 1106.19 Q2319.49 1101.58 2319.49 1092.85 Q2319.49 1084.1 2322.55 1079.52 Q2325.63 1074.91 2331.44 1074.91 Z" fill="#000000" fill-rule="nonzero" fill-opacity="1"></path><path clip-path="url(#clip230)" d="M1345.2 1156.92 L1332.31 1174.26 L1345.87 1192.56 L1338.96 1192.56 L1328.59 1178.56 L1318.21 1192.56 L1311.31 1192.56 L1325.15 1173.91 L1312.48 1156.92 L1319.39 1156.92 L1328.84 1169.62 L1338.3 1156.92 L1345.2 1156.92 Z" fill="#000000" fill-rule="nonzero" fill-opacity="1"></path><polyline clip-path="url(#clip230)" style="stroke:#000000; stroke-linecap:round; stroke-linejoin:round; stroke-width:4; stroke-opacity:1; fill:none" points="304.421,1047.7 304.421,47.2441 "></polyline>
<polyline clip-path="url(#clip230)" style="stroke:#000000; stroke-linecap:round; stroke-linejoin:round; stroke-width:4; stroke-opacity:1; fill:none" points="304.421,974.492 323.319,974.492 "></polyline>
<polyline clip-path="url(#clip230)" style="stroke:#000000; stroke-linecap:round; stroke-linejoin:round; stroke-width:4; stroke-opacity:1; fill:none" points="304.421,835.647 323.319,835.647 "></polyline>
<polyline clip-path="url(#clip230)" style="stroke:#000000; stroke-linecap:round; stroke-linejoin:round; stroke-width:4; stroke-opacity:1; fill:none" points="304.421,696.802 323.319,696.802 "></polyline>
<polyline clip-path="url(#clip230)" style="stroke:#000000; stroke-linecap:round; stroke-linejoin:round; stroke-width:4; stroke-opacity:1; fill:none" points="304.421,557.957 323.319,557.957 "></polyline>
<polyline clip-path="url(#clip230)" style="stroke:#000000; stroke-linecap:round; stroke-linejoin:round; stroke-width:4; stroke-opacity:1; fill:none" points="304.421,419.112 323.319,419.112 "></polyline>
<polyline clip-path="url(#clip230)" style="stroke:#000000; stroke-linecap:round; stroke-linejoin:round; stroke-width:4; stroke-opacity:1; fill:none" points="304.421,280.267 323.319,280.267 "></polyline>
<polyline clip-path="url(#clip230)" style="stroke:#000000; stroke-linecap:round; stroke-linejoin:round; stroke-width:4; stroke-opacity:1; fill:none" points="304.421,141.422 323.319,141.422 "></polyline>
<path clip-path="url(#clip230)" d="M102.751 974.943 L132.426 974.943 L132.426 978.879 L102.751 978.879 L102.751 974.943 Z" fill="#000000" fill-rule="nonzero" fill-opacity="1"></path><path clip-path="url(#clip230)" d="M152.519 960.291 Q148.908 960.291 147.079 963.855 Q145.273 967.397 145.273 974.527 Q145.273 981.633 147.079 985.198 Q148.908 988.74 152.519 988.74 Q156.153 988.74 157.959 985.198 Q159.787 981.633 159.787 974.527 Q159.787 967.397 157.959 963.855 Q156.153 960.291 152.519 960.291 M152.519 956.587 Q158.329 956.587 161.384 961.193 Q164.463 965.777 164.463 974.527 Q164.463 983.253 161.384 987.86 Q158.329 992.443 152.519 992.443 Q146.709 992.443 143.63 987.86 Q140.574 983.253 140.574 974.527 Q140.574 965.777 143.63 961.193 Q146.709 956.587 152.519 956.587 Z" fill="#000000" fill-rule="nonzero" fill-opacity="1"></path><path clip-path="url(#clip230)" d="M172.681 985.892 L177.565 985.892 L177.565 991.772 L172.681 991.772 L172.681 985.892 Z" fill="#000000" fill-rule="nonzero" fill-opacity="1"></path><path clip-path="url(#clip230)" d="M197.75 960.291 Q194.139 960.291 192.31 963.855 Q190.505 967.397 190.505 974.527 Q190.505 981.633 192.31 985.198 Q194.139 988.74 197.75 988.74 Q201.384 988.74 203.19 985.198 Q205.018 981.633 205.018 974.527 Q205.018 967.397 203.19 963.855 Q201.384 960.291 197.75 960.291 M197.75 956.587 Q203.56 956.587 206.616 961.193 Q209.694 965.777 209.694 974.527 Q209.694 983.253 206.616 987.86 Q203.56 992.443 197.75 992.443 Q191.94 992.443 188.861 987.86 Q185.806 983.253 185.806 974.527 Q185.806 965.777 188.861 961.193 Q191.94 956.587 197.75 956.587 Z" fill="#000000" fill-rule="nonzero" fill-opacity="1"></path><path clip-path="url(#clip230)" d="M227.912 960.291 Q224.301 960.291 222.472 963.855 Q220.667 967.397 220.667 974.527 Q220.667 981.633 222.472 985.198 Q224.301 988.74 227.912 988.74 Q231.546 988.74 233.352 985.198 Q235.18 981.633 235.18 974.527 Q235.18 967.397 233.352 963.855 Q231.546 960.291 227.912 960.291 M227.912 956.587 Q233.722 956.587 236.778 961.193 Q239.856 965.777 239.856 974.527 Q239.856 983.253 236.778 987.86 Q233.722 992.443 227.912 992.443 Q222.102 992.443 219.023 987.86 Q215.968 983.253 215.968 974.527 Q215.968 965.777 219.023 961.193 Q222.102 956.587 227.912 956.587 Z" fill="#000000" fill-rule="nonzero" fill-opacity="1"></path><path clip-path="url(#clip230)" d="M252.102 987.837 L268.421 987.837 L268.421 991.772 L246.477 991.772 L246.477 987.837 Q249.139 985.082 253.722 980.453 Q258.328 975.8 259.509 974.457 Q261.754 971.934 262.634 970.198 Q263.537 968.439 263.537 966.749 Q263.537 963.994 261.592 962.258 Q259.671 960.522 256.569 960.522 Q254.37 960.522 251.916 961.286 Q249.486 962.05 246.708 963.601 L246.708 958.879 Q249.532 957.744 251.986 957.166 Q254.44 956.587 256.477 956.587 Q261.847 956.587 265.041 959.272 Q268.236 961.957 268.236 966.448 Q268.236 968.578 267.426 970.499 Q266.639 972.397 264.532 974.99 Q263.953 975.661 260.852 978.879 Q257.75 982.073 252.102 987.837 Z" fill="#000000" fill-rule="nonzero" fill-opacity="1"></path><path clip-path="url(#clip230)" d="M102.38 836.098 L132.056 836.098 L132.056 840.033 L102.38 840.033 L102.38 836.098 Z" fill="#000000" fill-rule="nonzero" fill-opacity="1"></path><path clip-path="url(#clip230)" d="M152.148 821.446 Q148.537 821.446 146.709 825.01 Q144.903 828.552 144.903 835.682 Q144.903 842.788 146.709 846.353 Q148.537 849.895 152.148 849.895 Q155.783 849.895 157.588 846.353 Q159.417 842.788 159.417 835.682 Q159.417 828.552 157.588 825.01 Q155.783 821.446 152.148 821.446 M152.148 817.742 Q157.959 817.742 161.014 822.348 Q164.093 826.932 164.093 835.682 Q164.093 844.408 161.014 849.015 Q157.959 853.598 152.148 853.598 Q146.338 853.598 143.26 849.015 Q140.204 844.408 140.204 835.682 Q140.204 826.932 143.26 822.348 Q146.338 817.742 152.148 817.742 Z" fill="#000000" fill-rule="nonzero" fill-opacity="1"></path><path clip-path="url(#clip230)" d="M172.31 847.047 L177.195 847.047 L177.195 852.927 L172.31 852.927 L172.31 847.047 Z" fill="#000000" fill-rule="nonzero" fill-opacity="1"></path><path clip-path="url(#clip230)" d="M197.38 821.446 Q193.769 821.446 191.94 825.01 Q190.134 828.552 190.134 835.682 Q190.134 842.788 191.94 846.353 Q193.769 849.895 197.38 849.895 Q201.014 849.895 202.819 846.353 Q204.648 842.788 204.648 835.682 Q204.648 828.552 202.819 825.01 Q201.014 821.446 197.38 821.446 M197.38 817.742 Q203.19 817.742 206.245 822.348 Q209.324 826.932 209.324 835.682 Q209.324 844.408 206.245 849.015 Q203.19 853.598 197.38 853.598 Q191.569 853.598 188.491 849.015 Q185.435 844.408 185.435 835.682 Q185.435 826.932 188.491 822.348 Q191.569 817.742 197.38 817.742 Z" fill="#000000" fill-rule="nonzero" fill-opacity="1"></path><path clip-path="url(#clip230)" d="M227.542 821.446 Q223.93 821.446 222.102 825.01 Q220.296 828.552 220.296 835.682 Q220.296 842.788 222.102 846.353 Q223.93 849.895 227.542 849.895 Q231.176 849.895 232.981 846.353 Q234.81 842.788 234.81 835.682 Q234.81 828.552 232.981 825.01 Q231.176 821.446 227.542 821.446 M227.542 817.742 Q233.352 817.742 236.407 822.348 Q239.486 826.932 239.486 835.682 Q239.486 844.408 236.407 849.015 Q233.352 853.598 227.542 853.598 Q221.731 853.598 218.653 849.015 Q215.597 844.408 215.597 835.682 Q215.597 826.932 218.653 822.348 Q221.731 817.742 227.542 817.742 Z" fill="#000000" fill-rule="nonzero" fill-opacity="1"></path><path clip-path="url(#clip230)" d="M248.514 848.992 L256.152 848.992 L256.152 822.626 L247.842 824.293 L247.842 820.034 L256.106 818.367 L260.782 818.367 L260.782 848.992 L268.421 848.992 L268.421 852.927 L248.514 852.927 L248.514 848.992 Z" fill="#000000" fill-rule="nonzero" fill-opacity="1"></path><path clip-path="url(#clip230)" d="M150.922 682.601 Q147.31 682.601 145.482 686.165 Q143.676 689.707 143.676 696.837 Q143.676 703.943 145.482 707.508 Q147.31 711.049 150.922 711.049 Q154.556 711.049 156.361 707.508 Q158.19 703.943 158.19 696.837 Q158.19 689.707 156.361 686.165 Q154.556 682.601 150.922 682.601 M150.922 678.897 Q156.732 678.897 159.787 683.503 Q162.866 688.087 162.866 696.837 Q162.866 705.563 159.787 710.17 Q156.732 714.753 150.922 714.753 Q145.111 714.753 142.033 710.17 Q138.977 705.563 138.977 696.837 Q138.977 688.087 142.033 683.503 Q145.111 678.897 150.922 678.897 Z" fill="#000000" fill-rule="nonzero" fill-opacity="1"></path><path clip-path="url(#clip230)" d="M171.083 708.202 L175.968 708.202 L175.968 714.082 L171.083 714.082 L171.083 708.202 Z" fill="#000000" fill-rule="nonzero" fill-opacity="1"></path><path clip-path="url(#clip230)" d="M196.153 682.601 Q192.542 682.601 190.713 686.165 Q188.907 689.707 188.907 696.837 Q188.907 703.943 190.713 707.508 Q192.542 711.049 196.153 711.049 Q199.787 711.049 201.593 707.508 Q203.421 703.943 203.421 696.837 Q203.421 689.707 201.593 686.165 Q199.787 682.601 196.153 682.601 M196.153 678.897 Q201.963 678.897 205.018 683.503 Q208.097 688.087 208.097 696.837 Q208.097 705.563 205.018 710.17 Q201.963 714.753 196.153 714.753 Q190.343 714.753 187.264 710.17 Q184.208 705.563 184.208 696.837 Q184.208 688.087 187.264 683.503 Q190.343 678.897 196.153 678.897 Z" fill="#000000" fill-rule="nonzero" fill-opacity="1"></path><path clip-path="url(#clip230)" d="M226.315 682.601 Q222.704 682.601 220.875 686.165 Q219.069 689.707 219.069 696.837 Q219.069 703.943 220.875 707.508 Q222.704 711.049 226.315 711.049 Q229.949 711.049 231.754 707.508 Q233.583 703.943 233.583 696.837 Q233.583 689.707 231.754 686.165 Q229.949 682.601 226.315 682.601 M226.315 678.897 Q232.125 678.897 235.18 683.503 Q238.259 688.087 238.259 696.837 Q238.259 705.563 235.18 710.17 Q232.125 714.753 226.315 714.753 Q220.505 714.753 217.426 710.17 Q214.37 705.563 214.37 696.837 Q214.37 688.087 217.426 683.503 Q220.505 678.897 226.315 678.897 Z" fill="#000000" fill-rule="nonzero" fill-opacity="1"></path><path clip-path="url(#clip230)" d="M256.477 682.601 Q252.865 682.601 251.037 686.165 Q249.231 689.707 249.231 696.837 Q249.231 703.943 251.037 707.508 Q252.865 711.049 256.477 711.049 Q260.111 711.049 261.916 707.508 Q263.745 703.943 263.745 696.837 Q263.745 689.707 261.916 686.165 Q260.111 682.601 256.477 682.601 M256.477 678.897 Q262.287 678.897 265.342 683.503 Q268.421 688.087 268.421 696.837 Q268.421 705.563 265.342 710.17 Q262.287 714.753 256.477 714.753 Q250.666 714.753 247.588 710.17 Q244.532 705.563 244.532 696.837 Q244.532 688.087 247.588 683.503 Q250.666 678.897 256.477 678.897 Z" fill="#000000" fill-rule="nonzero" fill-opacity="1"></path><path clip-path="url(#clip230)" d="M152.148 543.756 Q148.537 543.756 146.709 547.32 Q144.903 550.862 144.903 557.992 Q144.903 565.098 146.709 568.663 Q148.537 572.204 152.148 572.204 Q155.783 572.204 157.588 568.663 Q159.417 565.098 159.417 557.992 Q159.417 550.862 157.588 547.32 Q155.783 543.756 152.148 543.756 M152.148 540.052 Q157.959 540.052 161.014 544.658 Q164.093 549.242 164.093 557.992 Q164.093 566.718 161.014 571.325 Q157.959 575.908 152.148 575.908 Q146.338 575.908 143.26 571.325 Q140.204 566.718 140.204 557.992 Q140.204 549.242 143.26 544.658 Q146.338 540.052 152.148 540.052 Z" fill="#000000" fill-rule="nonzero" fill-opacity="1"></path><path clip-path="url(#clip230)" d="M172.31 569.357 L177.195 569.357 L177.195 575.237 L172.31 575.237 L172.31 569.357 Z" fill="#000000" fill-rule="nonzero" fill-opacity="1"></path><path clip-path="url(#clip230)" d="M197.38 543.756 Q193.769 543.756 191.94 547.32 Q190.134 550.862 190.134 557.992 Q190.134 565.098 191.94 568.663 Q193.769 572.204 197.38 572.204 Q201.014 572.204 202.819 568.663 Q204.648 565.098 204.648 557.992 Q204.648 550.862 202.819 547.32 Q201.014 543.756 197.38 543.756 M197.38 540.052 Q203.19 540.052 206.245 544.658 Q209.324 549.242 209.324 557.992 Q209.324 566.718 206.245 571.325 Q203.19 575.908 197.38 575.908 Q191.569 575.908 188.491 571.325 Q185.435 566.718 185.435 557.992 Q185.435 549.242 188.491 544.658 Q191.569 540.052 197.38 540.052 Z" fill="#000000" fill-rule="nonzero" fill-opacity="1"></path><path clip-path="url(#clip230)" d="M227.542 543.756 Q223.93 543.756 222.102 547.32 Q220.296 550.862 220.296 557.992 Q220.296 565.098 222.102 568.663 Q223.93 572.204 227.542 572.204 Q231.176 572.204 232.981 568.663 Q234.81 565.098 234.81 557.992 Q234.81 550.862 232.981 547.32 Q231.176 543.756 227.542 543.756 M227.542 540.052 Q233.352 540.052 236.407 544.658 Q239.486 549.242 239.486 557.992 Q239.486 566.718 236.407 571.325 Q233.352 575.908 227.542 575.908 Q221.731 575.908 218.653 571.325 Q215.597 566.718 215.597 557.992 Q215.597 549.242 218.653 544.658 Q221.731 540.052 227.542 540.052 Z" fill="#000000" fill-rule="nonzero" fill-opacity="1"></path><path clip-path="url(#clip230)" d="M248.514 571.302 L256.152 571.302 L256.152 544.936 L247.842 546.603 L247.842 542.343 L256.106 540.677 L260.782 540.677 L260.782 571.302 L268.421 571.302 L268.421 575.237 L248.514 575.237 L248.514 571.302 Z" fill="#000000" fill-rule="nonzero" fill-opacity="1"></path><path clip-path="url(#clip230)" d="M152.519 404.91 Q148.908 404.91 147.079 408.475 Q145.273 412.017 145.273 419.147 Q145.273 426.253 147.079 429.818 Q148.908 433.359 152.519 433.359 Q156.153 433.359 157.959 429.818 Q159.787 426.253 159.787 419.147 Q159.787 412.017 157.959 408.475 Q156.153 404.91 152.519 404.91 M152.519 401.207 Q158.329 401.207 161.384 405.813 Q164.463 410.397 164.463 419.147 Q164.463 427.873 161.384 432.48 Q158.329 437.063 152.519 437.063 Q146.709 437.063 143.63 432.48 Q140.574 427.873 140.574 419.147 Q140.574 410.397 143.63 405.813 Q146.709 401.207 152.519 401.207 Z" fill="#000000" fill-rule="nonzero" fill-opacity="1"></path><path clip-path="url(#clip230)" d="M172.681 430.512 L177.565 430.512 L177.565 436.392 L172.681 436.392 L172.681 430.512 Z" fill="#000000" fill-rule="nonzero" fill-opacity="1"></path><path clip-path="url(#clip230)" d="M197.75 404.91 Q194.139 404.91 192.31 408.475 Q190.505 412.017 190.505 419.147 Q190.505 426.253 192.31 429.818 Q194.139 433.359 197.75 433.359 Q201.384 433.359 203.19 429.818 Q205.018 426.253 205.018 419.147 Q205.018 412.017 203.19 408.475 Q201.384 404.91 197.75 404.91 M197.75 401.207 Q203.56 401.207 206.616 405.813 Q209.694 410.397 209.694 419.147 Q209.694 427.873 206.616 432.48 Q203.56 437.063 197.75 437.063 Q191.94 437.063 188.861 432.48 Q185.806 427.873 185.806 419.147 Q185.806 410.397 188.861 405.813 Q191.94 401.207 197.75 401.207 Z" fill="#000000" fill-rule="nonzero" fill-opacity="1"></path><path clip-path="url(#clip230)" d="M227.912 404.91 Q224.301 404.91 222.472 408.475 Q220.667 412.017 220.667 419.147 Q220.667 426.253 222.472 429.818 Q224.301 433.359 227.912 433.359 Q231.546 433.359 233.352 429.818 Q235.18 426.253 235.18 419.147 Q235.18 412.017 233.352 408.475 Q231.546 404.91 227.912 404.91 M227.912 401.207 Q233.722 401.207 236.778 405.813 Q239.856 410.397 239.856 419.147 Q239.856 427.873 236.778 432.48 Q233.722 437.063 227.912 437.063 Q222.102 437.063 219.023 432.48 Q215.968 427.873 215.968 419.147 Q215.968 410.397 219.023 405.813 Q222.102 401.207 227.912 401.207 Z" fill="#000000" fill-rule="nonzero" fill-opacity="1"></path><path clip-path="url(#clip230)" d="M252.102 432.457 L268.421 432.457 L268.421 436.392 L246.477 436.392 L246.477 432.457 Q249.139 429.702 253.722 425.072 Q258.328 420.42 259.509 419.077 Q261.754 416.554 262.634 414.818 Q263.537 413.059 263.537 411.369 Q263.537 408.614 261.592 406.878 Q259.671 405.142 256.569 405.142 Q254.37 405.142 251.916 405.906 Q249.486 406.67 246.708 408.221 L246.708 403.498 Q249.532 402.364 251.986 401.786 Q254.44 401.207 256.477 401.207 Q261.847 401.207 265.041 403.892 Q268.236 406.577 268.236 411.068 Q268.236 413.197 267.426 415.119 Q266.639 417.017 264.532 419.609 Q263.953 420.281 260.852 423.498 Q257.75 426.693 252.102 432.457 Z" fill="#000000" fill-rule="nonzero" fill-opacity="1"></path><path clip-path="url(#clip230)" d="M151.57 266.065 Q147.959 266.065 146.13 269.63 Q144.324 273.172 144.324 280.301 Q144.324 287.408 146.13 290.973 Q147.959 294.514 151.57 294.514 Q155.204 294.514 157.009 290.973 Q158.838 287.408 158.838 280.301 Q158.838 273.172 157.009 269.63 Q155.204 266.065 151.57 266.065 M151.57 262.362 Q157.38 262.362 160.435 266.968 Q163.514 271.552 163.514 280.301 Q163.514 289.028 160.435 293.635 Q157.38 298.218 151.57 298.218 Q145.76 298.218 142.681 293.635 Q139.625 289.028 139.625 280.301 Q139.625 271.552 142.681 266.968 Q145.76 262.362 151.57 262.362 Z" fill="#000000" fill-rule="nonzero" fill-opacity="1"></path><path clip-path="url(#clip230)" d="M171.732 291.667 L176.616 291.667 L176.616 297.547 L171.732 297.547 L171.732 291.667 Z" fill="#000000" fill-rule="nonzero" fill-opacity="1"></path><path clip-path="url(#clip230)" d="M196.801 266.065 Q193.19 266.065 191.361 269.63 Q189.556 273.172 189.556 280.301 Q189.556 287.408 191.361 290.973 Q193.19 294.514 196.801 294.514 Q200.435 294.514 202.241 290.973 Q204.069 287.408 204.069 280.301 Q204.069 273.172 202.241 269.63 Q200.435 266.065 196.801 266.065 M196.801 262.362 Q202.611 262.362 205.667 266.968 Q208.745 271.552 208.745 280.301 Q208.745 289.028 205.667 293.635 Q202.611 298.218 196.801 298.218 Q190.991 298.218 187.912 293.635 Q184.857 289.028 184.857 280.301 Q184.857 271.552 187.912 266.968 Q190.991 262.362 196.801 262.362 Z" fill="#000000" fill-rule="nonzero" fill-opacity="1"></path><path clip-path="url(#clip230)" d="M226.963 266.065 Q223.352 266.065 221.523 269.63 Q219.717 273.172 219.717 280.301 Q219.717 287.408 221.523 290.973 Q223.352 294.514 226.963 294.514 Q230.597 294.514 232.403 290.973 Q234.231 287.408 234.231 280.301 Q234.231 273.172 232.403 269.63 Q230.597 266.065 226.963 266.065 M226.963 262.362 Q232.773 262.362 235.829 266.968 Q238.907 271.552 238.907 280.301 Q238.907 289.028 235.829 293.635 Q232.773 298.218 226.963 298.218 Q221.153 298.218 218.074 293.635 Q215.018 289.028 215.018 280.301 Q215.018 271.552 218.074 266.968 Q221.153 262.362 226.963 262.362 Z" fill="#000000" fill-rule="nonzero" fill-opacity="1"></path><path clip-path="url(#clip230)" d="M261.291 278.913 Q264.648 279.63 266.523 281.899 Q268.421 284.167 268.421 287.501 Q268.421 292.616 264.902 295.417 Q261.384 298.218 254.902 298.218 Q252.727 298.218 250.412 297.778 Q248.12 297.362 245.666 296.505 L245.666 291.991 Q247.611 293.125 249.926 293.704 Q252.24 294.283 254.764 294.283 Q259.162 294.283 261.453 292.547 Q263.768 290.811 263.768 287.501 Q263.768 284.445 261.615 282.732 Q259.486 280.996 255.666 280.996 L251.639 280.996 L251.639 277.153 L255.852 277.153 Q259.301 277.153 261.129 275.788 Q262.958 274.399 262.958 271.806 Q262.958 269.144 261.06 267.732 Q259.185 266.297 255.666 266.297 Q253.745 266.297 251.546 266.714 Q249.347 267.13 246.708 268.01 L246.708 263.843 Q249.37 263.102 251.685 262.732 Q254.023 262.362 256.083 262.362 Q261.407 262.362 264.509 264.792 Q267.611 267.2 267.611 271.32 Q267.611 274.19 265.967 276.181 Q264.324 278.149 261.291 278.913 Z" fill="#000000" fill-rule="nonzero" fill-opacity="1"></path><path clip-path="url(#clip230)" d="M150.435 127.22 Q146.824 127.22 144.996 130.785 Q143.19 134.327 143.19 141.456 Q143.19 148.563 144.996 152.128 Q146.824 155.669 150.435 155.669 Q154.07 155.669 155.875 152.128 Q157.704 148.563 157.704 141.456 Q157.704 134.327 155.875 130.785 Q154.07 127.22 150.435 127.22 M150.435 123.517 Q156.246 123.517 159.301 128.123 Q162.38 132.706 162.38 141.456 Q162.38 150.183 159.301 154.79 Q156.246 159.373 150.435 159.373 Q144.625 159.373 141.547 154.79 Q138.491 150.183 138.491 141.456 Q138.491 132.706 141.547 128.123 Q144.625 123.517 150.435 123.517 Z" fill="#000000" fill-rule="nonzero" fill-opacity="1"></path><path clip-path="url(#clip230)" d="M170.597 152.822 L175.482 152.822 L175.482 158.702 L170.597 158.702 L170.597 152.822 Z" fill="#000000" fill-rule="nonzero" fill-opacity="1"></path><path clip-path="url(#clip230)" d="M195.667 127.22 Q192.056 127.22 190.227 130.785 Q188.421 134.327 188.421 141.456 Q188.421 148.563 190.227 152.128 Q192.056 155.669 195.667 155.669 Q199.301 155.669 201.106 152.128 Q202.935 148.563 202.935 141.456 Q202.935 134.327 201.106 130.785 Q199.301 127.22 195.667 127.22 M195.667 123.517 Q201.477 123.517 204.532 128.123 Q207.611 132.706 207.611 141.456 Q207.611 150.183 204.532 154.79 Q201.477 159.373 195.667 159.373 Q189.857 159.373 186.778 154.79 Q183.722 150.183 183.722 141.456 Q183.722 132.706 186.778 128.123 Q189.857 123.517 195.667 123.517 Z" fill="#000000" fill-rule="nonzero" fill-opacity="1"></path><path clip-path="url(#clip230)" d="M225.829 127.22 Q222.217 127.22 220.389 130.785 Q218.583 134.327 218.583 141.456 Q218.583 148.563 220.389 152.128 Q222.217 155.669 225.829 155.669 Q229.463 155.669 231.268 152.128 Q233.097 148.563 233.097 141.456 Q233.097 134.327 231.268 130.785 Q229.463 127.22 225.829 127.22 M225.829 123.517 Q231.639 123.517 234.694 128.123 Q237.773 132.706 237.773 141.456 Q237.773 150.183 234.694 154.79 Q231.639 159.373 225.829 159.373 Q220.018 159.373 216.94 154.79 Q213.884 150.183 213.884 141.456 Q213.884 132.706 216.94 128.123 Q220.018 123.517 225.829 123.517 Z" fill="#000000" fill-rule="nonzero" fill-opacity="1"></path><path clip-path="url(#clip230)" d="M258.838 128.216 L247.032 146.665 L258.838 146.665 L258.838 128.216 M257.611 124.142 L263.49 124.142 L263.49 146.665 L268.421 146.665 L268.421 150.554 L263.49 150.554 L263.49 158.702 L258.838 158.702 L258.838 150.554 L243.236 150.554 L243.236 146.04 L257.611 124.142 Z" fill="#000000" fill-rule="nonzero" fill-opacity="1"></path><path clip-path="url(#clip230)" d="M38.0559 607.278 L16.4762 607.278 L16.4762 601.421 L37.8331 601.421 Q42.8939 601.421 45.4402 599.448 Q47.9546 597.475 47.9546 593.528 Q47.9546 588.785 44.9309 586.048 Q41.9072 583.279 36.6873 583.279 L16.4762 583.279 L16.4762 577.423 L52.1242 577.423 L52.1242 583.279 L46.6496 583.279 Q49.8962 585.412 51.4876 588.244 Q53.0472 591.045 53.0472 594.769 Q53.0472 600.912 49.2278 604.095 Q45.4083 607.278 38.0559 607.278 M15.6168 592.541 L15.6168 592.541 Z" fill="#000000" fill-rule="nonzero" fill-opacity="1"></path><path clip-path="url(#clip230)" d="M2.66262 551.291 Q9.98318 555.556 17.1446 557.625 Q24.306 559.694 31.6584 559.694 Q39.0108 559.694 46.2359 557.625 Q53.4291 555.525 60.7179 551.291 L60.7179 556.384 Q53.2382 561.158 46.0131 563.545 Q38.788 565.901 31.6584 565.901 Q24.5606 565.901 17.3674 563.545 Q10.1742 561.19 2.66262 556.384 L2.66262 551.291 Z" fill="#000000" fill-rule="nonzero" fill-opacity="1"></path><path clip-path="url(#clip230)" d="M16.4762 510.296 L33.8228 523.187 L52.1242 509.628 L52.1242 516.535 L38.1196 526.911 L52.1242 537.287 L52.1242 544.194 L33.4726 530.348 L16.4762 543.016 L16.4762 536.109 L29.1758 526.656 L16.4762 517.203 L16.4762 510.296 Z" fill="#000000" fill-rule="nonzero" fill-opacity="1"></path><path clip-path="url(#clip230)" d="M2.66262 502.275 L2.66262 497.183 Q10.1742 492.409 17.3674 490.053 Q24.5606 487.666 31.6584 487.666 Q38.788 487.666 46.0131 490.053 Q53.2382 492.409 60.7179 497.183 L60.7179 502.275 Q53.4291 498.042 46.2359 495.973 Q39.0108 493.873 31.6584 493.873 Q24.306 493.873 17.1446 495.973 Q9.98318 498.042 2.66262 502.275 Z" fill="#000000" fill-rule="nonzero" fill-opacity="1"></path><polyline clip-path="url(#clip232)" style="stroke:#009af9; stroke-linecap:round; stroke-linejoin:round; stroke-width:8; stroke-opacity:1; fill:none" points="362.393,696.802 364.327,703.433 366.261,710.062 368.196,716.685 370.13,723.3 372.064,729.904 373.999,736.494 375.933,743.067 377.867,749.62 379.802,756.152 381.736,762.658 383.67,769.137 385.605,775.586 387.539,782.001 389.473,788.381 391.408,794.722 393.342,801.022 395.276,807.278 397.211,813.488 399.145,819.649 401.079,825.758 403.014,831.812 404.948,837.81 406.882,843.749 408.816,849.626 410.751,855.439 412.685,861.184 414.619,866.861 416.554,872.466 418.488,877.997 420.422,883.452 422.357,888.828 424.291,894.123 426.225,899.336 428.16,904.462 430.094,909.502 432.028,914.451 433.963,919.309 435.897,924.072 437.831,928.74 439.766,933.31 441.7,937.78 443.634,942.149 445.569,946.413 447.503,950.572 449.437,954.624 451.372,958.567 453.306,962.399 455.24,966.119 457.175,969.724 459.109,973.214 461.043,976.587 462.978,979.841 464.912,982.975 466.846,985.988 468.781,988.878 470.715,991.644 472.649,994.284 474.584,996.798 476.518,999.185 478.452,1001.44 480.387,1003.57 482.321,1005.57 484.255,1007.43 486.19,1009.17 488.124,1010.77 490.058,1012.23 491.993,1013.56 493.927,1014.76 495.861,1015.82 497.795,1016.74 499.73,1017.53 501.664,1018.18 503.598,1018.69 505.533,1019.06 507.467,1019.29 509.401,1019.39 511.336,1019.34 513.27,1019.16 515.204,1018.83 517.139,1018.37 519.073,1017.77 521.007,1017.03 522.942,1016.15 524.876,1015.14 526.81,1013.98 528.745,1012.69 530.679,1011.26 532.613,1009.69 534.548,1007.99 536.482,1006.14 538.416,1004.17 540.351,1002.06 542.285,999.814 544.219,997.436 546.154,994.925 548.088,992.283 550.022,989.511 551.957,986.609 553.891,983.578 555.825,980.419 557.76,977.135 559.694,973.725 561.628,970.191 563.563,966.534 565.497,962.756 567.431,958.859 569.366,954.842 571.3,950.709 573.234,946.46 575.169,942.097 577.103,937.622 579.037,933.037 580.971,928.342 582.906,923.54 584.84,918.633 586.774,913.622 588.709,908.51 590.643,903.298 592.577,897.988 594.512,892.583 596.446,887.083 598.38,881.492 600.315,875.812 602.249,870.044 604.183,864.191 606.118,858.255 608.052,852.238 609.986,846.143 611.921,839.972 613.855,833.727 615.789,827.41 617.724,821.025 619.658,814.573 621.592,808.056 623.527,801.479 625.461,794.842 627.395,788.148 629.33,781.401 631.264,774.602 633.198,767.754 635.133,760.86 637.067,753.922 639.001,746.943 640.936,739.926 642.87,732.874 644.804,725.788 646.739,718.673 648.673,711.53 650.607,704.362 652.542,697.172 654.476,689.964 656.41,682.738 658.345,675.499 660.279,668.249 662.213,660.991 664.148,653.727 666.082,646.461 668.016,639.196 669.95,631.933 671.885,624.676 673.819,617.427 675.753,610.19 677.688,602.967 679.622,595.761 681.556,588.574 683.491,581.41 685.425,574.271 687.359,567.16 689.294,560.08 691.228,553.033 693.162,546.022 695.097,539.049 697.031,532.118 698.965,525.231 700.9,518.39 702.834,511.599 704.768,504.86 706.703,498.175 708.637,491.547 710.571,484.979 712.506,478.472 714.44,472.03 716.374,465.655 718.309,459.35 720.243,453.116 722.177,446.956 724.112,440.873 726.046,434.869 727.98,428.945 729.915,423.105 731.849,417.351 733.783,411.684 735.718,406.107 737.652,400.622 739.586,395.231 741.521,389.937 743.455,384.74 745.389,379.643 747.324,374.648 749.258,369.757 751.192,364.972 753.126,360.294 755.061,355.726 756.995,351.268 758.929,346.923 760.864,342.692 762.798,338.576 764.732,334.578 766.667,330.699 768.601,326.94 770.535,323.302 772.47,319.787 774.404,316.397 776.338,313.131 778.273,309.993 780.207,306.982 782.141,304.099 784.076,301.347 786.01,298.725 787.944,296.236 789.879,293.878 791.813,291.654 793.747,289.564 795.682,287.609 797.616,285.79 799.55,284.107 801.485,282.56 803.419,281.151 805.353,279.879 807.288,278.745 809.222,277.749 811.156,276.892 813.091,276.174 815.025,275.595 816.959,275.155 818.894,274.854 820.828,274.692 822.762,274.669 824.697,274.785 826.631,275.04 828.565,275.433 830.5,275.964 832.434,276.634 834.368,277.441 836.303,278.385 838.237,279.465 840.171,280.682 842.105,282.034 844.04,283.521 845.974,285.141 847.908,286.895 849.843,288.781 851.777,290.799 853.711,292.947 855.646,295.225 857.58,297.631 859.514,300.165 861.449,302.825 863.383,305.61 865.317,308.519 867.252,311.551 869.186,314.704 871.12,317.976 873.055,321.367 874.989,324.875 876.923,328.498 878.858,332.236 880.792,336.085 882.726,340.045 884.661,344.113 886.595,348.289 888.529,352.569 890.464,356.954 892.398,361.439 894.332,366.025 896.267,370.708 898.201,375.486 900.135,380.358 902.07,385.322 904.004,390.374 905.938,395.515 907.873,400.74 909.807,406.048 911.741,411.436 913.676,416.903 915.61,422.446 917.544,428.062 919.479,433.749 921.413,439.506 923.347,445.328 925.281,451.215 927.216,457.163 929.15,463.17 931.084,469.233 933.019,475.351 934.953,481.519 936.887,487.736 938.822,493.999 940.756,500.306 942.69,506.653 944.625,513.038 946.559,519.459 948.493,525.913 950.428,532.396 952.362,538.907 954.296,545.442 956.231,551.999 958.165,558.574 960.099,565.167 962.034,571.772 963.968,578.388 965.902,585.013 967.837,591.642 969.771,598.274 971.705,604.905 973.64,611.533 975.574,618.155 977.508,624.768 979.443,631.37 981.377,637.957 983.311,644.528 985.246,651.078 987.18,657.606 989.114,664.108 991.049,670.583 992.983,677.026 994.917,683.436 996.852,689.81 998.786,696.145 1000.72,702.439 1002.65,708.688 1004.59,714.89 1006.52,721.043 1008.46,727.144 1010.39,733.19 1012.33,739.179 1014.26,745.108 1016.19,750.975 1018.13,756.778 1020.06,762.513 1022,768.179 1023.93,773.772 1025.87,779.292 1027.8,784.735 1029.74,790.098 1031.67,795.381 1033.6,800.58 1035.54,805.693 1037.47,810.719 1039.41,815.654 1041.34,820.497 1043.28,825.246 1045.21,829.899 1047.14,834.454 1049.08,838.908 1051.01,843.261 1052.95,847.509 1054.88,851.652 1056.82,855.687 1058.75,859.612 1060.68,863.427 1062.62,867.129 1064.55,870.717 1066.49,874.189 1068.42,877.543 1070.36,880.779 1072.29,883.894 1074.22,886.888 1076.16,889.759 1078.09,892.505 1080.03,895.126 1081.96,897.621 1083.9,899.987 1085.83,902.225 1087.76,904.333 1089.7,906.31 1091.63,908.155 1093.57,909.868 1095.5,911.447 1097.44,912.892 1099.37,914.202 1101.31,915.377 1103.24,916.415 1105.17,917.317 1107.11,918.081 1109.04,918.708 1110.98,919.197 1112.91,919.547 1114.85,919.759 1116.78,919.832 1118.71,919.766 1120.65,919.561 1122.58,919.217 1124.52,918.733 1126.45,918.111 1128.39,917.35 1130.32,916.45 1132.25,915.412 1134.19,914.235 1136.12,912.92 1138.06,911.468 1139.99,909.879 1141.93,908.154 1143.86,906.292 1145.79,904.295 1147.73,902.164 1149.66,899.899 1151.6,897.5 1153.53,894.969 1155.47,892.307 1157.4,889.514 1159.33,886.592 1161.27,883.541 1163.2,880.363 1165.14,877.059 1167.07,873.63 1169.01,870.077 1170.94,866.402 1172.88,862.605 1174.81,858.689 1176.74,854.654 1178.68,850.503 1180.61,846.236 1182.55,841.856 1184.48,837.364 1186.42,832.761 1188.35,828.05 1190.28,823.231 1192.22,818.308 1194.15,813.282 1196.09,808.154 1198.02,802.926 1199.96,797.602 1201.89,792.181 1203.82,786.668 1205.76,781.063 1207.69,775.369 1209.63,769.588 1211.56,763.722 1213.5,757.773 1215.43,751.744 1217.36,745.637 1219.3,739.454 1221.23,733.197 1223.17,726.87 1225.1,720.474 1227.04,714.012 1228.97,707.486 1230.9,700.899 1232.84,694.253 1234.77,687.551 1236.71,680.795 1238.64,673.989 1240.58,667.133 1242.51,660.232 1244.45,653.288 1246.38,646.303 1248.31,639.281 1250.25,632.223 1252.18,625.133 1254.12,618.013 1256.05,610.866 1257.99,603.694 1259.92,596.502 1261.85,589.29 1263.79,582.062 1265.72,574.821 1267.66,567.57 1269.59,560.311 1271.53,553.047 1273.46,545.78 1275.39,538.515 1277.33,531.253 1279.26,523.997 1281.2,516.75 1283.13,509.515 1285.07,502.294 1287,495.091 1288.93,487.908 1290.87,480.747 1292.8,473.613 1294.74,466.506 1296.67,459.431 1298.61,452.389 1300.54,445.383 1302.48,438.417 1304.41,431.493 1306.34,424.613 1308.28,417.78 1310.21,410.996 1312.15,404.265 1314.08,397.589 1316.02,390.97 1317.95,384.411 1319.88,377.915 1321.82,371.483 1323.75,365.119 1325.69,358.824 1327.62,352.601 1329.56,346.453 1331.49,340.382 1333.42,334.39 1335.36,328.48 1337.29,322.653 1339.23,316.912 1341.16,311.259 1343.1,305.696 1345.03,300.226 1346.96,294.849 1348.9,289.57 1350.83,284.388 1352.77,279.307 1354.7,274.329 1356.64,269.454 1358.57,264.685 1360.5,260.024 1362.44,255.472 1364.37,251.032 1366.31,246.704 1368.24,242.491 1370.18,238.394 1372.11,234.414 1374.05,230.553 1375.98,226.813 1377.91,223.194 1379.85,219.698 1381.78,216.327 1383.72,213.081 1385.65,209.962 1387.59,206.971 1389.52,204.109 1391.45,201.377 1393.39,198.776 1395.32,196.306 1397.26,193.969 1399.19,191.766 1401.13,189.697 1403.06,187.763 1404.99,185.965 1406.93,184.303 1408.86,182.777 1410.8,181.389 1412.73,180.139 1414.67,179.026 1416.6,178.052 1418.53,177.217 1420.47,176.52 1422.4,175.962 1424.34,175.544 1426.27,175.264 1428.21,175.124 1430.14,175.122 1432.07,175.26 1434.01,175.536 1435.94,175.951 1437.88,176.504 1439.81,177.195 1441.75,178.023 1443.68,178.988 1445.62,180.09 1447.55,181.327 1449.48,182.7 1451.42,184.207 1453.35,185.849 1455.29,187.623 1457.22,189.53 1459.16,191.568 1461.09,193.736 1463.02,196.034 1464.96,198.46 1466.89,201.013 1468.83,203.693 1470.76,206.497 1472.7,209.425 1474.63,212.476 1476.56,215.647 1478.5,218.938 1480.43,222.348 1482.37,225.873 1484.3,229.514 1486.24,233.269 1488.17,237.136 1490.1,241.112 1492.04,245.197 1493.97,249.389 1495.91,253.686 1497.84,258.086 1499.78,262.588 1501.71,267.188 1503.64,271.886 1505.58,276.679 1507.51,281.565 1509.45,286.543 1511.38,291.61 1513.32,296.763 1515.25,302.001 1517.19,307.322 1519.12,312.722 1521.05,318.201 1522.99,323.755 1524.92,329.383 1526.86,335.081 1528.79,340.848 1530.73,346.681 1532.66,352.577 1534.59,358.534 1536.53,364.55 1538.46,370.622 1540.4,376.747 1542.33,382.924 1544.27,389.148 1546.2,395.418 1548.13,401.731 1550.07,408.084 1552,414.475 1553.94,420.901 1555.87,427.359 1557.81,433.847 1559.74,440.362 1561.67,446.9 1563.61,453.46 1565.54,460.039 1567.48,466.633 1569.41,473.241 1571.35,479.859 1573.28,486.484 1575.21,493.114 1577.15,499.745 1579.08,506.376 1581.02,513.004 1582.95,519.625 1584.89,526.236 1586.82,532.836 1588.76,539.421 1590.69,545.988 1592.62,552.535 1594.56,559.059 1596.49,565.558 1598.43,572.028 1600.36,578.466 1602.3,584.871 1604.23,591.239 1606.16,597.567 1608.1,603.854 1610.03,610.096 1611.97,616.291 1613.9,622.436 1615.84,628.528 1617.77,634.566 1619.7,640.546 1621.64,646.466 1623.57,652.323 1625.51,658.115 1627.44,663.84 1629.38,669.494 1631.31,675.077 1633.24,680.584 1635.18,686.015 1637.11,691.367 1639.05,696.636 1640.98,701.822 1642.92,706.922 1644.85,711.934 1646.79,716.855 1648.72,721.684 1650.65,726.418 1652.59,731.056 1654.52,735.595 1656.46,740.034 1658.39,744.37 1660.33,748.602 1662.26,752.728 1664.19,756.747 1666.13,760.655 1668.06,764.453 1670,768.137 1671.93,771.707 1673.87,775.161 1675.8,778.497 1677.73,781.714 1679.67,784.811 1681.6,787.785 1683.54,790.637 1685.47,793.364 1687.41,795.966 1689.34,798.44 1691.27,800.787 1693.21,803.005 1695.14,805.092 1697.08,807.049 1699.01,808.874 1700.95,810.566 1702.88,812.124 1704.81,813.549 1706.75,814.838 1708.68,815.991 1710.62,817.008 1712.55,817.889 1714.49,818.632 1716.42,819.237 1718.36,819.704 1720.29,820.033 1722.22,820.224 1724.16,820.275 1726.09,820.188 1728.03,819.961 1729.96,819.596 1731.9,819.091 1733.83,818.447 1735.76,817.664 1737.7,816.743 1739.63,815.683 1741.57,814.485 1743.5,813.149 1745.44,811.676 1747.37,810.066 1749.3,808.319 1751.24,806.436 1753.17,804.419 1755.11,802.266 1757.04,799.98 1758.98,797.561 1760.91,795.01 1762.84,792.328 1764.78,789.515 1766.71,786.573 1768.65,783.502 1770.58,780.304 1772.52,776.981 1774.45,773.532 1776.38,769.96 1778.32,766.266 1780.25,762.451 1782.19,758.516 1784.12,754.463 1786.06,750.294 1787.99,746.01 1789.93,741.612 1791.86,737.103 1793.79,732.483 1795.73,727.755 1797.66,722.92 1799.6,717.981 1801.53,712.939 1803.47,707.795 1805.4,702.553 1807.33,697.213 1809.27,691.778 1811.2,686.25 1813.14,680.631 1815.07,674.923 1817.01,669.129 1818.94,663.25 1820.87,657.289 1822.81,651.247 1824.74,645.128 1826.68,638.934 1828.61,632.666 1830.55,626.328 1832.48,619.922 1834.41,613.45 1836.35,606.914 1838.28,600.318 1840.22,593.663 1842.15,586.953 1844.09,580.189 1846.02,573.374 1847.95,566.512 1849.89,559.604 1851.82,552.653 1853.76,545.663 1855.69,538.634 1857.63,531.571 1859.56,524.476 1861.5,517.352 1863.43,510.201 1865.36,503.026 1867.3,495.83 1869.23,488.616 1871.17,481.386 1873.1,474.143 1875.04,466.89 1876.97,459.63 1878.9,452.366 1880.84,445.1 1882.77,437.834 1884.71,430.573 1886.64,423.318 1888.58,416.073 1890.51,408.84 1892.44,401.622 1894.38,394.422 1896.31,387.242 1898.25,380.085 1900.18,372.954 1902.12,365.853 1904.05,358.782 1905.98,351.746 1907.92,344.746 1909.85,337.786 1911.79,330.869 1913.72,323.996 1915.66,317.17 1917.59,310.395 1919.52,303.672 1921.46,297.005 1923.39,290.395 1925.33,283.845 1927.26,277.359 1929.2,270.937 1931.13,264.583 1933.07,258.3 1935,252.089 1936.93,245.952 1938.87,239.893 1940.8,233.914 1942.74,228.016 1944.67,222.202 1946.61,216.475 1948.54,210.836 1950.47,205.287 1952.41,199.831 1954.34,194.47 1956.28,189.205 1958.21,184.039 1960.15,178.974 1962.08,174.011 1964.01,169.153 1965.95,164.401 1967.88,159.756 1969.82,155.222 1971.75,150.799 1973.69,146.489 1975.62,142.293 1977.55,138.214 1979.49,134.253 1981.42,130.41 1983.36,126.689 1985.29,123.089 1987.23,119.613 1989.16,116.261 1991.1,113.035 1993.03,109.935 1994.96,106.964 1996.9,104.122 1998.83,101.41 2000.77,98.8291 2002.7,96.3801 2004.64,94.064 2006.57,91.8815 2008.5,89.8334 2010.44,87.9204 2012.37,86.1431 2014.31,84.5021 2016.24,82.9979 2018.18,81.631 2020.11,80.4018 2022.04,79.3108 2023.98,78.3581 2025.91,77.5441 2027.85,76.8689 2029.78,76.3328 2031.72,75.9357 2033.65,75.6777 2035.58,75.5589 2037.52,75.579 2039.45,75.7381 2041.39,76.0358 2043.32,76.472 2045.26,77.0463 2047.19,77.7584 2049.12,78.6078 2051.06,79.5942 2052.99,80.7169 2054.93,81.9755 2056.86,83.3692 2058.8,84.8974 2060.73,86.5594 2062.67,88.3543 2064.6,90.2813 2066.53,92.3395 2068.47,94.528 2070.4,96.8457 2072.34,99.2917 2074.27,101.865 2076.21,104.564 2078.14,107.387 2080.07,110.334 2082.01,113.404 2083.94,116.594 2085.88,119.903 2087.81,123.331 2089.75,126.874 2091.68,130.533 2093.61,134.305 2095.55,138.189 2097.48,142.183 2099.42,146.284 2101.35,150.493 2103.29,154.806 2105.22,159.222 2107.15,163.738 2109.09,168.354 2111.02,173.067 2112.96,177.874 2114.89,182.775 2116.83,187.767 2118.76,192.847 2120.69,198.013 2122.63,203.264 2124.56,208.597 2126.5,214.01 2128.43,219.501 2130.37,225.067 2132.3,230.705 2134.24,236.414 2136.17,242.192 2138.1,248.034 2140.04,253.94 2141.97,259.907 2143.91,265.932 2145.84,272.012 2147.78,278.145 2149.71,284.329 2151.64,290.561 2153.58,296.838 2155.51,303.157 2157.45,309.516 2159.38,315.913 2161.32,322.344 2163.25,328.807 2165.18,335.299 2167.12,341.818 2169.05,348.36 2170.99,354.923 2172.92,361.504 2174.86,368.101 2176.79,374.71 2178.72,381.329 2180.66,387.955 2182.59,394.585 2184.53,401.217 2186.46,407.848 2188.4,414.474 2190.33,421.094 2192.26,427.704 2194.2,434.302 2196.13,440.884 2198.07,447.448 2200,453.992 2201.94,460.512 2203.87,467.006 2205.81,473.472 2207.74,479.905 2209.67,486.304 2211.61,492.666 2213.54,498.989 2215.48,505.268 2217.41,511.503 2219.35,517.691 2221.28,523.828 2223.21,529.912 2225.15,535.941 2227.08,541.911 2229.02,547.822 2230.95,553.669 2232.89,559.451 2234.82,565.165 2236.75,570.808 2238.69,576.379 2240.62,581.875 2242.56,587.294 2244.49,592.633 2246.43,597.89 2248.36,603.062 2250.29,608.149 2252.23,613.146 2254.16,618.054 2256.1,622.868 2258.03,627.587 2259.97,632.21 2261.9,636.734 2263.83,641.157 2265.77,645.477 2267.7,649.693 2269.64,653.802 2271.57,657.804 2273.51,661.695 2275.44,665.475 2277.38,669.142 2279.31,672.694 2281.24,676.13 2283.18,679.448 2285.11,682.646 2287.05,685.724 2288.98,688.68 2290.92,691.512 2292.85,694.22 2294.78,696.802 "></polyline>
<polyline clip-path="url(#clip232)" style="stroke:#e26f46; stroke-linecap:round; stroke-linejoin:round; stroke-width:4; stroke-opacity:1; fill:none" stroke-dasharray="16, 8, 2, 8" points="362.393,696.802 364.327,703.433 366.261,710.062 368.196,716.685 370.13,723.3 372.064,729.904 373.999,736.494 375.933,743.067 377.867,749.62 379.802,756.152 381.736,762.658 383.67,769.137 385.605,775.586 387.539,782.001 389.473,788.381 391.408,794.722 393.342,801.022 395.276,807.278 397.211,813.488 399.145,819.649 401.079,825.758 403.014,831.812 404.948,837.81 406.882,843.749 408.816,849.626 410.751,855.439 412.685,861.184 414.619,866.861 416.554,872.466 418.488,877.997 420.422,883.452 422.357,888.828 424.291,894.123 426.225,899.336 428.16,904.462 430.094,909.502 432.028,914.451 433.963,919.309 435.897,924.072 437.831,928.74 439.766,933.31 441.7,937.78 443.634,942.149 445.569,946.413 447.503,950.572 449.437,954.624 451.372,958.567 453.306,962.399 455.24,966.119 457.175,969.724 459.109,973.214 461.043,976.587 462.978,979.841 464.912,982.975 466.846,985.988 468.781,988.878 470.715,991.644 472.649,994.284 474.584,996.798 476.518,999.185 478.452,1001.44 480.387,1003.57 482.321,1005.57 484.255,1007.43 486.19,1009.17 488.124,1010.77 490.058,1012.23 491.993,1013.56 493.927,1014.76 495.861,1015.82 497.795,1016.74 499.73,1017.53 501.664,1018.18 503.598,1018.69 505.533,1019.06 507.467,1019.29 509.401,1019.39 511.336,1019.34 513.27,1019.16 515.204,1018.83 517.139,1018.37 519.073,1017.77 521.007,1017.03 522.942,1016.15 524.876,1015.14 526.81,1013.98 528.745,1012.69 530.679,1011.26 532.613,1009.69 534.548,1007.99 536.482,1006.14 538.416,1004.17 540.351,1002.06 542.285,999.814 544.219,997.436 546.154,994.925 548.088,992.283 550.022,989.511 551.957,986.609 553.891,983.578 555.825,980.419 557.76,977.135 559.694,973.725 561.628,970.191 563.563,966.534 565.497,962.756 567.431,958.859 569.366,954.842 571.3,950.709 573.234,946.46 575.169,942.097 577.103,937.622 579.037,933.037 580.971,928.342 582.906,923.54 584.84,918.633 586.774,913.622 588.709,908.51 590.643,903.298 592.577,897.988 594.512,892.583 596.446,887.083 598.38,881.492 600.315,875.812 602.249,870.044 604.183,864.191 606.118,858.255 608.052,852.238 609.986,846.143 611.921,839.972 613.855,833.727 615.789,827.41 617.724,821.025 619.658,814.573 621.592,808.056 623.527,801.479 625.461,794.842 627.395,788.148 629.33,781.401 631.264,774.602 633.198,767.754 635.133,760.86 637.067,753.922 639.001,746.943 640.936,739.926 642.87,732.874 644.804,725.788 646.739,718.673 648.673,711.53 650.607,704.362 652.542,697.172 654.476,689.964 656.41,682.738 658.345,675.499 660.279,668.249 662.213,660.991 664.148,653.727 666.082,646.461 668.016,639.196 669.95,631.933 671.885,624.676 673.819,617.427 675.753,610.19 677.688,602.967 679.622,595.761 681.556,588.574 683.491,581.41 685.425,574.271 687.359,567.16 689.294,560.08 691.228,553.033 693.162,546.022 695.097,539.049 697.031,532.118 698.965,525.231 700.9,518.39 702.834,511.599 704.768,504.86 706.703,498.175 708.637,491.547 710.571,484.979 712.506,478.472 714.44,472.03 716.374,465.655 718.309,459.35 720.243,453.116 722.177,446.956 724.112,440.873 726.046,434.869 727.98,428.945 729.915,423.105 731.849,417.351 733.783,411.684 735.718,406.107 737.652,400.622 739.586,395.231 741.521,389.937 743.455,384.74 745.389,379.643 747.324,374.648 749.258,369.757 751.192,364.972 753.126,360.294 755.061,355.726 756.995,351.268 758.929,346.923 760.864,342.692 762.798,338.576 764.732,334.578 766.667,330.699 768.601,326.94 770.535,323.302 772.47,319.787 774.404,316.397 776.338,313.131 778.273,309.993 780.207,306.982 782.141,304.099 784.076,301.347 786.01,298.725 787.944,296.236 789.879,293.878 791.813,291.654 793.747,289.564 795.682,287.609 797.616,285.79 799.55,284.107 801.485,282.56 803.419,281.151 805.353,279.879 807.288,278.745 809.222,277.749 811.156,276.892 813.091,276.174 815.025,275.595 816.959,275.155 818.894,274.854 820.828,274.692 822.762,274.669 824.697,274.785 826.631,275.04 828.565,275.433 830.5,275.964 832.434,276.634 834.368,277.441 836.303,278.385 838.237,279.465 840.171,280.682 842.105,282.034 844.04,283.521 845.974,285.141 847.908,286.895 849.843,288.781 851.777,290.799 853.711,292.947 855.646,295.225 857.58,297.631 859.514,300.165 861.449,302.825 863.383,305.61 865.317,308.519 867.252,311.551 869.186,314.704 871.12,317.976 873.055,321.367 874.989,324.875 876.923,328.498 878.858,332.236 880.792,336.085 882.726,340.045 884.661,344.113 886.595,348.289 888.529,352.569 890.464,356.954 892.398,361.439 894.332,366.025 896.267,370.707 898.201,375.486 900.135,380.358 902.07,385.322 904.004,390.374 905.938,395.515 907.873,400.74 909.807,406.048 911.741,411.436 913.676,416.903 915.61,422.446 917.544,428.062 919.479,433.749 921.413,439.506 923.347,445.328 925.281,451.215 927.216,457.163 929.15,463.17 931.084,469.233 933.019,475.351 934.953,481.519 936.887,487.736 938.822,493.999 940.756,500.306 942.69,506.653 944.625,513.038 946.559,519.459 948.493,525.913 950.428,532.396 952.362,538.907 954.296,545.442 956.231,551.999 958.165,558.574 960.099,565.167 962.034,571.772 963.968,578.388 965.902,585.013 967.837,591.642 969.771,598.274 971.705,604.905 973.64,611.533 975.574,618.155 977.508,624.768 979.443,631.37 981.377,637.957 983.311,644.528 985.246,651.078 987.18,657.606 989.114,664.108 991.049,670.583 992.983,677.026 994.917,683.436 996.852,689.81 998.786,696.145 1000.72,702.439 1002.65,708.688 1004.59,714.89 1006.52,721.043 1008.46,727.144 1010.39,733.19 1012.33,739.179 1014.26,745.108 1016.19,750.975 1018.13,756.778 1020.06,762.513 1022,768.179 1023.93,773.772 1025.87,779.292 1027.8,784.735 1029.74,790.098 1031.67,795.381 1033.6,800.58 1035.54,805.693 1037.47,810.719 1039.41,815.654 1041.34,820.497 1043.28,825.246 1045.21,829.899 1047.14,834.454 1049.08,838.908 1051.01,843.261 1052.95,847.509 1054.88,851.652 1056.82,855.687 1058.75,859.612 1060.68,863.427 1062.62,867.129 1064.55,870.717 1066.49,874.189 1068.42,877.543 1070.36,880.779 1072.29,883.894 1074.22,886.888 1076.16,889.759 1078.09,892.505 1080.03,895.126 1081.96,897.621 1083.9,899.987 1085.83,902.225 1087.76,904.333 1089.7,906.31 1091.63,908.155 1093.57,909.868 1095.5,911.447 1097.44,912.892 1099.37,914.202 1101.31,915.377 1103.24,916.415 1105.17,917.317 1107.11,918.081 1109.04,918.708 1110.98,919.197 1112.91,919.547 1114.85,919.759 1116.78,919.832 1118.71,919.766 1120.65,919.561 1122.58,919.217 1124.52,918.733 1126.45,918.111 1128.39,917.35 1130.32,916.45 1132.25,915.412 1134.19,914.235 1136.12,912.92 1138.06,911.468 1139.99,909.879 1141.93,908.154 1143.86,906.292 1145.79,904.296 1147.73,902.164 1149.66,899.899 1151.6,897.5 1153.53,894.969 1155.47,892.307 1157.4,889.514 1159.33,886.592 1161.27,883.541 1163.2,880.363 1165.14,877.059 1167.07,873.63 1169.01,870.077 1170.94,866.402 1172.88,862.605 1174.81,858.689 1176.74,854.654 1178.68,850.503 1180.61,846.236 1182.55,841.856 1184.48,837.364 1186.42,832.761 1188.35,828.05 1190.28,823.231 1192.22,818.308 1194.15,813.282 1196.09,808.154 1198.02,802.926 1199.96,797.602 1201.89,792.181 1203.82,786.668 1205.76,781.063 1207.69,775.369 1209.63,769.588 1211.56,763.721 1213.5,757.773 1215.43,751.744 1217.36,745.637 1219.3,739.454 1221.23,733.197 1223.17,726.87 1225.1,720.474 1227.04,714.012 1228.97,707.486 1230.9,700.899 1232.84,694.253 1234.77,687.551 1236.71,680.795 1238.64,673.989 1240.58,667.133 1242.51,660.232 1244.45,653.288 1246.38,646.303 1248.31,639.281 1250.25,632.223 1252.18,625.133 1254.12,618.013 1256.05,610.866 1257.99,603.694 1259.92,596.502 1261.85,589.29 1263.79,582.062 1265.72,574.821 1267.66,567.57 1269.59,560.311 1271.53,553.047 1273.46,545.78 1275.39,538.515 1277.33,531.253 1279.26,523.997 1281.2,516.75 1283.13,509.515 1285.07,502.294 1287,495.091 1288.93,487.908 1290.87,480.747 1292.8,473.613 1294.74,466.506 1296.67,459.431 1298.61,452.389 1300.54,445.384 1302.48,438.417 1304.41,431.493 1306.34,424.613 1308.28,417.78 1310.21,410.996 1312.15,404.265 1314.08,397.589 1316.02,390.97 1317.95,384.411 1319.88,377.915 1321.82,371.483 1323.75,365.119 1325.69,358.824 1327.62,352.601 1329.56,346.453 1331.49,340.382 1333.42,334.39 1335.36,328.48 1337.29,322.653 1339.23,316.912 1341.16,311.259 1343.1,305.696 1345.03,300.226 1346.96,294.849 1348.9,289.57 1350.83,284.388 1352.77,279.307 1354.7,274.328 1356.64,269.454 1358.57,264.685 1360.5,260.024 1362.44,255.472 1364.37,251.032 1366.31,246.704 1368.24,242.491 1370.18,238.394 1372.11,234.414 1374.05,230.553 1375.98,226.813 1377.91,223.194 1379.85,219.698 1381.78,216.327 1383.72,213.081 1385.65,209.962 1387.59,206.971 1389.52,204.109 1391.45,201.377 1393.39,198.776 1395.32,196.306 1397.26,193.969 1399.19,191.766 1401.13,189.697 1403.06,187.763 1404.99,185.965 1406.93,184.303 1408.86,182.777 1410.8,181.389 1412.73,180.139 1414.67,179.026 1416.6,178.052 1418.53,177.217 1420.47,176.52 1422.4,175.962 1424.34,175.544 1426.27,175.264 1428.21,175.124 1430.14,175.122 1432.07,175.26 1434.01,175.536 1435.94,175.951 1437.88,176.504 1439.81,177.195 1441.75,178.023 1443.68,178.988 1445.62,180.09 1447.55,181.327 1449.48,182.7 1451.42,184.207 1453.35,185.849 1455.29,187.623 1457.22,189.53 1459.16,191.568 1461.09,193.736 1463.02,196.034 1464.96,198.46 1466.89,201.013 1468.83,203.693 1470.76,206.497 1472.7,209.425 1474.63,212.476 1476.56,215.647 1478.5,218.938 1480.43,222.348 1482.37,225.873 1484.3,229.515 1486.24,233.269 1488.17,237.136 1490.1,241.112 1492.04,245.198 1493.97,249.39 1495.91,253.686 1497.84,258.086 1499.78,262.588 1501.71,267.188 1503.64,271.886 1505.58,276.679 1507.51,281.565 1509.45,286.543 1511.38,291.61 1513.32,296.763 1515.25,302.001 1517.19,307.322 1519.12,312.722 1521.05,318.201 1522.99,323.755 1524.92,329.383 1526.86,335.081 1528.79,340.848 1530.73,346.681 1532.66,352.577 1534.59,358.534 1536.53,364.55 1538.46,370.622 1540.4,376.747 1542.33,382.923 1544.27,389.148 1546.2,395.418 1548.13,401.731 1550.07,408.084 1552,414.475 1553.94,420.901 1555.87,427.359 1557.81,433.847 1559.74,440.362 1561.67,446.9 1563.61,453.46 1565.54,460.039 1567.48,466.633 1569.41,473.241 1571.35,479.859 1573.28,486.484 1575.21,493.114 1577.15,499.745 1579.08,506.376 1581.02,513.004 1582.95,519.625 1584.89,526.236 1586.82,532.836 1588.76,539.421 1590.69,545.988 1592.62,552.535 1594.56,559.059 1596.49,565.558 1598.43,572.028 1600.36,578.466 1602.3,584.871 1604.23,591.239 1606.16,597.567 1608.1,603.854 1610.03,610.096 1611.97,616.291 1613.9,622.436 1615.84,628.528 1617.77,634.566 1619.7,640.546 1621.64,646.466 1623.57,652.323 1625.51,658.115 1627.44,663.84 1629.38,669.494 1631.31,675.077 1633.24,680.585 1635.18,686.015 1637.11,691.367 1639.05,696.636 1640.98,701.822 1642.92,706.922 1644.85,711.934 1646.79,716.855 1648.72,721.684 1650.65,726.418 1652.59,731.056 1654.52,735.595 1656.46,740.034 1658.39,744.37 1660.33,748.602 1662.26,752.728 1664.19,756.747 1666.13,760.655 1668.06,764.453 1670,768.137 1671.93,771.707 1673.87,775.161 1675.8,778.497 1677.73,781.714 1679.67,784.811 1681.6,787.785 1683.54,790.637 1685.47,793.364 1687.41,795.966 1689.34,798.44 1691.27,800.787 1693.21,803.005 1695.14,805.093 1697.08,807.049 1699.01,808.874 1700.95,810.566 1702.88,812.124 1704.81,813.549 1706.75,814.838 1708.68,815.991 1710.62,817.008 1712.55,817.889 1714.49,818.632 1716.42,819.237 1718.36,819.704 1720.29,820.033 1722.22,820.224 1724.16,820.275 1726.09,820.188 1728.03,819.961 1729.96,819.595 1731.9,819.091 1733.83,818.447 1735.76,817.664 1737.7,816.743 1739.63,815.683 1741.57,814.485 1743.5,813.149 1745.44,811.676 1747.37,810.065 1749.3,808.319 1751.24,806.436 1753.17,804.419 1755.11,802.266 1757.04,799.98 1758.98,797.561 1760.91,795.01 1762.84,792.327 1764.78,789.515 1766.71,786.572 1768.65,783.502 1770.58,780.304 1772.52,776.981 1774.45,773.532 1776.38,769.96 1778.32,766.266 1780.25,762.451 1782.19,758.516 1784.12,754.463 1786.06,750.294 1787.99,746.01 1789.93,741.612 1791.86,737.102 1793.79,732.483 1795.73,727.755 1797.66,722.92 1799.6,717.981 1801.53,712.938 1803.47,707.795 1805.4,702.553 1807.33,697.213 1809.27,691.778 1811.2,686.25 1813.14,680.631 1815.07,674.923 1817.01,669.129 1818.94,663.25 1820.87,657.289 1822.81,651.247 1824.74,645.128 1826.68,638.934 1828.61,632.667 1830.55,626.328 1832.48,619.922 1834.41,613.45 1836.35,606.914 1838.28,600.318 1840.22,593.663 1842.15,586.953 1844.09,580.189 1846.02,573.374 1847.95,566.512 1849.89,559.604 1851.82,552.653 1853.76,545.663 1855.69,538.634 1857.63,531.572 1859.56,524.476 1861.5,517.352 1863.43,510.201 1865.36,503.026 1867.3,495.83 1869.23,488.616 1871.17,481.386 1873.1,474.143 1875.04,466.891 1876.97,459.63 1878.9,452.366 1880.84,445.1 1882.77,437.834 1884.71,430.573 1886.64,423.318 1888.58,416.073 1890.51,408.84 1892.44,401.622 1894.38,394.422 1896.31,387.242 1898.25,380.085 1900.18,372.954 1902.12,365.853 1904.05,358.782 1905.98,351.746 1907.92,344.746 1909.85,337.786 1911.79,330.869 1913.72,323.996 1915.66,317.17 1917.59,310.395 1919.52,303.672 1921.46,297.005 1923.39,290.395 1925.33,283.845 1927.26,277.359 1929.2,270.937 1931.13,264.583 1933.07,258.3 1935,252.089 1936.93,245.952 1938.87,239.893 1940.8,233.914 1942.74,228.016 1944.67,222.202 1946.61,216.475 1948.54,210.836 1950.47,205.287 1952.41,199.831 1954.34,194.47 1956.28,189.205 1958.21,184.039 1960.15,178.974 1962.08,174.011 1964.01,169.153 1965.95,164.4 1967.88,159.756 1969.82,155.222 1971.75,150.799 1973.69,146.489 1975.62,142.293 1977.55,138.214 1979.49,134.253 1981.42,130.41 1983.36,126.689 1985.29,123.089 1987.23,119.613 1989.16,116.261 1991.1,113.035 1993.03,109.935 1994.96,106.964 1996.9,104.122 1998.83,101.41 2000.77,98.8291 2002.7,96.3801 2004.64,94.064 2006.57,91.8815 2008.5,89.8334 2010.44,87.9204 2012.37,86.1431 2014.31,84.5021 2016.24,82.9979 2018.18,81.631 2020.11,80.4019 2022.04,79.3108 2023.98,78.3581 2025.91,77.5441 2027.85,76.869 2029.78,76.3328 2031.72,75.9357 2033.65,75.6778 2035.58,75.5589 2037.52,75.5791 2039.45,75.7381 2041.39,76.0359 2043.32,76.472 2045.26,77.0463 2047.19,77.7584 2049.12,78.6079 2051.06,79.5943 2052.99,80.717 2054.93,81.9756 2056.86,83.3693 2058.8,84.8975 2060.73,86.5594 2062.67,88.3543 2064.6,90.2814 2066.53,92.3396 2068.47,94.5281 2070.4,96.8458 2072.34,99.2917 2074.27,101.865 2076.21,104.564 2078.14,107.387 2080.07,110.334 2082.01,113.404 2083.94,116.594 2085.88,119.903 2087.81,123.331 2089.75,126.874 2091.68,130.533 2093.61,134.305 2095.55,138.189 2097.48,142.183 2099.42,146.284 2101.35,150.493 2103.29,154.806 2105.22,159.222 2107.15,163.738 2109.09,168.354 2111.02,173.067 2112.96,177.874 2114.89,182.775 2116.83,187.766 2118.76,192.847 2120.69,198.013 2122.63,203.264 2124.56,208.597 2126.5,214.01 2128.43,219.501 2130.37,225.067 2132.3,230.705 2134.24,236.414 2136.17,242.192 2138.1,248.034 2140.04,253.94 2141.97,259.907 2143.91,265.932 2145.84,272.012 2147.78,278.145 2149.71,284.329 2151.64,290.561 2153.58,296.838 2155.51,303.157 2157.45,309.516 2159.38,315.913 2161.32,322.344 2163.25,328.807 2165.18,335.299 2167.12,341.818 2169.05,348.36 2170.99,354.923 2172.92,361.504 2174.86,368.101 2176.79,374.71 2178.72,381.329 2180.66,387.955 2182.59,394.585 2184.53,401.217 2186.46,407.848 2188.4,414.474 2190.33,421.094 2192.26,427.704 2194.2,434.302 2196.13,440.884 2198.07,447.448 2200,453.992 2201.94,460.512 2203.87,467.006 2205.81,473.472 2207.74,479.905 2209.67,486.304 2211.61,492.666 2213.54,498.989 2215.48,505.268 2217.41,511.503 2219.35,517.691 2221.28,523.828 2223.21,529.912 2225.15,535.941 2227.08,541.911 2229.02,547.822 2230.95,553.669 2232.89,559.451 2234.82,565.165 2236.75,570.808 2238.69,576.379 2240.62,581.875 2242.56,587.294 2244.49,592.633 2246.43,597.89 2248.36,603.062 2250.29,608.149 2252.23,613.146 2254.16,618.053 2256.1,622.868 2258.03,627.587 2259.97,632.21 2261.9,636.734 2263.83,641.157 2265.77,645.477 2267.7,649.693 2269.64,653.802 2271.57,657.804 2273.51,661.695 2275.44,665.475 2277.38,669.142 2279.31,672.694 2281.24,676.13 2283.18,679.448 2285.11,682.646 2287.05,685.724 2288.98,688.68 2290.92,691.512 2292.85,694.22 2294.78,696.802 "></polyline>
<path clip-path="url(#clip230)" d="M1851.66 1014.35 L2284.48 1014.35 L2284.48 858.831 L1851.66 858.831  Z" fill="#ffffff" fill-rule="evenodd" fill-opacity="1"></path>
<polyline clip-path="url(#clip230)" style="stroke:#000000; stroke-linecap:round; stroke-linejoin:round; stroke-width:4; stroke-opacity:1; fill:none" points="1851.66,1014.35 2284.48,1014.35 2284.48,858.831 1851.66,858.831 1851.66,1014.35 "></polyline>
<polyline clip-path="url(#clip230)" style="stroke:#009af9; stroke-linecap:round; stroke-linejoin:round; stroke-width:8; stroke-opacity:1; fill:none" points="1874.42,910.671 2010.97,910.671 "></polyline>
<path clip-path="url(#clip230)" d="M2049.57 897.998 L2043.22 915.197 L2055.93 915.197 L2049.57 897.998 M2046.93 893.391 L2052.23 893.391 L2065.4 927.951 L2060.54 927.951 L2057.39 919.086 L2041.81 919.086 L2038.66 927.951 L2033.73 927.951 L2046.93 893.391 Z" fill="#000000" fill-rule="nonzero" fill-opacity="1"></path><path clip-path="url(#clip230)" d="M2091.81 912.303 L2091.81 927.951 L2087.55 927.951 L2087.55 912.442 Q2087.55 908.762 2086.12 906.933 Q2084.68 905.104 2081.81 905.104 Q2078.36 905.104 2076.37 907.303 Q2074.38 909.502 2074.38 913.299 L2074.38 927.951 L2070.1 927.951 L2070.1 902.026 L2074.38 902.026 L2074.38 906.053 Q2075.91 903.715 2077.97 902.558 Q2080.05 901.401 2082.76 901.401 Q2087.23 901.401 2089.52 904.178 Q2091.81 906.933 2091.81 912.303 Z" fill="#000000" fill-rule="nonzero" fill-opacity="1"></path><path clip-path="url(#clip230)" d="M2112.09 914.919 Q2106.93 914.919 2104.94 916.1 Q2102.95 917.28 2102.95 920.127 Q2102.95 922.396 2104.43 923.738 Q2105.93 925.058 2108.5 925.058 Q2112.04 925.058 2114.17 922.558 Q2116.33 920.035 2116.33 915.868 L2116.33 914.919 L2112.09 914.919 M2120.59 913.16 L2120.59 927.951 L2116.33 927.951 L2116.33 924.016 Q2114.87 926.377 2112.69 927.512 Q2110.52 928.623 2107.37 928.623 Q2103.39 928.623 2101.03 926.4 Q2098.69 924.155 2098.69 920.405 Q2098.69 916.03 2101.6 913.808 Q2104.54 911.586 2110.35 911.586 L2116.33 911.586 L2116.33 911.169 Q2116.33 908.229 2114.38 906.632 Q2112.46 905.012 2108.96 905.012 Q2106.74 905.012 2104.64 905.544 Q2102.53 906.076 2100.59 907.141 L2100.59 903.206 Q2102.92 902.303 2105.12 901.863 Q2107.32 901.401 2109.4 901.401 Q2115.03 901.401 2117.81 904.317 Q2120.59 907.234 2120.59 913.16 Z" fill="#000000" fill-rule="nonzero" fill-opacity="1"></path><path clip-path="url(#clip230)" d="M2129.36 891.933 L2133.62 891.933 L2133.62 927.951 L2129.36 927.951 L2129.36 891.933 Z" fill="#000000" fill-rule="nonzero" fill-opacity="1"></path><path clip-path="url(#clip230)" d="M2153.32 930.359 Q2151.51 934.988 2149.8 936.4 Q2148.09 937.812 2145.21 937.812 L2141.81 937.812 L2141.81 934.248 L2144.31 934.248 Q2146.07 934.248 2147.04 933.414 Q2148.02 932.581 2149.2 929.479 L2149.96 927.535 L2139.47 902.026 L2143.99 902.026 L2152.09 922.303 L2160.19 902.026 L2164.71 902.026 L2153.32 930.359 Z" fill="#000000" fill-rule="nonzero" fill-opacity="1"></path><path clip-path="url(#clip230)" d="M2174.8 894.664 L2174.8 902.026 L2183.57 902.026 L2183.57 905.336 L2174.8 905.336 L2174.8 919.41 Q2174.8 922.581 2175.65 923.484 Q2176.53 924.387 2179.2 924.387 L2183.57 924.387 L2183.57 927.951 L2179.2 927.951 Q2174.27 927.951 2172.39 926.123 Q2170.52 924.271 2170.52 919.41 L2170.52 905.336 L2167.39 905.336 L2167.39 902.026 L2170.52 902.026 L2170.52 894.664 L2174.8 894.664 Z" fill="#000000" fill-rule="nonzero" fill-opacity="1"></path><path clip-path="url(#clip230)" d="M2189.17 902.026 L2193.43 902.026 L2193.43 927.951 L2189.17 927.951 L2189.17 902.026 M2189.17 891.933 L2193.43 891.933 L2193.43 897.326 L2189.17 897.326 L2189.17 891.933 Z" fill="#000000" fill-rule="nonzero" fill-opacity="1"></path><path clip-path="url(#clip230)" d="M2221 903.021 L2221 907.002 Q2219.2 906.007 2217.37 905.521 Q2215.56 905.012 2213.71 905.012 Q2209.57 905.012 2207.27 907.651 Q2204.98 910.266 2204.98 915.012 Q2204.98 919.757 2207.27 922.396 Q2209.57 925.012 2213.71 925.012 Q2215.56 925.012 2217.37 924.525 Q2219.2 924.016 2221 923.021 L2221 926.956 Q2219.22 927.789 2217.3 928.206 Q2215.4 928.623 2213.25 928.623 Q2207.39 928.623 2203.94 924.942 Q2200.49 921.262 2200.49 915.012 Q2200.49 908.669 2203.96 905.035 Q2207.46 901.401 2213.52 901.401 Q2215.49 901.401 2217.37 901.817 Q2219.24 902.211 2221 903.021 Z" fill="#000000" fill-rule="nonzero" fill-opacity="1"></path><path clip-path="url(#clip230)" d="M2240.19 914.919 Q2235.03 914.919 2233.04 916.1 Q2231.05 917.28 2231.05 920.127 Q2231.05 922.396 2232.53 923.738 Q2234.03 925.058 2236.6 925.058 Q2240.14 925.058 2242.27 922.558 Q2244.43 920.035 2244.43 915.868 L2244.43 914.919 L2240.19 914.919 M2248.69 913.16 L2248.69 927.951 L2244.43 927.951 L2244.43 924.016 Q2242.97 926.377 2240.79 927.512 Q2238.62 928.623 2235.47 928.623 Q2231.49 928.623 2229.13 926.4 Q2226.79 924.155 2226.79 920.405 Q2226.79 916.03 2229.71 913.808 Q2232.64 911.586 2238.46 911.586 L2244.43 911.586 L2244.43 911.169 Q2244.43 908.229 2242.48 906.632 Q2240.56 905.012 2237.07 905.012 Q2234.84 905.012 2232.74 905.544 Q2230.63 906.076 2228.69 907.141 L2228.69 903.206 Q2231.02 902.303 2233.22 901.863 Q2235.42 901.401 2237.51 901.401 Q2243.13 901.401 2245.91 904.317 Q2248.69 907.234 2248.69 913.16 Z" fill="#000000" fill-rule="nonzero" fill-opacity="1"></path><path clip-path="url(#clip230)" d="M2257.46 891.933 L2261.72 891.933 L2261.72 927.951 L2257.46 927.951 L2257.46 891.933 Z" fill="#000000" fill-rule="nonzero" fill-opacity="1"></path><polyline clip-path="url(#clip230)" style="stroke:#e26f46; stroke-linecap:round; stroke-linejoin:round; stroke-width:4; stroke-opacity:1; fill:none" stroke-dasharray="16, 8, 2, 8" points="1874.42,962.511 2010.97,962.511 "></polyline>
<path clip-path="url(#clip230)" d="M2033.73 945.231 L2055.59 945.231 L2055.59 949.166 L2038.41 949.166 L2038.41 959.398 L2054.87 959.398 L2054.87 963.333 L2038.41 963.333 L2038.41 975.856 L2056 975.856 L2056 979.791 L2033.73 979.791 L2033.73 945.231 Z" fill="#000000" fill-rule="nonzero" fill-opacity="1"></path><path clip-path="url(#clip230)" d="M2063.69 945.231 L2068.36 945.231 L2068.36 975.856 L2085.19 975.856 L2085.19 979.791 L2063.69 979.791 L2063.69 945.231 Z" fill="#000000" fill-rule="nonzero" fill-opacity="1"></path><path clip-path="url(#clip230)" d="M2090.1 945.231 L2097.07 945.231 L2105.89 968.75 L2114.75 945.231 L2121.72 945.231 L2121.72 979.791 L2117.16 979.791 L2117.16 949.444 L2108.25 973.148 L2103.55 973.148 L2094.64 949.444 L2094.64 979.791 L2090.1 979.791 L2090.1 945.231 Z" fill="#000000" fill-rule="nonzero" fill-opacity="1"></path></svg>