<svg xmlns="http://www.w3.org/2000/svg" xmlns:xlink="http://www.w3.org/1999/xlink" width="600" height="400" viewBox="0 0 2400 1600">
<defs>
  <clipPath id="clip250">
    <rect x="0" y="0" width="2400" height="1600"></rect>
  </clipPath>
</defs>
<path clip-path="url(#clip250)" d="M0 1600 L2400 1600 L2400 0 L0 0  Z" fill="#ffffff" fill-rule="evenodd" fill-opacity="1"></path>
<defs>
  <clipPath id="clip251">
    <rect x="480" y="0" width="1681" height="1600"></rect>
  </clipPath>
</defs>
<path clip-path="url(#clip250)" d="M316.301 1423.18 L2352.76 1423.18 L2352.76 47.2441 L316.301 47.2441  Z" fill="#ffffff" fill-rule="evenodd" fill-opacity="1"></path>
<defs>
  <clipPath id="clip252">
    <rect x="316" y="47" width="2037" height="1377"></rect>
  </clipPath>
</defs>
<polyline clip-path="url(#clip252)" style="stroke:#000000; stroke-linecap:round; stroke-linejoin:round; stroke-width:2; stroke-opacity:0.1; fill:none" points="373.936,1423.18 373.936,47.2441 "></polyline>
<polyline clip-path="url(#clip252)" style="stroke:#000000; stroke-linecap:round; stroke-linejoin:round; stroke-width:2; stroke-opacity:0.1; fill:none" points="854.232,1423.18 854.232,47.2441 "></polyline>
<polyline clip-path="url(#clip252)" style="stroke:#000000; stroke-linecap:round; stroke-linejoin:round; stroke-width:2; stroke-opacity:0.1; fill:none" points="1334.53,1423.18 1334.53,47.2441 "></polyline>
<polyline clip-path="url(#clip252)" style="stroke:#000000; stroke-linecap:round; stroke-linejoin:round; stroke-width:2; stroke-opacity:0.1; fill:none" points="1814.82,1423.18 1814.82,47.2441 "></polyline>
<polyline clip-path="url(#clip252)" style="stroke:#000000; stroke-linecap:round; stroke-linejoin:round; stroke-width:2; stroke-opacity:0.1; fill:none" points="2295.12,1423.18 2295.12,47.2441 "></polyline>
<polyline clip-path="url(#clip252)" style="stroke:#000000; stroke-linecap:round; stroke-linejoin:round; stroke-width:2; stroke-opacity:0.1; fill:none" points="316.301,1313.69 2352.76,1313.69 "></polyline>
<polyline clip-path="url(#clip252)" style="stroke:#000000; stroke-linecap:round; stroke-linejoin:round; stroke-width:2; stroke-opacity:0.1; fill:none" points="316.301,1124.41 2352.76,1124.41 "></polyline>
<polyline clip-path="url(#clip252)" style="stroke:#000000; stroke-linecap:round; stroke-linejoin:round; stroke-width:2; stroke-opacity:0.1; fill:none" points="316.301,935.137 2352.76,935.137 "></polyline>
<polyline clip-path="url(#clip252)" style="stroke:#000000; stroke-linecap:round; stroke-linejoin:round; stroke-width:2; stroke-opacity:0.1; fill:none" points="316.301,745.862 2352.76,745.862 "></polyline>
<polyline clip-path="url(#clip252)" style="stroke:#000000; stroke-linecap:round; stroke-linejoin:round; stroke-width:2; stroke-opacity:0.1; fill:none" points="316.301,556.586 2352.76,556.586 "></polyline>
<polyline clip-path="url(#clip252)" style="stroke:#000000; stroke-linecap:round; stroke-linejoin:round; stroke-width:2; stroke-opacity:0.1; fill:none" points="316.301,367.311 2352.76,367.311 "></polyline>
<polyline clip-path="url(#clip252)" style="stroke:#000000; stroke-linecap:round; stroke-linejoin:round; stroke-width:2; stroke-opacity:0.1; fill:none" points="316.301,178.036 2352.76,178.036 "></polyline>
<polyline clip-path="url(#clip250)" style="stroke:#000000; stroke-linecap:round; stroke-linejoin:round; stroke-width:4; stroke-opacity:1; fill:none" points="316.301,1423.18 2352.76,1423.18 "></polyline>
<polyline clip-path="url(#clip250)" style="stroke:#000000; stroke-linecap:round; stroke-linejoin:round; stroke-width:4; stroke-opacity:1; fill:none" points="373.936,1423.18 373.936,1404.28 "></polyline>
<polyline clip-path="url(#clip250)" style="stroke:#000000; stroke-linecap:round; stroke-linejoin:round; stroke-width:4; stroke-opacity:1; fill:none" points="854.232,1423.18 854.232,1404.28 "></polyline>
<polyline clip-path="url(#clip250)" style="stroke:#000000; stroke-linecap:round; stroke-linejoin:round; stroke-width:4; stroke-opacity:1; fill:none" points="1334.53,1423.18 1334.53,1404.28 "></polyline>
<polyline clip-path="url(#clip250)" style="stroke:#000000; stroke-linecap:round; stroke-linejoin:round; stroke-width:4; stroke-opacity:1; fill:none" points="1814.82,1423.18 1814.82,1404.28 "></polyline>
<polyline clip-path="url(#clip250)" style="stroke:#000000; stroke-linecap:round; stroke-linejoin:round; stroke-width:4; stroke-opacity:1; fill:none" points="2295.12,1423.18 2295.12,1404.28 "></polyline>
<path clip-path="url(#clip250)" d="M336.24 1454.1 Q332.629 1454.1 330.8 1457.66 Q328.995 1461.2 328.995 1468.33 Q328.995 1475.44 330.8 1479.01 Q332.629 1482.55 336.24 1482.55 Q339.874 1482.55 341.68 1479.01 Q343.508 1475.44 343.508 1468.33 Q343.508 1461.2 341.68 1457.66 Q339.874 1454.1 336.24 1454.1 M336.24 1450.39 Q342.05 1450.39 345.106 1455 Q348.184 1459.58 348.184 1468.33 Q348.184 1477.06 345.106 1481.67 Q342.05 1486.25 336.24 1486.25 Q330.43 1486.25 327.351 1481.67 Q324.296 1477.06 324.296 1468.33 Q324.296 1459.58 327.351 1455 Q330.43 1450.39 336.24 1450.39 Z" fill="#000000" fill-rule="nonzero" fill-opacity="1"></path><path clip-path="url(#clip250)" d="M356.402 1479.7 L361.286 1479.7 L361.286 1485.58 L356.402 1485.58 L356.402 1479.7 Z" fill="#000000" fill-rule="nonzero" fill-opacity="1"></path><path clip-path="url(#clip250)" d="M381.471 1454.1 Q377.86 1454.1 376.031 1457.66 Q374.226 1461.2 374.226 1468.33 Q374.226 1475.44 376.031 1479.01 Q377.86 1482.55 381.471 1482.55 Q385.105 1482.55 386.911 1479.01 Q388.74 1475.44 388.74 1468.33 Q388.74 1461.2 386.911 1457.66 Q385.105 1454.1 381.471 1454.1 M381.471 1450.39 Q387.281 1450.39 390.337 1455 Q393.416 1459.58 393.416 1468.33 Q393.416 1477.06 390.337 1481.67 Q387.281 1486.25 381.471 1486.25 Q375.661 1486.25 372.582 1481.67 Q369.527 1477.06 369.527 1468.33 Q369.527 1459.58 372.582 1455 Q375.661 1450.39 381.471 1450.39 Z" fill="#000000" fill-rule="nonzero" fill-opacity="1"></path><path clip-path="url(#clip250)" d="M411.633 1454.1 Q408.022 1454.1 406.193 1457.66 Q404.388 1461.2 404.388 1468.33 Q404.388 1475.44 406.193 1479.01 Q408.022 1482.55 411.633 1482.55 Q415.267 1482.55 417.073 1479.01 Q418.901 1475.44 418.901 1468.33 Q418.901 1461.2 417.073 1457.66 Q415.267 1454.1 411.633 1454.1 M411.633 1450.39 Q417.443 1450.39 420.499 1455 Q423.577 1459.58 423.577 1468.33 Q423.577 1477.06 420.499 1481.67 Q417.443 1486.25 411.633 1486.25 Q405.823 1486.25 402.744 1481.67 Q399.689 1477.06 399.689 1468.33 Q399.689 1459.58 402.744 1455 Q405.823 1450.39 411.633 1450.39 Z" fill="#000000" fill-rule="nonzero" fill-opacity="1"></path><path clip-path="url(#clip250)" d="M817.034 1454.1 Q813.422 1454.1 811.594 1457.66 Q809.788 1461.2 809.788 1468.33 Q809.788 1475.44 811.594 1479.01 Q813.422 1482.55 817.034 1482.55 Q820.668 1482.55 822.473 1479.01 Q824.302 1475.44 824.302 1468.33 Q824.302 1461.2 822.473 1457.66 Q820.668 1454.1 817.034 1454.1 M817.034 1450.39 Q822.844 1450.39 825.899 1455 Q828.978 1459.58 828.978 1468.33 Q828.978 1477.06 825.899 1481.67 Q822.844 1486.25 817.034 1486.25 Q811.223 1486.25 808.145 1481.67 Q805.089 1477.06 805.089 1468.33 Q805.089 1459.58 808.145 1455 Q811.223 1450.39 817.034 1450.39 Z" fill="#000000" fill-rule="nonzero" fill-opacity="1"></path><path clip-path="url(#clip250)" d="M837.195 1479.7 L842.08 1479.7 L842.08 1485.58 L837.195 1485.58 L837.195 1479.7 Z" fill="#000000" fill-rule="nonzero" fill-opacity="1"></path><path clip-path="url(#clip250)" d="M856.293 1481.64 L872.612 1481.64 L872.612 1485.58 L850.668 1485.58 L850.668 1481.64 Q853.33 1478.89 857.913 1474.26 Q862.519 1469.61 863.7 1468.27 Q865.945 1465.74 866.825 1464.01 Q867.728 1462.25 867.728 1460.56 Q867.728 1457.8 865.783 1456.07 Q863.862 1454.33 860.76 1454.33 Q858.561 1454.33 856.107 1455.09 Q853.677 1455.86 850.899 1457.41 L850.899 1452.69 Q853.723 1451.55 856.177 1450.97 Q858.631 1450.39 860.668 1450.39 Q866.038 1450.39 869.232 1453.08 Q872.427 1455.77 872.427 1460.26 Q872.427 1462.39 871.617 1464.31 Q870.83 1466.2 868.723 1468.8 Q868.144 1469.47 865.043 1472.69 Q861.941 1475.88 856.293 1481.64 Z" fill="#000000" fill-rule="nonzero" fill-opacity="1"></path><path clip-path="url(#clip250)" d="M882.473 1451.02 L900.829 1451.02 L900.829 1454.96 L886.755 1454.96 L886.755 1463.43 Q887.774 1463.08 888.792 1462.92 Q889.811 1462.73 890.829 1462.73 Q896.616 1462.73 899.996 1465.9 Q903.376 1469.08 903.376 1474.49 Q903.376 1480.07 899.903 1483.17 Q896.431 1486.25 890.112 1486.25 Q887.936 1486.25 885.667 1485.88 Q883.422 1485.51 881.015 1484.77 L881.015 1480.07 Q883.098 1481.2 885.32 1481.76 Q887.542 1482.32 890.019 1482.32 Q894.024 1482.32 896.362 1480.21 Q898.7 1478.1 898.7 1474.49 Q898.7 1470.88 896.362 1468.77 Q894.024 1466.67 890.019 1466.67 Q888.144 1466.67 886.269 1467.08 Q884.417 1467.5 882.473 1468.38 L882.473 1451.02 Z" fill="#000000" fill-rule="nonzero" fill-opacity="1"></path><path clip-path="url(#clip250)" d="M1296.83 1454.1 Q1293.22 1454.1 1291.39 1457.66 Q1289.59 1461.2 1289.59 1468.33 Q1289.59 1475.44 1291.39 1479.01 Q1293.22 1482.55 1296.83 1482.55 Q1300.47 1482.55 1302.27 1479.01 Q1304.1 1475.44 1304.1 1468.33 Q1304.1 1461.2 1302.27 1457.66 Q1300.47 1454.1 1296.83 1454.1 M1296.83 1450.39 Q1302.64 1450.39 1305.7 1455 Q1308.78 1459.58 1308.78 1468.33 Q1308.78 1477.06 1305.7 1481.67 Q1302.64 1486.25 1296.83 1486.25 Q1291.02 1486.25 1287.94 1481.67 Q1284.89 1477.06 1284.89 1468.33 Q1284.89 1459.58 1287.94 1455 Q1291.02 1450.39 1296.83 1450.39 Z" fill="#000000" fill-rule="nonzero" fill-opacity="1"></path><path clip-path="url(#clip250)" d="M1316.99 1479.7 L1321.88 1479.7 L1321.88 1485.58 L1316.99 1485.58 L1316.99 1479.7 Z" fill="#000000" fill-rule="nonzero" fill-opacity="1"></path><path clip-path="url(#clip250)" d="M1332.11 1451.02 L1350.47 1451.02 L1350.47 1454.96 L1336.39 1454.96 L1336.39 1463.43 Q1337.41 1463.08 1338.43 1462.92 Q1339.45 1462.73 1340.47 1462.73 Q1346.25 1462.73 1349.63 1465.9 Q1353.01 1469.08 1353.01 1474.49 Q1353.01 1480.07 1349.54 1483.17 Q1346.07 1486.25 1339.75 1486.25 Q1337.57 1486.25 1335.3 1485.88 Q1333.06 1485.51 1330.65 1484.77 L1330.65 1480.07 Q1332.73 1481.2 1334.96 1481.76 Q1337.18 1482.32 1339.66 1482.32 Q1343.66 1482.32 1346 1480.21 Q1348.34 1478.1 1348.34 1474.49 Q1348.34 1470.88 1346 1468.77 Q1343.66 1466.67 1339.66 1466.67 Q1337.78 1466.67 1335.91 1467.08 Q1334.05 1467.5 1332.11 1468.38 L1332.11 1451.02 Z" fill="#000000" fill-rule="nonzero" fill-opacity="1"></path><path clip-path="url(#clip250)" d="M1372.22 1454.1 Q1368.61 1454.1 1366.79 1457.66 Q1364.98 1461.2 1364.98 1468.33 Q1364.98 1475.44 1366.79 1479.01 Q1368.61 1482.55 1372.22 1482.55 Q1375.86 1482.55 1377.66 1479.01 Q1379.49 1475.44 1379.49 1468.33 Q1379.49 1461.2 1377.66 1457.66 Q1375.86 1454.1 1372.22 1454.1 M1372.22 1450.39 Q1378.04 1450.39 1381.09 1455 Q1384.17 1459.58 1384.17 1468.33 Q1384.17 1477.06 1381.09 1481.67 Q1378.04 1486.25 1372.22 1486.25 Q1366.41 1486.25 1363.34 1481.67 Q1360.28 1477.06 1360.28 1468.33 Q1360.28 1459.58 1363.34 1455 Q1366.41 1450.39 1372.22 1450.39 Z" fill="#000000" fill-rule="nonzero" fill-opacity="1"></path><path clip-path="url(#clip250)" d="M1777.63 1454.1 Q1774.01 1454.1 1772.19 1457.66 Q1770.38 1461.2 1770.38 1468.33 Q1770.38 1475.44 1772.19 1479.01 Q1774.01 1482.55 1777.63 1482.55 Q1781.26 1482.55 1783.07 1479.01 Q1784.89 1475.44 1784.89 1468.33 Q1784.89 1461.2 1783.07 1457.66 Q1781.26 1454.1 1777.63 1454.1 M1777.63 1450.39 Q1783.44 1450.39 1786.49 1455 Q1789.57 1459.58 1789.57 1468.33 Q1789.57 1477.06 1786.49 1481.67 Q1783.44 1486.25 1777.63 1486.25 Q1771.82 1486.25 1768.74 1481.67 Q1765.68 1477.06 1765.68 1468.33 Q1765.68 1459.58 1768.74 1455 Q1771.82 1450.39 1777.63 1450.39 Z" fill="#000000" fill-rule="nonzero" fill-opacity="1"></path><path clip-path="url(#clip250)" d="M1797.79 1479.7 L1802.67 1479.7 L1802.67 1485.58 L1797.79 1485.58 L1797.79 1479.7 Z" fill="#000000" fill-rule="nonzero" fill-opacity="1"></path><path clip-path="url(#clip250)" d="M1811.68 1451.02 L1833.9 1451.02 L1833.9 1453.01 L1821.35 1485.58 L1816.47 1485.58 L1828.27 1454.96 L1811.68 1454.96 L1811.68 1451.02 Z" fill="#000000" fill-rule="nonzero" fill-opacity="1"></path><path clip-path="url(#clip250)" d="M1843.06 1451.02 L1861.42 1451.02 L1861.42 1454.96 L1847.35 1454.96 L1847.35 1463.43 Q1848.37 1463.08 1849.38 1462.92 Q1850.4 1462.73 1851.42 1462.73 Q1857.21 1462.73 1860.59 1465.9 Q1863.97 1469.08 1863.97 1474.49 Q1863.97 1480.07 1860.5 1483.17 Q1857.02 1486.25 1850.7 1486.25 Q1848.53 1486.25 1846.26 1485.88 Q1844.01 1485.51 1841.61 1484.77 L1841.61 1480.07 Q1843.69 1481.2 1845.91 1481.76 Q1848.13 1482.32 1850.61 1482.32 Q1854.62 1482.32 1856.95 1480.21 Q1859.29 1478.1 1859.29 1474.49 Q1859.29 1470.88 1856.95 1468.77 Q1854.62 1466.67 1850.61 1466.67 Q1848.74 1466.67 1846.86 1467.08 Q1845.01 1467.5 1843.06 1468.38 L1843.06 1451.02 Z" fill="#000000" fill-rule="nonzero" fill-opacity="1"></path><path clip-path="url(#clip250)" d="M2247.19 1481.64 L2254.83 1481.64 L2254.83 1455.28 L2246.52 1456.95 L2246.52 1452.69 L2254.78 1451.02 L2259.46 1451.02 L2259.46 1481.64 L2267.1 1481.64 L2267.1 1485.58 L2247.19 1485.58 L2247.19 1481.64 Z" fill="#000000" fill-rule="nonzero" fill-opacity="1"></path><path clip-path="url(#clip250)" d="M2276.54 1479.7 L2281.43 1479.7 L2281.43 1485.58 L2276.54 1485.58 L2276.54 1479.7 Z" fill="#000000" fill-rule="nonzero" fill-opacity="1"></path><path clip-path="url(#clip250)" d="M2301.61 1454.1 Q2298 1454.1 2296.17 1457.66 Q2294.37 1461.2 2294.37 1468.33 Q2294.37 1475.44 2296.17 1479.01 Q2298 1482.55 2301.61 1482.55 Q2305.25 1482.55 2307.05 1479.01 Q2308.88 1475.44 2308.88 1468.33 Q2308.88 1461.2 2307.05 1457.66 Q2305.25 1454.1 2301.61 1454.1 M2301.61 1450.39 Q2307.42 1450.39 2310.48 1455 Q2313.56 1459.58 2313.56 1468.33 Q2313.56 1477.06 2310.48 1481.67 Q2307.42 1486.25 2301.61 1486.25 Q2295.8 1486.25 2292.72 1481.67 Q2289.67 1477.06 2289.67 1468.33 Q2289.67 1459.58 2292.72 1455 Q2295.8 1450.39 2301.61 1450.39 Z" fill="#000000" fill-rule="nonzero" fill-opacity="1"></path><path clip-path="url(#clip250)" d="M2331.78 1454.1 Q2328.16 1454.1 2326.34 1457.66 Q2324.53 1461.2 2324.53 1468.33 Q2324.53 1475.44 2326.34 1479.01 Q2328.16 1482.55 2331.78 1482.55 Q2335.41 1482.55 2337.22 1479.01 Q2339.04 1475.44 2339.04 1468.33 Q2339.04 1461.2 2337.22 1457.66 Q2335.41 1454.1 2331.78 1454.1 M2331.78 1450.39 Q2337.59 1450.39 2340.64 1455 Q2343.72 1459.58 2343.72 1468.33 Q2343.72 1477.06 2340.64 1481.67 Q2337.59 1486.25 2331.78 1486.25 Q2325.97 1486.25 2322.89 1481.67 Q2319.83 1477.06 2319.83 1468.33 Q2319.83 1459.58 2322.89 1455 Q2325.97 1450.39 2331.78 1450.39 Z" fill="#000000" fill-rule="nonzero" fill-opacity="1"></path><path clip-path="url(#clip250)" d="M1351.14 1532.4 L1338.25 1549.74 L1351.81 1568.04 L1344.9 1568.04 L1334.53 1554.04 L1324.15 1568.04 L1317.25 1568.04 L1331.09 1549.39 L1318.42 1532.4 L1325.33 1532.4 L1334.78 1545.1 L1344.24 1532.4 L1351.14 1532.4 Z" fill="#000000" fill-rule="nonzero" fill-opacity="1"></path><polyline clip-path="url(#clip250)" style="stroke:#000000; stroke-linecap:round; stroke-linejoin:round; stroke-width:4; stroke-opacity:1; fill:none" points="316.301,1423.18 316.301,47.2441 "></polyline>
<polyline clip-path="url(#clip250)" style="stroke:#000000; stroke-linecap:round; stroke-linejoin:round; stroke-width:4; stroke-opacity:1; fill:none" points="316.301,1313.69 335.199,1313.69 "></polyline>
<polyline clip-path="url(#clip250)" style="stroke:#000000; stroke-linecap:round; stroke-linejoin:round; stroke-width:4; stroke-opacity:1; fill:none" points="316.301,1124.41 335.199,1124.41 "></polyline>
<polyline clip-path="url(#clip250)" style="stroke:#000000; stroke-linecap:round; stroke-linejoin:round; stroke-width:4; stroke-opacity:1; fill:none" points="316.301,935.137 335.199,935.137 "></polyline>
<polyline clip-path="url(#clip250)" style="stroke:#000000; stroke-linecap:round; stroke-linejoin:round; stroke-width:4; stroke-opacity:1; fill:none" points="316.301,745.862 335.199,745.862 "></polyline>
<polyline clip-path="url(#clip250)" style="stroke:#000000; stroke-linecap:round; stroke-linejoin:round; stroke-width:4; stroke-opacity:1; fill:none" points="316.301,556.586 335.199,556.586 "></polyline>
<polyline clip-path="url(#clip250)" style="stroke:#000000; stroke-linecap:round; stroke-linejoin:round; stroke-width:4; stroke-opacity:1; fill:none" points="316.301,367.311 335.199,367.311 "></polyline>
<polyline clip-path="url(#clip250)" style="stroke:#000000; stroke-linecap:round; stroke-linejoin:round; stroke-width:4; stroke-opacity:1; fill:none" points="316.301,178.036 335.199,178.036 "></polyline>
<path clip-path="url(#clip250)" d="M114.631 1314.14 L144.306 1314.14 L144.306 1318.07 L114.631 1318.07 L114.631 1314.14 Z" fill="#000000" fill-rule="nonzero" fill-opacity="1"></path><path clip-path="url(#clip250)" d="M164.399 1299.49 Q160.788 1299.49 158.959 1303.05 Q157.153 1306.59 157.153 1313.72 Q157.153 1320.83 158.959 1324.39 Q160.788 1327.94 164.399 1327.94 Q168.033 1327.94 169.839 1324.39 Q171.667 1320.83 171.667 1313.72 Q171.667 1306.59 169.839 1303.05 Q168.033 1299.49 164.399 1299.49 M164.399 1295.78 Q170.209 1295.78 173.264 1300.39 Q176.343 1304.97 176.343 1313.72 Q176.343 1322.45 173.264 1327.06 Q170.209 1331.64 164.399 1331.64 Q158.589 1331.64 155.51 1327.06 Q152.454 1322.45 152.454 1313.72 Q152.454 1304.97 155.51 1300.39 Q158.589 1295.78 164.399 1295.78 Z" fill="#000000" fill-rule="nonzero" fill-opacity="1"></path><path clip-path="url(#clip250)" d="M184.561 1325.09 L189.445 1325.09 L189.445 1330.97 L184.561 1330.97 L184.561 1325.09 Z" fill="#000000" fill-rule="nonzero" fill-opacity="1"></path><path clip-path="url(#clip250)" d="M209.63 1299.49 Q206.019 1299.49 204.19 1303.05 Q202.385 1306.59 202.385 1313.72 Q202.385 1320.83 204.19 1324.39 Q206.019 1327.94 209.63 1327.94 Q213.264 1327.94 215.07 1324.39 Q216.898 1320.83 216.898 1313.72 Q216.898 1306.59 215.07 1303.05 Q213.264 1299.49 209.63 1299.49 M209.63 1295.78 Q215.44 1295.78 218.496 1300.39 Q221.574 1304.97 221.574 1313.72 Q221.574 1322.45 218.496 1327.06 Q215.44 1331.64 209.63 1331.64 Q203.82 1331.64 200.741 1327.06 Q197.686 1322.45 197.686 1313.72 Q197.686 1304.97 200.741 1300.39 Q203.82 1295.78 209.63 1295.78 Z" fill="#000000" fill-rule="nonzero" fill-opacity="1"></path><path clip-path="url(#clip250)" d="M239.792 1299.49 Q236.181 1299.49 234.352 1303.05 Q232.547 1306.59 232.547 1313.72 Q232.547 1320.83 234.352 1324.39 Q236.181 1327.94 239.792 1327.94 Q243.426 1327.94 245.232 1324.39 Q247.06 1320.83 247.06 1313.72 Q247.06 1306.59 245.232 1303.05 Q243.426 1299.49 239.792 1299.49 M239.792 1295.78 Q245.602 1295.78 248.658 1300.39 Q251.736 1304.97 251.736 1313.72 Q251.736 1322.45 248.658 1327.06 Q245.602 1331.64 239.792 1331.64 Q233.982 1331.64 230.903 1327.06 Q227.848 1322.45 227.848 1313.72 Q227.848 1304.97 230.903 1300.39 Q233.982 1295.78 239.792 1295.78 Z" fill="#000000" fill-rule="nonzero" fill-opacity="1"></path><path clip-path="url(#clip250)" d="M263.982 1327.03 L280.301 1327.03 L280.301 1330.97 L258.357 1330.97 L258.357 1327.03 Q261.019 1324.28 265.602 1319.65 Q270.208 1315 271.389 1313.65 Q273.634 1311.13 274.514 1309.39 Q275.417 1307.63 275.417 1305.94 Q275.417 1303.19 273.472 1301.45 Q271.551 1299.72 268.449 1299.72 Q266.25 1299.72 263.796 1300.48 Q261.366 1301.25 258.588 1302.8 L258.588 1298.07 Q261.412 1296.94 263.866 1296.36 Q266.32 1295.78 268.357 1295.78 Q273.727 1295.78 276.921 1298.47 Q280.116 1301.15 280.116 1305.64 Q280.116 1307.77 279.306 1309.69 Q278.519 1311.59 276.412 1314.19 Q275.833 1314.86 272.732 1318.07 Q269.63 1321.27 263.982 1327.03 Z" fill="#000000" fill-rule="nonzero" fill-opacity="1"></path><path clip-path="url(#clip250)" d="M114.26 1124.86 L143.936 1124.86 L143.936 1128.8 L114.26 1128.8 L114.26 1124.86 Z" fill="#000000" fill-rule="nonzero" fill-opacity="1"></path><path clip-path="url(#clip250)" d="M164.028 1110.21 Q160.417 1110.21 158.589 1113.78 Q156.783 1117.32 156.783 1124.45 Q156.783 1131.55 158.589 1135.12 Q160.417 1138.66 164.028 1138.66 Q167.663 1138.66 169.468 1135.12 Q171.297 1131.55 171.297 1124.45 Q171.297 1117.32 169.468 1113.78 Q167.663 1110.21 164.028 1110.21 M164.028 1106.51 Q169.839 1106.51 172.894 1111.11 Q175.973 1115.7 175.973 1124.45 Q175.973 1133.17 172.894 1137.78 Q169.839 1142.36 164.028 1142.36 Q158.218 1142.36 155.14 1137.78 Q152.084 1133.17 152.084 1124.45 Q152.084 1115.7 155.14 1111.11 Q158.218 1106.51 164.028 1106.51 Z" fill="#000000" fill-rule="nonzero" fill-opacity="1"></path><path clip-path="url(#clip250)" d="M184.19 1135.81 L189.075 1135.81 L189.075 1141.69 L184.19 1141.69 L184.19 1135.81 Z" fill="#000000" fill-rule="nonzero" fill-opacity="1"></path><path clip-path="url(#clip250)" d="M209.26 1110.21 Q205.649 1110.21 203.82 1113.78 Q202.014 1117.32 202.014 1124.45 Q202.014 1131.55 203.82 1135.12 Q205.649 1138.66 209.26 1138.66 Q212.894 1138.66 214.699 1135.12 Q216.528 1131.55 216.528 1124.45 Q216.528 1117.32 214.699 1113.78 Q212.894 1110.21 209.26 1110.21 M209.26 1106.51 Q215.07 1106.51 218.125 1111.11 Q221.204 1115.7 221.204 1124.45 Q221.204 1133.17 218.125 1137.78 Q215.07 1142.36 209.26 1142.36 Q203.449 1142.36 200.371 1137.78 Q197.315 1133.17 197.315 1124.45 Q197.315 1115.7 200.371 1111.11 Q203.449 1106.51 209.26 1106.51 Z" fill="#000000" fill-rule="nonzero" fill-opacity="1"></path><path clip-path="url(#clip250)" d="M239.422 1110.21 Q235.81 1110.21 233.982 1113.78 Q232.176 1117.32 232.176 1124.45 Q232.176 1131.55 233.982 1135.12 Q235.81 1138.66 239.422 1138.66 Q243.056 1138.66 244.861 1135.12 Q246.69 1131.55 246.69 1124.45 Q246.69 1117.32 244.861 1113.78 Q243.056 1110.21 239.422 1110.21 M239.422 1106.51 Q245.232 1106.51 248.287 1111.11 Q251.366 1115.7 251.366 1124.45 Q251.366 1133.17 248.287 1137.78 Q245.232 1142.36 239.422 1142.36 Q233.611 1142.36 230.533 1137.78 Q227.477 1133.17 227.477 1124.45 Q227.477 1115.7 230.533 1111.11 Q233.611 1106.51 239.422 1106.51 Z" fill="#000000" fill-rule="nonzero" fill-opacity="1"></path><path clip-path="url(#clip250)" d="M260.394 1137.76 L268.032 1137.76 L268.032 1111.39 L259.722 1113.06 L259.722 1108.8 L267.986 1107.13 L272.662 1107.13 L272.662 1137.76 L280.301 1137.76 L280.301 1141.69 L260.394 1141.69 L260.394 1137.76 Z" fill="#000000" fill-rule="nonzero" fill-opacity="1"></path><path clip-path="url(#clip250)" d="M162.802 920.936 Q159.19 920.936 157.362 924.5 Q155.556 928.042 155.556 935.172 Q155.556 942.278 157.362 945.843 Q159.19 949.384 162.802 949.384 Q166.436 949.384 168.241 945.843 Q170.07 942.278 170.07 935.172 Q170.07 928.042 168.241 924.5 Q166.436 920.936 162.802 920.936 M162.802 917.232 Q168.612 917.232 171.667 921.838 Q174.746 926.422 174.746 935.172 Q174.746 943.898 171.667 948.505 Q168.612 953.088 162.802 953.088 Q156.991 953.088 153.913 948.505 Q150.857 943.898 150.857 935.172 Q150.857 926.422 153.913 921.838 Q156.991 917.232 162.802 917.232 Z" fill="#000000" fill-rule="nonzero" fill-opacity="1"></path><path clip-path="url(#clip250)" d="M182.963 946.537 L187.848 946.537 L187.848 952.417 L182.963 952.417 L182.963 946.537 Z" fill="#000000" fill-rule="nonzero" fill-opacity="1"></path><path clip-path="url(#clip250)" d="M208.033 920.936 Q204.422 920.936 202.593 924.5 Q200.787 928.042 200.787 935.172 Q200.787 942.278 202.593 945.843 Q204.422 949.384 208.033 949.384 Q211.667 949.384 213.473 945.843 Q215.301 942.278 215.301 935.172 Q215.301 928.042 213.473 924.5 Q211.667 920.936 208.033 920.936 M208.033 917.232 Q213.843 917.232 216.898 921.838 Q219.977 926.422 219.977 935.172 Q219.977 943.898 216.898 948.505 Q213.843 953.088 208.033 953.088 Q202.223 953.088 199.144 948.505 Q196.088 943.898 196.088 935.172 Q196.088 926.422 199.144 921.838 Q202.223 917.232 208.033 917.232 Z" fill="#000000" fill-rule="nonzero" fill-opacity="1"></path><path clip-path="url(#clip250)" d="M238.195 920.936 Q234.584 920.936 232.755 924.5 Q230.949 928.042 230.949 935.172 Q230.949 942.278 232.755 945.843 Q234.584 949.384 238.195 949.384 Q241.829 949.384 243.634 945.843 Q245.463 942.278 245.463 935.172 Q245.463 928.042 243.634 924.5 Q241.829 920.936 238.195 920.936 M238.195 917.232 Q244.005 917.232 247.06 921.838 Q250.139 926.422 250.139 935.172 Q250.139 943.898 247.06 948.505 Q244.005 953.088 238.195 953.088 Q232.385 953.088 229.306 948.505 Q226.25 943.898 226.25 935.172 Q226.25 926.422 229.306 921.838 Q232.385 917.232 238.195 917.232 Z" fill="#000000" fill-rule="nonzero" fill-opacity="1"></path><path clip-path="url(#clip250)" d="M268.357 920.936 Q264.745 920.936 262.917 924.5 Q261.111 928.042 261.111 935.172 Q261.111 942.278 262.917 945.843 Q264.745 949.384 268.357 949.384 Q271.991 949.384 273.796 945.843 Q275.625 942.278 275.625 935.172 Q275.625 928.042 273.796 924.5 Q271.991 920.936 268.357 920.936 M268.357 917.232 Q274.167 917.232 277.222 921.838 Q280.301 926.422 280.301 935.172 Q280.301 943.898 277.222 948.505 Q274.167 953.088 268.357 953.088 Q262.546 953.088 259.468 948.505 Q256.412 943.898 256.412 935.172 Q256.412 926.422 259.468 921.838 Q262.546 917.232 268.357 917.232 Z" fill="#000000" fill-rule="nonzero" fill-opacity="1"></path><path clip-path="url(#clip250)" d="M164.028 731.66 Q160.417 731.66 158.589 735.225 Q156.783 738.767 156.783 745.896 Q156.783 753.003 158.589 756.567 Q160.417 760.109 164.028 760.109 Q167.663 760.109 169.468 756.567 Q171.297 753.003 171.297 745.896 Q171.297 738.767 169.468 735.225 Q167.663 731.66 164.028 731.66 M164.028 727.957 Q169.839 727.957 172.894 732.563 Q175.973 737.146 175.973 745.896 Q175.973 754.623 172.894 759.23 Q169.839 763.813 164.028 763.813 Q158.218 763.813 155.14 759.23 Q152.084 754.623 152.084 745.896 Q152.084 737.146 155.14 732.563 Q158.218 727.957 164.028 727.957 Z" fill="#000000" fill-rule="nonzero" fill-opacity="1"></path><path clip-path="url(#clip250)" d="M184.19 757.262 L189.075 757.262 L189.075 763.142 L184.19 763.142 L184.19 757.262 Z" fill="#000000" fill-rule="nonzero" fill-opacity="1"></path><path clip-path="url(#clip250)" d="M209.26 731.66 Q205.649 731.66 203.82 735.225 Q202.014 738.767 202.014 745.896 Q202.014 753.003 203.82 756.567 Q205.649 760.109 209.26 760.109 Q212.894 760.109 214.699 756.567 Q216.528 753.003 216.528 745.896 Q216.528 738.767 214.699 735.225 Q212.894 731.66 209.26 731.66 M209.26 727.957 Q215.07 727.957 218.125 732.563 Q221.204 737.146 221.204 745.896 Q221.204 754.623 218.125 759.23 Q215.07 763.813 209.26 763.813 Q203.449 763.813 200.371 759.23 Q197.315 754.623 197.315 745.896 Q197.315 737.146 200.371 732.563 Q203.449 727.957 209.26 727.957 Z" fill="#000000" fill-rule="nonzero" fill-opacity="1"></path><path clip-path="url(#clip250)" d="M239.422 731.66 Q235.81 731.66 233.982 735.225 Q232.176 738.767 232.176 745.896 Q232.176 753.003 233.982 756.567 Q235.81 760.109 239.422 760.109 Q243.056 760.109 244.861 756.567 Q246.69 753.003 246.69 745.896 Q246.69 738.767 244.861 735.225 Q243.056 731.66 239.422 731.66 M239.422 727.957 Q245.232 727.957 248.287 732.563 Q251.366 737.146 251.366 745.896 Q251.366 754.623 248.287 759.23 Q245.232 763.813 239.422 763.813 Q233.611 763.813 230.533 759.23 Q227.477 754.623 227.477 745.896 Q227.477 737.146 230.533 732.563 Q233.611 727.957 239.422 727.957 Z" fill="#000000" fill-rule="nonzero" fill-opacity="1"></path><path clip-path="url(#clip250)" d="M260.394 759.206 L268.032 759.206 L268.032 732.841 L259.722 734.507 L259.722 730.248 L267.986 728.582 L272.662 728.582 L272.662 759.206 L280.301 759.206 L280.301 763.142 L260.394 763.142 L260.394 759.206 Z" fill="#000000" fill-rule="nonzero" fill-opacity="1"></path><path clip-path="url(#clip250)" d="M164.399 542.385 Q160.788 542.385 158.959 545.95 Q157.153 549.491 157.153 556.621 Q157.153 563.727 158.959 567.292 Q160.788 570.834 164.399 570.834 Q168.033 570.834 169.839 567.292 Q171.667 563.727 171.667 556.621 Q171.667 549.491 169.839 545.95 Q168.033 542.385 164.399 542.385 M164.399 538.681 Q170.209 538.681 173.264 543.288 Q176.343 547.871 176.343 556.621 Q176.343 565.348 173.264 569.954 Q170.209 574.537 164.399 574.537 Q158.589 574.537 155.51 569.954 Q152.454 565.348 152.454 556.621 Q152.454 547.871 155.51 543.288 Q158.589 538.681 164.399 538.681 Z" fill="#000000" fill-rule="nonzero" fill-opacity="1"></path><path clip-path="url(#clip250)" d="M184.561 567.987 L189.445 567.987 L189.445 573.866 L184.561 573.866 L184.561 567.987 Z" fill="#000000" fill-rule="nonzero" fill-opacity="1"></path><path clip-path="url(#clip250)" d="M209.63 542.385 Q206.019 542.385 204.19 545.95 Q202.385 549.491 202.385 556.621 Q202.385 563.727 204.19 567.292 Q206.019 570.834 209.63 570.834 Q213.264 570.834 215.07 567.292 Q216.898 563.727 216.898 556.621 Q216.898 549.491 215.07 545.95 Q213.264 542.385 209.63 542.385 M209.63 538.681 Q215.44 538.681 218.496 543.288 Q221.574 547.871 221.574 556.621 Q221.574 565.348 218.496 569.954 Q215.44 574.537 209.63 574.537 Q203.82 574.537 200.741 569.954 Q197.686 565.348 197.686 556.621 Q197.686 547.871 200.741 543.288 Q203.82 538.681 209.63 538.681 Z" fill="#000000" fill-rule="nonzero" fill-opacity="1"></path><path clip-path="url(#clip250)" d="M239.792 542.385 Q236.181 542.385 234.352 545.95 Q232.547 549.491 232.547 556.621 Q232.547 563.727 234.352 567.292 Q236.181 570.834 239.792 570.834 Q243.426 570.834 245.232 567.292 Q247.06 563.727 247.06 556.621 Q247.06 549.491 245.232 545.95 Q243.426 542.385 239.792 542.385 M239.792 538.681 Q245.602 538.681 248.658 543.288 Q251.736 547.871 251.736 556.621 Q251.736 565.348 248.658 569.954 Q245.602 574.537 239.792 574.537 Q233.982 574.537 230.903 569.954 Q227.848 565.348 227.848 556.621 Q227.848 547.871 230.903 543.288 Q233.982 538.681 239.792 538.681 Z" fill="#000000" fill-rule="nonzero" fill-opacity="1"></path><path clip-path="url(#clip250)" d="M263.982 569.931 L280.301 569.931 L280.301 573.866 L258.357 573.866 L258.357 569.931 Q261.019 567.176 265.602 562.547 Q270.208 557.894 271.389 556.551 Q273.634 554.028 274.514 552.292 Q275.417 550.533 275.417 548.843 Q275.417 546.089 273.472 544.352 Q271.551 542.616 268.449 542.616 Q266.25 542.616 263.796 543.38 Q261.366 544.144 258.588 545.695 L258.588 540.973 Q261.412 539.839 263.866 539.26 Q266.32 538.681 268.357 538.681 Q273.727 538.681 276.921 541.366 Q280.116 544.052 280.116 548.542 Q280.116 550.672 279.306 552.593 Q278.519 554.491 276.412 557.084 Q275.833 557.755 272.732 560.973 Q269.63 564.167 263.982 569.931 Z" fill="#000000" fill-rule="nonzero" fill-opacity="1"></path><path clip-path="url(#clip250)" d="M163.45 353.11 Q159.839 353.11 158.01 356.674 Q156.204 360.216 156.204 367.346 Q156.204 374.452 158.01 378.017 Q159.839 381.558 163.45 381.558 Q167.084 381.558 168.889 378.017 Q170.718 374.452 170.718 367.346 Q170.718 360.216 168.889 356.674 Q167.084 353.11 163.45 353.11 M163.45 349.406 Q169.26 349.406 172.315 354.012 Q175.394 358.596 175.394 367.346 Q175.394 376.072 172.315 380.679 Q169.26 385.262 163.45 385.262 Q157.64 385.262 154.561 380.679 Q151.505 376.072 151.505 367.346 Q151.505 358.596 154.561 354.012 Q157.64 349.406 163.45 349.406 Z" fill="#000000" fill-rule="nonzero" fill-opacity="1"></path><path clip-path="url(#clip250)" d="M183.612 378.711 L188.496 378.711 L188.496 384.591 L183.612 384.591 L183.612 378.711 Z" fill="#000000" fill-rule="nonzero" fill-opacity="1"></path><path clip-path="url(#clip250)" d="M208.681 353.11 Q205.07 353.11 203.241 356.674 Q201.436 360.216 201.436 367.346 Q201.436 374.452 203.241 378.017 Q205.07 381.558 208.681 381.558 Q212.315 381.558 214.121 378.017 Q215.949 374.452 215.949 367.346 Q215.949 360.216 214.121 356.674 Q212.315 353.11 208.681 353.11 M208.681 349.406 Q214.491 349.406 217.547 354.012 Q220.625 358.596 220.625 367.346 Q220.625 376.072 217.547 380.679 Q214.491 385.262 208.681 385.262 Q202.871 385.262 199.792 380.679 Q196.737 376.072 196.737 367.346 Q196.737 358.596 199.792 354.012 Q202.871 349.406 208.681 349.406 Z" fill="#000000" fill-rule="nonzero" fill-opacity="1"></path><path clip-path="url(#clip250)" d="M238.843 353.11 Q235.232 353.11 233.403 356.674 Q231.597 360.216 231.597 367.346 Q231.597 374.452 233.403 378.017 Q235.232 381.558 238.843 381.558 Q242.477 381.558 244.283 378.017 Q246.111 374.452 246.111 367.346 Q246.111 360.216 244.283 356.674 Q242.477 353.11 238.843 353.11 M238.843 349.406 Q244.653 349.406 247.709 354.012 Q250.787 358.596 250.787 367.346 Q250.787 376.072 247.709 380.679 Q244.653 385.262 238.843 385.262 Q233.033 385.262 229.954 380.679 Q226.898 376.072 226.898 367.346 Q226.898 358.596 229.954 354.012 Q233.033 349.406 238.843 349.406 Z" fill="#000000" fill-rule="nonzero" fill-opacity="1"></path><path clip-path="url(#clip250)" d="M273.171 365.957 Q276.528 366.674 278.403 368.943 Q280.301 371.211 280.301 374.545 Q280.301 379.66 276.782 382.461 Q273.264 385.262 266.782 385.262 Q264.607 385.262 262.292 384.822 Q260 384.406 257.546 383.549 L257.546 379.035 Q259.491 380.17 261.806 380.748 Q264.12 381.327 266.644 381.327 Q271.042 381.327 273.333 379.591 Q275.648 377.855 275.648 374.545 Q275.648 371.489 273.495 369.776 Q271.366 368.04 267.546 368.04 L263.519 368.04 L263.519 364.197 L267.732 364.197 Q271.181 364.197 273.009 362.832 Q274.838 361.443 274.838 358.85 Q274.838 356.188 272.94 354.776 Q271.065 353.341 267.546 353.341 Q265.625 353.341 263.426 353.758 Q261.227 354.174 258.588 355.054 L258.588 350.887 Q261.25 350.147 263.565 349.776 Q265.903 349.406 267.963 349.406 Q273.287 349.406 276.389 351.836 Q279.491 354.244 279.491 358.364 Q279.491 361.235 277.847 363.225 Q276.204 365.193 273.171 365.957 Z" fill="#000000" fill-rule="nonzero" fill-opacity="1"></path><path clip-path="url(#clip250)" d="M162.315 163.834 Q158.704 163.834 156.876 167.399 Q155.07 170.941 155.07 178.07 Q155.07 185.177 156.876 188.742 Q158.704 192.283 162.315 192.283 Q165.95 192.283 167.755 188.742 Q169.584 185.177 169.584 178.07 Q169.584 170.941 167.755 167.399 Q165.95 163.834 162.315 163.834 M162.315 160.131 Q168.126 160.131 171.181 164.737 Q174.26 169.32 174.26 178.07 Q174.26 186.797 171.181 191.404 Q168.126 195.987 162.315 195.987 Q156.505 195.987 153.427 191.404 Q150.371 186.797 150.371 178.07 Q150.371 169.32 153.427 164.737 Q156.505 160.131 162.315 160.131 Z" fill="#000000" fill-rule="nonzero" fill-opacity="1"></path><path clip-path="url(#clip250)" d="M182.477 189.436 L187.362 189.436 L187.362 195.316 L182.477 195.316 L182.477 189.436 Z" fill="#000000" fill-rule="nonzero" fill-opacity="1"></path><path clip-path="url(#clip250)" d="M207.547 163.834 Q203.936 163.834 202.107 167.399 Q200.301 170.941 200.301 178.07 Q200.301 185.177 202.107 188.742 Q203.936 192.283 207.547 192.283 Q211.181 192.283 212.986 188.742 Q214.815 185.177 214.815 178.07 Q214.815 170.941 212.986 167.399 Q211.181 163.834 207.547 163.834 M207.547 160.131 Q213.357 160.131 216.412 164.737 Q219.491 169.32 219.491 178.07 Q219.491 186.797 216.412 191.404 Q213.357 195.987 207.547 195.987 Q201.737 195.987 198.658 191.404 Q195.602 186.797 195.602 178.07 Q195.602 169.32 198.658 164.737 Q201.737 160.131 207.547 160.131 Z" fill="#000000" fill-rule="nonzero" fill-opacity="1"></path><path clip-path="url(#clip250)" d="M237.709 163.834 Q234.097 163.834 232.269 167.399 Q230.463 170.941 230.463 178.07 Q230.463 185.177 232.269 188.742 Q234.097 192.283 237.709 192.283 Q241.343 192.283 243.148 188.742 Q244.977 185.177 244.977 178.07 Q244.977 170.941 243.148 167.399 Q241.343 163.834 237.709 163.834 M237.709 160.131 Q243.519 160.131 246.574 164.737 Q249.653 169.32 249.653 178.07 Q249.653 186.797 246.574 191.404 Q243.519 195.987 237.709 195.987 Q231.898 195.987 228.82 191.404 Q225.764 186.797 225.764 178.07 Q225.764 169.32 228.82 164.737 Q231.898 160.131 237.709 160.131 Z" fill="#000000" fill-rule="nonzero" fill-opacity="1"></path><path clip-path="url(#clip250)" d="M270.718 164.83 L258.912 183.279 L270.718 183.279 L270.718 164.83 M269.491 160.756 L275.37 160.756 L275.37 183.279 L280.301 183.279 L280.301 187.167 L275.37 187.167 L275.37 195.316 L270.718 195.316 L270.718 187.167 L255.116 187.167 L255.116 182.654 L269.491 160.756 Z" fill="#000000" fill-rule="nonzero" fill-opacity="1"></path><path clip-path="url(#clip250)" d="M49.9359 795.018 L28.3562 795.018 L28.3562 789.161 L49.7131 789.161 Q54.7739 789.161 57.3202 787.188 Q59.8346 785.215 59.8346 781.268 Q59.8346 776.525 56.8109 773.788 Q53.7872 771.019 48.5673 771.019 L28.3562 771.019 L28.3562 765.163 L64.0042 765.163 L64.0042 771.019 L58.5296 771.019 Q61.7762 773.152 63.3676 775.984 Q64.9272 778.785 64.9272 782.509 Q64.9272 788.652 61.1078 791.835 Q57.2883 795.018 49.9359 795.018 M27.4968 780.281 L27.4968 780.281 Z" fill="#000000" fill-rule="nonzero" fill-opacity="1"></path><path clip-path="url(#clip250)" d="M14.5426 739.031 Q21.8632 743.296 29.0246 745.365 Q36.186 747.434 43.5384 747.434 Q50.8908 747.434 58.1159 745.365 Q65.3091 743.265 72.5979 739.031 L72.5979 744.124 Q65.1182 748.898 57.8931 751.285 Q50.668 753.641 43.5384 753.641 Q36.4406 753.641 29.2474 751.285 Q22.0542 748.93 14.5426 744.124 L14.5426 739.031 Z" fill="#000000" fill-rule="nonzero" fill-opacity="1"></path><path clip-path="url(#clip250)" d="M28.3562 698.036 L45.7028 710.927 L64.0042 697.368 L64.0042 704.275 L49.9996 714.651 L64.0042 725.027 L64.0042 731.934 L45.3526 718.088 L28.3562 730.756 L28.3562 723.849 L41.0558 714.396 L28.3562 704.943 L28.3562 698.036 Z" fill="#000000" fill-rule="nonzero" fill-opacity="1"></path><path clip-path="url(#clip250)" d="M14.5426 690.015 L14.5426 684.923 Q22.0542 680.149 29.2474 677.793 Q36.4406 675.406 43.5384 675.406 Q50.668 675.406 57.8931 677.793 Q65.1182 680.149 72.5979 684.923 L72.5979 690.015 Q65.3091 685.782 58.1159 683.713 Q50.8908 681.613 43.5384 681.613 Q36.186 681.613 29.0246 683.713 Q21.8632 685.782 14.5426 690.015 Z" fill="#000000" fill-rule="nonzero" fill-opacity="1"></path><polyline clip-path="url(#clip252)" style="stroke:#009af9; stroke-linecap:round; stroke-linejoin:round; stroke-width:4; stroke-opacity:1; fill:none" points="373.936,935.137 375.86,944.144 377.783,953.151 379.706,962.158 381.629,971.165 383.552,980.172 385.475,989.179 387.398,998.187 389.321,1007.19 391.244,1016.2 393.168,1025.21 395.091,1033.87 397.014,1042.49 398.937,1051.11 400.86,1059.74 402.783,1068.36 404.706,1076.98 406.629,1085.6 408.552,1094.23 410.475,1102.85 412.399,1111.47 414.322,1119.48 416.245,1127.35 418.168,1135.22 420.091,1143.09 422.014,1150.96 423.937,1158.83 425.86,1166.71 427.783,1174.58 429.707,1182.45 431.63,1190.32 433.553,1197.4 435.476,1204.18 437.399,1210.96 439.322,1217.74 441.245,1224.52 443.168,1231.3 445.091,1238.08 447.015,1244.86 448.938,1251.64 450.861,1258.42 452.784,1264.32 454.707,1269.72 456.63,1275.11 458.553,1280.51 460.476,1285.91 462.399,1291.31 464.322,1296.7 466.246,1302.1 468.169,1307.5 470.092,1312.89 472.015,1317.41 473.938,1321.18 475.861,1324.96 477.784,1328.73 479.707,1332.51 481.63,1336.29 483.554,1340.06 485.477,1343.84 487.4,1347.62 489.323,1351.39 491.246,1354.35 493.169,1356.34 495.092,1358.32 497.015,1360.31 498.938,1362.29 500.862,1364.27 502.785,1366.26 504.708,1368.24 506.631,1370.23 508.554,1372.21 510.477,1373.51 512.4,1373.6 514.323,1373.7 516.246,1373.79 518.169,1373.88 520.093,1373.98 522.016,1374.07 523.939,1374.17 525.862,1374.26 527.785,1374.35 529.708,1373.93 531.631,1372.11 533.554,1370.29 535.477,1368.47 537.401,1366.65 539.324,1364.84 541.247,1363.02 543.17,1361.2 545.093,1359.38 547.016,1357.56 548.939,1355.41 550.862,1351.74 552.785,1348.06 554.709,1344.39 556.632,1340.71 558.555,1337.04 560.478,1333.37 562.401,1329.69 564.324,1326.02 566.247,1322.35 568.17,1318.52 570.093,1313.12 572.016,1307.72 573.94,1302.33 575.863,1296.93 577.786,1291.53 579.709,1286.13 581.632,1280.74 583.555,1275.34 585.478,1269.94 587.401,1264.55 589.324,1257.63 591.248,1250.71 593.171,1243.79 595.094,1236.87 597.017,1229.95 598.94,1223.03 600.863,1216.11 602.786,1209.19 604.709,1202.27 606.632,1195.35 608.556,1187.29 610.479,1179.11 612.402,1170.94 614.325,1162.76 616.248,1154.58 618.171,1146.4 620.094,1138.23 622.017,1130.05 623.94,1121.87 625.863,1113.7 627.787,1104.75 629.71,1095.63 631.633,1086.51 633.556,1077.39 635.479,1068.27 637.402,1059.15 639.325,1050.02 641.248,1040.9 643.171,1031.78 645.095,1022.66 647.018,1013.11 648.941,1003.4 650.864,993.694 652.787,983.984 654.71,974.273 656.633,964.563 658.556,954.853 660.479,945.143 662.403,935.433 664.326,925.722 666.249,915.877 668.172,905.954 670.095,896.031 672.018,886.109 673.941,876.186 675.864,866.263 677.787,856.34 679.71,846.418 681.634,836.495 683.557,826.572 685.48,816.744 687.403,806.994 689.326,797.245 691.249,787.496 693.172,777.746 695.095,767.997 697.018,758.248 698.942,748.498 700.865,738.749 702.788,729 704.711,719.501 706.634,710.304 708.557,701.107 710.48,691.91 712.403,682.713 714.326,673.516 716.25,664.319 718.173,655.122 720.096,645.925 722.019,636.728 723.942,627.861 725.865,619.573 727.788,611.284 729.711,602.996 731.634,594.708 733.557,586.419 735.481,578.131 737.404,569.842 739.327,561.554 741.25,553.266 743.173,545.312 745.096,538.252 747.019,531.192 748.942,524.132 750.865,517.072 752.789,510.012 754.712,502.951 756.635,495.891 758.558,488.831 760.481,481.771 762.404,474.983 764.327,469.421 766.25,463.858 768.173,458.296 770.097,452.733 772.02,447.171 773.943,441.608 775.866,436.046 777.789,430.483 779.712,424.921 781.635,419.514 783.558,415.658 785.481,411.801 787.404,407.945 789.328,404.089 791.251,400.233 793.174,396.377 795.097,392.521 797.02,388.664 798.943,384.808 800.866,380.952 802.789,378.941 804.712,376.931 806.636,374.92 808.559,372.91 810.482,370.899 812.405,368.888 814.328,366.878 816.251,364.867 818.174,362.856 820.097,360.846 822.02,360.571 823.944,360.47 825.867,360.369 827.79,360.268 829.713,360.167 831.636,360.066 833.559,359.965 835.482,359.864 837.405,359.763 839.328,359.662 841.251,361.112 843.175,362.907 845.098,364.702 847.021,366.497 848.944,368.292 850.867,370.087 852.79,371.882 854.713,373.677 856.636,375.473 858.559,377.268 860.483,380.376 862.406,383.976 864.329,387.577 866.252,391.177 868.175,394.778 870.098,398.378 872.021,401.979 873.944,405.579 875.867,409.18 877.79,412.78 879.714,417.425 881.637,422.667 883.56,427.909 885.483,433.151 887.406,438.392 889.329,443.634 891.252,448.876 893.175,454.118 895.098,459.36 897.022,464.602 898.945,470.613 900.868,477.265 902.791,483.917 904.714,490.57 906.637,497.222 908.56,503.874 910.483,510.527 912.406,517.179 914.33,523.831 916.253,530.484 918.176,537.646 920.099,545.421 922.022,553.195 923.945,560.97 925.868,568.744 927.791,576.519 929.714,584.293 931.637,592.068 933.561,599.843 935.484,607.617 937.407,615.678 939.33,624.241 941.253,632.804 943.176,641.367 945.099,649.93 947.022,658.493 948.945,667.056 950.869,675.619 952.792,684.182 954.715,692.745 956.638,701.423 958.561,710.409 960.484,719.394 962.407,728.38 964.33,737.365 966.253,746.35 968.177,755.336 970.1,764.321 972.023,773.307 973.946,782.292 975.869,791.285 977.792,800.31 979.715,809.334 981.638,818.359 983.561,827.384 985.484,836.409 987.408,845.433 989.331,854.458 991.254,863.483 993.177,872.508 995.1,881.501 997.023,890.181 998.946,898.86 1000.87,907.539 1002.79,916.219 1004.72,924.898 1006.64,933.578 1008.56,942.257 1010.48,950.936 1012.41,959.616 1014.33,968.295 1016.25,976.258 1018.18,984.222 1020.1,992.185 1022.02,1000.15 1023.95,1008.11 1025.87,1016.08 1027.79,1024.04 1029.72,1032 1031.64,1039.97 1033.56,1047.93 1035.49,1054.93 1037.41,1061.84 1039.33,1068.74 1041.25,1075.65 1043.18,1082.55 1045.1,1089.46 1047.02,1096.37 1048.95,1103.27 1050.87,1110.18 1052.79,1117.08 1054.72,1122.88 1056.64,1128.43 1058.56,1133.98 1060.49,1139.53 1062.41,1145.08 1064.33,1150.63 1066.25,1156.18 1068.18,1161.73 1070.1,1167.28 1072.02,1172.83 1073.95,1177.21 1075.87,1181.16 1077.79,1185.11 1079.72,1189.06 1081.64,1193.01 1083.56,1196.96 1085.49,1200.91 1087.41,1204.86 1089.33,1208.81 1091.26,1212.76 1093.18,1215.58 1095.1,1217.75 1097.02,1219.93 1098.95,1222.1 1100.87,1224.27 1102.79,1226.44 1104.72,1228.62 1106.64,1230.79 1108.56,1232.96 1110.49,1235.13 1112.41,1236.28 1114.33,1236.57 1116.26,1236.85 1118.18,1237.14 1120.1,1237.43 1122.03,1237.72 1123.95,1238.01 1125.87,1238.3 1127.79,1238.59 1129.72,1238.87 1131.64,1238.29 1133.56,1236.67 1135.49,1235.04 1137.41,1233.42 1139.33,1231.79 1141.26,1230.17 1143.18,1228.55 1145.1,1226.92 1147.03,1225.3 1148.95,1223.67 1150.87,1221.37 1152.79,1217.88 1154.72,1214.39 1156.64,1210.9 1158.56,1207.41 1160.49,1203.92 1162.41,1200.43 1164.33,1196.94 1166.26,1193.45 1168.18,1189.96 1170.1,1186 1172.03,1180.77 1173.95,1175.54 1175.87,1170.31 1177.8,1165.08 1179.72,1159.85 1181.64,1154.62 1183.56,1149.39 1185.49,1144.16 1187.41,1138.93 1189.33,1133.42 1191.26,1126.64 1193.18,1119.87 1195.1,1113.09 1197.03,1106.32 1198.95,1099.54 1200.87,1092.77 1202.8,1085.99 1204.72,1079.22 1206.64,1072.44 1208.56,1065.55 1210.49,1057.49 1212.41,1049.42 1214.33,1041.36 1216.26,1033.3 1218.18,1025.23 1220.1,1017.17 1222.03,1009.11 1223.95,1001.05 1225.87,992.984 1227.8,984.921 1229.72,975.881 1231.64,966.841 1233.57,957.801 1235.49,948.761 1237.41,939.721 1239.33,930.681 1241.26,921.641 1243.18,912.601 1245.1,903.561 1247.03,894.521 1248.95,884.911 1250.87,875.243 1252.8,865.576 1254.72,855.909 1256.64,846.242 1258.57,836.575 1260.49,826.908 1262.41,817.24 1264.34,807.573 1266.26,797.906 1268.18,788.033 1270.1,778.114 1272.03,768.196 1273.95,758.277 1275.87,748.358 1277.8,738.439 1279.72,728.521 1281.64,718.602 1283.57,708.683 1285.49,698.764 1287.41,688.943 1289.34,679.159 1291.26,669.374 1293.18,659.589 1295.1,649.805 1297.03,640.02 1298.95,630.236 1300.87,620.451 1302.8,610.667 1304.72,600.882 1306.64,591.425 1308.57,582.155 1310.49,572.885 1312.41,563.615 1314.34,554.345 1316.26,545.074 1318.18,535.804 1320.11,526.534 1322.03,517.264 1323.95,507.994 1325.87,499.201 1327.8,490.805 1329.72,482.409 1331.64,474.012 1333.57,465.616 1335.49,457.22 1337.41,448.824 1339.34,440.428 1341.26,432.032 1343.18,423.635 1345.11,415.784 1347.03,408.585 1348.95,401.387 1350.87,394.188 1352.8,386.99 1354.72,379.792 1356.64,372.593 1358.57,365.395 1360.49,358.196 1362.41,350.998 1364.34,344.335 1366.26,338.61 1368.18,332.884 1370.11,327.159 1372.03,321.433 1373.95,315.708 1375.88,309.982 1377.8,304.257 1379.72,298.531 1381.64,292.806 1383.57,287.541 1385.49,283.503 1387.41,279.466 1389.34,275.429 1391.26,271.391 1393.18,267.354 1395.11,263.316 1397.03,259.279 1398.95,255.242 1400.88,251.204 1402.8,247.5 1404.72,245.298 1406.64,243.095 1408.57,240.892 1410.49,238.69 1412.41,236.487 1414.34,234.284 1416.26,232.082 1418.18,229.879 1420.11,227.676 1422.03,225.647 1423.95,225.351 1425.88,225.055 1427.8,224.759 1429.72,224.463 1431.65,224.167 1433.57,223.871 1435.49,223.574 1437.41,223.278 1439.34,222.982 1441.26,222.686 1443.18,224.291 1445.11,225.896 1447.03,227.501 1448.95,229.106 1450.88,230.711 1452.8,232.316 1454.72,233.921 1456.65,235.526 1458.57,237.131 1460.49,238.736 1462.42,241.994 1464.34,245.417 1466.26,248.84 1468.18,252.263 1470.11,255.686 1472.03,259.109 1473.95,262.532 1475.88,265.955 1477.8,269.378 1479.72,272.801 1481.65,277.584 1483.57,282.668 1485.49,287.752 1487.42,292.837 1489.34,297.921 1491.26,303.005 1493.18,308.089 1495.11,313.174 1497.03,318.258 1498.95,323.342 1500.88,329.471 1502.8,335.993 1504.72,342.514 1506.65,349.035 1508.57,355.556 1510.49,362.077 1512.42,368.598 1514.34,375.119 1516.26,381.64 1518.19,388.161 1520.11,395.416 1522.03,403.091 1523.95,410.766 1525.88,418.441 1527.8,426.116 1529.72,433.791 1531.65,441.466 1533.57,449.141 1535.49,456.816 1537.42,464.491 1539.34,472.616 1541.26,481.115 1543.19,489.614 1545.11,498.113 1547.03,506.612 1548.95,515.111 1550.88,523.61 1552.8,532.109 1554.72,540.608 1556.65,549.107 1558.57,557.815 1560.49,566.775 1562.42,575.735 1564.34,584.695 1566.26,593.655 1568.19,602.614 1570.11,611.574 1572.03,620.534 1573.96,629.494 1575.88,638.453 1577.8,647.442 1579.72,656.48 1581.65,665.519 1583.57,674.557 1585.49,683.596 1587.42,692.634 1589.34,701.673 1591.26,710.711 1593.19,719.749 1595.11,728.788 1597.03,737.743 1598.96,746.475 1600.88,755.206 1602.8,763.938 1604.72,772.67 1606.65,781.402 1608.57,790.134 1610.49,798.866 1612.42,807.597 1614.34,816.329 1616.26,824.938 1618.19,832.99 1620.11,841.043 1622.03,849.095 1623.96,857.147 1625.88,865.2 1627.8,873.252 1629.73,881.305 1631.65,889.357 1633.57,897.41 1635.49,905.369 1637.42,912.397 1639.34,919.425 1641.26,926.452 1643.19,933.48 1645.11,940.508 1647.03,947.536 1648.96,954.564 1650.88,961.592 1652.8,968.62 1654.73,975.647 1656.65,981.347 1658.57,987.047 1660.5,992.747 1662.42,998.447 1664.34,1004.15 1666.26,1009.85 1668.19,1015.55 1670.11,1021.25 1672.03,1026.95 1673.96,1032.65 1675.88,1036.91 1677.8,1041.03 1679.73,1045.16 1681.65,1049.28 1683.57,1053.4 1685.5,1057.52 1687.42,1061.64 1689.34,1065.77 1691.26,1069.89 1693.19,1074.01 1695.11,1076.69 1697.03,1079.05 1698.96,1081.41 1700.88,1083.77 1702.8,1086.13 1704.73,1088.49 1706.65,1090.85 1708.57,1093.21 1710.5,1095.57 1712.42,1097.93 1714.34,1098.92 1716.27,1099.4 1718.19,1099.89 1720.11,1100.37 1722.03,1100.85 1723.96,1101.33 1725.88,1101.82 1727.8,1102.3 1729.73,1102.78 1731.65,1103.27 1733.57,1102.53 1735.5,1101.1 1737.42,1099.67 1739.34,1098.24 1741.27,1096.81 1743.19,1095.38 1745.11,1093.95 1747.03,1092.51 1748.96,1091.08 1750.88,1089.65 1752.8,1087.2 1754.73,1083.9 1756.65,1080.59 1758.57,1077.29 1760.5,1073.98 1762.42,1070.68 1764.34,1067.38 1766.27,1064.07 1768.19,1060.77 1770.11,1057.46 1772.04,1053.36 1773.96,1048.3 1775.88,1043.24 1777.8,1038.18 1779.73,1033.12 1781.65,1028.06 1783.57,1023 1785.5,1017.94 1787.42,1012.88 1789.34,1007.82 1791.27,1002.18 1793.19,995.556 1795.11,988.927 1797.04,982.298 1798.96,975.669 1800.88,969.041 1802.8,962.412 1804.73,955.783 1806.65,949.154 1808.57,942.525 1810.5,935.537 1812.42,927.592 1814.34,919.647 1816.27,911.702 1818.19,903.756 1820.11,895.811 1822.04,887.866 1823.96,879.921 1825.88,871.976 1827.81,864.03 1829.73,855.901 1831.65,846.945 1833.57,837.989 1835.5,829.033 1837.42,820.077 1839.34,811.121 1841.27,802.165 1843.19,793.209 1845.11,784.253 1847.04,775.297 1848.96,766.281 1850.88,756.661 1852.81,747.041 1854.73,737.42 1856.65,727.8 1858.58,718.18 1860.5,708.56 1862.42,698.94 1864.34,689.32 1866.27,679.699 1868.19,670.079 1870.11,660.168 1872.04,650.258 1873.96,640.347 1875.88,630.436 1877.81,620.525 1879.73,610.615 1881.65,600.704 1883.58,590.793 1885.5,580.883 1887.42,570.972 1889.34,561.147 1891.27,551.332 1893.19,541.516 1895.11,531.7 1897.04,521.884 1898.96,512.068 1900.88,502.252 1902.81,492.437 1904.73,482.621 1906.65,472.805 1908.58,463.379 1910.5,454.04 1912.42,444.7 1914.35,435.361 1916.27,426.022 1918.19,416.682 1920.11,407.343 1922.04,398.004 1923.96,388.664 1925.88,379.325 1927.81,370.596 1929.73,362.095 1931.65,353.594 1933.58,345.094 1935.5,336.593 1937.42,328.093 1939.35,319.592 1941.27,311.091 1943.19,302.591 1945.11,294.09 1947.04,286.332 1948.96,278.998 1950.88,271.665 1952.81,264.331 1954.73,256.997 1956.65,249.663 1958.58,242.329 1960.5,234.996 1962.42,227.662 1964.35,220.328 1966.27,213.784 1968.19,207.898 1970.12,202.011 1972.04,196.125 1973.96,190.239 1975.88,184.352 1977.81,178.466 1979.73,172.58 1981.65,166.693 1983.58,160.807 1985.5,155.679 1987.42,151.462 1989.35,147.245 1991.27,143.028 1993.19,138.811 1995.12,134.594 1997.04,130.377 1998.96,126.16 2000.89,121.943 2002.81,117.726 2004.73,114.172 2006.65,111.778 2008.58,109.384 2010.5,106.99 2012.42,104.596 2014.35,102.202 2016.27,99.8077 2018.19,97.4137 2020.12,95.0197 2022.04,92.6257 2023.96,90.7507 2025.89,90.2596 2027.81,89.7684 2029.73,89.2773 2031.65,88.7861 2033.58,88.295 2035.5,87.8039 2037.42,87.3127 2039.35,86.8216 2041.27,86.3304 2043.19,86.1857 2045.12,87.5997 2047.04,89.0137 2048.96,90.4277 2050.89,91.8417 2052.81,93.2558 2054.73,94.6698 2056.66,96.0838 2058.58,97.4978 2060.5,98.9118 2062.42,100.492 2064.35,103.736 2066.27,106.98 2068.19,110.224 2070.12,113.468 2072.04,116.712 2073.96,119.956 2075.89,123.2 2077.81,126.444 2079.73,129.688 2081.66,132.932 2083.58,137.857 2085.5,142.781 2087.42,147.706 2089.35,152.63 2091.27,157.554 2093.19,162.479 2095.12,167.403 2097.04,172.328 2098.96,177.252 2100.89,182.177 2102.81,188.43 2104.73,194.817 2106.66,201.204 2108.58,207.591 2110.5,213.978 2112.43,220.365 2114.35,226.752 2116.27,233.139 2118.19,239.526 2120.12,245.912 2122.04,253.269 2123.96,260.841 2125.89,268.413 2127.81,275.985 2129.73,283.557 2131.66,291.129 2133.58,298.7 2135.5,306.272 2137.43,313.844 2139.35,321.416 2141.27,329.613 2143.19,338.044 2145.12,346.476 2147.04,354.907 2148.96,363.338 2150.89,371.77 2152.81,380.201 2154.73,388.632 2156.66,397.064 2158.58,405.495 2160.5,414.244 2162.43,423.174 2164.35,432.104 2166.27,441.034 2168.2,449.965 2170.12,458.895 2172.04,467.825 2173.96,476.755 2175.89,485.685 2177.81,494.615 2179.73,503.61 2181.66,512.658 2183.58,521.706 2185.5,530.754 2187.43,539.802 2189.35,548.851 2191.27,557.899 2193.2,566.947 2195.12,575.995 2197.04,585.043 2198.97,593.969 2200.89,602.75 2202.81,611.53 2204.73,620.311 2206.66,629.091 2208.58,637.872 2210.5,646.652 2212.43,655.432 2214.35,664.213 2216.27,672.993 2218.2,681.54 2220.12,689.678 2222.04,697.816 2223.97,705.954 2225.89,714.092 2227.81,722.23 2229.73,730.368 2231.66,738.506 2233.58,746.644 2235.5,754.781 2237.43,762.649 2239.35,769.796 2241.27,776.943 2243.2,784.09 2245.12,791.236 2247.04,798.383 2248.97,805.53 2250.89,812.677 2252.81,819.824 2254.74,826.97 2256.66,833.881 2258.58,839.728 2260.5,845.576 2262.43,851.423 2264.35,857.27 2266.27,863.118 2268.2,868.965 2270.12,874.812 2272.04,880.66 2273.97,886.507 2275.89,892.213 2277.81,896.505 2279.74,900.798 2281.66,905.09 2283.58,909.382 2285.5,913.675 2287.43,917.967 2289.35,922.26 2291.27,926.552 2293.2,930.844 2295.12,935.137 "></polyline>
<polyline clip-path="url(#clip252)" style="stroke:#e26f46; stroke-linecap:round; stroke-linejoin:round; stroke-width:4; stroke-opacity:1; fill:none" stroke-dasharray="16, 10" points="373.936,935.137 375.86,944.177 377.783,953.213 379.706,962.242 381.629,971.26 383.552,980.262 385.475,989.245 387.398,998.206 389.321,1007.14 391.244,1016.04 393.168,1024.91 395.091,1033.75 397.014,1042.54 398.937,1051.28 400.86,1059.98 402.783,1068.62 404.706,1077.21 406.629,1085.74 408.552,1094.2 410.475,1102.6 412.399,1110.93 414.322,1119.18 416.245,1127.36 418.168,1135.46 420.091,1143.47 422.014,1151.39 423.937,1159.23 425.86,1166.96 427.783,1174.6 429.707,1182.14 431.63,1189.58 433.553,1196.91 435.476,1204.13 437.399,1211.23 439.322,1218.22 441.245,1225.09 443.168,1231.84 445.091,1238.46 447.015,1244.95 448.938,1251.32 450.861,1257.55 452.784,1263.64 454.707,1269.6 456.63,1275.41 458.553,1281.08 460.476,1286.6 462.399,1291.98 464.322,1297.2 466.246,1302.27 468.169,1307.19 470.092,1311.95 472.015,1316.54 473.938,1320.98 475.861,1325.25 477.784,1329.36 479.707,1333.3 481.63,1337.07 483.554,1340.67 485.477,1344.1 487.4,1347.35 489.323,1350.43 491.246,1353.33 493.169,1356.05 495.092,1358.59 497.015,1360.96 498.938,1363.14 500.862,1365.14 502.785,1366.95 504.708,1368.58 506.631,1370.02 508.554,1371.28 510.477,1372.35 512.4,1373.24 514.323,1373.93 516.246,1374.44 518.169,1374.76 520.093,1374.89 522.016,1374.83 523.939,1374.58 525.862,1374.14 527.785,1373.51 529.708,1372.69 531.631,1371.68 533.554,1370.48 535.477,1369.1 537.401,1367.52 539.324,1365.76 541.247,1363.81 543.17,1361.67 545.093,1359.35 547.016,1356.84 548.939,1354.14 550.862,1351.27 552.785,1348.21 554.709,1344.96 556.632,1341.54 558.555,1337.94 560.478,1334.16 562.401,1330.21 564.324,1326.07 566.247,1321.77 568.17,1317.29 570.093,1312.64 572.016,1307.82 573.94,1302.84 575.863,1297.69 577.786,1292.38 579.709,1286.9 581.632,1281.27 583.555,1275.47 585.478,1269.53 587.401,1263.43 589.324,1257.17 591.248,1250.78 593.171,1244.23 595.094,1237.54 597.017,1230.71 598.94,1223.74 600.863,1216.63 602.786,1209.4 604.709,1202.03 606.632,1194.53 608.556,1186.91 610.479,1179.17 612.402,1171.3 614.325,1163.32 616.248,1155.23 618.171,1147.03 620.094,1138.72 622.017,1130.31 623.94,1121.79 625.863,1113.18 627.787,1104.48 629.71,1095.68 631.633,1086.8 633.556,1077.83 635.479,1068.79 637.402,1059.66 639.325,1050.46 641.248,1041.19 643.171,1031.86 645.095,1022.46 647.018,1013 648.941,1003.49 650.864,993.925 652.787,984.311 654.71,974.652 656.633,964.952 658.556,955.214 660.479,945.443 662.403,935.642 664.326,925.815 666.249,915.965 668.172,906.097 670.095,896.213 672.018,886.319 673.941,876.417 675.864,866.512 677.787,856.607 679.71,846.706 681.634,836.813 683.557,826.932 685.48,817.067 687.403,807.22 689.326,797.397 691.249,787.6 693.172,777.834 695.095,768.102 697.018,758.408 698.942,748.756 700.865,739.149 702.788,729.591 704.711,720.086 706.634,710.638 708.557,701.249 710.48,691.924 712.403,682.666 714.326,673.479 716.25,664.366 718.173,655.331 720.096,646.377 722.019,637.507 723.942,628.725 725.865,620.035 727.788,611.439 729.711,602.941 731.634,594.544 733.557,586.251 735.481,578.066 737.404,569.991 739.327,562.03 741.25,554.186 743.173,546.461 745.096,538.858 747.019,531.381 748.942,524.032 750.865,516.814 752.789,509.73 754.712,502.782 756.635,495.973 758.558,489.306 760.481,482.782 762.404,476.405 764.327,470.177 766.25,464.1 768.173,458.177 770.097,452.409 772.02,446.799 773.943,441.349 775.866,436.061 777.789,430.936 779.712,425.977 781.635,421.186 783.558,416.564 785.481,412.112 787.404,407.834 789.328,403.729 791.251,399.8 793.174,396.048 795.097,392.474 797.02,389.08 798.943,385.866 800.866,382.834 802.789,379.986 804.712,377.321 806.636,374.84 808.559,372.546 810.482,370.437 812.405,368.516 814.328,366.782 816.251,365.236 818.174,363.879 820.097,362.711 822.02,361.732 823.944,360.942 825.867,360.342 827.79,359.932 829.713,359.711 831.636,359.68 833.559,359.838 835.482,360.185 837.405,360.721 839.328,361.446 841.251,362.359 843.175,363.459 845.098,364.746 847.021,366.219 848.944,367.877 850.867,369.72 852.79,371.746 854.713,373.956 856.636,376.347 858.559,378.918 860.483,381.668 862.406,384.597 864.329,387.702 866.252,390.982 868.175,394.436 870.098,398.063 872.021,401.859 873.944,405.825 875.867,409.958 877.79,414.256 879.714,418.717 881.637,423.34 883.56,428.122 885.483,433.061 887.406,438.155 889.329,443.403 891.252,448.801 893.175,454.347 895.098,460.039 897.022,465.875 898.945,471.851 900.868,477.966 902.791,484.217 904.714,490.601 906.637,497.115 908.56,503.757 910.483,510.523 912.406,517.411 914.33,524.418 916.253,531.541 918.176,538.777 920.099,546.123 922.022,553.575 923.945,561.131 925.868,568.787 927.791,576.54 929.714,584.387 931.637,592.325 933.561,600.35 935.484,608.458 937.407,616.647 939.33,624.913 941.253,633.252 943.176,641.661 945.099,650.136 947.022,658.674 948.945,667.271 950.869,675.924 952.792,684.628 954.715,693.381 956.638,702.178 958.561,711.017 960.484,719.892 962.407,728.801 964.33,737.739 966.253,746.703 968.177,755.69 970.1,764.695 972.023,773.714 973.946,782.744 975.869,791.782 977.792,800.822 979.715,809.862 981.638,818.897 983.561,827.925 985.484,836.94 987.408,845.939 989.331,854.919 991.254,863.876 993.177,872.806 995.1,881.705 997.023,890.569 998.946,899.395 1000.87,908.179 1002.79,916.917 1004.72,925.606 1006.64,934.242 1008.56,942.821 1010.48,951.34 1012.41,959.795 1014.33,968.182 1016.25,976.499 1018.18,984.741 1020.1,992.906 1022.02,1000.99 1023.95,1008.99 1025.87,1016.9 1027.79,1024.71 1029.72,1032.44 1031.64,1040.06 1033.56,1047.59 1035.49,1055.01 1037.41,1062.32 1039.33,1069.52 1041.25,1076.61 1043.18,1083.58 1045.1,1090.43 1047.02,1097.16 1048.95,1103.76 1050.87,1110.23 1052.79,1116.58 1054.72,1122.79 1056.64,1128.86 1058.56,1134.79 1060.49,1140.58 1062.41,1146.23 1064.33,1151.73 1066.25,1157.08 1068.18,1162.28 1070.1,1167.33 1072.02,1172.22 1073.95,1176.95 1075.87,1181.53 1077.79,1185.94 1079.72,1190.18 1081.64,1194.26 1083.56,1198.18 1085.49,1201.92 1087.41,1205.5 1089.33,1208.9 1091.26,1212.12 1093.18,1215.17 1095.1,1218.05 1097.02,1220.74 1098.95,1223.26 1100.87,1225.59 1102.79,1227.74 1104.72,1229.71 1106.64,1231.5 1108.56,1233.1 1110.49,1234.52 1112.41,1235.75 1114.33,1236.79 1116.26,1237.64 1118.18,1238.31 1120.1,1238.79 1122.03,1239.07 1123.95,1239.17 1125.87,1239.08 1127.79,1238.8 1129.72,1238.34 1131.64,1237.68 1133.56,1236.83 1135.49,1235.79 1137.41,1234.56 1139.33,1233.15 1141.26,1231.54 1143.18,1229.75 1145.1,1227.77 1147.03,1225.61 1148.95,1223.25 1150.87,1220.72 1152.79,1217.99 1154.72,1215.09 1156.64,1212 1158.56,1208.73 1160.49,1205.28 1162.41,1201.65 1164.33,1197.84 1166.26,1193.86 1168.18,1189.7 1170.1,1185.37 1172.03,1180.87 1173.95,1176.19 1175.87,1171.35 1177.8,1166.34 1179.72,1161.16 1181.64,1155.82 1183.56,1150.32 1185.49,1144.66 1187.41,1138.85 1189.33,1132.88 1191.26,1126.75 1193.18,1120.48 1195.1,1114.06 1197.03,1107.49 1198.95,1100.78 1200.87,1093.92 1202.8,1086.93 1204.72,1079.81 1206.64,1072.55 1208.56,1065.16 1210.49,1057.64 1212.41,1050 1214.33,1042.24 1216.26,1034.36 1218.18,1026.36 1220.1,1018.25 1222.03,1010.03 1223.95,1001.71 1225.87,993.28 1227.8,984.752 1229.72,976.126 1231.64,967.407 1233.57,958.598 1235.49,949.702 1237.41,940.722 1239.33,931.662 1241.26,922.526 1243.18,913.316 1245.1,904.037 1247.03,894.692 1248.95,885.285 1250.87,875.818 1252.8,866.297 1254.72,856.723 1256.64,847.102 1258.57,837.437 1260.49,827.731 1262.41,817.988 1264.34,808.212 1266.26,798.406 1268.18,788.575 1270.1,778.722 1272.03,768.851 1273.95,758.966 1275.87,749.07 1277.8,739.168 1279.72,729.263 1281.64,719.358 1283.57,709.458 1285.49,699.567 1287.41,689.688 1289.34,679.825 1291.26,669.982 1293.18,660.162 1295.1,650.37 1297.03,640.609 1298.95,630.882 1300.87,621.195 1302.8,611.549 1304.72,601.95 1306.64,592.4 1308.57,582.904 1310.49,573.464 1312.41,564.085 1314.34,554.77 1316.26,545.523 1318.18,536.347 1320.11,527.246 1322.03,518.223 1323.95,509.282 1325.87,500.426 1327.8,491.658 1329.72,482.982 1331.64,474.401 1333.57,465.918 1335.49,457.537 1337.41,449.261 1339.34,441.093 1341.26,433.035 1343.18,425.092 1345.11,417.266 1347.03,409.56 1348.95,401.976 1350.87,394.519 1352.8,387.19 1354.72,379.993 1356.64,372.93 1358.57,366.003 1360.49,359.216 1362.41,352.571 1364.34,346.07 1366.26,339.716 1368.18,333.511 1370.11,327.458 1372.03,321.558 1373.95,315.815 1375.88,310.229 1377.8,304.804 1379.72,299.541 1381.64,294.442 1383.57,289.509 1385.49,284.743 1387.41,280.148 1389.34,275.723 1391.26,271.471 1393.18,267.394 1395.11,263.492 1397.03,259.767 1398.95,256.221 1400.88,252.855 1402.8,249.669 1404.72,246.666 1406.64,243.845 1408.57,241.209 1410.49,238.757 1412.41,236.492 1414.34,234.412 1416.26,232.52 1418.18,230.815 1420.11,229.298 1422.03,227.97 1423.95,226.831 1425.88,225.882 1427.8,225.122 1429.72,224.551 1431.65,224.17 1433.57,223.978 1435.49,223.977 1437.41,224.164 1439.34,224.541 1441.26,225.106 1443.18,225.86 1445.11,226.801 1447.03,227.931 1448.95,229.246 1450.88,230.748 1452.8,232.435 1454.72,234.307 1456.65,236.362 1458.57,238.599 1460.49,241.018 1462.42,243.617 1464.34,246.395 1466.26,249.351 1468.18,252.483 1470.11,255.791 1472.03,259.272 1473.95,262.924 1475.88,266.747 1477.8,270.739 1479.72,274.897 1481.65,279.221 1483.57,283.707 1485.49,288.355 1487.42,293.161 1489.34,298.125 1491.26,303.243 1493.18,308.514 1495.11,313.935 1497.03,319.504 1498.95,325.219 1500.88,331.076 1502.8,337.074 1504.72,343.211 1506.65,349.482 1508.57,355.886 1510.49,362.42 1512.42,369.081 1514.34,375.867 1516.26,382.773 1518.19,389.799 1520.11,396.939 1522.03,404.192 1523.95,411.555 1525.88,419.023 1527.8,426.595 1529.72,434.266 1531.65,442.034 1533.57,449.896 1535.49,457.847 1537.42,465.885 1539.34,474.006 1541.26,482.207 1543.19,490.484 1545.11,498.834 1547.03,507.254 1548.95,515.739 1550.88,524.286 1552.8,532.892 1554.72,541.553 1556.65,550.266 1558.57,559.026 1560.49,567.83 1562.42,576.674 1564.34,585.554 1566.26,594.468 1568.19,603.411 1570.11,612.379 1572.03,621.368 1573.96,630.376 1575.88,639.397 1577.8,648.429 1579.72,657.466 1581.65,666.507 1583.57,675.546 1585.49,684.581 1587.42,693.607 1589.34,702.62 1591.26,711.616 1593.19,720.593 1595.11,729.546 1597.03,738.471 1598.96,747.365 1600.88,756.223 1602.8,765.043 1604.72,773.82 1606.65,782.551 1608.57,791.232 1610.49,799.859 1612.42,808.429 1614.34,816.938 1616.26,825.383 1618.19,833.76 1620.11,842.066 1622.03,850.296 1623.96,858.448 1625.88,866.518 1627.8,874.502 1629.73,882.398 1631.65,890.202 1633.57,897.911 1635.49,905.521 1637.42,913.029 1639.34,920.432 1641.26,927.727 1643.19,934.911 1645.11,941.981 1647.03,948.933 1648.96,955.765 1650.88,962.473 1652.8,969.056 1654.73,975.51 1656.65,981.832 1658.57,988.02 1660.5,994.071 1662.42,999.982 1664.34,1005.75 1666.26,1011.38 1668.19,1016.85 1670.11,1022.18 1672.03,1027.36 1673.96,1032.38 1675.88,1037.25 1677.8,1041.96 1679.73,1046.5 1681.65,1050.89 1683.57,1055.11 1685.5,1059.17 1687.42,1063.05 1689.34,1066.77 1691.26,1070.32 1693.19,1073.69 1695.11,1076.89 1697.03,1079.91 1698.96,1082.76 1700.88,1085.43 1702.8,1087.91 1704.73,1090.22 1706.65,1092.35 1708.57,1094.29 1710.5,1096.04 1712.42,1097.62 1714.34,1099 1716.27,1100.2 1718.19,1101.22 1720.11,1102.04 1722.03,1102.68 1723.96,1103.13 1725.88,1103.39 1727.8,1103.46 1729.73,1103.34 1731.65,1103.03 1733.57,1102.53 1735.5,1101.84 1737.42,1100.96 1739.34,1099.9 1741.27,1098.64 1743.19,1097.2 1745.11,1095.56 1747.03,1093.74 1748.96,1091.73 1750.88,1089.54 1752.8,1087.16 1754.73,1084.59 1756.65,1081.84 1758.57,1078.91 1760.5,1075.79 1762.42,1072.49 1764.34,1069.02 1766.27,1065.36 1768.19,1061.52 1770.11,1057.51 1772.04,1053.33 1773.96,1048.97 1775.88,1044.44 1777.8,1039.74 1779.73,1034.87 1781.65,1029.83 1783.57,1024.63 1785.5,1019.27 1787.42,1013.74 1789.34,1008.06 1791.27,1002.22 1793.19,996.223 1795.11,990.075 1797.04,983.778 1798.96,977.332 1800.88,970.742 1802.8,964.008 1804.73,957.135 1806.65,950.123 1808.57,942.976 1810.5,935.697 1812.42,928.288 1814.34,920.753 1816.27,913.093 1818.19,905.312 1820.11,897.413 1822.04,889.399 1823.96,881.272 1825.88,873.036 1827.81,864.695 1829.73,856.251 1831.65,847.707 1833.57,839.066 1835.5,830.333 1837.42,821.51 1839.34,812.601 1841.27,803.609 1843.19,794.537 1845.11,785.389 1847.04,776.168 1848.96,766.879 1850.88,757.524 1852.81,748.107 1854.73,738.632 1856.65,729.102 1858.58,719.521 1860.5,709.893 1862.42,700.221 1864.34,690.509 1866.27,680.76 1868.19,670.979 1870.11,661.17 1872.04,651.335 1873.96,641.479 1875.88,631.606 1877.81,621.719 1879.73,611.822 1881.65,601.918 1883.58,592.013 1885.5,582.109 1887.42,572.21 1889.34,562.321 1891.27,552.444 1893.19,542.583 1895.11,532.744 1897.04,522.928 1898.96,513.14 1900.88,503.384 1902.81,493.664 1904.73,483.983 1906.65,474.344 1908.58,464.752 1910.5,455.21 1912.42,445.722 1914.35,436.292 1916.27,426.923 1918.19,417.618 1920.11,408.382 1922.04,399.217 1923.96,390.128 1925.88,381.118 1927.81,372.189 1929.73,363.347 1931.65,354.593 1933.58,345.931 1935.5,337.365 1937.42,328.898 1939.35,320.533 1941.27,312.273 1943.19,304.122 1945.11,296.082 1947.04,288.157 1948.96,280.349 1950.88,272.662 1952.81,265.098 1954.73,257.66 1956.65,250.351 1958.58,243.175 1960.5,236.132 1962.42,229.227 1964.35,222.462 1966.27,215.839 1968.19,209.361 1970.12,203.03 1972.04,196.848 1973.96,190.818 1975.88,184.943 1977.81,179.224 1979.73,173.663 1981.65,168.263 1983.58,163.025 1985.5,157.951 1987.42,153.044 1989.35,148.305 1991.27,143.736 1993.19,139.338 1995.12,135.113 1997.04,131.063 1998.96,127.188 2000.89,123.491 2002.81,119.973 2004.73,116.634 2006.65,113.477 2008.58,110.502 2010.5,107.71 2012.42,105.102 2014.35,102.679 2016.27,100.442 2018.19,98.3914 2020.12,96.5281 2022.04,94.8525 2023.96,93.3651 2025.89,92.0664 2027.81,90.9568 2029.73,90.0364 2031.65,89.3055 2033.58,88.7642 2035.5,88.4126 2037.42,88.2505 2039.35,88.278 2041.27,88.4948 2043.19,88.9007 2045.12,89.4953 2047.04,90.2782 2048.96,91.2489 2050.89,92.4069 2052.81,93.7515 2054.73,95.2821 2056.66,96.9977 2058.58,98.8977 2060.5,100.981 2062.42,103.247 2064.35,105.693 2066.27,108.32 2068.19,111.126 2070.12,114.109 2072.04,117.269 2073.96,120.603 2075.89,124.111 2077.81,127.79 2079.73,131.639 2081.66,135.657 2083.58,139.841 2085.5,144.19 2087.42,148.701 2089.35,153.374 2091.27,158.205 2093.19,163.192 2095.12,168.334 2097.04,173.629 2098.96,179.073 2100.89,184.664 2102.81,190.401 2104.73,196.281 2106.66,202.301 2108.58,208.458 2110.5,214.75 2112.43,221.175 2114.35,227.728 2116.27,234.409 2118.19,241.213 2120.12,248.139 2122.04,255.182 2123.96,262.34 2125.89,269.61 2127.81,276.989 2129.73,284.474 2131.66,292.062 2133.58,299.748 2135.5,307.531 2137.43,315.406 2139.35,323.371 2141.27,331.422 2143.19,339.556 2145.12,347.769 2147.04,356.058 2148.96,364.419 2150.89,372.849 2152.81,381.344 2154.73,389.9 2156.66,398.515 2158.58,407.184 2160.5,415.904 2162.43,424.671 2164.35,433.482 2166.27,442.332 2168.2,451.218 2170.12,460.136 2172.04,469.083 2173.96,478.055 2175.89,487.047 2177.81,496.057 2179.73,505.08 2181.66,514.113 2183.58,523.152 2185.5,532.192 2187.43,541.231 2189.35,550.264 2191.27,559.288 2193.2,568.299 2195.12,577.293 2197.04,586.266 2198.97,595.215 2200.89,604.135 2202.81,613.024 2204.73,621.877 2206.66,630.69 2208.58,639.46 2210.5,648.184 2212.43,656.856 2214.35,665.475 2216.27,674.036 2218.2,682.536 2220.12,690.97 2222.04,699.336 2223.97,707.63 2225.89,715.849 2227.81,723.988 2229.73,732.045 2231.66,740.016 2233.58,747.898 2235.5,755.687 2237.43,763.381 2239.35,770.975 2241.27,778.468 2243.2,785.854 2245.12,793.132 2247.04,800.298 2248.97,807.35 2250.89,814.284 2252.81,821.097 2254.74,827.786 2256.66,834.349 2258.58,840.783 2260.5,847.084 2262.43,853.251 2264.35,859.281 2266.27,865.17 2268.2,870.917 2270.12,876.519 2272.04,881.974 2273.97,887.279 2275.89,892.432 2277.81,897.431 2279.74,902.273 2281.66,906.956 2283.58,911.479 2285.5,915.839 2287.43,920.035 2289.35,924.065 2291.27,927.926 2293.2,931.617 2295.12,935.137 "></polyline>
<polyline clip-path="url(#clip252)" style="stroke:#3da44d; stroke-linecap:round; stroke-linejoin:round; stroke-width:8; stroke-opacity:1; fill:none" stroke-dasharray="32, 16, 4, 16" points="373.936,935.859 375.86,944.162 377.783,954.993 379.706,963.657 381.629,974.126 383.552,984.957 385.475,995.155 387.398,1004.9 389.321,1016.18 391.244,1027.11 393.168,1038.3 395.091,1047.95 397.014,1059.6 398.937,1069.52 400.86,1079.9 402.783,1092.09 404.706,1102.65 406.629,1113.12 408.552,1123.5 410.475,1134.87 412.399,1144.43 414.322,1155.08 416.245,1166.19 418.168,1175.03 420.091,1184.42 422.014,1194.44 423.937,1203.64 425.86,1213.84 427.783,1223.32 429.707,1230.81 431.63,1240.28 433.553,1248.86 435.476,1257.25 437.399,1264.29 439.322,1273.14 441.245,1280.27 443.168,1288.48 445.091,1294.89 447.015,1302.2 448.938,1308.61 450.861,1314.74 452.784,1320.88 454.707,1326.48 456.63,1333.15 458.553,1337.49 460.476,1342.54 462.399,1345.97 464.322,1350.93 466.246,1355.9 468.169,1358.79 470.092,1364.02 472.015,1365.19 473.938,1369.62 475.861,1372.51 477.784,1374.76 479.707,1377.74 481.63,1378.01 483.554,1380.81 485.477,1381.53 487.4,1382.88 489.323,1383.79 491.246,1383.97 493.169,1384.24 495.092,1384.24 497.015,1383.7 498.938,1384.06 500.862,1382.52 502.785,1380.99 504.708,1379.64 506.631,1378.37 508.554,1377.02 510.477,1375.21 512.4,1372.6 514.323,1369.35 516.246,1367.45 518.169,1364.47 520.093,1361.49 522.016,1356.26 523.939,1353.46 525.862,1350.21 527.785,1345.97 529.708,1341.55 531.631,1336.67 533.554,1331.62 535.477,1327.2 537.401,1322.14 539.324,1315.83 541.247,1311.22 543.17,1305.72 545.093,1299.49 547.016,1294.53 548.939,1287.22 550.862,1281.44 552.785,1274.49 554.709,1268.71 556.632,1262.22 558.555,1254.63 560.478,1247.87 562.401,1241.19 564.324,1233.33 566.247,1226.38 568.17,1218.35 570.093,1211.49 572.016,1203.91 573.94,1195.88 575.863,1187.49 577.786,1180.27 579.709,1171.78 581.632,1164.11 583.555,1155.72 585.478,1147.32 587.401,1138.93 589.324,1131.98 591.248,1122.68 593.171,1113.93 595.094,1106.17 597.017,1097.77 598.94,1088.48 600.863,1080.35 602.786,1071.15 604.709,1061.94 606.632,1054 608.556,1045.61 610.479,1036.31 612.402,1026.83 614.325,1018.08 616.248,1009.78 618.171,1001.83 620.094,991.906 622.017,984.144 623.94,975.751 625.863,966.906 627.787,957.61 629.71,949.577 631.633,941.455 633.556,931.978 635.479,924.487 637.402,916.093 639.325,908.512 641.248,898.313 643.171,890.371 645.095,882.158 647.018,875.118 648.941,866.634 650.864,858.963 652.787,850.208 654.71,842.446 656.633,834.955 658.556,826.833 660.479,819.342 662.403,812.302 664.326,805.352 666.249,797.41 668.172,789.919 670.095,782.247 672.018,775.839 673.941,768.168 675.864,760.857 677.787,754.991 679.71,748.583 681.634,740.641 683.557,733.962 685.48,727.915 687.403,721.958 689.326,715.279 691.249,709.323 693.172,703.727 695.095,698.041 697.018,691.452 698.942,685.225 700.865,680.08 702.788,675.839 704.711,670.423 706.634,664.376 708.557,659.232 710.48,654.358 712.403,650.207 714.326,644.521 716.25,640.82 718.173,635.946 720.096,632.878 722.019,626.831 723.942,623.762 725.865,619.25 727.788,616 729.711,612.661 731.634,609.592 733.557,604.629 735.481,601.56 737.404,598.491 739.327,595.964 741.25,592.174 743.173,590.007 745.096,587.571 747.019,585.043 748.942,583.148 750.865,580.531 752.789,577.552 754.712,576.018 756.635,573.852 758.558,571.776 760.481,570.874 762.404,568.617 764.327,567.986 766.25,566.451 768.173,564.827 770.097,564.736 772.02,564.195 773.943,562.48 775.866,561.939 777.789,561.668 779.712,561.217 781.635,560.495 783.558,560.675 785.481,559.321 787.404,560.585 789.328,560.495 791.251,560.675 793.174,562.119 795.097,561.758 797.02,561.939 798.943,563.834 800.866,563.112 802.789,563.022 804.712,565.278 806.636,567.354 808.559,566.451 810.482,568.527 812.405,569.791 814.328,572.498 816.251,574.484 818.174,574.574 820.097,576.74 822.02,578.184 823.944,580.08 825.867,582.336 827.79,584.231 829.713,586.939 831.636,589.195 833.559,592.444 835.482,593.888 837.405,596.235 839.328,599.574 841.251,601.56 843.175,604.448 845.098,606.614 847.021,609.683 848.944,612.751 850.867,614.737 852.79,618.437 854.713,621.145 856.636,624.755 858.559,628.004 860.483,631.975 862.406,634.232 864.329,636.668 866.252,641.813 868.175,644.25 870.098,647.679 872.021,651.741 873.944,654.99 875.867,658.69 877.79,662.571 879.714,665.369 881.637,670.153 883.56,673.402 885.483,677.192 887.406,680.802 889.329,684.322 891.252,689.196 893.175,691.813 895.098,695.785 897.022,698.853 898.945,703.817 900.868,706.795 902.791,711.218 904.714,715.37 906.637,719.16 908.56,723.041 910.483,727.644 912.406,730.532 914.33,735.767 916.253,739.377 918.176,743.619 920.099,746.958 922.022,751.29 923.945,754.449 925.868,759.143 927.791,764.377 929.714,766.182 931.637,770.334 933.561,775.208 935.484,778.096 937.407,782.699 939.33,785.858 941.253,789.829 943.176,792.717 945.099,798.403 947.022,802.013 948.945,804.721 950.869,809.594 952.792,811.851 954.715,815.37 956.638,819.883 958.561,823.854 960.484,826.201 962.407,830.262 964.33,833.602 966.253,837.122 968.177,840.551 970.1,843.53 972.023,847.41 973.946,851.021 975.869,854.631 977.792,856.346 979.715,860.497 981.638,862.212 983.561,865.912 985.484,868.71 987.408,872.681 989.331,875.84 991.254,877.104 993.177,879.992 995.1,883.331 997.023,884.866 998.946,887.754 1000.87,891.003 1002.79,893.62 1004.72,896.057 1006.64,898.674 1008.56,901.111 1010.48,903.007 1012.41,905.534 1014.33,907.7 1016.25,909.776 1018.18,911.129 1020.1,913.747 1022.02,915.371 1023.95,917.176 1025.87,918.44 1027.79,920.426 1029.72,922.411 1031.64,925.299 1033.56,924.487 1035.49,926.924 1037.41,928.278 1039.33,929.812 1041.25,930.534 1043.18,931.617 1045.1,932.7 1047.02,934.866 1048.95,934.234 1050.87,936.4 1052.79,936.671 1054.72,936.852 1056.64,938.657 1058.56,939.559 1060.49,939.288 1062.41,939.108 1064.33,940.011 1066.25,940.191 1068.18,940.462 1070.1,941.545 1072.02,941.996 1073.95,941.545 1075.87,941.816 1077.79,941.184 1079.72,941.816 1081.64,940.462 1083.56,939.92 1085.49,939.65 1087.41,940.642 1089.33,939.288 1091.26,938.657 1093.18,938.747 1095.1,938.115 1097.02,936.852 1098.95,935.949 1100.87,935.137 1102.79,934.776 1104.72,933.783 1106.64,932.971 1108.56,931.346 1110.49,931.256 1112.41,929.361 1114.33,927.375 1116.26,925.841 1118.18,925.57 1120.1,924.306 1122.03,922.682 1123.95,919.523 1125.87,919.342 1127.79,916.996 1129.72,914.92 1131.64,913.476 1133.56,912.664 1135.49,909.685 1137.41,907.068 1139.33,906.346 1141.26,903.007 1143.18,901.472 1145.1,899.126 1147.03,897.862 1148.95,894.884 1150.87,892.988 1152.79,890.281 1154.72,888.295 1156.64,886.31 1158.56,883.873 1160.49,880.263 1162.41,878.097 1164.33,874.938 1166.26,872.952 1168.18,869.974 1170.1,867.176 1172.03,863.837 1173.95,861.58 1175.87,858.512 1177.8,855.172 1179.72,852.826 1181.64,850.569 1183.56,846.598 1185.49,844.161 1187.41,840.732 1189.33,837.663 1191.26,834.324 1193.18,831.075 1195.1,828.186 1197.03,825.569 1198.95,822.049 1200.87,819.432 1202.8,814.919 1204.72,812.392 1206.64,809.233 1208.56,805.984 1210.49,802.013 1212.41,798.042 1214.33,795.605 1216.26,792.446 1218.18,789.197 1220.1,785.406 1222.03,781.977 1223.95,778.818 1225.87,775.478 1227.8,772.41 1229.72,767.536 1231.64,765.189 1233.57,762.482 1235.49,758.42 1237.41,754.901 1239.33,750.207 1241.26,747.861 1243.18,744.341 1245.1,740.821 1247.03,737.662 1248.95,734.233 1250.87,729.9 1252.8,728.005 1254.72,723.312 1256.64,719.972 1258.57,716.994 1260.49,713.113 1262.41,710.315 1264.34,707.247 1266.26,702.644 1268.18,699.846 1270.1,696.597 1272.03,693.889 1273.95,690.369 1275.87,686.669 1277.8,683.42 1279.72,681.615 1281.64,677.463 1283.57,674.575 1285.49,671.506 1287.41,668.528 1289.34,664.376 1291.26,662.03 1293.18,658.961 1295.1,656.163 1297.03,652.282 1298.95,649.665 1300.87,646.326 1302.8,644.069 1304.72,640.82 1306.64,638.835 1308.57,635.315 1310.49,633.239 1312.41,630.08 1314.34,626.921 1316.26,625.116 1318.18,621.867 1320.11,619.881 1322.03,617.264 1323.95,614.827 1325.87,612.842 1327.8,609.863 1329.72,608.87 1331.64,605.531 1333.57,602.553 1335.49,601.65 1337.41,598.943 1339.34,596.235 1341.26,594.791 1343.18,592.174 1345.11,590.278 1347.03,589.195 1348.95,587.39 1350.87,585.043 1352.8,582.877 1354.72,581.524 1356.64,579.448 1358.57,578.545 1360.49,576.018 1362.41,575.838 1364.34,573.672 1366.26,571.144 1368.18,570.603 1370.11,568.617 1372.03,568.166 1373.95,567.534 1375.88,564.917 1377.8,564.285 1379.72,563.202 1381.64,562.3 1383.57,560.043 1385.49,559.863 1387.41,559.863 1389.34,557.787 1391.26,558.238 1393.18,557.245 1395.11,557.336 1397.03,556.253 1398.95,554.989 1400.88,554.357 1402.8,553.906 1404.72,554.538 1406.64,554.087 1408.57,554.177 1410.49,554.087 1412.41,553.726 1414.34,553.545 1416.26,553.726 1418.18,553.184 1420.11,553.635 1422.03,553.455 1423.95,554.718 1425.88,554.538 1427.8,555.531 1429.72,554.899 1431.65,556.072 1433.57,556.975 1435.49,557.245 1437.41,558.419 1439.34,557.697 1441.26,559.321 1443.18,560.404 1445.11,560.765 1447.03,562.119 1448.95,563.112 1450.88,562.661 1452.8,563.473 1454.72,565.549 1456.65,566.361 1458.57,567.715 1460.49,569.52 1462.42,569.61 1464.34,572.318 1466.26,572.137 1468.18,574.303 1470.11,575.116 1472.03,576.469 1473.95,579.358 1475.88,579.809 1477.8,582.516 1479.72,583.96 1481.65,584.863 1483.57,586.849 1485.49,589.737 1487.42,592.083 1489.34,593.347 1491.26,594.971 1493.18,597.318 1495.11,598.762 1497.03,600.928 1498.95,603.726 1500.88,605.26 1502.8,607.156 1504.72,610.405 1506.65,611.398 1508.57,614.556 1510.49,616.452 1512.42,619.52 1514.34,620.874 1516.26,622.95 1518.19,626.921 1520.11,629.358 1522.03,631.434 1523.95,633.51 1525.88,636.668 1527.8,639.015 1529.72,641.001 1531.65,643.708 1533.57,645.784 1535.49,650.929 1537.42,652.373 1539.34,654.719 1541.26,657.788 1543.19,660.586 1545.11,663.293 1547.03,666.542 1548.95,669.07 1550.88,671.416 1552.8,673.853 1554.72,677.283 1556.65,679.539 1558.57,682.608 1560.49,685.405 1562.42,688.474 1564.34,691.272 1566.26,694.07 1568.19,696.507 1570.11,698.763 1572.03,702.644 1573.96,703.817 1575.88,708.24 1577.8,711.85 1579.72,713.745 1581.65,716.182 1583.57,719.25 1585.49,723.402 1587.42,724.936 1589.34,728.005 1591.26,731.705 1593.19,733.781 1595.11,735.947 1597.03,740.641 1598.96,742.536 1600.88,745.243 1602.8,748.312 1604.72,750.207 1606.65,754.269 1608.57,756.706 1610.49,757.879 1612.42,760.767 1614.34,764.106 1616.26,767.265 1618.19,769.251 1620.11,771.958 1622.03,774.395 1623.96,776.832 1625.88,779.089 1627.8,781.255 1629.73,784.413 1631.65,786.67 1633.57,789.107 1635.49,791.453 1637.42,793.168 1639.34,796.056 1641.26,798.042 1643.19,800.479 1645.11,802.554 1647.03,804.991 1648.96,806.435 1650.88,807.699 1652.8,810.677 1654.73,812.934 1656.65,814.378 1658.57,815.731 1660.5,817.266 1662.42,820.425 1664.34,820.515 1666.26,822.861 1668.19,824.576 1670.11,825.84 1672.03,826.652 1673.96,828.547 1675.88,829.63 1677.8,831.075 1679.73,833.06 1681.65,834.504 1683.57,834.504 1685.5,837.212 1687.42,837.483 1689.34,838.475 1691.26,840.1 1693.19,840.732 1695.11,840.732 1697.03,840.461 1698.96,841.905 1700.88,843.53 1702.8,843.53 1704.73,843.891 1706.65,843.981 1708.57,843.8 1710.5,844.613 1712.42,845.154 1714.34,846.057 1716.27,845.064 1718.19,845.786 1720.11,845.605 1722.03,845.244 1723.96,846.057 1725.88,844.522 1727.8,845.335 1729.73,844.342 1731.65,842.988 1733.57,843.981 1735.5,843.078 1737.42,841.363 1739.34,840.461 1741.27,840.371 1743.19,839.107 1745.11,838.024 1747.03,837.844 1748.96,836.309 1750.88,835.046 1752.8,833.15 1754.73,832.248 1756.65,830.804 1758.57,829.992 1760.5,828.367 1762.42,826.381 1764.34,825.118 1766.27,823.132 1768.19,821.869 1770.11,818.439 1772.04,816.634 1773.96,814.829 1775.88,812.482 1777.8,809.414 1779.73,808.601 1781.65,806.526 1783.57,803.728 1785.5,801.381 1787.42,798.313 1789.34,795.424 1791.27,792.536 1793.19,789.738 1795.11,785.767 1797.04,784.233 1798.96,780.803 1800.88,778.005 1802.8,773.764 1804.73,770.966 1806.65,767.807 1808.57,763.926 1810.5,760.767 1812.42,758.24 1814.34,754.54 1816.27,749.937 1818.19,746.236 1820.11,743.258 1822.04,737.933 1823.96,734.594 1825.88,730.803 1827.81,727.464 1829.73,723.312 1831.65,718.799 1833.57,714.648 1835.5,711.398 1837.42,706.525 1839.34,701.29 1841.27,696.687 1843.19,692.987 1845.11,687.752 1847.04,684.413 1848.96,679.358 1850.88,675.026 1852.81,669.611 1854.73,664.106 1856.65,659.051 1858.58,654.539 1860.5,650.477 1862.42,644.791 1864.34,640.64 1866.27,635.856 1868.19,630.17 1870.11,625.206 1872.04,620.603 1873.96,614.376 1875.88,609.412 1877.81,603.816 1879.73,599.033 1881.65,593.347 1883.58,587.932 1885.5,584.141 1887.42,576.469 1889.34,572.589 1891.27,566.632 1893.19,560.134 1895.11,555.801 1897.04,549.574 1898.96,544.881 1900.88,539.556 1902.81,532.606 1904.73,527.552 1906.65,522.949 1908.58,516.992 1910.5,509.772 1912.42,504.898 1914.35,499.483 1916.27,493.797 1918.19,488.743 1920.11,483.328 1922.04,476.739 1923.96,471.234 1925.88,466.541 1927.81,460.855 1929.73,453.815 1931.65,449.302 1933.58,443.436 1935.5,437.208 1937.42,432.064 1939.35,425.927 1941.27,421.143 1943.19,416.179 1945.11,410.042 1947.04,405.71 1948.96,399.753 1950.88,393.255 1952.81,389.193 1954.73,383.868 1956.65,378.273 1958.58,372.948 1960.5,369.157 1962.42,362.839 1964.35,357.334 1966.27,353.182 1968.19,348.94 1970.12,342.442 1972.04,337.929 1973.96,332.334 1975.88,328.814 1977.81,323.94 1979.73,319.788 1981.65,314.463 1983.58,309.5 1985.5,305.889 1987.42,301.106 1989.35,296.593 1991.27,292.893 1993.19,288.29 1995.12,283.868 1997.04,279.987 1998.96,276.828 2000.89,271.683 2002.81,267.622 2004.73,265.636 2006.65,262.477 2008.58,256.972 2010.5,254.084 2012.42,251.106 2014.35,248.578 2016.27,244.517 2018.19,241.539 2020.12,238.741 2022.04,236.304 2023.96,232.874 2025.89,230.979 2027.81,228.542 2029.73,225.835 2031.65,224.3 2033.58,220.78 2035.5,219.427 2037.42,216.629 2039.35,215.365 2041.27,213.199 2043.19,212.297 2045.12,209.769 2047.04,208.235 2048.96,208.235 2050.89,207.062 2052.81,205.076 2054.73,205.528 2056.66,204.625 2058.58,203.271 2060.5,203.452 2062.42,201.917 2064.35,202.91 2066.27,202.369 2068.19,202.91 2070.12,204.174 2072.04,203 2073.96,204.535 2075.89,204.805 2077.81,204.986 2079.73,206.069 2081.66,208.506 2083.58,208.686 2085.5,210.04 2087.42,211.394 2089.35,212.658 2091.27,214.372 2093.19,217.17 2095.12,218.253 2097.04,220.329 2098.96,222.946 2100.89,226.105 2102.81,227.64 2104.73,231.069 2106.66,234.138 2108.58,236.845 2110.5,241.268 2112.43,244.427 2114.35,247.766 2116.27,250.745 2118.19,255.438 2120.12,259.319 2122.04,263.47 2123.96,268.434 2125.89,272.225 2127.81,276.918 2129.73,281.431 2131.66,286.575 2133.58,291.449 2135.5,297.135 2137.43,301.738 2139.35,308.055 2141.27,314.373 2143.19,319.969 2145.12,325.926 2147.04,332.153 2148.96,337.298 2150.89,344.247 2152.81,349.662 2154.73,357.063 2156.66,363.561 2158.58,370.782 2160.5,377.009 2162.43,383.146 2164.35,391.179 2166.27,397.858 2168.2,406.432 2170.12,413.02 2172.04,421.775 2173.96,429.176 2175.89,437.028 2177.81,444.429 2179.73,453.273 2181.66,462.299 2183.58,470.241 2185.5,478.635 2187.43,487.57 2189.35,495.873 2191.27,504.357 2193.2,513.021 2195.12,520.964 2197.04,530.079 2198.97,539.014 2200.89,546.957 2202.81,556.704 2204.73,565.819 2206.66,575.386 2208.58,584.141 2210.5,593.708 2212.43,602.553 2214.35,612.932 2216.27,621.235 2218.2,630.802 2220.12,640.188 2222.04,648.943 2223.97,658.149 2225.89,667.716 2227.81,676.741 2229.73,685.766 2231.66,694.882 2233.58,704.9 2235.5,713.655 2237.43,721.958 2239.35,731.976 2241.27,741.002 2243.2,749.576 2245.12,759.504 2247.04,767.987 2248.97,775.93 2250.89,785.497 2252.81,793.078 2254.74,802.193 2256.66,809.504 2258.58,818.62 2260.5,825.93 2262.43,834.053 2264.35,842.176 2266.27,848.945 2268.2,856.436 2270.12,863.476 2272.04,870.967 2273.97,877.916 2275.89,884.053 2277.81,890.461 2279.74,895.696 2281.66,902.014 2283.58,907.429 2285.5,913.025 2287.43,918.35 2289.35,921.779 2291.27,926.292 2293.2,932.068 2295.12,934.956 "></polyline>
<path clip-path="url(#clip250)" d="M1853.24 1377.32 L2284.87 1377.32 L2284.87 1169.96 L1853.24 1169.96  Z" fill="#ffffff" fill-rule="evenodd" fill-opacity="1"></path>
<polyline clip-path="url(#clip250)" style="stroke:#000000; stroke-linecap:round; stroke-linejoin:round; stroke-width:4; stroke-opacity:1; fill:none" points="1853.24,1377.32 2284.87,1377.32 2284.87,1169.96 1853.24,1169.96 1853.24,1377.32 "></polyline>
<polyline clip-path="url(#clip250)" style="stroke:#009af9; stroke-linecap:round; stroke-linejoin:round; stroke-width:4; stroke-opacity:1; fill:none" points="1875.87,1221.8 2011.63,1221.8 "></polyline>
<path clip-path="url(#clip250)" d="M2034.26 1204.52 L2054.12 1204.52 L2054.12 1208.45 L2038.94 1208.45 L2038.94 1218.64 L2052.64 1218.64 L2052.64 1222.57 L2038.94 1222.57 L2038.94 1239.08 L2034.26 1239.08 L2034.26 1204.52 Z" fill="#000000" fill-rule="nonzero" fill-opacity="1"></path><path clip-path="url(#clip250)" d="M2061.53 1204.52 L2083.38 1204.52 L2083.38 1208.45 L2066.21 1208.45 L2066.21 1218.68 L2082.66 1218.68 L2082.66 1222.62 L2066.21 1222.62 L2066.21 1235.14 L2083.8 1235.14 L2083.8 1239.08 L2061.53 1239.08 L2061.53 1204.52 Z" fill="#000000" fill-rule="nonzero" fill-opacity="1"></path><path clip-path="url(#clip250)" d="M2091.48 1204.52 L2098.45 1204.52 L2107.27 1228.03 L2116.14 1204.52 L2123.1 1204.52 L2123.1 1239.08 L2118.54 1239.08 L2118.54 1208.73 L2109.63 1232.43 L2104.93 1232.43 L2096.02 1208.73 L2096.02 1239.08 L2091.48 1239.08 L2091.48 1204.52 Z" fill="#000000" fill-rule="nonzero" fill-opacity="1"></path><polyline clip-path="url(#clip250)" style="stroke:#e26f46; stroke-linecap:round; stroke-linejoin:round; stroke-width:4; stroke-opacity:1; fill:none" stroke-dasharray="16, 10" points="1875.87,1273.64 2011.63,1273.64 "></polyline>
<path clip-path="url(#clip250)" d="M2050.1 1260.96 L2043.75 1278.16 L2056.46 1278.16 L2050.1 1260.96 M2047.46 1256.36 L2052.76 1256.36 L2065.93 1290.92 L2061.07 1290.92 L2057.92 1282.05 L2042.34 1282.05 L2039.19 1290.92 L2034.26 1290.92 L2047.46 1256.36 Z" fill="#000000" fill-rule="nonzero" fill-opacity="1"></path><path clip-path="url(#clip250)" d="M2092.34 1275.27 L2092.34 1290.92 L2088.08 1290.92 L2088.08 1275.41 Q2088.08 1271.73 2086.65 1269.9 Q2085.21 1268.07 2082.34 1268.07 Q2078.89 1268.07 2076.9 1270.27 Q2074.91 1272.47 2074.91 1276.26 L2074.91 1290.92 L2070.63 1290.92 L2070.63 1264.99 L2074.91 1264.99 L2074.91 1269.02 Q2076.44 1266.68 2078.5 1265.52 Q2080.58 1264.36 2083.29 1264.36 Q2087.76 1264.36 2090.05 1267.14 Q2092.34 1269.9 2092.34 1275.27 Z" fill="#000000" fill-rule="nonzero" fill-opacity="1"></path><path clip-path="url(#clip250)" d="M2112.62 1277.88 Q2107.46 1277.88 2105.47 1279.06 Q2103.47 1280.24 2103.47 1283.09 Q2103.47 1285.36 2104.96 1286.7 Q2106.46 1288.02 2109.03 1288.02 Q2112.57 1288.02 2114.7 1285.52 Q2116.85 1283 2116.85 1278.83 L2116.85 1277.88 L2112.62 1277.88 M2121.11 1276.12 L2121.11 1290.92 L2116.85 1290.92 L2116.85 1286.98 Q2115.4 1289.34 2113.22 1290.48 Q2111.04 1291.59 2107.9 1291.59 Q2103.91 1291.59 2101.55 1289.36 Q2099.22 1287.12 2099.22 1283.37 Q2099.22 1278.99 2102.13 1276.77 Q2105.07 1274.55 2110.88 1274.55 L2116.85 1274.55 L2116.85 1274.13 Q2116.85 1271.19 2114.91 1269.6 Q2112.99 1267.98 2109.49 1267.98 Q2107.27 1267.98 2105.16 1268.51 Q2103.06 1269.04 2101.11 1270.11 L2101.11 1266.17 Q2103.45 1265.27 2105.65 1264.83 Q2107.85 1264.36 2109.93 1264.36 Q2115.56 1264.36 2118.34 1267.28 Q2121.11 1270.2 2121.11 1276.12 Z" fill="#000000" fill-rule="nonzero" fill-opacity="1"></path><path clip-path="url(#clip250)" d="M2129.89 1254.9 L2134.15 1254.9 L2134.15 1290.92 L2129.89 1290.92 L2129.89 1254.9 Z" fill="#000000" fill-rule="nonzero" fill-opacity="1"></path><path clip-path="url(#clip250)" d="M2153.84 1293.32 Q2152.04 1297.95 2150.33 1299.36 Q2148.61 1300.78 2145.74 1300.78 L2142.34 1300.78 L2142.34 1297.21 L2144.84 1297.21 Q2146.6 1297.21 2147.57 1296.38 Q2148.54 1295.54 2149.72 1292.44 L2150.49 1290.5 L2140 1264.99 L2144.52 1264.99 L2152.62 1285.27 L2160.72 1264.99 L2165.23 1264.99 L2153.84 1293.32 Z" fill="#000000" fill-rule="nonzero" fill-opacity="1"></path><path clip-path="url(#clip250)" d="M2175.33 1257.63 L2175.33 1264.99 L2184.1 1264.99 L2184.1 1268.3 L2175.33 1268.3 L2175.33 1282.37 Q2175.33 1285.54 2176.18 1286.45 Q2177.06 1287.35 2179.72 1287.35 L2184.1 1287.35 L2184.1 1290.92 L2179.72 1290.92 Q2174.79 1290.92 2172.92 1289.09 Q2171.04 1287.23 2171.04 1282.37 L2171.04 1268.3 L2167.92 1268.3 L2167.92 1264.99 L2171.04 1264.99 L2171.04 1257.63 L2175.33 1257.63 Z" fill="#000000" fill-rule="nonzero" fill-opacity="1"></path><path clip-path="url(#clip250)" d="M2189.7 1264.99 L2193.96 1264.99 L2193.96 1290.92 L2189.7 1290.92 L2189.7 1264.99 M2189.7 1254.9 L2193.96 1254.9 L2193.96 1260.29 L2189.7 1260.29 L2189.7 1254.9 Z" fill="#000000" fill-rule="nonzero" fill-opacity="1"></path><path clip-path="url(#clip250)" d="M2221.53 1265.98 L2221.53 1269.97 Q2219.72 1268.97 2217.9 1268.48 Q2216.09 1267.98 2214.24 1267.98 Q2210.09 1267.98 2207.8 1270.61 Q2205.51 1273.23 2205.51 1277.98 Q2205.51 1282.72 2207.8 1285.36 Q2210.09 1287.98 2214.24 1287.98 Q2216.09 1287.98 2217.9 1287.49 Q2219.72 1286.98 2221.53 1285.98 L2221.53 1289.92 Q2219.75 1290.75 2217.83 1291.17 Q2215.93 1291.59 2213.77 1291.59 Q2207.92 1291.59 2204.47 1287.91 Q2201.02 1284.23 2201.02 1277.98 Q2201.02 1271.63 2204.49 1268 Q2207.99 1264.36 2214.05 1264.36 Q2216.02 1264.36 2217.9 1264.78 Q2219.77 1265.17 2221.53 1265.98 Z" fill="#000000" fill-rule="nonzero" fill-opacity="1"></path><path clip-path="url(#clip250)" d="M2240.72 1277.88 Q2235.56 1277.88 2233.57 1279.06 Q2231.58 1280.24 2231.58 1283.09 Q2231.58 1285.36 2233.06 1286.7 Q2234.56 1288.02 2237.13 1288.02 Q2240.67 1288.02 2242.8 1285.52 Q2244.96 1283 2244.96 1278.83 L2244.96 1277.88 L2240.72 1277.88 M2249.21 1276.12 L2249.21 1290.92 L2244.96 1290.92 L2244.96 1286.98 Q2243.5 1289.34 2241.32 1290.48 Q2239.15 1291.59 2236 1291.59 Q2232.02 1291.59 2229.65 1289.36 Q2227.32 1287.12 2227.32 1283.37 Q2227.32 1278.99 2230.23 1276.77 Q2233.17 1274.55 2238.98 1274.55 L2244.96 1274.55 L2244.96 1274.13 Q2244.96 1271.19 2243.01 1269.6 Q2241.09 1267.98 2237.59 1267.98 Q2235.37 1267.98 2233.27 1268.51 Q2231.16 1269.04 2229.21 1270.11 L2229.21 1266.17 Q2231.55 1265.27 2233.75 1264.83 Q2235.95 1264.36 2238.03 1264.36 Q2243.66 1264.36 2246.44 1267.28 Q2249.21 1270.2 2249.21 1276.12 Z" fill="#000000" fill-rule="nonzero" fill-opacity="1"></path><path clip-path="url(#clip250)" d="M2257.99 1254.9 L2262.25 1254.9 L2262.25 1290.92 L2257.99 1290.92 L2257.99 1254.9 Z" fill="#000000" fill-rule="nonzero" fill-opacity="1"></path><polyline clip-path="url(#clip250)" style="stroke:#3da44d; stroke-linecap:round; stroke-linejoin:round; stroke-width:8; stroke-opacity:1; fill:none" stroke-dasharray="32, 16, 4, 16" points="1875.87,1325.48 2011.63,1325.48 "></polyline>
<path clip-path="url(#clip250)" d="M2034.26 1308.2 L2056.11 1308.2 L2056.11 1312.13 L2038.94 1312.13 L2038.94 1322.36 L2055.4 1322.36 L2055.4 1326.3 L2038.94 1326.3 L2038.94 1338.82 L2056.53 1338.82 L2056.53 1342.76 L2034.26 1342.76 L2034.26 1308.2 Z" fill="#000000" fill-rule="nonzero" fill-opacity="1"></path><path clip-path="url(#clip250)" d="M2064.22 1308.2 L2068.89 1308.2 L2068.89 1338.82 L2085.72 1338.82 L2085.72 1342.76 L2064.22 1342.76 L2064.22 1308.2 Z" fill="#000000" fill-rule="nonzero" fill-opacity="1"></path><path clip-path="url(#clip250)" d="M2090.63 1308.2 L2097.59 1308.2 L2106.41 1331.71 L2115.28 1308.2 L2122.25 1308.2 L2122.25 1342.76 L2117.69 1342.76 L2117.69 1312.41 L2108.78 1336.11 L2104.08 1336.11 L2095.16 1312.41 L2095.16 1342.76 L2090.63 1342.76 L2090.63 1308.2 Z" fill="#000000" fill-rule="nonzero" fill-opacity="1"></path></svg>