<svg xmlns="http://www.w3.org/2000/svg" xmlns:xlink="http://www.w3.org/1999/xlink" width="600" height="400" viewBox="0 0 2400 1600">
<defs>
  <clipPath id="clip370">
    <rect x="0" y="0" width="2400" height="1600"></rect>
  </clipPath>
</defs>
<path clip-path="url(#clip370)" d="M0 1600 L2400 1600 L2400 0 L0 0  Z" fill="#ffffff" fill-rule="evenodd" fill-opacity="1"></path>
<defs>
  <clipPath id="clip371">
    <rect x="480" y="0" width="1681" height="1600"></rect>
  </clipPath>
</defs>
<path clip-path="url(#clip370)" d="M348.176 1423.18 L2352.76 1423.18 L2352.76 47.2441 L348.176 47.2441  Z" fill="#ffffff" fill-rule="evenodd" fill-opacity="1"></path>
<defs>
  <clipPath id="clip372">
    <rect x="348" y="47" width="2006" height="1377"></rect>
  </clipPath>
</defs>
<polyline clip-path="url(#clip372)" style="stroke:#000000; stroke-linecap:round; stroke-linejoin:round; stroke-width:2; stroke-opacity:0.1; fill:none" points="404.909,1423.18 404.909,47.2441 "></polyline>
<polyline clip-path="url(#clip372)" style="stroke:#000000; stroke-linecap:round; stroke-linejoin:round; stroke-width:2; stroke-opacity:0.1; fill:none" points="877.687,1423.18 877.687,47.2441 "></polyline>
<polyline clip-path="url(#clip372)" style="stroke:#000000; stroke-linecap:round; stroke-linejoin:round; stroke-width:2; stroke-opacity:0.1; fill:none" points="1350.47,1423.18 1350.47,47.2441 "></polyline>
<polyline clip-path="url(#clip372)" style="stroke:#000000; stroke-linecap:round; stroke-linejoin:round; stroke-width:2; stroke-opacity:0.1; fill:none" points="1823.24,1423.18 1823.24,47.2441 "></polyline>
<polyline clip-path="url(#clip372)" style="stroke:#000000; stroke-linecap:round; stroke-linejoin:round; stroke-width:2; stroke-opacity:0.1; fill:none" points="2296.02,1423.18 2296.02,47.2441 "></polyline>
<polyline clip-path="url(#clip372)" style="stroke:#000000; stroke-linecap:round; stroke-linejoin:round; stroke-width:2; stroke-opacity:0.1; fill:none" points="348.176,1235.24 2352.76,1235.24 "></polyline>
<polyline clip-path="url(#clip372)" style="stroke:#000000; stroke-linecap:round; stroke-linejoin:round; stroke-width:2; stroke-opacity:0.1; fill:none" points="348.176,945.388 2352.76,945.388 "></polyline>
<polyline clip-path="url(#clip372)" style="stroke:#000000; stroke-linecap:round; stroke-linejoin:round; stroke-width:2; stroke-opacity:0.1; fill:none" points="348.176,655.534 2352.76,655.534 "></polyline>
<polyline clip-path="url(#clip372)" style="stroke:#000000; stroke-linecap:round; stroke-linejoin:round; stroke-width:2; stroke-opacity:0.1; fill:none" points="348.176,365.68 2352.76,365.68 "></polyline>
<polyline clip-path="url(#clip372)" style="stroke:#000000; stroke-linecap:round; stroke-linejoin:round; stroke-width:2; stroke-opacity:0.1; fill:none" points="348.176,75.8256 2352.76,75.8256 "></polyline>
<polyline clip-path="url(#clip370)" style="stroke:#000000; stroke-linecap:round; stroke-linejoin:round; stroke-width:4; stroke-opacity:1; fill:none" points="348.176,1423.18 2352.76,1423.18 "></polyline>
<polyline clip-path="url(#clip370)" style="stroke:#000000; stroke-linecap:round; stroke-linejoin:round; stroke-width:4; stroke-opacity:1; fill:none" points="404.909,1423.18 404.909,1404.28 "></polyline>
<polyline clip-path="url(#clip370)" style="stroke:#000000; stroke-linecap:round; stroke-linejoin:round; stroke-width:4; stroke-opacity:1; fill:none" points="877.687,1423.18 877.687,1404.28 "></polyline>
<polyline clip-path="url(#clip370)" style="stroke:#000000; stroke-linecap:round; stroke-linejoin:round; stroke-width:4; stroke-opacity:1; fill:none" points="1350.47,1423.18 1350.47,1404.28 "></polyline>
<polyline clip-path="url(#clip370)" style="stroke:#000000; stroke-linecap:round; stroke-linejoin:round; stroke-width:4; stroke-opacity:1; fill:none" points="1823.24,1423.18 1823.24,1404.28 "></polyline>
<polyline clip-path="url(#clip370)" style="stroke:#000000; stroke-linecap:round; stroke-linejoin:round; stroke-width:4; stroke-opacity:1; fill:none" points="2296.02,1423.18 2296.02,1404.28 "></polyline>
<path clip-path="url(#clip370)" d="M367.213 1454.1 Q363.602 1454.1 361.773 1457.66 Q359.967 1461.2 359.967 1468.33 Q359.967 1475.44 361.773 1479.01 Q363.602 1482.55 367.213 1482.55 Q370.847 1482.55 372.652 1479.01 Q374.481 1475.44 374.481 1468.33 Q374.481 1461.2 372.652 1457.66 Q370.847 1454.1 367.213 1454.1 M367.213 1450.39 Q373.023 1450.39 376.078 1455 Q379.157 1459.58 379.157 1468.33 Q379.157 1477.06 376.078 1481.67 Q373.023 1486.25 367.213 1486.25 Q361.402 1486.25 358.324 1481.67 Q355.268 1477.06 355.268 1468.33 Q355.268 1459.58 358.324 1455 Q361.402 1450.39 367.213 1450.39 Z" fill="#000000" fill-rule="nonzero" fill-opacity="1"></path><path clip-path="url(#clip370)" d="M387.375 1479.7 L392.259 1479.7 L392.259 1485.58 L387.375 1485.58 L387.375 1479.7 Z" fill="#000000" fill-rule="nonzero" fill-opacity="1"></path><path clip-path="url(#clip370)" d="M412.444 1454.1 Q408.833 1454.1 407.004 1457.66 Q405.199 1461.2 405.199 1468.33 Q405.199 1475.44 407.004 1479.01 Q408.833 1482.55 412.444 1482.55 Q416.078 1482.55 417.884 1479.01 Q419.712 1475.44 419.712 1468.33 Q419.712 1461.2 417.884 1457.66 Q416.078 1454.1 412.444 1454.1 M412.444 1450.39 Q418.254 1450.39 421.31 1455 Q424.388 1459.58 424.388 1468.33 Q424.388 1477.06 421.31 1481.67 Q418.254 1486.25 412.444 1486.25 Q406.634 1486.25 403.555 1481.67 Q400.499 1477.06 400.499 1468.33 Q400.499 1459.58 403.555 1455 Q406.634 1450.39 412.444 1450.39 Z" fill="#000000" fill-rule="nonzero" fill-opacity="1"></path><path clip-path="url(#clip370)" d="M442.606 1454.1 Q438.995 1454.1 437.166 1457.66 Q435.36 1461.2 435.36 1468.33 Q435.36 1475.44 437.166 1479.01 Q438.995 1482.55 442.606 1482.55 Q446.24 1482.55 448.046 1479.01 Q449.874 1475.44 449.874 1468.33 Q449.874 1461.2 448.046 1457.66 Q446.24 1454.1 442.606 1454.1 M442.606 1450.39 Q448.416 1450.39 451.471 1455 Q454.55 1459.58 454.55 1468.33 Q454.55 1477.06 451.471 1481.67 Q448.416 1486.25 442.606 1486.25 Q436.796 1486.25 433.717 1481.67 Q430.661 1477.06 430.661 1468.33 Q430.661 1459.58 433.717 1455 Q436.796 1450.39 442.606 1450.39 Z" fill="#000000" fill-rule="nonzero" fill-opacity="1"></path><path clip-path="url(#clip370)" d="M840.489 1454.1 Q836.878 1454.1 835.049 1457.66 Q833.243 1461.2 833.243 1468.33 Q833.243 1475.44 835.049 1479.01 Q836.878 1482.55 840.489 1482.55 Q844.123 1482.55 845.928 1479.01 Q847.757 1475.44 847.757 1468.33 Q847.757 1461.2 845.928 1457.66 Q844.123 1454.1 840.489 1454.1 M840.489 1450.39 Q846.299 1450.39 849.354 1455 Q852.433 1459.58 852.433 1468.33 Q852.433 1477.06 849.354 1481.67 Q846.299 1486.25 840.489 1486.25 Q834.678 1486.25 831.6 1481.67 Q828.544 1477.06 828.544 1468.33 Q828.544 1459.58 831.6 1455 Q834.678 1450.39 840.489 1450.39 Z" fill="#000000" fill-rule="nonzero" fill-opacity="1"></path><path clip-path="url(#clip370)" d="M860.651 1479.7 L865.535 1479.7 L865.535 1485.58 L860.651 1485.58 L860.651 1479.7 Z" fill="#000000" fill-rule="nonzero" fill-opacity="1"></path><path clip-path="url(#clip370)" d="M879.748 1481.64 L896.067 1481.64 L896.067 1485.58 L874.123 1485.58 L874.123 1481.64 Q876.785 1478.89 881.368 1474.26 Q885.974 1469.61 887.155 1468.27 Q889.4 1465.74 890.28 1464.01 Q891.183 1462.25 891.183 1460.56 Q891.183 1457.8 889.238 1456.07 Q887.317 1454.33 884.215 1454.33 Q882.016 1454.33 879.562 1455.09 Q877.132 1455.86 874.354 1457.41 L874.354 1452.69 Q877.178 1451.55 879.632 1450.97 Q882.086 1450.39 884.123 1450.39 Q889.493 1450.39 892.687 1453.08 Q895.882 1455.77 895.882 1460.26 Q895.882 1462.39 895.072 1464.31 Q894.285 1466.2 892.178 1468.8 Q891.599 1469.47 888.498 1472.69 Q885.396 1475.88 879.748 1481.64 Z" fill="#000000" fill-rule="nonzero" fill-opacity="1"></path><path clip-path="url(#clip370)" d="M905.928 1451.02 L924.284 1451.02 L924.284 1454.96 L910.21 1454.96 L910.21 1463.43 Q911.229 1463.08 912.247 1462.92 Q913.266 1462.73 914.285 1462.73 Q920.072 1462.73 923.451 1465.9 Q926.831 1469.08 926.831 1474.49 Q926.831 1480.07 923.359 1483.17 Q919.886 1486.25 913.567 1486.25 Q911.391 1486.25 909.123 1485.88 Q906.877 1485.51 904.47 1484.77 L904.47 1480.07 Q906.553 1481.2 908.775 1481.76 Q910.998 1482.32 913.474 1482.32 Q917.479 1482.32 919.817 1480.21 Q922.155 1478.1 922.155 1474.49 Q922.155 1470.88 919.817 1468.77 Q917.479 1466.67 913.474 1466.67 Q911.599 1466.67 909.724 1467.08 Q907.873 1467.5 905.928 1468.38 L905.928 1451.02 Z" fill="#000000" fill-rule="nonzero" fill-opacity="1"></path><path clip-path="url(#clip370)" d="M1312.77 1454.1 Q1309.16 1454.1 1307.33 1457.66 Q1305.52 1461.2 1305.52 1468.33 Q1305.52 1475.44 1307.33 1479.01 Q1309.16 1482.55 1312.77 1482.55 Q1316.4 1482.55 1318.21 1479.01 Q1320.04 1475.44 1320.04 1468.33 Q1320.04 1461.2 1318.21 1457.66 Q1316.4 1454.1 1312.77 1454.1 M1312.77 1450.39 Q1318.58 1450.39 1321.63 1455 Q1324.71 1459.58 1324.71 1468.33 Q1324.71 1477.06 1321.63 1481.67 Q1318.58 1486.25 1312.77 1486.25 Q1306.96 1486.25 1303.88 1481.67 Q1300.82 1477.06 1300.82 1468.33 Q1300.82 1459.58 1303.88 1455 Q1306.96 1450.39 1312.77 1450.39 Z" fill="#000000" fill-rule="nonzero" fill-opacity="1"></path><path clip-path="url(#clip370)" d="M1332.93 1479.7 L1337.82 1479.7 L1337.82 1485.58 L1332.93 1485.58 L1332.93 1479.7 Z" fill="#000000" fill-rule="nonzero" fill-opacity="1"></path><path clip-path="url(#clip370)" d="M1348.05 1451.02 L1366.4 1451.02 L1366.4 1454.96 L1352.33 1454.96 L1352.33 1463.43 Q1353.35 1463.08 1354.37 1462.92 Q1355.38 1462.73 1356.4 1462.73 Q1362.19 1462.73 1365.57 1465.9 Q1368.95 1469.08 1368.95 1474.49 Q1368.95 1480.07 1365.48 1483.17 Q1362.01 1486.25 1355.69 1486.25 Q1353.51 1486.25 1351.24 1485.88 Q1349 1485.51 1346.59 1484.77 L1346.59 1480.07 Q1348.67 1481.2 1350.89 1481.76 Q1353.12 1482.32 1355.59 1482.32 Q1359.6 1482.32 1361.94 1480.21 Q1364.27 1478.1 1364.27 1474.49 Q1364.27 1470.88 1361.94 1468.77 Q1359.6 1466.67 1355.59 1466.67 Q1353.72 1466.67 1351.84 1467.08 Q1349.99 1467.5 1348.05 1468.38 L1348.05 1451.02 Z" fill="#000000" fill-rule="nonzero" fill-opacity="1"></path><path clip-path="url(#clip370)" d="M1388.16 1454.1 Q1384.55 1454.1 1382.72 1457.66 Q1380.92 1461.2 1380.92 1468.33 Q1380.92 1475.44 1382.72 1479.01 Q1384.55 1482.55 1388.16 1482.55 Q1391.8 1482.55 1393.6 1479.01 Q1395.43 1475.44 1395.43 1468.33 Q1395.43 1461.2 1393.6 1457.66 Q1391.8 1454.1 1388.16 1454.1 M1388.16 1450.39 Q1393.97 1450.39 1397.03 1455 Q1400.11 1459.58 1400.11 1468.33 Q1400.11 1477.06 1397.03 1481.67 Q1393.97 1486.25 1388.16 1486.25 Q1382.35 1486.25 1379.27 1481.67 Q1376.22 1477.06 1376.22 1468.33 Q1376.22 1459.58 1379.27 1455 Q1382.35 1450.39 1388.16 1450.39 Z" fill="#000000" fill-rule="nonzero" fill-opacity="1"></path><path clip-path="url(#clip370)" d="M1786.05 1454.1 Q1782.43 1454.1 1780.61 1457.66 Q1778.8 1461.2 1778.8 1468.33 Q1778.8 1475.44 1780.61 1479.01 Q1782.43 1482.55 1786.05 1482.55 Q1789.68 1482.55 1791.49 1479.01 Q1793.31 1475.44 1793.31 1468.33 Q1793.31 1461.2 1791.49 1457.66 Q1789.68 1454.1 1786.05 1454.1 M1786.05 1450.39 Q1791.86 1450.39 1794.91 1455 Q1797.99 1459.58 1797.99 1468.33 Q1797.99 1477.06 1794.91 1481.67 Q1791.86 1486.25 1786.05 1486.25 Q1780.24 1486.25 1777.16 1481.67 Q1774.1 1477.06 1774.1 1468.33 Q1774.1 1459.58 1777.16 1455 Q1780.24 1450.39 1786.05 1450.39 Z" fill="#000000" fill-rule="nonzero" fill-opacity="1"></path><path clip-path="url(#clip370)" d="M1806.21 1479.7 L1811.09 1479.7 L1811.09 1485.58 L1806.21 1485.58 L1806.21 1479.7 Z" fill="#000000" fill-rule="nonzero" fill-opacity="1"></path><path clip-path="url(#clip370)" d="M1820.1 1451.02 L1842.32 1451.02 L1842.32 1453.01 L1829.77 1485.58 L1824.89 1485.58 L1836.69 1454.96 L1820.1 1454.96 L1820.1 1451.02 Z" fill="#000000" fill-rule="nonzero" fill-opacity="1"></path><path clip-path="url(#clip370)" d="M1851.48 1451.02 L1869.84 1451.02 L1869.84 1454.96 L1855.77 1454.96 L1855.77 1463.43 Q1856.79 1463.08 1857.8 1462.92 Q1858.82 1462.73 1859.84 1462.73 Q1865.63 1462.73 1869.01 1465.9 Q1872.39 1469.08 1872.39 1474.49 Q1872.39 1480.07 1868.92 1483.17 Q1865.44 1486.25 1859.12 1486.25 Q1856.95 1486.25 1854.68 1485.88 Q1852.43 1485.51 1850.03 1484.77 L1850.03 1480.07 Q1852.11 1481.2 1854.33 1481.76 Q1856.55 1482.32 1859.03 1482.32 Q1863.04 1482.32 1865.37 1480.21 Q1867.71 1478.1 1867.71 1474.49 Q1867.71 1470.88 1865.37 1468.77 Q1863.04 1466.67 1859.03 1466.67 Q1857.16 1466.67 1855.28 1467.08 Q1853.43 1467.5 1851.48 1468.38 L1851.48 1451.02 Z" fill="#000000" fill-rule="nonzero" fill-opacity="1"></path><path clip-path="url(#clip370)" d="M2248.09 1481.64 L2255.73 1481.64 L2255.73 1455.28 L2247.42 1456.95 L2247.42 1452.69 L2255.69 1451.02 L2260.36 1451.02 L2260.36 1481.64 L2268 1481.64 L2268 1485.58 L2248.09 1485.58 L2248.09 1481.64 Z" fill="#000000" fill-rule="nonzero" fill-opacity="1"></path><path clip-path="url(#clip370)" d="M2277.45 1479.7 L2282.33 1479.7 L2282.33 1485.58 L2277.45 1485.58 L2277.45 1479.7 Z" fill="#000000" fill-rule="nonzero" fill-opacity="1"></path><path clip-path="url(#clip370)" d="M2302.52 1454.1 Q2298.9 1454.1 2297.08 1457.66 Q2295.27 1461.2 2295.27 1468.33 Q2295.27 1475.44 2297.08 1479.01 Q2298.9 1482.55 2302.52 1482.55 Q2306.15 1482.55 2307.96 1479.01 Q2309.78 1475.44 2309.78 1468.33 Q2309.78 1461.2 2307.96 1457.66 Q2306.15 1454.1 2302.52 1454.1 M2302.52 1450.39 Q2308.33 1450.39 2311.38 1455 Q2314.46 1459.58 2314.46 1468.33 Q2314.46 1477.06 2311.38 1481.67 Q2308.33 1486.25 2302.52 1486.25 Q2296.71 1486.25 2293.63 1481.67 Q2290.57 1477.06 2290.57 1468.33 Q2290.57 1459.58 2293.63 1455 Q2296.71 1450.39 2302.52 1450.39 Z" fill="#000000" fill-rule="nonzero" fill-opacity="1"></path><path clip-path="url(#clip370)" d="M2332.68 1454.1 Q2329.07 1454.1 2327.24 1457.66 Q2325.43 1461.2 2325.43 1468.33 Q2325.43 1475.44 2327.24 1479.01 Q2329.07 1482.55 2332.68 1482.55 Q2336.31 1482.55 2338.12 1479.01 Q2339.95 1475.44 2339.95 1468.33 Q2339.95 1461.2 2338.12 1457.66 Q2336.31 1454.1 2332.68 1454.1 M2332.68 1450.39 Q2338.49 1450.39 2341.54 1455 Q2344.62 1459.58 2344.62 1468.33 Q2344.62 1477.06 2341.54 1481.67 Q2338.49 1486.25 2332.68 1486.25 Q2326.87 1486.25 2323.79 1481.67 Q2320.73 1477.06 2320.73 1468.33 Q2320.73 1459.58 2323.79 1455 Q2326.87 1450.39 2332.68 1450.39 Z" fill="#000000" fill-rule="nonzero" fill-opacity="1"></path><path clip-path="url(#clip370)" d="M1367.08 1532.4 L1354.19 1549.74 L1367.75 1568.04 L1360.84 1568.04 L1350.47 1554.04 L1340.09 1568.04 L1333.18 1568.04 L1347.03 1549.39 L1334.36 1532.4 L1341.27 1532.4 L1350.72 1545.1 L1360.17 1532.4 L1367.08 1532.4 Z" fill="#000000" fill-rule="nonzero" fill-opacity="1"></path><polyline clip-path="url(#clip370)" style="stroke:#000000; stroke-linecap:round; stroke-linejoin:round; stroke-width:4; stroke-opacity:1; fill:none" points="348.176,1423.18 348.176,47.2441 "></polyline>
<polyline clip-path="url(#clip370)" style="stroke:#000000; stroke-linecap:round; stroke-linejoin:round; stroke-width:4; stroke-opacity:1; fill:none" points="348.176,1235.24 367.073,1235.24 "></polyline>
<polyline clip-path="url(#clip370)" style="stroke:#000000; stroke-linecap:round; stroke-linejoin:round; stroke-width:4; stroke-opacity:1; fill:none" points="348.176,945.388 367.073,945.388 "></polyline>
<polyline clip-path="url(#clip370)" style="stroke:#000000; stroke-linecap:round; stroke-linejoin:round; stroke-width:4; stroke-opacity:1; fill:none" points="348.176,655.534 367.073,655.534 "></polyline>
<polyline clip-path="url(#clip370)" style="stroke:#000000; stroke-linecap:round; stroke-linejoin:round; stroke-width:4; stroke-opacity:1; fill:none" points="348.176,365.68 367.073,365.68 "></polyline>
<polyline clip-path="url(#clip370)" style="stroke:#000000; stroke-linecap:round; stroke-linejoin:round; stroke-width:4; stroke-opacity:1; fill:none" points="348.176,75.8256 367.073,75.8256 "></polyline>
<path clip-path="url(#clip370)" d="M114.26 1235.69 L143.936 1235.69 L143.936 1239.63 L114.26 1239.63 L114.26 1235.69 Z" fill="#000000" fill-rule="nonzero" fill-opacity="1"></path><path clip-path="url(#clip370)" d="M164.028 1221.04 Q160.417 1221.04 158.589 1224.61 Q156.783 1228.15 156.783 1235.28 Q156.783 1242.38 158.589 1245.95 Q160.417 1249.49 164.028 1249.49 Q167.663 1249.49 169.468 1245.95 Q171.297 1242.38 171.297 1235.28 Q171.297 1228.15 169.468 1224.61 Q167.663 1221.04 164.028 1221.04 M164.028 1217.34 Q169.839 1217.34 172.894 1221.94 Q175.973 1226.53 175.973 1235.28 Q175.973 1244 172.894 1248.61 Q169.839 1253.19 164.028 1253.19 Q158.218 1253.19 155.14 1248.61 Q152.084 1244 152.084 1235.28 Q152.084 1226.53 155.14 1221.94 Q158.218 1217.34 164.028 1217.34 Z" fill="#000000" fill-rule="nonzero" fill-opacity="1"></path><path clip-path="url(#clip370)" d="M184.19 1246.64 L189.075 1246.64 L189.075 1252.52 L184.19 1252.52 L184.19 1246.64 Z" fill="#000000" fill-rule="nonzero" fill-opacity="1"></path><path clip-path="url(#clip370)" d="M209.26 1221.04 Q205.649 1221.04 203.82 1224.61 Q202.014 1228.15 202.014 1235.28 Q202.014 1242.38 203.82 1245.95 Q205.649 1249.49 209.26 1249.49 Q212.894 1249.49 214.699 1245.95 Q216.528 1242.38 216.528 1235.28 Q216.528 1228.15 214.699 1224.61 Q212.894 1221.04 209.26 1221.04 M209.26 1217.34 Q215.07 1217.34 218.125 1221.94 Q221.204 1226.53 221.204 1235.28 Q221.204 1244 218.125 1248.61 Q215.07 1253.19 209.26 1253.19 Q203.449 1253.19 200.371 1248.61 Q197.315 1244 197.315 1235.28 Q197.315 1226.53 200.371 1221.94 Q203.449 1217.34 209.26 1217.34 Z" fill="#000000" fill-rule="nonzero" fill-opacity="1"></path><path clip-path="url(#clip370)" d="M239.422 1221.04 Q235.81 1221.04 233.982 1224.61 Q232.176 1228.15 232.176 1235.28 Q232.176 1242.38 233.982 1245.95 Q235.81 1249.49 239.422 1249.49 Q243.056 1249.49 244.861 1245.95 Q246.69 1242.38 246.69 1235.28 Q246.69 1228.15 244.861 1224.61 Q243.056 1221.04 239.422 1221.04 M239.422 1217.34 Q245.232 1217.34 248.287 1221.94 Q251.366 1226.53 251.366 1235.28 Q251.366 1244 248.287 1248.61 Q245.232 1253.19 239.422 1253.19 Q233.611 1253.19 230.533 1248.61 Q227.477 1244 227.477 1235.28 Q227.477 1226.53 230.533 1221.94 Q233.611 1217.34 239.422 1217.34 Z" fill="#000000" fill-rule="nonzero" fill-opacity="1"></path><path clip-path="url(#clip370)" d="M269.583 1221.04 Q265.972 1221.04 264.144 1224.61 Q262.338 1228.15 262.338 1235.28 Q262.338 1242.38 264.144 1245.95 Q265.972 1249.49 269.583 1249.49 Q273.218 1249.49 275.023 1245.95 Q276.852 1242.38 276.852 1235.28 Q276.852 1228.15 275.023 1224.61 Q273.218 1221.04 269.583 1221.04 M269.583 1217.34 Q275.394 1217.34 278.449 1221.94 Q281.528 1226.53 281.528 1235.28 Q281.528 1244 278.449 1248.61 Q275.394 1253.19 269.583 1253.19 Q263.773 1253.19 260.695 1248.61 Q257.639 1244 257.639 1235.28 Q257.639 1226.53 260.695 1221.94 Q263.773 1217.34 269.583 1217.34 Z" fill="#000000" fill-rule="nonzero" fill-opacity="1"></path><path clip-path="url(#clip370)" d="M302.592 1222.04 L290.787 1240.48 L302.592 1240.48 L302.592 1222.04 M301.366 1217.96 L307.245 1217.96 L307.245 1240.48 L312.176 1240.48 L312.176 1244.37 L307.245 1244.37 L307.245 1252.52 L302.592 1252.52 L302.592 1244.37 L286.991 1244.37 L286.991 1239.86 L301.366 1217.96 Z" fill="#000000" fill-rule="nonzero" fill-opacity="1"></path><path clip-path="url(#clip370)" d="M116.343 945.839 L146.019 945.839 L146.019 949.774 L116.343 949.774 L116.343 945.839 Z" fill="#000000" fill-rule="nonzero" fill-opacity="1"></path><path clip-path="url(#clip370)" d="M166.112 931.186 Q162.501 931.186 160.672 934.751 Q158.866 938.293 158.866 945.422 Q158.866 952.529 160.672 956.094 Q162.501 959.635 166.112 959.635 Q169.746 959.635 171.552 956.094 Q173.38 952.529 173.38 945.422 Q173.38 938.293 171.552 934.751 Q169.746 931.186 166.112 931.186 M166.112 927.483 Q171.922 927.483 174.977 932.089 Q178.056 936.672 178.056 945.422 Q178.056 954.149 174.977 958.756 Q171.922 963.339 166.112 963.339 Q160.302 963.339 157.223 958.756 Q154.167 954.149 154.167 945.422 Q154.167 936.672 157.223 932.089 Q160.302 927.483 166.112 927.483 Z" fill="#000000" fill-rule="nonzero" fill-opacity="1"></path><path clip-path="url(#clip370)" d="M186.274 956.788 L191.158 956.788 L191.158 962.668 L186.274 962.668 L186.274 956.788 Z" fill="#000000" fill-rule="nonzero" fill-opacity="1"></path><path clip-path="url(#clip370)" d="M211.343 931.186 Q207.732 931.186 205.903 934.751 Q204.098 938.293 204.098 945.422 Q204.098 952.529 205.903 956.094 Q207.732 959.635 211.343 959.635 Q214.977 959.635 216.783 956.094 Q218.611 952.529 218.611 945.422 Q218.611 938.293 216.783 934.751 Q214.977 931.186 211.343 931.186 M211.343 927.483 Q217.153 927.483 220.209 932.089 Q223.287 936.672 223.287 945.422 Q223.287 954.149 220.209 958.756 Q217.153 963.339 211.343 963.339 Q205.533 963.339 202.454 958.756 Q199.399 954.149 199.399 945.422 Q199.399 936.672 202.454 932.089 Q205.533 927.483 211.343 927.483 Z" fill="#000000" fill-rule="nonzero" fill-opacity="1"></path><path clip-path="url(#clip370)" d="M241.505 931.186 Q237.894 931.186 236.065 934.751 Q234.26 938.293 234.26 945.422 Q234.26 952.529 236.065 956.094 Q237.894 959.635 241.505 959.635 Q245.139 959.635 246.945 956.094 Q248.773 952.529 248.773 945.422 Q248.773 938.293 246.945 934.751 Q245.139 931.186 241.505 931.186 M241.505 927.483 Q247.315 927.483 250.371 932.089 Q253.449 936.672 253.449 945.422 Q253.449 954.149 250.371 958.756 Q247.315 963.339 241.505 963.339 Q235.695 963.339 232.616 958.756 Q229.56 954.149 229.56 945.422 Q229.56 936.672 232.616 932.089 Q235.695 927.483 241.505 927.483 Z" fill="#000000" fill-rule="nonzero" fill-opacity="1"></path><path clip-path="url(#clip370)" d="M271.667 931.186 Q268.056 931.186 266.227 934.751 Q264.421 938.293 264.421 945.422 Q264.421 952.529 266.227 956.094 Q268.056 959.635 271.667 959.635 Q275.301 959.635 277.107 956.094 Q278.935 952.529 278.935 945.422 Q278.935 938.293 277.107 934.751 Q275.301 931.186 271.667 931.186 M271.667 927.483 Q277.477 927.483 280.532 932.089 Q283.611 936.672 283.611 945.422 Q283.611 954.149 280.532 958.756 Q277.477 963.339 271.667 963.339 Q265.857 963.339 262.778 958.756 Q259.722 954.149 259.722 945.422 Q259.722 936.672 262.778 932.089 Q265.857 927.483 271.667 927.483 Z" fill="#000000" fill-rule="nonzero" fill-opacity="1"></path><path clip-path="url(#clip370)" d="M295.856 958.733 L312.176 958.733 L312.176 962.668 L290.231 962.668 L290.231 958.733 Q292.893 955.978 297.477 951.348 Q302.083 946.696 303.264 945.353 Q305.509 942.83 306.389 941.094 Q307.292 939.334 307.292 937.645 Q307.292 934.89 305.347 933.154 Q303.426 931.418 300.324 931.418 Q298.125 931.418 295.671 932.182 Q293.241 932.946 290.463 934.497 L290.463 929.774 Q293.287 928.64 295.741 928.061 Q298.194 927.483 300.231 927.483 Q305.602 927.483 308.796 930.168 Q311.991 932.853 311.991 937.344 Q311.991 939.473 311.18 941.395 Q310.393 943.293 308.287 945.885 Q307.708 946.557 304.606 949.774 Q301.505 952.969 295.856 958.733 Z" fill="#000000" fill-rule="nonzero" fill-opacity="1"></path><path clip-path="url(#clip370)" d="M164.515 641.332 Q160.903 641.332 159.075 644.897 Q157.269 648.439 157.269 655.568 Q157.269 662.675 159.075 666.24 Q160.903 669.781 164.515 669.781 Q168.149 669.781 169.954 666.24 Q171.783 662.675 171.783 655.568 Q171.783 648.439 169.954 644.897 Q168.149 641.332 164.515 641.332 M164.515 637.629 Q170.325 637.629 173.38 642.235 Q176.459 646.818 176.459 655.568 Q176.459 664.295 173.38 668.902 Q170.325 673.485 164.515 673.485 Q158.704 673.485 155.626 668.902 Q152.57 664.295 152.57 655.568 Q152.57 646.818 155.626 642.235 Q158.704 637.629 164.515 637.629 Z" fill="#000000" fill-rule="nonzero" fill-opacity="1"></path><path clip-path="url(#clip370)" d="M184.676 666.934 L189.561 666.934 L189.561 672.814 L184.676 672.814 L184.676 666.934 Z" fill="#000000" fill-rule="nonzero" fill-opacity="1"></path><path clip-path="url(#clip370)" d="M209.746 641.332 Q206.135 641.332 204.306 644.897 Q202.5 648.439 202.5 655.568 Q202.5 662.675 204.306 666.24 Q206.135 669.781 209.746 669.781 Q213.38 669.781 215.186 666.24 Q217.014 662.675 217.014 655.568 Q217.014 648.439 215.186 644.897 Q213.38 641.332 209.746 641.332 M209.746 637.629 Q215.556 637.629 218.611 642.235 Q221.69 646.818 221.69 655.568 Q221.69 664.295 218.611 668.902 Q215.556 673.485 209.746 673.485 Q203.936 673.485 200.857 668.902 Q197.801 664.295 197.801 655.568 Q197.801 646.818 200.857 642.235 Q203.936 637.629 209.746 637.629 Z" fill="#000000" fill-rule="nonzero" fill-opacity="1"></path><path clip-path="url(#clip370)" d="M239.908 641.332 Q236.297 641.332 234.468 644.897 Q232.662 648.439 232.662 655.568 Q232.662 662.675 234.468 666.24 Q236.297 669.781 239.908 669.781 Q243.542 669.781 245.347 666.24 Q247.176 662.675 247.176 655.568 Q247.176 648.439 245.347 644.897 Q243.542 641.332 239.908 641.332 M239.908 637.629 Q245.718 637.629 248.773 642.235 Q251.852 646.818 251.852 655.568 Q251.852 664.295 248.773 668.902 Q245.718 673.485 239.908 673.485 Q234.097 673.485 231.019 668.902 Q227.963 664.295 227.963 655.568 Q227.963 646.818 231.019 642.235 Q234.097 637.629 239.908 637.629 Z" fill="#000000" fill-rule="nonzero" fill-opacity="1"></path><path clip-path="url(#clip370)" d="M270.07 641.332 Q266.458 641.332 264.63 644.897 Q262.824 648.439 262.824 655.568 Q262.824 662.675 264.63 666.24 Q266.458 669.781 270.07 669.781 Q273.704 669.781 275.509 666.24 Q277.338 662.675 277.338 655.568 Q277.338 648.439 275.509 644.897 Q273.704 641.332 270.07 641.332 M270.07 637.629 Q275.88 637.629 278.935 642.235 Q282.014 646.818 282.014 655.568 Q282.014 664.295 278.935 668.902 Q275.88 673.485 270.07 673.485 Q264.259 673.485 261.181 668.902 Q258.125 664.295 258.125 655.568 Q258.125 646.818 261.181 642.235 Q264.259 637.629 270.07 637.629 Z" fill="#000000" fill-rule="nonzero" fill-opacity="1"></path><path clip-path="url(#clip370)" d="M300.231 641.332 Q296.62 641.332 294.792 644.897 Q292.986 648.439 292.986 655.568 Q292.986 662.675 294.792 666.24 Q296.62 669.781 300.231 669.781 Q303.866 669.781 305.671 666.24 Q307.5 662.675 307.5 655.568 Q307.5 648.439 305.671 644.897 Q303.866 641.332 300.231 641.332 M300.231 637.629 Q306.042 637.629 309.097 642.235 Q312.176 646.818 312.176 655.568 Q312.176 664.295 309.097 668.902 Q306.042 673.485 300.231 673.485 Q294.421 673.485 291.343 668.902 Q288.287 664.295 288.287 655.568 Q288.287 646.818 291.343 642.235 Q294.421 637.629 300.231 637.629 Z" fill="#000000" fill-rule="nonzero" fill-opacity="1"></path><path clip-path="url(#clip370)" d="M166.112 351.478 Q162.501 351.478 160.672 355.043 Q158.866 358.585 158.866 365.714 Q158.866 372.821 160.672 376.386 Q162.501 379.927 166.112 379.927 Q169.746 379.927 171.552 376.386 Q173.38 372.821 173.38 365.714 Q173.38 358.585 171.552 355.043 Q169.746 351.478 166.112 351.478 M166.112 347.775 Q171.922 347.775 174.977 352.381 Q178.056 356.964 178.056 365.714 Q178.056 374.441 174.977 379.048 Q171.922 383.631 166.112 383.631 Q160.302 383.631 157.223 379.048 Q154.167 374.441 154.167 365.714 Q154.167 356.964 157.223 352.381 Q160.302 347.775 166.112 347.775 Z" fill="#000000" fill-rule="nonzero" fill-opacity="1"></path><path clip-path="url(#clip370)" d="M186.274 377.08 L191.158 377.08 L191.158 382.96 L186.274 382.96 L186.274 377.08 Z" fill="#000000" fill-rule="nonzero" fill-opacity="1"></path><path clip-path="url(#clip370)" d="M211.343 351.478 Q207.732 351.478 205.903 355.043 Q204.098 358.585 204.098 365.714 Q204.098 372.821 205.903 376.386 Q207.732 379.927 211.343 379.927 Q214.977 379.927 216.783 376.386 Q218.611 372.821 218.611 365.714 Q218.611 358.585 216.783 355.043 Q214.977 351.478 211.343 351.478 M211.343 347.775 Q217.153 347.775 220.209 352.381 Q223.287 356.964 223.287 365.714 Q223.287 374.441 220.209 379.048 Q217.153 383.631 211.343 383.631 Q205.533 383.631 202.454 379.048 Q199.399 374.441 199.399 365.714 Q199.399 356.964 202.454 352.381 Q205.533 347.775 211.343 347.775 Z" fill="#000000" fill-rule="nonzero" fill-opacity="1"></path><path clip-path="url(#clip370)" d="M241.505 351.478 Q237.894 351.478 236.065 355.043 Q234.26 358.585 234.26 365.714 Q234.26 372.821 236.065 376.386 Q237.894 379.927 241.505 379.927 Q245.139 379.927 246.945 376.386 Q248.773 372.821 248.773 365.714 Q248.773 358.585 246.945 355.043 Q245.139 351.478 241.505 351.478 M241.505 347.775 Q247.315 347.775 250.371 352.381 Q253.449 356.964 253.449 365.714 Q253.449 374.441 250.371 379.048 Q247.315 383.631 241.505 383.631 Q235.695 383.631 232.616 379.048 Q229.56 374.441 229.56 365.714 Q229.56 356.964 232.616 352.381 Q235.695 347.775 241.505 347.775 Z" fill="#000000" fill-rule="nonzero" fill-opacity="1"></path><path clip-path="url(#clip370)" d="M271.667 351.478 Q268.056 351.478 266.227 355.043 Q264.421 358.585 264.421 365.714 Q264.421 372.821 266.227 376.386 Q268.056 379.927 271.667 379.927 Q275.301 379.927 277.107 376.386 Q278.935 372.821 278.935 365.714 Q278.935 358.585 277.107 355.043 Q275.301 351.478 271.667 351.478 M271.667 347.775 Q277.477 347.775 280.532 352.381 Q283.611 356.964 283.611 365.714 Q283.611 374.441 280.532 379.048 Q277.477 383.631 271.667 383.631 Q265.857 383.631 262.778 379.048 Q259.722 374.441 259.722 365.714 Q259.722 356.964 262.778 352.381 Q265.857 347.775 271.667 347.775 Z" fill="#000000" fill-rule="nonzero" fill-opacity="1"></path><path clip-path="url(#clip370)" d="M295.856 379.024 L312.176 379.024 L312.176 382.96 L290.231 382.96 L290.231 379.024 Q292.893 376.27 297.477 371.64 Q302.083 366.988 303.264 365.645 Q305.509 363.122 306.389 361.386 Q307.292 359.626 307.292 357.937 Q307.292 355.182 305.347 353.446 Q303.426 351.71 300.324 351.71 Q298.125 351.71 295.671 352.474 Q293.241 353.238 290.463 354.788 L290.463 350.066 Q293.287 348.932 295.741 348.353 Q298.194 347.775 300.231 347.775 Q305.602 347.775 308.796 350.46 Q311.991 353.145 311.991 357.636 Q311.991 359.765 311.18 361.687 Q310.393 363.585 308.287 366.177 Q307.708 366.849 304.606 370.066 Q301.505 373.261 295.856 379.024 Z" fill="#000000" fill-rule="nonzero" fill-opacity="1"></path><path clip-path="url(#clip370)" d="M164.028 61.6243 Q160.417 61.6243 158.589 65.1891 Q156.783 68.7307 156.783 75.8603 Q156.783 82.9668 158.589 86.5316 Q160.417 90.0732 164.028 90.0732 Q167.663 90.0732 169.468 86.5316 Q171.297 82.9668 171.297 75.8603 Q171.297 68.7307 169.468 65.1891 Q167.663 61.6243 164.028 61.6243 M164.028 57.9206 Q169.839 57.9206 172.894 62.5271 Q175.973 67.1104 175.973 75.8603 Q175.973 84.5871 172.894 89.1936 Q169.839 93.7769 164.028 93.7769 Q158.218 93.7769 155.14 89.1936 Q152.084 84.5871 152.084 75.8603 Q152.084 67.1104 155.14 62.5271 Q158.218 57.9206 164.028 57.9206 Z" fill="#000000" fill-rule="nonzero" fill-opacity="1"></path><path clip-path="url(#clip370)" d="M184.19 87.226 L189.075 87.226 L189.075 93.1056 L184.19 93.1056 L184.19 87.226 Z" fill="#000000" fill-rule="nonzero" fill-opacity="1"></path><path clip-path="url(#clip370)" d="M209.26 61.6243 Q205.649 61.6243 203.82 65.1891 Q202.014 68.7307 202.014 75.8603 Q202.014 82.9668 203.82 86.5316 Q205.649 90.0732 209.26 90.0732 Q212.894 90.0732 214.699 86.5316 Q216.528 82.9668 216.528 75.8603 Q216.528 68.7307 214.699 65.1891 Q212.894 61.6243 209.26 61.6243 M209.26 57.9206 Q215.07 57.9206 218.125 62.5271 Q221.204 67.1104 221.204 75.8603 Q221.204 84.5871 218.125 89.1936 Q215.07 93.7769 209.26 93.7769 Q203.449 93.7769 200.371 89.1936 Q197.315 84.5871 197.315 75.8603 Q197.315 67.1104 200.371 62.5271 Q203.449 57.9206 209.26 57.9206 Z" fill="#000000" fill-rule="nonzero" fill-opacity="1"></path><path clip-path="url(#clip370)" d="M239.422 61.6243 Q235.81 61.6243 233.982 65.1891 Q232.176 68.7307 232.176 75.8603 Q232.176 82.9668 233.982 86.5316 Q235.81 90.0732 239.422 90.0732 Q243.056 90.0732 244.861 86.5316 Q246.69 82.9668 246.69 75.8603 Q246.69 68.7307 244.861 65.1891 Q243.056 61.6243 239.422 61.6243 M239.422 57.9206 Q245.232 57.9206 248.287 62.5271 Q251.366 67.1104 251.366 75.8603 Q251.366 84.5871 248.287 89.1936 Q245.232 93.7769 239.422 93.7769 Q233.611 93.7769 230.533 89.1936 Q227.477 84.5871 227.477 75.8603 Q227.477 67.1104 230.533 62.5271 Q233.611 57.9206 239.422 57.9206 Z" fill="#000000" fill-rule="nonzero" fill-opacity="1"></path><path clip-path="url(#clip370)" d="M269.583 61.6243 Q265.972 61.6243 264.144 65.1891 Q262.338 68.7307 262.338 75.8603 Q262.338 82.9668 264.144 86.5316 Q265.972 90.0732 269.583 90.0732 Q273.218 90.0732 275.023 86.5316 Q276.852 82.9668 276.852 75.8603 Q276.852 68.7307 275.023 65.1891 Q273.218 61.6243 269.583 61.6243 M269.583 57.9206 Q275.394 57.9206 278.449 62.5271 Q281.528 67.1104 281.528 75.8603 Q281.528 84.5871 278.449 89.1936 Q275.394 93.7769 269.583 93.7769 Q263.773 93.7769 260.695 89.1936 Q257.639 84.5871 257.639 75.8603 Q257.639 67.1104 260.695 62.5271 Q263.773 57.9206 269.583 57.9206 Z" fill="#000000" fill-rule="nonzero" fill-opacity="1"></path><path clip-path="url(#clip370)" d="M302.592 62.6197 L290.787 81.0686 L302.592 81.0686 L302.592 62.6197 M301.366 58.5456 L307.245 58.5456 L307.245 81.0686 L312.176 81.0686 L312.176 84.9575 L307.245 84.9575 L307.245 93.1056 L302.592 93.1056 L302.592 84.9575 L286.991 84.9575 L286.991 80.4436 L301.366 58.5456 Z" fill="#000000" fill-rule="nonzero" fill-opacity="1"></path><path clip-path="url(#clip370)" d="M49.9359 795.018 L28.3562 795.018 L28.3562 789.161 L49.7131 789.161 Q54.7739 789.161 57.3202 787.188 Q59.8346 785.215 59.8346 781.268 Q59.8346 776.525 56.8109 773.788 Q53.7872 771.019 48.5673 771.019 L28.3562 771.019 L28.3562 765.163 L64.0042 765.163 L64.0042 771.019 L58.5296 771.019 Q61.7762 773.152 63.3676 775.984 Q64.9272 778.785 64.9272 782.509 Q64.9272 788.652 61.1078 791.835 Q57.2883 795.018 49.9359 795.018 M27.4968 780.281 L27.4968 780.281 Z" fill="#000000" fill-rule="nonzero" fill-opacity="1"></path><path clip-path="url(#clip370)" d="M14.5426 739.031 Q21.8632 743.296 29.0246 745.365 Q36.186 747.434 43.5384 747.434 Q50.8908 747.434 58.1159 745.365 Q65.3091 743.265 72.5979 739.031 L72.5979 744.124 Q65.1182 748.898 57.8931 751.285 Q50.668 753.641 43.5384 753.641 Q36.4406 753.641 29.2474 751.285 Q22.0542 748.93 14.5426 744.124 L14.5426 739.031 Z" fill="#000000" fill-rule="nonzero" fill-opacity="1"></path><path clip-path="url(#clip370)" d="M28.3562 698.036 L45.7028 710.927 L64.0042 697.368 L64.0042 704.275 L49.9996 714.651 L64.0042 725.027 L64.0042 731.934 L45.3526 718.088 L28.3562 730.756 L28.3562 723.849 L41.0558 714.396 L28.3562 704.943 L28.3562 698.036 Z" fill="#000000" fill-rule="nonzero" fill-opacity="1"></path><path clip-path="url(#clip370)" d="M14.5426 690.015 L14.5426 684.923 Q22.0542 680.149 29.2474 677.793 Q36.4406 675.406 43.5384 675.406 Q50.668 675.406 57.8931 677.793 Q65.1182 680.149 72.5979 684.923 L72.5979 690.015 Q65.3091 685.782 58.1159 683.713 Q50.8908 681.613 43.5384 681.613 Q36.186 681.613 29.0246 683.713 Q21.8632 685.782 14.5426 690.015 Z" fill="#000000" fill-rule="nonzero" fill-opacity="1"></path><polyline clip-path="url(#clip372)" style="stroke:#009af9; stroke-linecap:round; stroke-linejoin:round; stroke-width:4; stroke-opacity:1; fill:none" points="404.909,655.534 406.802,684.084 408.695,712.635 410.588,741.185 412.481,769.736 414.374,798.287 416.267,826.837 418.16,855.388 420.053,883.938 421.946,912.489 423.839,941.039 425.732,963.144 427.625,984.605 429.518,1006.06 431.411,1027.53 433.304,1048.99 435.197,1070.45 437.09,1091.91 438.983,1113.37 440.876,1134.83 442.769,1156.29 444.662,1167.59 446.555,1176.64 448.448,1185.69 450.341,1194.74 452.234,1203.8 454.127,1212.85 456.02,1221.9 457.913,1230.95 459.806,1240 461.699,1249.05 463.592,1247.46 465.485,1241.88 467.378,1236.29 469.271,1230.71 471.164,1225.13 473.057,1219.55 474.95,1213.97 476.843,1208.39 478.736,1202.81 480.629,1197.23 482.522,1183.25 484.415,1164.47 486.308,1145.69 488.201,1126.91 490.094,1108.13 491.987,1089.35 493.88,1070.57 495.773,1051.79 497.666,1033.01 499.559,1014.23 501.452,990.834 503.345,963.584 505.239,936.333 507.132,909.083 509.025,881.833 510.918,854.583 512.811,827.333 514.704,800.083 516.597,772.833 518.49,745.583 520.383,717.593 522.276,688.715 524.169,659.838 526.062,630.96 527.955,602.082 529.848,573.205 531.741,544.327 533.634,515.45 535.527,486.572 537.42,457.695 539.313,430.861 541.206,407.606 543.099,384.351 544.992,361.095 546.885,337.84 548.778,314.584 550.671,291.329 552.564,268.073 554.457,244.818 556.35,221.562 558.243,201.435 560.136,189.647 562.029,177.859 563.922,166.072 565.815,154.284 567.708,142.496 569.601,130.709 571.494,118.921 573.387,107.134 575.28,95.346 577.173,86.1857 579.066,88.8481 580.959,91.5105 582.852,94.173 584.745,96.8354 586.638,99.4978 588.531,102.16 590.424,104.823 592.317,107.485 594.21,110.148 596.103,114.067 597.996,130.553 599.889,147.04 601.782,163.526 603.675,180.013 605.568,196.499 607.461,212.986 609.354,229.472 611.247,245.959 613.14,262.445 615.033,278.932 616.926,305.164 618.819,331.397 620.712,357.63 622.605,383.863 624.498,410.095 626.391,436.328 628.284,462.561 630.177,488.793 632.07,515.026 633.963,541.259 635.856,570.432 637.749,599.9 639.642,629.367 641.535,658.835 643.428,688.302 645.321,717.77 647.214,747.237 649.107,776.705 651,806.172 652.893,835.64 654.786,861.765 656.679,887.148 658.572,912.531 660.465,937.914 662.358,963.297 664.251,988.68 666.144,1014.06 668.037,1039.45 669.93,1064.83 671.823,1090.21 673.716,1108.04 675.609,1123.04 677.502,1138.04 679.395,1153.04 681.288,1168.04 683.181,1183.04 685.074,1198.04 686.967,1213.04 688.86,1228.04 690.753,1243.04 692.646,1249.07 694.539,1249.98 696.432,1250.89 698.325,1251.8 700.218,1252.71 702.111,1253.62 704.004,1254.52 705.897,1255.43 707.79,1256.34 709.683,1257.25 711.576,1250.37 713.469,1237 715.362,1223.63 717.255,1210.26 719.148,1196.9 721.041,1183.53 722.934,1170.16 724.827,1156.79 726.72,1143.42 728.613,1130.05 730.506,1111.72 732.399,1087.45 734.292,1063.18 736.185,1038.91 738.078,1014.64 739.971,990.372 741.864,966.101 743.757,941.831 745.65,917.56 747.543,893.29 749.436,867.273 751.329,838.2 753.222,809.128 755.115,780.055 757.008,750.982 758.901,721.91 760.794,692.837 762.687,663.765 764.58,634.692 766.473,605.619 768.366,577.228 770.259,550.651 772.152,524.075 774.045,497.498 775.938,470.922 777.831,444.346 779.724,417.769 781.617,391.193 783.51,364.616 785.403,338.04 787.296,313.131 789.189,295.726 791.082,278.321 792.975,260.916 794.868,243.51 796.761,226.105 798.654,208.7 800.547,191.295 802.44,173.89 804.334,156.484 806.227,140.312 808.12,136.462 810.013,132.613 811.906,128.764 813.799,124.915 815.692,121.066 817.585,117.217 819.478,113.368 821.371,109.519 823.264,105.67 825.157,101.82 827.05,112.527 828.943,123.234 830.836,133.941 832.729,144.648 834.622,155.355 836.515,166.062 838.408,176.769 840.301,187.476 842.194,198.183 844.087,208.89 845.98,230.434 847.873,253.063 849.766,275.691 851.659,298.319 853.552,320.947 855.445,343.576 857.338,366.204 859.231,388.832 861.124,411.461 863.017,434.089 864.91,461.88 866.803,490.818 868.696,519.756 870.589,548.695 872.482,577.633 874.375,606.571 876.268,635.509 878.161,664.447 880.054,693.386 881.947,722.324 883.84,750.624 885.733,778.685 887.626,806.746 889.519,834.807 891.412,862.869 893.305,890.93 895.198,918.991 897.091,947.052 898.984,975.113 900.877,1003.17 902.77,1026.24 904.663,1046.46 906.556,1066.67 908.449,1086.89 910.342,1107.11 912.235,1127.32 914.128,1147.54 916.021,1167.75 917.914,1187.97 919.807,1208.19 921.7,1221.39 923.593,1228.75 925.486,1236.11 927.379,1243.48 929.272,1250.84 931.165,1258.2 933.058,1265.56 934.951,1272.92 936.844,1280.28 938.737,1287.65 940.63,1288.35 942.523,1281.06 944.416,1273.76 946.309,1266.47 948.202,1259.18 950.095,1251.89 951.988,1244.6 953.881,1237.3 955.774,1230.01 957.667,1222.72 959.56,1210.78 961.453,1190.69 963.346,1170.6 965.239,1150.52 967.132,1130.43 969.025,1110.35 970.918,1090.26 972.811,1070.18 974.704,1050.09 976.597,1030 978.49,1007.81 980.383,979.981 982.276,952.156 984.169,924.33 986.062,896.505 987.955,868.679 989.848,840.853 991.741,813.028 993.634,785.202 995.527,757.377 997.42,729.414 999.313,700.836 1001.21,672.257 1003.1,643.679 1004.99,615.101 1006.89,586.522 1008.78,557.944 1010.67,529.365 1012.56,500.787 1014.46,472.208 1016.35,444.214 1018.24,422.057 1020.14,399.901 1022.03,377.745 1023.92,355.588 1025.82,333.432 1027.71,311.275 1029.6,289.119 1031.49,266.963 1033.39,244.806 1035.28,222.65 1037.17,212.487 1039.07,202.324 1040.96,192.161 1042.85,181.998 1044.75,171.834 1046.64,161.671 1048.53,151.508 1050.42,141.345 1052.32,131.182 1054.21,121.019 1056.1,124.101 1058,128.508 1059.89,132.915 1061.78,137.322 1063.68,141.728 1065.57,146.135 1067.46,150.542 1069.35,154.949 1071.25,159.356 1073.14,163.762 1075.03,179.222 1076.93,197.137 1078.82,215.052 1080.71,232.967 1082.61,250.882 1084.5,268.797 1086.39,286.712 1088.28,304.627 1090.18,322.543 1092.07,340.458 1093.96,364.972 1095.86,391.961 1097.75,418.95 1099.64,445.939 1101.54,472.927 1103.43,499.916 1105.32,526.905 1107.21,553.894 1109.11,580.883 1111,607.872 1112.89,636.371 1114.79,665.734 1116.68,695.096 1118.57,724.458 1120.47,753.821 1122.36,783.183 1124.25,812.545 1126.14,841.908 1128.04,871.27 1129.93,900.633 1131.82,927.312 1133.72,951.754 1135.61,976.197 1137.5,1000.64 1139.4,1025.08 1141.29,1049.53 1143.18,1073.97 1145.07,1098.41 1146.97,1122.85 1148.86,1147.3 1150.75,1166.75 1152.65,1180.21 1154.54,1193.67 1156.43,1207.12 1158.33,1220.58 1160.22,1234.04 1162.11,1247.5 1164,1260.96 1165.9,1274.42 1167.79,1287.88 1169.68,1296.13 1171.58,1295.29 1173.47,1294.44 1175.36,1293.59 1177.26,1292.75 1179.15,1291.9 1181.04,1291.05 1182.93,1290.21 1184.83,1289.36 1186.72,1288.51 1188.61,1283.83 1190.51,1268.93 1192.4,1254.03 1194.29,1239.12 1196.19,1224.22 1198.08,1209.32 1199.97,1194.42 1201.86,1179.51 1203.76,1164.61 1205.65,1149.71 1207.54,1132.93 1209.44,1107.74 1211.33,1082.54 1213.22,1057.34 1215.12,1032.14 1217.01,1006.94 1218.9,981.746 1220.79,956.547 1222.69,931.349 1224.58,906.151 1226.47,880.593 1228.37,851.43 1230.26,822.267 1232.15,793.104 1234.05,763.942 1235.94,734.779 1237.83,705.616 1239.72,676.453 1241.62,647.29 1243.51,618.127 1245.4,588.965 1247.3,563.158 1249.19,537.351 1251.08,511.544 1252.98,485.738 1254.87,459.931 1256.76,434.124 1258.66,408.317 1260.55,382.51 1262.44,356.704 1264.33,330.897 1266.23,314.034 1268.12,298.067 1270.01,282.099 1271.91,266.131 1273.8,250.163 1275.69,234.195 1277.59,218.227 1279.48,202.259 1281.37,186.291 1283.26,170.323 1285.16,165.699 1287.05,163.596 1288.94,161.493 1290.84,159.39 1292.73,157.287 1294.62,155.184 1296.52,153.08 1298.41,150.977 1300.3,148.874 1302.19,146.771 1304.09,155.162 1305.98,167.488 1307.87,179.813 1309.77,192.139 1311.66,204.465 1313.55,216.791 1315.45,229.116 1317.34,241.442 1319.23,253.768 1321.12,266.093 1323.02,285.667 1324.91,309.383 1326.8,333.099 1328.7,356.814 1330.59,380.53 1332.48,404.246 1334.38,427.961 1336.27,451.677 1338.16,475.393 1340.05,499.109 1341.95,525.828 1343.84,555.051 1345.73,584.273 1347.63,613.496 1349.52,642.719 1351.41,671.941 1353.31,701.164 1355.2,730.387 1357.09,759.609 1358.98,788.832 1360.88,817.259 1362.77,844.73 1364.66,872.202 1366.56,899.673 1368.45,927.145 1370.34,954.616 1372.24,982.088 1374.13,1009.56 1376.02,1037.03 1377.91,1064.5 1379.81,1088.86 1381.7,1107.76 1383.59,1126.66 1385.49,1145.56 1387.38,1164.46 1389.27,1183.36 1391.17,1202.26 1393.06,1221.15 1394.95,1240.05 1396.84,1258.95 1398.74,1274.24 1400.63,1279.89 1402.52,1285.53 1404.42,1291.18 1406.31,1296.83 1408.2,1302.48 1410.1,1308.12 1411.99,1313.77 1413.88,1319.42 1415.77,1325.07 1417.67,1328.05 1419.56,1319.08 1421.45,1310.1 1423.35,1301.13 1425.24,1292.15 1427.13,1283.17 1429.03,1274.2 1430.92,1265.22 1432.81,1256.24 1434.7,1247.27 1436.6,1237.17 1438.49,1215.85 1440.38,1194.53 1442.28,1173.21 1444.17,1151.89 1446.06,1130.57 1447.96,1109.25 1449.85,1087.93 1451.74,1066.61 1453.63,1045.29 1455.53,1023.97 1457.42,995.672 1459.31,967.371 1461.21,939.07 1463.1,910.77 1464.99,882.469 1466.89,854.168 1468.78,825.868 1470.67,797.567 1472.56,769.266 1474.46,740.965 1476.35,712.778 1478.24,684.602 1480.14,656.425 1482.03,628.249 1483.92,600.073 1485.82,571.897 1487.71,543.72 1489.6,515.544 1491.49,487.368 1493.39,459.192 1495.28,436.905 1497.17,415.928 1499.07,394.951 1500.96,373.973 1502.85,352.996 1504.75,332.019 1506.64,311.041 1508.53,290.064 1510.42,269.087 1512.32,248.109 1514.21,236.205 1516.1,227.704 1518,219.202 1519.89,210.701 1521.78,202.199 1523.68,193.698 1525.57,185.196 1527.46,176.695 1529.35,168.193 1531.25,159.692 1533.14,160.505 1535.03,166.641 1536.93,172.777 1538.82,178.913 1540.71,185.048 1542.61,191.184 1544.5,197.32 1546.39,203.456 1548.28,209.592 1550.18,215.728 1552.07,229.034 1553.96,248.314 1555.86,267.594 1557.75,286.874 1559.64,306.154 1561.54,325.434 1563.43,344.714 1565.32,363.994 1567.22,383.274 1569.11,402.554 1571,425.638 1572.89,453.287 1574.79,480.936 1576.68,508.585 1578.57,536.234 1580.47,563.882 1582.36,591.531 1584.25,619.18 1586.15,646.829 1588.04,674.478 1589.93,702.673 1591.82,731.826 1593.72,760.978 1595.61,790.131 1597.5,819.283 1599.4,848.436 1601.29,877.589 1603.18,906.741 1605.08,935.894 1606.97,965.046 1608.86,992.634 1610.75,1016.05 1612.65,1039.47 1614.54,1062.88 1616.43,1086.3 1618.33,1109.71 1620.22,1133.13 1622.11,1156.54 1624.01,1179.96 1625.9,1203.37 1627.79,1224.69 1629.68,1236.56 1631.58,1248.43 1633.47,1260.3 1635.36,1272.17 1637.26,1284.05 1639.15,1295.92 1641.04,1307.79 1642.94,1319.66 1644.83,1331.53 1646.72,1342.08 1648.61,1339.48 1650.51,1336.88 1652.4,1334.29 1654.29,1331.69 1656.19,1329.09 1658.08,1326.49 1659.97,1323.89 1661.87,1321.29 1663.76,1318.69 1665.65,1316.09 1667.54,1299.71 1669.44,1283.33 1671.33,1266.94 1673.22,1250.56 1675.12,1234.18 1677.01,1217.8 1678.9,1201.42 1680.8,1185.03 1682.69,1168.65 1684.58,1152.27 1686.47,1127.11 1688.37,1101.08 1690.26,1075.05 1692.15,1049.01 1694.05,1022.98 1695.94,996.941 1697.83,970.906 1699.73,944.872 1701.62,918.837 1703.51,892.802 1705.4,864.221 1707.3,835.073 1709.19,805.925 1711.08,776.777 1712.98,747.629 1714.87,718.481 1716.76,689.333 1718.66,660.185 1720.55,631.037 1722.44,601.889 1724.33,575.799 1726.23,550.855 1728.12,525.911 1730.01,500.967 1731.91,476.023 1733.8,451.078 1735.69,426.134 1737.59,401.19 1739.48,376.246 1741.37,351.302 1743.26,333.022 1745.16,318.549 1747.05,304.076 1748.94,289.603 1750.84,275.13 1752.73,260.657 1754.62,246.184 1756.52,231.711 1758.41,217.239 1760.3,202.766 1762.19,195.997 1764.09,195.648 1765.98,195.299 1767.87,194.95 1769.77,194.601 1771.66,194.252 1773.55,193.903 1775.45,193.554 1777.34,193.205 1779.23,192.856 1781.12,198.984 1783.02,212.885 1784.91,226.786 1786.8,240.687 1788.7,254.588 1790.59,268.489 1792.48,282.39 1794.38,296.291 1796.27,310.192 1798.16,324.093 1800.05,341.927 1801.95,366.646 1803.84,391.364 1805.73,416.083 1807.63,440.802 1809.52,465.52 1811.41,490.239 1813.31,514.957 1815.2,539.676 1817.09,564.394 1818.98,590.391 1820.88,619.793 1822.77,649.196 1824.66,678.599 1826.56,708.002 1828.45,737.405 1830.34,766.808 1832.24,796.21 1834.13,825.613 1836.02,855.016 1837.91,883.943 1839.81,910.727 1841.7,937.511 1843.59,964.295 1845.49,991.079 1847.38,1017.86 1849.27,1044.65 1851.17,1071.43 1853.06,1098.22 1854.95,1125 1856.85,1150.94 1858.74,1168.46 1860.63,1185.97 1862.52,1203.49 1864.42,1221.01 1866.31,1238.52 1868.2,1256.04 1870.1,1273.55 1871.99,1291.07 1873.88,1308.59 1875.78,1326.1 1877.67,1330.02 1879.56,1333.93 1881.45,1337.84 1883.35,1341.76 1885.24,1345.67 1887.13,1349.58 1889.03,1353.5 1890.92,1357.41 1892.81,1361.32 1894.71,1365.24 1896.6,1355.93 1898.49,1345.3 1900.38,1334.67 1902.28,1324.05 1904.17,1313.42 1906.06,1302.79 1907.96,1292.16 1909.85,1281.53 1911.74,1270.91 1913.64,1260.28 1915.53,1239.96 1917.42,1217.48 1919.31,1195 1921.21,1172.53 1923.1,1150.05 1924.99,1127.57 1926.89,1105.1 1928.78,1082.62 1930.67,1060.14 1932.57,1037.67 1934.46,1010.68 1936.35,982.01 1938.24,953.336 1940.14,924.663 1942.03,895.989 1943.92,867.315 1945.82,838.641 1947.71,809.967 1949.6,781.294 1951.5,752.62 1953.39,724.583 1955.28,696.911 1957.17,669.238 1959.07,641.566 1960.96,613.893 1962.85,586.221 1964.75,558.548 1966.64,530.876 1968.53,503.203 1970.43,475.531 1972.32,452.195 1974.21,432.472 1976.1,412.75 1978,393.027 1979.89,373.305 1981.78,353.583 1983.68,333.86 1985.57,314.138 1987.46,294.415 1989.36,274.693 1991.25,260.84 1993.14,254.031 1995.03,247.222 1996.93,240.413 1998.82,233.604 2000.71,226.795 2002.61,219.986 2004.5,213.177 2006.39,206.368 2008.29,199.559 2010.18,198.078 2012.07,205.922 2013.96,213.766 2015.86,221.609 2017.75,229.453 2019.64,237.296 2021.54,245.14 2023.43,252.984 2025.32,260.827 2027.22,268.671 2029.11,279.987 2031,300.564 2032.89,321.14 2034.79,341.716 2036.68,362.293 2038.57,382.869 2040.47,403.446 2042.36,424.022 2044.25,444.599 2046.15,465.175 2048.04,487.139 2049.93,515.35 2051.82,543.56 2053.72,571.77 2055.61,599.98 2057.5,628.19 2059.4,656.401 2061.29,684.611 2063.18,712.821 2065.08,741.031 2066.97,769.299 2068.86,798.137 2070.75,826.976 2072.65,855.815 2074.54,884.653 2076.43,913.492 2078.33,942.331 2080.22,971.169 2082.11,1000.01 2084.01,1028.85 2085.9,1057.69 2087.79,1079.99 2089.68,1102.3 2091.58,1124.6 2093.47,1146.91 2095.36,1169.21 2097.26,1191.52 2099.15,1213.82 2101.04,1236.13 2102.94,1258.43 2104.83,1280.74 2106.72,1292.07 2108.61,1302.31 2110.51,1312.55 2112.4,1322.79 2114.29,1333.04 2116.19,1343.28 2118.08,1353.52 2119.97,1363.76 2121.87,1374 2123.76,1384.24 2125.65,1382.55 2127.54,1378.21 2129.44,1373.86 2131.33,1369.52 2133.22,1365.18 2135.12,1360.84 2137.01,1356.5 2138.9,1352.15 2140.8,1347.81 2142.69,1343.47 2144.58,1329.34 2146.48,1311.54 2148.37,1293.74 2150.26,1275.93 2152.15,1258.13 2154.05,1240.33 2155.94,1222.53 2157.83,1204.73 2159.73,1186.93 2161.62,1169.12 2163.51,1145.61 2165.41,1118.83 2167.3,1092.06 2169.19,1065.28 2171.08,1038.5 2172.98,1011.72 2174.87,984.946 2176.76,958.169 2178.66,931.391 2180.55,904.614 2182.44,876.609 2184.34,847.581 2186.23,818.553 2188.12,789.525 2190.01,760.497 2191.91,731.47 2193.8,702.442 2195.69,673.414 2197.59,644.386 2199.48,615.358 2201.37,588.619 2203.27,564.628 2205.16,540.637 2207.05,516.645 2208.94,492.654 2210.84,468.663 2212.73,444.671 2214.62,420.68 2216.52,396.688 2218.41,372.697 2220.3,352.73 2222.2,339.804 2224.09,326.879 2225.98,313.954 2227.87,301.028 2229.77,288.103 2231.66,275.178 2233.55,262.252 2235.45,249.327 2237.34,236.402 2239.23,227.385 2241.13,228.792 2243.02,230.199 2244.91,231.606 2246.8,233.013 2248.7,234.42 2250.59,235.827 2252.48,237.234 2254.38,238.641 2256.27,240.048 2258.16,244.004 2260.06,259.431 2261.95,274.857 2263.84,290.284 2265.73,305.711 2267.63,321.138 2269.52,336.565 2271.41,351.991 2273.31,367.418 2275.2,382.845 2277.09,399.2 2278.99,424.833 2280.88,450.467 2282.77,476.1 2284.66,501.733 2286.56,527.367 2288.45,553 2290.34,578.633 2292.24,604.267 2294.13,629.9 2296.02,655.534 "></polyline>
<polyline clip-path="url(#clip372)" style="stroke:#e26f46; stroke-linecap:round; stroke-linejoin:round; stroke-width:4; stroke-opacity:1; fill:none" stroke-dasharray="16, 10" points="404.909,655.534 406.802,684.688 408.695,713.77 410.588,742.707 412.481,771.427 414.374,799.858 416.267,827.929 418.16,855.571 420.053,882.714 421.946,909.292 423.839,935.238 425.732,960.486 427.625,984.976 429.518,1008.64 431.411,1031.43 433.304,1053.29 435.197,1074.15 437.09,1093.97 438.983,1112.7 440.876,1130.29 442.769,1146.7 444.662,1161.89 446.555,1175.81 448.448,1188.44 450.341,1199.75 452.234,1209.7 454.127,1218.28 456.02,1225.45 457.913,1231.21 459.806,1235.53 461.699,1238.42 463.592,1239.85 465.485,1239.84 467.378,1238.37 469.271,1235.46 471.164,1231.11 473.057,1225.32 474.95,1218.13 476.843,1209.54 478.736,1199.58 480.629,1188.27 482.522,1175.64 484.415,1161.72 486.308,1146.55 488.201,1130.17 490.094,1112.62 491.987,1093.94 493.88,1074.18 495.773,1053.39 497.666,1031.62 499.559,1008.92 501.452,985.363 503.345,960.997 505.239,935.886 507.132,910.093 509.025,883.684 510.918,856.723 512.811,829.281 514.704,801.425 516.597,773.225 518.49,744.753 520.383,716.081 522.276,687.281 524.169,658.424 526.062,629.584 527.955,600.834 529.848,572.245 531.741,543.891 533.634,515.841 535.527,488.167 537.42,460.939 539.313,434.225 541.206,408.092 543.099,382.606 544.992,357.831 546.885,333.831 548.778,310.664 550.671,288.391 552.564,267.066 554.457,246.744 556.35,227.476 558.243,209.31 560.136,192.293 562.029,176.467 563.922,161.873 565.815,148.547 567.708,136.523 569.601,125.832 571.494,116.501 573.387,108.554 575.28,102.01 577.173,96.8864 579.066,93.197 580.959,90.951 582.852,90.1545 584.745,90.8098 586.638,92.9157 588.531,96.4673 590.424,101.456 592.317,107.87 594.21,115.693 596.103,124.906 597.996,135.487 599.889,147.409 601.782,160.643 603.675,175.156 605.568,190.912 607.461,207.872 609.354,225.995 611.247,245.234 613.14,265.542 615.033,286.869 616.926,309.162 618.819,332.365 620.712,356.42 622.605,381.268 624.498,406.846 626.391,433.092 628.284,459.939 630.177,487.322 632.07,515.171 633.963,543.417 635.856,571.99 637.749,600.819 639.642,629.832 641.535,658.956 643.428,688.12 645.321,717.25 647.214,746.274 649.107,775.119 651,803.714 652.893,831.988 654.786,859.869 656.679,887.29 658.572,914.18 660.465,940.474 662.358,966.106 664.251,991.011 666.144,1015.13 668.037,1038.4 669.93,1060.76 671.823,1082.16 673.716,1102.55 675.609,1121.87 677.502,1140.08 679.395,1157.13 681.288,1172.98 683.181,1187.59 685.074,1200.92 686.967,1212.95 688.86,1223.63 690.753,1232.95 692.646,1240.88 694.539,1247.4 696.432,1252.5 698.325,1256.16 700.218,1258.38 702.111,1259.14 704.004,1258.45 705.897,1256.32 707.79,1252.74 709.683,1247.72 711.576,1241.29 713.469,1233.45 715.362,1224.22 717.255,1213.63 719.148,1201.71 721.041,1188.48 722.934,1173.98 724.827,1158.25 726.72,1141.32 728.613,1123.24 730.506,1104.05 732.399,1083.81 734.292,1062.56 736.185,1040.36 738.078,1017.26 739.971,993.317 741.864,968.599 743.757,943.166 745.65,917.08 747.543,890.407 749.436,863.215 751.329,835.573 753.222,807.55 755.115,779.215 757.008,750.642 758.901,721.902 760.794,693.066 762.687,664.208 764.58,635.401 766.473,606.716 768.366,578.227 770.259,550.004 772.152,522.119 774.045,494.643 775.938,467.643 777.831,441.189 779.724,415.347 781.617,390.182 783.51,365.758 785.403,342.135 787.296,319.374 789.189,297.532 791.082,276.664 792.975,256.822 794.868,238.058 796.761,220.417 798.654,203.945 800.547,188.684 802.44,174.671 804.334,161.943 806.227,150.531 808.12,140.465 810.013,131.77 811.906,124.469 813.799,118.579 815.692,114.117 817.585,111.093 819.478,109.516 821.371,109.39 823.264,110.716 825.157,113.491 827.05,117.707 828.943,123.356 830.836,130.423 832.729,138.891 834.622,148.739 836.515,159.943 838.408,172.475 840.301,186.304 842.194,201.396 844.087,217.713 845.98,235.216 847.873,253.86 849.766,273.599 851.659,294.384 853.552,316.164 855.445,338.884 857.338,362.488 859.231,386.917 861.124,412.11 863.017,438.005 864.91,464.537 866.803,491.64 868.696,519.246 870.589,547.288 872.482,575.694 874.375,604.394 876.268,633.317 878.161,662.39 880.054,691.542 881.947,720.699 883.84,749.789 885.733,778.739 887.626,807.478 889.519,835.933 891.412,864.034 893.305,891.711 895.198,918.895 897.091,945.518 898.984,971.514 900.877,996.818 902.77,1021.37 904.663,1045.1 906.556,1067.96 908.449,1089.89 910.342,1110.83 912.235,1130.73 914.128,1149.54 916.021,1167.22 917.914,1183.72 919.807,1199 921.7,1213.03 923.593,1225.76 925.486,1237.16 927.379,1247.22 929.272,1255.9 931.165,1263.18 933.058,1269.05 934.951,1273.48 936.844,1276.48 938.737,1278.02 940.63,1278.12 942.523,1276.76 944.416,1273.96 946.309,1269.71 948.202,1264.04 950.095,1256.95 951.988,1248.47 953.881,1238.61 955.774,1227.4 957.667,1214.87 959.56,1201.05 961.453,1185.98 963.346,1169.69 965.239,1152.22 967.132,1133.63 969.025,1113.94 970.918,1093.23 972.811,1071.53 974.704,1048.91 976.597,1025.41 978.49,1001.11 980.383,976.049 982.276,950.306 984.169,923.94 986.062,897.02 987.955,869.611 989.848,841.784 991.741,813.608 993.634,785.155 995.527,756.495 997.42,727.702 999.313,698.847 1001.21,670.003 1003.1,641.244 1004.99,612.64 1006.89,584.265 1008.78,556.19 1010.67,528.485 1012.56,501.22 1014.46,474.465 1016.35,448.285 1018.24,422.748 1020.14,397.917 1022.03,373.855 1023.92,350.623 1025.82,328.28 1027.71,306.881 1029.6,286.481 1031.49,267.131 1033.39,248.88 1035.28,231.773 1037.17,215.856 1039.07,201.166 1040.96,187.743 1042.85,175.619 1044.75,164.826 1046.64,155.39 1048.53,147.336 1050.42,140.685 1052.32,135.453 1054.21,131.654 1056.1,129.298 1058,128.391 1059.89,128.936 1061.78,130.932 1063.68,134.373 1065.57,139.253 1067.46,145.559 1069.35,153.276 1071.25,162.384 1073.14,172.861 1075.03,184.682 1076.93,197.818 1078.82,212.235 1080.71,227.898 1082.61,244.768 1084.5,262.803 1086.39,281.959 1088.28,302.188 1090.18,323.439 1092.07,345.66 1093.96,368.796 1095.86,392.788 1097.75,417.578 1099.64,443.103 1101.54,469.3 1103.43,496.104 1105.32,523.448 1107.21,551.264 1109.11,579.482 1111,608.033 1112.89,636.845 1114.79,665.847 1116.68,694.965 1118.57,724.128 1120.47,753.263 1122.36,782.298 1124.25,811.159 1126.14,839.776 1128.04,868.077 1129.93,895.991 1131.82,923.448 1133.72,950.381 1135.61,976.723 1137.5,1002.41 1139.4,1027.37 1141.29,1051.55 1143.18,1074.89 1145.07,1097.32 1146.97,1118.8 1148.86,1139.27 1150.75,1158.67 1152.65,1176.97 1154.54,1194.11 1156.43,1210.05 1158.33,1224.75 1160.22,1238.18 1162.11,1250.31 1164,1261.09 1165.9,1270.52 1167.79,1278.55 1169.68,1285.18 1171.58,1290.39 1173.47,1294.16 1175.36,1296.48 1177.26,1297.36 1179.15,1296.79 1181.04,1294.76 1182.93,1291.29 1184.83,1286.38 1186.72,1280.05 1188.61,1272.32 1190.51,1263.2 1192.4,1252.71 1194.29,1240.89 1196.19,1227.76 1198.08,1213.36 1199.97,1197.71 1201.86,1180.88 1203.76,1162.88 1205.65,1143.78 1207.54,1123.61 1209.44,1102.44 1211.33,1080.31 1213.22,1057.27 1215.12,1033.39 1217.01,1008.73 1218.9,983.352 1220.79,957.313 1222.69,930.683 1224.58,903.528 1226.47,875.918 1228.37,847.921 1230.26,819.608 1232.15,791.05 1234.05,762.32 1235.94,733.489 1237.83,704.63 1239.72,675.816 1241.62,647.12 1243.51,618.613 1245.4,590.368 1247.3,562.455 1249.19,534.945 1251.08,507.907 1252.98,481.409 1254.87,455.518 1256.76,430.299 1258.66,405.816 1260.55,382.13 1262.44,359.301 1264.33,337.387 1266.23,316.443 1268.12,296.522 1270.01,277.674 1271.91,259.946 1273.8,243.383 1275.69,228.028 1277.59,213.919 1279.48,201.092 1281.37,189.579 1283.26,179.41 1285.16,170.61 1287.05,163.202 1288.94,157.204 1290.84,152.633 1292.73,149.5 1294.62,147.812 1296.52,147.576 1298.41,148.791 1300.3,151.456 1302.19,155.563 1304.09,161.103 1305.98,168.063 1307.87,176.425 1309.77,186.169 1311.66,197.271 1313.55,209.702 1315.45,223.434 1317.34,238.431 1319.23,254.657 1321.12,272.071 1323.02,290.629 1324.91,310.287 1326.8,330.994 1328.7,352.7 1330.59,375.351 1332.48,398.89 1334.38,423.258 1336.27,448.395 1338.16,474.239 1340.05,500.725 1341.95,527.786 1343.84,555.357 1345.73,583.367 1347.63,611.748 1349.52,640.429 1351.41,669.337 1353.31,698.401 1355.2,727.55 1357.09,756.709 1358.98,785.807 1360.88,814.77 1362.77,843.527 1364.66,872.007 1366.56,900.137 1368.45,927.849 1370.34,955.073 1372.24,981.741 1374.13,1007.79 1376.02,1033.15 1377.91,1057.75 1379.81,1081.55 1381.7,1104.48 1383.59,1126.48 1385.49,1147.5 1387.38,1167.48 1389.27,1186.38 1391.17,1204.14 1393.06,1220.73 1394.95,1236.11 1396.84,1250.23 1398.74,1263.06 1400.63,1274.57 1402.52,1284.73 1404.42,1293.52 1406.31,1300.9 1408.2,1306.88 1410.1,1311.42 1411.99,1314.53 1413.88,1316.18 1415.77,1316.39 1417.67,1315.14 1419.56,1312.45 1421.45,1308.31 1423.35,1302.75 1425.24,1295.77 1427.13,1287.39 1429.03,1277.63 1430.92,1266.53 1432.81,1254.1 1434.7,1240.37 1436.6,1225.4 1438.49,1209.2 1440.38,1191.82 1442.28,1173.31 1444.17,1153.71 1446.06,1133.07 1447.96,1111.44 1449.85,1088.89 1451.74,1065.46 1453.63,1041.21 1455.53,1016.21 1457.42,990.514 1459.31,964.194 1461.21,937.313 1463.1,909.939 1464.99,882.142 1466.89,853.99 1468.78,825.555 1470.67,796.909 1472.56,768.123 1474.46,739.27 1476.35,710.423 1478.24,681.654 1480.14,653.037 1482.03,624.642 1483.92,596.541 1485.82,568.805 1487.71,541.505 1489.6,514.708 1491.49,488.482 1493.39,462.894 1495.28,438.007 1497.17,413.885 1499.07,390.588 1500.96,368.174 1502.85,346.702 1504.75,326.224 1506.64,306.792 1508.53,288.456 1510.42,271.261 1512.32,255.251 1514.21,240.467 1516.1,226.946 1518,214.722 1519.89,203.826 1521.78,194.287 1523.68,186.127 1525.57,179.368 1527.46,174.028 1529.35,170.12 1531.25,167.654 1533.14,166.636 1535.03,167.071 1536.93,168.956 1538.82,172.288 1540.71,177.059 1542.61,183.257 1544.5,190.866 1546.39,199.87 1548.28,210.244 1550.18,221.964 1552.07,235 1553.96,249.321 1555.86,264.89 1557.75,281.67 1559.64,299.618 1561.54,318.69 1563.43,338.839 1565.32,360.014 1567.22,382.164 1569.11,405.231 1571,429.161 1572.89,453.892 1574.79,479.364 1576.68,505.512 1578.57,532.272 1580.47,559.577 1582.36,587.36 1584.25,615.55 1586.15,644.078 1588.04,672.873 1589.93,701.862 1591.82,730.974 1593.72,760.137 1595.61,789.276 1597.5,818.321 1599.4,847.198 1601.29,875.836 1603.18,904.163 1605.08,932.109 1606.97,959.604 1608.86,986.579 1610.75,1012.97 1612.65,1038.7 1614.54,1063.72 1616.43,1087.97 1618.33,1111.37 1620.22,1133.87 1622.11,1155.43 1624.01,1175.97 1625.9,1195.46 1627.79,1213.84 1629.68,1231.07 1631.58,1247.1 1633.47,1261.9 1635.36,1275.43 1637.26,1287.66 1639.15,1298.55 1641.04,1308.07 1642.94,1316.22 1644.83,1322.95 1646.72,1328.27 1648.61,1332.15 1650.51,1334.59 1652.4,1335.57 1654.29,1335.11 1656.19,1333.19 1658.08,1329.83 1659.97,1325.03 1661.87,1318.81 1663.76,1311.18 1665.65,1302.17 1667.54,1291.78 1669.44,1280.06 1671.33,1267.03 1673.22,1252.72 1675.12,1237.17 1677.01,1220.43 1678.9,1202.52 1680.8,1183.5 1682.69,1163.41 1684.58,1142.31 1686.47,1120.25 1688.37,1097.28 1690.26,1073.47 1692.15,1048.86 1694.05,1023.53 1695.94,997.543 1697.83,970.955 1699.73,943.838 1701.62,916.26 1703.51,888.29 1705.4,859.998 1707.3,831.457 1709.19,802.737 1711.08,773.911 1712.98,745.052 1714.87,716.233 1716.76,687.525 1718.66,659.001 1720.55,630.733 1722.44,602.792 1724.33,575.249 1726.23,548.173 1728.12,521.631 1730.01,495.692 1731.91,470.42 1733.8,445.878 1735.69,422.13 1737.59,399.234 1739.48,377.248 1741.37,356.229 1743.26,336.228 1745.16,317.296 1747.05,299.481 1748.94,282.829 1750.84,267.38 1752.73,253.175 1754.62,240.249 1756.52,228.635 1758.41,218.363 1760.3,209.458 1762.19,201.943 1764.09,195.838 1765.98,191.157 1767.87,187.914 1769.77,186.117 1771.66,185.77 1773.55,186.875 1775.45,189.429 1777.34,193.427 1779.23,198.859 1781.12,205.711 1783.02,213.967 1784.91,223.607 1786.8,234.606 1788.7,246.938 1790.59,260.571 1792.48,275.474 1794.38,291.607 1796.27,308.932 1798.16,327.405 1800.05,346.981 1801.95,367.61 1803.84,389.242 1805.73,411.823 1807.63,435.296 1809.52,459.603 1811.41,484.684 1813.31,510.476 1815.2,536.915 1817.09,563.936 1818.98,591.47 1820.88,619.449 1822.77,647.805 1824.66,676.465 1826.56,705.358 1828.45,734.413 1830.34,763.558 1832.24,792.719 1834.13,821.824 1836.02,850.8 1837.91,879.575 1839.81,908.078 1841.7,936.238 1843.59,963.984 1845.49,991.247 1847.38,1017.96 1849.27,1044.06 1851.17,1069.47 1853.06,1094.14 1854.95,1118 1856.85,1140.99 1858.74,1163.07 1860.63,1184.16 1862.52,1204.22 1864.42,1223.2 1866.31,1241.06 1868.2,1257.74 1870.1,1273.21 1871.99,1287.43 1873.88,1300.36 1875.78,1311.97 1877.67,1322.23 1879.56,1331.12 1881.45,1338.62 1883.35,1344.7 1885.24,1349.35 1887.13,1352.57 1889.03,1354.34 1890.92,1354.65 1892.81,1353.52 1894.71,1350.93 1896.6,1346.91 1898.49,1341.45 1900.38,1334.58 1902.28,1326.3 1904.17,1316.65 1906.06,1305.65 1907.96,1293.32 1909.85,1279.69 1911.74,1264.81 1913.64,1248.7 1915.53,1231.41 1917.42,1212.98 1919.31,1193.46 1921.21,1172.9 1923.1,1151.35 1924.99,1128.86 1926.89,1105.49 1928.78,1081.31 1930.67,1056.36 1932.57,1030.72 1934.46,1004.44 1936.35,977.604 1938.24,950.265 1940.14,922.497 1942.03,894.37 1943.92,865.954 1945.82,837.321 1947.71,808.543 1949.6,779.693 1951.5,750.843 1953.39,722.066 1955.28,693.434 1957.17,665.02 1959.07,636.894 1960.96,609.128 1962.85,581.792 1964.75,554.955 1966.64,528.683 1968.53,503.044 1970.43,478.102 1972.32,453.919 1974.21,430.557 1976.1,408.075 1978,386.528 1979.89,365.973 1981.78,346.46 1983.68,328.038 1985.57,310.755 1987.46,294.654 1989.36,279.775 1991.25,266.157 1993.14,253.833 1995.03,242.835 1996.93,233.191 1998.82,224.926 2000.71,218.06 2002.61,212.611 2004.5,208.594 2006.39,206.017 2008.29,204.89 2010.18,205.214 2012.07,206.989 2013.96,210.211 2015.86,214.873 2017.75,220.962 2019.64,228.465 2021.54,237.363 2023.43,247.634 2025.32,259.252 2027.22,272.19 2029.11,286.414 2031,301.89 2032.89,318.579 2034.79,336.439 2036.68,355.428 2038.57,375.496 2040.47,396.595 2042.36,418.672 2044.25,441.672 2046.15,465.538 2048.04,490.211 2049.93,515.628 2051.82,541.727 2053.72,568.443 2055.61,595.709 2057.5,623.458 2059.4,651.619 2061.29,680.124 2063.18,708.901 2065.08,737.878 2066.97,766.984 2068.86,796.145 2070.75,825.289 2072.65,854.343 2074.54,883.236 2076.43,911.894 2078.33,940.248 2080.22,968.225 2082.11,995.756 2084.01,1022.77 2085.9,1049.21 2087.79,1075 2089.68,1100.07 2091.58,1124.38 2093.47,1147.85 2095.36,1170.42 2097.26,1192.05 2099.15,1212.67 2101.04,1232.24 2102.94,1250.71 2104.83,1268.03 2106.72,1284.15 2108.61,1299.05 2110.51,1312.68 2112.4,1325 2114.29,1335.99 2116.19,1345.63 2118.08,1353.87 2119.97,1360.72 2121.87,1366.14 2123.76,1370.13 2125.65,1372.68 2127.54,1373.78 2129.44,1373.42 2131.33,1371.62 2133.22,1368.36 2135.12,1363.68 2137.01,1357.56 2138.9,1350.04 2140.8,1341.13 2142.69,1330.85 2144.58,1319.23 2146.48,1306.29 2148.37,1292.08 2150.26,1276.63 2152.15,1259.97 2154.05,1242.15 2155.94,1223.21 2157.83,1203.2 2159.73,1182.18 2161.62,1160.19 2163.51,1137.29 2165.41,1113.53 2167.3,1088.99 2169.19,1063.71 2171.08,1037.77 2172.98,1011.22 2174.87,984.146 2176.76,956.6 2178.66,928.657 2180.55,900.388 2182.44,871.863 2184.34,843.154 2186.23,814.334 2188.12,785.475 2190.01,756.649 2191.91,727.93 2193.8,699.39 2195.69,671.1 2197.59,643.132 2199.48,615.556 2201.37,588.442 2203.27,561.858 2205.16,535.87 2207.05,510.545 2208.94,485.946 2210.84,462.135 2212.73,439.172 2214.62,417.115 2216.52,396.02 2218.41,375.94 2220.3,356.925 2222.2,339.024 2224.09,322.281 2225.98,306.74 2227.87,292.439 2229.77,279.414 2231.66,267.699 2233.55,257.324 2235.45,248.314 2237.34,240.693 2239.23,234.479 2241.13,229.69 2243.02,226.337 2244.91,224.43 2246.8,223.973 2248.7,224.967 2250.59,227.411 2252.48,231.3 2254.38,236.623 2256.27,243.367 2258.16,251.517 2260.06,261.052 2261.95,271.949 2263.84,284.18 2265.73,297.716 2267.63,312.523 2269.52,328.564 2271.41,345.8 2273.31,364.187 2275.2,383.681 2277.09,404.232 2278.99,425.789 2280.88,448.3 2282.77,471.707 2284.66,495.953 2286.56,520.977 2288.45,546.717 2290.34,573.11 2292.24,600.088 2294.13,627.586 2296.02,655.534 "></polyline>
<polyline clip-path="url(#clip372)" style="stroke:#3da44d; stroke-linecap:round; stroke-linejoin:round; stroke-width:8; stroke-opacity:1; fill:none" stroke-dasharray="32, 16, 4, 16" points="404.909,656.225 406.802,683.176 408.695,708.918 410.588,733.279 412.481,757.466 414.374,779.58 416.267,801.349 418.16,822.426 420.053,838.666 421.946,858.534 423.839,875.293 425.732,892.051 427.625,906.909 429.518,920.73 431.411,935.415 433.304,946.127 435.197,956.493 437.09,968.586 438.983,979.644 440.876,986.9 442.769,996.056 444.662,1004.52 446.555,1009.36 448.448,1015.23 450.341,1022.49 452.234,1025.77 454.127,1029.4 456.02,1035.27 457.913,1037.35 459.806,1037.35 461.699,1042.88 463.592,1044.95 465.485,1044.6 467.378,1044.95 469.271,1046.85 471.164,1043.05 473.057,1042.53 474.95,1039.77 476.843,1038.04 478.736,1036.83 480.629,1034.58 482.522,1031.47 484.415,1027.33 486.308,1023.18 488.201,1019.73 490.094,1016.1 491.987,1010.05 493.88,1005.56 495.773,999.684 497.666,994.501 499.559,987.245 501.452,984.481 503.345,975.152 505.239,969.278 507.132,961.676 509.025,957.357 510.918,949.409 512.811,941.808 514.704,936.106 516.597,929.023 518.49,920.73 520.383,913.992 522.276,905.008 524.169,897.925 526.062,889.459 527.955,882.376 529.848,873.219 531.741,864.408 533.634,858.707 535.527,850.414 537.42,842.64 539.313,832.792 541.206,822.426 543.099,817.934 544.992,806.704 546.885,797.893 548.778,789.6 550.671,781.48 552.564,774.051 554.457,765.068 556.35,757.811 558.243,750.037 560.136,740.189 562.029,732.242 563.922,723.258 565.815,716.52 567.708,709.091 569.601,700.798 571.494,692.16 573.387,684.558 575.28,676.266 577.173,668.664 579.066,660.026 580.959,654.324 582.852,646.032 584.745,638.603 586.638,630.828 588.531,625.818 590.424,616.661 592.317,613.206 594.21,602.667 596.103,598.866 597.996,590.228 599.889,584.699 601.782,576.752 603.675,572.606 605.568,565.177 607.461,559.994 609.354,553.947 611.247,547.382 613.14,543.063 615.033,536.498 616.926,531.142 618.819,528.723 620.712,522.676 622.605,517.839 624.498,511.446 626.391,506.436 628.284,502.981 630.177,497.971 632.07,495.725 633.963,489.678 635.856,486.741 637.749,482.767 639.642,478.966 641.535,477.239 643.428,472.747 645.321,468.428 647.214,468.773 649.107,464.799 651,460.135 652.893,457.025 654.786,456.679 656.679,453.57 658.572,451.669 660.465,448.559 662.358,447.696 664.251,445.795 666.144,444.759 668.037,443.376 669.93,441.13 671.823,442.167 673.716,439.921 675.609,439.921 677.502,435.947 679.395,436.811 681.288,435.602 683.181,435.947 685.074,436.639 686.967,437.157 688.86,436.811 690.753,436.466 692.646,436.811 694.539,438.193 696.432,437.157 698.325,438.885 700.218,440.612 702.111,438.193 704.004,443.031 705.897,443.031 707.79,445.104 709.683,445.622 711.576,447.177 713.469,448.559 715.362,450.46 717.255,452.706 719.148,455.297 721.041,455.47 722.934,455.47 724.827,461.344 726.72,461.69 728.613,464.281 730.506,468.6 732.399,469.81 734.292,472.401 736.185,475.511 738.078,476.548 739.971,482.249 741.864,485.531 743.757,487.259 745.65,490.542 747.543,494.17 749.436,498.143 751.329,500.044 753.222,504.536 755.115,506.263 757.008,511.446 758.901,517.32 760.794,520.43 762.687,522.849 764.58,528.378 766.473,529.76 768.366,534.77 770.259,538.744 772.152,542.026 774.045,544.963 775.938,551.183 777.831,553.601 779.724,559.303 781.617,565.004 783.51,568.805 785.403,571.915 787.296,576.061 789.189,580.899 791.082,585.736 792.975,589.191 794.868,595.065 796.761,598.866 798.654,602.84 800.547,607.159 802.44,612.342 804.334,618.562 806.227,623.226 808.12,625.127 810.013,629.273 811.906,635.147 813.799,639.639 815.692,644.995 817.585,647.586 819.478,653.288 821.371,659.68 823.264,663.826 825.157,666.936 827.05,673.501 828.943,677.302 830.836,683.695 832.729,686.804 834.622,691.815 836.515,695.615 838.408,700.798 840.301,705.463 842.194,709.782 844.087,714.62 845.98,718.766 847.873,721.53 849.766,724.986 851.659,731.205 853.552,734.661 855.445,739.153 857.338,743.645 859.231,748.482 861.124,752.283 863.017,757.811 864.91,759.539 866.803,764.377 868.696,768.523 870.589,773.533 872.482,776.125 874.375,781.653 876.268,784.936 878.161,788.564 880.054,792.71 881.947,795.302 883.84,799.621 885.733,801.349 887.626,805.84 889.519,809.296 891.412,813.442 893.305,816.898 895.198,819.489 897.091,824.499 898.984,827.264 900.877,829.855 902.77,832.792 904.663,834.001 906.556,839.875 908.449,841.776 910.342,844.886 912.235,846.786 914.128,850.76 916.021,854.388 917.914,856.288 919.807,858.016 921.7,861.817 923.593,863.544 925.486,865.445 927.379,868.036 929.272,870.282 931.165,870.801 933.058,874.429 934.951,876.847 936.844,876.675 938.737,879.093 940.63,880.994 942.523,882.894 944.416,885.313 946.309,885.14 948.202,888.768 950.095,889.287 951.988,890.151 953.881,892.051 955.774,893.606 957.667,894.642 959.56,895.679 961.453,898.098 963.346,897.407 965.239,900.171 967.132,898.789 969.025,899.653 970.918,900.171 972.811,899.48 974.704,902.071 976.597,903.972 978.49,901.899 980.383,902.59 982.276,902.935 984.169,903.281 986.062,902.59 987.955,901.899 989.848,903.626 991.741,903.281 993.634,902.59 995.527,902.244 997.42,902.417 999.313,900.862 1001.21,901.553 1003.1,901.208 1004.99,897.752 1006.89,899.653 1008.78,899.307 1010.67,896.197 1012.56,897.579 1014.46,895.852 1016.35,894.642 1018.24,892.224 1020.14,891.878 1022.03,892.224 1023.92,891.878 1025.82,888.423 1027.71,888.077 1029.6,886.004 1031.49,885.313 1033.39,882.894 1035.28,880.303 1037.17,879.093 1039.07,877.02 1040.96,876.675 1042.85,874.947 1044.75,873.738 1046.64,872.183 1048.53,868.727 1050.42,867 1052.32,864.581 1054.21,861.471 1056.1,860.435 1058,859.053 1059.89,857.498 1061.78,855.943 1063.68,851.278 1065.57,849.032 1067.46,848.687 1069.35,844.886 1071.25,839.875 1073.14,839.703 1075.03,835.556 1076.93,833.829 1078.82,832.792 1080.71,828.991 1082.61,827.264 1084.5,824.672 1086.39,821.735 1088.28,817.589 1090.18,814.997 1092.07,812.751 1093.96,808.95 1095.86,807.223 1097.75,804.113 1099.64,800.83 1101.54,797.202 1103.43,796.338 1105.32,790.983 1107.21,787.182 1109.11,786.318 1111,783.381 1112.89,779.58 1114.79,776.816 1116.68,773.015 1118.57,770.942 1120.47,767.141 1122.36,764.377 1124.25,761.267 1126.14,756.775 1128.04,754.529 1129.93,750.901 1131.82,747.445 1133.72,745.027 1135.61,740.88 1137.5,737.77 1139.4,736.043 1141.29,732.587 1143.18,729.305 1145.07,727.059 1146.97,722.567 1148.86,719.112 1150.75,718.075 1152.65,713.583 1154.54,711.164 1156.43,706.327 1158.33,703.217 1160.22,701.144 1162.11,696.825 1164,694.061 1165.9,691.296 1167.79,688.705 1169.68,685.595 1171.58,682.14 1173.47,679.721 1175.36,675.575 1177.26,673.156 1179.15,671.083 1181.04,667.973 1182.93,664.345 1184.83,659.68 1186.72,659.335 1188.61,656.225 1190.51,656.57 1192.4,650.178 1194.29,647.586 1196.19,643.786 1198.08,641.712 1199.97,640.503 1201.86,637.566 1203.76,636.529 1205.65,633.247 1207.54,628.237 1209.44,627.891 1211.33,624.263 1213.22,622.362 1215.12,618.907 1217.01,618.734 1218.9,614.934 1220.79,614.588 1222.69,610.614 1224.58,609.405 1226.47,605.604 1228.37,603.013 1230.26,603.013 1232.15,599.385 1234.05,597.484 1235.94,598.175 1237.83,593.856 1239.72,594.374 1241.62,590.919 1243.51,590.573 1245.4,587.464 1247.3,585.218 1249.19,584.699 1251.08,583.49 1252.98,582.281 1254.87,579.862 1256.76,579.689 1258.66,576.925 1260.55,574.852 1262.44,574.161 1264.33,572.433 1266.23,573.642 1268.12,571.224 1270.01,570.187 1271.91,568.459 1273.8,569.15 1275.69,568.114 1277.59,568.114 1279.48,565.695 1281.37,565.004 1283.26,564.831 1285.16,564.831 1287.05,564.659 1288.94,563.276 1290.84,563.276 1292.73,561.894 1294.62,561.894 1296.52,562.585 1298.41,561.203 1300.3,560.858 1302.19,559.821 1304.09,560.858 1305.98,561.894 1307.87,562.067 1309.77,561.203 1311.66,561.549 1313.55,562.931 1315.45,560.858 1317.34,562.24 1319.23,564.659 1321.12,563.967 1323.02,563.967 1324.91,564.313 1326.8,565.695 1328.7,566.559 1330.59,566.904 1332.48,568.632 1334.38,567.077 1336.27,568.805 1338.16,570.705 1340.05,571.569 1341.95,571.224 1343.84,576.061 1345.73,573.815 1347.63,576.579 1349.52,576.925 1351.41,577.789 1353.31,579.516 1355.2,582.281 1357.09,584.008 1358.98,583.663 1360.88,584.699 1362.77,587.809 1364.66,588.846 1366.56,590.919 1368.45,592.647 1370.34,593.51 1372.24,595.411 1374.13,597.657 1376.02,600.248 1377.91,599.903 1379.81,603.013 1381.7,604.222 1383.59,606.122 1385.49,608.887 1387.38,612.515 1389.27,614.415 1391.17,615.452 1393.06,616.834 1394.95,620.289 1396.84,623.226 1398.74,624.09 1400.63,628.928 1402.52,629.964 1404.42,632.383 1406.31,634.111 1408.2,636.702 1410.1,639.985 1411.99,644.131 1413.88,645.859 1415.77,648.277 1417.67,651.387 1419.56,653.46 1421.45,656.57 1423.35,659.68 1425.24,659.335 1427.13,663.135 1429.03,667.973 1430.92,668.837 1432.81,671.428 1434.7,675.229 1436.6,677.302 1438.49,680.585 1440.38,684.386 1442.28,686.459 1444.17,689.741 1446.06,694.579 1447.96,694.233 1449.85,696.652 1451.74,700.626 1453.63,702.872 1455.53,707.018 1457.42,708.918 1459.31,711.51 1461.21,716.347 1463.1,716.693 1464.99,721.185 1466.89,725.504 1468.78,728.441 1470.67,728.096 1472.56,732.415 1474.46,736.388 1476.35,738.98 1478.24,741.571 1480.14,745.545 1482.03,745.199 1483.92,751.419 1485.82,753.665 1487.71,755.393 1489.6,760.921 1491.49,763.34 1493.39,763.685 1495.28,766.622 1497.17,770.596 1499.07,770.942 1500.96,775.779 1502.85,777.507 1504.75,781.135 1506.64,786.491 1508.53,786.663 1510.42,788.218 1512.32,790.119 1514.21,793.92 1516.1,796.857 1518,799.966 1519.89,801.349 1521.78,803.767 1523.68,805.668 1525.57,807.914 1527.46,810.678 1529.35,813.097 1531.25,816.898 1533.14,817.243 1535.03,818.625 1536.93,822.081 1538.82,825.881 1540.71,826.918 1542.61,828.3 1544.5,831.064 1546.39,833.483 1548.28,834.865 1550.18,837.975 1552.07,839.703 1553.96,839.703 1555.86,844.367 1557.75,846.268 1559.64,848.168 1561.54,847.304 1563.43,849.896 1565.32,850.76 1567.22,852.142 1569.11,854.388 1571,859.053 1572.89,857.67 1574.79,859.916 1576.68,860.607 1578.57,861.299 1580.47,862.162 1582.36,863.717 1584.25,863.717 1586.15,865.963 1588.04,866.482 1589.93,870.455 1591.82,869.764 1593.72,871.664 1595.61,870.11 1597.5,871.492 1599.4,872.183 1601.29,874.774 1603.18,873.392 1605.08,873.565 1606.97,874.256 1608.86,875.638 1610.75,874.602 1612.65,875.638 1614.54,875.12 1616.43,875.984 1618.33,876.675 1620.22,878.748 1622.11,877.366 1624.01,876.502 1625.9,876.675 1627.79,875.293 1629.68,875.638 1631.58,876.329 1633.47,876.502 1635.36,878.402 1637.26,876.847 1639.15,874.256 1641.04,876.329 1642.94,875.638 1644.83,873.047 1646.72,873.047 1648.61,871.664 1650.51,870.973 1652.4,870.801 1654.29,870.455 1656.19,868.727 1658.08,868.727 1659.97,866.654 1661.87,867.173 1663.76,863.544 1665.65,865.445 1667.54,862.335 1669.44,863.199 1671.33,860.262 1673.22,859.744 1675.12,857.67 1677.01,854.906 1678.9,855.424 1680.8,853.87 1682.69,852.833 1684.58,852.142 1686.47,850.241 1688.37,848.687 1690.26,845.577 1692.15,843.849 1694.05,842.294 1695.94,838.666 1697.83,839.357 1699.73,837.63 1701.62,834.865 1703.51,834.174 1705.4,832.447 1707.3,830.201 1709.19,827.609 1711.08,827.436 1712.98,822.253 1714.87,821.389 1716.76,820.353 1718.66,817.934 1720.55,816.206 1722.44,812.06 1724.33,810.678 1726.23,808.605 1728.12,807.223 1730.01,803.422 1731.91,801.349 1733.8,798.757 1735.69,798.584 1737.59,794.783 1739.48,792.019 1741.37,790.637 1743.26,788.564 1745.16,785.454 1747.05,785.109 1748.94,780.962 1750.84,778.371 1752.73,778.371 1754.62,774.051 1756.52,771.287 1758.41,769.905 1760.3,768.868 1762.19,763.685 1764.09,763.685 1765.98,759.712 1767.87,757.466 1769.77,754.011 1771.66,751.937 1773.55,753.319 1775.45,747.445 1777.34,745.718 1779.23,744.336 1781.12,742.262 1783.02,738.634 1784.91,736.388 1786.8,736.043 1788.7,734.661 1790.59,729.996 1792.48,727.923 1794.38,725.331 1796.27,724.986 1798.16,722.222 1800.05,719.803 1801.95,719.803 1803.84,718.766 1805.73,714.62 1807.63,713.583 1809.52,711.164 1811.41,709.782 1813.31,708.573 1815.2,708.573 1817.09,704.945 1818.98,702.008 1820.88,701.835 1822.77,701.49 1824.66,699.244 1826.56,697.689 1828.45,694.233 1830.34,694.233 1832.24,692.851 1834.13,692.506 1836.02,690.432 1837.91,688.359 1839.81,688.532 1841.7,688.359 1843.59,686.632 1845.49,685.077 1847.38,684.213 1849.27,683.349 1851.17,681.449 1853.06,683.522 1854.95,682.658 1856.85,680.239 1858.74,680.758 1860.63,679.375 1862.52,682.312 1864.42,682.312 1866.31,681.103 1868.2,680.412 1870.1,679.548 1871.99,679.721 1873.88,679.375 1875.78,680.066 1877.67,679.721 1879.56,680.758 1881.45,681.103 1883.35,682.485 1885.24,683.349 1887.13,684.558 1889.03,686.113 1890.92,683.522 1892.81,685.595 1894.71,685.422 1896.6,686.804 1898.49,688.014 1900.38,690.778 1902.28,690.087 1904.17,693.197 1906.06,692.851 1907.96,695.443 1909.85,697.17 1911.74,698.38 1913.64,700.107 1915.53,699.071 1917.42,703.908 1919.31,705.463 1921.21,706.673 1923.1,708.918 1924.99,709.782 1926.89,713.238 1928.78,714.62 1930.67,717.039 1932.57,718.421 1934.46,721.185 1936.35,724.295 1938.24,727.75 1940.14,728.959 1942.03,731.378 1943.92,736.388 1945.82,738.116 1947.71,739.498 1949.6,743.472 1951.5,744.508 1953.39,749.864 1955.28,752.11 1957.17,756.429 1959.07,758.157 1960.96,760.748 1962.85,764.377 1964.75,767.832 1966.64,771.46 1968.53,776.297 1970.43,777.507 1972.32,781.653 1974.21,783.726 1976.1,787.527 1978,790.983 1979.89,794.438 1981.78,798.93 1983.68,802.558 1985.57,806.532 1987.46,809.296 1989.36,813.961 1991.25,817.934 1993.14,822.081 1995.03,822.426 1996.93,827.264 1998.82,831.41 2000.71,834.347 2002.61,838.321 2004.5,842.64 2006.39,845.577 2008.29,850.76 2010.18,853.006 2012.07,857.67 2013.96,859.744 2015.86,862.853 2017.75,867.345 2019.64,871.319 2021.54,873.565 2023.43,878.057 2025.32,879.266 2027.22,884.622 2029.11,886.868 2031,890.151 2032.89,893.951 2034.79,896.716 2036.68,898.443 2038.57,901.38 2040.47,903.626 2042.36,908.637 2044.25,909.846 2046.15,915.374 2048.04,915.72 2049.93,918.484 2051.82,918.311 2053.72,921.94 2055.61,924.358 2057.5,927.295 2059.4,928.85 2061.29,930.578 2063.18,931.096 2065.08,934.724 2066.97,932.478 2068.86,934.724 2070.75,937.143 2072.65,939.216 2074.54,940.08 2076.43,939.216 2078.33,938.871 2080.22,939.389 2082.11,939.216 2084.01,940.598 2085.9,939.562 2087.79,942.672 2089.68,939.907 2091.58,941.462 2093.47,940.253 2095.36,940.598 2097.26,939.216 2099.15,937.834 2101.04,934.724 2102.94,935.07 2104.83,933.688 2106.72,930.232 2108.61,928.159 2110.51,925.74 2112.4,923.322 2114.29,919.175 2116.19,916.411 2118.08,914.338 2119.97,911.228 2121.87,909.328 2123.76,904.663 2125.65,901.208 2127.54,897.407 2129.44,891.533 2131.33,886.695 2133.22,883.24 2135.12,878.057 2137.01,873.91 2138.9,868.727 2140.8,863.026 2142.69,857.67 2144.58,851.278 2146.48,844.54 2148.37,839.012 2150.26,832.447 2152.15,826.572 2154.05,819.143 2155.94,813.615 2157.83,805.495 2159.73,796.166 2161.62,790.983 2163.51,785.109 2165.41,775.434 2167.3,767.486 2169.19,756.775 2171.08,750.555 2172.98,741.226 2174.87,731.724 2176.76,725.331 2178.66,717.039 2180.55,707.882 2182.44,699.935 2184.34,686.632 2186.23,680.412 2188.12,670.046 2190.01,661.753 2191.91,650.696 2193.8,641.021 2195.69,633.42 2197.59,624.436 2199.48,615.797 2201.37,604.74 2203.27,594.029 2205.16,586.6 2207.05,575.888 2208.94,565.35 2210.84,557.402 2212.73,547.727 2214.62,540.471 2216.52,528.896 2218.41,522.503 2220.3,512.829 2222.2,504.363 2224.09,495.552 2225.98,488.814 2227.87,482.249 2229.77,473.265 2231.66,466.7 2233.55,458.925 2235.45,452.36 2237.34,447.35 2239.23,443.376 2241.13,436.466 2243.02,431.628 2244.91,427.482 2246.8,425.927 2248.7,422.817 2250.59,419.189 2252.48,418.498 2254.38,415.388 2256.27,416.425 2258.16,418.153 2260.06,417.461 2261.95,419.189 2263.84,424.372 2265.73,427.482 2267.63,430.592 2269.52,437.502 2271.41,444.759 2273.31,452.015 2275.2,462.554 2277.09,472.228 2278.99,485.531 2280.88,497.625 2282.77,511.965 2284.66,527.686 2286.56,545.827 2288.45,562.931 2290.34,584.008 2292.24,609.578 2294.13,630.31 2296.02,657.434 "></polyline>
<path clip-path="url(#clip370)" d="M414.995 1377.32 L843.438 1377.32 L843.438 1169.96 L414.995 1169.96  Z" fill="#ffffff" fill-rule="evenodd" fill-opacity="1"></path>
<polyline clip-path="url(#clip370)" style="stroke:#000000; stroke-linecap:round; stroke-linejoin:round; stroke-width:4; stroke-opacity:1; fill:none" points="414.995,1377.32 843.438,1377.32 843.438,1169.96 414.995,1169.96 414.995,1377.32 "></polyline>
<polyline clip-path="url(#clip370)" style="stroke:#009af9; stroke-linecap:round; stroke-linejoin:round; stroke-width:4; stroke-opacity:1; fill:none" points="437.268,1221.8 570.907,1221.8 "></polyline>
<path clip-path="url(#clip370)" d="M593.18 1204.52 L613.041 1204.52 L613.041 1208.45 L597.856 1208.45 L597.856 1218.64 L611.56 1218.64 L611.56 1222.57 L597.856 1222.57 L597.856 1239.08 L593.18 1239.08 L593.18 1204.52 Z" fill="#000000" fill-rule="nonzero" fill-opacity="1"></path><path clip-path="url(#clip370)" d="M620.448 1204.52 L642.3 1204.52 L642.3 1208.45 L625.124 1208.45 L625.124 1218.68 L641.583 1218.68 L641.583 1222.62 L625.124 1222.62 L625.124 1235.14 L642.717 1235.14 L642.717 1239.08 L620.448 1239.08 L620.448 1204.52 Z" fill="#000000" fill-rule="nonzero" fill-opacity="1"></path><path clip-path="url(#clip370)" d="M650.402 1204.52 L657.369 1204.52 L666.189 1228.03 L675.055 1204.52 L682.022 1204.52 L682.022 1239.08 L677.462 1239.08 L677.462 1208.73 L668.55 1232.43 L663.851 1232.43 L654.939 1208.73 L654.939 1239.08 L650.402 1239.08 L650.402 1204.52 Z" fill="#000000" fill-rule="nonzero" fill-opacity="1"></path><polyline clip-path="url(#clip370)" style="stroke:#e26f46; stroke-linecap:round; stroke-linejoin:round; stroke-width:4; stroke-opacity:1; fill:none" stroke-dasharray="16, 10" points="437.268,1273.64 570.907,1273.64 "></polyline>
<path clip-path="url(#clip370)" d="M609.013 1260.96 L602.671 1278.16 L615.379 1278.16 L609.013 1260.96 M606.374 1256.36 L611.675 1256.36 L624.847 1290.92 L619.985 1290.92 L616.837 1282.05 L601.259 1282.05 L598.111 1290.92 L593.18 1290.92 L606.374 1256.36 Z" fill="#000000" fill-rule="nonzero" fill-opacity="1"></path><path clip-path="url(#clip370)" d="M651.258 1275.27 L651.258 1290.92 L646.999 1290.92 L646.999 1275.41 Q646.999 1271.73 645.564 1269.9 Q644.129 1268.07 641.258 1268.07 Q637.809 1268.07 635.819 1270.27 Q633.828 1272.47 633.828 1276.26 L633.828 1290.92 L629.546 1290.92 L629.546 1264.99 L633.828 1264.99 L633.828 1269.02 Q635.356 1266.68 637.416 1265.52 Q639.499 1264.36 642.208 1264.36 Q646.675 1264.36 648.967 1267.14 Q651.258 1269.9 651.258 1275.27 Z" fill="#000000" fill-rule="nonzero" fill-opacity="1"></path><path clip-path="url(#clip370)" d="M671.536 1277.88 Q666.374 1277.88 664.383 1279.06 Q662.393 1280.24 662.393 1283.09 Q662.393 1285.36 663.874 1286.7 Q665.379 1288.02 667.948 1288.02 Q671.49 1288.02 673.619 1285.52 Q675.772 1283 675.772 1278.83 L675.772 1277.88 L671.536 1277.88 M680.031 1276.12 L680.031 1290.92 L675.772 1290.92 L675.772 1286.98 Q674.314 1289.34 672.138 1290.48 Q669.962 1291.59 666.814 1291.59 Q662.832 1291.59 660.471 1289.36 Q658.133 1287.12 658.133 1283.37 Q658.133 1278.99 661.05 1276.77 Q663.99 1274.55 669.8 1274.55 L675.772 1274.55 L675.772 1274.13 Q675.772 1271.19 673.828 1269.6 Q671.906 1267.98 668.411 1267.98 Q666.189 1267.98 664.082 1268.51 Q661.976 1269.04 660.031 1270.11 L660.031 1266.17 Q662.369 1265.27 664.569 1264.83 Q666.768 1264.36 668.851 1264.36 Q674.476 1264.36 677.254 1267.28 Q680.031 1270.2 680.031 1276.12 Z" fill="#000000" fill-rule="nonzero" fill-opacity="1"></path><path clip-path="url(#clip370)" d="M688.804 1254.9 L693.064 1254.9 L693.064 1290.92 L688.804 1290.92 L688.804 1254.9 Z" fill="#000000" fill-rule="nonzero" fill-opacity="1"></path><path clip-path="url(#clip370)" d="M712.763 1293.32 Q710.957 1297.95 709.244 1299.36 Q707.531 1300.78 704.661 1300.78 L701.258 1300.78 L701.258 1297.21 L703.758 1297.21 Q705.517 1297.21 706.49 1296.38 Q707.462 1295.54 708.642 1292.44 L709.406 1290.5 L698.92 1264.99 L703.434 1264.99 L711.536 1285.27 L719.638 1264.99 L724.152 1264.99 L712.763 1293.32 Z" fill="#000000" fill-rule="nonzero" fill-opacity="1"></path><path clip-path="url(#clip370)" d="M734.244 1257.63 L734.244 1264.99 L743.017 1264.99 L743.017 1268.3 L734.244 1268.3 L734.244 1282.37 Q734.244 1285.54 735.101 1286.45 Q735.98 1287.35 738.642 1287.35 L743.017 1287.35 L743.017 1290.92 L738.642 1290.92 Q733.712 1290.92 731.837 1289.09 Q729.962 1287.23 729.962 1282.37 L729.962 1268.3 L726.837 1268.3 L726.837 1264.99 L729.962 1264.99 L729.962 1257.63 L734.244 1257.63 Z" fill="#000000" fill-rule="nonzero" fill-opacity="1"></path><path clip-path="url(#clip370)" d="M748.619 1264.99 L752.878 1264.99 L752.878 1290.92 L748.619 1290.92 L748.619 1264.99 M748.619 1254.9 L752.878 1254.9 L752.878 1260.29 L748.619 1260.29 L748.619 1254.9 Z" fill="#000000" fill-rule="nonzero" fill-opacity="1"></path><path clip-path="url(#clip370)" d="M780.448 1265.98 L780.448 1269.97 Q778.642 1268.97 776.813 1268.48 Q775.008 1267.98 773.156 1267.98 Q769.012 1267.98 766.721 1270.61 Q764.429 1273.23 764.429 1277.98 Q764.429 1282.72 766.721 1285.36 Q769.012 1287.98 773.156 1287.98 Q775.008 1287.98 776.813 1287.49 Q778.642 1286.98 780.448 1285.98 L780.448 1289.92 Q778.665 1290.75 776.744 1291.17 Q774.846 1291.59 772.693 1291.59 Q766.836 1291.59 763.387 1287.91 Q759.938 1284.23 759.938 1277.98 Q759.938 1271.63 763.411 1268 Q766.906 1264.36 772.971 1264.36 Q774.938 1264.36 776.813 1264.78 Q778.688 1265.17 780.448 1265.98 Z" fill="#000000" fill-rule="nonzero" fill-opacity="1"></path><path clip-path="url(#clip370)" d="M799.637 1277.88 Q794.475 1277.88 792.484 1279.06 Q790.494 1280.24 790.494 1283.09 Q790.494 1285.36 791.975 1286.7 Q793.48 1288.02 796.049 1288.02 Q799.591 1288.02 801.721 1285.52 Q803.873 1283 803.873 1278.83 L803.873 1277.88 L799.637 1277.88 M808.133 1276.12 L808.133 1290.92 L803.873 1290.92 L803.873 1286.98 Q802.415 1289.34 800.239 1290.48 Q798.063 1291.59 794.915 1291.59 Q790.934 1291.59 788.572 1289.36 Q786.235 1287.12 786.235 1283.37 Q786.235 1278.99 789.151 1276.77 Q792.091 1274.55 797.901 1274.55 L803.873 1274.55 L803.873 1274.13 Q803.873 1271.19 801.929 1269.6 Q800.008 1267.98 796.512 1267.98 Q794.29 1267.98 792.184 1268.51 Q790.077 1269.04 788.133 1270.11 L788.133 1266.17 Q790.471 1265.27 792.67 1264.83 Q794.869 1264.36 796.952 1264.36 Q802.577 1264.36 805.355 1267.28 Q808.133 1270.2 808.133 1276.12 Z" fill="#000000" fill-rule="nonzero" fill-opacity="1"></path><path clip-path="url(#clip370)" d="M816.906 1254.9 L821.165 1254.9 L821.165 1290.92 L816.906 1290.92 L816.906 1254.9 Z" fill="#000000" fill-rule="nonzero" fill-opacity="1"></path><polyline clip-path="url(#clip370)" style="stroke:#3da44d; stroke-linecap:round; stroke-linejoin:round; stroke-width:8; stroke-opacity:1; fill:none" stroke-dasharray="32, 16, 4, 16" points="437.268,1325.48 570.907,1325.48 "></polyline>
<path clip-path="url(#clip370)" d="M593.18 1308.2 L615.032 1308.2 L615.032 1312.13 L597.856 1312.13 L597.856 1322.36 L614.314 1322.36 L614.314 1326.3 L597.856 1326.3 L597.856 1338.82 L615.448 1338.82 L615.448 1342.76 L593.18 1342.76 L593.18 1308.2 Z" fill="#000000" fill-rule="nonzero" fill-opacity="1"></path><path clip-path="url(#clip370)" d="M623.134 1308.2 L627.809 1308.2 L627.809 1338.82 L644.638 1338.82 L644.638 1342.76 L623.134 1342.76 L623.134 1308.2 Z" fill="#000000" fill-rule="nonzero" fill-opacity="1"></path><path clip-path="url(#clip370)" d="M649.545 1308.2 L656.513 1308.2 L665.332 1331.71 L674.198 1308.2 L681.166 1308.2 L681.166 1342.76 L676.605 1342.76 L676.605 1312.41 L667.693 1336.11 L662.994 1336.11 L654.082 1312.41 L654.082 1342.76 L649.545 1342.76 L649.545 1308.2 Z" fill="#000000" fill-rule="nonzero" fill-opacity="1"></path></svg>