<svg xmlns="http://www.w3.org/2000/svg" xmlns:xlink="http://www.w3.org/1999/xlink" width="600" height="300" viewBox="0 0 2400 1200">
<defs>
  <clipPath id="clip270">
    <rect x="0" y="0" width="2400" height="1200"></rect>
  </clipPath>
</defs>
<path clip-path="url(#clip270)" d="M0 1200 L2400 1200 L2400 0 L0 0  Z" fill="#ffffff" fill-rule="evenodd" fill-opacity="1"></path>
<defs>
  <clipPath id="clip271">
    <rect x="480" y="0" width="1681" height="1200"></rect>
  </clipPath>
</defs>
<path clip-path="url(#clip270)" d="M336.296 1047.7 L2352.76 1047.7 L2352.76 47.2441 L336.296 47.2441  Z" fill="#ffffff" fill-rule="evenodd" fill-opacity="1"></path>
<defs>
  <clipPath id="clip272">
    <rect x="336" y="47" width="2017" height="1001"></rect>
  </clipPath>
</defs>
<polyline clip-path="url(#clip272)" style="stroke:#000000; stroke-linecap:round; stroke-linejoin:round; stroke-width:2; stroke-opacity:0.1; fill:none" points="393.365,1047.7 393.365,47.2441 "></polyline>
<polyline clip-path="url(#clip272)" style="stroke:#000000; stroke-linecap:round; stroke-linejoin:round; stroke-width:2; stroke-opacity:0.1; fill:none" points="868.946,1047.7 868.946,47.2441 "></polyline>
<polyline clip-path="url(#clip272)" style="stroke:#000000; stroke-linecap:round; stroke-linejoin:round; stroke-width:2; stroke-opacity:0.1; fill:none" points="1344.53,1047.7 1344.53,47.2441 "></polyline>
<polyline clip-path="url(#clip272)" style="stroke:#000000; stroke-linecap:round; stroke-linejoin:round; stroke-width:2; stroke-opacity:0.1; fill:none" points="1820.11,1047.7 1820.11,47.2441 "></polyline>
<polyline clip-path="url(#clip272)" style="stroke:#000000; stroke-linecap:round; stroke-linejoin:round; stroke-width:2; stroke-opacity:0.1; fill:none" points="2295.69,1047.7 2295.69,47.2441 "></polyline>
<polyline clip-path="url(#clip272)" style="stroke:#000000; stroke-linecap:round; stroke-linejoin:round; stroke-width:2; stroke-opacity:0.1; fill:none" points="336.296,916.629 2352.76,916.629 "></polyline>
<polyline clip-path="url(#clip272)" style="stroke:#000000; stroke-linecap:round; stroke-linejoin:round; stroke-width:2; stroke-opacity:0.1; fill:none" points="336.296,704.444 2352.76,704.444 "></polyline>
<polyline clip-path="url(#clip272)" style="stroke:#000000; stroke-linecap:round; stroke-linejoin:round; stroke-width:2; stroke-opacity:0.1; fill:none" points="336.296,492.259 2352.76,492.259 "></polyline>
<polyline clip-path="url(#clip272)" style="stroke:#000000; stroke-linecap:round; stroke-linejoin:round; stroke-width:2; stroke-opacity:0.1; fill:none" points="336.296,280.074 2352.76,280.074 "></polyline>
<polyline clip-path="url(#clip272)" style="stroke:#000000; stroke-linecap:round; stroke-linejoin:round; stroke-width:2; stroke-opacity:0.1; fill:none" points="336.296,67.8891 2352.76,67.8891 "></polyline>
<polyline clip-path="url(#clip270)" style="stroke:#000000; stroke-linecap:round; stroke-linejoin:round; stroke-width:4; stroke-opacity:1; fill:none" points="336.296,1047.7 2352.76,1047.7 "></polyline>
<polyline clip-path="url(#clip270)" style="stroke:#000000; stroke-linecap:round; stroke-linejoin:round; stroke-width:4; stroke-opacity:1; fill:none" points="393.365,1047.7 393.365,1028.8 "></polyline>
<polyline clip-path="url(#clip270)" style="stroke:#000000; stroke-linecap:round; stroke-linejoin:round; stroke-width:4; stroke-opacity:1; fill:none" points="868.946,1047.7 868.946,1028.8 "></polyline>
<polyline clip-path="url(#clip270)" style="stroke:#000000; stroke-linecap:round; stroke-linejoin:round; stroke-width:4; stroke-opacity:1; fill:none" points="1344.53,1047.7 1344.53,1028.8 "></polyline>
<polyline clip-path="url(#clip270)" style="stroke:#000000; stroke-linecap:round; stroke-linejoin:round; stroke-width:4; stroke-opacity:1; fill:none" points="1820.11,1047.7 1820.11,1028.8 "></polyline>
<polyline clip-path="url(#clip270)" style="stroke:#000000; stroke-linecap:round; stroke-linejoin:round; stroke-width:4; stroke-opacity:1; fill:none" points="2295.69,1047.7 2295.69,1028.8 "></polyline>
<path clip-path="url(#clip270)" d="M355.669 1078.62 Q352.058 1078.62 350.229 1082.18 Q348.424 1085.72 348.424 1092.85 Q348.424 1099.96 350.229 1103.53 Q352.058 1107.07 355.669 1107.07 Q359.303 1107.07 361.109 1103.53 Q362.937 1099.96 362.937 1092.85 Q362.937 1085.72 361.109 1082.18 Q359.303 1078.62 355.669 1078.62 M355.669 1074.91 Q361.479 1074.91 364.535 1079.52 Q367.613 1084.1 367.613 1092.85 Q367.613 1101.58 364.535 1106.19 Q361.479 1110.77 355.669 1110.77 Q349.859 1110.77 346.78 1106.19 Q343.724 1101.58 343.724 1092.85 Q343.724 1084.1 346.78 1079.52 Q349.859 1074.91 355.669 1074.91 Z" fill="#000000" fill-rule="nonzero" fill-opacity="1"></path><path clip-path="url(#clip270)" d="M375.831 1104.22 L380.715 1104.22 L380.715 1110.1 L375.831 1110.1 L375.831 1104.22 Z" fill="#000000" fill-rule="nonzero" fill-opacity="1"></path><path clip-path="url(#clip270)" d="M400.9 1078.62 Q397.289 1078.62 395.46 1082.18 Q393.655 1085.72 393.655 1092.85 Q393.655 1099.96 395.46 1103.53 Q397.289 1107.07 400.9 1107.07 Q404.534 1107.07 406.34 1103.53 Q408.169 1099.96 408.169 1092.85 Q408.169 1085.72 406.34 1082.18 Q404.534 1078.62 400.9 1078.62 M400.9 1074.91 Q406.71 1074.91 409.766 1079.52 Q412.844 1084.1 412.844 1092.85 Q412.844 1101.58 409.766 1106.19 Q406.71 1110.77 400.9 1110.77 Q395.09 1110.77 392.011 1106.19 Q388.956 1101.58 388.956 1092.85 Q388.956 1084.1 392.011 1079.52 Q395.09 1074.91 400.9 1074.91 Z" fill="#000000" fill-rule="nonzero" fill-opacity="1"></path><path clip-path="url(#clip270)" d="M431.062 1078.62 Q427.451 1078.62 425.622 1082.18 Q423.817 1085.72 423.817 1092.85 Q423.817 1099.96 425.622 1103.53 Q427.451 1107.07 431.062 1107.07 Q434.696 1107.07 436.502 1103.53 Q438.33 1099.96 438.33 1092.85 Q438.33 1085.72 436.502 1082.18 Q434.696 1078.62 431.062 1078.62 M431.062 1074.91 Q436.872 1074.91 439.928 1079.52 Q443.006 1084.1 443.006 1092.85 Q443.006 1101.58 439.928 1106.19 Q436.872 1110.77 431.062 1110.77 Q425.252 1110.77 422.173 1106.19 Q419.118 1101.58 419.118 1092.85 Q419.118 1084.1 422.173 1079.52 Q425.252 1074.91 431.062 1074.91 Z" fill="#000000" fill-rule="nonzero" fill-opacity="1"></path><path clip-path="url(#clip270)" d="M831.747 1078.62 Q828.136 1078.62 826.307 1082.18 Q824.501 1085.72 824.501 1092.85 Q824.501 1099.96 826.307 1103.53 Q828.136 1107.07 831.747 1107.07 Q835.381 1107.07 837.187 1103.53 Q839.015 1099.96 839.015 1092.85 Q839.015 1085.72 837.187 1082.18 Q835.381 1078.62 831.747 1078.62 M831.747 1074.91 Q837.557 1074.91 840.612 1079.52 Q843.691 1084.1 843.691 1092.85 Q843.691 1101.58 840.612 1106.19 Q837.557 1110.77 831.747 1110.77 Q825.937 1110.77 822.858 1106.19 Q819.802 1101.58 819.802 1092.85 Q819.802 1084.1 822.858 1079.52 Q825.937 1074.91 831.747 1074.91 Z" fill="#000000" fill-rule="nonzero" fill-opacity="1"></path><path clip-path="url(#clip270)" d="M851.909 1104.22 L856.793 1104.22 L856.793 1110.1 L851.909 1110.1 L851.909 1104.22 Z" fill="#000000" fill-rule="nonzero" fill-opacity="1"></path><path clip-path="url(#clip270)" d="M871.006 1106.16 L887.325 1106.16 L887.325 1110.1 L865.381 1110.1 L865.381 1106.16 Q868.043 1103.41 872.626 1098.78 Q877.233 1094.13 878.413 1092.79 Q880.659 1090.26 881.538 1088.53 Q882.441 1086.77 882.441 1085.08 Q882.441 1082.32 880.496 1080.59 Q878.575 1078.85 875.473 1078.85 Q873.274 1078.85 870.821 1079.61 Q868.39 1080.38 865.612 1081.93 L865.612 1077.21 Q868.436 1076.07 870.89 1075.49 Q873.344 1074.91 875.381 1074.91 Q880.751 1074.91 883.946 1077.6 Q887.14 1080.29 887.14 1084.78 Q887.14 1086.91 886.33 1088.83 Q885.543 1090.72 883.436 1093.32 Q882.858 1093.99 879.756 1097.21 Q876.654 1100.4 871.006 1106.16 Z" fill="#000000" fill-rule="nonzero" fill-opacity="1"></path><path clip-path="url(#clip270)" d="M897.186 1075.54 L915.543 1075.54 L915.543 1079.48 L901.469 1079.48 L901.469 1087.95 Q902.487 1087.6 903.506 1087.44 Q904.524 1087.25 905.543 1087.25 Q911.33 1087.25 914.709 1090.42 Q918.089 1093.6 918.089 1099.01 Q918.089 1104.59 914.617 1107.69 Q911.144 1110.77 904.825 1110.77 Q902.649 1110.77 900.381 1110.4 Q898.135 1110.03 895.728 1109.29 L895.728 1104.59 Q897.811 1105.72 900.033 1106.28 Q902.256 1106.84 904.732 1106.84 Q908.737 1106.84 911.075 1104.73 Q913.413 1102.62 913.413 1099.01 Q913.413 1095.4 911.075 1093.29 Q908.737 1091.19 904.732 1091.19 Q902.857 1091.19 900.982 1091.6 Q899.131 1092.02 897.186 1092.9 L897.186 1075.54 Z" fill="#000000" fill-rule="nonzero" fill-opacity="1"></path><path clip-path="url(#clip270)" d="M1306.83 1078.62 Q1303.22 1078.62 1301.39 1082.18 Q1299.58 1085.72 1299.58 1092.85 Q1299.58 1099.96 1301.39 1103.53 Q1303.22 1107.07 1306.83 1107.07 Q1310.46 1107.07 1312.27 1103.53 Q1314.1 1099.96 1314.1 1092.85 Q1314.1 1085.72 1312.27 1082.18 Q1310.46 1078.62 1306.83 1078.62 M1306.83 1074.91 Q1312.64 1074.91 1315.69 1079.52 Q1318.77 1084.1 1318.77 1092.85 Q1318.77 1101.58 1315.69 1106.19 Q1312.64 1110.77 1306.83 1110.77 Q1301.02 1110.77 1297.94 1106.19 Q1294.88 1101.58 1294.88 1092.85 Q1294.88 1084.1 1297.94 1079.52 Q1301.02 1074.91 1306.83 1074.91 Z" fill="#000000" fill-rule="nonzero" fill-opacity="1"></path><path clip-path="url(#clip270)" d="M1326.99 1104.22 L1331.88 1104.22 L1331.88 1110.1 L1326.99 1110.1 L1326.99 1104.22 Z" fill="#000000" fill-rule="nonzero" fill-opacity="1"></path><path clip-path="url(#clip270)" d="M1342.11 1075.54 L1360.46 1075.54 L1360.46 1079.48 L1346.39 1079.48 L1346.39 1087.95 Q1347.41 1087.6 1348.43 1087.44 Q1349.44 1087.25 1350.46 1087.25 Q1356.25 1087.25 1359.63 1090.42 Q1363.01 1093.6 1363.01 1099.01 Q1363.01 1104.59 1359.54 1107.69 Q1356.07 1110.77 1349.75 1110.77 Q1347.57 1110.77 1345.3 1110.4 Q1343.06 1110.03 1340.65 1109.29 L1340.65 1104.59 Q1342.73 1105.72 1344.95 1106.28 Q1347.18 1106.84 1349.65 1106.84 Q1353.66 1106.84 1356 1104.73 Q1358.33 1102.62 1358.33 1099.01 Q1358.33 1095.4 1356 1093.29 Q1353.66 1091.19 1349.65 1091.19 Q1347.78 1091.19 1345.9 1091.6 Q1344.05 1092.02 1342.11 1092.9 L1342.11 1075.54 Z" fill="#000000" fill-rule="nonzero" fill-opacity="1"></path><path clip-path="url(#clip270)" d="M1382.22 1078.62 Q1378.61 1078.62 1376.78 1082.18 Q1374.98 1085.72 1374.98 1092.85 Q1374.98 1099.96 1376.78 1103.53 Q1378.61 1107.07 1382.22 1107.07 Q1385.86 1107.07 1387.66 1103.53 Q1389.49 1099.96 1389.49 1092.85 Q1389.49 1085.72 1387.66 1082.18 Q1385.86 1078.62 1382.22 1078.62 M1382.22 1074.91 Q1388.03 1074.91 1391.09 1079.52 Q1394.17 1084.1 1394.17 1092.85 Q1394.17 1101.58 1391.09 1106.19 Q1388.03 1110.77 1382.22 1110.77 Q1376.41 1110.77 1373.33 1106.19 Q1370.28 1101.58 1370.28 1092.85 Q1370.28 1084.1 1373.33 1079.52 Q1376.41 1074.91 1382.22 1074.91 Z" fill="#000000" fill-rule="nonzero" fill-opacity="1"></path><path clip-path="url(#clip270)" d="M1782.91 1078.62 Q1779.3 1078.62 1777.47 1082.18 Q1775.66 1085.72 1775.66 1092.85 Q1775.66 1099.96 1777.47 1103.53 Q1779.3 1107.07 1782.91 1107.07 Q1786.54 1107.07 1788.35 1103.53 Q1790.18 1099.96 1790.18 1092.85 Q1790.18 1085.72 1788.35 1082.18 Q1786.54 1078.62 1782.91 1078.62 M1782.91 1074.91 Q1788.72 1074.91 1791.77 1079.52 Q1794.85 1084.1 1794.85 1092.85 Q1794.85 1101.58 1791.77 1106.19 Q1788.72 1110.77 1782.91 1110.77 Q1777.1 1110.77 1774.02 1106.19 Q1770.96 1101.58 1770.96 1092.85 Q1770.96 1084.1 1774.02 1079.52 Q1777.1 1074.91 1782.91 1074.91 Z" fill="#000000" fill-rule="nonzero" fill-opacity="1"></path><path clip-path="url(#clip270)" d="M1803.07 1104.22 L1807.95 1104.22 L1807.95 1110.1 L1803.07 1110.1 L1803.07 1104.22 Z" fill="#000000" fill-rule="nonzero" fill-opacity="1"></path><path clip-path="url(#clip270)" d="M1816.96 1075.54 L1839.18 1075.54 L1839.18 1077.53 L1826.63 1110.1 L1821.75 1110.1 L1833.56 1079.48 L1816.96 1079.48 L1816.96 1075.54 Z" fill="#000000" fill-rule="nonzero" fill-opacity="1"></path><path clip-path="url(#clip270)" d="M1848.35 1075.54 L1866.7 1075.54 L1866.7 1079.48 L1852.63 1079.48 L1852.63 1087.95 Q1853.65 1087.6 1854.67 1087.44 Q1855.68 1087.25 1856.7 1087.25 Q1862.49 1087.25 1865.87 1090.42 Q1869.25 1093.6 1869.25 1099.01 Q1869.25 1104.59 1865.78 1107.69 Q1862.3 1110.77 1855.99 1110.77 Q1853.81 1110.77 1851.54 1110.4 Q1849.3 1110.03 1846.89 1109.29 L1846.89 1104.59 Q1848.97 1105.72 1851.19 1106.28 Q1853.42 1106.84 1855.89 1106.84 Q1859.9 1106.84 1862.24 1104.73 Q1864.57 1102.62 1864.57 1099.01 Q1864.57 1095.4 1862.24 1093.29 Q1859.9 1091.19 1855.89 1091.19 Q1854.02 1091.19 1852.14 1091.6 Q1850.29 1092.02 1848.35 1092.9 L1848.35 1075.54 Z" fill="#000000" fill-rule="nonzero" fill-opacity="1"></path><path clip-path="url(#clip270)" d="M2247.76 1106.16 L2255.4 1106.16 L2255.4 1079.8 L2247.09 1081.47 L2247.09 1077.21 L2255.35 1075.54 L2260.03 1075.54 L2260.03 1106.16 L2267.67 1106.16 L2267.67 1110.1 L2247.76 1110.1 L2247.76 1106.16 Z" fill="#000000" fill-rule="nonzero" fill-opacity="1"></path><path clip-path="url(#clip270)" d="M2277.11 1104.22 L2281.99 1104.22 L2281.99 1110.1 L2277.11 1110.1 L2277.11 1104.22 Z" fill="#000000" fill-rule="nonzero" fill-opacity="1"></path><path clip-path="url(#clip270)" d="M2302.18 1078.62 Q2298.57 1078.62 2296.74 1082.18 Q2294.93 1085.72 2294.93 1092.85 Q2294.93 1099.96 2296.74 1103.53 Q2298.57 1107.07 2302.18 1107.07 Q2305.81 1107.07 2307.62 1103.53 Q2309.45 1099.96 2309.45 1092.85 Q2309.45 1085.72 2307.62 1082.18 Q2305.81 1078.62 2302.18 1078.62 M2302.18 1074.91 Q2307.99 1074.91 2311.04 1079.52 Q2314.12 1084.1 2314.12 1092.85 Q2314.12 1101.58 2311.04 1106.19 Q2307.99 1110.77 2302.18 1110.77 Q2296.37 1110.77 2293.29 1106.19 Q2290.23 1101.58 2290.23 1092.85 Q2290.23 1084.1 2293.29 1079.52 Q2296.37 1074.91 2302.18 1074.91 Z" fill="#000000" fill-rule="nonzero" fill-opacity="1"></path><path clip-path="url(#clip270)" d="M2332.34 1078.62 Q2328.73 1078.62 2326.9 1082.18 Q2325.1 1085.72 2325.1 1092.85 Q2325.1 1099.96 2326.9 1103.53 Q2328.73 1107.07 2332.34 1107.07 Q2335.98 1107.07 2337.78 1103.53 Q2339.61 1099.96 2339.61 1092.85 Q2339.61 1085.72 2337.78 1082.18 Q2335.98 1078.62 2332.34 1078.62 M2332.34 1074.91 Q2338.15 1074.91 2341.21 1079.52 Q2344.29 1084.1 2344.29 1092.85 Q2344.29 1101.58 2341.21 1106.19 Q2338.15 1110.77 2332.34 1110.77 Q2326.53 1110.77 2323.45 1106.19 Q2320.4 1101.58 2320.4 1092.85 Q2320.4 1084.1 2323.45 1079.52 Q2326.53 1074.91 2332.34 1074.91 Z" fill="#000000" fill-rule="nonzero" fill-opacity="1"></path><path clip-path="url(#clip270)" d="M1361.14 1156.92 L1348.25 1174.26 L1361.81 1192.56 L1354.9 1192.56 L1344.53 1178.56 L1334.15 1192.56 L1327.24 1192.56 L1341.09 1173.91 L1328.42 1156.92 L1335.33 1156.92 L1344.78 1169.62 L1354.23 1156.92 L1361.14 1156.92 Z" fill="#000000" fill-rule="nonzero" fill-opacity="1"></path><polyline clip-path="url(#clip270)" style="stroke:#000000; stroke-linecap:round; stroke-linejoin:round; stroke-width:4; stroke-opacity:1; fill:none" points="336.296,1047.7 336.296,47.2441 "></polyline>
<polyline clip-path="url(#clip270)" style="stroke:#000000; stroke-linecap:round; stroke-linejoin:round; stroke-width:4; stroke-opacity:1; fill:none" points="336.296,916.629 355.193,916.629 "></polyline>
<polyline clip-path="url(#clip270)" style="stroke:#000000; stroke-linecap:round; stroke-linejoin:round; stroke-width:4; stroke-opacity:1; fill:none" points="336.296,704.444 355.193,704.444 "></polyline>
<polyline clip-path="url(#clip270)" style="stroke:#000000; stroke-linecap:round; stroke-linejoin:round; stroke-width:4; stroke-opacity:1; fill:none" points="336.296,492.259 355.193,492.259 "></polyline>
<polyline clip-path="url(#clip270)" style="stroke:#000000; stroke-linecap:round; stroke-linejoin:round; stroke-width:4; stroke-opacity:1; fill:none" points="336.296,280.074 355.193,280.074 "></polyline>
<polyline clip-path="url(#clip270)" style="stroke:#000000; stroke-linecap:round; stroke-linejoin:round; stroke-width:4; stroke-opacity:1; fill:none" points="336.296,67.8891 355.193,67.8891 "></polyline>
<path clip-path="url(#clip270)" d="M102.38 917.08 L132.056 917.08 L132.056 921.015 L102.38 921.015 L102.38 917.08 Z" fill="#000000" fill-rule="nonzero" fill-opacity="1"></path><path clip-path="url(#clip270)" d="M152.148 902.427 Q148.537 902.427 146.709 905.992 Q144.903 909.534 144.903 916.663 Q144.903 923.77 146.709 927.334 Q148.537 930.876 152.148 930.876 Q155.783 930.876 157.588 927.334 Q159.417 923.77 159.417 916.663 Q159.417 909.534 157.588 905.992 Q155.783 902.427 152.148 902.427 M152.148 898.724 Q157.959 898.724 161.014 903.33 Q164.093 907.913 164.093 916.663 Q164.093 925.39 161.014 929.996 Q157.959 934.58 152.148 934.58 Q146.338 934.58 143.26 929.996 Q140.204 925.39 140.204 916.663 Q140.204 907.913 143.26 903.33 Q146.338 898.724 152.148 898.724 Z" fill="#000000" fill-rule="nonzero" fill-opacity="1"></path><path clip-path="url(#clip270)" d="M172.31 928.029 L177.195 928.029 L177.195 933.909 L172.31 933.909 L172.31 928.029 Z" fill="#000000" fill-rule="nonzero" fill-opacity="1"></path><path clip-path="url(#clip270)" d="M197.38 902.427 Q193.769 902.427 191.94 905.992 Q190.134 909.534 190.134 916.663 Q190.134 923.77 191.94 927.334 Q193.769 930.876 197.38 930.876 Q201.014 930.876 202.819 927.334 Q204.648 923.77 204.648 916.663 Q204.648 909.534 202.819 905.992 Q201.014 902.427 197.38 902.427 M197.38 898.724 Q203.19 898.724 206.245 903.33 Q209.324 907.913 209.324 916.663 Q209.324 925.39 206.245 929.996 Q203.19 934.58 197.38 934.58 Q191.569 934.58 188.491 929.996 Q185.435 925.39 185.435 916.663 Q185.435 907.913 188.491 903.33 Q191.569 898.724 197.38 898.724 Z" fill="#000000" fill-rule="nonzero" fill-opacity="1"></path><path clip-path="url(#clip270)" d="M227.542 902.427 Q223.93 902.427 222.102 905.992 Q220.296 909.534 220.296 916.663 Q220.296 923.77 222.102 927.334 Q223.93 930.876 227.542 930.876 Q231.176 930.876 232.981 927.334 Q234.81 923.77 234.81 916.663 Q234.81 909.534 232.981 905.992 Q231.176 902.427 227.542 902.427 M227.542 898.724 Q233.352 898.724 236.407 903.33 Q239.486 907.913 239.486 916.663 Q239.486 925.39 236.407 929.996 Q233.352 934.58 227.542 934.58 Q221.731 934.58 218.653 929.996 Q215.597 925.39 215.597 916.663 Q215.597 907.913 218.653 903.33 Q221.731 898.724 227.542 898.724 Z" fill="#000000" fill-rule="nonzero" fill-opacity="1"></path><path clip-path="url(#clip270)" d="M257.703 902.427 Q254.092 902.427 252.264 905.992 Q250.458 909.534 250.458 916.663 Q250.458 923.77 252.264 927.334 Q254.092 930.876 257.703 930.876 Q261.338 930.876 263.143 927.334 Q264.972 923.77 264.972 916.663 Q264.972 909.534 263.143 905.992 Q261.338 902.427 257.703 902.427 M257.703 898.724 Q263.514 898.724 266.569 903.33 Q269.648 907.913 269.648 916.663 Q269.648 925.39 266.569 929.996 Q263.514 934.58 257.703 934.58 Q251.893 934.58 248.815 929.996 Q245.759 925.39 245.759 916.663 Q245.759 907.913 248.815 903.33 Q251.893 898.724 257.703 898.724 Z" fill="#000000" fill-rule="nonzero" fill-opacity="1"></path><path clip-path="url(#clip270)" d="M290.712 903.423 L278.907 921.872 L290.712 921.872 L290.712 903.423 M289.486 899.349 L295.365 899.349 L295.365 921.872 L300.296 921.872 L300.296 925.76 L295.365 925.76 L295.365 933.909 L290.712 933.909 L290.712 925.76 L275.111 925.76 L275.111 921.247 L289.486 899.349 Z" fill="#000000" fill-rule="nonzero" fill-opacity="1"></path><path clip-path="url(#clip270)" d="M104.463 704.895 L134.139 704.895 L134.139 708.83 L104.463 708.83 L104.463 704.895 Z" fill="#000000" fill-rule="nonzero" fill-opacity="1"></path><path clip-path="url(#clip270)" d="M154.232 690.242 Q150.621 690.242 148.792 693.807 Q146.986 697.349 146.986 704.478 Q146.986 711.585 148.792 715.15 Q150.621 718.691 154.232 718.691 Q157.866 718.691 159.672 715.15 Q161.5 711.585 161.5 704.478 Q161.5 697.349 159.672 693.807 Q157.866 690.242 154.232 690.242 M154.232 686.539 Q160.042 686.539 163.097 691.145 Q166.176 695.728 166.176 704.478 Q166.176 713.205 163.097 717.812 Q160.042 722.395 154.232 722.395 Q148.422 722.395 145.343 717.812 Q142.287 713.205 142.287 704.478 Q142.287 695.728 145.343 691.145 Q148.422 686.539 154.232 686.539 Z" fill="#000000" fill-rule="nonzero" fill-opacity="1"></path><path clip-path="url(#clip270)" d="M174.394 715.844 L179.278 715.844 L179.278 721.724 L174.394 721.724 L174.394 715.844 Z" fill="#000000" fill-rule="nonzero" fill-opacity="1"></path><path clip-path="url(#clip270)" d="M199.463 690.242 Q195.852 690.242 194.023 693.807 Q192.218 697.349 192.218 704.478 Q192.218 711.585 194.023 715.15 Q195.852 718.691 199.463 718.691 Q203.097 718.691 204.903 715.15 Q206.731 711.585 206.731 704.478 Q206.731 697.349 204.903 693.807 Q203.097 690.242 199.463 690.242 M199.463 686.539 Q205.273 686.539 208.329 691.145 Q211.407 695.728 211.407 704.478 Q211.407 713.205 208.329 717.812 Q205.273 722.395 199.463 722.395 Q193.653 722.395 190.574 717.812 Q187.519 713.205 187.519 704.478 Q187.519 695.728 190.574 691.145 Q193.653 686.539 199.463 686.539 Z" fill="#000000" fill-rule="nonzero" fill-opacity="1"></path><path clip-path="url(#clip270)" d="M229.625 690.242 Q226.014 690.242 224.185 693.807 Q222.38 697.349 222.38 704.478 Q222.38 711.585 224.185 715.15 Q226.014 718.691 229.625 718.691 Q233.259 718.691 235.065 715.15 Q236.893 711.585 236.893 704.478 Q236.893 697.349 235.065 693.807 Q233.259 690.242 229.625 690.242 M229.625 686.539 Q235.435 686.539 238.491 691.145 Q241.569 695.728 241.569 704.478 Q241.569 713.205 238.491 717.812 Q235.435 722.395 229.625 722.395 Q223.815 722.395 220.736 717.812 Q217.68 713.205 217.68 704.478 Q217.68 695.728 220.736 691.145 Q223.815 686.539 229.625 686.539 Z" fill="#000000" fill-rule="nonzero" fill-opacity="1"></path><path clip-path="url(#clip270)" d="M259.787 690.242 Q256.176 690.242 254.347 693.807 Q252.541 697.349 252.541 704.478 Q252.541 711.585 254.347 715.15 Q256.176 718.691 259.787 718.691 Q263.421 718.691 265.227 715.15 Q267.055 711.585 267.055 704.478 Q267.055 697.349 265.227 693.807 Q263.421 690.242 259.787 690.242 M259.787 686.539 Q265.597 686.539 268.652 691.145 Q271.731 695.728 271.731 704.478 Q271.731 713.205 268.652 717.812 Q265.597 722.395 259.787 722.395 Q253.977 722.395 250.898 717.812 Q247.842 713.205 247.842 704.478 Q247.842 695.728 250.898 691.145 Q253.977 686.539 259.787 686.539 Z" fill="#000000" fill-rule="nonzero" fill-opacity="1"></path><path clip-path="url(#clip270)" d="M283.976 717.788 L300.296 717.788 L300.296 721.724 L278.351 721.724 L278.351 717.788 Q281.013 715.034 285.597 710.404 Q290.203 705.752 291.384 704.409 Q293.629 701.886 294.509 700.15 Q295.412 698.39 295.412 696.701 Q295.412 693.946 293.467 692.21 Q291.546 690.474 288.444 690.474 Q286.245 690.474 283.791 691.238 Q281.361 692.002 278.583 693.553 L278.583 688.83 Q281.407 687.696 283.861 687.117 Q286.314 686.539 288.351 686.539 Q293.722 686.539 296.916 689.224 Q300.111 691.909 300.111 696.4 Q300.111 698.529 299.3 700.451 Q298.513 702.349 296.407 704.941 Q295.828 705.613 292.726 708.83 Q289.625 712.025 283.976 717.788 Z" fill="#000000" fill-rule="nonzero" fill-opacity="1"></path><path clip-path="url(#clip270)" d="M152.635 478.057 Q149.023 478.057 147.195 481.622 Q145.389 485.164 145.389 492.294 Q145.389 499.4 147.195 502.965 Q149.023 506.506 152.635 506.506 Q156.269 506.506 158.074 502.965 Q159.903 499.4 159.903 492.294 Q159.903 485.164 158.074 481.622 Q156.269 478.057 152.635 478.057 M152.635 474.354 Q158.445 474.354 161.5 478.96 Q164.579 483.544 164.579 492.294 Q164.579 501.02 161.5 505.627 Q158.445 510.21 152.635 510.21 Q146.824 510.21 143.746 505.627 Q140.69 501.02 140.69 492.294 Q140.69 483.544 143.746 478.96 Q146.824 474.354 152.635 474.354 Z" fill="#000000" fill-rule="nonzero" fill-opacity="1"></path><path clip-path="url(#clip270)" d="M172.796 503.659 L177.681 503.659 L177.681 509.539 L172.796 509.539 L172.796 503.659 Z" fill="#000000" fill-rule="nonzero" fill-opacity="1"></path><path clip-path="url(#clip270)" d="M197.866 478.057 Q194.255 478.057 192.426 481.622 Q190.62 485.164 190.62 492.294 Q190.62 499.4 192.426 502.965 Q194.255 506.506 197.866 506.506 Q201.5 506.506 203.306 502.965 Q205.134 499.4 205.134 492.294 Q205.134 485.164 203.306 481.622 Q201.5 478.057 197.866 478.057 M197.866 474.354 Q203.676 474.354 206.731 478.96 Q209.81 483.544 209.81 492.294 Q209.81 501.02 206.731 505.627 Q203.676 510.21 197.866 510.21 Q192.056 510.21 188.977 505.627 Q185.921 501.02 185.921 492.294 Q185.921 483.544 188.977 478.96 Q192.056 474.354 197.866 474.354 Z" fill="#000000" fill-rule="nonzero" fill-opacity="1"></path><path clip-path="url(#clip270)" d="M228.028 478.057 Q224.417 478.057 222.588 481.622 Q220.782 485.164 220.782 492.294 Q220.782 499.4 222.588 502.965 Q224.417 506.506 228.028 506.506 Q231.662 506.506 233.467 502.965 Q235.296 499.4 235.296 492.294 Q235.296 485.164 233.467 481.622 Q231.662 478.057 228.028 478.057 M228.028 474.354 Q233.838 474.354 236.893 478.96 Q239.972 483.544 239.972 492.294 Q239.972 501.02 236.893 505.627 Q233.838 510.21 228.028 510.21 Q222.217 510.21 219.139 505.627 Q216.083 501.02 216.083 492.294 Q216.083 483.544 219.139 478.96 Q222.217 474.354 228.028 474.354 Z" fill="#000000" fill-rule="nonzero" fill-opacity="1"></path><path clip-path="url(#clip270)" d="M258.19 478.057 Q254.578 478.057 252.75 481.622 Q250.944 485.164 250.944 492.294 Q250.944 499.4 252.75 502.965 Q254.578 506.506 258.19 506.506 Q261.824 506.506 263.629 502.965 Q265.458 499.4 265.458 492.294 Q265.458 485.164 263.629 481.622 Q261.824 478.057 258.19 478.057 M258.19 474.354 Q264 474.354 267.055 478.96 Q270.134 483.544 270.134 492.294 Q270.134 501.02 267.055 505.627 Q264 510.21 258.19 510.21 Q252.379 510.21 249.301 505.627 Q246.245 501.02 246.245 492.294 Q246.245 483.544 249.301 478.96 Q252.379 474.354 258.19 474.354 Z" fill="#000000" fill-rule="nonzero" fill-opacity="1"></path><path clip-path="url(#clip270)" d="M288.351 478.057 Q284.74 478.057 282.912 481.622 Q281.106 485.164 281.106 492.294 Q281.106 499.4 282.912 502.965 Q284.74 506.506 288.351 506.506 Q291.986 506.506 293.791 502.965 Q295.62 499.4 295.62 492.294 Q295.62 485.164 293.791 481.622 Q291.986 478.057 288.351 478.057 M288.351 474.354 Q294.162 474.354 297.217 478.96 Q300.296 483.544 300.296 492.294 Q300.296 501.02 297.217 505.627 Q294.162 510.21 288.351 510.21 Q282.541 510.21 279.463 505.627 Q276.407 501.02 276.407 492.294 Q276.407 483.544 279.463 478.96 Q282.541 474.354 288.351 474.354 Z" fill="#000000" fill-rule="nonzero" fill-opacity="1"></path><path clip-path="url(#clip270)" d="M154.232 265.873 Q150.621 265.873 148.792 269.437 Q146.986 272.979 146.986 280.109 Q146.986 287.215 148.792 290.78 Q150.621 294.322 154.232 294.322 Q157.866 294.322 159.672 290.78 Q161.5 287.215 161.5 280.109 Q161.5 272.979 159.672 269.437 Q157.866 265.873 154.232 265.873 M154.232 262.169 Q160.042 262.169 163.097 266.775 Q166.176 271.359 166.176 280.109 Q166.176 288.835 163.097 293.442 Q160.042 298.025 154.232 298.025 Q148.422 298.025 145.343 293.442 Q142.287 288.835 142.287 280.109 Q142.287 271.359 145.343 266.775 Q148.422 262.169 154.232 262.169 Z" fill="#000000" fill-rule="nonzero" fill-opacity="1"></path><path clip-path="url(#clip270)" d="M174.394 291.474 L179.278 291.474 L179.278 297.354 L174.394 297.354 L174.394 291.474 Z" fill="#000000" fill-rule="nonzero" fill-opacity="1"></path><path clip-path="url(#clip270)" d="M199.463 265.873 Q195.852 265.873 194.023 269.437 Q192.218 272.979 192.218 280.109 Q192.218 287.215 194.023 290.78 Q195.852 294.322 199.463 294.322 Q203.097 294.322 204.903 290.78 Q206.731 287.215 206.731 280.109 Q206.731 272.979 204.903 269.437 Q203.097 265.873 199.463 265.873 M199.463 262.169 Q205.273 262.169 208.329 266.775 Q211.407 271.359 211.407 280.109 Q211.407 288.835 208.329 293.442 Q205.273 298.025 199.463 298.025 Q193.653 298.025 190.574 293.442 Q187.519 288.835 187.519 280.109 Q187.519 271.359 190.574 266.775 Q193.653 262.169 199.463 262.169 Z" fill="#000000" fill-rule="nonzero" fill-opacity="1"></path><path clip-path="url(#clip270)" d="M229.625 265.873 Q226.014 265.873 224.185 269.437 Q222.38 272.979 222.38 280.109 Q222.38 287.215 224.185 290.78 Q226.014 294.322 229.625 294.322 Q233.259 294.322 235.065 290.78 Q236.893 287.215 236.893 280.109 Q236.893 272.979 235.065 269.437 Q233.259 265.873 229.625 265.873 M229.625 262.169 Q235.435 262.169 238.491 266.775 Q241.569 271.359 241.569 280.109 Q241.569 288.835 238.491 293.442 Q235.435 298.025 229.625 298.025 Q223.815 298.025 220.736 293.442 Q217.68 288.835 217.68 280.109 Q217.68 271.359 220.736 266.775 Q223.815 262.169 229.625 262.169 Z" fill="#000000" fill-rule="nonzero" fill-opacity="1"></path><path clip-path="url(#clip270)" d="M259.787 265.873 Q256.176 265.873 254.347 269.437 Q252.541 272.979 252.541 280.109 Q252.541 287.215 254.347 290.78 Q256.176 294.322 259.787 294.322 Q263.421 294.322 265.227 290.78 Q267.055 287.215 267.055 280.109 Q267.055 272.979 265.227 269.437 Q263.421 265.873 259.787 265.873 M259.787 262.169 Q265.597 262.169 268.652 266.775 Q271.731 271.359 271.731 280.109 Q271.731 288.835 268.652 293.442 Q265.597 298.025 259.787 298.025 Q253.977 298.025 250.898 293.442 Q247.842 288.835 247.842 280.109 Q247.842 271.359 250.898 266.775 Q253.977 262.169 259.787 262.169 Z" fill="#000000" fill-rule="nonzero" fill-opacity="1"></path><path clip-path="url(#clip270)" d="M283.976 293.419 L300.296 293.419 L300.296 297.354 L278.351 297.354 L278.351 293.419 Q281.013 290.664 285.597 286.035 Q290.203 281.382 291.384 280.039 Q293.629 277.516 294.509 275.78 Q295.412 274.021 295.412 272.331 Q295.412 269.576 293.467 267.84 Q291.546 266.104 288.444 266.104 Q286.245 266.104 283.791 266.868 Q281.361 267.632 278.583 269.183 L278.583 264.461 Q281.407 263.326 283.861 262.748 Q286.314 262.169 288.351 262.169 Q293.722 262.169 296.916 264.854 Q300.111 267.539 300.111 272.03 Q300.111 274.16 299.3 276.081 Q298.513 277.979 296.407 280.572 Q295.828 281.243 292.726 284.46 Q289.625 287.655 283.976 293.419 Z" fill="#000000" fill-rule="nonzero" fill-opacity="1"></path><path clip-path="url(#clip270)" d="M152.148 53.6878 Q148.537 53.6878 146.709 57.2526 Q144.903 60.7942 144.903 67.9238 Q144.903 75.0302 146.709 78.595 Q148.537 82.1367 152.148 82.1367 Q155.783 82.1367 157.588 78.595 Q159.417 75.0302 159.417 67.9238 Q159.417 60.7942 157.588 57.2526 Q155.783 53.6878 152.148 53.6878 M152.148 49.9841 Q157.959 49.9841 161.014 54.5905 Q164.093 59.1739 164.093 67.9238 Q164.093 76.6506 161.014 81.2571 Q157.959 85.8404 152.148 85.8404 Q146.338 85.8404 143.26 81.2571 Q140.204 76.6506 140.204 67.9238 Q140.204 59.1739 143.26 54.5905 Q146.338 49.9841 152.148 49.9841 Z" fill="#000000" fill-rule="nonzero" fill-opacity="1"></path><path clip-path="url(#clip270)" d="M172.31 79.2895 L177.195 79.2895 L177.195 85.1691 L172.31 85.1691 L172.31 79.2895 Z" fill="#000000" fill-rule="nonzero" fill-opacity="1"></path><path clip-path="url(#clip270)" d="M197.38 53.6878 Q193.769 53.6878 191.94 57.2526 Q190.134 60.7942 190.134 67.9238 Q190.134 75.0302 191.94 78.595 Q193.769 82.1367 197.38 82.1367 Q201.014 82.1367 202.819 78.595 Q204.648 75.0302 204.648 67.9238 Q204.648 60.7942 202.819 57.2526 Q201.014 53.6878 197.38 53.6878 M197.38 49.9841 Q203.19 49.9841 206.245 54.5905 Q209.324 59.1739 209.324 67.9238 Q209.324 76.6506 206.245 81.2571 Q203.19 85.8404 197.38 85.8404 Q191.569 85.8404 188.491 81.2571 Q185.435 76.6506 185.435 67.9238 Q185.435 59.1739 188.491 54.5905 Q191.569 49.9841 197.38 49.9841 Z" fill="#000000" fill-rule="nonzero" fill-opacity="1"></path><path clip-path="url(#clip270)" d="M227.542 53.6878 Q223.93 53.6878 222.102 57.2526 Q220.296 60.7942 220.296 67.9238 Q220.296 75.0302 222.102 78.595 Q223.93 82.1367 227.542 82.1367 Q231.176 82.1367 232.981 78.595 Q234.81 75.0302 234.81 67.9238 Q234.81 60.7942 232.981 57.2526 Q231.176 53.6878 227.542 53.6878 M227.542 49.9841 Q233.352 49.9841 236.407 54.5905 Q239.486 59.1739 239.486 67.9238 Q239.486 76.6506 236.407 81.2571 Q233.352 85.8404 227.542 85.8404 Q221.731 85.8404 218.653 81.2571 Q215.597 76.6506 215.597 67.9238 Q215.597 59.1739 218.653 54.5905 Q221.731 49.9841 227.542 49.9841 Z" fill="#000000" fill-rule="nonzero" fill-opacity="1"></path><path clip-path="url(#clip270)" d="M257.703 53.6878 Q254.092 53.6878 252.264 57.2526 Q250.458 60.7942 250.458 67.9238 Q250.458 75.0302 252.264 78.595 Q254.092 82.1367 257.703 82.1367 Q261.338 82.1367 263.143 78.595 Q264.972 75.0302 264.972 67.9238 Q264.972 60.7942 263.143 57.2526 Q261.338 53.6878 257.703 53.6878 M257.703 49.9841 Q263.514 49.9841 266.569 54.5905 Q269.648 59.1739 269.648 67.9238 Q269.648 76.6506 266.569 81.2571 Q263.514 85.8404 257.703 85.8404 Q251.893 85.8404 248.815 81.2571 Q245.759 76.6506 245.759 67.9238 Q245.759 59.1739 248.815 54.5905 Q251.893 49.9841 257.703 49.9841 Z" fill="#000000" fill-rule="nonzero" fill-opacity="1"></path><path clip-path="url(#clip270)" d="M290.712 54.6831 L278.907 73.1321 L290.712 73.1321 L290.712 54.6831 M289.486 50.6091 L295.365 50.6091 L295.365 73.1321 L300.296 73.1321 L300.296 77.021 L295.365 77.021 L295.365 85.1691 L290.712 85.1691 L290.712 77.021 L275.111 77.021 L275.111 72.5071 L289.486 50.6091 Z" fill="#000000" fill-rule="nonzero" fill-opacity="1"></path><path clip-path="url(#clip270)" d="M38.0559 607.278 L16.4762 607.278 L16.4762 601.421 L37.8331 601.421 Q42.8939 601.421 45.4402 599.448 Q47.9546 597.475 47.9546 593.528 Q47.9546 588.785 44.9309 586.048 Q41.9072 583.279 36.6873 583.279 L16.4762 583.279 L16.4762 577.423 L52.1242 577.423 L52.1242 583.279 L46.6496 583.279 Q49.8962 585.412 51.4876 588.244 Q53.0472 591.045 53.0472 594.769 Q53.0472 600.912 49.2278 604.095 Q45.4083 607.278 38.0559 607.278 M15.6168 592.541 L15.6168 592.541 Z" fill="#000000" fill-rule="nonzero" fill-opacity="1"></path><path clip-path="url(#clip270)" d="M2.66262 551.291 Q9.98318 555.556 17.1446 557.625 Q24.306 559.694 31.6584 559.694 Q39.0108 559.694 46.2359 557.625 Q53.4291 555.525 60.7179 551.291 L60.7179 556.384 Q53.2382 561.158 46.0131 563.545 Q38.788 565.901 31.6584 565.901 Q24.5606 565.901 17.3674 563.545 Q10.1742 561.19 2.66262 556.384 L2.66262 551.291 Z" fill="#000000" fill-rule="nonzero" fill-opacity="1"></path><path clip-path="url(#clip270)" d="M16.4762 510.296 L33.8228 523.187 L52.1242 509.628 L52.1242 516.535 L38.1196 526.911 L52.1242 537.287 L52.1242 544.194 L33.4726 530.348 L16.4762 543.016 L16.4762 536.109 L29.1758 526.656 L16.4762 517.203 L16.4762 510.296 Z" fill="#000000" fill-rule="nonzero" fill-opacity="1"></path><path clip-path="url(#clip270)" d="M2.66262 502.275 L2.66262 497.183 Q10.1742 492.409 17.3674 490.053 Q24.5606 487.666 31.6584 487.666 Q38.788 487.666 46.0131 490.053 Q53.2382 492.409 60.7179 497.183 L60.7179 502.275 Q53.4291 498.042 46.2359 495.973 Q39.0108 493.873 31.6584 493.873 Q24.306 493.873 17.1446 495.973 Q9.98318 498.042 2.66262 502.275 Z" fill="#000000" fill-rule="nonzero" fill-opacity="1"></path><polyline clip-path="url(#clip272)" style="stroke:#009af9; stroke-linecap:round; stroke-linejoin:round; stroke-width:8; stroke-opacity:1; fill:none" points="393.365,492.259 395.27,513.601 397.174,534.89 399.078,556.073 400.982,577.097 402.887,597.91 404.791,618.459 406.695,638.694 408.599,658.564 410.503,678.02 412.408,697.013 414.312,715.497 416.216,733.424 418.12,750.75 420.025,767.433 421.929,783.431 423.833,798.703 425.737,813.212 427.641,826.923 429.546,839.8 431.45,851.812 433.354,862.929 435.258,873.124 437.163,882.371 439.067,890.647 440.971,897.933 442.875,904.209 444.779,909.461 446.684,913.675 448.588,916.842 450.492,918.954 452.396,920.005 454.301,919.994 456.205,918.92 458.109,916.787 460.013,913.6 461.917,909.368 463.822,904.101 465.726,897.814 467.63,890.521 469.534,882.241 471.439,872.996 473.343,862.809 475.247,851.705 477.151,839.713 479.056,826.864 480.96,813.189 482.864,798.723 484.768,783.502 486.672,767.566 488.577,750.953 490.481,733.707 492.385,715.87 494.289,697.488 496.194,678.607 498.098,659.274 500.002,639.538 501.906,619.449 503.81,599.057 505.715,578.414 507.619,557.571 509.523,536.582 511.427,515.499 513.332,494.375 515.236,473.263 517.14,452.216 519.044,431.288 520.948,410.532 522.853,389.998 524.757,369.74 526.661,349.808 528.565,330.252 530.47,311.121 532.374,292.465 534.278,274.329 536.182,256.759 538.086,239.801 539.991,223.495 541.895,207.885 543.799,193.008 545.703,178.903 547.608,165.605 549.512,153.148 551.416,141.563 553.32,130.879 555.225,121.124 557.129,112.322 559.033,104.496 560.937,97.6653 562.841,91.8472 564.746,87.0569 566.65,83.3064 568.554,80.6056 570.458,78.9615 572.363,78.3784 574.267,78.8581 576.171,80.3997 578.075,82.9996 579.979,86.6515 581.884,91.3467 583.788,97.0735 585.692,103.818 587.596,111.564 589.501,120.291 591.405,129.979 593.309,140.603 595.213,152.137 597.117,164.553 599.022,177.819 600.926,191.903 602.83,206.769 604.734,222.381 606.639,238.701 608.543,255.686 610.447,273.295 612.351,291.485 614.256,310.21 616.16,329.422 618.064,349.076 619.968,369.121 621.872,389.507 623.777,410.185 625.681,431.101 627.585,452.205 629.489,473.444 631.394,494.764 633.298,516.113 635.202,537.438 637.106,558.684 639.01,579.8 640.915,600.733 642.819,621.43 644.723,641.841 646.627,661.914 648.532,681.598 650.436,700.847 652.34,719.61 654.244,737.842 656.148,755.497 658.053,772.531 659.957,788.903 661.861,804.57 663.765,819.495 665.67,833.639 667.574,846.969 669.478,859.45 671.382,871.053 673.286,881.747 675.191,891.507 677.095,900.308 678.999,908.129 680.903,914.95 682.808,920.755 684.712,925.529 686.616,929.261 688.52,931.941 690.425,933.563 692.329,934.124 694.233,933.622 696.137,932.058 698.041,929.437 699.946,925.767 701.85,921.055 703.754,915.315 705.658,908.56 707.563,900.809 709.467,892.081 711.371,882.397 713.275,871.783 715.179,860.266 717.084,847.874 718.988,834.639 720.892,820.594 722.796,805.775 724.701,790.219 726.605,773.965 728.509,757.054 730.413,739.53 732.317,721.436 734.222,702.817 736.126,683.721 738.03,664.196 739.934,644.29 741.839,624.055 743.743,603.541 745.647,582.799 747.551,561.882 749.455,540.843 751.36,519.734 753.264,498.609 755.168,477.521 757.072,456.523 758.977,435.667 760.881,415.007 762.785,394.594 764.689,374.48 766.594,354.716 768.498,335.35 770.402,316.433 772.306,298.011 774.21,280.131 776.115,262.838 778.019,246.176 779.923,230.187 781.827,214.911 783.732,200.386 785.636,186.65 787.54,173.736 789.444,161.678 791.348,150.506 793.253,140.248 795.157,130.93 797.061,122.576 798.965,115.208 800.87,108.843 802.774,103.498 804.678,99.1863 806.582,95.9198 808.486,93.7064 810.391,92.552 812.295,92.4598 814.199,93.4304 816.103,95.4614 818.008,98.5483 819.912,102.683 821.816,107.857 823.72,114.056 825.624,121.265 827.529,129.466 829.433,138.64 831.337,148.764 833.241,159.812 835.146,171.757 837.05,184.569 838.954,198.217 840.858,212.667 842.763,227.883 844.667,243.827 846.571,260.459 848.475,277.738 850.379,295.621 852.284,314.063 854.188,333.019 856.092,352.442 857.996,372.282 859.901,392.491 861.805,413.018 863.709,433.813 865.613,454.822 867.517,475.995 869.422,497.278 871.326,518.618 873.23,539.962 875.134,561.257 877.039,582.45 878.943,603.488 880.847,624.319 882.751,644.89 884.655,665.15 886.56,685.05 888.464,704.539 890.368,723.569 892.272,742.093 894.177,760.064 896.081,777.438 897.985,794.171 899.889,810.222 901.793,825.551 903.698,840.12 905.602,853.892 907.506,866.834 909.41,878.913 911.315,890.099 913.219,900.365 915.123,909.685 917.027,918.036 918.932,925.397 920.836,931.751 922.74,937.081 924.644,941.375 926.548,944.622 928.453,946.814 930.357,947.946 932.261,948.016 934.165,947.023 936.07,944.97 937.974,941.864 939.878,937.711 941.782,932.522 943.686,926.311 945.591,919.094 947.495,910.889 949.399,901.716 951.303,891.6 953.208,880.565 955.112,868.64 957.016,855.855 958.92,842.241 960.824,827.834 962.729,812.67 964.633,796.786 966.537,780.224 968.441,763.024 970.346,745.231 972.25,726.889 974.154,708.044 976.058,688.743 977.963,669.036 979.867,648.972 981.771,628.602 983.675,607.976 985.579,587.147 987.484,566.167 989.388,545.089 991.292,523.966 993.196,502.851 995.101,481.798 997.005,460.859 998.909,440.087 1000.81,419.535 1002.72,399.254 1004.62,379.295 1006.53,359.709 1008.43,340.544 1010.33,321.85 1012.24,303.673 1014.14,286.059 1016.05,269.052 1017.95,252.696 1019.86,237.031 1021.76,222.097 1023.66,207.932 1025.57,194.572 1027.47,182.049 1029.38,170.397 1031.28,159.644 1033.19,149.817 1035.09,140.942 1036.99,133.041 1038.9,126.133 1040.8,120.238 1042.71,115.369 1044.61,111.539 1046.51,108.758 1048.42,107.033 1050.32,106.369 1052.23,106.768 1054.13,108.229 1056.04,110.748 1057.94,114.321 1059.84,118.937 1061.75,124.586 1063.65,131.253 1065.56,138.923 1067.46,147.577 1069.37,157.192 1071.27,167.746 1073.17,179.212 1075.08,191.561 1076.98,204.764 1078.89,218.787 1080.79,233.595 1082.69,249.152 1084.6,265.419 1086.5,282.355 1088.41,299.918 1090.31,318.065 1092.22,336.751 1094.12,355.928 1096.02,375.55 1097.93,395.567 1099.83,415.929 1101.74,436.586 1103.64,457.487 1105.55,478.578 1107.45,499.808 1109.35,521.124 1111.26,542.473 1113.16,563.801 1115.07,585.055 1116.97,606.183 1118.88,627.132 1120.78,647.849 1122.68,668.283 1124.59,688.383 1126.49,708.099 1128.4,727.382 1130.3,746.184 1132.2,764.458 1134.11,782.159 1136.01,799.242 1137.92,815.665 1139.82,831.387 1141.73,846.37 1143.63,860.575 1145.53,873.968 1147.44,886.515 1149.34,898.185 1151.25,908.95 1153.15,918.781 1155.06,927.656 1156.96,935.553 1158.86,942.451 1160.77,948.333 1162.67,953.186 1164.58,956.998 1166.48,959.758 1168.39,961.461 1170.29,962.102 1172.19,961.681 1174.1,960.198 1176,957.658 1177.91,954.066 1179.81,949.434 1181.71,943.771 1183.62,937.093 1185.52,929.417 1187.43,920.762 1189.33,911.151 1191.24,900.607 1193.14,889.157 1195.04,876.831 1196.95,863.659 1198.85,849.674 1200.76,834.912 1202.66,819.411 1204.57,803.209 1206.47,786.347 1208.37,768.868 1210.28,750.815 1212.18,732.235 1214.09,713.173 1215.99,693.679 1217.89,673.801 1219.8,653.589 1221.7,633.094 1223.61,612.368 1225.51,591.462 1227.42,570.43 1229.32,549.325 1231.22,528.199 1233.13,507.107 1235.03,486.1 1236.94,465.231 1238.84,444.555 1240.75,424.121 1242.65,403.983 1244.55,384.19 1246.46,364.792 1248.36,345.839 1250.27,327.378 1252.17,309.455 1254.08,292.116 1255.98,275.405 1257.88,259.363 1259.79,244.031 1261.69,229.448 1263.6,215.65 1265.5,202.673 1267.4,190.548 1269.31,179.308 1271.21,168.979 1273.12,159.589 1275.02,151.161 1276.93,143.717 1278.83,137.275 1280.73,131.852 1282.64,127.462 1284.54,124.115 1286.45,121.821 1288.35,120.586 1290.26,120.413 1292.16,121.303 1294.06,123.254 1295.97,126.26 1297.87,130.316 1299.78,135.411 1301.68,141.532 1303.58,148.665 1305.49,156.792 1307.39,165.892 1309.3,175.944 1311.2,186.923 1313.11,198.801 1315.01,211.548 1316.91,225.134 1318.82,239.524 1320.72,254.683 1322.63,270.573 1324.53,287.154 1326.44,304.385 1328.34,322.224 1330.24,340.625 1332.15,359.544 1334.05,378.932 1335.96,398.743 1337.86,418.925 1339.77,439.43 1341.67,460.206 1343.57,481.201 1345.48,502.363 1347.38,523.64 1349.29,544.977 1351.19,566.323 1353.09,587.624 1355,608.826 1356.9,629.878 1358.81,650.726 1360.71,671.319 1362.62,691.605 1364.52,711.534 1366.42,731.056 1368.33,750.123 1370.23,768.686 1372.14,786.701 1374.04,804.122 1375.95,820.905 1377.85,837.01 1379.75,852.395 1381.66,867.023 1383.56,880.857 1385.47,893.863 1387.37,906.009 1389.28,917.264 1391.18,927.601 1393.08,936.993 1394.99,945.419 1396.89,952.856 1398.8,959.287 1400.7,964.696 1402.6,969.069 1404.51,972.396 1406.41,974.668 1408.32,975.881 1410.22,976.032 1412.13,975.119 1414.03,973.147 1415.93,970.121 1417.84,966.047 1419.74,960.937 1421.65,954.803 1423.55,947.662 1425.46,939.531 1427.36,930.432 1429.26,920.386 1431.17,909.42 1433.07,897.562 1434.98,884.841 1436.88,871.289 1438.78,856.941 1440.69,841.833 1442.59,826.003 1444.5,809.491 1446.4,792.338 1448.31,774.589 1450.21,756.286 1452.11,737.478 1454.02,718.211 1455.92,698.533 1457.83,678.494 1459.73,658.145 1461.64,637.537 1463.54,616.721 1465.44,595.751 1467.35,574.679 1469.25,553.557 1471.16,532.44 1473.06,511.38 1474.97,490.431 1476.87,469.645 1478.77,449.074 1480.68,428.77 1482.58,408.785 1484.49,389.169 1486.39,369.97 1488.29,351.239 1490.2,333.021 1492.1,315.362 1494.01,298.308 1495.91,281.9 1497.82,266.181 1499.72,251.191 1501.62,236.966 1503.53,223.543 1505.43,210.956 1507.34,199.236 1509.24,188.413 1511.15,178.515 1513.05,169.567 1514.95,161.591 1516.86,154.607 1518.76,148.634 1520.67,143.687 1522.57,139.777 1524.48,136.916 1526.38,135.111 1528.28,134.366 1530.19,134.684 1532.09,136.064 1534,138.503 1535.9,141.996 1537.8,146.533 1539.71,152.104 1541.61,158.694 1543.52,166.289 1545.42,174.868 1547.33,184.411 1549.23,194.894 1551.13,206.292 1553.04,218.575 1554.94,231.714 1556.85,245.676 1558.75,260.425 1560.66,275.927 1562.56,292.141 1564.46,309.027 1566.37,326.545 1568.27,344.649 1570.18,363.295 1572.08,382.437 1573.98,402.026 1575.89,422.015 1577.79,442.353 1579.7,462.989 1581.6,483.873 1583.51,504.952 1585.41,526.173 1587.31,547.484 1589.22,568.832 1591.12,590.164 1593.03,611.426 1594.93,632.565 1596.84,653.529 1598.74,674.266 1600.64,694.723 1602.55,714.85 1604.45,734.598 1606.36,753.915 1608.26,772.755 1610.17,791.071 1612.07,808.817 1613.97,825.949 1615.88,842.423 1617.78,858.201 1619.69,873.241 1621.59,887.506 1623.49,900.962 1625.4,913.575 1627.3,925.312 1629.21,936.147 1631.11,946.05 1633.02,954.999 1634.92,962.971 1636.82,969.945 1638.73,975.906 1640.63,980.837 1642.54,984.728 1644.44,987.569 1646.35,989.352 1648.25,990.075 1650.15,989.734 1652.06,988.332 1653.96,985.872 1655.87,982.36 1657.77,977.806 1659.68,972.221 1661.58,965.62 1663.48,958.02 1665.39,949.439 1667.29,939.899 1669.2,929.425 1671.1,918.043 1673,905.782 1674.91,892.674 1676.81,878.75 1678.72,864.046 1680.62,848.599 1682.53,832.449 1684.43,815.636 1686.33,798.202 1688.24,780.192 1690.14,761.65 1692.05,742.623 1693.95,723.16 1695.86,703.309 1697.76,683.121 1699.66,662.646 1701.57,641.935 1703.47,621.042 1705.38,600.018 1707.28,578.916 1709.18,557.79 1711.09,536.693 1712.99,515.678 1714.9,494.797 1716.8,474.104 1718.71,453.65 1720.61,433.487 1722.51,413.666 1724.42,394.237 1726.32,375.248 1728.23,356.748 1730.13,338.783 1732.04,321.398 1733.94,304.637 1735.84,288.543 1737.75,273.155 1739.65,258.514 1741.56,244.655 1743.46,231.614 1745.37,219.424 1747.27,208.115 1749.17,197.716 1751.08,188.254 1752.98,179.752 1754.89,172.232 1756.79,165.713 1758.69,160.212 1760.6,155.743 1762.5,152.317 1764.41,149.943 1766.31,148.627 1768.22,148.373 1770.12,149.182 1772.02,151.052 1773.93,153.978 1775.83,157.954 1777.74,162.971 1779.64,169.014 1781.55,176.071 1783.45,184.123 1785.35,193.15 1787.26,203.131 1789.16,214.039 1791.07,225.85 1792.97,238.532 1794.88,252.055 1796.78,266.386 1798.68,281.487 1800.59,297.323 1802.49,313.853 1804.4,331.036 1806.3,348.83 1808.2,367.19 1810.11,386.071 1812.01,405.426 1813.92,425.205 1815.82,445.362 1817.73,465.844 1819.63,486.601 1821.53,507.581 1823.44,528.732 1825.34,550.002 1827.25,571.337 1829.15,592.684 1831.06,613.99 1832.96,635.202 1834.86,656.266 1836.77,677.132 1838.67,697.746 1840.58,718.057 1842.48,738.015 1844.38,757.57 1846.29,776.673 1848.19,795.276 1850.1,813.334 1852,830.802 1853.91,847.635 1855.81,863.793 1857.71,879.234 1859.62,893.921 1861.52,907.817 1863.43,920.887 1865.33,933.099 1867.24,944.423 1869.14,954.831 1871.04,964.296 1872.95,972.796 1874.85,980.309 1876.76,986.817 1878.66,992.304 1880.57,996.757 1882.47,1000.16 1884.37,1002.52 1886.28,1003.81 1888.18,1004.04 1890.09,1003.21 1891.99,1001.32 1893.89,998.372 1895.8,994.377 1897.7,989.345 1899.61,983.289 1901.51,976.224 1903.42,968.168 1905.32,959.141 1907.22,949.167 1909.13,938.27 1911.03,926.479 1912.94,913.822 1914.84,900.332 1916.75,886.044 1918.65,870.992 1920.55,855.216 1922.46,838.754 1924.36,821.649 1926.27,803.943 1928.17,785.681 1930.08,766.91 1931.98,747.675 1933.88,728.027 1935.79,708.014 1937.69,687.687 1939.6,667.096 1941.5,646.295 1943.4,625.334 1945.31,604.268 1947.21,583.149 1949.12,562.029 1951.02,540.963 1952.93,520.004 1954.83,499.203 1956.73,478.614 1958.64,458.288 1960.54,438.277 1962.45,418.631 1964.35,399.399 1966.26,380.63 1968.16,362.371 1970.06,344.669 1971.97,327.567 1973.87,311.109 1975.78,295.336 1977.68,280.289 1979.58,266.004 1981.49,252.519 1983.39,239.867 1985.3,228.08 1987.2,217.188 1989.11,207.219 1991.01,198.198 1992.91,190.147 1994.82,183.087 1996.72,177.037 1998.63,172.01 2000.53,168.022 2002.44,165.081 2004.34,163.195 2006.24,162.369 2008.15,162.606 2010.05,163.906 2011.96,166.265 2013.86,169.677 2015.77,174.135 2017.67,179.627 2019.57,186.141 2021.48,193.66 2023.38,202.165 2025.29,211.635 2027.19,222.048 2029.09,233.377 2031,245.594 2032.9,258.669 2034.81,272.569 2036.71,287.26 2038.62,302.706 2040.52,318.867 2042.42,335.704 2044.33,353.175 2046.23,371.236 2048.14,389.842 2050.04,408.948 2051.95,428.505 2053.85,448.465 2055.75,468.778 2057.66,489.393 2059.56,510.26 2061.47,531.326 2063.37,552.538 2065.28,573.845 2067.18,595.192 2069.08,616.526 2070.99,637.795 2072.89,658.946 2074.8,679.925 2076.7,700.681 2078.6,721.161 2080.51,741.316 2082.41,761.093 2084.32,780.445 2086.22,799.324 2088.13,817.681 2090.03,835.472 2091.93,852.652 2093.84,869.178 2095.74,885.009 2097.65,900.107 2099.55,914.433 2101.46,927.951 2103.36,940.629 2105.26,952.435 2107.17,963.339 2109.07,973.314 2110.98,982.336 2112.88,990.383 2114.78,997.434 2116.69,1003.47 2118.59,1008.48 2120.5,1012.45 2122.4,1015.37 2124.31,1017.24 2126.21,1018.04 2128.11,1017.78 2130.02,1016.46 2131.92,1014.08 2133.83,1010.65 2135.73,1006.17 2137.64,1000.67 2139.54,994.142 2141.44,986.616 2143.35,978.109 2145.25,968.642 2147.16,958.238 2149.06,946.924 2150.97,934.729 2152.87,921.684 2154.77,907.821 2156.68,893.175 2158.58,877.784 2160.49,861.686 2162.39,844.921 2164.29,827.533 2166.2,809.565 2168.1,791.062 2170.01,772.071 2171.91,752.639 2173.82,732.816 2175.72,712.651 2177.62,692.196 2179.53,671.502 2181.43,650.62 2183.34,629.605 2185.24,608.507 2187.15,587.381 2189.05,566.28 2190.95,545.256 2192.86,524.364 2194.76,503.654 2196.67,483.18 2198.57,462.994 2200.48,443.145 2202.38,423.684 2204.28,404.66 2206.19,386.121 2208.09,368.113 2210,350.683 2211.9,333.873 2213.8,317.727 2215.71,302.284 2217.61,287.585 2219.52,273.665 2221.42,260.561 2223.33,248.304 2225.23,236.928 2227.13,226.459 2229.04,216.924 2230.94,208.348 2232.85,200.753 2234.75,194.158 2236.66,188.578 2238.56,184.03 2240.46,180.524 2242.37,178.07 2244.27,176.673 2246.18,176.339 2248.08,177.067 2249.98,178.856 2251.89,181.702 2253.79,185.599 2255.7,190.536 2257.6,196.502 2259.51,203.482 2261.41,211.459 2263.31,220.413 2265.22,230.322 2267.12,241.161 2269.03,252.904 2270.93,265.521 2272.84,278.982 2274.74,293.252 2276.64,308.296 2278.55,324.077 2280.45,340.555 2282.36,357.69 2284.26,375.439 2286.17,393.758 2288.07,412.601 2289.97,431.921 2291.88,451.67 2293.78,471.8 2295.69,492.259 "></polyline>
<polyline clip-path="url(#clip272)" style="stroke:#e26f46; stroke-linecap:round; stroke-linejoin:round; stroke-width:4; stroke-opacity:1; fill:none" stroke-dasharray="16, 8, 2, 8" points="393.365,493.248 395.27,514.37 397.174,535.695 399.078,556.564 400.982,577.78 402.887,598.505 404.791,618.97 406.695,639.368 408.599,659.385 410.503,678.543 412.408,697.812 414.312,716.439 416.216,734.411 418.12,751.798 420.025,768.495 421.929,784.497 423.833,800.045 425.737,814.756 427.641,828.605 429.546,841.494 431.45,853.56 433.354,864.732 435.258,874.52 437.163,883.833 439.067,891.907 440.971,899.288 442.875,905.483 444.779,910.609 446.684,914.498 448.588,917.72 450.492,919.662 452.396,920.646 454.301,920.335 456.205,919.141 458.109,917.023 460.013,913.358 461.917,909.117 463.822,903.767 465.726,897.117 467.63,889.907 469.534,881.57 471.439,872.194 473.343,862.11 475.247,851.119 477.151,839.238 479.056,826.535 480.96,812.442 482.864,798.187 484.768,783.254 486.672,767.558 488.577,751.184 490.481,733.998 492.385,716.317 494.289,698.077 496.194,679.639 498.098,660.677 500.002,641.208 501.906,621.155 503.81,601.065 505.715,580.797 507.619,560.069 509.523,539.414 511.427,518.491 513.332,497.341 515.236,476.371 517.14,455.41 519.044,434.819 520.948,413.837 522.853,393.343 524.757,373.041 526.661,353.118 528.565,333.514 530.47,314.454 532.374,295.425 534.278,277.078 536.182,259.115 538.086,241.853 539.991,225.147 541.895,209.793 543.799,194.644 545.703,179.961 547.608,166.352 549.512,153.713 551.416,141.769 553.32,130.499 555.225,120.492 557.129,111.377 559.033,103.34 560.937,95.769 562.841,89.8799 564.746,84.8866 566.65,80.9088 568.554,78.0895 570.458,76.1616 572.363,75.5589 574.267,75.7745 576.171,77.1483 578.075,79.8656 579.979,83.69 581.884,88.4485 583.788,94.1868 585.692,101.2 587.596,108.935 589.501,118.013 591.405,127.823 593.309,138.849 595.213,150.574 597.117,163.556 599.022,176.922 600.926,191.536 602.83,206.673 604.734,222.954 606.639,239.459 608.543,257.104 610.447,274.92 612.351,293.804 614.256,313.03 616.16,332.564 618.064,352.407 619.968,373.45 621.872,393.903 623.777,414.796 625.681,436.128 627.585,457.603 629.489,479.252 631.394,500.664 633.298,522.202 635.202,543.565 637.106,564.801 639.01,586.05 640.915,606.798 642.819,627.354 644.723,647.94 646.627,667.685 648.532,686.926 650.436,705.955 652.34,724.629 654.244,742.469 656.148,759.708 658.053,776.555 659.957,792.352 661.861,807.456 663.765,822.105 665.67,835.439 667.574,848.202 669.478,860.267 671.382,871.011 673.286,881.48 675.191,890.52 677.095,898.755 678.999,905.989 680.903,911.984 682.808,917.622 684.712,921.812 686.616,925.063 688.52,927.486 690.425,928.736 692.329,928.987 694.233,927.851 696.137,926.455 698.041,923.68 699.946,919.91 701.85,914.851 703.754,909 705.658,902.31 707.563,894.612 709.467,886.226 711.371,876.909 713.275,866.213 715.179,855.316 717.084,843.279 718.988,830.576 720.892,816.917 722.796,802.502 724.701,787.449 726.605,771.744 728.509,755.48 730.413,738.594 732.317,721.236 734.222,703.218 736.126,684.851 738.03,666.185 739.934,646.622 741.839,627.076 743.743,607.273 745.647,586.975 747.551,566.875 749.455,546.327 751.36,526.014 753.264,505.38 755.168,484.504 757.072,463.609 758.977,443.451 760.881,423.067 762.785,402.909 764.689,383.052 766.594,363.605 768.498,343.937 770.402,325.185 772.306,306.866 774.21,288.679 776.115,271.29 778.019,254.427 779.923,238.258 781.827,222.42 783.732,207.816 785.636,193.244 787.54,180.07 789.444,167.418 791.348,155.755 793.253,144.784 795.157,134.747 797.061,125.803 798.965,117.644 800.87,110.691 802.774,104.615 804.678,99.5331 806.582,95.761 808.486,92.5587 810.391,90.59 812.295,89.8242 814.199,90.2284 816.103,91.5283 818.008,93.8507 819.912,97.5439 821.816,102.213 823.72,108.187 825.624,114.881 827.529,122.603 829.433,131.469 831.337,141.351 833.241,152.197 835.146,163.928 837.05,176.722 838.954,190.32 840.858,204.74 842.763,220.087 844.667,236.47 846.571,253.388 848.475,270.71 850.379,289.089 852.284,307.592 854.188,327.319 856.092,347.183 857.996,367.541 859.901,388.7 861.805,409.708 863.709,430.708 865.613,452.637 867.517,474.67 869.422,496.652 871.326,518.775 873.23,540.903 875.134,562.785 877.039,584.654 878.943,606.644 880.847,627.826 882.751,649.212 884.655,670.17 886.56,690.685 888.464,710.893 890.368,730.632 892.272,749.291 894.177,768.044 896.081,785.664 897.985,802.869 899.889,819.092 901.793,834.613 903.698,849.634 905.602,863.383 907.506,876.444 909.41,888.289 911.315,899.402 913.219,909.498 915.123,918.751 917.027,926.733 918.932,934.115 920.836,939.869 922.74,944.913 924.644,948.554 926.548,951.344 928.453,952.859 930.357,953.339 932.261,952.901 934.165,951.158 936.07,948.297 937.974,944.636 939.878,939.998 941.782,933.78 943.686,926.913 945.591,919.216 947.495,910.245 949.399,900.191 951.303,889.309 953.208,877.741 955.112,864.888 957.016,851.785 958.92,837.573 960.824,822.723 962.729,807.097 964.633,790.829 966.537,773.685 968.441,756.452 970.346,738.102 972.25,719.425 974.154,700.487 976.058,681.015 977.963,661.396 979.867,641.504 981.771,620.78 983.675,600.383 985.579,579.893 987.484,559.223 989.388,538.434 991.292,517.584 993.196,496.969 995.101,476.118 997.005,455.948 998.909,435.432 1000.81,415.61 1002.72,396.176 1004.62,376.365 1006.53,357.621 1008.43,338.997 1010.33,320.916 1012.24,303.419 1014.14,286.374 1016.05,270.2 1017.95,254.87 1019.86,239.525 1021.76,225.403 1023.66,211.874 1025.57,199.071 1027.47,187.129 1029.38,176.077 1031.28,165.838 1033.19,156.458 1035.09,147.814 1036.99,140.258 1038.9,133.87 1040.8,128.343 1042.71,123.703 1044.61,120.035 1046.51,117.365 1048.42,115.667 1050.32,115.13 1052.23,115.632 1054.13,116.82 1056.04,119.401 1057.94,122.747 1059.84,127.058 1061.75,132.708 1063.65,138.934 1065.56,146.408 1067.46,154.692 1069.37,163.798 1071.27,173.76 1073.17,184.868 1075.08,196.297 1076.98,209.152 1078.89,222.69 1080.79,236.701 1082.69,251.984 1084.6,267.583 1086.5,283.715 1088.41,300.896 1090.31,318.281 1092.22,336.535 1094.12,354.705 1096.02,373.891 1097.93,393.226 1099.83,412.887 1101.74,433.177 1103.64,453.303 1105.55,474.119 1107.45,494.952 1109.35,515.896 1111.26,536.433 1113.16,557.74 1115.07,578.611 1116.97,599.232 1118.88,620.064 1120.78,640.594 1122.68,661.138 1124.59,681.407 1126.49,700.887 1128.4,719.983 1130.3,738.913 1132.2,757.464 1134.11,775.109 1136.01,792.496 1137.92,809.196 1139.82,824.992 1141.73,840.402 1143.63,855.27 1145.53,868.999 1147.44,881.584 1149.34,894.139 1151.25,905.382 1153.15,915.659 1155.06,925.029 1156.96,933.666 1158.86,941.122 1160.77,947.36 1162.67,953.249 1164.58,957.244 1166.48,960.987 1168.39,962.739 1170.29,964.25 1172.19,964.783 1174.1,963.756 1176,961.784 1177.91,958.896 1179.81,954.504 1181.71,949.09 1183.62,943.321 1185.52,936.196 1187.43,927.551 1189.33,918.54 1191.24,908.125 1193.14,897.275 1195.04,885.064 1196.95,872.198 1198.85,858.464 1200.76,844.157 1202.66,828.567 1204.57,812.298 1206.47,795.221 1208.37,778.221 1210.28,759.689 1212.18,741.486 1214.09,721.886 1215.99,702.139 1217.89,682.272 1219.8,661.499 1221.7,640.902 1223.61,619.66 1225.51,598.442 1227.42,577.123 1229.32,555.56 1231.22,533.998 1233.13,511.958 1235.03,490.621 1236.94,469.27 1238.84,447.719 1240.75,426.843 1242.65,405.945 1244.55,385.779 1246.46,365.744 1248.36,346.317 1250.27,327.176 1252.17,308.37 1254.08,290.422 1255.98,273.175 1257.88,256.702 1259.79,240.574 1261.69,225.652 1263.6,211.166 1265.5,197.597 1267.4,184.954 1269.31,173.372 1271.21,162.602 1273.12,152.787 1275.02,144.236 1276.93,136.313 1278.83,129.565 1280.73,123.934 1282.64,119.417 1284.54,115.96 1286.45,113.361 1288.35,111.88 1290.26,111.715 1292.16,112.779 1294.06,114.714 1295.97,117.937 1297.87,122.102 1299.78,127.339 1301.68,133.782 1303.58,141.207 1305.49,149.567 1307.39,158.968 1309.3,169.272 1311.2,180.758 1313.11,193.255 1315.01,206.42 1316.91,220.356 1318.82,235.582 1320.72,251.044 1322.63,267.804 1324.53,284.627 1326.44,302.659 1328.34,321.213 1330.24,340.469 1332.15,359.958 1334.05,379.745 1335.96,400.392 1337.86,421.044 1339.77,442.502 1341.67,463.809 1343.57,485.066 1345.48,507.166 1347.38,528.972 1349.29,550.782 1351.19,572.779 1353.09,594.634 1355,616.294 1356.9,637.736 1358.81,658.874 1360.71,680.422 1362.62,700.957 1364.52,721.125 1366.42,740.868 1368.33,760.34 1370.23,778.742 1372.14,797.335 1374.04,815.043 1375.95,832.126 1377.85,848.192 1379.75,863.308 1381.66,877.844 1383.56,891.748 1385.47,904.679 1387.37,916.42 1389.28,927.727 1391.18,937.913 1393.08,946.508 1394.99,954.797 1396.89,961.918 1398.8,967.874 1400.7,973.131 1402.6,976.743 1404.51,979.902 1406.41,981.542 1408.32,982.485 1410.22,981.615 1412.13,980.335 1414.03,977.517 1415.93,973.954 1417.84,969.293 1419.74,963.405 1421.65,956.53 1423.55,949.295 1425.46,940.069 1427.36,930.51 1429.26,919.341 1431.17,908.31 1433.07,895.373 1434.98,881.929 1436.88,867.978 1438.78,852.862 1440.69,837.058 1442.59,820.627 1444.5,803.578 1446.4,786.004 1448.31,767.845 1450.21,749.028 1452.11,729.702 1454.02,710.195 1455.92,690.035 1457.83,669.34 1459.73,648.844 1461.64,627.714 1463.54,607.188 1465.44,585.665 1467.35,564.271 1469.25,543.088 1471.16,522.014 1473.06,501.097 1474.97,480.065 1476.87,459.203 1478.77,438.876 1480.68,418.733 1482.58,398.816 1484.49,379.575 1486.39,360.741 1488.29,341.969 1490.2,324.203 1492.1,306.859 1494.01,290.367 1495.91,274.286 1497.82,258.962 1499.72,244.734 1501.62,230.764 1503.53,218.351 1505.43,206.087 1507.34,194.634 1509.24,184.836 1511.15,175.073 1513.05,167.474 1514.95,159.905 1516.86,153.664 1518.76,148.423 1520.67,144.137 1522.57,140.672 1524.48,138.792 1526.38,137.582 1528.28,137.378 1530.19,138.503 1532.09,140.646 1534,143.462 1535.9,147.923 1537.8,153.045 1539.71,158.796 1541.61,166.369 1543.52,174.465 1545.42,183.311 1547.33,193.661 1549.23,204.387 1551.13,216.167 1553.04,228.912 1554.94,242.235 1556.85,256.6 1558.75,271.677 1560.66,287.37 1562.56,303.644 1564.46,320.746 1566.37,338.45 1568.27,356.565 1570.18,375.329 1572.08,394.348 1573.98,413.957 1575.89,433.957 1577.79,453.998 1579.7,474.724 1581.6,495.204 1583.51,516.051 1585.41,536.907 1587.31,558.075 1589.22,579.019 1591.12,600.093 1593.03,620.844 1594.93,641.432 1596.84,661.7 1598.74,682.007 1600.64,701.99 1602.55,721.55 1604.45,740.752 1606.36,759.391 1608.26,777.961 1610.17,795.399 1612.07,812.473 1613.97,828.647 1615.88,844.683 1617.78,859.817 1619.69,874.421 1621.59,887.721 1623.49,900.713 1625.4,912.453 1627.3,923.672 1629.21,933.882 1631.11,943.26 1633.02,951.398 1634.92,958.764 1636.82,965.398 1638.73,970.414 1640.63,974.893 1642.54,978.36 1644.44,980.62 1646.35,981.978 1648.25,982.478 1650.15,981.642 1652.06,979.868 1653.96,976.995 1655.87,973.512 1657.77,968.423 1659.68,962.518 1661.58,955.73 1663.48,948.087 1665.39,939.554 1667.29,929.896 1669.2,919.187 1671.1,907.926 1673,895.362 1674.91,882.592 1676.81,868.655 1678.72,854.188 1680.62,839.02 1682.53,822.89 1684.43,806.406 1686.33,789.289 1688.24,771.84 1690.14,753.498 1692.05,734.621 1693.95,715.71 1695.86,696.526 1697.76,676.806 1699.66,656.716 1701.57,636.601 1703.47,616.217 1705.38,595.741 1707.28,575.225 1709.18,554.41 1711.09,533.747 1712.99,513.498 1714.9,493.236 1716.8,473.181 1718.71,453.144 1720.61,433.795 1722.51,414.873 1724.42,395.832 1726.32,377.556 1728.23,359.398 1730.13,341.974 1732.04,325.245 1733.94,308.907 1735.84,293.346 1737.75,278.582 1739.65,264.398 1741.56,251.211 1743.46,238.307 1745.37,226.701 1747.27,215.92 1749.17,205.658 1751.08,196.395 1752.98,188.256 1754.89,181.351 1756.79,174.959 1758.69,169.561 1760.6,165.557 1762.5,162.013 1764.41,159.516 1766.31,158.61 1768.22,158.415 1770.12,159.107 1772.02,160.988 1773.93,163.858 1775.83,167.632 1777.74,172.727 1779.64,178.497 1781.55,185.209 1783.45,193.16 1785.35,201.914 1787.26,211.69 1789.16,222.438 1791.07,233.659 1792.97,246.062 1794.88,259.398 1796.78,273.227 1798.68,288.14 1800.59,303.306 1802.49,319.518 1804.4,336.394 1806.3,353.538 1808.2,371.49 1810.11,389.792 1812.01,408.644 1813.92,427.751 1815.82,447.729 1817.73,467.522 1819.63,488.042 1821.53,508.242 1823.44,528.787 1825.34,549.532 1827.25,570.622 1829.15,591.424 1831.06,612.456 1832.96,632.965 1834.86,653.722 1836.77,674.207 1838.67,694.584 1840.58,714.209 1842.48,733.988 1844.38,753.309 1846.29,771.947 1848.19,790.318 1850.1,808.232 1852,825.481 1853.91,842.062 1855.81,858.186 1857.71,873.528 1859.62,887.865 1861.52,901.562 1863.43,914.761 1865.33,926.907 1867.24,938.264 1869.14,948.411 1871.04,957.868 1872.95,966.655 1874.85,974.323 1876.76,980.719 1878.66,986.51 1880.57,991.002 1882.47,994.774 1884.37,997.292 1886.28,998.939 1888.18,998.895 1890.09,998.783 1891.99,997.189 1893.89,994.634 1895.8,990.672 1897.7,985.818 1899.61,980.507 1901.51,973.687 1903.42,965.88 1905.32,957.047 1907.22,947.761 1909.13,937.035 1911.03,925.842 1912.94,913.361 1914.84,900.275 1916.75,886.412 1918.65,871.739 1920.55,856.216 1922.46,840.091 1924.36,823.159 1926.27,805.951 1928.17,787.939 1930.08,769.429 1931.98,750.471 1933.88,731.23 1935.79,711.091 1937.69,690.855 1939.6,670.745 1941.5,650.2 1943.4,629.014 1945.31,608.336 1947.21,587.311 1949.12,566.401 1951.02,545.418 1952.93,524.531 1954.83,503.637 1956.73,483.053 1958.64,462.792 1960.54,442.623 1962.45,423.095 1964.35,403.758 1966.26,384.765 1968.16,366.765 1970.06,348.97 1971.97,331.676 1973.87,314.895 1975.78,299.052 1977.68,283.901 1979.58,269.48 1981.49,255.621 1983.39,242.729 1985.3,230.977 1987.2,219.592 1989.11,209.607 1991.01,200.454 1992.91,192.148 1994.82,184.739 1996.72,178.496 1998.63,173.362 2000.53,168.993 2002.44,165.791 2004.34,163.609 2006.24,162.712 2008.15,162.717 2010.05,163.662 2011.96,166.037 2013.86,169.369 2015.77,173.535 2017.67,178.931 2019.57,185.314 2021.48,192.514 2023.38,201.173 2025.29,210.652 2027.19,220.719 2029.09,232.05 2031,244.417 2032.9,257.312 2034.81,271.146 2036.71,285.916 2038.62,301.333 2040.52,317.549 2042.42,334.524 2044.33,351.969 2046.23,370.056 2048.14,388.9 2050.04,407.929 2051.95,427.651 2053.85,447.837 2055.75,468.364 2057.66,489.102 2059.56,510.158 2061.47,531.134 2063.37,552.867 2065.28,574.35 2067.18,595.544 2069.08,616.999 2070.99,638.75 2072.89,659.899 2074.8,681.136 2076.7,702.101 2078.6,722.677 2080.51,743.276 2082.41,762.926 2084.32,782.546 2086.22,801.58 2088.13,820.043 2090.03,838.071 2091.93,854.894 2093.84,871.758 2095.74,887.805 2097.65,902.989 2099.55,917.196 2101.46,930.686 2103.36,943.383 2105.26,954.942 2107.17,966.031 2109.07,975.941 2110.98,985.074 2112.88,992.717 2114.78,999.66 2116.69,1005.56 2118.59,1010.62 2120.5,1014.56 2122.4,1016.88 2124.31,1018.57 2126.21,1019.39 2128.11,1019.12 2130.02,1017.41 2131.92,1014.84 2133.83,1011.02 2135.73,1006.31 2137.64,1000.45 2139.54,993.961 2141.44,985.984 2143.35,977.151 2145.25,967.52 2147.16,956.905 2149.06,945.374 2150.97,933.115 2152.87,919.817 2154.77,905.632 2156.68,891.007 2158.58,875.448 2160.49,859.025 2162.39,842.282 2164.29,824.808 2166.2,806.737 2168.1,788.268 2170.01,769.433 2171.91,749.753 2173.82,730 2175.72,709.906 2177.62,689.608 2179.53,669.019 2181.43,648.071 2183.34,627.033 2185.24,606.542 2187.15,585.526 2189.05,564.754 2190.95,543.81 2192.86,523.448 2194.76,502.991 2196.67,482.936 2198.57,462.587 2200.48,443.359 2202.38,424.204 2204.28,405.716 2206.19,387.324 2208.09,369.488 2210,352.471 2211.9,336.072 2213.8,320.09 2215.71,305.199 2217.61,290.72 2219.52,276.843 2221.42,263.861 2223.33,251.889 2225.23,240.493 2227.13,230.277 2229.04,220.94 2230.94,212.299 2232.85,204.789 2234.75,198.212 2236.66,192.465 2238.56,187.632 2240.46,184.393 2242.37,181.496 2244.27,179.982 2246.18,179.348 2248.08,179.704 2249.98,181.293 2251.89,183.642 2253.79,187.252 2255.7,191.824 2257.6,197.402 2259.51,204.052 2261.41,211.624 2263.31,220.011 2265.22,229.723 2267.12,240.042 2269.03,252.136 2270.93,264.524 2272.84,277.91 2274.74,292.109 2276.64,306.863 2278.55,322.576 2280.45,339.338 2282.36,356.451 2284.26,374.314 2286.17,393.103 2288.07,412.251 2289.97,431.896 2291.88,451.912 2293.78,472.17 2295.69,492.998 "></polyline>
<path clip-path="url(#clip270)" d="M1855.91 236.113 L2285.54 236.113 L2285.54 80.5926 L1855.91 80.5926  Z" fill="#ffffff" fill-rule="evenodd" fill-opacity="1"></path>
<polyline clip-path="url(#clip270)" style="stroke:#000000; stroke-linecap:round; stroke-linejoin:round; stroke-width:4; stroke-opacity:1; fill:none" points="1855.91,236.113 2285.54,236.113 2285.54,80.5926 1855.91,80.5926 1855.91,236.113 "></polyline>
<polyline clip-path="url(#clip270)" style="stroke:#009af9; stroke-linecap:round; stroke-linejoin:round; stroke-width:8; stroke-opacity:1; fill:none" points="1878.31,132.433 2012.75,132.433 "></polyline>
<path clip-path="url(#clip270)" d="M2050.98 119.759 L2044.64 136.958 L2057.35 136.958 L2050.98 119.759 M2048.34 115.153 L2053.65 115.153 L2066.82 149.713 L2061.96 149.713 L2058.81 140.847 L2043.23 140.847 L2040.08 149.713 L2035.15 149.713 L2048.34 115.153 Z" fill="#000000" fill-rule="nonzero" fill-opacity="1"></path><path clip-path="url(#clip270)" d="M2093.23 134.065 L2093.23 149.713 L2088.97 149.713 L2088.97 134.203 Q2088.97 130.523 2087.53 128.694 Q2086.1 126.866 2083.23 126.866 Q2079.78 126.866 2077.79 129.065 Q2075.8 131.264 2075.8 135.06 L2075.8 149.713 L2071.52 149.713 L2071.52 123.787 L2075.8 123.787 L2075.8 127.815 Q2077.33 125.477 2079.39 124.319 Q2081.47 123.162 2084.18 123.162 Q2088.65 123.162 2090.94 125.94 Q2093.23 128.694 2093.23 134.065 Z" fill="#000000" fill-rule="nonzero" fill-opacity="1"></path><path clip-path="url(#clip270)" d="M2113.51 136.68 Q2108.34 136.68 2106.35 137.861 Q2104.36 139.041 2104.36 141.889 Q2104.36 144.157 2105.84 145.5 Q2107.35 146.819 2109.92 146.819 Q2113.46 146.819 2115.59 144.319 Q2117.74 141.796 2117.74 137.629 L2117.74 136.68 L2113.51 136.68 M2122 134.921 L2122 149.713 L2117.74 149.713 L2117.74 145.777 Q2116.28 148.139 2114.11 149.273 Q2111.93 150.384 2108.78 150.384 Q2104.8 150.384 2102.44 148.162 Q2100.1 145.916 2100.1 142.166 Q2100.1 137.791 2103.02 135.569 Q2105.96 133.347 2111.77 133.347 L2117.74 133.347 L2117.74 132.93 Q2117.74 129.991 2115.8 128.393 Q2113.88 126.773 2110.38 126.773 Q2108.16 126.773 2106.05 127.305 Q2103.95 127.838 2102 128.903 L2102 124.967 Q2104.34 124.065 2106.54 123.625 Q2108.74 123.162 2110.82 123.162 Q2116.45 123.162 2119.22 126.078 Q2122 128.995 2122 134.921 Z" fill="#000000" fill-rule="nonzero" fill-opacity="1"></path><path clip-path="url(#clip270)" d="M2130.78 113.694 L2135.03 113.694 L2135.03 149.713 L2130.78 149.713 L2130.78 113.694 Z" fill="#000000" fill-rule="nonzero" fill-opacity="1"></path><path clip-path="url(#clip270)" d="M2154.73 152.12 Q2152.93 156.75 2151.21 158.162 Q2149.5 159.574 2146.63 159.574 L2143.23 159.574 L2143.23 156.009 L2145.73 156.009 Q2147.49 156.009 2148.46 155.176 Q2149.43 154.342 2150.61 151.24 L2151.38 149.296 L2140.89 123.787 L2145.4 123.787 L2153.51 144.065 L2161.61 123.787 L2166.12 123.787 L2154.73 152.12 Z" fill="#000000" fill-rule="nonzero" fill-opacity="1"></path><path clip-path="url(#clip270)" d="M2176.21 116.426 L2176.21 123.787 L2184.99 123.787 L2184.99 127.097 L2176.21 127.097 L2176.21 141.171 Q2176.21 144.342 2177.07 145.245 Q2177.95 146.148 2180.61 146.148 L2184.99 146.148 L2184.99 149.713 L2180.61 149.713 Q2175.68 149.713 2173.81 147.884 Q2171.93 146.032 2171.93 141.171 L2171.93 127.097 L2168.81 127.097 L2168.81 123.787 L2171.93 123.787 L2171.93 116.426 L2176.21 116.426 Z" fill="#000000" fill-rule="nonzero" fill-opacity="1"></path><path clip-path="url(#clip270)" d="M2190.59 123.787 L2194.85 123.787 L2194.85 149.713 L2190.59 149.713 L2190.59 123.787 M2190.59 113.694 L2194.85 113.694 L2194.85 119.088 L2190.59 119.088 L2190.59 113.694 Z" fill="#000000" fill-rule="nonzero" fill-opacity="1"></path><path clip-path="url(#clip270)" d="M2222.42 124.782 L2222.42 128.764 Q2220.61 127.768 2218.78 127.282 Q2216.98 126.773 2215.13 126.773 Q2210.98 126.773 2208.69 129.412 Q2206.4 132.028 2206.4 136.773 Q2206.4 141.518 2208.69 144.157 Q2210.98 146.773 2215.13 146.773 Q2216.98 146.773 2218.78 146.287 Q2220.61 145.777 2222.42 144.782 L2222.42 148.717 Q2220.64 149.551 2218.71 149.967 Q2216.82 150.384 2214.66 150.384 Q2208.81 150.384 2205.36 146.703 Q2201.91 143.023 2201.91 136.773 Q2201.91 130.43 2205.38 126.796 Q2208.88 123.162 2214.94 123.162 Q2216.91 123.162 2218.78 123.579 Q2220.66 123.972 2222.42 124.782 Z" fill="#000000" fill-rule="nonzero" fill-opacity="1"></path><path clip-path="url(#clip270)" d="M2241.61 136.68 Q2236.45 136.68 2234.46 137.861 Q2232.46 139.041 2232.46 141.889 Q2232.46 144.157 2233.95 145.5 Q2235.45 146.819 2238.02 146.819 Q2241.56 146.819 2243.69 144.319 Q2245.84 141.796 2245.84 137.629 L2245.84 136.68 L2241.61 136.68 M2250.1 134.921 L2250.1 149.713 L2245.84 149.713 L2245.84 145.777 Q2244.39 148.139 2242.21 149.273 Q2240.03 150.384 2236.89 150.384 Q2232.9 150.384 2230.54 148.162 Q2228.21 145.916 2228.21 142.166 Q2228.21 137.791 2231.12 135.569 Q2234.06 133.347 2239.87 133.347 L2245.84 133.347 L2245.84 132.93 Q2245.84 129.991 2243.9 128.393 Q2241.98 126.773 2238.48 126.773 Q2236.26 126.773 2234.15 127.305 Q2232.05 127.838 2230.1 128.903 L2230.1 124.967 Q2232.44 124.065 2234.64 123.625 Q2236.84 123.162 2238.92 123.162 Q2244.55 123.162 2247.33 126.078 Q2250.1 128.995 2250.1 134.921 Z" fill="#000000" fill-rule="nonzero" fill-opacity="1"></path><path clip-path="url(#clip270)" d="M2258.88 113.694 L2263.14 113.694 L2263.14 149.713 L2258.88 149.713 L2258.88 113.694 Z" fill="#000000" fill-rule="nonzero" fill-opacity="1"></path><polyline clip-path="url(#clip270)" style="stroke:#e26f46; stroke-linecap:round; stroke-linejoin:round; stroke-width:4; stroke-opacity:1; fill:none" stroke-dasharray="16, 8, 2, 8" points="1878.31,184.273 2012.75,184.273 "></polyline>
<path clip-path="url(#clip270)" d="M2035.15 166.993 L2057 166.993 L2057 170.928 L2039.83 170.928 L2039.83 181.159 L2056.28 181.159 L2056.28 185.094 L2039.83 185.094 L2039.83 197.617 L2057.42 197.617 L2057.42 201.553 L2035.15 201.553 L2035.15 166.993 Z" fill="#000000" fill-rule="nonzero" fill-opacity="1"></path><path clip-path="url(#clip270)" d="M2065.1 166.993 L2069.78 166.993 L2069.78 197.617 L2086.61 197.617 L2086.61 201.553 L2065.1 201.553 L2065.1 166.993 Z" fill="#000000" fill-rule="nonzero" fill-opacity="1"></path><path clip-path="url(#clip270)" d="M2091.52 166.993 L2098.48 166.993 L2107.3 190.511 L2116.17 166.993 L2123.14 166.993 L2123.14 201.553 L2118.58 201.553 L2118.58 171.206 L2109.66 194.909 L2104.97 194.909 L2096.05 171.206 L2096.05 201.553 L2091.52 201.553 L2091.52 166.993 Z" fill="#000000" fill-rule="nonzero" fill-opacity="1"></path></svg>