<?xml version="1.0" encoding="utf-8"?>
<svg xmlns="http://www.w3.org/2000/svg" xmlns:xlink="http://www.w3.org/1999/xlink" width="600" height="300" viewBox="0 0 2400 1200">
<defs>
  <clipPath id="clip950">
    <rect x="0" y="0" width="2400" height="1200"/>
  </clipPath>
</defs>
<path clip-path="url(#clip950)" d="M0 1200 L2400 1200 L2400 0 L0 0  Z" fill="#ffffff" fill-rule="evenodd" fill-opacity="1"/>
<defs>
  <clipPath id="clip951">
    <rect x="275" y="47" width="2078" height="1001"/>
  </clipPath>
</defs>
<path clip-path="url(#clip950)" d="M275.486 1047.7 L2352.76 1047.7 L2352.76 47.2441 L275.486 47.2441  Z" fill="#ffffff" fill-rule="evenodd" fill-opacity="1"/>
<polyline clip-path="url(#clip951)" style="stroke:#000000; stroke-linecap:round; stroke-linejoin:round; stroke-width:2; stroke-opacity:0.1; fill:none" points="334.277,1047.7 334.277,47.2441 "/>
<polyline clip-path="url(#clip951)" style="stroke:#000000; stroke-linecap:round; stroke-linejoin:round; stroke-width:2; stroke-opacity:0.1; fill:none" points="824.199,1047.7 824.199,47.2441 "/>
<polyline clip-path="url(#clip951)" style="stroke:#000000; stroke-linecap:round; stroke-linejoin:round; stroke-width:2; stroke-opacity:0.1; fill:none" points="1314.12,1047.7 1314.12,47.2441 "/>
<polyline clip-path="url(#clip951)" style="stroke:#000000; stroke-linecap:round; stroke-linejoin:round; stroke-width:2; stroke-opacity:0.1; fill:none" points="1804.04,1047.7 1804.04,47.2441 "/>
<polyline clip-path="url(#clip951)" style="stroke:#000000; stroke-linecap:round; stroke-linejoin:round; stroke-width:2; stroke-opacity:0.1; fill:none" points="2293.97,1047.7 2293.97,47.2441 "/>
<polyline clip-path="url(#clip951)" style="stroke:#000000; stroke-linecap:round; stroke-linejoin:round; stroke-width:2; stroke-opacity:0.1; fill:none" points="275.486,942.899 2352.76,942.899 "/>
<polyline clip-path="url(#clip951)" style="stroke:#000000; stroke-linecap:round; stroke-linejoin:round; stroke-width:2; stroke-opacity:0.1; fill:none" points="275.486,727.597 2352.76,727.597 "/>
<polyline clip-path="url(#clip951)" style="stroke:#000000; stroke-linecap:round; stroke-linejoin:round; stroke-width:2; stroke-opacity:0.1; fill:none" points="275.486,512.295 2352.76,512.295 "/>
<polyline clip-path="url(#clip951)" style="stroke:#000000; stroke-linecap:round; stroke-linejoin:round; stroke-width:2; stroke-opacity:0.1; fill:none" points="275.486,296.992 2352.76,296.992 "/>
<polyline clip-path="url(#clip951)" style="stroke:#000000; stroke-linecap:round; stroke-linejoin:round; stroke-width:2; stroke-opacity:0.1; fill:none" points="275.486,81.6902 2352.76,81.6902 "/>
<polyline clip-path="url(#clip950)" style="stroke:#000000; stroke-linecap:round; stroke-linejoin:round; stroke-width:4; stroke-opacity:1; fill:none" points="275.486,1047.7 2352.76,1047.7 "/>
<polyline clip-path="url(#clip950)" style="stroke:#000000; stroke-linecap:round; stroke-linejoin:round; stroke-width:4; stroke-opacity:1; fill:none" points="334.277,1047.7 334.277,1028.8 "/>
<polyline clip-path="url(#clip950)" style="stroke:#000000; stroke-linecap:round; stroke-linejoin:round; stroke-width:4; stroke-opacity:1; fill:none" points="824.199,1047.7 824.199,1028.8 "/>
<polyline clip-path="url(#clip950)" style="stroke:#000000; stroke-linecap:round; stroke-linejoin:round; stroke-width:4; stroke-opacity:1; fill:none" points="1314.12,1047.7 1314.12,1028.8 "/>
<polyline clip-path="url(#clip950)" style="stroke:#000000; stroke-linecap:round; stroke-linejoin:round; stroke-width:4; stroke-opacity:1; fill:none" points="1804.04,1047.7 1804.04,1028.8 "/>
<polyline clip-path="url(#clip950)" style="stroke:#000000; stroke-linecap:round; stroke-linejoin:round; stroke-width:4; stroke-opacity:1; fill:none" points="2293.97,1047.7 2293.97,1028.8 "/>
<path clip-path="url(#clip950)" d="M296.58 1078.62 Q292.969 1078.62 291.14 1082.18 Q289.335 1085.72 289.335 1092.85 Q289.335 1099.96 291.14 1103.53 Q292.969 1107.07 296.58 1107.07 Q300.214 1107.07 302.02 1103.53 Q303.848 1099.96 303.848 1092.85 Q303.848 1085.72 302.02 1082.18 Q300.214 1078.62 296.58 1078.62 M296.58 1074.91 Q302.39 1074.91 305.446 1079.52 Q308.524 1084.1 308.524 1092.85 Q308.524 1101.58 305.446 1106.19 Q302.39 1110.77 296.58 1110.77 Q290.77 1110.77 287.691 1106.19 Q284.636 1101.58 284.636 1092.85 Q284.636 1084.1 287.691 1079.52 Q290.77 1074.91 296.58 1074.91 Z" fill="#000000" fill-rule="nonzero" fill-opacity="1" /><path clip-path="url(#clip950)" d="M316.742 1104.22 L321.626 1104.22 L321.626 1110.1 L316.742 1110.1 L316.742 1104.22 Z" fill="#000000" fill-rule="nonzero" fill-opacity="1" /><path clip-path="url(#clip950)" d="M341.811 1078.62 Q338.2 1078.62 336.371 1082.18 Q334.566 1085.72 334.566 1092.85 Q334.566 1099.96 336.371 1103.53 Q338.2 1107.07 341.811 1107.07 Q345.445 1107.07 347.251 1103.53 Q349.08 1099.96 349.08 1092.85 Q349.08 1085.72 347.251 1082.18 Q345.445 1078.62 341.811 1078.62 M341.811 1074.91 Q347.621 1074.91 350.677 1079.52 Q353.756 1084.1 353.756 1092.85 Q353.756 1101.58 350.677 1106.19 Q347.621 1110.77 341.811 1110.77 Q336.001 1110.77 332.922 1106.19 Q329.867 1101.58 329.867 1092.85 Q329.867 1084.1 332.922 1079.52 Q336.001 1074.91 341.811 1074.91 Z" fill="#000000" fill-rule="nonzero" fill-opacity="1" /><path clip-path="url(#clip950)" d="M371.973 1078.62 Q368.362 1078.62 366.533 1082.18 Q364.728 1085.72 364.728 1092.85 Q364.728 1099.96 366.533 1103.53 Q368.362 1107.07 371.973 1107.07 Q375.607 1107.07 377.413 1103.53 Q379.242 1099.96 379.242 1092.85 Q379.242 1085.72 377.413 1082.18 Q375.607 1078.62 371.973 1078.62 M371.973 1074.91 Q377.783 1074.91 380.839 1079.52 Q383.918 1084.1 383.918 1092.85 Q383.918 1101.58 380.839 1106.19 Q377.783 1110.77 371.973 1110.77 Q366.163 1110.77 363.084 1106.19 Q360.029 1101.58 360.029 1092.85 Q360.029 1084.1 363.084 1079.52 Q366.163 1074.91 371.973 1074.91 Z" fill="#000000" fill-rule="nonzero" fill-opacity="1" /><path clip-path="url(#clip950)" d="M787 1078.62 Q783.389 1078.62 781.56 1082.18 Q779.755 1085.72 779.755 1092.85 Q779.755 1099.96 781.56 1103.53 Q783.389 1107.07 787 1107.07 Q790.634 1107.07 792.44 1103.53 Q794.268 1099.96 794.268 1092.85 Q794.268 1085.72 792.44 1082.18 Q790.634 1078.62 787 1078.62 M787 1074.91 Q792.81 1074.91 795.866 1079.52 Q798.944 1084.1 798.944 1092.85 Q798.944 1101.58 795.866 1106.19 Q792.81 1110.77 787 1110.77 Q781.19 1110.77 778.111 1106.19 Q775.055 1101.58 775.055 1092.85 Q775.055 1084.1 778.111 1079.52 Q781.19 1074.91 787 1074.91 Z" fill="#000000" fill-rule="nonzero" fill-opacity="1" /><path clip-path="url(#clip950)" d="M807.162 1104.22 L812.046 1104.22 L812.046 1110.1 L807.162 1110.1 L807.162 1104.22 Z" fill="#000000" fill-rule="nonzero" fill-opacity="1" /><path clip-path="url(#clip950)" d="M826.259 1106.16 L842.578 1106.16 L842.578 1110.1 L820.634 1110.1 L820.634 1106.16 Q823.296 1103.41 827.879 1098.78 Q832.486 1094.13 833.666 1092.79 Q835.912 1090.26 836.791 1088.53 Q837.694 1086.77 837.694 1085.08 Q837.694 1082.32 835.75 1080.59 Q833.828 1078.85 830.726 1078.85 Q828.527 1078.85 826.074 1079.61 Q823.643 1080.38 820.865 1081.93 L820.865 1077.21 Q823.689 1076.07 826.143 1075.49 Q828.597 1074.91 830.634 1074.91 Q836.004 1074.91 839.199 1077.6 Q842.393 1080.29 842.393 1084.78 Q842.393 1086.91 841.583 1088.83 Q840.796 1090.72 838.689 1093.32 Q838.111 1093.99 835.009 1097.21 Q831.907 1100.4 826.259 1106.16 Z" fill="#000000" fill-rule="nonzero" fill-opacity="1" /><path clip-path="url(#clip950)" d="M852.439 1075.54 L870.796 1075.54 L870.796 1079.48 L856.722 1079.48 L856.722 1087.95 Q857.74 1087.6 858.759 1087.44 Q859.777 1087.25 860.796 1087.25 Q866.583 1087.25 869.962 1090.42 Q873.342 1093.6 873.342 1099.01 Q873.342 1104.59 869.87 1107.69 Q866.398 1110.77 860.078 1110.77 Q857.902 1110.77 855.634 1110.4 Q853.388 1110.03 850.981 1109.29 L850.981 1104.59 Q853.064 1105.72 855.287 1106.28 Q857.509 1106.84 859.986 1106.84 Q863.99 1106.84 866.328 1104.73 Q868.666 1102.62 868.666 1099.01 Q868.666 1095.4 866.328 1093.29 Q863.99 1091.19 859.986 1091.19 Q858.111 1091.19 856.236 1091.6 Q854.384 1092.02 852.439 1092.9 L852.439 1075.54 Z" fill="#000000" fill-rule="nonzero" fill-opacity="1" /><path clip-path="url(#clip950)" d="M1276.42 1078.62 Q1272.81 1078.62 1270.98 1082.18 Q1269.18 1085.72 1269.18 1092.85 Q1269.18 1099.96 1270.98 1103.53 Q1272.81 1107.07 1276.42 1107.07 Q1280.06 1107.07 1281.86 1103.53 Q1283.69 1099.96 1283.69 1092.85 Q1283.69 1085.72 1281.86 1082.18 Q1280.06 1078.62 1276.42 1078.62 M1276.42 1074.91 Q1282.23 1074.91 1285.29 1079.52 Q1288.37 1084.1 1288.37 1092.85 Q1288.37 1101.58 1285.29 1106.19 Q1282.23 1110.77 1276.42 1110.77 Q1270.61 1110.77 1267.54 1106.19 Q1264.48 1101.58 1264.48 1092.85 Q1264.48 1084.1 1267.54 1079.52 Q1270.61 1074.91 1276.42 1074.91 Z" fill="#000000" fill-rule="nonzero" fill-opacity="1" /><path clip-path="url(#clip950)" d="M1296.59 1104.22 L1301.47 1104.22 L1301.47 1110.1 L1296.59 1110.1 L1296.59 1104.22 Z" fill="#000000" fill-rule="nonzero" fill-opacity="1" /><path clip-path="url(#clip950)" d="M1311.7 1075.54 L1330.06 1075.54 L1330.06 1079.48 L1315.98 1079.48 L1315.98 1087.95 Q1317 1087.6 1318.02 1087.44 Q1319.04 1087.25 1320.06 1087.25 Q1325.85 1087.25 1329.22 1090.42 Q1332.6 1093.6 1332.6 1099.01 Q1332.6 1104.59 1329.13 1107.69 Q1325.66 1110.77 1319.34 1110.77 Q1317.16 1110.77 1314.9 1110.4 Q1312.65 1110.03 1310.24 1109.29 L1310.24 1104.59 Q1312.33 1105.72 1314.55 1106.28 Q1316.77 1106.84 1319.25 1106.84 Q1323.25 1106.84 1325.59 1104.73 Q1327.93 1102.62 1327.93 1099.01 Q1327.93 1095.4 1325.59 1093.29 Q1323.25 1091.19 1319.25 1091.19 Q1317.37 1091.19 1315.5 1091.6 Q1313.65 1092.02 1311.7 1092.9 L1311.7 1075.54 Z" fill="#000000" fill-rule="nonzero" fill-opacity="1" /><path clip-path="url(#clip950)" d="M1351.82 1078.62 Q1348.21 1078.62 1346.38 1082.18 Q1344.57 1085.72 1344.57 1092.85 Q1344.57 1099.96 1346.38 1103.53 Q1348.21 1107.07 1351.82 1107.07 Q1355.45 1107.07 1357.26 1103.53 Q1359.09 1099.96 1359.09 1092.85 Q1359.09 1085.72 1357.26 1082.18 Q1355.45 1078.62 1351.82 1078.62 M1351.82 1074.91 Q1357.63 1074.91 1360.68 1079.52 Q1363.76 1084.1 1363.76 1092.85 Q1363.76 1101.58 1360.68 1106.19 Q1357.63 1110.77 1351.82 1110.77 Q1346.01 1110.77 1342.93 1106.19 Q1339.87 1101.58 1339.87 1092.85 Q1339.87 1084.1 1342.93 1079.52 Q1346.01 1074.91 1351.82 1074.91 Z" fill="#000000" fill-rule="nonzero" fill-opacity="1" /><path clip-path="url(#clip950)" d="M1766.84 1078.62 Q1763.23 1078.62 1761.4 1082.18 Q1759.6 1085.72 1759.6 1092.85 Q1759.6 1099.96 1761.4 1103.53 Q1763.23 1107.07 1766.84 1107.07 Q1770.48 1107.07 1772.28 1103.53 Q1774.11 1099.96 1774.11 1092.85 Q1774.11 1085.72 1772.28 1082.18 Q1770.48 1078.62 1766.84 1078.62 M1766.84 1074.91 Q1772.65 1074.91 1775.71 1079.52 Q1778.79 1084.1 1778.79 1092.85 Q1778.79 1101.58 1775.71 1106.19 Q1772.65 1110.77 1766.84 1110.77 Q1761.03 1110.77 1757.96 1106.19 Q1754.9 1101.58 1754.9 1092.85 Q1754.9 1084.1 1757.96 1079.52 Q1761.03 1074.91 1766.84 1074.91 Z" fill="#000000" fill-rule="nonzero" fill-opacity="1" /><path clip-path="url(#clip950)" d="M1787.01 1104.22 L1791.89 1104.22 L1791.89 1110.1 L1787.01 1110.1 L1787.01 1104.22 Z" fill="#000000" fill-rule="nonzero" fill-opacity="1" /><path clip-path="url(#clip950)" d="M1800.89 1075.54 L1823.12 1075.54 L1823.12 1077.53 L1810.57 1110.1 L1805.69 1110.1 L1817.49 1079.48 L1800.89 1079.48 L1800.89 1075.54 Z" fill="#000000" fill-rule="nonzero" fill-opacity="1" /><path clip-path="url(#clip950)" d="M1832.28 1075.54 L1850.64 1075.54 L1850.64 1079.48 L1836.57 1079.48 L1836.57 1087.95 Q1837.58 1087.6 1838.6 1087.44 Q1839.62 1087.25 1840.64 1087.25 Q1846.43 1087.25 1849.81 1090.42 Q1853.19 1093.6 1853.19 1099.01 Q1853.19 1104.59 1849.71 1107.69 Q1846.24 1110.77 1839.92 1110.77 Q1837.75 1110.77 1835.48 1110.4 Q1833.23 1110.03 1830.83 1109.29 L1830.83 1104.59 Q1832.91 1105.72 1835.13 1106.28 Q1837.35 1106.84 1839.83 1106.84 Q1843.83 1106.84 1846.17 1104.73 Q1848.51 1102.62 1848.51 1099.01 Q1848.51 1095.4 1846.17 1093.29 Q1843.83 1091.19 1839.83 1091.19 Q1837.95 1091.19 1836.08 1091.6 Q1834.23 1092.02 1832.28 1092.9 L1832.28 1075.54 Z" fill="#000000" fill-rule="nonzero" fill-opacity="1" /><path clip-path="url(#clip950)" d="M2246.04 1106.16 L2253.68 1106.16 L2253.68 1079.8 L2245.37 1081.47 L2245.37 1077.21 L2253.63 1075.54 L2258.31 1075.54 L2258.31 1106.16 L2265.94 1106.16 L2265.94 1110.1 L2246.04 1110.1 L2246.04 1106.16 Z" fill="#000000" fill-rule="nonzero" fill-opacity="1" /><path clip-path="url(#clip950)" d="M2275.39 1104.22 L2280.27 1104.22 L2280.27 1110.1 L2275.39 1110.1 L2275.39 1104.22 Z" fill="#000000" fill-rule="nonzero" fill-opacity="1" /><path clip-path="url(#clip950)" d="M2300.46 1078.62 Q2296.85 1078.62 2295.02 1082.18 Q2293.21 1085.72 2293.21 1092.85 Q2293.21 1099.96 2295.02 1103.53 Q2296.85 1107.07 2300.46 1107.07 Q2304.09 1107.07 2305.9 1103.53 Q2307.73 1099.96 2307.73 1092.85 Q2307.73 1085.72 2305.9 1082.18 Q2304.09 1078.62 2300.46 1078.62 M2300.46 1074.91 Q2306.27 1074.91 2309.32 1079.52 Q2312.4 1084.1 2312.4 1092.85 Q2312.4 1101.58 2309.32 1106.19 Q2306.27 1110.77 2300.46 1110.77 Q2294.65 1110.77 2291.57 1106.19 Q2288.51 1101.58 2288.51 1092.85 Q2288.51 1084.1 2291.57 1079.52 Q2294.65 1074.91 2300.46 1074.91 Z" fill="#000000" fill-rule="nonzero" fill-opacity="1" /><path clip-path="url(#clip950)" d="M2330.62 1078.62 Q2327.01 1078.62 2325.18 1082.18 Q2323.37 1085.72 2323.37 1092.85 Q2323.37 1099.96 2325.18 1103.53 Q2327.01 1107.07 2330.62 1107.07 Q2334.25 1107.07 2336.06 1103.53 Q2337.89 1099.96 2337.89 1092.85 Q2337.89 1085.72 2336.06 1082.18 Q2334.25 1078.62 2330.62 1078.62 M2330.62 1074.91 Q2336.43 1074.91 2339.49 1079.52 Q2342.56 1084.1 2342.56 1092.85 Q2342.56 1101.58 2339.49 1106.19 Q2336.43 1110.77 2330.62 1110.77 Q2324.81 1110.77 2321.73 1106.19 Q2318.68 1101.58 2318.68 1092.85 Q2318.68 1084.1 2321.73 1079.52 Q2324.81 1074.91 2330.62 1074.91 Z" fill="#000000" fill-rule="nonzero" fill-opacity="1" /><path clip-path="url(#clip950)" d="M1330.74 1156.92 L1317.84 1174.26 L1331.4 1192.56 L1324.5 1192.56 L1314.12 1178.56 L1303.74 1192.56 L1296.84 1192.56 L1310.68 1173.91 L1298.02 1156.92 L1304.92 1156.92 L1314.38 1169.62 L1323.83 1156.92 L1330.74 1156.92 Z" fill="#000000" fill-rule="nonzero" fill-opacity="1" /><polyline clip-path="url(#clip950)" style="stroke:#000000; stroke-linecap:round; stroke-linejoin:round; stroke-width:4; stroke-opacity:1; fill:none" points="275.486,1047.7 275.486,47.2441 "/>
<polyline clip-path="url(#clip950)" style="stroke:#000000; stroke-linecap:round; stroke-linejoin:round; stroke-width:4; stroke-opacity:1; fill:none" points="275.486,942.899 294.384,942.899 "/>
<polyline clip-path="url(#clip950)" style="stroke:#000000; stroke-linecap:round; stroke-linejoin:round; stroke-width:4; stroke-opacity:1; fill:none" points="275.486,727.597 294.384,727.597 "/>
<polyline clip-path="url(#clip950)" style="stroke:#000000; stroke-linecap:round; stroke-linejoin:round; stroke-width:4; stroke-opacity:1; fill:none" points="275.486,512.295 294.384,512.295 "/>
<polyline clip-path="url(#clip950)" style="stroke:#000000; stroke-linecap:round; stroke-linejoin:round; stroke-width:4; stroke-opacity:1; fill:none" points="275.486,296.992 294.384,296.992 "/>
<polyline clip-path="url(#clip950)" style="stroke:#000000; stroke-linecap:round; stroke-linejoin:round; stroke-width:4; stroke-opacity:1; fill:none" points="275.486,81.6902 294.384,81.6902 "/>
<path clip-path="url(#clip950)" d="M102.38 943.351 L132.056 943.351 L132.056 947.286 L102.38 947.286 L102.38 943.351 Z" fill="#000000" fill-rule="nonzero" fill-opacity="1" /><path clip-path="url(#clip950)" d="M142.959 956.244 L150.597 956.244 L150.597 929.878 L142.287 931.545 L142.287 927.286 L150.551 925.619 L155.227 925.619 L155.227 956.244 L162.866 956.244 L162.866 960.179 L142.959 960.179 L142.959 956.244 Z" fill="#000000" fill-rule="nonzero" fill-opacity="1" /><path clip-path="url(#clip950)" d="M172.31 954.3 L177.195 954.3 L177.195 960.179 L172.31 960.179 L172.31 954.3 Z" fill="#000000" fill-rule="nonzero" fill-opacity="1" /><path clip-path="url(#clip950)" d="M197.38 928.698 Q193.769 928.698 191.94 932.263 Q190.134 935.804 190.134 942.934 Q190.134 950.04 191.94 953.605 Q193.769 957.147 197.38 957.147 Q201.014 957.147 202.819 953.605 Q204.648 950.04 204.648 942.934 Q204.648 935.804 202.819 932.263 Q201.014 928.698 197.38 928.698 M197.38 924.994 Q203.19 924.994 206.245 929.601 Q209.324 934.184 209.324 942.934 Q209.324 951.661 206.245 956.267 Q203.19 960.851 197.38 960.851 Q191.569 960.851 188.491 956.267 Q185.435 951.661 185.435 942.934 Q185.435 934.184 188.491 929.601 Q191.569 924.994 197.38 924.994 Z" fill="#000000" fill-rule="nonzero" fill-opacity="1" /><path clip-path="url(#clip950)" d="M227.542 928.698 Q223.93 928.698 222.102 932.263 Q220.296 935.804 220.296 942.934 Q220.296 950.04 222.102 953.605 Q223.93 957.147 227.542 957.147 Q231.176 957.147 232.981 953.605 Q234.81 950.04 234.81 942.934 Q234.81 935.804 232.981 932.263 Q231.176 928.698 227.542 928.698 M227.542 924.994 Q233.352 924.994 236.407 929.601 Q239.486 934.184 239.486 942.934 Q239.486 951.661 236.407 956.267 Q233.352 960.851 227.542 960.851 Q221.731 960.851 218.653 956.267 Q215.597 951.661 215.597 942.934 Q215.597 934.184 218.653 929.601 Q221.731 924.994 227.542 924.994 Z" fill="#000000" fill-rule="nonzero" fill-opacity="1" /><path clip-path="url(#clip950)" d="M103.376 728.048 L133.051 728.048 L133.051 731.984 L103.376 731.984 L103.376 728.048 Z" fill="#000000" fill-rule="nonzero" fill-opacity="1" /><path clip-path="url(#clip950)" d="M153.144 713.396 Q149.533 713.396 147.704 716.96 Q145.898 720.502 145.898 727.632 Q145.898 734.738 147.704 738.303 Q149.533 741.845 153.144 741.845 Q156.778 741.845 158.584 738.303 Q160.412 734.738 160.412 727.632 Q160.412 720.502 158.584 716.96 Q156.778 713.396 153.144 713.396 M153.144 709.692 Q158.954 709.692 162.009 714.298 Q165.088 718.882 165.088 727.632 Q165.088 736.359 162.009 740.965 Q158.954 745.548 153.144 745.548 Q147.334 745.548 144.255 740.965 Q141.199 736.359 141.199 727.632 Q141.199 718.882 144.255 714.298 Q147.334 709.692 153.144 709.692 Z" fill="#000000" fill-rule="nonzero" fill-opacity="1" /><path clip-path="url(#clip950)" d="M173.306 738.997 L178.19 738.997 L178.19 744.877 L173.306 744.877 L173.306 738.997 Z" fill="#000000" fill-rule="nonzero" fill-opacity="1" /><path clip-path="url(#clip950)" d="M187.195 710.317 L209.417 710.317 L209.417 712.308 L196.87 744.877 L191.986 744.877 L203.792 714.252 L187.195 714.252 L187.195 710.317 Z" fill="#000000" fill-rule="nonzero" fill-opacity="1" /><path clip-path="url(#clip950)" d="M218.583 710.317 L236.94 710.317 L236.94 714.252 L222.866 714.252 L222.866 722.724 Q223.884 722.377 224.903 722.215 Q225.921 722.03 226.94 722.03 Q232.727 722.03 236.106 725.201 Q239.486 728.372 239.486 733.789 Q239.486 739.368 236.014 742.47 Q232.541 745.548 226.222 745.548 Q224.046 745.548 221.778 745.178 Q219.532 744.808 217.125 744.067 L217.125 739.368 Q219.208 740.502 221.43 741.058 Q223.653 741.613 226.129 741.613 Q230.134 741.613 232.472 739.507 Q234.81 737.4 234.81 733.789 Q234.81 730.178 232.472 728.072 Q230.134 725.965 226.129 725.965 Q224.255 725.965 222.38 726.382 Q220.528 726.798 218.583 727.678 L218.583 710.317 Z" fill="#000000" fill-rule="nonzero" fill-opacity="1" /><path clip-path="url(#clip950)" d="M102.38 512.746 L132.056 512.746 L132.056 516.681 L102.38 516.681 L102.38 512.746 Z" fill="#000000" fill-rule="nonzero" fill-opacity="1" /><path clip-path="url(#clip950)" d="M152.148 498.093 Q148.537 498.093 146.709 501.658 Q144.903 505.2 144.903 512.329 Q144.903 519.436 146.709 523.001 Q148.537 526.542 152.148 526.542 Q155.783 526.542 157.588 523.001 Q159.417 519.436 159.417 512.329 Q159.417 505.2 157.588 501.658 Q155.783 498.093 152.148 498.093 M152.148 494.39 Q157.959 494.39 161.014 498.996 Q164.093 503.58 164.093 512.329 Q164.093 521.056 161.014 525.663 Q157.959 530.246 152.148 530.246 Q146.338 530.246 143.26 525.663 Q140.204 521.056 140.204 512.329 Q140.204 503.58 143.26 498.996 Q146.338 494.39 152.148 494.39 Z" fill="#000000" fill-rule="nonzero" fill-opacity="1" /><path clip-path="url(#clip950)" d="M172.31 523.695 L177.195 523.695 L177.195 529.575 L172.31 529.575 L172.31 523.695 Z" fill="#000000" fill-rule="nonzero" fill-opacity="1" /><path clip-path="url(#clip950)" d="M187.426 495.015 L205.782 495.015 L205.782 498.95 L191.708 498.95 L191.708 507.422 Q192.727 507.075 193.745 506.913 Q194.764 506.728 195.782 506.728 Q201.569 506.728 204.949 509.899 Q208.329 513.07 208.329 518.487 Q208.329 524.066 204.856 527.167 Q201.384 530.246 195.065 530.246 Q192.889 530.246 190.62 529.876 Q188.375 529.505 185.968 528.765 L185.968 524.066 Q188.051 525.2 190.273 525.755 Q192.495 526.311 194.972 526.311 Q198.977 526.311 201.315 524.204 Q203.653 522.098 203.653 518.487 Q203.653 514.876 201.315 512.769 Q198.977 510.663 194.972 510.663 Q193.097 510.663 191.222 511.079 Q189.37 511.496 187.426 512.376 L187.426 495.015 Z" fill="#000000" fill-rule="nonzero" fill-opacity="1" /><path clip-path="url(#clip950)" d="M227.542 498.093 Q223.93 498.093 222.102 501.658 Q220.296 505.2 220.296 512.329 Q220.296 519.436 222.102 523.001 Q223.93 526.542 227.542 526.542 Q231.176 526.542 232.981 523.001 Q234.81 519.436 234.81 512.329 Q234.81 505.2 232.981 501.658 Q231.176 498.093 227.542 498.093 M227.542 494.39 Q233.352 494.39 236.407 498.996 Q239.486 503.58 239.486 512.329 Q239.486 521.056 236.407 525.663 Q233.352 530.246 227.542 530.246 Q221.731 530.246 218.653 525.663 Q215.597 521.056 215.597 512.329 Q215.597 503.58 218.653 498.996 Q221.731 494.39 227.542 494.39 Z" fill="#000000" fill-rule="nonzero" fill-opacity="1" /><path clip-path="url(#clip950)" d="M103.376 297.444 L133.051 297.444 L133.051 301.379 L103.376 301.379 L103.376 297.444 Z" fill="#000000" fill-rule="nonzero" fill-opacity="1" /><path clip-path="url(#clip950)" d="M153.144 282.791 Q149.533 282.791 147.704 286.356 Q145.898 289.898 145.898 297.027 Q145.898 304.134 147.704 307.698 Q149.533 311.24 153.144 311.24 Q156.778 311.24 158.584 307.698 Q160.412 304.134 160.412 297.027 Q160.412 289.898 158.584 286.356 Q156.778 282.791 153.144 282.791 M153.144 279.087 Q158.954 279.087 162.009 283.694 Q165.088 288.277 165.088 297.027 Q165.088 305.754 162.009 310.36 Q158.954 314.944 153.144 314.944 Q147.334 314.944 144.255 310.36 Q141.199 305.754 141.199 297.027 Q141.199 288.277 144.255 283.694 Q147.334 279.087 153.144 279.087 Z" fill="#000000" fill-rule="nonzero" fill-opacity="1" /><path clip-path="url(#clip950)" d="M173.306 308.393 L178.19 308.393 L178.19 314.272 L173.306 314.272 L173.306 308.393 Z" fill="#000000" fill-rule="nonzero" fill-opacity="1" /><path clip-path="url(#clip950)" d="M192.403 310.337 L208.722 310.337 L208.722 314.272 L186.778 314.272 L186.778 310.337 Q189.44 307.583 194.023 302.953 Q198.63 298.3 199.81 296.958 Q202.056 294.435 202.935 292.699 Q203.838 290.939 203.838 289.249 Q203.838 286.495 201.894 284.759 Q199.972 283.023 196.87 283.023 Q194.671 283.023 192.218 283.787 Q189.787 284.55 187.009 286.101 L187.009 281.379 Q189.833 280.245 192.287 279.666 Q194.741 279.087 196.778 279.087 Q202.148 279.087 205.343 281.773 Q208.537 284.458 208.537 288.949 Q208.537 291.078 207.727 292.999 Q206.94 294.898 204.833 297.49 Q204.255 298.161 201.153 301.379 Q198.051 304.573 192.403 310.337 Z" fill="#000000" fill-rule="nonzero" fill-opacity="1" /><path clip-path="url(#clip950)" d="M218.583 279.712 L236.94 279.712 L236.94 283.648 L222.866 283.648 L222.866 292.12 Q223.884 291.773 224.903 291.611 Q225.921 291.425 226.94 291.425 Q232.727 291.425 236.106 294.597 Q239.486 297.768 239.486 303.185 Q239.486 308.763 236.014 311.865 Q232.541 314.944 226.222 314.944 Q224.046 314.944 221.778 314.573 Q219.532 314.203 217.125 313.462 L217.125 308.763 Q219.208 309.898 221.43 310.453 Q223.653 311.009 226.129 311.009 Q230.134 311.009 232.472 308.902 Q234.81 306.796 234.81 303.185 Q234.81 299.573 232.472 297.467 Q230.134 295.361 226.129 295.361 Q224.255 295.361 222.38 295.777 Q220.528 296.194 218.583 297.074 L218.583 279.712 Z" fill="#000000" fill-rule="nonzero" fill-opacity="1" /><path clip-path="url(#clip950)" d="M152.148 67.4889 Q148.537 67.4889 146.709 71.0537 Q144.903 74.5954 144.903 81.725 Q144.903 88.8314 146.709 92.3962 Q148.537 95.9378 152.148 95.9378 Q155.783 95.9378 157.588 92.3962 Q159.417 88.8314 159.417 81.725 Q159.417 74.5954 157.588 71.0537 Q155.783 67.4889 152.148 67.4889 M152.148 63.7852 Q157.959 63.7852 161.014 68.3917 Q164.093 72.975 164.093 81.725 Q164.093 90.4518 161.014 95.0582 Q157.959 99.6415 152.148 99.6415 Q146.338 99.6415 143.26 95.0582 Q140.204 90.4518 140.204 81.725 Q140.204 72.975 143.26 68.3917 Q146.338 63.7852 152.148 63.7852 Z" fill="#000000" fill-rule="nonzero" fill-opacity="1" /><path clip-path="url(#clip950)" d="M172.31 93.0906 L177.195 93.0906 L177.195 98.9702 L172.31 98.9702 L172.31 93.0906 Z" fill="#000000" fill-rule="nonzero" fill-opacity="1" /><path clip-path="url(#clip950)" d="M197.38 67.4889 Q193.769 67.4889 191.94 71.0537 Q190.134 74.5954 190.134 81.725 Q190.134 88.8314 191.94 92.3962 Q193.769 95.9378 197.38 95.9378 Q201.014 95.9378 202.819 92.3962 Q204.648 88.8314 204.648 81.725 Q204.648 74.5954 202.819 71.0537 Q201.014 67.4889 197.38 67.4889 M197.38 63.7852 Q203.19 63.7852 206.245 68.3917 Q209.324 72.975 209.324 81.725 Q209.324 90.4518 206.245 95.0582 Q203.19 99.6415 197.38 99.6415 Q191.569 99.6415 188.491 95.0582 Q185.435 90.4518 185.435 81.725 Q185.435 72.975 188.491 68.3917 Q191.569 63.7852 197.38 63.7852 Z" fill="#000000" fill-rule="nonzero" fill-opacity="1" /><path clip-path="url(#clip950)" d="M227.542 67.4889 Q223.93 67.4889 222.102 71.0537 Q220.296 74.5954 220.296 81.725 Q220.296 88.8314 222.102 92.3962 Q223.93 95.9378 227.542 95.9378 Q231.176 95.9378 232.981 92.3962 Q234.81 88.8314 234.81 81.725 Q234.81 74.5954 232.981 71.0537 Q231.176 67.4889 227.542 67.4889 M227.542 63.7852 Q233.352 63.7852 236.407 68.3917 Q239.486 72.975 239.486 81.725 Q239.486 90.4518 236.407 95.0582 Q233.352 99.6415 227.542 99.6415 Q221.731 99.6415 218.653 95.0582 Q215.597 90.4518 215.597 81.725 Q215.597 72.975 218.653 68.3917 Q221.731 63.7852 227.542 63.7852 Z" fill="#000000" fill-rule="nonzero" fill-opacity="1" /><path clip-path="url(#clip950)" d="M38.0559 607.278 L16.4762 607.278 L16.4762 601.421 L37.8331 601.421 Q42.8939 601.421 45.4402 599.448 Q47.9546 597.475 47.9546 593.528 Q47.9546 588.785 44.9309 586.048 Q41.9072 583.279 36.6873 583.279 L16.4762 583.279 L16.4762 577.423 L52.1242 577.423 L52.1242 583.279 L46.6496 583.279 Q49.8962 585.412 51.4876 588.244 Q53.0472 591.045 53.0472 594.769 Q53.0472 600.912 49.2278 604.095 Q45.4083 607.278 38.0559 607.278 M15.6168 592.541 L15.6168 592.541 Z" fill="#000000" fill-rule="nonzero" fill-opacity="1" /><path clip-path="url(#clip950)" d="M2.66262 551.291 Q9.98318 555.556 17.1446 557.625 Q24.306 559.694 31.6584 559.694 Q39.0108 559.694 46.2359 557.625 Q53.4291 555.525 60.7179 551.291 L60.7179 556.384 Q53.2382 561.158 46.0131 563.545 Q38.788 565.901 31.6584 565.901 Q24.5606 565.901 17.3674 563.545 Q10.1742 561.19 2.66262 556.384 L2.66262 551.291 Z" fill="#000000" fill-rule="nonzero" fill-opacity="1" /><path clip-path="url(#clip950)" d="M16.4762 510.296 L33.8228 523.187 L52.1242 509.628 L52.1242 516.535 L38.1196 526.911 L52.1242 537.287 L52.1242 544.194 L33.4726 530.348 L16.4762 543.016 L16.4762 536.109 L29.1758 526.656 L16.4762 517.203 L16.4762 510.296 Z" fill="#000000" fill-rule="nonzero" fill-opacity="1" /><path clip-path="url(#clip950)" d="M2.66262 502.275 L2.66262 497.183 Q10.1742 492.409 17.3674 490.053 Q24.5606 487.666 31.6584 487.666 Q38.788 487.666 46.0131 490.053 Q53.2382 492.409 60.7179 497.183 L60.7179 502.275 Q53.4291 498.042 46.2359 495.973 Q39.0108 493.873 31.6584 493.873 Q24.306 493.873 17.1446 495.973 Q9.98318 498.042 2.66262 502.275 Z" fill="#000000" fill-rule="nonzero" fill-opacity="1" /><polyline clip-path="url(#clip951)" style="stroke:#808080; stroke-linecap:round; stroke-linejoin:round; stroke-width:8; stroke-opacity:1; fill:none" points="334.277,81.6902 336.238,87.1063 338.2,92.5197 340.162,97.9277 342.123,103.328 344.085,108.717 346.046,114.092 348.008,119.452 349.97,124.793 351.931,130.112 353.893,135.407 355.855,140.676 357.816,145.915 359.778,151.123 361.74,156.297 363.701,161.434 365.663,166.531 367.625,171.588 369.586,176.6 371.548,181.567 373.51,186.484 375.471,191.352 377.433,196.166 379.395,200.926 381.356,205.628 383.318,210.272 385.279,214.855 387.241,219.374 389.203,223.83 391.164,228.218 393.126,232.539 395.088,236.79 397.049,240.97 399.011,245.076 400.973,249.109 402.934,253.066 404.896,256.946 406.858,260.748 408.819,264.471 410.781,268.114 412.743,271.675 414.704,275.154 416.666,278.551 418.628,281.864 420.589,285.092 422.551,288.236 424.512,291.294 426.474,294.267 428.436,297.153 430.397,299.954 432.359,302.668 434.321,305.295 436.282,307.836 438.244,310.29 440.206,312.659 442.167,314.941 444.129,317.138 446.091,319.25 448.052,321.277 450.014,323.22 451.976,325.08 453.937,326.857 455.899,328.553 457.861,330.168 459.822,331.703 461.784,333.159 463.745,334.538 465.707,335.841 467.669,337.068 469.63,338.222 471.592,339.304 473.554,340.315 475.515,341.257 477.477,342.132 479.439,342.941 481.4,343.686 483.362,344.369 485.324,344.992 487.285,345.556 489.247,346.065 491.209,346.519 493.17,346.922 495.132,347.274 497.094,347.579 499.055,347.838 501.017,348.055 502.978,348.231 504.94,348.368 506.902,348.47 508.863,348.538 510.825,348.575 512.787,348.583 514.748,348.566 516.71,348.526 518.672,348.464 520.633,348.384 522.595,348.289 524.557,348.181 526.518,348.063 528.48,347.936 530.442,347.805 532.403,347.672 534.365,347.538 536.327,347.408 538.288,347.283 540.25,347.167 542.211,347.061 544.173,346.969 546.135,346.893 548.096,346.835 550.058,346.799 552.02,346.786 553.981,346.8 555.943,346.842 557.905,346.915 559.866,347.022 561.828,347.165 563.79,347.346 565.751,347.568 567.713,347.832 569.675,348.141 571.636,348.498 573.598,348.904 575.56,349.361 577.521,349.872 579.483,350.438 581.445,351.061 583.406,351.743 585.368,352.486 587.329,353.291 589.291,354.161 591.253,355.096 593.214,356.099 595.176,357.17 597.138,358.311 599.099,359.524 601.061,360.809 603.023,362.168 604.984,363.601 606.946,365.11 608.908,366.696 610.869,368.359 612.831,370.101 614.793,371.921 616.754,373.821 618.716,375.801 620.678,377.862 622.639,380.003 624.601,382.225 626.562,384.528 628.524,386.913 630.486,389.379 632.447,391.926 634.409,394.554 636.371,397.263 638.332,400.053 640.294,402.922 642.256,405.871 644.217,408.899 646.179,412.006 648.141,415.19 650.102,418.45 652.064,421.787 654.026,425.198 655.987,428.684 657.949,432.241 659.911,435.871 661.872,439.57 663.834,443.339 665.795,447.174 667.757,451.076 669.719,455.042 671.68,459.07 673.642,463.16 675.604,467.308 677.565,471.514 679.527,475.775 681.489,480.09 683.45,484.457 685.412,488.872 687.374,493.335 689.335,497.843 691.297,502.394 693.259,506.986 695.22,511.616 697.182,516.281 699.144,520.981 701.105,525.711 703.067,530.47 705.028,535.255 706.99,540.064 708.952,544.894 710.913,549.742 712.875,554.606 714.837,559.484 716.798,564.372 718.76,569.267 720.722,574.168 722.683,579.072 724.645,583.975 726.607,588.876 728.568,593.771 730.53,598.658 732.492,603.534 734.453,608.396 736.415,613.242 738.377,618.069 740.338,622.874 742.3,627.655 744.261,632.409 746.223,637.134 748.185,641.826 750.146,646.484 752.108,651.105 754.07,655.686 756.031,660.225 757.993,664.72 759.955,669.167 761.916,673.566 763.878,677.913 765.84,682.206 767.801,686.443 769.763,690.622 771.725,694.741 773.686,698.798 775.648,702.79 777.61,706.716 779.571,710.574 781.533,714.363 783.494,718.079 785.456,721.723 787.418,725.291 789.379,728.783 791.341,732.197 793.303,735.532 795.264,738.786 797.226,741.959 799.188,745.048 801.149,748.053 803.111,750.973 805.073,753.806 807.034,756.553 808.996,759.212 810.958,761.782 812.919,764.263 814.881,766.655 816.843,768.956 818.804,771.167 820.766,773.287 822.727,775.316 824.689,777.254 826.651,779.1 828.612,780.856 830.574,782.52 832.536,784.094 834.497,785.577 836.459,786.97 838.421,788.274 840.382,789.488 842.344,790.614 844.306,791.652 846.267,792.603 848.229,793.468 850.191,794.248 852.152,794.943 854.114,795.556 856.076,796.087 858.037,796.537 859.999,796.907 861.961,797.2 863.922,797.417 865.884,797.559 867.845,797.627 869.807,797.624 871.769,797.551 873.73,797.41 875.692,797.203 877.654,796.931 879.615,796.598 881.577,796.204 883.539,795.751 885.5,795.243 887.462,794.681 889.424,794.068 891.385,793.405 893.347,792.695 895.309,791.941 897.27,791.144 899.232,790.307 901.194,789.433 903.155,788.525 905.117,787.584 907.078,786.613 909.04,785.615 911.002,784.592 912.963,783.548 914.925,782.484 916.887,781.403 918.848,780.309 920.81,779.203 922.772,778.088 924.733,776.967 926.695,775.842 928.657,774.717 930.618,773.594 932.58,772.475 934.542,771.364 936.503,770.262 938.465,769.172 940.427,768.098 942.388,767.041 944.35,766.004 946.311,764.99 948.273,764.001 950.235,763.039 952.196,762.107 954.158,761.207 956.12,760.342 958.081,759.514 960.043,758.725 962.005,757.978 963.966,757.274 965.928,756.616 967.89,756.005 969.851,755.444 971.813,754.935 973.775,754.48 975.736,754.08 977.698,753.737 979.66,753.452 981.621,753.229 983.583,753.067 985.544,752.969 987.506,752.936 989.468,752.97 991.429,753.071 993.391,753.241 995.353,753.481 997.314,753.792 999.276,754.175 1001.24,754.631 1003.2,755.161 1005.16,755.765 1007.12,756.445 1009.08,757.2 1011.05,758.032 1013.01,758.941 1014.97,759.926 1016.93,760.989 1018.89,762.129 1020.85,763.347 1022.82,764.643 1024.78,766.016 1026.74,767.466 1028.7,768.993 1030.66,770.597 1032.62,772.278 1034.59,774.034 1036.55,775.865 1038.51,777.771 1040.47,779.751 1042.43,781.803 1044.39,783.928 1046.36,786.124 1048.32,788.39 1050.28,790.725 1052.24,793.127 1054.2,795.596 1056.16,798.13 1058.13,800.727 1060.09,803.387 1062.05,806.107 1064.01,808.885 1065.97,811.721 1067.93,814.613 1069.9,817.557 1071.86,820.554 1073.82,823.6 1075.78,826.694 1077.74,829.833 1079.7,833.016 1081.67,836.24 1083.63,839.503 1085.59,842.804 1087.55,846.138 1089.51,849.505 1091.47,852.901 1093.44,856.325 1095.4,859.774 1097.36,863.245 1099.32,866.736 1101.28,870.244 1103.24,873.767 1105.21,877.303 1107.17,880.847 1109.13,884.399 1111.09,887.954 1113.05,891.512 1115.01,895.068 1116.98,898.62 1118.94,902.166 1120.9,905.703 1122.86,909.228 1124.82,912.738 1126.78,916.231 1128.74,919.704 1130.71,923.155 1132.67,926.58 1134.63,929.978 1136.59,933.345 1138.55,936.68 1140.51,939.978 1142.48,943.239 1144.44,946.459 1146.4,949.636 1148.36,952.768 1150.32,955.852 1152.28,958.885 1154.25,961.866 1156.21,964.792 1158.17,967.661 1160.13,970.471 1162.09,973.22 1164.05,975.905 1166.02,978.525 1167.98,981.077 1169.94,983.56 1171.9,985.972 1173.86,988.311 1175.82,990.575 1177.79,992.763 1179.75,994.873 1181.71,996.904 1183.67,998.854 1185.63,1000.72 1187.59,1002.51 1189.56,1004.21 1191.52,1005.82 1193.48,1007.35 1195.44,1008.78 1197.4,1010.13 1199.36,1011.39 1201.33,1012.56 1203.29,1013.64 1205.25,1014.63 1207.21,1015.52 1209.17,1016.32 1211.13,1017.03 1213.1,1017.65 1215.06,1018.17 1217.02,1018.6 1218.98,1018.93 1220.94,1019.17 1222.9,1019.32 1224.87,1019.38 1226.83,1019.34 1228.79,1019.21 1230.75,1018.99 1232.71,1018.67 1234.67,1018.27 1236.64,1017.78 1238.6,1017.19 1240.56,1016.52 1242.52,1015.76 1244.48,1014.92 1246.44,1013.99 1248.41,1012.98 1250.37,1011.88 1252.33,1010.7 1254.29,1009.45 1256.25,1008.11 1258.21,1006.7 1260.18,1005.22 1262.14,1003.66 1264.1,1002.03 1266.06,1000.32 1268.02,998.556 1269.98,996.722 1271.95,994.823 1273.91,992.863 1275.87,990.844 1277.83,988.766 1279.79,986.634 1281.75,984.448 1283.72,982.212 1285.68,979.927 1287.64,977.597 1289.6,975.222 1291.56,972.807 1293.52,970.353 1295.49,967.863 1297.45,965.339 1299.41,962.784 1301.37,960.201 1303.33,957.592 1305.29,954.96 1307.26,952.307 1309.22,949.636 1311.18,946.951 1313.14,944.252 1315.1,941.544 1317.06,938.829 1319.03,936.109 1320.99,933.387 1322.95,930.666 1324.91,927.949 1326.87,925.238 1328.83,922.535 1330.79,919.844 1332.76,917.167 1334.72,914.507 1336.68,911.865 1338.64,909.246 1340.6,906.65 1342.56,904.081 1344.53,901.541 1346.49,899.032 1348.45,896.557 1350.41,894.118 1352.37,891.717 1354.33,889.357 1356.3,887.04 1358.26,884.767 1360.22,882.541 1362.18,880.364 1364.14,878.238 1366.1,876.165 1368.07,874.146 1370.03,872.183 1371.99,870.279 1373.95,868.434 1375.91,866.65 1377.87,864.929 1379.84,863.272 1381.8,861.681 1383.76,860.157 1385.72,858.701 1387.68,857.314 1389.64,855.997 1391.61,854.751 1393.57,853.578 1395.53,852.477 1397.49,851.451 1399.45,850.498 1401.41,849.621 1403.38,848.819 1405.34,848.093 1407.3,847.444 1409.26,846.87 1411.22,846.374 1413.18,845.954 1415.15,845.611 1417.11,845.345 1419.07,845.155 1421.03,845.041 1422.99,845.003 1424.95,845.041 1426.92,845.153 1428.88,845.34 1430.84,845.601 1432.8,845.935 1434.76,846.341 1436.72,846.818 1438.69,847.365 1440.65,847.982 1442.61,848.667 1444.57,849.418 1446.53,850.235 1448.49,851.116 1450.46,852.06 1452.42,853.066 1454.38,854.131 1456.34,855.254 1458.3,856.433 1460.26,857.667 1462.23,858.953 1464.19,860.291 1466.15,861.677 1468.11,863.11 1470.07,864.589 1472.03,866.109 1474,867.671 1475.96,869.27 1477.92,870.906 1479.88,872.576 1481.84,874.276 1483.8,876.006 1485.77,877.763 1487.73,879.544 1489.69,881.346 1491.65,883.168 1493.61,885.006 1495.57,886.859 1497.54,888.722 1499.5,890.595 1501.46,892.474 1503.42,894.357 1505.38,896.24 1507.34,898.122 1509.31,900 1511.27,901.87 1513.23,903.731 1515.19,905.579 1517.15,907.412 1519.11,909.228 1521.08,911.023 1523.04,912.796 1525,914.542 1526.96,916.261 1528.92,917.949 1530.88,919.603 1532.84,921.222 1534.81,922.802 1536.77,924.341 1538.73,925.837 1540.69,927.288 1542.65,928.69 1544.61,930.042 1546.58,931.341 1548.54,932.585 1550.5,933.772 1552.46,934.9 1554.42,935.966 1556.38,936.969 1558.35,937.906 1560.31,938.776 1562.27,939.577 1564.23,940.307 1566.19,940.963 1568.15,941.546 1570.12,942.052 1572.08,942.481 1574.04,942.83 1576,943.099 1577.96,943.286 1579.92,943.389 1581.89,943.409 1583.85,943.342 1585.81,943.19 1587.77,942.949 1589.73,942.621 1591.69,942.203 1593.66,941.695 1595.62,941.097 1597.58,940.407 1599.54,939.626 1601.5,938.753 1603.46,937.787 1605.43,936.729 1607.39,935.579 1609.35,934.335 1611.31,932.999 1613.27,931.57 1615.23,930.049 1617.2,928.436 1619.16,926.731 1621.12,924.934 1623.08,923.047 1625.04,921.069 1627,919.002 1628.97,916.847 1630.93,914.603 1632.89,912.272 1634.85,909.856 1636.81,907.355 1638.77,904.77 1640.74,902.102 1642.7,899.353 1644.66,896.525 1646.62,893.618 1648.58,890.635 1650.54,887.577 1652.51,884.445 1654.47,881.241 1656.43,877.967 1658.39,874.625 1660.35,871.217 1662.31,867.745 1664.28,864.211 1666.24,860.616 1668.2,856.964 1670.16,853.256 1672.12,849.494 1674.08,845.681 1676.05,841.819 1678.01,837.911 1679.97,833.959 1681.93,829.964 1683.89,825.931 1685.85,821.861 1687.82,817.757 1689.78,813.621 1691.74,809.456 1693.7,805.265 1695.66,801.05 1697.62,796.814 1699.59,792.56 1701.55,788.29 1703.51,784.006 1705.47,779.713 1707.43,775.411 1709.39,771.105 1711.36,766.796 1713.32,762.488 1715.28,758.183 1717.24,753.883 1719.2,749.592 1721.16,745.312 1723.12,741.045 1725.09,736.795 1727.05,732.564 1729.01,728.354 1730.97,724.168 1732.93,720.008 1734.89,715.877 1736.86,711.778 1738.82,707.712 1740.78,703.683 1742.74,699.692 1744.7,695.741 1746.66,691.834 1748.63,687.971 1750.59,684.155 1752.55,680.389 1754.51,676.674 1756.47,673.013 1758.43,669.406 1760.4,665.856 1762.36,662.366 1764.32,658.935 1766.28,655.567 1768.24,652.262 1770.2,649.022 1772.17,645.849 1774.13,642.744 1776.09,639.708 1778.05,636.743 1780.01,633.849 1781.97,631.028 1783.94,628.281 1785.9,625.608 1787.86,623.011 1789.82,620.489 1791.78,618.045 1793.74,615.678 1795.71,613.388 1797.67,611.177 1799.63,609.045 1801.59,606.992 1803.55,605.017 1805.51,603.122 1807.48,601.306 1809.44,599.569 1811.4,597.911 1813.36,596.331 1815.32,594.83 1817.28,593.406 1819.25,592.06 1821.21,590.791 1823.17,589.598 1825.13,588.48 1827.09,587.436 1829.05,586.467 1831.02,585.57 1832.98,584.744 1834.94,583.989 1836.9,583.303 1838.86,582.685 1840.82,582.134 1842.79,581.648 1844.75,581.225 1846.71,580.864 1848.67,580.564 1850.63,580.323 1852.59,580.138 1854.56,580.008 1856.52,579.932 1858.48,579.907 1860.44,579.932 1862.4,580.003 1864.36,580.12 1866.33,580.279 1868.29,580.479 1870.25,580.718 1872.21,580.993 1874.17,581.302 1876.13,581.642 1878.1,582.011 1880.06,582.407 1882.02,582.827 1883.98,583.269 1885.94,583.73 1887.9,584.207 1889.87,584.698 1891.83,585.201 1893.79,585.712 1895.75,586.23 1897.71,586.751 1899.67,587.273 1901.64,587.793 1903.6,588.308 1905.56,588.817 1907.52,589.315 1909.48,589.801 1911.44,590.272 1913.41,590.726 1915.37,591.159 1917.33,591.569 1919.29,591.953 1921.25,592.31 1923.21,592.636 1925.17,592.929 1927.14,593.186 1929.1,593.405 1931.06,593.583 1933.02,593.719 1934.98,593.809 1936.94,593.852 1938.91,593.845 1940.87,593.786 1942.83,593.673 1944.79,593.503 1946.75,593.275 1948.71,592.986 1950.68,592.635 1952.64,592.22 1954.6,591.739 1956.56,591.189 1958.52,590.57 1960.48,589.879 1962.45,589.116 1964.41,588.278 1966.37,587.364 1968.33,586.372 1970.29,585.302 1972.25,584.152 1974.22,582.921 1976.18,581.608 1978.14,580.212 1980.1,578.731 1982.06,577.166 1984.02,575.515 1985.99,573.777 1987.95,571.953 1989.91,570.04 1991.87,568.04 1993.83,565.952 1995.79,563.774 1997.76,561.508 1999.72,559.153 2001.68,556.709 2003.64,554.175 2005.6,551.553 2007.56,548.843 2009.53,546.044 2011.49,543.157 2013.45,540.182 2015.41,537.121 2017.37,533.974 2019.33,530.74 2021.3,527.423 2023.26,524.021 2025.22,520.536 2027.18,516.97 2029.14,513.323 2031.1,509.596 2033.07,505.791 2035.03,501.909 2036.99,497.952 2038.95,493.92 2040.91,489.816 2042.87,485.641 2044.84,481.397 2046.8,477.086 2048.76,472.709 2050.72,468.268 2052.68,463.766 2054.64,459.203 2056.61,454.583 2058.57,449.908 2060.53,445.179 2062.49,440.398 2064.45,435.569 2066.41,430.693 2068.38,425.773 2070.34,420.81 2072.3,415.808 2074.26,410.77 2076.22,405.696 2078.18,400.591 2080.15,395.456 2082.11,390.294 2084.07,385.108 2086.03,379.9 2087.99,374.673 2089.95,369.43 2091.92,364.173 2093.88,358.905 2095.84,353.629 2097.8,348.347 2099.76,343.062 2101.72,337.777 2103.69,332.495 2105.65,327.218 2107.61,321.948 2109.57,316.689 2111.53,311.444 2113.49,306.214 2115.46,301.003 2117.42,295.813 2119.38,290.647 2121.34,285.507 2123.3,280.395 2125.26,275.315 2127.22,270.269 2129.19,265.259 2131.15,260.288 2133.11,255.358 2135.07,250.47 2137.03,245.629 2138.99,240.835 2140.96,236.091 2142.92,231.399 2144.88,226.762 2146.84,222.18 2148.8,217.657 2150.76,213.193 2152.73,208.791 2154.69,204.453 2156.65,200.181 2158.61,195.975 2160.57,191.837 2162.53,187.77 2164.5,183.774 2166.46,179.851 2168.42,176.002 2170.38,172.228 2172.34,168.53 2174.3,164.91 2176.27,161.369 2178.23,157.907 2180.19,154.525 2182.15,151.224 2184.11,148.004 2186.07,144.867 2188.04,141.812 2190,138.84 2191.96,135.952 2193.92,133.147 2195.88,130.426 2197.84,127.789 2199.81,125.235 2201.77,122.766 2203.73,120.38 2205.69,118.077 2207.65,115.857 2209.61,113.719 2211.58,111.664 2213.54,109.69 2215.5,107.797 2217.46,105.983 2219.42,104.249 2221.38,102.593 2223.35,101.014 2225.31,99.5114 2227.27,98.0836 2229.23,96.7297 2231.19,95.4482 2233.15,94.2378 2235.12,93.0971 2237.08,92.0245 2239.04,91.0184 2241,90.0773 2242.96,89.1994 2244.92,88.3829 2246.89,87.626 2248.85,86.9268 2250.81,86.2834 2252.77,85.6937 2254.73,85.1557 2256.69,84.6672 2258.66,84.2261 2260.62,83.8303 2262.58,83.4773 2264.54,83.1651 2266.5,82.8911 2268.46,82.653 2270.43,82.4484 2272.39,82.2749 2274.35,82.13 2276.31,82.0111 2278.27,81.9158 2280.23,81.8414 2282.2,81.7855 2284.16,81.7454 2286.12,81.7185 2288.08,81.7022 2290.04,81.6938 2292,81.6907 2293.97,81.6902 "/>
<polyline clip-path="url(#clip951)" style="stroke:#ff0000; stroke-linecap:round; stroke-linejoin:round; stroke-width:4; stroke-opacity:1; fill:none" points="334.277,75.5589 336.238,85.5141 338.2,89.5145 340.162,93.7232 342.123,95.9045 344.085,105.192 346.046,110.967 348.008,117.134 349.97,118.57 351.931,125.515 353.893,126.987 355.855,133.046 357.816,137.787 359.778,143.098 361.74,146.469 363.701,154.867 365.663,155.932 367.625,164.02 369.586,168.275 371.548,170.473 373.51,176.4 375.471,182.399 377.433,185.25 379.395,185.327 381.356,192.479 383.318,196.392 385.279,202.748 387.241,204.213 389.203,207.347 391.164,212.002 393.126,216.996 395.088,220.116 397.049,220.851 399.011,228.803 400.973,228.15 402.934,230.637 404.896,233.31 406.858,241.856 408.819,247.056 410.781,249.171 412.743,251.641 414.704,254.981 416.666,256.155 418.628,262.031 420.589,263.94 422.551,268.374 424.512,272.176 426.474,270.741 428.436,278.199 430.397,281.791 432.359,283.711 434.321,289.538 436.282,292.685 438.244,293.104 440.206,298.761 442.167,295.151 444.129,297.231 446.091,303.58 448.052,309.023 450.014,311.348 451.976,309.426 453.937,317.92 455.899,317.04 457.861,320.873 459.822,324.188 461.784,326.198 463.745,330.56 465.707,331.495 467.669,331.243 469.63,336.487 471.592,336.066 473.554,336.092 475.515,339.968 477.477,345.873 479.439,346.547 481.4,349.268 483.362,352.303 485.324,353.528 487.285,356.107 489.247,355.033 491.209,353.109 493.17,356.957 495.132,361.242 497.094,365.498 499.055,367.609 501.017,368.643 502.978,369.073 504.94,371.083 506.902,368.692 508.863,378.869 510.825,380.77 512.787,377.134 514.748,375.779 516.71,381.614 518.672,380.029 520.633,386.933 522.595,389.467 524.557,387.212 526.518,384.83 528.48,387.858 530.442,395.983 532.403,393.58 534.365,398.699 536.327,397.049 538.288,396.661 540.25,398.666 542.211,396.031 544.173,403.418 546.135,402.936 548.096,402.173 550.058,404.129 552.02,406.167 553.981,404.005 555.943,411.694 557.905,409.682 559.866,408.731 561.828,412.71 563.79,411.434 565.751,411.164 567.713,417.987 569.675,417.427 571.636,415.234 573.598,412.572 575.56,418.428 577.521,417.439 579.483,420.567 581.445,420.103 583.406,421.837 585.368,421.509 587.329,420.788 589.291,423.701 591.253,422.965 593.214,427.107 595.176,430.823 597.138,431.165 599.099,430.698 601.061,425.09 603.023,427.93 604.984,428.668 606.946,433.623 608.908,431.078 610.869,430.594 612.831,435.686 614.793,431.409 616.754,436.086 618.716,434.869 620.678,437.553 622.639,439.476 624.601,438.336 626.562,437.134 628.524,439.972 630.486,443.851 632.447,444.35 634.409,442.562 636.371,446.569 638.332,444.527 640.294,446.72 642.256,447.083 644.217,445.276 646.179,445.846 648.141,447.293 650.102,452.375 652.064,451.916 654.026,449.407 655.987,453.225 657.949,454.77 659.911,458.531 661.872,454.332 663.834,456.436 665.795,458.138 667.757,459.932 669.719,461.527 671.68,462.474 673.642,464.692 675.604,464.477 677.565,468.904 679.527,467.02 681.489,462.014 683.45,470.799 685.412,469.761 687.374,473.403 689.335,472.943 691.297,475.845 693.259,477.858 695.22,474.155 697.182,482.885 699.144,480.205 701.105,483.327 703.067,479.458 705.028,482.773 706.99,483.539 708.952,488.48 710.913,489.033 712.875,489.939 714.837,493.475 716.798,493.361 718.76,495.357 720.722,497.93 722.683,499.604 724.645,505.063 726.607,501.601 728.568,501.384 730.53,510.123 732.492,510.672 734.453,512.86 736.415,514.596 738.377,515.744 740.338,518.542 742.3,518.987 744.261,525.753 746.223,525.501 748.185,521.36 750.146,524.93 752.108,528.956 754.07,530.659 756.031,533.639 757.993,536.512 759.955,538.802 761.916,541.783 763.878,541.956 765.84,547.246 767.801,549.245 769.763,552.226 771.725,554.646 773.686,555.445 775.648,555.108 777.61,560.495 779.571,561.924 781.533,566.813 783.494,568.562 785.456,572.206 787.418,571.915 789.379,577.07 791.341,580.72 793.303,581.242 795.264,585.705 797.226,585.271 799.188,588.622 801.149,593.373 803.111,596.575 805.073,598.088 807.034,598.055 808.996,601.737 810.958,607.742 812.919,608.231 814.881,613.524 816.843,616.772 818.804,618.98 820.766,628.588 822.727,623.413 824.689,631.809 826.651,630.482 828.612,628.805 830.574,639.589 832.536,641.241 834.497,646.097 836.459,649.747 838.421,651.435 840.382,657.84 842.344,659.109 844.306,662.079 846.267,662.73 848.229,664.691 850.191,674.614 852.152,675.259 854.114,679.957 856.076,679.196 858.037,682.681 859.999,690.106 861.961,693.251 863.922,694.495 865.884,693.352 867.845,702.245 869.807,709.079 871.769,711.931 873.73,714.219 875.692,714.818 877.654,718.994 879.615,725.999 881.577,721.922 883.539,728.679 885.5,731.056 887.462,736 889.424,741.714 891.385,742.066 893.347,743.211 895.309,750.963 897.27,751.461 899.232,758.266 901.194,761.26 903.155,763.875 905.117,768.155 907.078,769.715 909.04,775.61 911.002,775.744 912.963,780.714 914.925,785.225 916.887,790.38 918.848,790.643 920.81,795.916 922.772,796.638 924.733,803.731 926.695,803.4 928.657,806.749 930.618,810.255 932.58,813.221 934.542,816.514 936.503,818.778 938.465,825.27 940.427,828.301 942.388,829.528 944.35,832.803 946.311,837.026 948.273,842.032 950.235,844.384 952.196,848.522 954.158,850.988 956.12,853.468 958.081,857.742 960.043,861.269 962.005,860.134 963.966,861.241 965.928,865.704 967.89,870.737 969.851,878.488 971.813,877.746 973.775,880.528 975.736,882.757 977.698,883.82 979.66,885.932 981.621,894.988 983.583,892.168 985.544,896.177 987.506,900.171 989.468,902.87 991.429,903.307 993.391,904.61 995.353,906.014 997.314,916.528 999.276,912.879 1001.24,920.049 1003.2,920.861 1005.16,923.679 1007.12,929.195 1009.08,928.736 1011.05,925.723 1013.01,931.67 1014.97,932.962 1016.93,936.906 1018.89,936.196 1020.85,942.343 1022.82,942.154 1024.78,946.721 1026.74,946.007 1028.7,948.584 1030.66,948.2 1032.62,953.223 1034.59,953.41 1036.55,956.292 1038.51,964.248 1040.47,964.84 1042.43,964.871 1044.39,965.575 1046.36,963.671 1048.32,965.87 1050.28,969.741 1052.24,972.962 1054.2,972.064 1056.16,973.357 1058.13,973.802 1060.09,973.204 1062.05,978.211 1064.01,976.236 1065.97,976.465 1067.93,977.048 1069.9,981.089 1071.86,983.182 1073.82,984.555 1075.78,984.236 1077.74,986.622 1079.7,988.45 1081.67,989.091 1083.63,982.988 1085.59,991.191 1087.55,991.342 1089.51,989.165 1091.47,988.399 1093.44,992.896 1095.4,994.857 1097.36,991.012 1099.32,992.296 1101.28,995.678 1103.24,988.782 1105.21,992.782 1107.17,995.332 1109.13,994.717 1111.09,996.7 1113.05,996.445 1115.01,998.063 1116.98,999.481 1118.94,998.958 1120.9,1003.91 1122.86,997.921 1124.82,996.426 1126.78,997.754 1128.74,998.252 1130.71,1000.07 1132.67,996.217 1134.63,994.774 1136.59,994.894 1138.55,997.328 1140.51,992.859 1142.48,996.155 1144.44,996.36 1146.4,993.885 1148.36,997.259 1150.32,994.532 1152.28,991.541 1154.25,992.991 1156.21,994.043 1158.17,989.143 1160.13,993.473 1162.09,985.755 1164.05,992.783 1166.02,989.124 1167.98,990.055 1169.94,988.486 1171.9,989.441 1173.86,986.93 1175.82,986.031 1177.79,984.171 1179.75,983.116 1181.71,981.185 1183.67,979.781 1185.63,979.171 1187.59,980.809 1189.56,974.719 1191.52,976.078 1193.48,975.599 1195.44,976.112 1197.4,973.014 1199.36,973.401 1201.33,969.575 1203.29,970.586 1205.25,970.271 1207.21,967.438 1209.17,961.664 1211.13,963.597 1213.1,964.468 1215.06,963.845 1217.02,961.435 1218.98,960.03 1220.94,957.509 1222.9,948.11 1224.87,953.544 1226.83,951.717 1228.79,952.423 1230.75,950.04 1232.71,948.128 1234.67,945.13 1236.64,945.73 1238.6,946.133 1240.56,942.896 1242.52,942.602 1244.48,942.936 1246.44,933.526 1248.41,940.519 1250.37,940.163 1252.33,933.033 1254.29,934.355 1256.25,928.592 1258.21,930.632 1260.18,924.598 1262.14,925.039 1264.1,923.732 1266.06,920.799 1268.02,918.196 1269.98,919.913 1271.95,913.273 1273.91,914.55 1275.87,911.572 1277.83,913.344 1279.79,908.831 1281.75,908.389 1283.72,909.697 1285.68,901.752 1287.64,901.249 1289.6,899.588 1291.56,899.261 1293.52,895.127 1295.49,896.287 1297.45,893.702 1299.41,895.306 1301.37,890.685 1303.33,890.605 1305.29,887.692 1307.26,885.661 1309.22,886.28 1311.18,877.804 1313.14,880.394 1315.1,878.622 1317.06,874.881 1319.03,874.029 1320.99,875.618 1322.95,869.264 1324.91,871.022 1326.87,865.149 1328.83,869.488 1330.79,867.141 1332.76,864.076 1334.72,863.267 1336.68,856.914 1338.64,860.296 1340.6,856.685 1342.56,856.003 1344.53,852.359 1346.49,853.685 1348.45,853.992 1350.41,849.976 1352.37,847.327 1354.33,846.64 1356.3,850.359 1358.26,843.426 1360.22,843.754 1362.18,844.184 1364.14,840.038 1366.1,839.63 1368.07,843.028 1370.03,842.898 1371.99,834.175 1373.95,836.351 1375.91,836.916 1377.87,832.15 1379.84,832.796 1381.8,833.578 1383.76,832.963 1385.72,829.377 1387.68,830.246 1389.64,822.562 1391.61,829.44 1393.57,827.069 1395.53,823.56 1397.49,820.465 1399.45,823.503 1401.41,821.537 1403.38,815.794 1405.34,823.027 1407.3,824.416 1409.26,819.188 1411.22,817.887 1413.18,818.408 1415.15,817.347 1417.11,818.626 1419.07,814.357 1421.03,810.706 1422.99,815.487 1424.95,814.614 1426.92,812.682 1428.88,815.094 1430.84,815.235 1432.8,815.291 1434.76,812.16 1436.72,809.645 1438.69,808.369 1440.65,806.82 1442.61,810.813 1444.57,807.004 1446.53,810.614 1448.49,813.075 1450.46,812.73 1452.42,807.264 1454.38,809.263 1456.34,808.997 1458.3,808.276 1460.26,814.768 1462.23,810.047 1464.19,809.088 1466.15,809.815 1468.11,811.804 1470.07,811.669 1472.03,811.882 1474,811.742 1475.96,808.839 1477.92,808.312 1479.88,811.284 1481.84,809.39 1483.8,809.807 1485.77,813.171 1487.73,807.482 1489.69,812.258 1491.65,806.628 1493.61,813.437 1495.57,812.824 1497.54,813.509 1499.5,814.098 1501.46,811.289 1503.42,814.378 1505.38,809.302 1507.34,815.626 1509.31,812.108 1511.27,813.023 1513.23,816.02 1515.19,816.211 1517.15,812.266 1519.11,816.929 1521.08,818.119 1523.04,814.257 1525,820.567 1526.96,819.464 1528.92,819 1530.88,820.698 1532.84,825.44 1534.81,820.006 1536.77,821.867 1538.73,824.302 1540.69,824.786 1542.65,822.887 1544.61,824.051 1546.58,830.351 1548.54,827.874 1550.5,829.398 1552.46,830.248 1554.42,831.203 1556.38,832.199 1558.35,831.059 1560.31,832.754 1562.27,831.732 1564.23,833.163 1566.19,838.214 1568.15,836.488 1570.12,835.662 1572.08,838.368 1574.04,839.242 1576,836.494 1577.96,839.683 1579.92,840.499 1581.89,840.51 1583.85,835.606 1585.81,839.76 1587.77,843.817 1589.73,843.036 1591.69,844.665 1593.66,839.969 1595.62,845.662 1597.58,847.756 1599.54,848.041 1601.5,849.567 1603.46,846.558 1605.43,847.751 1607.39,848.85 1609.35,848.297 1611.31,852.11 1613.27,850.961 1615.23,849.197 1617.2,856.216 1619.16,855.564 1621.12,856.862 1623.08,853.132 1625.04,853.172 1627,855.694 1628.97,859.634 1630.93,856.784 1632.89,855.139 1634.85,861.23 1636.81,860.365 1638.77,860.778 1640.74,858.313 1642.7,857.443 1644.66,857.401 1646.62,861.423 1648.58,863.089 1650.54,861.882 1652.51,862.761 1654.47,865.868 1656.43,866.31 1658.39,862.156 1660.35,864.526 1662.31,859.744 1664.28,862.33 1666.24,866.209 1668.2,865.329 1670.16,858.492 1672.12,865.119 1674.08,863.024 1676.05,866.621 1678.01,863.644 1679.97,863.504 1681.93,863.224 1683.89,859.852 1685.85,861.598 1687.82,866.184 1689.78,860.419 1691.74,868.771 1693.7,864.009 1695.66,862.448 1697.62,863.396 1699.59,861.773 1701.55,859.668 1703.51,864.247 1705.47,858.518 1707.43,861.051 1709.39,860.796 1711.36,857.874 1713.32,857.901 1715.28,856.218 1717.24,853.869 1719.2,850.672 1721.16,851.093 1723.12,853.325 1725.09,850.962 1727.05,854.664 1729.01,852.622 1730.97,850.09 1732.93,849.41 1734.89,845.809 1736.86,848.004 1738.82,843.507 1740.78,844.256 1742.74,843.722 1744.7,843.186 1746.66,839.132 1748.63,838.593 1750.59,836.23 1752.55,833.683 1754.51,836.62 1756.47,832.247 1758.43,831.357 1760.4,827.537 1762.36,826.822 1764.32,828.557 1766.28,823.085 1768.24,818.872 1770.2,818.747 1772.17,816.752 1774.13,812.856 1776.09,816.32 1778.05,814.795 1780.01,809.428 1781.97,808.771 1783.94,804.177 1785.9,801.974 1787.86,800.543 1789.82,798.943 1791.78,797.748 1793.74,794.007 1795.71,794.697 1797.67,788.338 1799.63,786.628 1801.59,787.857 1803.55,782.161 1805.51,780.963 1807.48,775.761 1809.44,773.873 1811.4,772.995 1813.36,768.77 1815.32,767.828 1817.28,767.179 1819.25,763.043 1821.21,754.847 1823.17,751.955 1825.13,750.957 1827.09,750.182 1829.05,747.8 1831.02,737.203 1832.98,742.745 1834.94,735.642 1836.9,734.475 1838.86,730.758 1840.82,729.52 1842.79,723.86 1844.75,720.818 1846.71,718.449 1848.67,717.6 1850.63,713.292 1852.59,711.119 1854.56,704.963 1856.52,699.278 1858.48,699.842 1860.44,695.255 1862.4,688.898 1864.36,685.055 1866.33,683.03 1868.29,683.45 1870.25,674.814 1872.21,669.023 1874.17,668.373 1876.13,667.869 1878.1,660.266 1880.06,654.579 1882.02,654.212 1883.98,654.018 1885.94,647.237 1887.9,646.729 1889.87,642.929 1891.83,634.12 1893.79,636.739 1895.75,628.607 1897.71,628.405 1899.67,618.511 1901.64,614.81 1903.6,613.07 1905.56,609.348 1907.52,602.716 1909.48,600.941 1911.44,595.465 1913.41,594.838 1915.37,588.971 1917.33,587.405 1919.29,581.679 1921.25,576.022 1923.21,574.951 1925.17,570.029 1927.14,564.248 1929.1,565.307 1931.06,561.22 1933.02,553.748 1934.98,550.832 1936.94,545.565 1938.91,541.424 1940.87,540.917 1942.83,533.391 1944.79,529.931 1946.75,530.982 1948.71,526.353 1950.68,521.915 1952.64,518.79 1954.6,511.458 1956.56,508.149 1958.52,510.036 1960.48,501.345 1962.45,501.505 1964.41,495.969 1966.37,490.888 1968.33,489.976 1970.29,477.065 1972.25,480.23 1974.22,475.074 1976.18,470.089 1978.14,469.236 1980.1,463.533 1982.06,461.958 1984.02,452.144 1985.99,454.612 1987.95,452.555 1989.91,443.134 1991.87,441.273 1993.83,441.172 1995.79,436.289 1997.76,427.748 1999.72,430.224 2001.68,429.061 2003.64,418.736 2005.6,419.058 2007.56,417.138 2009.53,413.01 2011.49,409.543 2013.45,413.283 2015.41,403.121 2017.37,400.104 2019.33,401.621 2021.3,394.023 2023.26,389.625 2025.22,390.333 2027.18,386.174 2029.14,379.265 2031.1,378.767 2033.07,374.396 2035.03,373.631 2036.99,367.664 2038.95,365.454 2040.91,360.299 2042.87,360.327 2044.84,356.951 2046.8,359.357 2048.76,354.976 2050.72,348.592 2052.68,344.467 2054.64,345.926 2056.61,337.484 2058.57,334.044 2060.53,331.071 2062.49,333.606 2064.45,332.085 2066.41,328.416 2068.38,325.881 2070.34,325.358 2072.3,323.217 2074.26,317.414 2076.22,315.909 2078.18,312.901 2080.15,308.175 2082.11,305.422 2084.07,303.615 2086.03,307.737 2087.99,298.923 2089.95,300.058 2091.92,296.727 2093.88,291.876 2095.84,291.101 2097.8,291.918 2099.76,285.243 2101.72,280.407 2103.69,282.45 2105.65,280.564 2107.61,280.881 2109.57,278.523 2111.53,276.517 2113.49,271.497 2115.46,268.642 2117.42,265.687 2119.38,263.442 2121.34,262.848 2123.3,257.615 2125.26,257.57 2127.22,254.584 2129.19,258.115 2131.15,251.893 2133.11,252.58 2135.07,245.856 2137.03,249.074 2138.99,242.717 2140.96,245.671 2142.92,236.587 2144.88,238.202 2146.84,237.851 2148.8,236.678 2150.76,231.971 2152.73,226.201 2154.69,225.765 2156.65,227.949 2158.61,221.138 2160.57,222.456 2162.53,219.309 2164.5,216.28 2166.46,214.308 2168.42,211.323 2170.38,207.291 2172.34,206.53 2174.3,205.511 2176.27,200.642 2178.23,197.729 2180.19,195.787 2182.15,194.398 2184.11,190.14 2186.07,189.831 2188.04,190.135 2190,187.449 2191.96,185.043 2193.92,182.139 2195.88,178.948 2197.84,178.357 2199.81,177.519 2201.77,175.212 2203.73,167.635 2205.69,168.381 2207.65,163.867 2209.61,162.742 2211.58,159.09 2213.54,156.199 2215.5,153.723 2217.46,152.11 2219.42,152.174 2221.38,149.212 2223.35,147.722 2225.31,148.156 2227.27,139.773 2229.23,138.068 2231.19,135.354 2233.15,130.841 2235.12,131.888 2237.08,130.038 2239.04,125.621 2241,124.386 2242.96,123.209 2244.92,121.443 2246.89,118.396 2248.85,112.286 2250.81,110.745 2252.77,108.963 2254.73,106.078 2256.69,108.34 2258.66,105.349 2260.62,100.748 2262.58,100.039 2264.54,94.5945 2266.5,94.0431 2268.46,93.6787 2270.43,89.8089 2272.39,92.1633 2274.35,86.4645 2276.31,92.8846 2278.27,87.6171 2280.23,86.7692 2282.2,81.397 2284.16,82.7056 2286.12,82.5273 2288.08,81.914 2290.04,84.408 2292,83.6418 2293.97,77.4213 "/>
<polyline clip-path="url(#clip951)" style="stroke:#0000ff; stroke-linecap:round; stroke-linejoin:round; stroke-width:4; stroke-opacity:1; fill:none" stroke-dasharray="16, 8, 2, 8" points="334.277,81.6902 336.238,87.1066 338.2,92.5202 340.162,97.9284 342.123,103.329 344.085,108.718 346.046,114.094 348.008,119.453 349.97,124.794 351.931,130.114 353.893,135.409 355.855,140.678 357.816,145.918 359.778,151.126 361.74,156.3 363.701,161.437 365.663,166.535 367.625,171.591 369.586,176.604 371.548,181.571 373.51,186.489 375.471,191.356 377.433,196.171 379.395,200.931 381.356,205.633 383.318,210.277 385.279,214.86 387.241,219.38 389.203,223.835 391.164,228.224 393.126,232.545 395.088,236.796 397.049,240.976 399.011,245.083 400.973,249.115 402.934,253.072 404.896,256.953 406.858,260.755 408.819,264.478 410.781,268.12 412.743,271.682 414.704,275.161 416.666,278.558 418.628,281.871 420.589,285.099 422.551,288.243 424.512,291.301 426.474,294.274 428.436,297.161 430.397,299.961 432.359,302.675 434.321,305.302 436.282,307.843 438.244,310.297 440.206,312.666 442.167,314.948 444.129,317.145 446.091,319.257 448.052,321.284 450.014,323.227 451.976,325.087 453.937,326.864 455.899,328.559 457.861,330.174 459.822,331.709 461.784,333.166 463.745,334.544 465.707,335.847 467.669,337.074 469.63,338.228 471.592,339.31 473.554,340.321 475.515,341.263 477.477,342.137 479.439,342.946 481.4,343.691 483.362,344.374 485.324,344.997 487.285,345.561 489.247,346.069 491.209,346.524 493.17,346.926 495.132,347.278 497.094,347.583 499.055,347.842 501.017,348.058 502.978,348.234 504.94,348.371 506.902,348.472 508.863,348.54 510.825,348.577 512.787,348.586 514.748,348.568 516.71,348.527 518.672,348.466 520.633,348.386 522.595,348.29 524.557,348.182 526.518,348.063 528.48,347.937 530.442,347.805 532.403,347.672 534.365,347.538 536.327,347.408 538.288,347.283 540.25,347.166 542.211,347.06 544.173,346.968 546.135,346.891 548.096,346.833 550.058,346.797 552.02,346.784 553.981,346.797 555.943,346.839 557.905,346.912 559.866,347.019 561.828,347.162 563.79,347.342 565.751,347.564 567.713,347.828 569.675,348.137 571.636,348.494 573.598,348.9 575.56,349.357 577.521,349.867 579.483,350.433 581.445,351.056 583.406,351.738 585.368,352.481 587.329,353.286 589.291,354.156 591.253,355.091 593.214,356.093 595.176,357.164 597.138,358.305 599.099,359.518 601.061,360.803 603.023,362.161 604.984,363.595 606.946,365.104 608.908,366.69 610.869,368.353 612.831,370.094 614.793,371.915 616.754,373.815 618.716,375.795 620.678,377.855 622.639,379.996 624.601,382.218 626.562,384.522 628.524,386.906 630.486,389.372 632.447,391.919 634.409,394.547 636.371,397.256 638.332,400.046 640.294,402.916 642.256,405.865 644.217,408.893 646.179,411.999 648.141,415.183 650.102,418.444 652.064,421.781 654.026,425.192 655.987,428.677 657.949,432.235 659.911,435.865 661.872,439.565 663.834,443.333 665.795,447.169 667.757,451.071 669.719,455.036 671.68,459.065 673.642,463.155 675.604,467.303 677.565,471.51 679.527,475.771 681.489,480.086 683.45,484.452 685.412,488.868 687.374,493.331 689.335,497.84 691.297,502.391 693.259,506.983 695.22,511.613 697.182,516.279 699.144,520.978 701.105,525.709 703.067,530.468 705.028,535.253 706.99,540.062 708.952,544.892 710.913,549.741 712.875,554.605 714.837,559.483 716.798,564.371 718.76,569.267 720.722,574.168 722.683,579.072 724.645,583.976 726.607,588.876 728.568,593.772 730.53,598.659 732.492,603.535 734.453,608.397 736.415,613.243 738.377,618.071 740.338,622.876 742.3,627.657 744.261,632.412 746.223,637.136 748.185,641.829 750.146,646.487 752.108,651.108 754.07,655.69 756.031,660.229 757.993,664.724 759.955,669.171 761.916,673.57 763.878,677.917 765.84,682.211 767.801,686.448 769.763,690.627 771.725,694.746 773.686,698.803 775.648,702.796 777.61,706.722 779.571,710.58 781.533,714.369 783.494,718.085 785.456,721.729 787.418,725.298 789.379,728.79 791.341,732.204 793.303,735.539 795.264,738.793 797.226,741.966 799.188,745.055 801.149,748.06 803.111,750.98 805.073,753.814 807.034,756.56 808.996,759.219 810.958,761.79 812.919,764.271 814.881,766.662 816.843,768.964 818.804,771.175 820.766,773.295 822.727,775.324 824.689,777.261 826.651,779.108 828.612,780.864 830.574,782.528 832.536,784.102 834.497,785.585 836.459,786.978 838.421,788.281 840.382,789.495 842.344,790.621 844.306,791.659 846.267,792.61 848.229,793.475 850.191,794.255 852.152,794.95 854.114,795.563 856.076,796.093 858.037,796.543 859.999,796.914 861.961,797.207 863.922,797.423 865.884,797.565 867.845,797.633 869.807,797.63 871.769,797.557 873.73,797.415 875.692,797.208 877.654,796.936 879.615,796.603 881.577,796.208 883.539,795.756 885.5,795.248 887.462,794.686 889.424,794.072 891.385,793.409 893.347,792.699 895.309,791.944 897.27,791.147 899.232,790.31 901.194,789.436 903.155,788.527 905.117,787.586 907.078,786.615 909.04,785.617 911.002,784.594 912.963,783.55 914.925,782.485 916.887,781.405 918.848,780.31 920.81,779.203 922.772,778.088 924.733,776.967 926.695,775.843 928.657,774.717 930.618,773.594 932.58,772.475 934.542,771.363 936.503,770.261 938.465,769.171 940.427,768.097 942.388,767.039 944.35,766.002 946.311,764.988 948.273,763.998 950.235,763.036 952.196,762.104 954.158,761.204 956.12,760.339 958.081,759.511 960.043,758.722 962.005,757.974 963.966,757.27 965.928,756.612 967.89,756.001 969.851,755.44 971.813,754.931 973.775,754.475 975.736,754.075 977.698,753.732 979.66,753.447 981.621,753.224 983.583,753.062 985.544,752.964 987.506,752.931 989.468,752.964 991.429,753.065 993.391,753.235 995.353,753.475 997.314,753.786 999.276,754.169 1001.24,754.625 1003.2,755.155 1005.16,755.759 1007.12,756.439 1009.08,757.194 1011.05,758.026 1013.01,758.934 1014.97,759.92 1016.93,760.983 1018.89,762.123 1020.85,763.341 1022.82,764.636 1024.78,766.009 1026.74,767.46 1028.7,768.987 1030.66,770.591 1032.62,772.271 1034.59,774.027 1036.55,775.859 1038.51,777.765 1040.47,779.745 1042.43,781.797 1044.39,783.922 1046.36,786.118 1048.32,788.384 1050.28,790.719 1052.24,793.122 1054.2,795.591 1056.16,798.125 1058.13,800.722 1060.09,803.382 1062.05,806.102 1064.01,808.881 1065.97,811.717 1067.93,814.608 1069.9,817.553 1071.86,820.55 1073.82,823.596 1075.78,826.69 1077.74,829.83 1079.7,833.013 1081.67,836.237 1083.63,839.5 1085.59,842.801 1087.55,846.135 1089.51,849.502 1091.47,852.899 1093.44,856.323 1095.4,859.772 1097.36,863.243 1099.32,866.735 1101.28,870.243 1103.24,873.766 1105.21,877.302 1107.17,880.847 1109.13,884.398 1111.09,887.954 1113.05,891.512 1115.01,895.068 1116.98,898.621 1118.94,902.167 1120.9,905.704 1122.86,909.229 1124.82,912.739 1126.78,916.233 1128.74,919.706 1130.71,923.157 1132.67,926.583 1134.63,929.981 1136.59,933.348 1138.55,936.683 1140.51,939.981 1142.48,943.242 1144.44,946.463 1146.4,949.64 1148.36,952.772 1150.32,955.856 1152.28,958.889 1154.25,961.871 1156.21,964.797 1158.17,967.666 1160.13,970.476 1162.09,973.225 1164.05,975.91 1166.02,978.53 1167.98,981.083 1169.94,983.566 1171.9,985.978 1173.86,988.317 1175.82,990.582 1177.79,992.77 1179.75,994.88 1181.71,996.911 1183.67,998.861 1185.63,1000.73 1187.59,1002.51 1189.56,1004.21 1191.52,1005.83 1193.48,1007.35 1195.44,1008.79 1197.4,1010.14 1199.36,1011.4 1201.33,1012.57 1203.29,1013.65 1205.25,1014.64 1207.21,1015.53 1209.17,1016.33 1211.13,1017.04 1213.1,1017.66 1215.06,1018.18 1217.02,1018.61 1218.98,1018.94 1220.94,1019.18 1222.9,1019.33 1224.87,1019.39 1226.83,1019.35 1228.79,1019.22 1230.75,1018.99 1232.71,1018.68 1234.67,1018.28 1236.64,1017.78 1238.6,1017.2 1240.56,1016.53 1242.52,1015.77 1244.48,1014.93 1246.44,1014 1248.41,1012.98 1250.37,1011.89 1252.33,1010.71 1254.29,1009.45 1256.25,1008.12 1258.21,1006.71 1260.18,1005.22 1262.14,1003.66 1264.1,1002.03 1266.06,1000.33 1268.02,998.562 1269.98,996.727 1271.95,994.829 1273.91,992.868 1275.87,990.848 1277.83,988.771 1279.79,986.638 1281.75,984.453 1283.72,982.216 1285.68,979.931 1287.64,977.6 1289.6,975.226 1291.56,972.81 1293.52,970.356 1295.49,967.865 1297.45,965.341 1299.41,962.786 1301.37,960.203 1303.33,957.594 1305.29,954.961 1307.26,952.308 1309.22,949.638 1311.18,946.952 1313.14,944.253 1315.1,941.545 1317.06,938.829 1319.03,936.109 1320.99,933.387 1322.95,930.666 1324.91,927.949 1326.87,925.237 1328.83,922.535 1330.79,919.843 1332.76,917.166 1334.72,914.505 1336.68,911.864 1338.64,909.244 1340.6,906.648 1342.56,904.078 1344.53,901.538 1346.49,899.029 1348.45,896.554 1350.41,894.115 1352.37,891.714 1354.33,889.354 1356.3,887.036 1358.26,884.763 1360.22,882.537 1362.18,880.36 1364.14,878.234 1366.1,876.16 1368.07,874.141 1370.03,872.178 1371.99,870.274 1373.95,868.429 1375.91,866.645 1377.87,864.924 1379.84,863.267 1381.8,861.676 1383.76,860.151 1385.72,858.695 1387.68,857.308 1389.64,855.991 1391.61,854.745 1393.57,853.572 1395.53,852.471 1397.49,851.445 1399.45,850.492 1401.41,849.615 1403.38,848.813 1405.34,848.087 1407.3,847.437 1409.26,846.864 1411.22,846.367 1413.18,845.948 1415.15,845.605 1417.11,845.338 1419.07,845.148 1421.03,845.035 1422.99,844.997 1424.95,845.034 1426.92,845.147 1428.88,845.334 1430.84,845.595 1432.8,845.929 1434.76,846.335 1436.72,846.812 1438.69,847.36 1440.65,847.976 1442.61,848.661 1444.57,849.413 1446.53,850.23 1448.49,851.111 1450.46,852.055 1452.42,853.061 1454.38,854.126 1456.34,855.249 1458.3,856.428 1460.26,857.662 1462.23,858.949 1464.19,860.287 1466.15,861.673 1468.11,863.107 1470.07,864.585 1472.03,866.106 1474,867.667 1475.96,869.267 1477.92,870.903 1479.88,872.573 1481.84,874.274 1483.8,876.004 1485.77,877.761 1487.73,879.542 1489.69,881.345 1491.65,883.167 1493.61,885.005 1495.57,886.858 1497.54,888.722 1499.5,890.595 1501.46,892.474 1503.42,894.357 1505.38,896.24 1507.34,898.122 1509.31,900 1511.27,901.871 1513.23,903.732 1515.19,905.58 1517.15,907.414 1519.11,909.23 1521.08,911.025 1523.04,912.798 1525,914.545 1526.96,916.264 1528.92,917.952 1530.88,919.606 1532.84,921.225 1534.81,922.805 1536.77,924.345 1538.73,925.841 1540.69,927.292 1542.65,928.694 1544.61,930.046 1546.58,931.345 1548.54,932.59 1550.5,933.777 1552.46,934.905 1554.42,935.971 1556.38,936.974 1558.35,937.912 1560.31,938.782 1562.27,939.583 1564.23,940.313 1566.19,940.97 1568.15,941.552 1570.12,942.059 1572.08,942.487 1574.04,942.837 1576,943.106 1577.96,943.293 1579.92,943.396 1581.89,943.416 1583.85,943.35 1585.81,943.197 1587.77,942.957 1589.73,942.628 1591.69,942.21 1593.66,941.703 1595.62,941.104 1597.58,940.415 1599.54,939.634 1601.5,938.761 1603.46,937.795 1605.43,936.737 1607.39,935.586 1609.35,934.343 1611.31,933.007 1613.27,931.578 1615.23,930.057 1617.2,928.443 1619.16,926.738 1621.12,924.942 1623.08,923.054 1625.04,921.077 1627,919.01 1628.97,916.854 1630.93,914.61 1632.89,912.28 1634.85,909.863 1636.81,907.362 1638.77,904.776 1640.74,902.109 1642.7,899.36 1644.66,896.532 1646.62,893.625 1648.58,890.641 1650.54,887.583 1652.51,884.45 1654.47,881.247 1656.43,877.973 1658.39,874.631 1660.35,871.223 1662.31,867.75 1664.28,864.216 1666.24,860.621 1668.2,856.968 1670.16,853.26 1672.12,849.498 1674.08,845.685 1676.05,841.823 1678.01,837.915 1679.97,833.962 1681.93,829.968 1683.89,825.934 1685.85,821.864 1687.82,817.76 1689.78,813.624 1691.74,809.459 1693.7,805.267 1695.66,801.052 1697.62,796.816 1699.59,792.561 1701.55,788.291 1703.51,784.007 1705.47,779.713 1707.43,775.412 1709.39,771.105 1711.36,766.796 1713.32,762.488 1715.28,758.182 1717.24,753.882 1719.2,749.591 1721.16,745.311 1723.12,741.044 1725.09,736.794 1727.05,732.562 1729.01,728.352 1730.97,724.166 1732.93,720.006 1734.89,715.875 1736.86,711.775 1738.82,707.709 1740.78,703.68 1742.74,699.688 1744.7,695.738 1746.66,691.83 1748.63,687.967 1750.59,684.151 1752.55,680.385 1754.51,676.67 1756.47,673.008 1758.43,669.401 1760.4,665.852 1762.36,662.36 1764.32,658.93 1766.28,655.561 1768.24,652.256 1770.2,649.017 1772.17,645.844 1774.13,642.738 1776.09,639.703 1778.05,636.737 1780.01,633.843 1781.97,631.022 1783.94,628.275 1785.9,625.602 1787.86,623.004 1789.82,620.483 1791.78,618.038 1793.74,615.671 1795.71,613.382 1797.67,611.171 1799.63,609.039 1801.59,606.985 1803.55,605.011 1805.51,603.115 1807.48,601.299 1809.44,599.562 1811.4,597.904 1813.36,596.325 1815.32,594.823 1817.28,593.4 1819.25,592.054 1821.21,590.785 1823.17,589.591 1825.13,588.474 1827.09,587.43 1829.05,586.461 1831.02,585.564 1832.98,584.738 1834.94,583.983 1836.9,583.297 1838.86,582.68 1840.82,582.128 1842.79,581.642 1844.75,581.22 1846.71,580.859 1848.67,580.559 1850.63,580.318 1852.59,580.133 1854.56,580.004 1856.52,579.928 1858.48,579.903 1860.44,579.928 1862.4,579.999 1864.36,580.116 1866.33,580.276 1868.29,580.476 1870.25,580.715 1872.21,580.99 1874.17,581.299 1876.13,581.64 1878.1,582.009 1880.06,582.405 1882.02,582.826 1883.98,583.268 1885.94,583.729 1887.9,584.206 1889.87,584.698 1891.83,585.2 1893.79,585.712 1895.75,586.23 1897.71,586.751 1899.67,587.273 1901.64,587.793 1903.6,588.309 1905.56,588.817 1907.52,589.316 1909.48,589.803 1911.44,590.274 1913.41,590.727 1915.37,591.161 1917.33,591.571 1919.29,591.956 1921.25,592.313 1923.21,592.639 1925.17,592.932 1927.14,593.189 1929.1,593.408 1931.06,593.587 1933.02,593.723 1934.98,593.813 1936.94,593.856 1938.91,593.849 1940.87,593.791 1942.83,593.677 1944.79,593.508 1946.75,593.28 1948.71,592.992 1950.68,592.641 1952.64,592.226 1954.6,591.744 1956.56,591.195 1958.52,590.576 1960.48,589.885 1962.45,589.122 1964.41,588.284 1966.37,587.37 1968.33,586.379 1970.29,585.309 1972.25,584.159 1974.22,582.928 1976.18,581.615 1978.14,580.219 1980.1,578.739 1982.06,577.173 1984.02,575.522 1985.99,573.785 1987.95,571.96 1989.91,570.048 1991.87,568.048 1993.83,565.959 1995.79,563.782 1997.76,561.515 1999.72,559.16 2001.68,556.716 2003.64,554.183 2005.6,551.561 2007.56,548.85 2009.53,546.051 2011.49,543.164 2013.45,540.19 2015.41,537.128 2017.37,533.981 2019.33,530.748 2021.3,527.43 2023.26,524.028 2025.22,520.543 2027.18,516.977 2029.14,513.33 2031.1,509.603 2033.07,505.798 2035.03,501.916 2036.99,497.958 2038.95,493.926 2040.91,489.822 2042.87,485.647 2044.84,481.403 2046.8,477.091 2048.76,472.714 2050.72,468.273 2052.68,463.771 2054.64,459.208 2056.61,454.588 2058.57,449.912 2060.53,445.183 2062.49,440.402 2064.45,435.573 2066.41,430.697 2068.38,425.776 2070.34,420.814 2072.3,415.812 2074.26,410.772 2076.22,405.699 2078.18,400.593 2080.15,395.458 2082.11,390.296 2084.07,385.109 2086.03,379.901 2087.99,374.674 2089.95,369.431 2091.92,364.174 2093.88,358.906 2095.84,353.629 2097.8,348.347 2099.76,343.062 2101.72,337.777 2103.69,332.494 2105.65,327.217 2107.61,321.947 2109.57,316.688 2111.53,311.443 2113.49,306.213 2115.46,301.001 2117.42,295.811 2119.38,290.645 2121.34,285.504 2123.3,280.393 2125.26,275.313 2127.22,270.266 2129.19,265.256 2131.15,260.285 2133.11,255.354 2135.07,250.467 2137.03,245.625 2138.99,240.831 2140.96,236.087 2142.92,231.395 2144.88,226.757 2146.84,222.175 2148.8,217.652 2150.76,213.188 2152.73,208.786 2154.69,204.448 2156.65,200.175 2158.61,195.969 2160.57,191.831 2162.53,187.764 2164.5,183.768 2166.46,179.844 2168.42,175.995 2170.38,172.221 2172.34,168.524 2174.3,164.904 2176.27,161.362 2178.23,157.9 2180.19,154.518 2182.15,151.217 2184.11,147.997 2186.07,144.86 2188.04,141.805 2190,138.833 2191.96,135.945 2193.92,133.14 2195.88,130.419 2197.84,127.782 2199.81,125.228 2201.77,122.759 2203.73,120.373 2205.69,118.07 2207.65,115.85 2209.61,113.713 2211.58,111.657 2213.54,109.683 2215.5,107.79 2217.46,105.977 2219.42,104.242 2221.38,102.586 2223.35,101.008 2225.31,99.5051 2227.27,98.0775 2229.23,96.7236 2231.19,95.4423 2233.15,94.232 2235.12,93.0914 2237.08,92.0189 2239.04,91.013 2241,90.072 2242.96,89.1943 2244.92,88.3779 2246.89,87.6212 2248.85,86.9222 2250.81,86.2789 2252.77,85.6894 2254.73,85.1515 2256.69,84.6632 2258.66,84.2224 2260.62,83.8267 2262.58,83.474 2264.54,83.1619 2266.5,82.8881 2268.46,82.6502 2270.43,82.4458 2272.39,82.2725 2274.35,82.1278 2276.31,82.0091 2278.27,81.914 2280.23,81.8399 2282.2,81.7842 2284.16,81.7443 2286.12,81.7176 2288.08,81.7015 2290.04,81.6933 2292,81.6905 2293.97,81.6902 "/>
<path clip-path="url(#clip950)" d="M1847.8 287.953 L2283.51 287.953 L2283.51 80.5926 L1847.8 80.5926  Z" fill="#ffffff" fill-rule="evenodd" fill-opacity="1"/>
<polyline clip-path="url(#clip950)" style="stroke:#000000; stroke-linecap:round; stroke-linejoin:round; stroke-width:4; stroke-opacity:1; fill:none" points="1847.8,287.953 2283.51,287.953 2283.51,80.5926 1847.8,80.5926 1847.8,287.953 "/>
<polyline clip-path="url(#clip950)" style="stroke:#808080; stroke-linecap:round; stroke-linejoin:round; stroke-width:8; stroke-opacity:1; fill:none" points="1870.88,132.433 2009.37,132.433 "/>
<path clip-path="url(#clip950)" d="M2048.28 119.759 L2041.94 136.958 L2054.65 136.958 L2048.28 119.759 M2045.64 115.153 L2050.94 115.153 L2064.11 149.713 L2059.25 149.713 L2056.11 140.847 L2040.53 140.847 L2037.38 149.713 L2032.45 149.713 L2045.64 115.153 Z" fill="#000000" fill-rule="nonzero" fill-opacity="1" /><path clip-path="url(#clip950)" d="M2090.53 134.065 L2090.53 149.713 L2086.27 149.713 L2086.27 134.203 Q2086.27 130.523 2084.83 128.694 Q2083.4 126.866 2080.53 126.866 Q2077.08 126.866 2075.09 129.065 Q2073.1 131.264 2073.1 135.06 L2073.1 149.713 L2068.81 149.713 L2068.81 123.787 L2073.1 123.787 L2073.1 127.815 Q2074.62 125.477 2076.68 124.319 Q2078.77 123.162 2081.48 123.162 Q2085.94 123.162 2088.23 125.94 Q2090.53 128.694 2090.53 134.065 Z" fill="#000000" fill-rule="nonzero" fill-opacity="1" /><path clip-path="url(#clip950)" d="M2110.8 136.68 Q2105.64 136.68 2103.65 137.861 Q2101.66 139.041 2101.66 141.889 Q2101.66 144.157 2103.14 145.5 Q2104.65 146.819 2107.22 146.819 Q2110.76 146.819 2112.89 144.319 Q2115.04 141.796 2115.04 137.629 L2115.04 136.68 L2110.8 136.68 M2119.3 134.921 L2119.3 149.713 L2115.04 149.713 L2115.04 145.777 Q2113.58 148.139 2111.41 149.273 Q2109.23 150.384 2106.08 150.384 Q2102.1 150.384 2099.74 148.162 Q2097.4 145.916 2097.4 142.166 Q2097.4 137.791 2100.32 135.569 Q2103.26 133.347 2109.07 133.347 L2115.04 133.347 L2115.04 132.93 Q2115.04 129.991 2113.1 128.393 Q2111.17 126.773 2107.68 126.773 Q2105.46 126.773 2103.35 127.305 Q2101.24 127.838 2099.3 128.903 L2099.3 124.967 Q2101.64 124.065 2103.84 123.625 Q2106.04 123.162 2108.12 123.162 Q2113.74 123.162 2116.52 126.078 Q2119.3 128.995 2119.3 134.921 Z" fill="#000000" fill-rule="nonzero" fill-opacity="1" /><path clip-path="url(#clip950)" d="M2128.07 113.694 L2132.33 113.694 L2132.33 149.713 L2128.07 149.713 L2128.07 113.694 Z" fill="#000000" fill-rule="nonzero" fill-opacity="1" /><path clip-path="url(#clip950)" d="M2152.03 152.12 Q2150.23 156.75 2148.51 158.162 Q2146.8 159.574 2143.93 159.574 L2140.53 159.574 L2140.53 156.009 L2143.03 156.009 Q2144.79 156.009 2145.76 155.176 Q2146.73 154.342 2147.91 151.24 L2148.67 149.296 L2138.19 123.787 L2142.7 123.787 L2150.8 144.065 L2158.91 123.787 L2163.42 123.787 L2152.03 152.12 Z" fill="#000000" fill-rule="nonzero" fill-opacity="1" /><path clip-path="url(#clip950)" d="M2173.51 116.426 L2173.51 123.787 L2182.29 123.787 L2182.29 127.097 L2173.51 127.097 L2173.51 141.171 Q2173.51 144.342 2174.37 145.245 Q2175.25 146.148 2177.91 146.148 L2182.29 146.148 L2182.29 149.713 L2177.91 149.713 Q2172.98 149.713 2171.1 147.884 Q2169.23 146.032 2169.23 141.171 L2169.23 127.097 L2166.1 127.097 L2166.1 123.787 L2169.23 123.787 L2169.23 116.426 L2173.51 116.426 Z" fill="#000000" fill-rule="nonzero" fill-opacity="1" /><path clip-path="url(#clip950)" d="M2187.89 123.787 L2192.15 123.787 L2192.15 149.713 L2187.89 149.713 L2187.89 123.787 M2187.89 113.694 L2192.15 113.694 L2192.15 119.088 L2187.89 119.088 L2187.89 113.694 Z" fill="#000000" fill-rule="nonzero" fill-opacity="1" /><path clip-path="url(#clip950)" d="M2219.72 124.782 L2219.72 128.764 Q2217.91 127.768 2216.08 127.282 Q2214.28 126.773 2212.42 126.773 Q2208.28 126.773 2205.99 129.412 Q2203.7 132.028 2203.7 136.773 Q2203.7 141.518 2205.99 144.157 Q2208.28 146.773 2212.42 146.773 Q2214.28 146.773 2216.08 146.287 Q2217.91 145.777 2219.72 144.782 L2219.72 148.717 Q2217.93 149.551 2216.01 149.967 Q2214.11 150.384 2211.96 150.384 Q2206.1 150.384 2202.66 146.703 Q2199.21 143.023 2199.21 136.773 Q2199.21 130.43 2202.68 126.796 Q2206.17 123.162 2212.24 123.162 Q2214.21 123.162 2216.08 123.579 Q2217.96 123.972 2219.72 124.782 Z" fill="#000000" fill-rule="nonzero" fill-opacity="1" /><path clip-path="url(#clip950)" d="M2238.91 136.68 Q2233.74 136.68 2231.75 137.861 Q2229.76 139.041 2229.76 141.889 Q2229.76 144.157 2231.24 145.5 Q2232.75 146.819 2235.32 146.819 Q2238.86 146.819 2240.99 144.319 Q2243.14 141.796 2243.14 137.629 L2243.14 136.68 L2238.91 136.68 M2247.4 134.921 L2247.4 149.713 L2243.14 149.713 L2243.14 145.777 Q2241.68 148.139 2239.51 149.273 Q2237.33 150.384 2234.18 150.384 Q2230.2 150.384 2227.84 148.162 Q2225.5 145.916 2225.5 142.166 Q2225.5 137.791 2228.42 135.569 Q2231.36 133.347 2237.17 133.347 L2243.14 133.347 L2243.14 132.93 Q2243.14 129.991 2241.2 128.393 Q2239.28 126.773 2235.78 126.773 Q2233.56 126.773 2231.45 127.305 Q2229.34 127.838 2227.4 128.903 L2227.4 124.967 Q2229.74 124.065 2231.94 123.625 Q2234.14 123.162 2236.22 123.162 Q2241.84 123.162 2244.62 126.078 Q2247.4 128.995 2247.4 134.921 Z" fill="#000000" fill-rule="nonzero" fill-opacity="1" /><path clip-path="url(#clip950)" d="M2256.17 113.694 L2260.43 113.694 L2260.43 149.713 L2256.17 149.713 L2256.17 113.694 Z" fill="#000000" fill-rule="nonzero" fill-opacity="1" /><polyline clip-path="url(#clip950)" style="stroke:#ff0000; stroke-linecap:round; stroke-linejoin:round; stroke-width:4; stroke-opacity:1; fill:none" points="1870.88,184.273 2009.37,184.273 "/>
<path clip-path="url(#clip950)" d="M2054.69 168.127 L2054.69 172.687 Q2052.03 171.414 2049.67 170.789 Q2047.31 170.164 2045.11 170.164 Q2041.29 170.164 2039.21 171.645 Q2037.15 173.127 2037.15 175.858 Q2037.15 178.15 2038.51 179.331 Q2039.9 180.488 2043.74 181.206 L2046.57 181.784 Q2051.8 182.78 2054.28 185.303 Q2056.78 187.803 2056.78 192.016 Q2056.78 197.039 2053.4 199.631 Q2050.04 202.224 2043.54 202.224 Q2041.08 202.224 2038.3 201.668 Q2035.55 201.113 2032.59 200.025 L2032.59 195.21 Q2035.43 196.807 2038.17 197.617 Q2040.9 198.428 2043.54 198.428 Q2047.54 198.428 2049.72 196.854 Q2051.89 195.28 2051.89 192.363 Q2051.89 189.817 2050.32 188.381 Q2048.77 186.946 2045.2 186.229 L2042.36 185.673 Q2037.12 184.631 2034.79 182.409 Q2032.45 180.187 2032.45 176.229 Q2032.45 171.645 2035.67 169.006 Q2038.91 166.368 2044.58 166.368 Q2047.01 166.368 2049.53 166.807 Q2052.05 167.247 2054.69 168.127 Z" fill="#000000" fill-rule="nonzero" fill-opacity="1" /><path clip-path="url(#clip950)" d="M2064.07 166.993 L2068.74 166.993 L2068.74 197.617 L2085.57 197.617 L2085.57 201.553 L2064.07 201.553 L2064.07 166.993 Z" fill="#000000" fill-rule="nonzero" fill-opacity="1" /><path clip-path="url(#clip950)" d="M2095.16 170.835 L2095.16 183.821 L2101.04 183.821 Q2104.3 183.821 2106.08 182.131 Q2107.86 180.442 2107.86 177.317 Q2107.86 174.215 2106.08 172.525 Q2104.3 170.835 2101.04 170.835 L2095.16 170.835 M2090.48 166.993 L2101.04 166.993 Q2106.85 166.993 2109.81 169.631 Q2112.79 172.247 2112.79 177.317 Q2112.79 182.432 2109.81 185.048 Q2106.85 187.664 2101.04 187.664 L2095.16 187.664 L2095.16 201.553 L2090.48 201.553 L2090.48 166.993 Z" fill="#000000" fill-rule="nonzero" fill-opacity="1" /><polyline clip-path="url(#clip950)" style="stroke:#0000ff; stroke-linecap:round; stroke-linejoin:round; stroke-width:4; stroke-opacity:1; fill:none" stroke-dasharray="16, 8, 2, 8" points="1870.88,236.113 2009.37,236.113 "/>
<path clip-path="url(#clip950)" d="M2032.45 218.833 L2052.31 218.833 L2052.31 222.768 L2037.12 222.768 L2037.12 232.953 L2050.83 232.953 L2050.83 236.888 L2037.12 236.888 L2037.12 253.393 L2032.45 253.393 L2032.45 218.833 Z" fill="#000000" fill-rule="nonzero" fill-opacity="1" /><path clip-path="url(#clip950)" d="M2059.72 218.833 L2081.57 218.833 L2081.57 222.768 L2064.39 222.768 L2064.39 232.999 L2080.85 232.999 L2080.85 236.934 L2064.39 236.934 L2064.39 249.457 L2081.98 249.457 L2081.98 253.393 L2059.72 253.393 L2059.72 218.833 Z" fill="#000000" fill-rule="nonzero" fill-opacity="1" /><path clip-path="url(#clip950)" d="M2089.67 218.833 L2096.64 218.833 L2105.46 242.351 L2114.32 218.833 L2121.29 218.833 L2121.29 253.393 L2116.73 253.393 L2116.73 223.046 L2107.82 246.749 L2103.12 246.749 L2094.21 223.046 L2094.21 253.393 L2089.67 253.393 L2089.67 218.833 Z" fill="#000000" fill-rule="nonzero" fill-opacity="1" /></svg>
