<?xml version="1.0" encoding="utf-8"?>
<svg xmlns="http://www.w3.org/2000/svg" xmlns:xlink="http://www.w3.org/1999/xlink" width="600" height="300" viewBox="0 0 2400 1200">
<defs>
  <clipPath id="clip620">
    <rect x="0" y="0" width="2400" height="1200"/>
  </clipPath>
</defs>
<path clip-path="url(#clip620)" d="M0 1200 L2400 1200 L2400 0 L0 0  Z" fill="#ffffff" fill-rule="evenodd" fill-opacity="1"/>
<defs>
  <clipPath id="clip621">
    <rect x="275" y="47" width="2078" height="1001"/>
  </clipPath>
</defs>
<path clip-path="url(#clip620)" d="M275.486 1047.7 L2352.76 1047.7 L2352.76 47.2441 L275.486 47.2441  Z" fill="#ffffff" fill-rule="evenodd" fill-opacity="1"/>
<polyline clip-path="url(#clip621)" style="stroke:#000000; stroke-linecap:round; stroke-linejoin:round; stroke-width:2; stroke-opacity:0.1; fill:none" points="334.277,1047.7 334.277,47.2441 "/>
<polyline clip-path="url(#clip621)" style="stroke:#000000; stroke-linecap:round; stroke-linejoin:round; stroke-width:2; stroke-opacity:0.1; fill:none" points="824.199,1047.7 824.199,47.2441 "/>
<polyline clip-path="url(#clip621)" style="stroke:#000000; stroke-linecap:round; stroke-linejoin:round; stroke-width:2; stroke-opacity:0.1; fill:none" points="1314.12,1047.7 1314.12,47.2441 "/>
<polyline clip-path="url(#clip621)" style="stroke:#000000; stroke-linecap:round; stroke-linejoin:round; stroke-width:2; stroke-opacity:0.1; fill:none" points="1804.04,1047.7 1804.04,47.2441 "/>
<polyline clip-path="url(#clip621)" style="stroke:#000000; stroke-linecap:round; stroke-linejoin:round; stroke-width:2; stroke-opacity:0.1; fill:none" points="2293.97,1047.7 2293.97,47.2441 "/>
<polyline clip-path="url(#clip621)" style="stroke:#000000; stroke-linecap:round; stroke-linejoin:round; stroke-width:2; stroke-opacity:0.1; fill:none" points="275.486,942.906 2352.76,942.906 "/>
<polyline clip-path="url(#clip621)" style="stroke:#000000; stroke-linecap:round; stroke-linejoin:round; stroke-width:2; stroke-opacity:0.1; fill:none" points="275.486,727.602 2352.76,727.602 "/>
<polyline clip-path="url(#clip621)" style="stroke:#000000; stroke-linecap:round; stroke-linejoin:round; stroke-width:2; stroke-opacity:0.1; fill:none" points="275.486,512.298 2352.76,512.298 "/>
<polyline clip-path="url(#clip621)" style="stroke:#000000; stroke-linecap:round; stroke-linejoin:round; stroke-width:2; stroke-opacity:0.1; fill:none" points="275.486,296.994 2352.76,296.994 "/>
<polyline clip-path="url(#clip621)" style="stroke:#000000; stroke-linecap:round; stroke-linejoin:round; stroke-width:2; stroke-opacity:0.1; fill:none" points="275.486,81.6903 2352.76,81.6903 "/>
<polyline clip-path="url(#clip620)" style="stroke:#000000; stroke-linecap:round; stroke-linejoin:round; stroke-width:4; stroke-opacity:1; fill:none" points="275.486,1047.7 2352.76,1047.7 "/>
<polyline clip-path="url(#clip620)" style="stroke:#000000; stroke-linecap:round; stroke-linejoin:round; stroke-width:4; stroke-opacity:1; fill:none" points="334.277,1047.7 334.277,1028.8 "/>
<polyline clip-path="url(#clip620)" style="stroke:#000000; stroke-linecap:round; stroke-linejoin:round; stroke-width:4; stroke-opacity:1; fill:none" points="824.199,1047.7 824.199,1028.8 "/>
<polyline clip-path="url(#clip620)" style="stroke:#000000; stroke-linecap:round; stroke-linejoin:round; stroke-width:4; stroke-opacity:1; fill:none" points="1314.12,1047.7 1314.12,1028.8 "/>
<polyline clip-path="url(#clip620)" style="stroke:#000000; stroke-linecap:round; stroke-linejoin:round; stroke-width:4; stroke-opacity:1; fill:none" points="1804.04,1047.7 1804.04,1028.8 "/>
<polyline clip-path="url(#clip620)" style="stroke:#000000; stroke-linecap:round; stroke-linejoin:round; stroke-width:4; stroke-opacity:1; fill:none" points="2293.97,1047.7 2293.97,1028.8 "/>
<path clip-path="url(#clip620)" d="M296.58 1078.62 Q292.969 1078.62 291.14 1082.18 Q289.335 1085.72 289.335 1092.85 Q289.335 1099.96 291.14 1103.53 Q292.969 1107.07 296.58 1107.07 Q300.214 1107.07 302.02 1103.53 Q303.848 1099.96 303.848 1092.85 Q303.848 1085.72 302.02 1082.18 Q300.214 1078.62 296.58 1078.62 M296.58 1074.91 Q302.39 1074.91 305.446 1079.52 Q308.524 1084.1 308.524 1092.85 Q308.524 1101.58 305.446 1106.19 Q302.39 1110.77 296.58 1110.77 Q290.77 1110.77 287.691 1106.19 Q284.636 1101.58 284.636 1092.85 Q284.636 1084.1 287.691 1079.52 Q290.77 1074.91 296.58 1074.91 Z" fill="#000000" fill-rule="nonzero" fill-opacity="1" /><path clip-path="url(#clip620)" d="M316.742 1104.22 L321.626 1104.22 L321.626 1110.1 L316.742 1110.1 L316.742 1104.22 Z" fill="#000000" fill-rule="nonzero" fill-opacity="1" /><path clip-path="url(#clip620)" d="M341.811 1078.62 Q338.2 1078.62 336.371 1082.18 Q334.566 1085.72 334.566 1092.85 Q334.566 1099.96 336.371 1103.53 Q338.2 1107.07 341.811 1107.07 Q345.445 1107.07 347.251 1103.53 Q349.08 1099.96 349.08 1092.85 Q349.08 1085.72 347.251 1082.18 Q345.445 1078.62 341.811 1078.62 M341.811 1074.91 Q347.621 1074.91 350.677 1079.52 Q353.756 1084.1 353.756 1092.85 Q353.756 1101.58 350.677 1106.19 Q347.621 1110.77 341.811 1110.77 Q336.001 1110.77 332.922 1106.19 Q329.867 1101.58 329.867 1092.85 Q329.867 1084.1 332.922 1079.52 Q336.001 1074.91 341.811 1074.91 Z" fill="#000000" fill-rule="nonzero" fill-opacity="1" /><path clip-path="url(#clip620)" d="M371.973 1078.62 Q368.362 1078.62 366.533 1082.18 Q364.728 1085.72 364.728 1092.85 Q364.728 1099.96 366.533 1103.53 Q368.362 1107.07 371.973 1107.07 Q375.607 1107.07 377.413 1103.53 Q379.242 1099.96 379.242 1092.85 Q379.242 1085.72 377.413 1082.18 Q375.607 1078.62 371.973 1078.62 M371.973 1074.91 Q377.783 1074.91 380.839 1079.52 Q383.918 1084.1 383.918 1092.85 Q383.918 1101.58 380.839 1106.19 Q377.783 1110.77 371.973 1110.77 Q366.163 1110.77 363.084 1106.19 Q360.029 1101.58 360.029 1092.85 Q360.029 1084.1 363.084 1079.52 Q366.163 1074.91 371.973 1074.91 Z" fill="#000000" fill-rule="nonzero" fill-opacity="1" /><path clip-path="url(#clip620)" d="M787 1078.62 Q783.389 1078.62 781.56 1082.18 Q779.755 1085.72 779.755 1092.85 Q779.755 1099.96 781.56 1103.53 Q783.389 1107.07 787 1107.07 Q790.634 1107.07 792.44 1103.53 Q794.268 1099.96 794.268 1092.85 Q794.268 1085.72 792.44 1082.18 Q790.634 1078.62 787 1078.62 M787 1074.91 Q792.81 1074.91 795.866 1079.52 Q798.944 1084.1 798.944 1092.85 Q798.944 1101.58 795.866 1106.19 Q792.81 1110.77 787 1110.77 Q781.19 1110.77 778.111 1106.19 Q775.055 1101.58 775.055 1092.85 Q775.055 1084.1 778.111 1079.52 Q781.19 1074.91 787 1074.91 Z" fill="#000000" fill-rule="nonzero" fill-opacity="1" /><path clip-path="url(#clip620)" d="M807.162 1104.22 L812.046 1104.22 L812.046 1110.1 L807.162 1110.1 L807.162 1104.22 Z" fill="#000000" fill-rule="nonzero" fill-opacity="1" /><path clip-path="url(#clip620)" d="M826.259 1106.16 L842.578 1106.16 L842.578 1110.1 L820.634 1110.1 L820.634 1106.16 Q823.296 1103.41 827.879 1098.78 Q832.486 1094.13 833.666 1092.79 Q835.912 1090.26 836.791 1088.53 Q837.694 1086.77 837.694 1085.08 Q837.694 1082.32 835.75 1080.59 Q833.828 1078.85 830.726 1078.85 Q828.527 1078.85 826.074 1079.61 Q823.643 1080.38 820.865 1081.93 L820.865 1077.21 Q823.689 1076.07 826.143 1075.49 Q828.597 1074.91 830.634 1074.91 Q836.004 1074.91 839.199 1077.6 Q842.393 1080.29 842.393 1084.78 Q842.393 1086.91 841.583 1088.83 Q840.796 1090.72 838.689 1093.32 Q838.111 1093.99 835.009 1097.21 Q831.907 1100.4 826.259 1106.16 Z" fill="#000000" fill-rule="nonzero" fill-opacity="1" /><path clip-path="url(#clip620)" d="M852.439 1075.54 L870.796 1075.54 L870.796 1079.48 L856.722 1079.48 L856.722 1087.95 Q857.74 1087.6 858.759 1087.44 Q859.777 1087.25 860.796 1087.25 Q866.583 1087.25 869.962 1090.42 Q873.342 1093.6 873.342 1099.01 Q873.342 1104.59 869.87 1107.69 Q866.398 1110.77 860.078 1110.77 Q857.902 1110.77 855.634 1110.4 Q853.388 1110.03 850.981 1109.29 L850.981 1104.59 Q853.064 1105.72 855.287 1106.28 Q857.509 1106.84 859.986 1106.84 Q863.99 1106.84 866.328 1104.73 Q868.666 1102.62 868.666 1099.01 Q868.666 1095.4 866.328 1093.29 Q863.99 1091.19 859.986 1091.19 Q858.111 1091.19 856.236 1091.6 Q854.384 1092.02 852.439 1092.9 L852.439 1075.54 Z" fill="#000000" fill-rule="nonzero" fill-opacity="1" /><path clip-path="url(#clip620)" d="M1276.42 1078.62 Q1272.81 1078.62 1270.98 1082.18 Q1269.18 1085.72 1269.18 1092.85 Q1269.18 1099.96 1270.98 1103.53 Q1272.81 1107.07 1276.42 1107.07 Q1280.06 1107.07 1281.86 1103.53 Q1283.69 1099.96 1283.69 1092.85 Q1283.69 1085.72 1281.86 1082.18 Q1280.06 1078.62 1276.42 1078.62 M1276.42 1074.91 Q1282.23 1074.91 1285.29 1079.52 Q1288.37 1084.1 1288.37 1092.85 Q1288.37 1101.58 1285.29 1106.19 Q1282.23 1110.77 1276.42 1110.77 Q1270.61 1110.77 1267.54 1106.19 Q1264.48 1101.58 1264.48 1092.85 Q1264.48 1084.1 1267.54 1079.52 Q1270.61 1074.91 1276.42 1074.91 Z" fill="#000000" fill-rule="nonzero" fill-opacity="1" /><path clip-path="url(#clip620)" d="M1296.59 1104.22 L1301.47 1104.22 L1301.47 1110.1 L1296.59 1110.1 L1296.59 1104.22 Z" fill="#000000" fill-rule="nonzero" fill-opacity="1" /><path clip-path="url(#clip620)" d="M1311.7 1075.54 L1330.06 1075.54 L1330.06 1079.48 L1315.98 1079.48 L1315.98 1087.95 Q1317 1087.6 1318.02 1087.44 Q1319.04 1087.25 1320.06 1087.25 Q1325.85 1087.25 1329.22 1090.42 Q1332.6 1093.6 1332.6 1099.01 Q1332.6 1104.59 1329.13 1107.69 Q1325.66 1110.77 1319.34 1110.77 Q1317.16 1110.77 1314.9 1110.4 Q1312.65 1110.03 1310.24 1109.29 L1310.24 1104.59 Q1312.33 1105.72 1314.55 1106.28 Q1316.77 1106.84 1319.25 1106.84 Q1323.25 1106.84 1325.59 1104.73 Q1327.93 1102.62 1327.93 1099.01 Q1327.93 1095.4 1325.59 1093.29 Q1323.25 1091.19 1319.25 1091.19 Q1317.37 1091.19 1315.5 1091.6 Q1313.65 1092.02 1311.7 1092.9 L1311.7 1075.54 Z" fill="#000000" fill-rule="nonzero" fill-opacity="1" /><path clip-path="url(#clip620)" d="M1351.82 1078.62 Q1348.21 1078.62 1346.38 1082.18 Q1344.57 1085.72 1344.57 1092.85 Q1344.57 1099.96 1346.38 1103.53 Q1348.21 1107.07 1351.82 1107.07 Q1355.45 1107.07 1357.26 1103.53 Q1359.09 1099.96 1359.09 1092.85 Q1359.09 1085.72 1357.26 1082.18 Q1355.45 1078.62 1351.82 1078.62 M1351.82 1074.91 Q1357.63 1074.91 1360.68 1079.52 Q1363.76 1084.1 1363.76 1092.85 Q1363.76 1101.58 1360.68 1106.19 Q1357.63 1110.77 1351.82 1110.77 Q1346.01 1110.77 1342.93 1106.19 Q1339.87 1101.58 1339.87 1092.85 Q1339.87 1084.1 1342.93 1079.52 Q1346.01 1074.91 1351.82 1074.91 Z" fill="#000000" fill-rule="nonzero" fill-opacity="1" /><path clip-path="url(#clip620)" d="M1766.84 1078.62 Q1763.23 1078.62 1761.4 1082.18 Q1759.6 1085.72 1759.6 1092.85 Q1759.6 1099.96 1761.4 1103.53 Q1763.23 1107.07 1766.84 1107.07 Q1770.48 1107.07 1772.28 1103.53 Q1774.11 1099.96 1774.11 1092.85 Q1774.11 1085.72 1772.28 1082.18 Q1770.48 1078.62 1766.84 1078.62 M1766.84 1074.91 Q1772.65 1074.91 1775.71 1079.52 Q1778.79 1084.1 1778.79 1092.85 Q1778.79 1101.58 1775.71 1106.19 Q1772.65 1110.77 1766.84 1110.77 Q1761.03 1110.77 1757.96 1106.19 Q1754.9 1101.58 1754.9 1092.85 Q1754.9 1084.1 1757.96 1079.52 Q1761.03 1074.91 1766.84 1074.91 Z" fill="#000000" fill-rule="nonzero" fill-opacity="1" /><path clip-path="url(#clip620)" d="M1787.01 1104.22 L1791.89 1104.22 L1791.89 1110.1 L1787.01 1110.1 L1787.01 1104.22 Z" fill="#000000" fill-rule="nonzero" fill-opacity="1" /><path clip-path="url(#clip620)" d="M1800.89 1075.54 L1823.12 1075.54 L1823.12 1077.53 L1810.57 1110.1 L1805.69 1110.1 L1817.49 1079.48 L1800.89 1079.48 L1800.89 1075.54 Z" fill="#000000" fill-rule="nonzero" fill-opacity="1" /><path clip-path="url(#clip620)" d="M1832.28 1075.54 L1850.64 1075.54 L1850.64 1079.48 L1836.57 1079.48 L1836.57 1087.95 Q1837.58 1087.6 1838.6 1087.44 Q1839.62 1087.25 1840.64 1087.25 Q1846.43 1087.25 1849.81 1090.42 Q1853.19 1093.6 1853.19 1099.01 Q1853.19 1104.59 1849.71 1107.69 Q1846.24 1110.77 1839.92 1110.77 Q1837.75 1110.77 1835.48 1110.4 Q1833.23 1110.03 1830.83 1109.29 L1830.83 1104.59 Q1832.91 1105.72 1835.13 1106.28 Q1837.35 1106.84 1839.83 1106.84 Q1843.83 1106.84 1846.17 1104.73 Q1848.51 1102.62 1848.51 1099.01 Q1848.51 1095.4 1846.17 1093.29 Q1843.83 1091.19 1839.83 1091.19 Q1837.95 1091.19 1836.08 1091.6 Q1834.23 1092.02 1832.28 1092.9 L1832.28 1075.54 Z" fill="#000000" fill-rule="nonzero" fill-opacity="1" /><path clip-path="url(#clip620)" d="M2246.04 1106.16 L2253.68 1106.16 L2253.68 1079.8 L2245.37 1081.47 L2245.37 1077.21 L2253.63 1075.54 L2258.31 1075.54 L2258.31 1106.16 L2265.94 1106.16 L2265.94 1110.1 L2246.04 1110.1 L2246.04 1106.16 Z" fill="#000000" fill-rule="nonzero" fill-opacity="1" /><path clip-path="url(#clip620)" d="M2275.39 1104.22 L2280.27 1104.22 L2280.27 1110.1 L2275.39 1110.1 L2275.39 1104.22 Z" fill="#000000" fill-rule="nonzero" fill-opacity="1" /><path clip-path="url(#clip620)" d="M2300.46 1078.62 Q2296.85 1078.62 2295.02 1082.18 Q2293.21 1085.72 2293.21 1092.85 Q2293.21 1099.96 2295.02 1103.53 Q2296.85 1107.07 2300.46 1107.07 Q2304.09 1107.07 2305.9 1103.53 Q2307.73 1099.96 2307.73 1092.85 Q2307.73 1085.72 2305.9 1082.18 Q2304.09 1078.62 2300.46 1078.62 M2300.46 1074.91 Q2306.27 1074.91 2309.32 1079.52 Q2312.4 1084.1 2312.4 1092.85 Q2312.4 1101.58 2309.32 1106.19 Q2306.27 1110.77 2300.46 1110.77 Q2294.65 1110.77 2291.57 1106.19 Q2288.51 1101.58 2288.51 1092.85 Q2288.51 1084.1 2291.57 1079.52 Q2294.65 1074.91 2300.46 1074.91 Z" fill="#000000" fill-rule="nonzero" fill-opacity="1" /><path clip-path="url(#clip620)" d="M2330.62 1078.62 Q2327.01 1078.62 2325.18 1082.18 Q2323.37 1085.72 2323.37 1092.85 Q2323.37 1099.96 2325.18 1103.53 Q2327.01 1107.07 2330.62 1107.07 Q2334.25 1107.07 2336.06 1103.53 Q2337.89 1099.96 2337.89 1092.85 Q2337.89 1085.72 2336.06 1082.18 Q2334.25 1078.62 2330.62 1078.62 M2330.62 1074.91 Q2336.43 1074.91 2339.49 1079.52 Q2342.56 1084.1 2342.56 1092.85 Q2342.56 1101.58 2339.49 1106.19 Q2336.43 1110.77 2330.62 1110.77 Q2324.81 1110.77 2321.73 1106.19 Q2318.68 1101.58 2318.68 1092.85 Q2318.68 1084.1 2321.73 1079.52 Q2324.81 1074.91 2330.62 1074.91 Z" fill="#000000" fill-rule="nonzero" fill-opacity="1" /><path clip-path="url(#clip620)" d="M1330.74 1156.92 L1317.84 1174.26 L1331.4 1192.56 L1324.5 1192.56 L1314.12 1178.56 L1303.74 1192.56 L1296.84 1192.56 L1310.68 1173.91 L1298.02 1156.92 L1304.92 1156.92 L1314.38 1169.62 L1323.83 1156.92 L1330.74 1156.92 Z" fill="#000000" fill-rule="nonzero" fill-opacity="1" /><polyline clip-path="url(#clip620)" style="stroke:#000000; stroke-linecap:round; stroke-linejoin:round; stroke-width:4; stroke-opacity:1; fill:none" points="275.486,1047.7 275.486,47.2441 "/>
<polyline clip-path="url(#clip620)" style="stroke:#000000; stroke-linecap:round; stroke-linejoin:round; stroke-width:4; stroke-opacity:1; fill:none" points="275.486,942.906 294.384,942.906 "/>
<polyline clip-path="url(#clip620)" style="stroke:#000000; stroke-linecap:round; stroke-linejoin:round; stroke-width:4; stroke-opacity:1; fill:none" points="275.486,727.602 294.384,727.602 "/>
<polyline clip-path="url(#clip620)" style="stroke:#000000; stroke-linecap:round; stroke-linejoin:round; stroke-width:4; stroke-opacity:1; fill:none" points="275.486,512.298 294.384,512.298 "/>
<polyline clip-path="url(#clip620)" style="stroke:#000000; stroke-linecap:round; stroke-linejoin:round; stroke-width:4; stroke-opacity:1; fill:none" points="275.486,296.994 294.384,296.994 "/>
<polyline clip-path="url(#clip620)" style="stroke:#000000; stroke-linecap:round; stroke-linejoin:round; stroke-width:4; stroke-opacity:1; fill:none" points="275.486,81.6903 294.384,81.6903 "/>
<path clip-path="url(#clip620)" d="M102.38 943.358 L132.056 943.358 L132.056 947.293 L102.38 947.293 L102.38 943.358 Z" fill="#000000" fill-rule="nonzero" fill-opacity="1" /><path clip-path="url(#clip620)" d="M142.959 956.251 L150.597 956.251 L150.597 929.886 L142.287 931.552 L142.287 927.293 L150.551 925.626 L155.227 925.626 L155.227 956.251 L162.866 956.251 L162.866 960.186 L142.959 960.186 L142.959 956.251 Z" fill="#000000" fill-rule="nonzero" fill-opacity="1" /><path clip-path="url(#clip620)" d="M172.31 954.307 L177.195 954.307 L177.195 960.186 L172.31 960.186 L172.31 954.307 Z" fill="#000000" fill-rule="nonzero" fill-opacity="1" /><path clip-path="url(#clip620)" d="M197.38 928.705 Q193.769 928.705 191.94 932.27 Q190.134 935.811 190.134 942.941 Q190.134 950.048 191.94 953.612 Q193.769 957.154 197.38 957.154 Q201.014 957.154 202.819 953.612 Q204.648 950.048 204.648 942.941 Q204.648 935.811 202.819 932.27 Q201.014 928.705 197.38 928.705 M197.38 925.001 Q203.19 925.001 206.245 929.608 Q209.324 934.191 209.324 942.941 Q209.324 951.668 206.245 956.274 Q203.19 960.858 197.38 960.858 Q191.569 960.858 188.491 956.274 Q185.435 951.668 185.435 942.941 Q185.435 934.191 188.491 929.608 Q191.569 925.001 197.38 925.001 Z" fill="#000000" fill-rule="nonzero" fill-opacity="1" /><path clip-path="url(#clip620)" d="M227.542 928.705 Q223.93 928.705 222.102 932.27 Q220.296 935.811 220.296 942.941 Q220.296 950.048 222.102 953.612 Q223.93 957.154 227.542 957.154 Q231.176 957.154 232.981 953.612 Q234.81 950.048 234.81 942.941 Q234.81 935.811 232.981 932.27 Q231.176 928.705 227.542 928.705 M227.542 925.001 Q233.352 925.001 236.407 929.608 Q239.486 934.191 239.486 942.941 Q239.486 951.668 236.407 956.274 Q233.352 960.858 227.542 960.858 Q221.731 960.858 218.653 956.274 Q215.597 951.668 215.597 942.941 Q215.597 934.191 218.653 929.608 Q221.731 925.001 227.542 925.001 Z" fill="#000000" fill-rule="nonzero" fill-opacity="1" /><path clip-path="url(#clip620)" d="M103.376 728.054 L133.051 728.054 L133.051 731.989 L103.376 731.989 L103.376 728.054 Z" fill="#000000" fill-rule="nonzero" fill-opacity="1" /><path clip-path="url(#clip620)" d="M153.144 713.401 Q149.533 713.401 147.704 716.966 Q145.898 720.507 145.898 727.637 Q145.898 734.744 147.704 738.308 Q149.533 741.85 153.144 741.85 Q156.778 741.85 158.584 738.308 Q160.412 734.744 160.412 727.637 Q160.412 720.507 158.584 716.966 Q156.778 713.401 153.144 713.401 M153.144 709.697 Q158.954 709.697 162.009 714.304 Q165.088 718.887 165.088 727.637 Q165.088 736.364 162.009 740.97 Q158.954 745.554 153.144 745.554 Q147.334 745.554 144.255 740.97 Q141.199 736.364 141.199 727.637 Q141.199 718.887 144.255 714.304 Q147.334 709.697 153.144 709.697 Z" fill="#000000" fill-rule="nonzero" fill-opacity="1" /><path clip-path="url(#clip620)" d="M173.306 739.003 L178.19 739.003 L178.19 744.882 L173.306 744.882 L173.306 739.003 Z" fill="#000000" fill-rule="nonzero" fill-opacity="1" /><path clip-path="url(#clip620)" d="M187.195 710.322 L209.417 710.322 L209.417 712.313 L196.87 744.882 L191.986 744.882 L203.792 714.258 L187.195 714.258 L187.195 710.322 Z" fill="#000000" fill-rule="nonzero" fill-opacity="1" /><path clip-path="url(#clip620)" d="M218.583 710.322 L236.94 710.322 L236.94 714.258 L222.866 714.258 L222.866 722.73 Q223.884 722.382 224.903 722.22 Q225.921 722.035 226.94 722.035 Q232.727 722.035 236.106 725.207 Q239.486 728.378 239.486 733.794 Q239.486 739.373 236.014 742.475 Q232.541 745.554 226.222 745.554 Q224.046 745.554 221.778 745.183 Q219.532 744.813 217.125 744.072 L217.125 739.373 Q219.208 740.507 221.43 741.063 Q223.653 741.618 226.129 741.618 Q230.134 741.618 232.472 739.512 Q234.81 737.406 234.81 733.794 Q234.81 730.183 232.472 728.077 Q230.134 725.97 226.129 725.97 Q224.255 725.97 222.38 726.387 Q220.528 726.804 218.583 727.683 L218.583 710.322 Z" fill="#000000" fill-rule="nonzero" fill-opacity="1" /><path clip-path="url(#clip620)" d="M102.38 512.75 L132.056 512.75 L132.056 516.685 L102.38 516.685 L102.38 512.75 Z" fill="#000000" fill-rule="nonzero" fill-opacity="1" /><path clip-path="url(#clip620)" d="M152.148 498.097 Q148.537 498.097 146.709 501.662 Q144.903 505.203 144.903 512.333 Q144.903 519.439 146.709 523.004 Q148.537 526.546 152.148 526.546 Q155.783 526.546 157.588 523.004 Q159.417 519.439 159.417 512.333 Q159.417 505.203 157.588 501.662 Q155.783 498.097 152.148 498.097 M152.148 494.393 Q157.959 494.393 161.014 499 Q164.093 503.583 164.093 512.333 Q164.093 521.06 161.014 525.666 Q157.959 530.25 152.148 530.25 Q146.338 530.25 143.26 525.666 Q140.204 521.06 140.204 512.333 Q140.204 503.583 143.26 499 Q146.338 494.393 152.148 494.393 Z" fill="#000000" fill-rule="nonzero" fill-opacity="1" /><path clip-path="url(#clip620)" d="M172.31 523.699 L177.195 523.699 L177.195 529.578 L172.31 529.578 L172.31 523.699 Z" fill="#000000" fill-rule="nonzero" fill-opacity="1" /><path clip-path="url(#clip620)" d="M187.426 495.018 L205.782 495.018 L205.782 498.953 L191.708 498.953 L191.708 507.426 Q192.727 507.078 193.745 506.916 Q194.764 506.731 195.782 506.731 Q201.569 506.731 204.949 509.903 Q208.329 513.074 208.329 518.49 Q208.329 524.069 204.856 527.171 Q201.384 530.25 195.065 530.25 Q192.889 530.25 190.62 529.879 Q188.375 529.509 185.968 528.768 L185.968 524.069 Q188.051 525.203 190.273 525.759 Q192.495 526.314 194.972 526.314 Q198.977 526.314 201.315 524.208 Q203.653 522.102 203.653 518.49 Q203.653 514.879 201.315 512.773 Q198.977 510.666 194.972 510.666 Q193.097 510.666 191.222 511.083 Q189.37 511.5 187.426 512.379 L187.426 495.018 Z" fill="#000000" fill-rule="nonzero" fill-opacity="1" /><path clip-path="url(#clip620)" d="M227.542 498.097 Q223.93 498.097 222.102 501.662 Q220.296 505.203 220.296 512.333 Q220.296 519.439 222.102 523.004 Q223.93 526.546 227.542 526.546 Q231.176 526.546 232.981 523.004 Q234.81 519.439 234.81 512.333 Q234.81 505.203 232.981 501.662 Q231.176 498.097 227.542 498.097 M227.542 494.393 Q233.352 494.393 236.407 499 Q239.486 503.583 239.486 512.333 Q239.486 521.06 236.407 525.666 Q233.352 530.25 227.542 530.25 Q221.731 530.25 218.653 525.666 Q215.597 521.06 215.597 512.333 Q215.597 503.583 218.653 499 Q221.731 494.393 227.542 494.393 Z" fill="#000000" fill-rule="nonzero" fill-opacity="1" /><path clip-path="url(#clip620)" d="M103.376 297.446 L133.051 297.446 L133.051 301.381 L103.376 301.381 L103.376 297.446 Z" fill="#000000" fill-rule="nonzero" fill-opacity="1" /><path clip-path="url(#clip620)" d="M153.144 282.793 Q149.533 282.793 147.704 286.358 Q145.898 289.899 145.898 297.029 Q145.898 304.135 147.704 307.7 Q149.533 311.242 153.144 311.242 Q156.778 311.242 158.584 307.7 Q160.412 304.135 160.412 297.029 Q160.412 289.899 158.584 286.358 Q156.778 282.793 153.144 282.793 M153.144 279.089 Q158.954 279.089 162.009 283.696 Q165.088 288.279 165.088 297.029 Q165.088 305.756 162.009 310.362 Q158.954 314.946 153.144 314.946 Q147.334 314.946 144.255 310.362 Q141.199 305.756 141.199 297.029 Q141.199 288.279 144.255 283.696 Q147.334 279.089 153.144 279.089 Z" fill="#000000" fill-rule="nonzero" fill-opacity="1" /><path clip-path="url(#clip620)" d="M173.306 308.395 L178.19 308.395 L178.19 314.274 L173.306 314.274 L173.306 308.395 Z" fill="#000000" fill-rule="nonzero" fill-opacity="1" /><path clip-path="url(#clip620)" d="M192.403 310.339 L208.722 310.339 L208.722 314.274 L186.778 314.274 L186.778 310.339 Q189.44 307.585 194.023 302.955 Q198.63 298.302 199.81 296.96 Q202.056 294.436 202.935 292.7 Q203.838 290.941 203.838 289.251 Q203.838 286.497 201.894 284.761 Q199.972 283.024 196.87 283.024 Q194.671 283.024 192.218 283.788 Q189.787 284.552 187.009 286.103 L187.009 281.381 Q189.833 280.247 192.287 279.668 Q194.741 279.089 196.778 279.089 Q202.148 279.089 205.343 281.774 Q208.537 284.46 208.537 288.95 Q208.537 291.08 207.727 293.001 Q206.94 294.899 204.833 297.492 Q204.255 298.163 201.153 301.381 Q198.051 304.575 192.403 310.339 Z" fill="#000000" fill-rule="nonzero" fill-opacity="1" /><path clip-path="url(#clip620)" d="M218.583 279.714 L236.94 279.714 L236.94 283.649 L222.866 283.649 L222.866 292.122 Q223.884 291.774 224.903 291.612 Q225.921 291.427 226.94 291.427 Q232.727 291.427 236.106 294.598 Q239.486 297.77 239.486 303.186 Q239.486 308.765 236.014 311.867 Q232.541 314.946 226.222 314.946 Q224.046 314.946 221.778 314.575 Q219.532 314.205 217.125 313.464 L217.125 308.765 Q219.208 309.899 221.43 310.455 Q223.653 311.01 226.129 311.01 Q230.134 311.01 232.472 308.904 Q234.81 306.797 234.81 303.186 Q234.81 299.575 232.472 297.469 Q230.134 295.362 226.129 295.362 Q224.255 295.362 222.38 295.779 Q220.528 296.196 218.583 297.075 L218.583 279.714 Z" fill="#000000" fill-rule="nonzero" fill-opacity="1" /><path clip-path="url(#clip620)" d="M152.148 67.489 Q148.537 67.489 146.709 71.0538 Q144.903 74.5954 144.903 81.725 Q144.903 88.8315 146.709 92.3963 Q148.537 95.9379 152.148 95.9379 Q155.783 95.9379 157.588 92.3963 Q159.417 88.8315 159.417 81.725 Q159.417 74.5954 157.588 71.0538 Q155.783 67.489 152.148 67.489 M152.148 63.7853 Q157.959 63.7853 161.014 68.3918 Q164.093 72.9751 164.093 81.725 Q164.093 90.4518 161.014 95.0583 Q157.959 99.6416 152.148 99.6416 Q146.338 99.6416 143.26 95.0583 Q140.204 90.4518 140.204 81.725 Q140.204 72.9751 143.26 68.3918 Q146.338 63.7853 152.148 63.7853 Z" fill="#000000" fill-rule="nonzero" fill-opacity="1" /><path clip-path="url(#clip620)" d="M172.31 93.0907 L177.195 93.0907 L177.195 98.9703 L172.31 98.9703 L172.31 93.0907 Z" fill="#000000" fill-rule="nonzero" fill-opacity="1" /><path clip-path="url(#clip620)" d="M197.38 67.489 Q193.769 67.489 191.94 71.0538 Q190.134 74.5954 190.134 81.725 Q190.134 88.8315 191.94 92.3963 Q193.769 95.9379 197.38 95.9379 Q201.014 95.9379 202.819 92.3963 Q204.648 88.8315 204.648 81.725 Q204.648 74.5954 202.819 71.0538 Q201.014 67.489 197.38 67.489 M197.38 63.7853 Q203.19 63.7853 206.245 68.3918 Q209.324 72.9751 209.324 81.725 Q209.324 90.4518 206.245 95.0583 Q203.19 99.6416 197.38 99.6416 Q191.569 99.6416 188.491 95.0583 Q185.435 90.4518 185.435 81.725 Q185.435 72.9751 188.491 68.3918 Q191.569 63.7853 197.38 63.7853 Z" fill="#000000" fill-rule="nonzero" fill-opacity="1" /><path clip-path="url(#clip620)" d="M227.542 67.489 Q223.93 67.489 222.102 71.0538 Q220.296 74.5954 220.296 81.725 Q220.296 88.8315 222.102 92.3963 Q223.93 95.9379 227.542 95.9379 Q231.176 95.9379 232.981 92.3963 Q234.81 88.8315 234.81 81.725 Q234.81 74.5954 232.981 71.0538 Q231.176 67.489 227.542 67.489 M227.542 63.7853 Q233.352 63.7853 236.407 68.3918 Q239.486 72.9751 239.486 81.725 Q239.486 90.4518 236.407 95.0583 Q233.352 99.6416 227.542 99.6416 Q221.731 99.6416 218.653 95.0583 Q215.597 90.4518 215.597 81.725 Q215.597 72.9751 218.653 68.3918 Q221.731 63.7853 227.542 63.7853 Z" fill="#000000" fill-rule="nonzero" fill-opacity="1" /><path clip-path="url(#clip620)" d="M38.0559 607.278 L16.4762 607.278 L16.4762 601.421 L37.8331 601.421 Q42.8939 601.421 45.4402 599.448 Q47.9546 597.475 47.9546 593.528 Q47.9546 588.785 44.9309 586.048 Q41.9072 583.279 36.6873 583.279 L16.4762 583.279 L16.4762 577.423 L52.1242 577.423 L52.1242 583.279 L46.6496 583.279 Q49.8962 585.412 51.4876 588.244 Q53.0472 591.045 53.0472 594.769 Q53.0472 600.912 49.2278 604.095 Q45.4083 607.278 38.0559 607.278 M15.6168 592.541 L15.6168 592.541 Z" fill="#000000" fill-rule="nonzero" fill-opacity="1" /><path clip-path="url(#clip620)" d="M2.66262 551.291 Q9.98318 555.556 17.1446 557.625 Q24.306 559.694 31.6584 559.694 Q39.0108 559.694 46.2359 557.625 Q53.4291 555.525 60.7179 551.291 L60.7179 556.384 Q53.2382 561.158 46.0131 563.545 Q38.788 565.901 31.6584 565.901 Q24.5606 565.901 17.3674 563.545 Q10.1742 561.19 2.66262 556.384 L2.66262 551.291 Z" fill="#000000" fill-rule="nonzero" fill-opacity="1" /><path clip-path="url(#clip620)" d="M16.4762 510.296 L33.8228 523.187 L52.1242 509.628 L52.1242 516.535 L38.1196 526.911 L52.1242 537.287 L52.1242 544.194 L33.4726 530.348 L16.4762 543.016 L16.4762 536.109 L29.1758 526.656 L16.4762 517.203 L16.4762 510.296 Z" fill="#000000" fill-rule="nonzero" fill-opacity="1" /><path clip-path="url(#clip620)" d="M2.66262 502.275 L2.66262 497.183 Q10.1742 492.409 17.3674 490.053 Q24.5606 487.666 31.6584 487.666 Q38.788 487.666 46.0131 490.053 Q53.2382 492.409 60.7179 497.183 L60.7179 502.275 Q53.4291 498.042 46.2359 495.973 Q39.0108 493.873 31.6584 493.873 Q24.306 493.873 17.1446 495.973 Q9.98318 498.042 2.66262 502.275 Z" fill="#000000" fill-rule="nonzero" fill-opacity="1" /><polyline clip-path="url(#clip621)" style="stroke:#808080; stroke-linecap:round; stroke-linejoin:round; stroke-width:8; stroke-opacity:1; fill:none" points="334.277,81.6903 336.238,87.1064 338.2,92.5199 340.162,97.9279 342.123,103.328 344.085,108.717 346.046,114.093 348.008,119.452 349.97,124.793 351.931,130.112 353.893,135.408 355.855,140.676 357.816,145.916 359.778,151.124 361.74,156.297 363.701,161.434 365.663,166.532 367.625,171.589 369.586,176.601 371.548,181.567 373.51,186.485 375.471,191.353 377.433,196.167 379.395,200.927 381.356,205.629 383.318,210.273 385.279,214.856 387.241,219.376 389.203,223.831 391.164,228.22 393.126,232.54 395.088,236.791 397.049,240.971 399.011,245.078 400.973,249.11 402.934,253.067 404.896,256.948 406.858,260.75 408.819,264.473 410.781,268.115 412.743,271.677 414.704,275.156 416.666,278.553 418.628,281.865 420.589,285.094 422.551,288.238 424.512,291.296 426.474,294.269 428.436,297.155 430.397,299.956 432.359,302.669 434.321,305.297 436.282,307.838 438.244,310.292 440.206,312.661 442.167,314.943 444.129,317.14 446.091,319.252 448.052,321.279 450.014,323.222 451.976,325.082 453.937,326.859 455.899,328.555 457.861,330.17 459.822,331.705 461.784,333.161 463.745,334.54 465.707,335.843 467.669,337.07 469.63,338.224 471.592,339.306 473.554,340.317 475.515,341.259 477.477,342.134 479.439,342.943 481.4,343.688 483.362,344.371 485.324,344.994 487.285,345.559 489.247,346.067 491.209,346.521 493.17,346.924 495.132,347.276 497.094,347.581 499.055,347.841 501.017,348.057 502.978,348.233 504.94,348.37 506.902,348.472 508.863,348.54 510.825,348.577 512.787,348.586 514.748,348.568 516.71,348.528 518.672,348.466 520.633,348.387 522.595,348.291 524.557,348.183 526.518,348.065 528.48,347.939 530.442,347.807 532.403,347.674 534.365,347.541 536.327,347.41 538.288,347.286 540.25,347.169 542.211,347.063 544.173,346.971 546.135,346.895 548.096,346.837 550.058,346.801 552.02,346.788 553.981,346.802 555.943,346.844 557.905,346.917 559.866,347.024 561.828,347.167 563.79,347.348 565.751,347.57 567.713,347.834 569.675,348.144 571.636,348.5 573.598,348.906 575.56,349.364 577.521,349.874 579.483,350.44 581.445,351.063 583.406,351.745 585.368,352.488 587.329,353.294 589.291,354.163 591.253,355.099 593.214,356.101 595.176,357.172 597.138,358.314 599.099,359.526 601.061,360.811 603.023,362.17 604.984,363.603 606.946,365.113 608.908,366.698 610.869,368.362 612.831,370.103 614.793,371.924 616.754,373.824 618.716,375.804 620.678,377.864 622.639,380.005 624.601,382.227 626.562,384.531 628.524,386.915 630.486,389.381 632.447,391.929 634.409,394.557 636.371,397.266 638.332,400.055 640.294,402.925 642.256,405.874 644.217,408.902 646.179,412.008 648.141,415.192 650.102,418.453 652.064,421.79 654.026,425.201 655.987,428.686 657.949,432.244 659.911,435.874 661.872,439.573 663.834,443.342 665.795,447.177 667.757,451.079 669.719,455.045 671.68,459.073 673.642,463.163 675.604,467.311 677.565,471.517 679.527,475.779 681.489,480.094 683.45,484.46 685.412,488.876 687.374,493.339 689.335,497.847 691.297,502.398 693.259,506.989 695.22,511.619 697.182,516.285 699.144,520.984 701.105,525.715 703.067,530.474 705.028,535.259 706.99,540.068 708.952,544.898 710.913,549.746 712.875,554.61 714.837,559.488 716.798,564.376 718.76,569.271 720.722,574.172 722.683,579.076 724.645,583.98 726.607,588.88 728.568,593.775 730.53,598.662 732.492,603.538 734.453,608.4 736.415,613.246 738.377,618.073 740.338,622.878 742.3,627.66 744.261,632.414 746.223,637.138 748.185,641.831 750.146,646.489 752.108,651.11 754.07,655.691 756.031,660.23 757.993,664.725 759.955,669.172 761.916,673.571 763.878,677.918 765.84,682.211 767.801,686.448 769.763,690.627 771.725,694.746 773.686,698.803 775.648,702.795 777.61,706.721 779.571,710.58 781.533,714.368 783.494,718.085 785.456,721.728 787.418,725.296 789.379,728.789 791.341,732.203 793.303,735.538 795.264,738.792 797.226,741.964 799.188,745.053 801.149,748.058 803.111,750.978 805.073,753.812 807.034,756.559 808.996,759.217 810.958,761.788 812.919,764.269 814.881,766.66 816.843,768.962 818.804,771.173 820.766,773.293 822.727,775.322 824.689,777.26 826.651,779.106 828.612,780.862 830.574,782.526 832.536,784.1 834.497,785.583 836.459,786.976 838.421,788.28 840.382,789.494 842.344,790.62 844.306,791.658 846.267,792.609 848.229,793.474 850.191,794.254 852.152,794.949 854.114,795.562 856.076,796.092 858.037,796.543 859.999,796.913 861.961,797.206 863.922,797.423 865.884,797.565 867.845,797.633 869.807,797.63 871.769,797.557 873.73,797.416 875.692,797.209 877.654,796.937 879.615,796.603 881.577,796.209 883.539,795.757 885.5,795.249 887.462,794.687 889.424,794.074 891.385,793.411 893.347,792.701 895.309,791.946 897.27,791.15 899.232,790.313 901.194,789.439 903.155,788.531 905.117,787.59 907.078,786.619 909.04,785.621 911.002,784.598 912.963,783.554 914.925,782.49 916.887,781.409 918.848,780.314 920.81,779.208 922.772,778.094 924.733,776.973 926.695,775.848 928.657,774.723 930.618,773.6 932.58,772.481 934.542,771.369 936.503,770.268 938.465,769.178 940.427,768.104 942.388,767.047 944.35,766.01 946.311,764.995 948.273,764.006 950.235,763.044 952.196,762.112 954.158,761.213 956.12,760.348 958.081,759.52 960.043,758.731 962.005,757.984 963.966,757.28 965.928,756.621 967.89,756.011 969.851,755.45 971.813,754.941 973.775,754.485 975.736,754.085 977.698,753.742 979.66,753.458 981.621,753.234 983.583,753.073 985.544,752.975 987.506,752.942 989.468,752.975 991.429,753.076 993.391,753.246 995.353,753.486 997.314,753.797 999.276,754.18 1001.24,754.636 1003.2,755.166 1005.16,755.771 1007.12,756.451 1009.08,757.206 1011.05,758.038 1013.01,758.946 1014.97,759.932 1016.93,760.995 1018.89,762.135 1020.85,763.353 1022.82,764.648 1024.78,766.021 1026.74,767.472 1028.7,768.999 1030.66,770.603 1032.62,772.283 1034.59,774.039 1036.55,775.871 1038.51,777.777 1040.47,779.757 1042.43,781.809 1044.39,783.934 1046.36,786.13 1048.32,788.396 1050.28,790.731 1052.24,793.133 1054.2,795.602 1056.16,798.136 1058.13,800.733 1060.09,803.393 1062.05,806.113 1064.01,808.891 1065.97,811.727 1067.93,814.619 1069.9,817.563 1071.86,820.56 1073.82,823.606 1075.78,826.7 1077.74,829.839 1079.7,833.022 1081.67,836.246 1083.63,839.51 1085.59,842.81 1087.55,846.144 1089.51,849.511 1091.47,852.908 1093.44,856.332 1095.4,859.78 1097.36,863.252 1099.32,866.743 1101.28,870.251 1103.24,873.774 1105.21,877.309 1107.17,880.854 1109.13,884.405 1111.09,887.961 1113.05,891.518 1115.01,895.075 1116.98,898.627 1118.94,902.173 1120.9,905.71 1122.86,909.234 1124.82,912.745 1126.78,916.238 1128.74,919.711 1130.71,923.162 1132.67,926.587 1134.63,929.985 1136.59,933.352 1138.55,936.687 1140.51,939.985 1142.48,943.246 1144.44,946.466 1146.4,949.643 1148.36,952.775 1150.32,955.859 1152.28,958.892 1154.25,961.873 1156.21,964.799 1158.17,967.669 1160.13,970.479 1162.09,973.227 1164.05,975.912 1166.02,978.532 1167.98,981.084 1169.94,983.568 1171.9,985.979 1173.86,988.318 1175.82,990.583 1177.79,992.771 1179.75,994.881 1181.71,996.912 1183.67,998.862 1185.63,1000.73 1187.59,1002.51 1189.56,1004.21 1191.52,1005.83 1193.48,1007.35 1195.44,1008.79 1197.4,1010.14 1199.36,1011.4 1201.33,1012.57 1203.29,1013.65 1205.25,1014.64 1207.21,1015.53 1209.17,1016.33 1211.13,1017.04 1213.1,1017.66 1215.06,1018.18 1217.02,1018.61 1218.98,1018.94 1220.94,1019.18 1222.9,1019.33 1224.87,1019.39 1226.83,1019.35 1228.79,1019.22 1230.75,1018.99 1232.71,1018.68 1234.67,1018.28 1236.64,1017.78 1238.6,1017.2 1240.56,1016.53 1242.52,1015.77 1244.48,1014.93 1246.44,1014 1248.41,1012.98 1250.37,1011.89 1252.33,1010.71 1254.29,1009.46 1256.25,1008.12 1258.21,1006.71 1260.18,1005.22 1262.14,1003.66 1264.1,1002.03 1266.06,1000.33 1268.02,998.564 1269.98,996.729 1271.95,994.831 1273.91,992.871 1275.87,990.851 1277.83,988.774 1279.79,986.641 1281.75,984.456 1283.72,982.219 1285.68,979.935 1287.64,977.604 1289.6,975.23 1291.56,972.814 1293.52,970.36 1295.49,967.87 1297.45,965.346 1299.41,962.791 1301.37,960.208 1303.33,957.599 1305.29,954.967 1307.26,952.314 1309.22,949.644 1311.18,946.958 1313.14,944.259 1315.1,941.551 1317.06,938.836 1319.03,936.116 1320.99,933.394 1322.95,930.673 1324.91,927.956 1326.87,925.245 1328.83,922.542 1330.79,919.851 1332.76,917.174 1334.72,914.514 1336.68,911.872 1338.64,909.252 1340.6,906.657 1342.56,904.088 1344.53,901.548 1346.49,899.039 1348.45,896.564 1350.41,894.125 1352.37,891.724 1354.33,889.364 1356.3,887.046 1358.26,884.774 1360.22,882.548 1362.18,880.371 1364.14,878.245 1366.1,876.171 1368.07,874.152 1370.03,872.19 1371.99,870.285 1373.95,868.44 1375.91,866.657 1377.87,864.936 1379.84,863.279 1381.8,861.688 1383.76,860.163 1385.72,858.707 1387.68,857.32 1389.64,856.003 1391.61,854.758 1393.57,853.584 1395.53,852.484 1397.49,851.457 1399.45,850.505 1401.41,849.627 1403.38,848.826 1405.34,848.1 1407.3,847.45 1409.26,846.877 1411.22,846.38 1413.18,845.96 1415.15,845.617 1417.11,845.351 1419.07,845.161 1421.03,845.047 1422.99,845.009 1424.95,845.047 1426.92,845.16 1428.88,845.347 1430.84,845.607 1432.8,845.941 1434.76,846.347 1436.72,846.824 1438.69,847.372 1440.65,847.988 1442.61,848.673 1444.57,849.424 1446.53,850.242 1448.49,851.123 1450.46,852.067 1452.42,853.072 1454.38,854.137 1456.34,855.26 1458.3,856.439 1460.26,857.673 1462.23,858.96 1464.19,860.297 1466.15,861.684 1468.11,863.117 1470.07,864.595 1472.03,866.116 1474,867.677 1475.96,869.277 1477.92,870.913 1479.88,872.582 1481.84,874.283 1483.8,876.013 1485.77,877.77 1487.73,879.55 1489.69,881.353 1491.65,883.175 1493.61,885.013 1495.57,886.865 1497.54,888.729 1499.5,890.602 1501.46,892.481 1503.42,894.363 1505.38,896.247 1507.34,898.129 1509.31,900.006 1511.27,901.877 1513.23,903.737 1515.19,905.586 1517.15,907.419 1519.11,909.235 1521.08,911.03 1523.04,912.803 1525,914.549 1526.96,916.268 1528.92,917.956 1530.88,919.61 1532.84,921.229 1534.81,922.809 1536.77,924.348 1538.73,925.844 1540.69,927.295 1542.65,928.697 1544.61,930.049 1546.58,931.348 1548.54,932.592 1550.5,933.779 1552.46,934.907 1554.42,935.973 1556.38,936.976 1558.35,937.913 1560.31,938.783 1562.27,939.584 1564.23,940.314 1566.19,940.971 1568.15,941.553 1570.12,942.059 1572.08,942.488 1574.04,942.837 1576,943.106 1577.96,943.293 1579.92,943.396 1581.89,943.416 1583.85,943.35 1585.81,943.197 1587.77,942.957 1589.73,942.628 1591.69,942.21 1593.66,941.702 1595.62,941.104 1597.58,940.414 1599.54,939.633 1601.5,938.76 1603.46,937.794 1605.43,936.736 1607.39,935.586 1609.35,934.342 1611.31,933.006 1613.27,931.577 1615.23,930.056 1617.2,928.443 1619.16,926.738 1621.12,924.941 1623.08,923.054 1625.04,921.076 1627,919.009 1628.97,916.853 1630.93,914.61 1632.89,912.279 1634.85,909.863 1636.81,907.361 1638.77,904.776 1640.74,902.109 1642.7,899.36 1644.66,896.532 1646.62,893.625 1648.58,890.642 1650.54,887.583 1652.51,884.451 1654.47,881.247 1656.43,877.974 1658.39,874.632 1660.35,871.224 1662.31,867.752 1664.28,864.217 1666.24,860.623 1668.2,856.97 1670.16,853.262 1672.12,849.5 1674.08,845.687 1676.05,841.826 1678.01,837.917 1679.97,833.965 1681.93,829.971 1683.89,825.937 1685.85,821.867 1687.82,817.763 1689.78,813.627 1691.74,809.462 1693.7,805.271 1695.66,801.056 1697.62,796.82 1699.59,792.566 1701.55,788.295 1703.51,784.012 1705.47,779.718 1707.43,775.417 1709.39,771.111 1711.36,766.802 1713.32,762.494 1715.28,758.188 1717.24,753.889 1719.2,749.598 1721.16,745.317 1723.12,741.051 1725.09,736.801 1727.05,732.569 1729.01,728.359 1730.97,724.173 1732.93,720.013 1734.89,715.883 1736.86,711.783 1738.82,707.718 1740.78,703.688 1742.74,699.697 1744.7,695.746 1746.66,691.839 1748.63,687.976 1750.59,684.16 1752.55,680.394 1754.51,676.679 1756.47,673.018 1758.43,669.411 1760.4,665.861 1762.36,662.37 1764.32,658.94 1766.28,655.571 1768.24,652.267 1770.2,649.027 1772.17,645.854 1774.13,642.749 1776.09,639.713 1778.05,636.748 1780.01,633.854 1781.97,631.033 1783.94,628.285 1785.9,625.613 1787.86,623.015 1789.82,620.494 1791.78,618.049 1793.74,615.682 1795.71,613.393 1797.67,611.182 1799.63,609.049 1801.59,606.996 1803.55,605.022 1805.51,603.126 1807.48,601.31 1809.44,599.573 1811.4,597.915 1813.36,596.335 1815.32,594.834 1817.28,593.411 1819.25,592.064 1821.21,590.795 1823.17,589.602 1825.13,588.484 1827.09,587.441 1829.05,586.471 1831.02,585.574 1832.98,584.748 1834.94,583.993 1836.9,583.307 1838.86,582.689 1840.82,582.138 1842.79,581.652 1844.75,581.229 1846.71,580.868 1848.67,580.568 1850.63,580.327 1852.59,580.142 1854.56,580.013 1856.52,579.936 1858.48,579.911 1860.44,579.936 1862.4,580.007 1864.36,580.124 1866.33,580.283 1868.29,580.484 1870.25,580.722 1872.21,580.997 1874.17,581.306 1876.13,581.646 1878.1,582.016 1880.06,582.412 1882.02,582.832 1883.98,583.273 1885.94,583.734 1887.9,584.211 1889.87,584.703 1891.83,585.205 1893.79,585.717 1895.75,586.234 1897.71,586.755 1899.67,587.277 1901.64,587.797 1903.6,588.312 1905.56,588.821 1907.52,589.319 1909.48,589.805 1911.44,590.277 1913.41,590.73 1915.37,591.163 1917.33,591.573 1919.29,591.958 1921.25,592.314 1923.21,592.64 1925.17,592.933 1927.14,593.19 1929.1,593.409 1931.06,593.588 1933.02,593.723 1934.98,593.814 1936.94,593.856 1938.91,593.849 1940.87,593.79 1942.83,593.677 1944.79,593.507 1946.75,593.279 1948.71,592.991 1950.68,592.64 1952.64,592.224 1954.6,591.743 1956.56,591.193 1958.52,590.574 1960.48,589.883 1962.45,589.12 1964.41,588.282 1966.37,587.368 1968.33,586.376 1970.29,585.306 1972.25,584.156 1974.22,582.925 1976.18,581.612 1978.14,580.216 1980.1,578.736 1982.06,577.17 1984.02,575.519 1985.99,573.781 1987.95,571.957 1989.91,570.045 1991.87,568.044 1993.83,565.956 1995.79,563.778 1997.76,561.512 1999.72,559.157 2001.68,556.713 2003.64,554.179 2005.6,551.557 2007.56,548.846 2009.53,546.047 2011.49,543.161 2013.45,540.186 2015.41,537.125 2017.37,533.977 2019.33,530.744 2021.3,527.426 2023.26,524.025 2025.22,520.54 2027.18,516.974 2029.14,513.326 2031.1,509.6 2033.07,505.795 2035.03,501.913 2036.99,497.955 2038.95,493.924 2040.91,489.82 2042.87,485.645 2044.84,481.401 2046.8,477.089 2048.76,472.712 2050.72,468.271 2052.68,463.769 2054.64,459.207 2056.61,454.586 2058.57,449.911 2060.53,445.182 2062.49,440.401 2064.45,435.572 2066.41,430.696 2068.38,425.775 2070.34,420.813 2072.3,415.811 2074.26,410.772 2076.22,405.699 2078.18,400.593 2080.15,395.458 2082.11,390.296 2084.07,385.11 2086.03,379.902 2087.99,374.675 2089.95,369.432 2091.92,364.175 2093.88,358.907 2095.84,353.631 2097.8,348.349 2099.76,343.064 2101.72,337.779 2103.69,332.497 2105.65,327.22 2107.61,321.95 2109.57,316.691 2111.53,311.446 2113.49,306.216 2115.46,301.005 2117.42,295.815 2119.38,290.648 2121.34,285.508 2123.3,280.397 2125.26,275.317 2127.22,270.271 2129.19,265.261 2131.15,260.29 2133.11,255.359 2135.07,250.472 2137.03,245.63 2138.99,240.836 2140.96,236.093 2142.92,231.401 2144.88,226.763 2146.84,222.181 2148.8,217.658 2150.76,213.194 2152.73,208.793 2154.69,204.454 2156.65,200.182 2158.61,195.976 2160.57,191.838 2162.53,187.771 2164.5,183.775 2166.46,179.852 2168.42,176.002 2170.38,172.229 2172.34,168.531 2174.3,164.911 2176.27,161.37 2178.23,157.907 2180.19,154.525 2182.15,151.224 2184.11,148.005 2186.07,144.867 2188.04,141.812 2190,138.841 2191.96,135.952 2193.92,133.147 2195.88,130.426 2197.84,127.789 2199.81,125.236 2201.77,122.766 2203.73,120.38 2205.69,118.077 2207.65,115.857 2209.61,113.72 2211.58,111.664 2213.54,109.69 2215.5,107.797 2217.46,105.983 2219.42,104.249 2221.38,102.593 2223.35,101.014 2225.31,99.5116 2227.27,98.0838 2229.23,96.7299 2231.19,95.4484 2233.15,94.238 2235.12,93.0972 2237.08,92.0246 2239.04,91.0185 2241,90.0774 2242.96,89.1995 2244.92,88.383 2246.89,87.6261 2248.85,86.9269 2250.81,86.2835 2252.77,85.6938 2254.73,85.1557 2256.69,84.6673 2258.66,84.2262 2260.62,83.8303 2262.58,83.4774 2264.54,83.1651 2266.5,82.8911 2268.46,82.653 2270.43,82.4485 2272.39,82.2749 2274.35,82.13 2276.31,82.0112 2278.27,81.9158 2280.23,81.8415 2282.2,81.7856 2284.16,81.7455 2286.12,81.7186 2288.08,81.7022 2290.04,81.6938 2292,81.6907 2293.97,81.6903 "/>
<polyline clip-path="url(#clip621)" style="stroke:#ff0000; stroke-linecap:round; stroke-linejoin:round; stroke-width:4; stroke-opacity:1; fill:none" points="334.277,75.5589 336.238,85.5142 338.2,89.5147 340.162,93.7233 342.123,95.9046 344.085,105.192 346.046,110.967 348.008,117.134 349.97,118.57 351.931,125.515 353.893,126.988 355.855,133.047 357.816,137.787 359.778,143.098 361.74,146.47 363.701,154.868 365.663,155.932 367.625,164.02 369.586,168.276 371.548,170.473 373.51,176.4 375.471,182.399 377.433,185.251 379.395,185.327 381.356,192.48 383.318,196.393 385.279,202.749 387.241,204.214 389.203,207.349 391.164,212.003 393.126,216.997 395.088,220.117 397.049,220.852 399.011,228.804 400.973,228.152 402.934,230.639 404.896,233.311 406.858,241.857 408.819,247.057 410.781,249.172 412.743,251.642 414.704,254.982 416.666,256.156 418.628,262.032 420.589,263.941 422.551,268.375 424.512,272.177 426.474,270.742 428.436,278.201 430.397,281.793 432.359,283.712 434.321,289.54 436.282,292.687 438.244,293.105 440.206,298.763 442.167,295.153 444.129,297.233 446.091,303.582 448.052,309.025 450.014,311.35 451.976,309.428 453.937,317.922 455.899,317.042 457.861,320.875 459.822,324.19 461.784,326.2 463.745,330.562 465.707,331.497 467.669,331.245 469.63,336.489 471.592,336.068 473.554,336.094 475.515,339.97 477.477,345.875 479.439,346.549 481.4,349.27 483.362,352.305 485.324,353.53 487.285,356.109 489.247,355.035 491.209,353.112 493.17,356.959 495.132,361.244 497.094,365.5 499.055,367.611 501.017,368.645 502.978,369.075 504.94,371.085 506.902,368.694 508.863,378.871 510.825,380.772 512.787,377.136 514.748,375.781 516.71,381.617 518.672,380.031 520.633,386.935 522.595,389.47 524.557,387.215 526.518,384.832 528.48,387.86 530.442,395.986 532.403,393.583 534.365,398.702 536.327,397.052 538.288,396.664 540.25,398.669 542.211,396.034 544.173,403.421 546.135,402.939 548.096,402.175 550.058,404.131 552.02,406.169 553.981,404.008 555.943,411.697 557.905,409.684 559.866,408.734 561.828,412.712 563.79,411.437 565.751,411.167 567.713,417.99 569.675,417.43 571.636,415.236 573.598,412.575 575.56,418.431 577.521,417.442 579.483,420.57 581.445,420.106 583.406,421.84 585.368,421.511 587.329,420.791 589.291,423.704 591.253,422.968 593.214,427.109 595.176,430.826 597.138,431.168 599.099,430.701 601.061,425.093 603.023,427.933 604.984,428.671 606.946,433.626 608.908,431.08 610.869,430.597 612.831,435.689 614.793,431.412 616.754,436.089 618.716,434.872 620.678,437.556 622.639,439.479 624.601,438.339 626.562,437.137 628.524,439.975 630.486,443.854 632.447,444.353 634.409,442.565 636.371,446.572 638.332,444.53 640.294,446.723 642.256,447.086 644.217,445.279 646.179,445.849 648.141,447.296 650.102,452.378 652.064,451.919 654.026,449.41 655.987,453.228 657.949,454.773 659.911,458.535 661.872,454.335 663.834,456.439 665.795,458.141 667.757,459.935 669.719,461.53 671.68,462.477 673.642,464.695 675.604,464.481 677.565,468.908 679.527,467.023 681.489,462.017 683.45,470.802 685.412,469.764 687.374,473.406 689.335,472.946 691.297,475.848 693.259,477.861 695.22,474.158 697.182,482.889 699.144,480.208 701.105,483.33 703.067,479.461 705.028,482.776 706.99,483.542 708.952,488.483 710.913,489.036 712.875,489.942 714.837,493.479 716.798,493.364 718.76,495.361 720.722,497.933 722.683,499.607 724.645,505.066 726.607,501.604 728.568,501.387 730.53,510.126 732.492,510.675 734.453,512.864 736.415,514.6 738.377,515.747 740.338,518.545 742.3,518.99 744.261,525.756 746.223,525.505 748.185,521.364 750.146,524.934 752.108,528.959 754.07,530.663 756.031,533.643 757.993,536.516 759.955,538.806 761.916,541.786 763.878,541.959 765.84,547.25 767.801,549.249 769.763,552.23 771.725,554.649 773.686,555.449 775.648,555.112 777.61,560.499 779.571,561.928 781.533,566.817 783.494,568.566 785.456,572.21 787.418,571.919 789.379,577.074 791.341,580.724 793.303,581.246 795.264,585.709 797.226,585.275 799.188,588.627 801.149,593.377 803.111,596.579 805.073,598.092 807.034,598.059 808.996,601.742 810.958,607.746 812.919,608.236 814.881,613.529 816.843,616.776 818.804,618.984 820.766,628.593 822.727,623.418 824.689,631.814 826.651,630.487 828.612,628.809 830.574,639.594 832.536,641.246 834.497,646.102 836.459,649.752 838.421,651.439 840.382,657.845 842.344,659.114 844.306,662.084 846.267,662.735 848.229,664.696 850.191,674.619 852.152,675.264 854.114,679.961 856.076,679.201 858.037,682.686 859.999,690.111 861.961,693.256 863.922,694.5 865.884,693.357 867.845,702.251 869.807,709.084 871.769,711.936 873.73,714.224 875.692,714.823 877.654,719 879.615,726.005 881.577,721.927 883.539,728.684 885.5,731.061 887.462,736.005 889.424,741.719 891.385,742.072 893.347,743.216 895.309,750.968 897.27,751.467 899.232,758.271 901.194,761.266 903.155,763.881 905.117,768.161 907.078,769.72 909.04,775.616 911.002,775.75 912.963,780.719 914.925,785.23 916.887,790.386 918.848,790.649 920.81,795.922 922.772,796.644 924.733,803.737 926.695,803.406 928.657,806.755 930.618,810.261 932.58,813.227 934.542,816.52 936.503,818.784 938.465,825.276 940.427,828.308 942.388,829.534 944.35,832.81 946.311,837.033 948.273,842.039 950.235,844.391 952.196,848.528 954.158,850.995 956.12,853.475 958.081,857.748 960.043,861.276 962.005,860.141 963.966,861.248 965.928,865.71 967.89,870.743 969.851,878.494 971.813,877.753 973.775,880.535 975.736,882.764 977.698,883.826 979.66,885.939 981.621,894.995 983.583,892.175 985.544,896.184 987.506,900.178 989.468,902.877 991.429,903.314 993.391,904.617 995.353,906.021 997.314,916.534 999.276,912.886 1001.24,920.056 1003.2,920.868 1005.16,923.686 1007.12,929.202 1009.08,928.743 1011.05,925.73 1013.01,931.677 1014.97,932.969 1016.93,936.913 1018.89,936.203 1020.85,942.35 1022.82,942.161 1024.78,946.728 1026.74,946.015 1028.7,948.591 1030.66,948.207 1032.62,953.23 1034.59,953.417 1036.55,956.299 1038.51,964.256 1040.47,964.848 1042.43,964.878 1044.39,965.582 1046.36,963.679 1048.32,965.877 1050.28,969.748 1052.24,972.97 1054.2,972.071 1056.16,973.364 1058.13,973.809 1060.09,973.211 1062.05,978.218 1064.01,976.244 1065.97,976.472 1067.93,977.056 1069.9,981.096 1071.86,983.19 1073.82,984.562 1075.78,984.243 1077.74,986.63 1079.7,988.458 1081.67,989.099 1083.63,982.996 1085.59,991.199 1087.55,991.35 1089.51,989.173 1091.47,988.406 1093.44,992.904 1095.4,994.865 1097.36,991.019 1099.32,992.303 1101.28,995.685 1103.24,988.789 1105.21,992.79 1107.17,995.34 1109.13,994.724 1111.09,996.708 1113.05,996.452 1115.01,998.071 1116.98,999.489 1118.94,998.965 1120.9,1003.92 1122.86,997.929 1124.82,996.434 1126.78,997.762 1128.74,998.259 1130.71,1000.07 1132.67,996.224 1134.63,994.782 1136.59,994.902 1138.55,997.335 1140.51,992.866 1142.48,996.163 1144.44,996.367 1146.4,993.892 1148.36,997.266 1150.32,994.539 1152.28,991.548 1154.25,992.999 1156.21,994.051 1158.17,989.151 1160.13,993.48 1162.09,985.762 1164.05,992.79 1166.02,989.132 1167.98,990.063 1169.94,988.494 1171.9,989.448 1173.86,986.937 1175.82,986.039 1177.79,984.179 1179.75,983.123 1181.71,981.193 1183.67,979.788 1185.63,979.178 1187.59,980.816 1189.56,974.726 1191.52,976.086 1193.48,975.606 1195.44,976.12 1197.4,973.022 1199.36,973.408 1201.33,969.582 1203.29,970.594 1205.25,970.278 1207.21,967.445 1209.17,961.671 1211.13,963.605 1213.1,964.475 1215.06,963.852 1217.02,961.443 1218.98,960.037 1220.94,957.516 1222.9,948.117 1224.87,953.551 1226.83,951.724 1228.79,952.43 1230.75,950.047 1232.71,948.135 1234.67,945.137 1236.64,945.737 1238.6,946.14 1240.56,942.903 1242.52,942.609 1244.48,942.943 1246.44,933.533 1248.41,940.526 1250.37,940.17 1252.33,933.04 1254.29,934.362 1256.25,928.599 1258.21,930.639 1260.18,924.605 1262.14,925.046 1264.1,923.739 1266.06,920.806 1268.02,918.203 1269.98,919.92 1271.95,913.28 1273.91,914.557 1275.87,911.579 1277.83,913.35 1279.79,908.838 1281.75,908.396 1283.72,909.704 1285.68,901.759 1287.64,901.255 1289.6,899.595 1291.56,899.268 1293.52,895.134 1295.49,896.294 1297.45,893.709 1299.41,895.313 1301.37,890.692 1303.33,890.612 1305.29,887.699 1307.26,885.668 1309.22,886.286 1311.18,877.81 1313.14,880.4 1315.1,878.629 1317.06,874.887 1319.03,874.036 1320.99,875.624 1322.95,869.27 1324.91,871.029 1326.87,865.156 1328.83,869.495 1330.79,867.148 1332.76,864.083 1334.72,863.273 1336.68,856.92 1338.64,860.303 1340.6,856.691 1342.56,856.01 1344.53,852.365 1346.49,853.691 1348.45,853.999 1350.41,849.983 1352.37,847.333 1354.33,846.647 1356.3,850.365 1358.26,843.433 1360.22,843.76 1362.18,844.19 1364.14,840.044 1366.1,839.637 1368.07,843.034 1370.03,842.904 1371.99,834.181 1373.95,836.357 1375.91,836.922 1377.87,832.156 1379.84,832.802 1381.8,833.585 1383.76,832.97 1385.72,829.384 1387.68,830.252 1389.64,822.568 1391.61,829.446 1393.57,827.076 1395.53,823.567 1397.49,820.471 1399.45,823.509 1401.41,821.543 1403.38,815.8 1405.34,823.033 1407.3,824.422 1409.26,819.194 1411.22,817.893 1413.18,818.414 1415.15,817.353 1417.11,818.632 1419.07,814.363 1421.03,810.712 1422.99,815.493 1424.95,814.62 1426.92,812.688 1428.88,815.1 1430.84,815.241 1432.8,815.297 1434.76,812.166 1436.72,809.651 1438.69,808.375 1440.65,806.826 1442.61,810.819 1444.57,807.01 1446.53,810.62 1448.49,813.081 1450.46,812.736 1452.42,807.27 1454.38,809.269 1456.34,809.003 1458.3,808.282 1460.26,814.774 1462.23,810.053 1464.19,809.094 1466.15,809.821 1468.11,811.81 1470.07,811.675 1472.03,811.888 1474,811.748 1475.96,808.845 1477.92,808.318 1479.88,811.29 1481.84,809.396 1483.8,809.813 1485.77,813.177 1487.73,807.488 1489.69,812.264 1491.65,806.634 1493.61,813.443 1495.57,812.83 1497.54,813.515 1499.5,814.104 1501.46,811.295 1503.42,814.384 1505.38,809.308 1507.34,815.632 1509.31,812.114 1511.27,813.029 1513.23,816.027 1515.19,816.217 1517.15,812.272 1519.11,816.935 1521.08,818.125 1523.04,814.263 1525,820.573 1526.96,819.47 1528.92,819.006 1530.88,820.704 1532.84,825.446 1534.81,820.012 1536.77,821.873 1538.73,824.308 1540.69,824.792 1542.65,822.894 1544.61,824.057 1546.58,830.357 1548.54,827.88 1550.5,829.404 1552.46,830.254 1554.42,831.209 1556.38,832.205 1558.35,831.065 1560.31,832.76 1562.27,831.738 1564.23,833.169 1566.19,838.221 1568.15,836.494 1570.12,835.669 1572.08,838.375 1574.04,839.248 1576,836.5 1577.96,839.69 1579.92,840.505 1581.89,840.516 1583.85,835.612 1585.81,839.766 1587.77,843.823 1589.73,843.042 1591.69,844.671 1593.66,839.976 1595.62,845.668 1597.58,847.763 1599.54,848.047 1601.5,849.573 1603.46,846.564 1605.43,847.757 1607.39,848.856 1609.35,848.303 1611.31,852.116 1613.27,850.967 1615.23,849.203 1617.2,856.223 1619.16,855.57 1621.12,856.869 1623.08,853.138 1625.04,853.178 1627,855.701 1628.97,859.64 1630.93,856.791 1632.89,855.145 1634.85,861.237 1636.81,860.371 1638.77,860.784 1640.74,858.319 1642.7,857.45 1644.66,857.407 1646.62,861.429 1648.58,863.096 1650.54,861.888 1652.51,862.768 1654.47,865.874 1656.43,866.316 1658.39,862.162 1660.35,864.532 1662.31,859.751 1664.28,862.336 1666.24,866.216 1668.2,865.336 1670.16,858.498 1672.12,865.125 1674.08,863.03 1676.05,866.627 1678.01,863.65 1679.97,863.51 1681.93,863.23 1683.89,859.858 1685.85,861.605 1687.82,866.191 1689.78,860.426 1691.74,868.777 1693.7,864.015 1695.66,862.454 1697.62,863.403 1699.59,861.779 1701.55,859.675 1703.51,864.254 1705.47,858.524 1707.43,861.057 1709.39,860.803 1711.36,857.881 1713.32,857.908 1715.28,856.224 1717.24,853.876 1719.2,850.678 1721.16,851.099 1723.12,853.331 1725.09,850.969 1727.05,854.67 1729.01,852.629 1730.97,850.096 1732.93,849.417 1734.89,845.816 1736.86,848.01 1738.82,843.514 1740.78,844.263 1742.74,843.728 1744.7,843.192 1746.66,839.138 1748.63,838.599 1750.59,836.236 1752.55,833.689 1754.51,836.626 1756.47,832.253 1758.43,831.363 1760.4,827.543 1762.36,826.829 1764.32,828.563 1766.28,823.091 1768.24,818.878 1770.2,818.753 1772.17,816.758 1774.13,812.862 1776.09,816.326 1778.05,814.801 1780.01,809.434 1781.97,808.777 1783.94,804.183 1785.9,801.98 1787.86,800.549 1789.82,798.948 1791.78,797.754 1793.74,794.013 1795.71,794.703 1797.67,788.344 1799.63,786.634 1801.59,787.863 1803.55,782.166 1805.51,780.968 1807.48,775.767 1809.44,773.879 1811.4,773 1813.36,768.775 1815.32,767.834 1817.28,767.185 1819.25,763.048 1821.21,754.853 1823.17,751.961 1825.13,750.963 1827.09,750.188 1829.05,747.805 1831.02,737.208 1832.98,742.75 1834.94,735.648 1836.9,734.481 1838.86,730.764 1840.82,729.525 1842.79,723.866 1844.75,720.824 1846.71,718.454 1848.67,717.605 1850.63,713.297 1852.59,711.125 1854.56,704.968 1856.52,699.283 1858.48,699.847 1860.44,695.26 1862.4,688.903 1864.36,685.06 1866.33,683.035 1868.29,683.455 1870.25,674.818 1872.21,669.027 1874.17,668.378 1876.13,667.874 1878.1,660.271 1880.06,654.584 1882.02,654.217 1883.98,654.023 1885.94,647.242 1887.9,646.734 1889.87,642.934 1891.83,634.125 1893.79,636.744 1895.75,628.612 1897.71,628.409 1899.67,618.516 1901.64,614.814 1903.6,613.075 1905.56,609.353 1907.52,602.72 1909.48,600.945 1911.44,595.47 1913.41,594.842 1915.37,588.975 1917.33,587.409 1919.29,581.683 1921.25,576.026 1923.21,574.956 1925.17,570.033 1927.14,564.252 1929.1,565.311 1931.06,561.224 1933.02,553.752 1934.98,550.836 1936.94,545.569 1938.91,541.427 1940.87,540.921 1942.83,533.395 1944.79,529.934 1946.75,530.986 1948.71,526.357 1950.68,521.919 1952.64,518.794 1954.6,511.461 1956.56,508.153 1958.52,510.04 1960.48,501.349 1962.45,501.508 1964.41,495.972 1966.37,490.891 1968.33,489.98 1970.29,477.068 1972.25,480.233 1974.22,475.077 1976.18,470.092 1978.14,469.24 1980.1,463.536 1982.06,461.962 1984.02,452.148 1985.99,454.615 1987.95,452.558 1989.91,443.137 1991.87,441.276 1993.83,441.175 1995.79,436.292 1997.76,427.75 1999.72,430.227 2001.68,429.064 2003.64,418.738 2005.6,419.061 2007.56,417.141 2009.53,413.013 2011.49,409.546 2013.45,413.285 2015.41,403.123 2017.37,400.106 2019.33,401.623 2021.3,394.025 2023.26,389.627 2025.22,390.335 2027.18,386.177 2029.14,379.267 2031.1,378.77 2033.07,374.398 2035.03,373.633 2036.99,367.666 2038.95,365.456 2040.91,360.302 2042.87,360.329 2044.84,356.953 2046.8,359.359 2048.76,354.979 2050.72,348.594 2052.68,344.469 2054.64,345.928 2056.61,337.486 2058.57,334.046 2060.53,331.073 2062.49,333.608 2064.45,332.087 2066.41,328.418 2068.38,325.883 2070.34,325.36 2072.3,323.219 2074.26,317.416 2076.22,315.911 2078.18,312.903 2080.15,308.176 2082.11,305.423 2084.07,303.617 2086.03,307.739 2087.99,298.925 2089.95,300.06 2091.92,296.729 2093.88,291.878 2095.84,291.103 2097.8,291.92 2099.76,285.245 2101.72,280.408 2103.69,282.452 2105.65,280.565 2107.61,280.883 2109.57,278.525 2111.53,276.518 2113.49,271.499 2115.46,268.644 2117.42,265.689 2119.38,263.443 2121.34,262.849 2123.3,257.617 2125.26,257.571 2127.22,254.585 2129.19,258.116 2131.15,251.894 2133.11,252.581 2135.07,245.858 2137.03,249.076 2138.99,242.718 2140.96,245.672 2142.92,236.589 2144.88,238.203 2146.84,237.852 2148.8,236.68 2150.76,231.973 2152.73,226.202 2154.69,225.767 2156.65,227.95 2158.61,221.139 2160.57,222.457 2162.53,219.311 2164.5,216.281 2166.46,214.309 2168.42,211.324 2170.38,207.293 2172.34,206.531 2174.3,205.512 2176.27,200.643 2178.23,197.73 2180.19,195.788 2182.15,194.399 2184.11,190.141 2186.07,189.832 2188.04,190.136 2190,187.45 2191.96,185.044 2193.92,182.14 2195.88,178.949 2197.84,178.358 2199.81,177.52 2201.77,175.213 2203.73,167.636 2205.69,168.382 2207.65,163.868 2209.61,162.742 2211.58,159.091 2213.54,156.199 2215.5,153.724 2217.46,152.11 2219.42,152.175 2221.38,149.213 2223.35,147.723 2225.31,148.156 2227.27,139.774 2229.23,138.068 2231.19,135.355 2233.15,130.842 2235.12,131.888 2237.08,130.038 2239.04,125.621 2241,124.387 2242.96,123.21 2244.92,121.443 2246.89,118.397 2248.85,112.286 2250.81,110.746 2252.77,108.963 2254.73,106.078 2256.69,108.341 2258.66,105.349 2260.62,100.749 2262.58,100.039 2264.54,94.5947 2266.5,94.0432 2268.46,93.6788 2270.43,89.8091 2272.39,92.1635 2274.35,86.4646 2276.31,92.8847 2278.27,87.6172 2280.23,86.7693 2282.2,81.397 2284.16,82.7057 2286.12,82.5274 2288.08,81.9141 2290.04,84.408 2292,83.6418 2293.97,77.4213 "/>
<path clip-path="url(#clip620)" d="M1847.8 236.113 L2283.51 236.113 L2283.51 80.5926 L1847.8 80.5926  Z" fill="#ffffff" fill-rule="evenodd" fill-opacity="1"/>
<polyline clip-path="url(#clip620)" style="stroke:#000000; stroke-linecap:round; stroke-linejoin:round; stroke-width:4; stroke-opacity:1; fill:none" points="1847.8,236.113 2283.51,236.113 2283.51,80.5926 1847.8,80.5926 1847.8,236.113 "/>
<polyline clip-path="url(#clip620)" style="stroke:#808080; stroke-linecap:round; stroke-linejoin:round; stroke-width:8; stroke-opacity:1; fill:none" points="1870.88,132.433 2009.37,132.433 "/>
<path clip-path="url(#clip620)" d="M2048.28 119.759 L2041.94 136.958 L2054.65 136.958 L2048.28 119.759 M2045.64 115.153 L2050.94 115.153 L2064.11 149.713 L2059.25 149.713 L2056.11 140.847 L2040.53 140.847 L2037.38 149.713 L2032.45 149.713 L2045.64 115.153 Z" fill="#000000" fill-rule="nonzero" fill-opacity="1" /><path clip-path="url(#clip620)" d="M2090.53 134.065 L2090.53 149.713 L2086.27 149.713 L2086.27 134.203 Q2086.27 130.523 2084.83 128.694 Q2083.4 126.866 2080.53 126.866 Q2077.08 126.866 2075.09 129.065 Q2073.1 131.264 2073.1 135.06 L2073.1 149.713 L2068.81 149.713 L2068.81 123.787 L2073.1 123.787 L2073.1 127.815 Q2074.62 125.477 2076.68 124.319 Q2078.77 123.162 2081.48 123.162 Q2085.94 123.162 2088.23 125.94 Q2090.53 128.694 2090.53 134.065 Z" fill="#000000" fill-rule="nonzero" fill-opacity="1" /><path clip-path="url(#clip620)" d="M2110.8 136.68 Q2105.64 136.68 2103.65 137.861 Q2101.66 139.041 2101.66 141.889 Q2101.66 144.157 2103.14 145.5 Q2104.65 146.819 2107.22 146.819 Q2110.76 146.819 2112.89 144.319 Q2115.04 141.796 2115.04 137.629 L2115.04 136.68 L2110.8 136.68 M2119.3 134.921 L2119.3 149.713 L2115.04 149.713 L2115.04 145.777 Q2113.58 148.139 2111.41 149.273 Q2109.23 150.384 2106.08 150.384 Q2102.1 150.384 2099.74 148.162 Q2097.4 145.916 2097.4 142.166 Q2097.4 137.791 2100.32 135.569 Q2103.26 133.347 2109.07 133.347 L2115.04 133.347 L2115.04 132.93 Q2115.04 129.991 2113.1 128.393 Q2111.17 126.773 2107.68 126.773 Q2105.46 126.773 2103.35 127.305 Q2101.24 127.838 2099.3 128.903 L2099.3 124.967 Q2101.64 124.065 2103.84 123.625 Q2106.04 123.162 2108.12 123.162 Q2113.74 123.162 2116.52 126.078 Q2119.3 128.995 2119.3 134.921 Z" fill="#000000" fill-rule="nonzero" fill-opacity="1" /><path clip-path="url(#clip620)" d="M2128.07 113.694 L2132.33 113.694 L2132.33 149.713 L2128.07 149.713 L2128.07 113.694 Z" fill="#000000" fill-rule="nonzero" fill-opacity="1" /><path clip-path="url(#clip620)" d="M2152.03 152.12 Q2150.23 156.75 2148.51 158.162 Q2146.8 159.574 2143.93 159.574 L2140.53 159.574 L2140.53 156.009 L2143.03 156.009 Q2144.79 156.009 2145.76 155.176 Q2146.73 154.342 2147.91 151.24 L2148.67 149.296 L2138.19 123.787 L2142.7 123.787 L2150.8 144.065 L2158.91 123.787 L2163.42 123.787 L2152.03 152.12 Z" fill="#000000" fill-rule="nonzero" fill-opacity="1" /><path clip-path="url(#clip620)" d="M2173.51 116.426 L2173.51 123.787 L2182.29 123.787 L2182.29 127.097 L2173.51 127.097 L2173.51 141.171 Q2173.51 144.342 2174.37 145.245 Q2175.25 146.148 2177.91 146.148 L2182.29 146.148 L2182.29 149.713 L2177.91 149.713 Q2172.98 149.713 2171.1 147.884 Q2169.23 146.032 2169.23 141.171 L2169.23 127.097 L2166.1 127.097 L2166.1 123.787 L2169.23 123.787 L2169.23 116.426 L2173.51 116.426 Z" fill="#000000" fill-rule="nonzero" fill-opacity="1" /><path clip-path="url(#clip620)" d="M2187.89 123.787 L2192.15 123.787 L2192.15 149.713 L2187.89 149.713 L2187.89 123.787 M2187.89 113.694 L2192.15 113.694 L2192.15 119.088 L2187.89 119.088 L2187.89 113.694 Z" fill="#000000" fill-rule="nonzero" fill-opacity="1" /><path clip-path="url(#clip620)" d="M2219.72 124.782 L2219.72 128.764 Q2217.91 127.768 2216.08 127.282 Q2214.28 126.773 2212.42 126.773 Q2208.28 126.773 2205.99 129.412 Q2203.7 132.028 2203.7 136.773 Q2203.7 141.518 2205.99 144.157 Q2208.28 146.773 2212.42 146.773 Q2214.28 146.773 2216.08 146.287 Q2217.91 145.777 2219.72 144.782 L2219.72 148.717 Q2217.93 149.551 2216.01 149.967 Q2214.11 150.384 2211.96 150.384 Q2206.1 150.384 2202.66 146.703 Q2199.21 143.023 2199.21 136.773 Q2199.21 130.43 2202.68 126.796 Q2206.17 123.162 2212.24 123.162 Q2214.21 123.162 2216.08 123.579 Q2217.96 123.972 2219.72 124.782 Z" fill="#000000" fill-rule="nonzero" fill-opacity="1" /><path clip-path="url(#clip620)" d="M2238.91 136.68 Q2233.74 136.68 2231.75 137.861 Q2229.76 139.041 2229.76 141.889 Q2229.76 144.157 2231.24 145.5 Q2232.75 146.819 2235.32 146.819 Q2238.86 146.819 2240.99 144.319 Q2243.14 141.796 2243.14 137.629 L2243.14 136.68 L2238.91 136.68 M2247.4 134.921 L2247.4 149.713 L2243.14 149.713 L2243.14 145.777 Q2241.68 148.139 2239.51 149.273 Q2237.33 150.384 2234.18 150.384 Q2230.2 150.384 2227.84 148.162 Q2225.5 145.916 2225.5 142.166 Q2225.5 137.791 2228.42 135.569 Q2231.36 133.347 2237.17 133.347 L2243.14 133.347 L2243.14 132.93 Q2243.14 129.991 2241.2 128.393 Q2239.28 126.773 2235.78 126.773 Q2233.56 126.773 2231.45 127.305 Q2229.34 127.838 2227.4 128.903 L2227.4 124.967 Q2229.74 124.065 2231.94 123.625 Q2234.14 123.162 2236.22 123.162 Q2241.84 123.162 2244.62 126.078 Q2247.4 128.995 2247.4 134.921 Z" fill="#000000" fill-rule="nonzero" fill-opacity="1" /><path clip-path="url(#clip620)" d="M2256.17 113.694 L2260.43 113.694 L2260.43 149.713 L2256.17 149.713 L2256.17 113.694 Z" fill="#000000" fill-rule="nonzero" fill-opacity="1" /><polyline clip-path="url(#clip620)" style="stroke:#ff0000; stroke-linecap:round; stroke-linejoin:round; stroke-width:4; stroke-opacity:1; fill:none" points="1870.88,184.273 2009.37,184.273 "/>
<path clip-path="url(#clip620)" d="M2054.69 168.127 L2054.69 172.687 Q2052.03 171.414 2049.67 170.789 Q2047.31 170.164 2045.11 170.164 Q2041.29 170.164 2039.21 171.645 Q2037.15 173.127 2037.15 175.858 Q2037.15 178.15 2038.51 179.331 Q2039.9 180.488 2043.74 181.206 L2046.57 181.784 Q2051.8 182.78 2054.28 185.303 Q2056.78 187.803 2056.78 192.016 Q2056.78 197.039 2053.4 199.631 Q2050.04 202.224 2043.54 202.224 Q2041.08 202.224 2038.3 201.668 Q2035.55 201.113 2032.59 200.025 L2032.59 195.21 Q2035.43 196.807 2038.17 197.617 Q2040.9 198.428 2043.54 198.428 Q2047.54 198.428 2049.72 196.854 Q2051.89 195.28 2051.89 192.363 Q2051.89 189.817 2050.32 188.381 Q2048.77 186.946 2045.2 186.229 L2042.36 185.673 Q2037.12 184.631 2034.79 182.409 Q2032.45 180.187 2032.45 176.229 Q2032.45 171.645 2035.67 169.006 Q2038.91 166.368 2044.58 166.368 Q2047.01 166.368 2049.53 166.807 Q2052.05 167.247 2054.69 168.127 Z" fill="#000000" fill-rule="nonzero" fill-opacity="1" /><path clip-path="url(#clip620)" d="M2064.07 166.993 L2068.74 166.993 L2068.74 197.617 L2085.57 197.617 L2085.57 201.553 L2064.07 201.553 L2064.07 166.993 Z" fill="#000000" fill-rule="nonzero" fill-opacity="1" /><path clip-path="url(#clip620)" d="M2095.16 170.835 L2095.16 183.821 L2101.04 183.821 Q2104.3 183.821 2106.08 182.131 Q2107.86 180.442 2107.86 177.317 Q2107.86 174.215 2106.08 172.525 Q2104.3 170.835 2101.04 170.835 L2095.16 170.835 M2090.48 166.993 L2101.04 166.993 Q2106.85 166.993 2109.81 169.631 Q2112.79 172.247 2112.79 177.317 Q2112.79 182.432 2109.81 185.048 Q2106.85 187.664 2101.04 187.664 L2095.16 187.664 L2095.16 201.553 L2090.48 201.553 L2090.48 166.993 Z" fill="#000000" fill-rule="nonzero" fill-opacity="1" /></svg>
